  0
SECTION
  2
HEADER
  9
$ACADVER
  1
AC1015
  9
$ACADMAINTVER
 70
    20
  9
$DWGCODEPAGE
  3
ANSI_950
  9
$INSBASE
 10
0.0
 20
0.0
 30
0.0
  9
$EXTMIN
 10
0.0
 20
-0.8062981732605731
 30
0.0
  9
$EXTMAX
 10
297.4331240736936
 20
210.8452858922237
 30
0.0
  9
$LIMMIN
 10
0.0
 20
0.0
  9
$LIMMAX
 10
297.0
 20
210.0
  9
$ORTHOMODE
 70
     0
  9
$REGENMODE
 70
     1
  9
$FILLMODE
 70
     1
  9
$QTEXTMODE
 70
     0
  9
$MIRRTEXT
 70
     0
  9
$LTSCALE
 40
16.335
  9
$ATTMODE
 70
     1
  9
$TEXTSIZE
 40
0.2
  9
$TRACEWID
 40
0.05
  9
$TEXTSTYLE
  7
STANDARD
  9
$CLAYER
  8
0
  9
$CELTYPE
  6
BYLAYER
  9
$CECOLOR
 62
   256
  9
$CELTSCALE
 40
1.0
  9
$DISPSILH
 70
     0
  9
$DIMSCALE
 40
1.0
  9
$DIMASZ
 40
2.0
  9
$DIMEXO
 40
1.85625
  9
$DIMDLI
 40
11.286
  9
$DIMRND
 40
0.0
  9
$DIMDLE
 40
0.0
  9
$DIMEXE
 40
5.346
  9
$DIMTP
 40
0.01
  9
$DIMTM
 40
0.01
  9
$DIMTXT
 40
2.5
  9
$DIMCEN
 40
2.673
  9
$DIMTSZ
 40
0.0
  9
$DIMTOL
 70
     1
  9
$DIMLIM
 70
     0
  9
$DIMTIH
 70
     1
  9
$DIMTOH
 70
     1
  9
$DIMSE1
 70
     0
  9
$DIMSE2
 70
     0
  9
$DIMTAD
 70
     0
  9
$DIMZIN
 70
     0
  9
$DIMBLK
  1
_FILLED
  9
$DIMASO
 70
     1
  9
$DIMSHO
 70
     1
  9
$DIMPOST
  1

  9
$DIMAPOST
  1

  9
$DIMALT
 70
     0
  9
$DIMALTD
 70
     2
  9
$DIMALTF
 40
25.4
  9
$DIMLFAC
 40
1.0
  9
$DIMTOFL
 70
     0
  9
$DIMTVP
 40
0.0
  9
$DIMTIX
 70
     0
  9
$DIMSOXD
 70
     0
  9
$DIMSAH
 70
     0
  9
$DIMBLK1
  1

  9
$DIMBLK2
  1

  9
$DIMSTYLE
  2
STANDARD
  9
$DIMCLRD
 70
     0
  9
$DIMCLRE
 70
     0
  9
$DIMCLRT
 70
     0
  9
$DIMTFAC
 40
1.0
  9
$DIMGAP
 40
0.09
  9
$DIMJUST
 70
     0
  9
$DIMSD1
 70
     0
  9
$DIMSD2
 70
     0
  9
$DIMTOLJ
 70
     1
  9
$DIMTZIN
 70
     0
  9
$DIMALTZ
 70
     0
  9
$DIMALTTZ
 70
     0
  9
$DIMUPT
 70
     0
  9
$DIMDEC
 70
     4
  9
$DIMTDEC
 70
     4
  9
$DIMALTU
 70
     2
  9
$DIMALTTD
 70
     2
  9
$DIMTXSTY
  7
STANDARD
  9
$DIMAUNIT
 70
     0
  9
$DIMADEC
 70
     0
  9
$DIMALTRND
 40
0.0
  9
$DIMAZIN
 70
     0
  9
$DIMDSEP
 70
    46
  9
$DIMATFIT
 70
     3
  9
$DIMFRAC
 70
     0
  9
$DIMLDRBLK
  1

  9
$DIMLUNIT
 70
     2
  9
$DIMLWD
 70
    -2
  9
$DIMLWE
 70
    -2
  9
$DIMTMOVE
 70
     0
  9
$LUNITS
 70
     2
  9
$LUPREC
 70
     4
  9
$SKETCHINC
 40
0.1
  9
$FILLETRAD
 40
0.0
  9
$AUNITS
 70
     0
  9
$AUPREC
 70
     0
  9
$MENU
  1
.
  9
$ELEVATION
 40
0.0
  9
$PELEVATION
 40
0.0
  9
$THICKNESS
 40
0.0
  9
$LIMCHECK
 70
     0
  9
$CHAMFERA
 40
0.0
  9
$CHAMFERB
 40
0.0
  9
$CHAMFERC
 40
0.0
  9
$CHAMFERD
 40
0.0
  9
$SKPOLY
 70
     0
  9
$TDCREATE
 40
2456996.636939746
  9
$TDUCREATE
 40
2456996.303606412
  9
$TDUPDATE
 40
2457877.681960903
  9
$TDUUPDATE
 40
2457877.348627570
  9
$TDINDWG
 40
0.0069133102
  9
$TDUSRTIMER
 40
0.0069133102
  9
$USRTIMER
 70
     1
  9
$ANGBASE
 50
0.0
  9
$ANGDIR
 70
     0
  9
$PDMODE
 70
     3
  9
$PDSIZE
 40
0.3125
  9
$PLINEWID
 40
0.0
  9
$SPLFRAME
 70
     0
  9
$SPLINETYPE
 70
     6
  9
$SPLINESEGS
 70
     8
  9
$HANDSEED
  5
667
  9
$SURFTAB1
 70
     6
  9
$SURFTAB2
 70
     6
  9
$SURFTYPE
 70
     6
  9
$SURFU
 70
     6
  9
$SURFV
 70
     6
  9
$UCSBASE
  2

  9
$UCSNAME
  2

  9
$UCSORG
 10
0.0
 20
0.0
 30
0.0
  9
$UCSXDIR
 10
1.0
 20
0.0
 30
0.0
  9
$UCSYDIR
 10
0.0
 20
1.0
 30
0.0
  9
$UCSORTHOREF
  2

  9
$UCSORTHOVIEW
 70
     0
  9
$UCSORGTOP
 10
0.0
 20
0.0
 30
0.0
  9
$UCSORGBOTTOM
 10
0.0
 20
0.0
 30
0.0
  9
$UCSORGLEFT
 10
0.0
 20
0.0
 30
0.0
  9
$UCSORGRIGHT
 10
0.0
 20
0.0
 30
0.0
  9
$UCSORGFRONT
 10
0.0
 20
0.0
 30
0.0
  9
$UCSORGBACK
 10
0.0
 20
0.0
 30
0.0
  9
$PUCSBASE
  2

  9
$PUCSNAME
  2

  9
$PUCSORG
 10
0.0
 20
0.0
 30
0.0
  9
$PUCSXDIR
 10
1.0
 20
0.0
 30
0.0
  9
$PUCSYDIR
 10
0.0
 20
1.0
 30
0.0
  9
$PUCSORTHOREF
  2

  9
$PUCSORTHOVIEW
 70
     0
  9
$PUCSORGTOP
 10
0.0
 20
0.0
 30
0.0
  9
$PUCSORGBOTTOM
 10
0.0
 20
0.0
 30
0.0
  9
$PUCSORGLEFT
 10
0.0
 20
0.0
 30
0.0
  9
$PUCSORGRIGHT
 10
0.0
 20
0.0
 30
0.0
  9
$PUCSORGFRONT
 10
0.0
 20
0.0
 30
0.0
  9
$PUCSORGBACK
 10
0.0
 20
0.0
 30
0.0
  9
$USERI1
 70
     0
  9
$USERI2
 70
     0
  9
$USERI3
 70
     0
  9
$USERI4
 70
     0
  9
$USERI5
 70
     0
  9
$USERR1
 40
0.0
  9
$USERR2
 40
0.0
  9
$USERR3
 40
0.0
  9
$USERR4
 40
0.0
  9
$USERR5
 40
0.0
  9
$WORLDVIEW
 70
     1
  9
$SHADEDGE
 70
     3
  9
$SHADEDIF
 70
    70
  9
$TILEMODE
 70
     1
  9
$MAXACTVP
 70
    48
  9
$PINSBASE
 10
0.0
 20
0.0
 30
0.0
  9
$PLIMCHECK
 70
     0
  9
$PEXTMIN
 10
1.000000000000000E+20
 20
1.000000000000000E+20
 30
1.000000000000000E+20
  9
$PEXTMAX
 10
-1.000000000000000E+20
 20
-1.000000000000000E+20
 30
-1.000000000000000E+20
  9
$PLIMMIN
 10
0.0
 20
0.0
  9
$PLIMMAX
 10
12.0
 20
9.0
  9
$UNITMODE
 70
     0
  9
$VISRETAIN
 70
     1
  9
$PLINEGEN
 70
     0
  9
$PSLTSCALE
 70
     1
  9
$TREEDEPTH
 70
  3020
  9
$CMLSTYLE
  2
Standard
  9
$CMLJUST
 70
     0
  9
$CMLSCALE
 40
1.0
  9
$PROXYGRAPHICS
 70
     1
  9
$MEASUREMENT
 70
     1
  9
$CELWEIGHT
370
    -1
  9
$ENDCAPS
280
     0
  9
$JOINSTYLE
280
     0
  9
$LWDISPLAY
290
     0
  9
$INSUNITS
 70
     4
  9
$HYPERLINKBASE
  1

  9
$STYLESHEET
  1

  9
$XEDIT
290
     1
  9
$CEPSNTYPE
380
     0
  9
$PSTYLEMODE
290
     1
  9
$FINGERPRINTGUID
  2
{4F60CBF4-9894-4497-9BA2-2EDBF831FED4}
  9
$VERSIONGUID
  2
{F5DB2A84-CC48-4DDD-9464-9EFC1F1D876F}
  9
$EXTNAMES
290
     1
  9
$PSVPSCALE
 40
0.0
  9
$OLESTARTUP
290
     0
  0
ENDSEC
  0
SECTION
  2
CLASSES
  0
CLASS
  1
ACDBDICTIONARYWDFLT
  2
AcDbDictionaryWithDefault
  3
ObjectDBX Classes
 90
        0
280
     0
281
     0
  0
CLASS
  1
ACDBPLACEHOLDER
  2
AcDbPlaceHolder
  3
ObjectDBX Classes
 90
        0
280
     0
281
     0
  0
CLASS
  1
LAYOUT
  2
AcDbLayout
  3
ObjectDBX Classes
 90
        0
280
     0
281
     0
  0
CLASS
  1
MATERIAL
  2
AcDbMaterial
  3
ObjectDBX Classes
 90
     1153
280
     0
281
     0
  0
CLASS
  1
VISUALSTYLE
  2
AcDbVisualStyle
  3
ObjectDBX Classes
 90
     4095
280
     0
281
     0
  0
CLASS
  1
TABLESTYLE
  2
AcDbTableStyle
  3
ObjectDBX Classes
 90
     4095
280
     0
281
     0
  0
CLASS
  1
SCALE
  2
AcDbScale
  3
ObjectDBX Classes
 90
     1153
280
     0
281
     0
  0
CLASS
  1
MLEADERSTYLE
  2
AcDbMLeaderStyle
  3
ACDB_MLEADERSTYLE_CLASS
 90
     4095
280
     0
281
     0
  0
CLASS
  1
CELLSTYLEMAP
  2
AcDbCellStyleMap
  3
ObjectDBX Classes
 90
     1152
280
     0
281
     0
  0
CLASS
  1
DICTIONARYVAR
  2
AcDbDictionaryVar
  3
ObjectDBX Classes
 90
        0
280
     0
281
     0
  0
ENDSEC
  0
SECTION
  2
TABLES
  0
TABLE
  2
VPORT
  5
8
102
{ACAD_XDICTIONARY
360
4BD
102
}
330
0
100
AcDbSymbolTable
 70
     1
  0
VPORT
  5
1F4
330
8
100
AcDbSymbolTableRecord
100
AcDbViewportTableRecord
  2
*ACTIVE
 70
     0
 10
0.0
 20
0.0
 11
1.0
 21
1.0
 12
199.0272572457428
 22
58.74164829133689
 13
0.0
 23
0.0
 14
1.0
 24
1.0
 15
0.0
 25
0.0
 16
0.0
 26
0.0
 36
1.0
 17
0.0
 27
0.0
 37
0.0
 40
143.2851897021074
 41
2.232057416267942
 42
50.0
 43
0.0
 44
0.0
 50
0.0
 51
0.0
 71
     0
 72
   100
 73
     1
 74
     1
 75
     0
 76
     0
 77
     0
 78
     0
281
     0
 65
     1
110
0.0
120
0.0
130
0.0
111
1.0
121
0.0
131
0.0
112
0.0
122
1.0
132
0.0
 79
     0
146
0.0
  0
ENDTAB
  0
TABLE
  2
LTYPE
  5
5
330
0
100
AcDbSymbolTable
 70
     6
  0
LTYPE
  5
14
330
5
100
AcDbSymbolTableRecord
100
AcDbLinetypeTableRecord
  2
BYBLOCK
 70
     0
  3

 72
    65
 73
     0
 40
0.0
  0
LTYPE
  5
15
330
5
100
AcDbSymbolTableRecord
100
AcDbLinetypeTableRecord
  2
BYLAYER
 70
     0
  3

 72
    65
 73
     0
 40
0.0
  0
LTYPE
  5
16
330
5
100
AcDbSymbolTableRecord
100
AcDbLinetypeTableRecord
  2
CONTINUOUS
 70
     0
  3
Solid line
 72
    65
 73
     0
 40
0.0
  0
LTYPE
  5
1F5
330
5
100
AcDbSymbolTableRecord
100
AcDbLinetypeTableRecord
  2
CENTER
 70
     0
  3
____ _ ____ _ ____ _ ____ _ ____ _ ____ _ ____
 72
    65
 73
     4
 40
0.6
 49
0.375
 74
     0
 49
-0.075
 74
     0
 49
0.075
 74
     0
 49
-0.075
 74
     0
  0
LTYPE
  5
1F6
330
5
100
AcDbSymbolTableRecord
100
AcDbLinetypeTableRecord
  2
HIDDEN
 70
     0
  3
- - - - - - - - - - - - - - - - - - - -
 72
    65
 73
     2
 40
0.2
 49
0.1
 74
     0
 49
-0.1
 74
     0
  0
LTYPE
  5
1F7
330
5
100
AcDbSymbolTableRecord
100
AcDbLinetypeTableRecord
  2
PHANTOM
 70
     0
  3
_____ _ _ _____ _ _ _____ _ _ _____
 72
    65
 73
     6
 40
0.8
 49
0.45
 74
     0
 49
-0.05
 74
     0
 49
0.1
 74
     0
 49
-0.05
 74
     0
 49
0.1
 74
     0
 49
-0.05
 74
     0
  0
LTYPE
  5
1F8
330
5
100
AcDbSymbolTableRecord
100
AcDbLinetypeTableRecord
  2
DOT
 70
     0
  3
. . . . . . . . . . . . . . . . . . . .
 72
    65
 73
     2
 40
0.2
 49
0.1
 74
     0
 49
-0.1
 74
     0
  0
LTYPE
  5
1F9
330
5
100
AcDbSymbolTableRecord
100
AcDbLinetypeTableRecord
  2
DASHED
 70
     0
  3
- - - - - - - - - - - - - - - - - - - -
 72
    65
 73
     2
 40
0.2
 49
0.1
 74
     0
 49
-0.1
 74
     0
  0
ENDTAB
  0
TABLE
  2
LAYER
  5
2
330
0
100
AcDbSymbolTable
 70
     5
  0
LAYER
  5
10
102
{ACAD_XDICTIONARY
360
464
102
}
330
2
100
AcDbSymbolTableRecord
100
AcDbLayerTableRecord
  2
0
 70
     0
 62
     7
  6
CONTINUOUS
370
    -3
390
F
  0
LAYER
  5
1FA
102
{ACAD_XDICTIONARY
360
466
102
}
330
2
100
AcDbSymbolTableRecord
100
AcDbLayerTableRecord
  2
DEFAULT_1
 70
     0
 62
     7
  6
CENTER
370
    -3
390
F
  0
LAYER
  5
1FB
102
{ACAD_XDICTIONARY
360
468
102
}
330
2
100
AcDbSymbolTableRecord
100
AcDbLayerTableRecord
  2
DEFAULT_2
 70
     0
 62
     8
  6
HIDDEN
370
    -3
390
F
  0
LAYER
  5
1FC
102
{ACAD_XDICTIONARY
360
46A
102
}
330
2
100
AcDbSymbolTableRecord
100
AcDbLayerTableRecord
  2
DEFAULT_3
 70
     0
 62
     7
  6
PHANTOM
370
    -3
390
F
  0
LAYER
  5
1FD
102
{ACAD_XDICTIONARY
360
46C
102
}
330
2
100
AcDbSymbolTableRecord
100
AcDbLayerTableRecord
  2
_2D_DELETED_OBJS
 70
     0
 62
     7
  6
CONTINUOUS
370
    -3
390
F
  0
ENDTAB
  0
TABLE
  2
STYLE
  5
3
330
0
100
AcDbSymbolTable
 70
     2
  0
STYLE
  5
11
330
3
100
AcDbSymbolTableRecord
100
AcDbTextStyleTableRecord
  2
STANDARD
 70
     0
 40
0.0
 41
1.0
 50
0.0
 71
     0
 42
0.2
  3
arial.ttf
  4

1001
ACAD
1000
ARIAL
1071
       34
  0
STYLE
  5
1FE
330
3
100
AcDbSymbolTableRecord
100
AcDbTextStyleTableRecord
  2
TEXTSTYLE_1
 70
     0
 40
0.0
 41
1.0
 50
0.0
 71
     0
 42
0.2
  3
arial.ttf
  4

1001
ACAD
1000
ARIAL
1071
       34
  0
ENDTAB
  0
TABLE
  2
VIEW
  5
6
330
0
100
AcDbSymbolTable
 70
     0
  0
ENDTAB
  0
TABLE
  2
UCS
  5
7
330
0
100
AcDbSymbolTable
 70
     0
  0
ENDTAB
  0
TABLE
  2
APPID
  5
9
330
0
100
AcDbSymbolTable
 70
     4
  0
APPID
  5
1FF
330
9
100
AcDbSymbolTableRecord
100
AcDbRegAppTableRecord
  2
ACAD
 70
     0
  0
APPID
  5
457
330
9
100
AcDbSymbolTableRecord
100
AcDbRegAppTableRecord
  2
ACAD_MLEADERVER
 70
     0
  0
APPID
  5
45D
330
9
100
AcDbSymbolTableRecord
100
AcDbRegAppTableRecord
  2
ACAD_EXEMPT_FROM_CAD_STANDARDS
 70
     0
  0
APPID
  5
477
330
9
100
AcDbSymbolTableRecord
100
AcDbRegAppTableRecord
  2
ACAD_PSEXT
 70
     0
  0
ENDTAB
  0
TABLE
  2
DIMSTYLE
  5
A
330
0
100
AcDbSymbolTable
 70
     3
100
AcDbDimStyleTable
 71
     0
  0
DIMSTYLE
105
211
330
A
100
AcDbSymbolTableRecord
100
AcDbDimStyleTableRecord
  2
STANDARD
 70
     0
 41
2.0
 47
0.01
 48
0.01
 71
     1
 73
     0
 74
     0
 77
     1
140
2.5
271
     2
272
     2
340
11
341
200
342
200
343
200
344
200
  0
DIMSTYLE
105
212
102
{ACAD_REACTORS
330
2F6
330
2F7
330
2F8
330
2F9
330
2FE
330
2FF
330
300
330
301
330
302
330
304
102
}
330
A
100
AcDbSymbolTableRecord
100
AcDbDimStyleTableRecord
  2
DIMSTYLE_1
 70
     0
 41
2.0
 47
0.01
 48
0.01
 73
     0
 74
     0
 77
     1
140
2.5
144
0.2
271
     2
272
     2
340
11
341
200
342
200
343
200
344
200
  0
DIMSTYLE
105
213
102
{ACAD_REACTORS
330
305
102
}
330
A
100
AcDbSymbolTableRecord
100
AcDbDimStyleTableRecord
  2
DIMSTYLE_2
 70
     0
 41
2.0
 47
0.01
 48
0.01
 77
     1
140
2.5
144
0.2
271
     2
272
     2
340
11
341
200
342
200
343
200
344
200
  0
ENDTAB
  0
TABLE
  2
BLOCK_RECORD
  5
1
330
0
100
AcDbSymbolTable
 70
    12
  0
BLOCK_RECORD
  5
1F
102
{ACAD_XDICTIONARY
360
4C9
102
}
330
1
100
AcDbSymbolTableRecord
100
AcDbBlockTableRecord
  2
*MODEL_SPACE
340
22
  0
BLOCK_RECORD
  5
1B
102
{ACAD_XDICTIONARY
360
4C5
102
}
330
1
100
AcDbSymbolTableRecord
100
AcDbBlockTableRecord
  2
*PAPER_SPACE
340
1E
  0
BLOCK_RECORD
  5
200
330
1
100
AcDbSymbolTableRecord
100
AcDbBlockTableRecord
  2
_FILLED
340
0
102
{BLKREFS
331
21A
331
21B
331
223
331
224
331
22C
331
22D
331
237
331
238
331
266
331
267
331
26F
331
270
331
278
331
279
331
282
331
283
331
28C
331
28D
331
2A0
331
2A1
331
2A8
102
}
  0
BLOCK_RECORD
  5
201
330
1
100
AcDbSymbolTableRecord
100
AcDbBlockTableRecord
  2
*D1
340
0
  0
BLOCK_RECORD
  5
202
330
1
100
AcDbSymbolTableRecord
100
AcDbBlockTableRecord
  2
*D2
340
0
  0
BLOCK_RECORD
  5
203
330
1
100
AcDbSymbolTableRecord
100
AcDbBlockTableRecord
  2
*D3
340
0
  0
BLOCK_RECORD
  5
204
330
1
100
AcDbSymbolTableRecord
100
AcDbBlockTableRecord
  2
*D4
340
0
  0
BLOCK_RECORD
  5
209
330
1
100
AcDbSymbolTableRecord
100
AcDbBlockTableRecord
  2
*D5
340
0
  0
BLOCK_RECORD
  5
20A
330
1
100
AcDbSymbolTableRecord
100
AcDbBlockTableRecord
  2
*D6
340
0
  0
BLOCK_RECORD
  5
20B
330
1
100
AcDbSymbolTableRecord
100
AcDbBlockTableRecord
  2
*D7
340
0
  0
BLOCK_RECORD
  5
20C
330
1
100
AcDbSymbolTableRecord
100
AcDbBlockTableRecord
  2
*D8
340
0
  0
BLOCK_RECORD
  5
20D
330
1
100
AcDbSymbolTableRecord
100
AcDbBlockTableRecord
  2
*D9
340
0
  0
BLOCK_RECORD
  5
20F
330
1
100
AcDbSymbolTableRecord
100
AcDbBlockTableRecord
  2
*D10
340
0
  0
BLOCK_RECORD
  5
210
330
1
100
AcDbSymbolTableRecord
100
AcDbBlockTableRecord
  2
*D11
340
0
  0
ENDTAB
  0
ENDSEC
  0
SECTION
  2
BLOCKS
  0
BLOCK
  5
20
330
1F
100
AcDbEntity
  8
0
100
AcDbBlockBegin
  2
*MODEL_SPACE
 70
     0
 10
0.0
 20
0.0
 30
0.0
  3
*MODEL_SPACE
  1

  0
ENDBLK
  5
21
330
1F
100
AcDbEntity
  8
0
100
AcDbBlockEnd
  0
BLOCK
  5
1C
330
1B
100
AcDbEntity
 67
     1
  8
0
100
AcDbBlockBegin
  2
*PAPER_SPACE
 70
     0
 10
0.0
 20
0.0
 30
0.0
  3
*PAPER_SPACE
  1

  0
ENDBLK
  5
1D
330
1B
100
AcDbEntity
 67
     1
  8
0
100
AcDbBlockEnd
  0
BLOCK
  5
2AA
330
200
100
AcDbEntity
  8
0
100
AcDbBlockBegin
  2
_FILLED
 70
     0
 10
0.0
 20
0.0
 30
0.0
  3
_FILLED
  1

  0
SOLID
  5
2AB
330
200
100
AcDbEntity
  8
0
  6
ByBlock
 62
     0
100
AcDbTrace
 10
0.0
 20
0.0
 30
0.0
 11
-1.0
 21
0.175
 31
0.0
 12
-1.0
 22
-0.175
 32
0.0
 13
-1.0
 23
-0.175
 33
0.0
  0
ENDBLK
  5
2AC
330
200
100
AcDbEntity
  8
0
  6
ByBlock
 62
     0
100
AcDbBlockEnd
  0
BLOCK
  5
214
330
201
100
AcDbEntity
  8
0
  6
Continuous
 62
     4
100
AcDbBlockBegin
  2
*D1
 70
     1
 10
0.0
 20
0.0
 30
0.0
  3
*D1
  1

  0
TEXT
  5
215
330
201
100
AcDbEntity
  8
0
  6
Continuous
 62
     4
100
AcDbText
 10
121.0038237787
 20
162.204238358
 30
0.0
 40
2.5
  1
10.00
100
AcDbText
  0
LINE
  5
216
330
201
100
AcDbEntity
  8
0
  6
Continuous
 62
     4
100
AcDbLine
 10
150.3718535185
 20
143.579238358
 30
0.0
 11
150.3718535185
 21
163.079238358
 31
0.0
  0
LINE
  5
217
330
201
100
AcDbEntity
  8
0
  6
Continuous
 62
     4
100
AcDbLine
 10
100.3718535185
 20
143.579238358
 30
0.0
 11
100.3718535185
 21
163.079238358
 31
0.0
  0
LINE
  5
218
330
201
100
AcDbEntity
  8
0
  6
Continuous
 62
     4
100
AcDbLine
 10
150.3718535185
 20
161.579238358
 30
0.0
 11
125.3718535185
 21
161.579238358
 31
0.0
  0
LINE
  5
219
330
201
100
AcDbEntity
  8
0
  6
Continuous
 62
     4
100
AcDbLine
 10
100.3718535185
 20
161.579238358
 30
0.0
 11
125.3718535185
 21
161.579238358
 31
0.0
  0
INSERT
  5
21A
330
201
100
AcDbEntity
  8
0
  6
Continuous
 62
     4
100
AcDbBlockReference
  2
_FILLED
 10
150.3718535185
 20
161.579238358
 30
0.0
 41
2.0
 42
2.0
 43
2.0
  0
INSERT
  5
21B
330
201
100
AcDbEntity
  8
0
  6
Continuous
 62
     4
100
AcDbBlockReference
  2
_FILLED
 10
100.3718535185
 20
161.579238358
 30
0.0
 41
2.0
 42
2.0
 43
2.0
 50
180.0
  0
ENDBLK
  5
21C
330
201
100
AcDbEntity
  8
0
  6
ByBlock
 62
     0
100
AcDbBlockEnd
  0
BLOCK
  5
21D
330
202
100
AcDbEntity
  8
0
  6
Continuous
 62
     4
100
AcDbBlockBegin
  2
*D2
 70
     1
 10
0.0
 20
0.0
 30
0.0
  3
*D2
  1

  0
TEXT
  5
21E
330
202
100
AcDbEntity
  8
0
  6
Continuous
 62
     4
100
AcDbText
 10
80.7468535185
 20
93.21120861830001
 30
0.0
 40
2.5
  1
18.00
 50
90.0
100
AcDbText
  0
LINE
  5
21F
330
202
100
AcDbEntity
  8
0
  6
Continuous
 62
     4
100
AcDbLine
 10
99.37185351850001
 20
142.579238358
 30
0.0
 11
79.8718535185
 21
142.579238358
 31
0.0
  0
LINE
  5
220
330
202
100
AcDbEntity
  8
0
  6
Continuous
 62
     4
100
AcDbLine
 10
99.37185351850001
 20
52.579238358
 30
0.0
 11
79.8718535185
 21
52.579238358
 31
0.0
  0
LINE
  5
221
330
202
100
AcDbEntity
  8
0
  6
Continuous
 62
     4
100
AcDbLine
 10
81.3718535185
 20
142.579238358
 30
0.0
 11
81.3718535185
 21
97.57923835799999
 31
0.0
  0
LINE
  5
222
330
202
100
AcDbEntity
  8
0
  6
Continuous
 62
     4
100
AcDbLine
 10
81.3718535185
 20
52.579238358
 30
0.0
 11
81.3718535185
 21
97.57923835799999
 31
0.0
  0
INSERT
  5
223
330
202
100
AcDbEntity
  8
0
  6
Continuous
 62
     4
100
AcDbBlockReference
  2
_FILLED
 10
81.3718535185
 20
142.579238358
 30
0.0
 41
2.0
 42
2.0
 43
2.0
 50
90.0
  0
INSERT
  5
224
330
202
100
AcDbEntity
  8
0
  6
Continuous
 62
     4
100
AcDbBlockReference
  2
_FILLED
 10
81.3718535185
 20
52.579238358
 30
0.0
 41
2.0
 42
2.0
 43
2.0
 50
270.0
  0
ENDBLK
  5
225
330
202
100
AcDbEntity
  8
0
  6
ByBlock
 62
     0
100
AcDbBlockEnd
  0
BLOCK
  5
226
330
203
100
AcDbEntity
  8
0
  6
Continuous
 62
     4
100
AcDbBlockBegin
  2
*D3
 70
     1
 10
0.0
 20
0.0
 30
0.0
  3
*D3
  1

  0
TEXT
  5
227
330
203
100
AcDbEntity
  8
0
  6
Continuous
 62
     4
100
AcDbText
 10
121.9750133698
 20
43.204238358
 30
0.0
 40
2.5
  1
8.00
100
AcDbText
  0
LINE
  5
228
330
203
100
AcDbEntity
  8
0
  6
Continuous
 62
     4
100
AcDbLine
 10
105.3718535185
 20
56.57923835800001
 30
0.0
 11
105.3718535185
 21
41.079238358
 31
0.0
  0
LINE
  5
229
330
203
100
AcDbEntity
  8
0
  6
Continuous
 62
     4
100
AcDbLine
 10
145.3718535185
 20
56.57923835800001
 30
0.0
 11
145.3718535185
 21
41.079238358
 31
0.0
  0
LINE
  5
22A
330
203
100
AcDbEntity
  8
0
  6
Continuous
 62
     4
100
AcDbLine
 10
105.3718535185
 20
42.579238358
 30
0.0
 11
125.3718535185
 21
42.579238358
 31
0.0
  0
LINE
  5
22B
330
203
100
AcDbEntity
  8
0
  6
Continuous
 62
     4
100
AcDbLine
 10
145.3718535185
 20
42.579238358
 30
0.0
 11
125.3718535185
 21
42.579238358
 31
0.0
  0
INSERT
  5
22C
330
203
100
AcDbEntity
  8
0
  6
Continuous
 62
     4
100
AcDbBlockReference
  2
_FILLED
 10
105.3718535185
 20
42.579238358
 30
0.0
 41
2.0
 42
2.0
 43
2.0
 50
180.0
  0
INSERT
  5
22D
330
203
100
AcDbEntity
  8
0
  6
Continuous
 62
     4
100
AcDbBlockReference
  2
_FILLED
 10
145.3718535185
 20
42.579238358
 30
0.0
 41
2.0
 42
2.0
 43
2.0
  0
ENDBLK
  5
22E
330
203
100
AcDbEntity
  8
0
  6
ByBlock
 62
     0
100
AcDbBlockEnd
  0
BLOCK
  5
22F
330
204
100
AcDbEntity
  8
0
  6
Continuous
 62
     4
100
AcDbBlockBegin
  2
*D4
 70
     1
 10
0.0
 20
0.0
 30
0.0
  3
*D4
  1

  0
TEXT
  5
230
330
204
100
AcDbEntity
  8
0
  6
Continuous
 62
     4
100
AcDbText
 10
89.7468535185
 20
44.7786597946
 30
0.0
 40
2.5
  1
1.00
 50
90.0
100
AcDbText
  0
LINE
  5
231
330
204
100
AcDbEntity
  8
0
  6
Continuous
 62
     4
100
AcDbLine
 10
99.37185351850001
 20
52.579238358
 30
0.0
 11
88.8718535185
 21
52.579238358
 31
0.0
  0
LINE
  5
232
330
204
100
AcDbEntity
  8
0
  6
Continuous
 62
     4
100
AcDbLine
 10
104.3718535185
 20
57.579238358
 30
0.0
 11
88.8718535185
 21
57.579238358
 31
0.0
  0
LINE
  5
233
330
204
100
AcDbEntity
  8
0
  6
Continuous
 62
     4
100
AcDbLine
 10
90.3718535185
 20
52.579238358
 30
0.0
 11
90.3718535185
 21
44.7786597946
 31
0.0
  0
LINE
  5
234
330
204
100
AcDbEntity
  8
0
  6
Continuous
 62
     4
100
AcDbLine
 10
90.3718535185
 20
44.7786597946
 30
0.0
 11
90.3718535185
 21
55.079238358
 31
0.0
  0
LINE
  5
235
330
204
100
AcDbEntity
  8
0
  6
Continuous
 62
     4
100
AcDbLine
 10
90.3718535185
 20
57.579238358
 30
0.0
 11
90.3718535185
 21
60.079238358
 31
0.0
  0
LINE
  5
236
330
204
100
AcDbEntity
  8
0
  6
Continuous
 62
     4
100
AcDbLine
 10
90.3718535185
 20
60.079238358
 30
0.0
 11
90.3718535185
 21
55.079238358
 31
0.0
  0
INSERT
  5
237
330
204
100
AcDbEntity
  8
0
  6
Continuous
 62
     4
100
AcDbBlockReference
  2
_FILLED
 10
90.3718535185
 20
52.579238358
 30
0.0
 41
2.0
 42
2.0
 43
2.0
 50
90.0
  0
INSERT
  5
238
330
204
100
AcDbEntity
  8
0
  6
Continuous
 62
     4
100
AcDbBlockReference
  2
_FILLED
 10
90.3718535185
 20
57.579238358
 30
0.0
 41
2.0
 42
2.0
 43
2.0
 50
270.0
  0
ENDBLK
  5
239
330
204
100
AcDbEntity
  8
0
  6
ByBlock
 62
     0
100
AcDbBlockEnd
  0
BLOCK
  5
260
330
209
100
AcDbEntity
  8
0
  6
Continuous
 62
     4
100
AcDbBlockBegin
  2
*D5
 70
     1
 10
0.0
 20
0.0
 30
0.0
  3
*D5
  1

  0
TEXT
  5
261
330
209
100
AcDbEntity
  8
0
  6
Continuous
 62
     4
100
AcDbText
 10
119.4750133698
 20
157.704238358
 30
0.0
 40
2.5
  1
9.00
100
AcDbText
  0
LINE
  5
262
330
209
100
AcDbEntity
  8
0
  6
Continuous
 62
     4
100
AcDbLine
 10
100.3718535185
 20
143.579238358
 30
0.0
 11
100.3718535185
 21
158.579238358
 31
0.0
  0
LINE
  5
263
330
209
100
AcDbEntity
  8
0
  6
Continuous
 62
     4
100
AcDbLine
 10
145.3718535185
 20
140.079238358
 30
0.0
 11
145.3718535185
 21
158.579238358
 31
0.0
  0
LINE
  5
264
330
209
100
AcDbEntity
  8
0
  6
Continuous
 62
     4
100
AcDbLine
 10
100.3718535185
 20
157.079238358
 30
0.0
 11
122.8718535185
 21
157.079238358
 31
0.0
  0
LINE
  5
265
330
209
100
AcDbEntity
  8
0
  6
Continuous
 62
     4
100
AcDbLine
 10
145.3718535185
 20
157.079238358
 30
0.0
 11
122.8718535185
 21
157.079238358
 31
0.0
  0
INSERT
  5
266
330
209
100
AcDbEntity
  8
0
  6
Continuous
 62
     4
100
AcDbBlockReference
  2
_FILLED
 10
100.3718535185
 20
157.079238358
 30
0.0
 41
2.0
 42
2.0
 43
2.0
 50
180.0
  0
INSERT
  5
267
330
209
100
AcDbEntity
  8
0
  6
Continuous
 62
     4
100
AcDbBlockReference
  2
_FILLED
 10
145.3718535185
 20
157.079238358
 30
0.0
 41
2.0
 42
2.0
 43
2.0
  0
ENDBLK
  5
268
330
209
100
AcDbEntity
  8
0
  6
ByBlock
 62
     0
100
AcDbBlockEnd
  0
BLOCK
  5
269
330
20A
100
AcDbEntity
  8
0
  6
Continuous
 62
     4
100
AcDbBlockBegin
  2
*D6
 70
     1
 10
0.0
 20
0.0
 30
0.0
  3
*D6
  1

  0
TEXT
  5
26A
330
20A
100
AcDbEntity
  8
0
  6
Continuous
 62
     4
100
AcDbText
 10
159.7468535185
 20
88.83620861830001
 30
0.0
 40
2.5
  1
16.25
 50
90.0
100
AcDbText
  0
LINE
  5
26B
330
20A
100
AcDbEntity
  8
0
  6
Continuous
 62
     4
100
AcDbLine
 10
151.6218535185
 20
133.829238358
 30
0.0
 11
161.8718535185
 21
133.829238358
 31
0.0
  0
LINE
  5
26C
330
20A
100
AcDbEntity
  8
0
  6
Continuous
 62
     4
100
AcDbLine
 10
151.3718535185
 20
52.579238358
 30
0.0
 11
161.8718535185
 21
52.579238358
 31
0.0
  0
LINE
  5
26D
330
20A
100
AcDbEntity
  8
0
  6
Continuous
 62
     4
100
AcDbLine
 10
160.3718535185
 20
133.829238358
 30
0.0
 11
160.3718535185
 21
93.20423835799999
 31
0.0
  0
LINE
  5
26E
330
20A
100
AcDbEntity
  8
0
  6
Continuous
 62
     4
100
AcDbLine
 10
160.3718535185
 20
52.579238358
 30
0.0
 11
160.3718535185
 21
93.20423835799999
 31
0.0
  0
INSERT
  5
26F
330
20A
100
AcDbEntity
  8
0
  6
Continuous
 62
     4
100
AcDbBlockReference
  2
_FILLED
 10
160.3718535185
 20
133.829238358
 30
0.0
 41
2.0
 42
2.0
 43
2.0
 50
90.0
  0
INSERT
  5
270
330
20A
100
AcDbEntity
  8
0
  6
Continuous
 62
     4
100
AcDbBlockReference
  2
_FILLED
 10
160.3718535185
 20
52.579238358
 30
0.0
 41
2.0
 42
2.0
 43
2.0
 50
270.0
  0
ENDBLK
  5
271
330
20A
100
AcDbEntity
  8
0
  6
ByBlock
 62
     0
100
AcDbBlockEnd
  0
BLOCK
  5
272
330
20B
100
AcDbEntity
  8
0
  6
Continuous
 62
     4
100
AcDbBlockBegin
  2
*D7
 70
     1
 10
0.0
 20
0.0
 30
0.0
  3
*D7
  1

  0
TEXT
  5
273
330
20B
100
AcDbEntity
  8
0
  6
Continuous
 62
     4
100
AcDbText
 10
89.7468535185
 20
86.71120861830001
 30
0.0
 40
2.5
  1
13.40
 50
90.0
100
AcDbText
  0
LINE
  5
274
330
20B
100
AcDbEntity
  8
0
  6
Continuous
 62
     4
100
AcDbLine
 10
104.3718535185
 20
124.579238358
 30
0.0
 11
88.8718535185
 21
124.579238358
 31
0.0
  0
LINE
  5
275
330
20B
100
AcDbEntity
  8
0
  6
Continuous
 62
     4
100
AcDbLine
 10
104.3718535185
 20
57.579238358
 30
0.0
 11
88.8718535185
 21
57.579238358
 31
0.0
  0
LINE
  5
276
330
20B
100
AcDbEntity
  8
0
  6
Continuous
 62
     4
100
AcDbLine
 10
90.3718535185
 20
124.579238358
 30
0.0
 11
90.3718535185
 21
91.07923835799999
 31
0.0
  0
LINE
  5
277
330
20B
100
AcDbEntity
  8
0
  6
Continuous
 62
     4
100
AcDbLine
 10
90.3718535185
 20
57.579238358
 30
0.0
 11
90.3718535185
 21
91.07923835799999
 31
0.0
  0
INSERT
  5
278
330
20B
100
AcDbEntity
  8
0
  6
Continuous
 62
     4
100
AcDbBlockReference
  2
_FILLED
 10
90.3718535185
 20
124.579238358
 30
0.0
 41
2.0
 42
2.0
 43
2.0
 50
90.0
  0
INSERT
  5
279
330
20B
100
AcDbEntity
  8
0
  6
Continuous
 62
     4
100
AcDbBlockReference
  2
_FILLED
 10
90.3718535185
 20
57.579238358
 30
0.0
 41
2.0
 42
2.0
 43
2.0
 50
270.0
  0
ENDBLK
  5
27A
330
20B
100
AcDbEntity
  8
0
  6
ByBlock
 62
     0
100
AcDbBlockEnd
  0
BLOCK
  5
27B
330
20C
100
AcDbEntity
  8
0
  6
Continuous
 62
     4
100
AcDbBlockBegin
  2
*D8
 70
     1
 10
0.0
 20
0.0
 30
0.0
  3
*D8
  1

  0
TEXT
  5
27C
330
20C
100
AcDbEntity
  8
0
  6
Continuous
 62
     4
100
AcDbText
 10
92.86547931440001
 20
43.204238358
 30
0.0
 40
2.5
  1
1.00
100
AcDbText
  0
LINE
  5
27D
330
20C
100
AcDbEntity
  8
0
  6
Continuous
 62
     4
100
AcDbLine
 10
100.3718535185
 20
51.57923835800001
 30
0.0
 11
100.3718535185
 21
41.079238358
 31
0.0
  0
LINE
  5
27E
330
20C
100
AcDbEntity
  8
0
  6
Continuous
 62
     4
100
AcDbLine
 10
105.3718535185
 20
56.57923835800001
 30
0.0
 11
105.3718535185
 21
41.079238358
 31
0.0
  0
LINE
  5
27F
330
20C
100
AcDbEntity
  8
0
  6
Continuous
 62
     4
100
AcDbLine
 10
100.3718535185
 20
42.579238358
 30
0.0
 11
102.8718535185
 21
42.579238358
 31
0.0
  0
LINE
  5
280
330
20C
100
AcDbEntity
  8
0
  6
Continuous
 62
     4
100
AcDbLine
 10
102.8718535185
 20
42.579238358
 30
0.0
 11
92.86547931440001
 21
42.579238358
 31
0.0
  0
LINE
  5
281
330
20C
100
AcDbEntity
  8
0
  6
Continuous
 62
     4
100
AcDbLine
 10
105.3718535185
 20
42.579238358
 30
0.0
 11
102.8718535185
 21
42.579238358
 31
0.0
  0
INSERT
  5
282
330
20C
100
AcDbEntity
  8
0
  6
Continuous
 62
     4
100
AcDbBlockReference
  2
_FILLED
 10
100.3718535185
 20
42.579238358
 30
0.0
 41
2.0
 42
2.0
 43
2.0
 50
180.0
  0
INSERT
  5
283
330
20C
100
AcDbEntity
  8
0
  6
Continuous
 62
     4
100
AcDbBlockReference
  2
_FILLED
 10
105.3718535185
 20
42.579238358
 30
0.0
 41
2.0
 42
2.0
 43
2.0
  0
ENDBLK
  5
284
330
20C
100
AcDbEntity
  8
0
  6
ByBlock
 62
     0
100
AcDbBlockEnd
  0
BLOCK
  5
285
330
20D
100
AcDbEntity
  8
0
  6
Continuous
 62
     4
100
AcDbBlockBegin
  2
*D9
 70
     1
 10
0.0
 20
0.0
 30
0.0
  3
*D9
  1

  0
TEXT
  5
286
330
20D
100
AcDbEntity
  8
0
  6
Continuous
 62
     4
100
AcDbText
 10
34.0125254696
 20
153.204238358
 30
0.0
 40
2.5
  1
1.00
100
AcDbText
  0
LINE
  5
287
330
20D
100
AcDbEntity
  8
0
  6
Continuous
 62
     4
100
AcDbLine
 10
28.6727490103
 20
143.579238358
 30
0.0
 11
28.6727490103
 21
154.079238358
 31
0.0
  0
LINE
  5
288
330
20D
100
AcDbEntity
  8
0
  6
Continuous
 62
     4
100
AcDbLine
 10
33.6727490103
 20
143.579238358
 30
0.0
 11
33.6727490103
 21
154.079238358
 31
0.0
  0
LINE
  5
289
330
20D
100
AcDbEntity
  8
0
  6
Continuous
 62
     4
100
AcDbLine
 10
28.6727490103
 20
152.579238358
 30
0.0
 11
31.1727490103
 21
152.579238358
 31
0.0
  0
LINE
  5
28A
330
20D
100
AcDbEntity
  8
0
  6
Continuous
 62
     4
100
AcDbLine
 10
33.6727490103
 20
152.579238358
 30
0.0
 11
31.1727490103
 21
152.579238358
 31
0.0
  0
LINE
  5
28B
330
20D
100
AcDbEntity
  8
0
  6
Continuous
 62
     4
100
AcDbLine
 10
31.1727490103
 20
152.579238358
 30
0.0
 11
40.806205767
 21
152.579238358
 31
0.0
  0
INSERT
  5
28C
330
20D
100
AcDbEntity
  8
0
  6
Continuous
 62
     4
100
AcDbBlockReference
  2
_FILLED
 10
28.6727490103
 20
152.579238358
 30
0.0
 41
2.0
 42
2.0
 43
2.0
 50
180.0
  0
INSERT
  5
28D
330
20D
100
AcDbEntity
  8
0
  6
Continuous
 62
     4
100
AcDbBlockReference
  2
_FILLED
 10
33.6727490103
 20
152.579238358
 30
0.0
 41
2.0
 42
2.0
 43
2.0
  0
ENDBLK
  5
28E
330
20D
100
AcDbEntity
  8
0
  6
ByBlock
 62
     0
100
AcDbBlockEnd
  0
BLOCK
  5
299
330
20F
100
AcDbEntity
  8
0
  6
Continuous
 62
     4
100
AcDbBlockBegin
  2
*D10
 70
     1
 10
0.0
 20
0.0
 30
0.0
  3
*D10
  1

  0
TEXT
  5
29A
330
20F
100
AcDbEntity
  8
0
  6
Continuous
 62
     4
100
AcDbText
 10
43.1382110238
 20
43.204238358
 30
0.0
 40
2.5
  1
2.70(MAX.)
100
AcDbText
  0
LINE
  5
29B
330
20F
100
AcDbEntity
  8
0
  6
Continuous
 62
     4
100
AcDbLine
 10
28.6727490103
 20
51.57923835800001
 30
0.0
 11
28.6727490103
 21
41.079238358
 31
0.0
  0
LINE
  5
29C
330
20F
100
AcDbEntity
  8
0
  6
Continuous
 62
     4
100
AcDbLine
 10
42.1727490103
 20
56.57923835800001
 30
0.0
 11
42.1727490103
 21
41.079238358
 31
0.0
  0
LINE
  5
29D
330
20F
100
AcDbEntity
  8
0
  6
Continuous
 62
     4
100
AcDbLine
 10
28.6727490103
 20
42.579238358
 30
0.0
 11
35.4227490103
 21
42.579238358
 31
0.0
  0
LINE
  5
29E
330
20F
100
AcDbEntity
  8
0
  6
Continuous
 62
     4
100
AcDbLine
 10
42.1727490103
 20
42.579238358
 30
0.0
 11
35.4227490103
 21
42.579238358
 31
0.0
  0
LINE
  5
29F
330
20F
100
AcDbEntity
  8
0
  6
Continuous
 62
     4
100
AcDbLine
 10
35.4227490103
 20
42.579238358
 30
0.0
 11
60.7683225479
 21
42.579238358
 31
0.0
  0
INSERT
  5
2A0
330
20F
100
AcDbEntity
  8
0
  6
Continuous
 62
     4
100
AcDbBlockReference
  2
_FILLED
 10
28.6727490103
 20
42.579238358
 30
0.0
 41
2.0
 42
2.0
 43
2.0
 50
180.0
  0
INSERT
  5
2A1
330
20F
100
AcDbEntity
  8
0
  6
Continuous
 62
     4
100
AcDbBlockReference
  2
_FILLED
 10
42.1727490103
 20
42.579238358
 30
0.0
 41
2.0
 42
2.0
 43
2.0
  0
ENDBLK
  5
2A2
330
20F
100
AcDbEntity
  8
0
  6
ByBlock
 62
     0
100
AcDbBlockEnd
  0
BLOCK
  5
2A3
330
210
100
AcDbEntity
  8
0
  6
Continuous
 62
     4
100
AcDbBlockBegin
  2
*D11
 70
     1
 10
0.0
 20
0.0
 30
0.0
  3
*D11
  1

  0
TEXT
  5
2A4
330
210
100
AcDbEntity
  8
0
  6
Continuous
 62
     4
100
AcDbText
 10
160.112086511
 20
153.204238358
 30
0.0
 40
2.5
  1
%%c0.90
100
AcDbText
  0
LINE
  5
2A5
330
210
100
AcDbEntity
  8
0
  6
Continuous
 62
     4
100
AcDbLine
 10
146.6363880854
 20
135.6902736423
 30
0.0
 11
158.112086511
 21
152.579238358
 31
0.0
  0
LINE
  5
2A6
330
210
100
AcDbEntity
  8
0
  6
Continuous
 62
     4
100
AcDbLine
 10
158.112086511
 20
152.579238358
 30
0.0
 11
158.112116211
 21
152.579238358
 31
0.0
  0
LINE
  5
2A7
330
210
100
AcDbEntity
  8
0
  6
Continuous
 62
     4
100
AcDbLine
 10
158.112116211
 20
152.579238358
 30
0.0
 11
172.7391001417
 21
152.579238358
 31
0.0
  0
INSERT
  5
2A8
330
210
100
AcDbEntity
  8
0
  6
Continuous
 62
     4
100
AcDbBlockReference
  2
_FILLED
 10
146.6363880854
 20
135.6902736423
 30
0.0
 41
2.0
 42
2.0
 43
2.0
 50
235.8047115753
  0
ENDBLK
  5
2A9
330
210
100
AcDbEntity
  8
0
  6
ByBlock
 62
     0
100
AcDbBlockEnd
  0
ENDSEC
  0
SECTION
  2
ENTITIES
  0
TEXT
  5
2AD
330
1F
100
AcDbEntity
  8
0
  6
Continuous
 62
     7
100
AcDbText
 10
215.2735382495334
 20
27.3266475452
 30
0.0
 40
1.5
  1
 
  7
TEXTSTYLE_1
 72
     1
 11
215.564636476
 21
27.3266475452
 31
0.0
100
AcDbText
  0
TEXT
  5
2AE
330
1F
100
AcDbEntity
  8
0
  6
Continuous
 62
     7
100
AcDbText
 10
147.461539
 20
0.422283
 30
0.0
 40
4.15
  1
3
 51
5.0
  7
TEXTSTYLE_1
100
AcDbText
  0
TEXT
  5
2AF
330
1F
100
AcDbEntity
  8
0
  6
Continuous
 62
     7
100
AcDbText
 10
1.053212999999999
 20
31.227745
 30
0.0
 40
4.15
  1
D
 51
5.0
  7
TEXTSTYLE_1
100
AcDbText
  0
TEXT
  5
2B0
330
1F
100
AcDbEntity
  8
0
  6
Continuous
 62
     7
100
AcDbText
 10
36.346154
 20
0.422283
 30
0.0
 40
4.15
  1
1
 51
5.0
  7
TEXTSTYLE_1
100
AcDbText
  0
TEXT
  5
2B1
330
1F
100
AcDbEntity
  8
0
  6
Continuous
 62
     7
100
AcDbText
 10
1.053212999999999
 20
79.148905
 30
0.0
 40
4.15
  1
C
 51
5.0
  7
TEXTSTYLE_1
100
AcDbText
  0
TEXT
  5
2B2
330
1F
100
AcDbEntity
  8
0
  6
Continuous
 62
     7
100
AcDbText
 10
92.42307700000001
 20
0.422283
 30
0.0
 40
4.15
  1
2
 51
5.0
  7
TEXTSTYLE_1
100
AcDbText
  0
TEXT
  5
2B3
330
1F
100
AcDbEntity
  8
0
  6
Continuous
 62
     7
100
AcDbText
 10
1.053212999999999
 20
128.649882
 30
0.0
 40
4.15
  1
B
 51
5.0
  7
TEXTSTYLE_1
100
AcDbText
  0
TEXT
  5
2B4
330
1F
100
AcDbEntity
  8
0
  6
Continuous
 62
     7
100
AcDbText
 10
1.053212999999999
 20
178.6774669999999
 30
0.0
 40
4.15
  1
A
 51
5.0
  7
TEXTSTYLE_1
100
AcDbText
  0
TEXT
  5
2B5
330
1F
100
AcDbEntity
  8
0
  6
Continuous
 62
     7
100
AcDbText
 10
34.269231
 20
205.596923
 30
0.0
 40
4.15
  1
1
 51
5.0
  7
TEXTSTYLE_1
100
AcDbText
  0
TEXT
  5
2B6
330
1F
100
AcDbEntity
  8
0
  6
Continuous
 62
     7
100
AcDbText
 10
90.34615399999999
 20
205.596923
 30
0.0
 40
4.15
  1
2
 51
5.0
  7
TEXTSTYLE_1
100
AcDbText
  0
TEXT
  5
2B7
330
1F
100
AcDbEntity
  8
0
  6
Continuous
 62
     7
100
AcDbText
 10
145.384616
 20
205.596923
 30
0.0
 40
4.15
  1
3
 51
5.0
  7
TEXTSTYLE_1
100
AcDbText
  0
TEXT
  5
2B8
330
1F
100
AcDbEntity
  8
0
  6
Continuous
 62
     7
100
AcDbText
 10
190.76256
 20
6.56311
 30
0.0
 40
1.0
  1
%%p0.50
  7
TEXTSTYLE_1
100
AcDbText
  0
TEXT
  5
2B9
330
1F
100
AcDbEntity
  8
0
  6
Continuous
 62
     7
100
AcDbText
 10
190.76256
 20
10.06311
 30
0.0
 40
1.0
  1
%%p0.25
  7
TEXTSTYLE_1
100
AcDbText
  0
TEXT
  5
2BA
330
1F
100
AcDbEntity
  8
0
  6
Continuous
 62
     7
100
AcDbText
 10
190.76256
 20
13.56311
 30
0.0
 40
1.0
  1
%%p0.12
  7
TEXTSTYLE_1
100
AcDbText
  0
TEXT
  5
2BB
330
1F
100
AcDbEntity
  8
0
  6
Continuous
 62
     7
100
AcDbText
 10
190.76256
 20
17.06311
 30
0.0
 40
1.0
  1
%%p0.08
  7
TEXTSTYLE_1
100
AcDbText
  0
TEXT
  5
2BC
330
1F
100
AcDbEntity
  8
0
  6
Continuous
 62
     7
100
AcDbText
 10
190.76256
 20
20.56311
 30
0.0
 40
1.0
  1
%%p0.05
  7
TEXTSTYLE_1
100
AcDbText
  0
TEXT
  5
2BD
330
1F
100
AcDbEntity
  8
0
  6
Continuous
 62
     7
100
AcDbText
 10
180.080076
 20
6.471963999999999
 30
0.0
 40
1.25
  1
250~800
  7
TEXTSTYLE_1
100
AcDbText
  0
TEXT
  5
2BE
330
1F
100
AcDbEntity
  8
0
  6
Continuous
 62
     7
100
AcDbText
 10
179.369598
 20
13.471964
 30
0.0
 40
1.25
  1
 25~80
  7
TEXTSTYLE_1
100
AcDbText
  0
TEXT
  5
2BF
330
1F
100
AcDbEntity
  8
0
  6
Continuous
 62
     7
100
AcDbText
 10
179.260711
 20
16.971964
 30
0.0
 40
1.25
  1
  8~25
  7
TEXTSTYLE_1
100
AcDbText
  0
TEXT
  5
2C0
330
1F
100
AcDbEntity
  8
0
  6
Continuous
 62
     7
100
AcDbText
 10
179.506955
 20
9.971963999999999
 30
0.0
 40
1.25
  1
 80~250
  7
TEXTSTYLE_1
100
AcDbText
  0
TEXT
  5
2C1
330
1F
100
AcDbEntity
  8
0
  6
Continuous
 62
     7
100
AcDbText
 10
178.981593
 20
20.471964
 30
0.0
 40
1.25
  1
   ~8
  7
TEXTSTYLE_1
100
AcDbText
  0
TEXT
  5
2C2
330
1F
100
AcDbEntity
  8
0
  6
Continuous
 62
     7
100
AcDbText
 10
182.929552
 20
23.846964
 30
0.0
 40
1.5
  1
Dim.
  7
TEXTSTYLE_1
100
AcDbText
  0
TEXT
  5
2C3
330
1F
100
AcDbEntity
  8
0
  6
Continuous
 62
     7
100
AcDbText
 10
193.315299
 20
23.846964
 30
0.0
 40
1.5
  1
F
  7
TEXTSTYLE_1
100
AcDbText
  0
TEXT
  5
2C4
330
1F
100
AcDbEntity
  8
0
  6
Continuous
 62
     7
100
AcDbText
 10
214.76256
 20
6.56311
 30
0.0
 40
1.0
  1
%%p1.50
  7
TEXTSTYLE_1
100
AcDbText
  0
TEXT
  5
2C5
330
1F
100
AcDbEntity
  8
0
  6
Continuous
 62
     7
100
AcDbText
 10
208.76256
 20
6.56311
 30
0.0
 40
1.0
  1
%%p1.00
  7
TEXTSTYLE_1
100
AcDbText
  0
TEXT
  5
2C6
330
1F
100
AcDbEntity
  8
0
  6
Continuous
 62
     7
100
AcDbText
 10
202.76256
 20
6.56311
 30
0.0
 40
1.0
  1
%%p0.80
  7
TEXTSTYLE_1
100
AcDbText
  0
TEXT
  5
2C7
330
1F
100
AcDbEntity
  8
0
  6
Continuous
 62
     7
100
AcDbText
 10
196.76256
 20
6.56311
 30
0.0
 40
1.0
  1
%%p0.60
  7
TEXTSTYLE_1
100
AcDbText
  0
TEXT
  5
2C8
330
1F
100
AcDbEntity
  8
0
  6
Continuous
 62
     7
100
AcDbText
 10
206.653846
 20
0.422283
 30
0.0
 40
4.15
  1
4
 51
5.0
  7
TEXTSTYLE_1
100
AcDbText
  0
TEXT
  5
2C9
330
1F
100
AcDbEntity
  8
0
  6
Continuous
 62
     7
100
AcDbText
 10
214.76256
 20
17.06311
 30
0.0
 40
1.0
  1
%%p0.30
  7
TEXTSTYLE_1
100
AcDbText
  0
TEXT
  5
2CA
330
1F
100
AcDbEntity
  8
0
  6
Continuous
 62
     7
100
AcDbText
 10
214.76256
 20
20.56311
 30
0.0
 40
1.0
  1
%%p0.20
  7
TEXTSTYLE_1
100
AcDbText
  0
TEXT
  5
2CB
330
1F
100
AcDbEntity
  8
0
  6
Continuous
 62
     7
100
AcDbText
 10
214.76256
 20
13.56311
 30
0.0
 40
1.0
  1
%%p0.50
  7
TEXTSTYLE_1
100
AcDbText
  0
TEXT
  5
2CC
330
1F
100
AcDbEntity
  8
0
  6
Continuous
 62
     7
100
AcDbText
 10
214.76256
 20
10.06311
 30
0.0
 40
1.0
  1
%%p0.80
  7
TEXTSTYLE_1
100
AcDbText
  0
TEXT
  5
2CD
330
1F
100
AcDbEntity
  8
0
  6
Continuous
 62
     7
100
AcDbText
 10
217.315299
 20
23.846964
 30
0.0
 40
1.5
  1
K
  7
TEXTSTYLE_1
100
AcDbText
  0
TEXT
  5
2CE
330
1F
100
AcDbEntity
  8
0
  6
Continuous
 62
     7
100
AcDbText
 10
202.76256
 20
20.56311
 30
0.0
 40
1.0
  1
%%p0.10
  7
TEXTSTYLE_1
100
AcDbText
  0
TEXT
  5
2CF
330
1F
100
AcDbEntity
  8
0
  6
Continuous
 62
     7
100
AcDbText
 10
202.76256
 20
17.06311
 30
0.0
 40
1.0
  1
%%p0.15
  7
TEXTSTYLE_1
100
AcDbText
  0
TEXT
  5
2D0
330
1F
100
AcDbEntity
  8
0
  6
Continuous
 62
     7
100
AcDbText
 10
202.76256
 20
10.06311
 30
0.0
 40
1.0
  1
%%p0.40
  7
TEXTSTYLE_1
100
AcDbText
  0
TEXT
  5
2D1
330
1F
100
AcDbEntity
  8
0
  6
Continuous
 62
     7
100
AcDbText
 10
202.76256
 20
13.56311
 30
0.0
 40
1.0
  1
%%p0.25
  7
TEXTSTYLE_1
100
AcDbText
  0
TEXT
  5
2D2
330
1F
100
AcDbEntity
  8
0
  6
Continuous
 62
     7
100
AcDbText
 10
196.76256
 20
13.56311
 30
0.0
 40
1.0
  1
%%p0.20
  7
TEXTSTYLE_1
100
AcDbText
  0
TEXT
  5
2D3
330
1F
100
AcDbEntity
  8
0
  6
Continuous
 62
     7
100
AcDbText
 10
196.76256
 20
10.06311
 30
0.0
 40
1.0
  1
%%p0.30
  7
TEXTSTYLE_1
100
AcDbText
  0
TEXT
  5
2D4
330
1F
100
AcDbEntity
  8
0
  6
Continuous
 62
     7
100
AcDbText
 10
196.76256
 20
17.06311
 30
0.0
 40
1.0
  1
%%p0.15
  7
TEXTSTYLE_1
100
AcDbText
  0
TEXT
  5
2D5
330
1F
100
AcDbEntity
  8
0
  6
Continuous
 62
     7
100
AcDbText
 10
196.76256
 20
20.56311
 30
0.0
 40
1.0
  1
%%p0.10
  7
TEXTSTYLE_1
100
AcDbText
  0
TEXT
  5
2D6
330
1F
100
AcDbEntity
  8
0
  6
Continuous
 62
     7
100
AcDbText
 10
208.76256
 20
13.56311
 30
0.0
 40
1.0
  1
%%p0.40
  7
TEXTSTYLE_1
100
AcDbText
  0
TEXT
  5
2D7
330
1F
100
AcDbEntity
  8
0
  6
Continuous
 62
     7
100
AcDbText
 10
208.76256
 20
10.06311
 30
0.0
 40
1.0
  1
%%p0.60
  7
TEXTSTYLE_1
100
AcDbText
  0
TEXT
  5
2D8
330
1F
100
AcDbEntity
  8
0
  6
Continuous
 62
     7
100
AcDbText
 10
208.76256
 20
17.06311
 30
0.0
 40
1.0
  1
%%p0.30
  7
TEXTSTYLE_1
100
AcDbText
  0
TEXT
  5
2D9
330
1F
100
AcDbEntity
  8
0
  6
Continuous
 62
     7
100
AcDbText
 10
208.76256
 20
20.56311
 30
0.0
 40
1.0
  1
%%p0.20
  7
TEXTSTYLE_1
100
AcDbText
  0
TEXT
  5
2DA
330
1F
100
AcDbEntity
  8
0
  6
Continuous
 62
     7
100
AcDbText
 10
199.315299
 20
23.846964
 30
0.0
 40
1.5
  1
G
  7
TEXTSTYLE_1
100
AcDbText
  0
TEXT
  5
2DB
330
1F
100
AcDbEntity
  8
0
  6
Continuous
 62
     7
100
AcDbText
 10
205.315299
 20
23.846964
 30
0.0
 40
1.5
  1
H
  7
TEXTSTYLE_1
100
AcDbText
  0
TEXT
  5
2DC
330
1F
100
AcDbEntity
  8
0
  6
Continuous
 62
     7
100
AcDbText
 10
211.315299
 20
23.846964
 30
0.0
 40
1.5
  1
J
  7
TEXTSTYLE_1
100
AcDbText
  0
TEXT
  5
2DD
330
1F
100
AcDbEntity
  8
0
  6
Continuous
 62
     7
100
AcDbText
 10
265.846154
 20
0.422283
 30
0.0
 40
4.15
  1
5
 51
5.0
  7
TEXTSTYLE_1
100
AcDbText
  0
TEXT
  5
2DE
330
1F
100
AcDbEntity
  8
0
  6
Continuous
 62
     7
100
AcDbText
 10
292.787151
 20
31.227745
 30
0.0
 40
4.15
  1
D
 51
5.0
  7
TEXTSTYLE_1
100
AcDbText
  0
TEXT
  5
2DF
330
1F
100
AcDbEntity
  8
0
  6
Continuous
 62
     7
100
AcDbText
 10
292.787151
 20
79.148905
 30
0.0
 40
4.15
  1
C
 51
5.0
  7
TEXTSTYLE_1
100
AcDbText
  0
TEXT
  5
2E0
330
1F
100
AcDbEntity
  8
0
  6
Continuous
 62
     7
100
AcDbText
 10
204.576923
 20
205.596923
 30
0.0
 40
4.15
  1
4
 51
5.0
  7
TEXTSTYLE_1
100
AcDbText
  0
TEXT
  5
2E1
330
1F
100
AcDbEntity
  8
0
  6
Continuous
 62
     7
100
AcDbText
 10
292.787151
 20
128.649882
 30
0.0
 40
4.15
  1
B
 51
5.0
  7
TEXTSTYLE_1
100
AcDbText
  0
TEXT
  5
2E2
330
1F
100
AcDbEntity
  8
0
  6
Continuous
 62
     7
100
AcDbText
 10
263.769231
 20
205.596923
 30
0.0
 40
4.15
  1
5
 51
5.0
  7
TEXTSTYLE_1
100
AcDbText
  0
TEXT
  5
2E3
330
1F
100
AcDbEntity
  8
0
  6
Continuous
 62
     7
100
AcDbText
 10
292.787151
 20
178.6774669999999
 30
0.0
 40
4.15
  1
A
 51
5.0
  7
TEXTSTYLE_1
100
AcDbText
  0
TEXT
  5
2E4
330
1F
100
AcDbEntity
  8
0
  6
Continuous
 62
     7
100
AcDbText
 10
233.2602335484772
 20
27.9465416238
 30
0.0
 40
3.799999999999999
  1
Raytac Corporation
  7
TEXTSTYLE_1
 72
     1
 11
256.1276278186
 21
27.9465416238
 31
0.0
100
AcDbText
  0
TEXT
  5
2E5
330
1F
100
AcDbEntity
  8
0
  6
Continuous
 62
     7
100
AcDbText
 10
186.0248193172951
 20
30.8880783495
 30
0.0
 40
1.35
  1
Projection
  7
TEXTSTYLE_1
 72
     1
 11
190.2180150881
 21
30.8880783495
 31
0.0
100
AcDbText
  0
TEXT
  5
2E6
330
1F
100
AcDbEntity
  8
0
  6
Continuous
 62
     7
100
AcDbText
 10
181.1294410089951
 20
27.4226959519
 30
0.0
 40
1.35
  1
Tolerance
  7
TEXTSTYLE_1
 72
     1
 11
185.3226367798
 21
27.4226959519
 31
0.0
100
AcDbText
  0
TEXT
  5
2E7
330
1F
100
AcDbEntity
  8
0
  6
Continuous
 62
     7
100
AcDbText
 10
223.7675999903277
 20
6.428496094199999
 30
0.0
 40
1.35
  1
Unit
  7
TEXTSTYLE_1
 72
     1
 11
225.4445099494
 21
6.428496094199999
 31
0.0
100
AcDbText
  0
TEXT
  5
2E8
330
1F
100
AcDbEntity
  8
0
  6
Continuous
 62
     7
100
AcDbText
 10
235.3487081028607
 20
6.6108133572
 30
0.0
 40
1.5
  1
mm
  7
TEXTSTYLE_1
 72
     1
 11
237.0942742693
 21
6.6108133572
 31
0.0
100
AcDbText
  0
TEXT
  5
2E9
330
1F
100
AcDbEntity
  8
0
  6
Continuous
 62
     7
100
AcDbText
 10
203.4008055349444
 20
27.3899943173
 30
0.0
 40
1.35
  1
Angle
  7
TEXTSTYLE_1
 72
     1
 11
205.8111909374
 21
27.3899943173
 31
0.0
100
AcDbText
  0
TEXT
  5
2EA
330
1F
100
AcDbEntity
  8
0
  6
Continuous
 62
     7
100
AcDbText
 10
222.9186214036915
 20
9.924707564
 30
0.0
 40
1.35
  1
Finish
  7
TEXTSTYLE_1
 72
     1
 11
225.4339863423
 21
9.924707564
 31
0.0
100
AcDbText
  0
TEXT
  5
2EB
330
1F
100
AcDbEntity
  8
0
  6
Continuous
 62
     7
100
AcDbText
 10
222.1012147803554
 20
13.4258010139
 30
0.0
 40
1.35
  1
Material
  7
TEXTSTYLE_1
 72
     1
 11
225.4550346985
 21
13.4258010139
 31
0.0
100
AcDbText
  0
TEXT
  5
2EC
330
1F
100
AcDbEntity
  8
0
  6
Continuous
 62
     7
100
AcDbText
 10
222.8190164388623
 20
20.4247880316
 30
0.0
 40
1.35
  1
Check
  7
TEXTSTYLE_1
 72
     1
 11
225.4918506817
 21
20.4247880316
 31
0.0
100
AcDbText
  0
TEXT
  5
2ED
330
1F
100
AcDbEntity
  8
0
  6
Continuous
 62
     7
100
AcDbText
 10
222.0399112979448
 20
16.9177085371
 30
0.0
 40
1.35
  1
Approval
  7
TEXTSTYLE_1
 72
     1
 11
225.7602387195
 21
16.9177085371
 31
0.0
100
AcDbText
  0
TEXT
  5
2EE
330
1F
100
AcDbEntity
  8
0
  6
Continuous
 62
     7
100
AcDbText
 10
222.5019282906803
 20
23.9059330411
 30
0.0
 40
1.35
  1
Design
  7
TEXTSTYLE_1
 72
     1
 11
225.4372113739
 21
23.9059330411
 31
0.0
100
AcDbText
  0
TEXT
  5
2EF
330
1F
100
AcDbEntity
  8
0
  6
Continuous
 62
     7
100
AcDbText
 10
271.4666430704662
 20
6.390114944299999
 30
0.0
 40
1.419999999999999
  1
Page
  7
TEXTSTYLE_1
 72
     1
 11
273.7831028249
 21
6.390114944299999
 31
0.0
100
AcDbText
  0
TEXT
  5
2F0
330
1F
100
AcDbEntity
  8
0
  6
Continuous
 62
     7
100
AcDbText
 10
247.3080972618966
 20
6.425951695299999
 30
0.0
 40
1.35
  1
Scale
  7
TEXTSTYLE_1
 72
     1
 11
249.6669137694
 21
6.425951695299999
 31
0.0
100
AcDbText
  0
TEXT
  5
2F1
330
1F
100
AcDbEntity
  8
0
  6
Continuous
 62
     7
100
AcDbText
 10
245.3419005453818
 20
23.24288612550001
 30
0.0
 40
0.95
  1
Drawing Name
  7
TEXTSTYLE_1
 72
     1
 11
249.7303043653
 21
23.24288612550001
 31
0.0
100
AcDbText
  0
TEXT
  5
2F2
330
1F
100
AcDbEntity
  8
0
  6
Continuous
 62
     7
100
AcDbText
 10
245.4452657878044
 20
17.8039420694
 30
0.0
 40
1.35
  1
Model No.
  7
TEXTSTYLE_1
 72
     1
 11
249.7429806582
 21
17.8039420694
 31
0.0
100
AcDbText
  0
TEXT
  5
2F3
330
1F
100
AcDbEntity
  8
0
  6
Continuous
 62
     7
100
AcDbText
 10
247.7891689681693
 20
9.938151797199999
 30
0.0
 40
1.35
  1
Date
  7
TEXTSTYLE_1
 72
     1
 11
249.7810175357
 21
9.938151797199999
 31
0.0
100
AcDbText
  0
TEXT
  5
2F4
330
1F
100
AcDbEntity
  8
0
  6
Continuous
 62
     7
100
AcDbText
 10
246.3033240095026
 20
13.4503518991
 30
0.0
 40
1.35
  1
Part No.
  7
TEXTSTYLE_1
 72
     1
 11
249.7621234638
 21
13.4503518991
 31
0.0
100
AcDbText
  0
TEXT
  5
2F5
330
1F
100
AcDbEntity
  8
0
  6
Continuous
 62
     7
100
AcDbText
 10
270.3946234952844
 20
9.8636619657
 30
0.0
 40
1.419999999999999
  1
Version
  7
TEXTSTYLE_1
 72
     1
 11
273.7576794298
 21
9.8636619657
 31
0.0
100
AcDbText
  0
DIMENSION
  5
2F6
330
1F
100
AcDbEntity
  8
0
  6
Continuous
 62
     4
100
AcDbDimension
  2
*D1
 10
100.3718535185
 20
161.579238358
 30
0.0
 11
125.3718535185
 21
163.454238358
 31
0.0
 70
   160
 71
     5
 42
-1.0
  3
DIMSTYLE_1
100
AcDbAlignedDimension
 13
150.3718535185
 23
143.579238358
 33
0.0
 14
100.3718535185
 24
143.579238358
 34
0.0
 50
180.0
100
AcDbRotatedDimension
  0
DIMENSION
  5
2F7
330
1F
100
AcDbEntity
  8
0
  6
Continuous
 62
     4
100
AcDbDimension
  2
*D2
 10
81.3718535185
 20
52.579238358
 30
0.0
 11
79.4968535185
 21
97.57923835799999
 31
0.0
 70
   160
 71
     5
 42
-1.0
  3
DIMSTYLE_1
100
AcDbAlignedDimension
 13
99.37185351850001
 23
142.579238358
 33
0.0
 14
99.37185351850001
 24
52.579238358
 34
0.0
 50
270.0
100
AcDbRotatedDimension
  0
DIMENSION
  5
2F8
330
1F
100
AcDbEntity
  8
0
  6
Continuous
 62
     4
100
AcDbDimension
  2
*D3
 10
145.3718535185
 20
42.579238358
 30
0.0
 11
125.3718535185
 21
44.454238358
 31
0.0
 70
   160
 71
     5
 42
-1.0
  3
DIMSTYLE_1
100
AcDbAlignedDimension
 13
105.3718535185
 23
56.57923835800001
 33
0.0
 14
145.3718535185
 24
56.57923835800001
 34
0.0
100
AcDbRotatedDimension
  0
DIMENSION
  5
2F9
330
1F
100
AcDbEntity
  8
0
  6
Continuous
 62
     4
100
AcDbDimension
  2
*D4
 10
90.3718535185
 20
57.579238358
 30
0.0
 11
88.4968535185
 21
48.1754999433
 31
0.0
 70
   160
 71
     5
 42
-1.0
  3
DIMSTYLE_1
100
AcDbAlignedDimension
 13
99.37185351850001
 23
52.579238358
 33
0.0
 14
104.3718535185
 24
57.579238358
 34
0.0
 50
90.0
100
AcDbRotatedDimension
  0
DIMENSION
  5
2FE
330
1F
100
AcDbEntity
  8
0
  6
Continuous
 62
     4
100
AcDbDimension
  2
*D5
 10
145.3718535185
 20
157.079238358
 30
0.0
 11
122.8718535185
 21
158.954238358
 31
0.0
 70
   160
 71
     5
 42
-1.0
  3
DIMSTYLE_1
100
AcDbAlignedDimension
 13
100.3718535185
 23
143.579238358
 33
0.0
 14
145.3718535185
 24
140.079238358
 34
0.0
100
AcDbRotatedDimension
  0
DIMENSION
  5
2FF
330
1F
100
AcDbEntity
  8
0
  6
Continuous
 62
     4
100
AcDbDimension
  2
*D6
 10
160.3718535185
 20
52.579238358
 30
0.0
 11
158.4968535185
 21
93.20423835799999
 31
0.0
 70
   160
 71
     5
 42
-1.0
  3
DIMSTYLE_1
100
AcDbAlignedDimension
 13
151.6218535185
 23
133.829238358
 33
0.0
 14
151.3718535185
 24
52.579238358
 34
0.0
 50
270.0
100
AcDbRotatedDimension
  0
DIMENSION
  5
300
330
1F
100
AcDbEntity
  8
0
  6
Continuous
 62
     4
100
AcDbDimension
  2
*D7
 10
90.3718535185
 20
57.579238358
 30
0.0
 11
88.4968535185
 21
91.07923835799999
 31
0.0
 70
   160
 71
     5
 42
-1.0
  3
DIMSTYLE_1
100
AcDbAlignedDimension
 13
104.3718535185
 23
124.579238358
 33
0.0
 14
104.3718535185
 24
57.579238358
 34
0.0
 50
270.0
100
AcDbRotatedDimension
  0
DIMENSION
  5
301
330
1F
100
AcDbEntity
  8
0
  6
Continuous
 62
     4
100
AcDbDimension
  2
*D8
 10
105.3718535185
 20
42.579238358
 30
0.0
 11
96.26231946309999
 21
44.454238358
 31
0.0
 70
   160
 71
     5
 42
-1.0
  3
DIMSTYLE_1
100
AcDbAlignedDimension
 13
100.3718535185
 23
51.57923835800001
 33
0.0
 14
105.3718535185
 24
56.57923835800001
 34
0.0
100
AcDbRotatedDimension
  0
DIMENSION
  5
302
330
1F
100
AcDbEntity
  8
0
  6
Continuous
 62
     4
100
AcDbDimension
  2
*D9
 10
33.6727490103
 20
152.579238358
 30
0.0
 11
37.4093656183
 21
154.454238358
 31
0.0
 70
   160
 71
     5
 42
-1.0
  3
DIMSTYLE_1
100
AcDbAlignedDimension
 13
28.6727490103
 23
143.579238358
 33
0.0
 14
33.6727490103
 24
143.579238358
 34
0.0
100
AcDbRotatedDimension
  0
DIMENSION
  5
304
330
1F
100
AcDbEntity
  8
0
  6
Continuous
 62
     4
100
AcDbDimension
  2
*D10
 10
42.1727490103
 20
42.579238358
 30
0.0
 11
51.95326678589999
 21
44.454238358
 31
0.0
 70
   160
  1
<>(MAX.)
 71
     5
 42
-1.0
  3
DIMSTYLE_1
100
AcDbAlignedDimension
 13
28.6727490103
 23
51.57923835800001
 33
0.0
 14
42.1727490103
 24
56.57923835800001
 34
0.0
100
AcDbRotatedDimension
  0
DIMENSION
  5
305
330
1F
100
AcDbEntity
  8
0
  6
Continuous
 62
     4
100
AcDbDimension
  2
*D11
 10
146.6363880854
 20
135.6902736423
 30
0.0
 11
165.1755933263
 21
154.454238358
 31
0.0
 70
   163
  1
<>
 71
     5
 42
-1.0
  3
DIMSTYLE_2
100
AcDbDiametricDimension
 15
144.1073189517
 25
131.9682030738
 35
0.0
 40
0.0
  0
LINE
  5
306
330
1F
100
AcDbEntity
  8
0
  6
Continuous
 62
     7
100
AcDbLine
 10
168.7357753966
 20
204.542769113
 30
0.0
 11
291.7357753966
 21
204.542769113
 31
0.0
  0
LINE
  5
307
330
1F
100
AcDbEntity
  8
0
  6
Continuous
 62
     7
100
AcDbLine
 10
168.7357753966
 20
204.542769113
 30
0.0
 11
168.7357753966
 21
184.542769113
 31
0.0
  0
LINE
  5
308
330
1F
100
AcDbEntity
  8
0
  6
Continuous
 62
     7
100
AcDbLine
 10
168.7357753966
 20
199.542769113
 30
0.0
 11
291.7357753966
 21
199.542769113
 31
0.0
  0
LINE
  5
309
330
1F
100
AcDbEntity
  8
0
  6
Continuous
 62
     7
100
AcDbLine
 10
168.7357753966
 20
194.542769113
 30
0.0
 11
291.7357753966
 21
194.542769113
 31
0.0
  0
LINE
  5
30A
330
1F
100
AcDbEntity
  8
0
  6
Continuous
 62
     7
100
AcDbLine
 10
168.7357753966
 20
189.542769113
 30
0.0
 11
291.7357753966
 21
189.542769113
 31
0.0
  0
LINE
  5
30B
330
1F
100
AcDbEntity
  8
0
  6
Continuous
 62
     7
100
AcDbLine
 10
168.7357753966
 20
184.542769113
 30
0.0
 11
291.7357753966
 21
184.542769113
 31
0.0
  0
LINE
  5
30C
330
1F
100
AcDbEntity
  8
0
  6
Continuous
 62
     7
100
AcDbLine
 10
178.7357753966
 20
204.542769113
 30
0.0
 11
178.7357753966
 21
184.542769113
 31
0.0
  0
LINE
  5
30D
330
1F
100
AcDbEntity
  8
0
  6
Continuous
 62
     7
100
AcDbLine
 10
193.7357753966
 20
204.542769113
 30
0.0
 11
193.7357753966
 21
184.542769113
 31
0.0
  0
LINE
  5
30E
330
1F
100
AcDbEntity
  8
0
  6
Continuous
 62
     7
100
AcDbLine
 10
243.7357753966
 20
204.542769113
 30
0.0
 11
243.7357753966
 21
184.542769113
 31
0.0
  0
LINE
  5
30F
330
1F
100
AcDbEntity
  8
0
  6
Continuous
 62
     7
100
AcDbLine
 10
259.7357753966
 20
204.542769113
 30
0.0
 11
259.7357753966
 21
184.542769113
 31
0.0
  0
LINE
  5
310
330
1F
100
AcDbEntity
  8
0
  6
Continuous
 62
     7
100
AcDbLine
 10
275.7357753966
 20
204.542769113
 30
0.0
 11
275.7357753966
 21
184.542769113
 31
0.0
  0
LINE
  5
311
330
1F
100
AcDbEntity
  8
0
  6
Continuous
 62
     7
100
AcDbLine
 10
291.7357753966
 20
204.542769113
 30
0.0
 11
291.7357753966
 21
184.542769113
 31
0.0
  0
TEXT
  5
312
330
1F
100
AcDbEntity
  8
0
  6
Continuous
 62
     7
100
AcDbText
 10
171.5618326953721
 20
201.042769113
 30
0.0
 40
2.0
  1
No.
  7
TEXTSTYLE_1
 72
     1
 11
173.7357753966
 21
201.042769113
 31
0.0
100
AcDbText
  0
TEXT
  5
313
330
1F
100
AcDbEntity
  8
0
  6
Continuous
 62
     7
100
AcDbText
 10
183.2848886298878
 20
201.042769113
 30
0.0
 40
2.0
  1
Date
  7
TEXTSTYLE_1
 72
     1
 11
186.2357753966
 21
201.042769113
 31
0.0
100
AcDbText
  0
TEXT
  5
314
330
1F
100
AcDbEntity
  8
0
  6
Continuous
 62
     7
100
AcDbText
 10
211.7480537049219
 20
201.042769113
 30
0.0
 40
2.0
  1
Description
  7
TEXTSTYLE_1
 72
     1
 11
218.7357753966
 21
201.042769113
 31
0.0
100
AcDbText
  0
TEXT
  5
315
330
1F
100
AcDbEntity
  8
0
  6
Continuous
 62
     7
100
AcDbText
 10
247.3872078659042
 20
201.042769113
 30
0.0
 40
2.0
  1
Design
  7
TEXTSTYLE_1
 72
     1
 11
251.7357753966
 21
201.042769113
 31
0.0
100
AcDbText
  0
TEXT
  5
316
330
1F
100
AcDbEntity
  8
0
  6
Continuous
 62
     7
100
AcDbText
 10
263.7760209627664
 20
201.042769113
 30
0.0
 40
2.0
  1
Check
  7
TEXTSTYLE_1
 72
     1
 11
267.7357753966
 21
201.042769113
 31
0.0
100
AcDbText
  0
TEXT
  5
317
330
1F
100
AcDbEntity
  8
0
  6
Continuous
 62
     7
100
AcDbText
 10
278.2241792165181
 20
201.042769113
 30
0.0
 40
2.0
  1
Approval
  7
TEXTSTYLE_1
 72
     1
 11
283.7357753966
 21
201.042769113
 31
0.0
100
AcDbText
  0
TEXT
  5
318
330
1F
100
AcDbEntity
  8
0
  6
Continuous
 62
     7
100
AcDbText
 10
172.9588313311156
 20
196.042769113
 30
0.0
 40
2.0
  1
1
  7
TEXTSTYLE_1
 72
     1
 11
173.7357753966
 21
196.042769113
 31
0.0
100
AcDbText
  0
TEXT
  5
319
330
1F
100
AcDbEntity
  8
0
  6
Continuous
 62
     7
100
AcDbText
 10
179.9431423815931
 20
196.142769113
 30
0.0
 40
1.8
  1
03/26/2014
 72
     1
 11
186.2357753966
 21
196.142769113
 31
0.0
100
AcDbText
  0
TEXT
  5
31A
330
1F
100
AcDbEntity
  8
0
  6
Continuous
 62
     7
100
AcDbText
 10
208.2562392438032
 20
196.042769113
 30
0.0
 40
2.0
  1
INITIAL DESIGN
  7
TEXTSTYLE_1
 72
     1
 11
218.7357753966
 21
196.042769113
 31
0.0
100
AcDbText
  0
TEXT
  5
31B
330
1F
100
AcDbEntity
  8
0
  6
Continuous
 62
     7
100
AcDbText
 10
248.7064438822753
 20
196.042769113
 30
0.0
 40
2.0
  1
Lyon
  7
TEXTSTYLE_1
 72
     1
 11
251.7357753966
 21
196.042769113
 31
0.0
100
AcDbText
  0
TEXT
  5
31C
330
1F
100
AcDbEntity
  8
0
  6
Continuous
 62
     7
100
AcDbText
 10
267.2506116858224
 20
195.792769113
 30
0.0
 40
2.5
  1
 
  7
TEXTSTYLE_1
 72
     1
 11
267.7357753966
 21
195.792769113
 31
0.0
100
AcDbText
  0
TEXT
  5
31D
330
1F
100
AcDbEntity
  8
0
  6
Continuous
 62
     7
100
AcDbText
 10
283.3476444279779
 20
196.042769113
 30
0.0
 40
2.0
  1
 
  7
TEXTSTYLE_1
 72
     1
 11
283.7357753966
 21
196.042769113
 31
0.0
100
AcDbText
  0
TEXT
  5
31E
330
1F
100
AcDbEntity
  8
0
  6
Continuous
 62
     7
100
AcDbText
 10
172.9588313311156
 20
191.042769113
 30
0.0
 40
2.0
  1
2
  7
TEXTSTYLE_1
 72
     1
 11
173.7357753966
 21
191.042769113
 31
0.0
100
AcDbText
  0
TEXT
  5
31F
330
1F
100
AcDbEntity
  8
0
  6
Continuous
 62
     7
100
AcDbText
 10
185.8864575248401
 20
191.142769113
 30
0.0
 40
1.8
  1
 
  7
TEXTSTYLE_1
 72
     1
 11
186.2357753966
 21
191.142769113
 31
0.0
100
AcDbText
  0
TEXT
  5
320
330
1F
100
AcDbEntity
  8
0
  6
Continuous
 62
     7
100
AcDbText
 10
218.3476444279779
 20
191.042769113
 30
0.0
 40
2.0
  1
 
  7
TEXTSTYLE_1
 72
     1
 11
218.7357753966
 21
191.042769113
 31
0.0
100
AcDbText
  0
TEXT
  5
321
330
1F
100
AcDbEntity
  8
0
  6
Continuous
 62
     7
100
AcDbText
 10
251.3476444279779
 20
191.042769113
 30
0.0
 40
2.0
  1
 
  7
TEXTSTYLE_1
 72
     1
 11
251.7357753966
 21
191.042769113
 31
0.0
100
AcDbText
  0
TEXT
  5
322
330
1F
100
AcDbEntity
  8
0
  6
Continuous
 62
     7
100
AcDbText
 10
267.3476444279779
 20
191.042769113
 30
0.0
 40
2.0
  1
 
  7
TEXTSTYLE_1
 72
     1
 11
267.7357753966
 21
191.042769113
 31
0.0
100
AcDbText
  0
TEXT
  5
323
330
1F
100
AcDbEntity
  8
0
  6
Continuous
 62
     7
100
AcDbText
 10
283.3476444279779
 20
191.042769113
 30
0.0
 40
2.0
  1
 
  7
TEXTSTYLE_1
 72
     1
 11
283.7357753966
 21
191.042769113
 31
0.0
100
AcDbText
  0
TEXT
  5
324
330
1F
100
AcDbEntity
  8
0
  6
Continuous
 62
     7
100
AcDbText
 10
172.9588313311156
 20
186.042769113
 30
0.0
 40
2.0
  1
3
  7
TEXTSTYLE_1
 72
     1
 11
173.7357753966
 21
186.042769113
 31
0.0
100
AcDbText
  0
TEXT
  5
325
330
1F
100
AcDbEntity
  8
0
  6
Continuous
 62
     7
100
AcDbText
 10
185.8864575248401
 20
186.142769113
 30
0.0
 40
1.8
  1
 
  7
TEXTSTYLE_1
 72
     1
 11
186.2357753966
 21
186.142769113
 31
0.0
100
AcDbText
  0
TEXT
  5
326
330
1F
100
AcDbEntity
  8
0
  6
Continuous
 62
     7
100
AcDbText
 10
218.3476444279779
 20
186.042769113
 30
0.0
 40
2.0
  1
 
  7
TEXTSTYLE_1
 72
     1
 11
218.7357753966
 21
186.042769113
 31
0.0
100
AcDbText
  0
TEXT
  5
327
330
1F
100
AcDbEntity
  8
0
  6
Continuous
 62
     7
100
AcDbText
 10
251.3476444279779
 20
186.042769113
 30
0.0
 40
2.0
  1
 
  7
TEXTSTYLE_1
 72
     1
 11
251.7357753966
 21
186.042769113
 31
0.0
100
AcDbText
  0
TEXT
  5
328
330
1F
100
AcDbEntity
  8
0
  6
Continuous
 62
     7
100
AcDbText
 10
267.3476444279779
 20
186.042769113
 30
0.0
 40
2.0
  1
 
  7
TEXTSTYLE_1
 72
     1
 11
267.7357753966
 21
186.042769113
 31
0.0
100
AcDbText
  0
TEXT
  5
329
330
1F
100
AcDbEntity
  8
0
  6
Continuous
 62
     7
100
AcDbText
 10
283.3476444279779
 20
186.042769113
 30
0.0
 40
2.0
  1
 
  7
TEXTSTYLE_1
 72
     1
 11
283.7357753966
 21
186.042769113
 31
0.0
100
AcDbText
  0
LINE
  5
32A
330
1F
100
AcDbEntity
  8
0
  6
Continuous
 62
     7
100
AcDbLine
 10
191.1934488362
 20
29.8231569974
 30
0.0
 11
200.9434488362
 21
29.8231569974
 31
0.0
  0
LINE
  5
32B
330
1F
100
AcDbEntity
  8
0
  6
Continuous
 62
     7
100
AcDbLine
 10
191.1934488362
 20
29.8231569974
 30
0.0
 11
191.1934488362
 21
26.3231569974
 31
0.0
  0
LINE
  5
32C
330
1F
100
AcDbEntity
  8
0
  6
Continuous
 62
     7
100
AcDbLine
 10
191.1934488362
 20
26.3231569974
 30
0.0
 11
200.9434488362
 21
26.3231569974
 31
0.0
  0
LINE
  5
32D
330
1F
100
AcDbEntity
  8
0
  6
Continuous
 62
     7
100
AcDbLine
 10
200.9434488362
 20
29.8231569974
 30
0.0
 11
200.9434488362
 21
26.3231569974
 31
0.0
  0
TEXT
  5
32E
330
1F
100
AcDbEntity
  8
0
  6
Continuous
 62
     7
100
AcDbText
 10
195.4394924924073
 20
27.3981569974
 30
0.0
 40
1.35
  1
K
 72
     1
 11
196.0684488362
 21
27.3981569974
 31
0.0
100
AcDbText
  0
LINE
  5
32F
330
1F
100
AcDbEntity
  8
0
  6
Continuous
 62
     7
100
AcDbLine
 10
210.7230718759
 20
29.808197105
 30
0.0
 11
220.4730718759
 21
29.808197105
 31
0.0
  0
LINE
  5
330
330
1F
100
AcDbEntity
  8
0
  6
Continuous
 62
     7
100
AcDbLine
 10
210.7230718759
 20
29.808197105
 30
0.0
 11
210.7230718759
 21
26.308197105
 31
0.0
  0
LINE
  5
331
330
1F
100
AcDbEntity
  8
0
  6
Continuous
 62
     7
100
AcDbLine
 10
210.7230718759
 20
26.308197105
 30
0.0
 11
220.4730718759
 21
26.308197105
 31
0.0
  0
LINE
  5
332
330
1F
100
AcDbEntity
  8
0
  6
Continuous
 62
     7
100
AcDbLine
 10
220.4730718759
 20
29.808197105
 30
0.0
 11
220.4730718759
 21
26.308197105
 31
0.0
  0
TEXT
  5
333
330
1F
100
AcDbEntity
  8
0
  6
Continuous
 62
     7
100
AcDbText
 10
213.3925807435671
 20
27.383197105
 30
0.0
 40
1.35
  1
%%p0.5%%d
  7
TEXTSTYLE_1
 72
     1
 11
215.5980718759
 21
27.383197105
 31
0.0
100
AcDbText
  0
LINE
  5
334
330
1F
100
AcDbEntity
  8
0
  6
Continuous
 62
     7
100
AcDbLine
 10
230.4799302926
 20
26.3474198848
 30
0.0
 11
243.7799302926
 21
26.3474198848
 31
0.0
  0
LINE
  5
335
330
1F
100
AcDbEntity
  8
0
  6
Continuous
 62
     7
100
AcDbLine
 10
230.4799302926
 20
26.3474198848
 30
0.0
 11
230.4799302926
 21
8.8474198848
 31
0.0
  0
LINE
  5
336
330
1F
100
AcDbEntity
  8
0
  6
Continuous
 62
     7
100
AcDbLine
 10
230.4799302926
 20
22.8474198848
 30
0.0
 11
243.7799302926
 21
22.8474198848
 31
0.0
  0
LINE
  5
337
330
1F
100
AcDbEntity
  8
0
  6
Continuous
 62
     7
100
AcDbLine
 10
230.4799302926
 20
19.3474198848
 30
0.0
 11
243.7799302926
 21
19.3474198848
 31
0.0
  0
LINE
  5
338
330
1F
100
AcDbEntity
  8
0
  6
Continuous
 62
     7
100
AcDbLine
 10
230.4799302926
 20
15.8474198848
 30
0.0
 11
243.7799302926
 21
15.8474198848
 31
0.0
  0
LINE
  5
339
330
1F
100
AcDbEntity
  8
0
  6
Continuous
 62
     7
100
AcDbLine
 10
230.4799302926
 20
12.3474198848
 30
0.0
 11
243.7799302926
 21
12.3474198848
 31
0.0
  0
LINE
  5
33A
330
1F
100
AcDbEntity
  8
0
  6
Continuous
 62
     7
100
AcDbLine
 10
230.4799302926
 20
8.8474198848
 30
0.0
 11
243.7799302926
 21
8.8474198848
 31
0.0
  0
LINE
  5
33B
330
1F
100
AcDbEntity
  8
0
  6
Continuous
 62
     7
100
AcDbLine
 10
243.7799302926
 20
26.3474198848
 30
0.0
 11
243.7799302926
 21
8.8474198848
 31
0.0
  0
TEXT
  5
33C
330
1F
100
AcDbEntity
  8
0
  6
Continuous
 62
     7
100
AcDbText
 10
234.8231431166109
 20
23.9224198848
 30
0.0
 40
1.35
  1
Lyon 
  7
TEXTSTYLE_1
 72
     1
 11
237.1299302926
 21
23.9224198848
 31
0.0
100
AcDbText
  0
MTEXT
  5
33D
330
1F
100
AcDbEntity
  8
0
  6
Continuous
 62
     7
100
AcDbMText
 10
237.1299302926
 20
21.7724198848
 30
0.0
 40
1.35
 41
1.043866170999999
 71
     2
 72
     1
  1
  
  7
TEXTSTYLE_1
 73
     1
 44
1.0
1001
ACAD
1000
MTEXTBEGIN
1070
    73
1070
     1
1070
    44
1040
1.0
1070
    74
1070
     0
1000
MTEXTEND
  0
MTEXT
  5
33E
330
1F
100
AcDbEntity
  8
0
  6
Continuous
 62
     7
100
AcDbMText
 10
237.1299302926
 20
18.2724198848
 30
0.0
 40
1.35
 41
1.043866170999999
 71
     2
 72
     1
  1
  
  7
TEXTSTYLE_1
 73
     1
 44
1.0
1001
ACAD
1000
MTEXTBEGIN
1070
    73
1070
     1
1070
    44
1040
1.0
1070
    74
1070
     0
1000
MTEXTEND
  0
MTEXT
  5
33F
330
1F
100
AcDbEntity
  8
0
  6
Continuous
 62
     7
100
AcDbMText
 10
237.1299302926
 20
14.7724198848
 30
0.0
 40
1.35
 41
1.043866170999999
 71
     2
 72
     1
  1
  
  7
TEXTSTYLE_1
 73
     1
 44
1.0
1001
ACAD
1000
MTEXTBEGIN
1070
    73
1070
     1
1070
    44
1040
1.0
1070
    74
1070
     0
1000
MTEXTEND
  0
TEXT
  5
340
330
1F
100
AcDbEntity
  8
0
  6
Continuous
 62
     7
100
AcDbText
 10
235.2960114658606
 20
9.9224198848
 30
0.0
 40
1.35
  1
N/A 
  7
TEXTSTYLE_1
 72
     1
 11
237.1299302926
 21
9.9224198848
 31
0.0
100
AcDbText
  0
LINE
  5
341
330
1F
100
AcDbEntity
  8
0
  6
Continuous
 62
     7
100
AcDbLine
 10
255.7649913671
 20
12.345039099
 30
0.0
 11
267.7649913671
 21
12.345039099
 31
0.0
  0
LINE
  5
342
330
1F
100
AcDbEntity
  8
0
  6
Continuous
 62
     7
100
AcDbLine
 10
255.7649913671
 20
12.345039099
 30
0.0
 11
255.7649913671
 21
5.345039099
 31
0.0
  0
LINE
  5
343
330
1F
100
AcDbEntity
  8
0
  6
Continuous
 62
     7
100
AcDbLine
 10
255.7649913671
 20
8.845039098999999
 30
0.0
 11
267.7649913671
 21
8.845039098999999
 31
0.0
  0
LINE
  5
344
330
1F
100
AcDbEntity
  8
0
  6
Continuous
 62
     7
100
AcDbLine
 10
255.7649913671
 20
5.345039099
 30
0.0
 11
267.7649913671
 21
5.345039099
 31
0.0
  0
LINE
  5
345
330
1F
100
AcDbEntity
  8
0
  6
Continuous
 62
     7
100
AcDbLine
 10
267.7649913671
 20
12.345039099
 30
0.0
 11
267.7649913671
 21
5.345039099
 31
0.0
  0
TEXT
  5
346
330
1F
100
AcDbEntity
  8
0
  6
Continuous
 62
     7
100
AcDbText
 10
257.0455166058449
 20
9.920039099
 30
0.0
 40
1.35
  1
03/26/2014
 72
     1
 11
261.7649913671
 21
9.920039099
 31
0.0
100
AcDbText
  0
TEXT
  5
347
330
1F
100
AcDbEntity
  8
0
  6
Continuous
 62
     7
100
AcDbText
 10
259.4052539864724
 20
6.420039098999999
 30
0.0
 40
1.35
  1
5.000
  7
TEXTSTYLE_1
 72
     1
 11
261.7649913671
 21
6.420039098999999
 31
0.0
100
AcDbText
  0
LINE
  5
348
330
1F
100
AcDbEntity
  8
0
  6
Continuous
 62
     7
100
AcDbLine
 10
255.738687898
 20
15.845864472
 30
0.0
 11
291.738687898
 21
15.845864472
 31
0.0
  0
LINE
  5
349
330
1F
100
AcDbEntity
  8
0
  6
Continuous
 62
     7
100
AcDbLine
 10
255.738687898
 20
15.845864472
 30
0.0
 11
255.738687898
 21
12.345864472
 31
0.0
  0
LINE
  5
34A
330
1F
100
AcDbEntity
  8
0
  6
Continuous
 62
     7
100
AcDbLine
 10
255.738687898
 20
12.345864472
 30
0.0
 11
291.738687898
 21
12.345864472
 31
0.0
  0
LINE
  5
34B
330
1F
100
AcDbEntity
  8
0
  6
Continuous
 62
     7
100
AcDbLine
 10
291.738687898
 20
15.845864472
 30
0.0
 11
291.738687898
 21
12.345864472
 31
0.0
  0
MTEXT
  5
34C
330
1F
100
AcDbEntity
  8
0
  6
Continuous
 62
     7
100
AcDbMText
 10
273.738687898
 20
14.770864472
 30
0.0
 40
1.35
 41
1.043866170999999
 71
     2
 72
     1
  1
  
  7
TEXTSTYLE_1
 73
     1
 44
1.0
1001
ACAD
1000
MTEXTBEGIN
1070
    73
1070
     1
1070
    44
1040
1.0
1070
    74
1070
     0
1000
MTEXTEND
  0
LINE
  5
34D
330
1F
100
AcDbEntity
  8
0
  6
Continuous
 62
     7
100
AcDbLine
 10
255.7209390766
 20
21.0929805329
 30
0.0
 11
291.7209390766
 21
21.0929805329
 31
0.0
  0
LINE
  5
34E
330
1F
100
AcDbEntity
  8
0
  6
Continuous
 62
     7
100
AcDbLine
 10
255.7209390766
 20
21.0929805329
 30
0.0
 11
255.7209390766
 21
15.8729805329
 31
0.0
  0
LINE
  5
34F
330
1F
100
AcDbEntity
  8
0
  6
Continuous
 62
     7
100
AcDbLine
 10
255.7209390766
 20
15.8729805329
 30
0.0
 11
291.7209390766
 21
15.8729805329
 31
0.0
  0
LINE
  5
350
330
1F
100
AcDbEntity
  8
0
  6
Continuous
 62
     7
100
AcDbLine
 10
291.7209390766
 20
21.0929805329
 30
0.0
 11
291.7209390766
 21
15.8729805329
 31
0.0
  0
MTEXT
  5
351
330
1F
100
AcDbEntity
  8
0
  6
Continuous
 62
     7
100
AcDbMText
 10
273.7209390766
 20
19.2329805329
 30
0.0
 40
1.5
 41
1.1598513011
 71
     2
 72
     1
  1
  
  7
TEXTSTYLE_1
 73
     1
 44
1.0
1001
ACAD
1000
MTEXTBEGIN
1070
    73
1070
     1
1070
    44
1040
1.0
1070
    74
1070
     0
1000
MTEXTEND
  0
LINE
  5
352
330
1F
100
AcDbEntity
  8
0
  6
Continuous
 62
     7
100
AcDbLine
 10
256.1844051348
 20
25.8976873486
 30
0.0
 11
291.2844051348
 21
25.8976873486
 31
0.0
  0
LINE
  5
353
330
1F
100
AcDbEntity
  8
0
  6
Continuous
 62
     7
100
AcDbLine
 10
256.1844051348
 20
25.8976873486
 30
0.0
 11
256.1844051348
 21
21.5476873486
 31
0.0
  0
LINE
  5
354
330
1F
100
AcDbEntity
  8
0
  6
Continuous
 62
     7
100
AcDbLine
 10
256.1844051348
 20
21.5476873486
 30
0.0
 11
291.2844051348
 21
21.5476873486
 31
0.0
  0
LINE
  5
355
330
1F
100
AcDbEntity
  8
0
  6
Continuous
 62
     7
100
AcDbLine
 10
291.2844051348
 20
25.8976873486
 30
0.0
 11
291.2844051348
 21
21.5476873486
 31
0.0
  0
TEXT
  5
356
330
1F
100
AcDbEntity
  8
0
  6
Continuous
 62
     7
100
AcDbText
 10
267.5640436068327
 20
22.9726873486
 30
0.0
 40
1.5
  1
RF MODULE
 72
     1
 11
273.7344051348
 21
22.9726873486
 31
0.0
100
AcDbText
  0
LINE
  5
357
330
1F
100
AcDbEntity
  8
0
  6
Continuous
 62
     7
100
AcDbLine
 10
279.7177617091
 20
12.3067318166
 30
0.0
 11
291.7177617091
 21
12.3067318166
 31
0.0
  0
LINE
  5
358
330
1F
100
AcDbEntity
  8
0
  6
Continuous
 62
     7
100
AcDbLine
 10
279.7177617091
 20
12.3067318166
 30
0.0
 11
279.7177617091
 21
5.3067318166
 31
0.0
  0
LINE
  5
359
330
1F
100
AcDbEntity
  8
0
  6
Continuous
 62
     7
100
AcDbLine
 10
279.7177617091
 20
8.806731816599999
 30
0.0
 11
291.7177617091
 21
8.806731816599999
 31
0.0
  0
LINE
  5
35A
330
1F
100
AcDbEntity
  8
0
  6
Continuous
 62
     7
100
AcDbLine
 10
279.7177617091
 20
5.3067318166
 30
0.0
 11
291.7177617091
 21
5.3067318166
 31
0.0
  0
LINE
  5
35B
330
1F
100
AcDbEntity
  8
0
  6
Continuous
 62
     7
100
AcDbLine
 10
291.7177617091
 20
12.3067318166
 30
0.0
 11
291.7177617091
 21
5.3067318166
 31
0.0
  0
TEXT
  5
35C
330
1F
100
AcDbEntity
  8
0
  6
Continuous
 62
     7
100
AcDbText
 10
283.2544261020059
 20
9.8817318166
 30
0.0
 40
1.35
  1
Rev.1
  7
TEXTSTYLE_1
 72
     1
 11
285.7177617091
 21
9.8817318166
 31
0.0
100
AcDbText
  0
TEXT
  5
35D
330
1F
100
AcDbEntity
  8
0
  6
Continuous
 62
     7
100
AcDbText
 10
284.4068988168763
 20
6.381731816599999
 30
0.0
 40
1.35
  1
1/1
  7
TEXTSTYLE_1
 72
     1
 11
285.7177617091
 21
6.381731816599999
 31
0.0
100
AcDbText
  0
MTEXT
  5
35E
330
1F
100
AcDbEntity
  8
0
  6
Continuous
 62
     3
100
AcDbMText
 10
243.7249951565
 20
49.9306851908
 30
0.0
 40
2.5
 41
21.1338289963
 71
     1
 72
     1
  1
SCALE 1.000
 73
     1
 44
1.0
1001
ACAD
1000
MTEXTBEGIN
1070
    73
1070
     1
1070
    44
1040
1.0
1070
    74
1070
     0
1000
MTEXTEND
  0
LINE
  5
35F
330
1F
100
AcDbEntity
  8
0
  6
Continuous
 62
     7
100
AcDbLine
 10
0.0
 20
0.0
 30
0.0
 11
0.0
 21
210.0
 31
0.0
  0
LWPOLYLINE
  5
360
330
1F
100
AcDbEntity
  8
0
  6
Continuous
 62
     7
100
AcDbPolyline
 90
        2
 70
     0
 43
0.2000000079
 10
5.266062
 20
5.348076999999999
 10
5.266062
 20
204.558462
  0
LINE
  5
361
330
1F
100
AcDbEntity
  8
0
  6
Continuous
 62
     7
100
AcDbLine
 10
0.0
 20
0.0
 30
0.0
 11
297.0
 21
0.0
 31
0.0
  0
LINE
  5
362
330
1F
100
AcDbEntity
  8
0
  6
Continuous
 62
     7
100
AcDbLine
 10
255.7557254552
 20
5.325359378199999
 30
0.0
 11
291.7557254552
 21
5.325359378199999
 31
0.0
  0
LINE
  5
363
330
1F
100
AcDbEntity
  8
0
  6
Continuous
 62
     7
100
AcDbLine
 10
230.4411236363
 20
5.343698321
 30
0.0
 11
243.7411236363
 21
5.343698321
 31
0.0
  0
LWPOLYLINE
  5
364
330
1F
100
AcDbEntity
  8
0
  6
Continuous
 62
     7
100
AcDbPolyline
 90
        2
 70
     0
 43
0.2000000079
 10
291.733939
 20
5.348076999999999
 10
5.266062
 20
5.348076999999999
  0
LINE
  5
365
330
1F
100
AcDbEntity
  8
0
  6
Continuous
 62
     7
100
AcDbLine
 10
255.7557254552
 20
8.825359378199999
 30
0.0
 11
291.7557254552
 21
8.825359378199999
 31
0.0
  0
LINE
  5
366
330
1F
100
AcDbEntity
  8
0
  6
Continuous
 62
     7
100
AcDbLine
 10
230.4411236363
 20
8.843698320999999
 30
0.0
 11
243.7411236363
 21
8.843698320999999
 31
0.0
  0
LWPOLYLINE
  5
367
330
1F
100
AcDbEntity
  8
0
  6
Continuous
 62
     7
100
AcDbPolyline
 90
        2
 70
     0
 43
0.1499999927
 10
291.733939
 20
8.848076999999999
 10
179.433939
 20
8.848076999999999
  0
LINE
  5
368
330
1F
100
AcDbEntity
  8
0
  6
Continuous
 62
     7
100
AcDbLine
 10
255.7557254552
 20
12.3253593782
 30
0.0
 11
291.7557254552
 21
12.3253593782
 31
0.0
  0
LINE
  5
369
330
1F
100
AcDbEntity
  8
0
  6
Continuous
 62
     7
100
AcDbLine
 10
230.4411236363
 20
12.343698321
 30
0.0
 11
243.7411236363
 21
12.343698321
 31
0.0
  0
LWPOLYLINE
  5
36A
330
1F
100
AcDbEntity
  8
0
  6
Continuous
 62
     7
100
AcDbPolyline
 90
        2
 70
     0
 43
0.1499999927
 10
179.433939
 20
12.348077
 10
291.733939
 20
12.348077
  0
LINE
  5
36B
330
1F
100
AcDbEntity
  8
0
  6
Continuous
 62
     7
100
AcDbLine
 10
62.826923
 20
5.192308
 30
0.0
 11
62.826923
 21
0.0
 31
0.0
  0
LINE
  5
36C
330
1F
100
AcDbEntity
  8
0
  6
Continuous
 62
     7
100
AcDbLine
 10
62.826923
 20
204.558462
 30
0.0
 11
62.826923
 21
209.75077
 31
0.0
  0
LINE
  5
36D
330
1F
100
AcDbEntity
  8
0
  6
Continuous
 62
     7
100
AcDbLine
 10
211.8233299999999
 20
31.98067
 30
0.0
 11
215.542187
 21
32.610016
 31
0.0
  0
LINE
  5
36E
330
1F
100
AcDbEntity
  8
0
  6
Continuous
 62
     7
100
AcDbLine
 10
255.7557254552
 20
15.8253593782
 30
0.0
 11
291.7557254552
 21
15.8253593782
 31
0.0
  0
LINE
  5
36F
330
1F
100
AcDbEntity
  8
0
  6
Continuous
 62
     7
100
AcDbLine
 10
230.4411236363
 20
15.843698321
 30
0.0
 11
243.7411236363
 21
15.843698321
 31
0.0
  0
LWPOLYLINE
  5
370
330
1F
100
AcDbEntity
  8
0
  6
Continuous
 62
     7
100
AcDbPolyline
 90
        2
 70
     0
 43
0.1499999927
 10
179.433939
 20
15.84807699999999
 10
291.733939
 20
15.84807699999999
  0
LINE
  5
371
330
1F
100
AcDbEntity
  8
0
  6
Continuous
 62
     7
100
AcDbLine
 10
230.4411236363
 20
19.34369832099999
 30
0.0
 11
243.7411236363
 21
19.34369832099999
 31
0.0
  0
LWPOLYLINE
  5
372
330
1F
100
AcDbEntity
  8
0
  6
Continuous
 62
     7
100
AcDbPolyline
 90
        2
 70
     0
 43
0.1499999927
 10
179.433939
 20
19.348077
 10
243.733939
 20
19.348077
  0
LINE
  5
373
330
1F
100
AcDbEntity
  8
0
  6
Continuous
 62
     7
100
AcDbLine
 10
255.7557254552
 20
21.0753593782
 30
0.0
 11
291.7557254552
 21
21.0753593782
 31
0.0
  0
LWPOLYLINE
  5
374
330
1F
100
AcDbEntity
  8
0
  6
Continuous
 62
     7
100
AcDbPolyline
 90
        2
 70
     0
 43
0.1499999927
 10
243.733939
 20
21.098077
 10
291.733939
 20
21.098077
  0
LINE
  5
375
330
1F
100
AcDbEntity
  8
0
  6
Continuous
 62
     7
100
AcDbLine
 10
256.183939
 20
21.548077
 30
0.0
 11
291.283939
 21
21.548077
 31
0.0
  0
LINE
  5
376
330
1F
100
AcDbEntity
  8
0
  6
Continuous
 62
     7
100
AcDbLine
 10
230.4411236363
 20
22.843698321
 30
0.0
 11
243.7411236363
 21
22.843698321
 31
0.0
  0
LWPOLYLINE
  5
377
330
1F
100
AcDbEntity
  8
0
  6
Continuous
 62
     7
100
AcDbPolyline
 90
        2
 70
     0
 43
0.1499999927
 10
179.433939
 20
22.848077
 10
243.733939
 20
22.848077
  0
LINE
  5
378
330
1F
100
AcDbEntity
  8
0
  6
Continuous
 62
     7
100
AcDbLine
 10
291.283939
 20
25.898077
 30
0.0
 11
256.183939
 21
25.898077
 31
0.0
  0
LINE
  5
379
330
1F
100
AcDbEntity
  8
0
  6
Continuous
 62
     7
100
AcDbLine
 10
255.7557254552
 20
26.3253593782
 30
0.0
 11
291.7557254552
 21
26.3253593782
 31
0.0
  0
LINE
  5
37A
330
1F
100
AcDbEntity
  8
0
  6
Continuous
 62
     7
100
AcDbLine
 10
191.189636476
 20
26.3266475452
 30
0.0
 11
220.439636476
 21
26.3266475452
 31
0.0
  0
LINE
  5
37B
330
1F
100
AcDbEntity
  8
0
  6
Continuous
 62
     7
100
AcDbLine
 10
230.4411236363
 20
26.343698321
 30
0.0
 11
243.7411236363
 21
26.343698321
 31
0.0
  0
LWPOLYLINE
  5
37C
330
1F
100
AcDbEntity
  8
0
  6
Continuous
 62
     7
100
AcDbPolyline
 90
        2
 70
     0
 43
0.1499999927
 10
179.433939
 20
26.348077
 10
291.733939
 20
26.348077
  0
LINE
  5
37D
330
1F
100
AcDbEntity
  8
0
  6
Continuous
 62
     7
100
AcDbLine
 10
191.189636476
 20
29.8266475452
 30
0.0
 11
220.439636476
 21
29.8266475452
 31
0.0
  0
LWPOLYLINE
  5
37E
330
1F
100
AcDbEntity
  8
0
  6
Continuous
 62
     7
100
AcDbPolyline
 90
        2
 70
     0
 43
0.1499999927
 10
179.433939
 20
29.84807700000001
 10
220.429844
 20
29.84807700000001
  0
LINE
  5
37F
330
1F
100
AcDbEntity
  8
DEFAULT_1
  6
CENTER
 62
     7
100
AcDbLine
 10
205.508456
 20
31.694605
 30
0.0
 11
208.328516
 21
31.694605
 31
0.0
  0
LINE
  5
380
330
1F
100
AcDbEntity
  8
DEFAULT_1
  6
CENTER
 62
     7
100
AcDbLine
 10
211.305403
 20
31.694605
 30
0.0
 11
215.910679
 21
31.694605
 31
0.0
  0
LWPOLYLINE
  5
381
330
1F
100
AcDbEntity
  8
0
  6
Continuous
 62
     7
100
AcDbPolyline
 90
        2
 70
     0
 43
0.1499999927
 10
179.433939
 20
33.34807700000001
 10
291.733939
 20
33.34807700000001
  0
LINE
  5
382
330
1F
100
AcDbEntity
  8
0
  6
Continuous
 62
     7
100
AcDbLine
 10
211.8233299999999
 20
31.408539
 30
0.0
 11
215.542187
 21
30.779194
 31
0.0
  0
LINE
  5
383
330
1F
100
AcDbEntity
  8
0
  6
Continuous
 62
     7
100
AcDbLine
 10
5.266062
 20
55.45162799999999
 30
0.0
 11
0.0
 21
55.45162799999999
 31
0.0
  0
LINE
  5
384
330
1F
100
AcDbEntity
  8
0
  6
Continuous
 62
     7
100
AcDbLine
 10
291.733939
 20
55.45162799999999
 30
0.0
 11
297.0
 21
55.45162799999999
 31
0.0
  0
LINE
  5
385
330
1F
100
AcDbEntity
  8
0
  6
Continuous
 62
     7
100
AcDbLine
 10
119.942308
 20
5.192308
 30
0.0
 11
119.942308
 21
0.0
 31
0.0
  0
LINE
  5
386
330
1F
100
AcDbEntity
  8
0
  6
Continuous
 62
     7
100
AcDbLine
 10
119.942308
 20
204.558462
 30
0.0
 11
119.942308
 21
209.75077
 31
0.0
  0
LINE
  5
387
330
1F
100
AcDbEntity
  8
0
  6
Continuous
 62
     7
100
AcDbLine
 10
5.266062
 20
104.952606
 30
0.0
 11
0.0
 21
104.952606
 31
0.0
  0
LINE
  5
388
330
1F
100
AcDbEntity
  8
0
  6
Continuous
 62
     7
100
AcDbLine
 10
291.733939
 20
104.952606
 30
0.0
 11
297.0
 21
104.952606
 31
0.0
  0
LINE
  5
389
330
1F
100
AcDbEntity
  8
0
  6
Continuous
 62
     7
100
AcDbLine
 10
177.057693
 20
5.192308
 30
0.0
 11
177.057693
 21
0.0
 31
0.0
  0
LWPOLYLINE
  5
38A
330
1F
100
AcDbEntity
  8
0
  6
Continuous
 62
     7
100
AcDbPolyline
 90
        2
 70
     0
 43
0.1499999927
 10
179.433939
 20
5.348076999999999
 10
179.433939
 20
33.34807700000001
  0
LWPOLYLINE
  5
38B
330
1F
100
AcDbEntity
  8
0
  6
Continuous
 62
     7
100
AcDbPolyline
 90
        2
 70
     0
 43
0.1499999927
 10
190.433939
 20
5.348076999999999
 10
190.433939
 20
26.348077
  0
LWPOLYLINE
  5
38C
330
1F
100
AcDbEntity
  8
0
  6
Continuous
 62
     7
100
AcDbPolyline
 90
        2
 70
     0
 43
0.1499999927
 10
191.183939
 20
26.348077
 10
191.183939
 20
29.84807700000001
  0
LINE
  5
38D
330
1F
100
AcDbEntity
  8
0
  6
Continuous
 62
     7
100
AcDbLine
 10
191.189636476
 20
29.8266475452
 30
0.0
 11
191.189636476
 21
26.3266475452
 31
0.0
  0
LWPOLYLINE
  5
38E
330
1F
100
AcDbEntity
  8
0
  6
Continuous
 62
     7
100
AcDbPolyline
 90
        2
 70
     0
 43
0.1499999927
 10
196.433939
 20
26.348077
 10
196.433939
 20
5.348076999999999
  0
LWPOLYLINE
  5
38F
330
1F
100
AcDbEntity
  8
0
  6
Continuous
 62
     7
100
AcDbPolyline
 90
        2
 70
     0
 43
0.1499999927
 10
200.933939
 20
26.348077
 10
200.933939
 20
33.34807700000001
  0
LINE
  5
390
330
1F
100
AcDbEntity
  8
0
  6
Continuous
 62
     7
100
AcDbLine
 10
200.939636476
 20
29.8266475452
 30
0.0
 11
200.939636476
 21
26.3266475452
 31
0.0
  0
LINE
  5
391
330
1F
100
AcDbEntity
  8
0
  6
Continuous
 62
     7
100
AcDbLine
 10
5.266062
 20
154.453584
 30
0.0
 11
0.0
 21
154.453584
 31
0.0
  0
LINE
  5
392
330
1F
100
AcDbEntity
  8
0
  6
Continuous
 62
     7
100
AcDbLine
 10
291.733939
 20
154.453584
 30
0.0
 11
297.0
 21
154.453584
 31
0.0
  0
LWPOLYLINE
  5
393
330
1F
100
AcDbEntity
  8
0
  6
Continuous
 62
     7
100
AcDbPolyline
 90
        2
 70
     0
 43
0.1499999927
 10
202.433939
 20
26.348077
 10
202.433939
 20
5.348076999999999
  0
LINE
  5
394
330
1F
100
AcDbEntity
  8
DEFAULT_1
  6
CENTER
 62
     7
100
AcDbLine
 10
206.909216
 20
32.93642
 30
0.0
 11
206.909216
 21
30.453333
 31
0.0
  0
LWPOLYLINE
  5
395
330
1F
100
AcDbEntity
  8
0
  6
Continuous
 62
     7
100
AcDbPolyline
 90
        2
 70
     0
 43
0.1499999927
 10
208.433939
 20
26.348077
 10
208.433939
 20
5.348076999999999
  0
LWPOLYLINE
  5
396
330
1F
100
AcDbEntity
  8
0
  6
Continuous
 62
     7
100
AcDbPolyline
 90
        2
 70
     0
 43
0.1499999927
 10
210.683939
 20
26.348077
 10
210.683939
 20
29.84807700000001
  0
LINE
  5
397
330
1F
100
AcDbEntity
  8
0
  6
Continuous
 62
     7
100
AcDbLine
 10
210.689636476
 20
29.8266475452
 30
0.0
 11
210.689636476
 21
26.3266475452
 31
0.0
  0
LINE
  5
398
330
1F
100
AcDbEntity
  8
0
  6
Continuous
 62
     7
100
AcDbLine
 10
211.8233299999999
 20
31.408539
 30
0.0
 11
211.8233299999999
 21
31.98067
 31
0.0
  0
LWPOLYLINE
  5
399
330
1F
100
AcDbEntity
  8
0
  6
Continuous
 62
     7
100
AcDbPolyline
 90
        2
 70
     0
 43
0.1499999927
 10
214.433939
 20
26.348077
 10
214.433939
 20
5.348076999999999
  0
LINE
  5
39A
330
1F
100
AcDbEntity
  8
0
  6
Continuous
 62
     7
100
AcDbLine
 10
215.542187
 20
30.779194
 30
0.0
 11
215.542187
 21
32.610016
 31
0.0
  0
LWPOLYLINE
  5
39B
330
1F
100
AcDbEntity
  8
0
  6
Continuous
 62
     7
100
AcDbPolyline
 90
        2
 70
     0
 43
0.1499999927
 10
220.433939
 20
5.348076999999999
 10
220.433939
 20
33.34807700000001
  0
LWPOLYLINE
  5
39C
330
1F
100
AcDbEntity
  8
0
  6
Continuous
 62
     7
100
AcDbPolyline
 90
        2
 70
     0
 43
0.1499999927
 10
230.433939
 20
5.348076999999999
 10
230.433939
 20
26.348077
  0
LINE
  5
39D
330
1F
100
AcDbEntity
  8
0
  6
Continuous
 62
     7
100
AcDbLine
 10
230.4411236363
 20
26.343698321
 30
0.0
 11
230.4411236363
 21
5.343698321
 31
0.0
  0
LINE
  5
39E
330
1F
100
AcDbEntity
  8
0
  6
Continuous
 62
     7
100
AcDbLine
 10
234.173077
 20
5.192308
 30
0.0
 11
234.173077
 21
0.0
 31
0.0
  0
LINE
  5
39F
330
1F
100
AcDbEntity
  8
0
  6
Continuous
 62
     7
100
AcDbLine
 10
234.173077
 20
204.558462
 30
0.0
 11
234.173077
 21
209.75077
 31
0.0
  0
LWPOLYLINE
  5
3A0
330
1F
100
AcDbEntity
  8
0
  6
Continuous
 62
     7
100
AcDbPolyline
 90
        2
 70
     0
 43
0.1499999927
 10
243.733939
 20
5.348076999999999
 10
243.733939
 20
26.348077
  0
LINE
  5
3A1
330
1F
100
AcDbEntity
  8
0
  6
Continuous
 62
     7
100
AcDbLine
 10
243.7411236363
 20
26.343698321
 30
0.0
 11
243.7411236363
 21
5.343698321
 31
0.0
  0
LWPOLYLINE
  5
3A2
330
1F
100
AcDbEntity
  8
0
  6
Continuous
 62
     7
100
AcDbPolyline
 90
        2
 70
     0
 43
0.2000000079
 10
5.266062
 20
204.558462
 10
291.733939
 20
204.558462
  0
LINE
  5
3A3
330
1F
100
AcDbEntity
  8
0
  6
Continuous
 62
     7
100
AcDbLine
 10
0.0
 20
210.0
 30
0.0
 11
297.0
 21
210.0
 31
0.0
  0
LWPOLYLINE
  5
3A4
330
1F
100
AcDbEntity
  8
0
  6
Continuous
 62
     7
100
AcDbPolyline
 90
        2
 70
     0
 43
0.1499999927
 10
255.733939
 20
5.348076999999999
 10
255.733939
 20
26.348077
  0
LINE
  5
3A5
330
1F
100
AcDbEntity
  8
0
  6
Continuous
 62
     7
100
AcDbLine
 10
255.7557254552
 20
26.3253593782
 30
0.0
 11
255.7557254552
 21
5.325359378199999
 31
0.0
  0
LINE
  5
3A6
330
1F
100
AcDbEntity
  8
0
  6
Continuous
 62
     7
100
AcDbLine
 10
256.183939
 20
25.898077
 30
0.0
 11
256.183939
 21
21.548077
 31
0.0
  0
LWPOLYLINE
  5
3A7
330
1F
100
AcDbEntity
  8
0
  6
Continuous
 62
     7
100
AcDbPolyline
 90
        2
 70
     0
 43
0.1499999927
 10
267.733939
 20
5.348076999999999
 10
267.733939
 20
12.348077
  0
LINE
  5
3A8
330
1F
100
AcDbEntity
  8
0
  6
Continuous
 62
     7
100
AcDbLine
 10
267.7557254552
 20
12.3253593782
 30
0.0
 11
267.7557254552
 21
5.325359378199999
 31
0.0
  0
LWPOLYLINE
  5
3A9
330
1F
100
AcDbEntity
  8
0
  6
Continuous
 62
     7
100
AcDbPolyline
 90
        2
 70
     0
 43
0.1499999927
 10
279.733939
 20
5.348076999999999
 10
279.733939
 20
12.348077
  0
LINE
  5
3AA
330
1F
100
AcDbEntity
  8
0
  6
Continuous
 62
     7
100
AcDbLine
 10
279.7557254552
 20
12.3253593782
 30
0.0
 11
279.7557254552
 21
5.325359378199999
 31
0.0
  0
LINE
  5
3AB
330
1F
100
AcDbEntity
  8
0
  6
Continuous
 62
     7
100
AcDbLine
 10
291.283939
 20
21.548077
 30
0.0
 11
291.283939
 21
25.898077
 31
0.0
  0
LWPOLYLINE
  5
3AC
330
1F
100
AcDbEntity
  8
0
  6
Continuous
 62
     7
100
AcDbPolyline
 90
        2
 70
     0
 43
0.2000000079
 10
291.733939
 20
204.558462
 10
291.733939
 20
5.348076999999999
  0
LINE
  5
3AD
330
1F
100
AcDbEntity
  8
0
  6
Continuous
 62
     7
100
AcDbLine
 10
291.7557254552
 20
26.3253593782
 30
0.0
 11
291.7557254552
 21
5.325359378199999
 31
0.0
  0
LINE
  5
3AE
330
1F
100
AcDbEntity
  8
0
  6
Continuous
 62
     7
100
AcDbLine
 10
291.7631416206999
 20
204.5827910916
 30
0.0
 11
291.7631416206999
 21
179.5827910916
 31
0.0
  0
LINE
  5
3AF
330
1F
100
AcDbEntity
  8
0
  6
Continuous
 62
     7
100
AcDbLine
 10
297.0
 20
0.0
 30
0.0
 11
297.0
 21
210.0
 31
0.0
  0
LINE
  5
3B0
330
1F
100
AcDbEntity
  8
0
  6
Continuous
 62
     7
100
AcDbLine
 10
100.3718535185
 20
52.579238358
 30
0.0
 11
150.3718535185
 21
52.579238358
 31
0.0
  0
LINE
  5
3B1
330
1F
100
AcDbEntity
  8
0
  6
Continuous
 62
     7
100
AcDbLine
 10
105.3718535185
 20
57.579238358
 30
0.0
 11
145.3718535185
 21
57.579238358
 31
0.0
  0
LINE
  5
3B2
330
1F
100
AcDbEntity
  8
0
  6
Continuous
 62
     7
100
AcDbLine
 10
100.3718535185
 20
142.579238358
 30
0.0
 11
100.3718535185
 21
52.579238358
 31
0.0
  0
LINE
  5
3B4
330
1F
100
AcDbEntity
  8
0
  6
Continuous
 62
     7
100
AcDbLine
 10
105.3718535185
 20
124.579238358
 30
0.0
 11
105.3718535185
 21
57.579238358
 31
0.0
  0
LINE
  5
3B6
330
1F
100
AcDbEntity
  8
DEFAULT_1
  6
CENTER
 62
     1
100
AcDbLine
 10
145.3718535185
 20
133.829238358
 30
0.0
 11
145.3718535185
 21
128.579238358
 31
0.0
  0
LINE
  5
3B7
330
1F
100
AcDbEntity
  8
0
  6
Continuous
 62
     7
100
AcDbLine
 10
145.3718535185
 20
57.579238358
 30
0.0
 11
145.3718535185
 21
124.579238358
 31
0.0
  0
LINE
  5
3B8
330
1F
100
AcDbEntity
  8
DEFAULT_1
  6
CENTER
 62
     1
100
AcDbLine
 10
145.3718535185
 20
133.829238358
 30
0.0
 11
145.3718535185
 21
139.079238358
 31
0.0
  0
LINE
  5
3B9
330
1F
100
AcDbEntity
  8
0
  6
Continuous
 62
     7
100
AcDbLine
 10
150.3718535185
 20
52.579238358
 30
0.0
 11
150.3718535185
 21
142.579238358
 31
0.0
  0
LINE
  5
3BA
330
1F
100
AcDbEntity
  8
0
  6
Continuous
 62
     7
100
AcDbLine
 10
145.3718535185
 20
124.579238358
 30
0.0
 11
105.3718535185
 21
124.579238358
 31
0.0
  0
LINE
  5
3BC
330
1F
100
AcDbEntity
  8
DEFAULT_1
  6
CENTER
 62
     1
100
AcDbLine
 10
145.3718535185
 20
133.829238358
 30
0.0
 11
140.1218535185
 21
133.829238358
 31
0.0
  0
LINE
  5
3BD
330
1F
100
AcDbEntity
  8
DEFAULT_1
  6
CENTER
 62
     1
100
AcDbLine
 10
145.3718535185
 20
133.829238358
 30
0.0
 11
150.6218535185
 21
133.829238358
 31
0.0
  0
LINE
  5
3BF
330
1F
100
AcDbEntity
  8
0
  6
Continuous
 62
     7
100
AcDbLine
 10
150.3718535185
 20
142.579238358
 30
0.0
 11
100.3718535185
 21
142.579238358
 31
0.0
  0
LINE
  5
3C0
330
1F
100
AcDbEntity
  8
0
  6
Continuous
 62
     7
100
AcDbLine
 10
28.6727490103
 20
52.579238358
 30
0.0
 11
33.6727490103
 21
52.579238358
 31
0.0
  0
LINE
  5
3C1
330
1F
100
AcDbEntity
  8
0
  6
Continuous
 62
     7
100
AcDbLine
 10
33.6727490103
 20
57.579238358
 30
0.0
 11
42.1727490103
 21
57.579238358
 31
0.0
  0
LINE
  5
3C2
330
1F
100
AcDbEntity
  8
0
  6
Continuous
 62
     7
100
AcDbLine
 10
28.6727490103
 20
142.579238358
 30
0.0
 11
28.6727490103
 21
52.579238358
 31
0.0
  0
LINE
  5
3C3
330
1F
100
AcDbEntity
  8
0
  6
Continuous
 62
     7
100
AcDbLine
 10
33.6727490103
 20
142.579238358
 30
0.0
 11
33.6727490103
 21
52.579238358
 31
0.0
  0
LINE
  5
3C4
330
1F
100
AcDbEntity
  8
0
  6
Continuous
 62
     7
100
AcDbLine
 10
42.1727490103
 20
124.579238358
 30
0.0
 11
42.1727490103
 21
57.579238358
 31
0.0
  0
LINE
  5
3C6
330
1F
100
AcDbEntity
  8
0
  6
Continuous
 62
     7
100
AcDbLine
 10
33.6727490103
 20
124.579238358
 30
0.0
 11
42.1727490103
 21
124.579238358
 31
0.0
  0
LINE
  5
3C9
330
1F
100
AcDbEntity
  8
0
  6
Continuous
 62
     7
100
AcDbLine
 10
28.6727490103
 20
142.579238358
 30
0.0
 11
33.6727490103
 21
142.579238358
 31
0.0
  0
LINE
  5
3CA
330
1F
100
AcDbEntity
  8
0
  6
Continuous
 62
     7
100
AcDbLine
 10
266.6463792047
 20
64.7314174294
 30
0.0
 11
276.6463792047
 21
64.7314174294
 31
0.0
  0
LINE
  5
3CB
330
1F
100
AcDbEntity
  8
0
  6
Continuous
 62
     7
100
AcDbLine
 10
267.6463792047
 20
65.73141742939999
 30
0.0
 11
275.6463792047
 21
65.73141742939999
 31
0.0
  0
LINE
  5
3CC
330
1F
100
AcDbEntity
  8
0
  6
Continuous
 62
     7
100
AcDbLine
 10
266.6463792047
 20
82.7314174294
 30
0.0
 11
266.6463792047
 21
64.7314174294
 31
0.0
  0
LINE
  5
3CE
330
1F
100
AcDbEntity
  8
0
  6
Continuous
 62
     7
100
AcDbLine
 10
267.6463792047
 20
79.1314174294
 30
0.0
 11
267.6463792047
 21
65.73141742939999
 31
0.0
  0
LINE
  5
3D0
330
1F
100
AcDbEntity
  8
0
  6
Continuous
 62
     7
100
AcDbLine
 10
275.6463792047
 20
65.73141742939999
 30
0.0
 11
275.6463792047
 21
79.1314174294
 31
0.0
  0
LINE
  5
3D1
330
1F
100
AcDbEntity
  8
0
  6
Continuous
 62
     7
100
AcDbLine
 10
276.6463792047
 20
64.7314174294
 30
0.0
 11
276.6463792047
 21
82.7314174294
 31
0.0
  0
LINE
  5
3D2
330
1F
100
AcDbEntity
  8
0
  6
Continuous
 62
     7
100
AcDbLine
 10
275.6463792047
 20
79.1314174294
 30
0.0
 11
267.6463792047
 21
79.1314174294
 31
0.0
  0
LINE
  5
3D5
330
1F
100
AcDbEntity
  8
0
  6
Continuous
 62
     7
100
AcDbLine
 10
276.6463792047
 20
82.7314174294
 30
0.0
 11
266.6463792047
 21
82.7314174294
 31
0.0
  0
LINE
  5
3D6
330
1F
100
AcDbEntity
  8
0
  6
Continuous
 62
     7
100
AcDbLine
 10
239.6089801598
 20
64.7314174294
 30
0.0
 11
240.6089801598
 21
64.7314174294
 31
0.0
  0
LINE
  5
3D7
330
1F
100
AcDbEntity
  8
0
  6
Continuous
 62
     7
100
AcDbLine
 10
240.6089801598
 20
65.73141742939999
 30
0.0
 11
242.3089801598
 21
65.73141742939999
 31
0.0
  0
LINE
  5
3D8
330
1F
100
AcDbEntity
  8
0
  6
Continuous
 62
     7
100
AcDbLine
 10
239.6089801598
 20
82.7314174294
 30
0.0
 11
239.6089801598
 21
64.7314174294
 31
0.0
  0
LINE
  5
3D9
330
1F
100
AcDbEntity
  8
0
  6
Continuous
 62
     7
100
AcDbLine
 10
240.6089801598
 20
82.7314174294
 30
0.0
 11
240.6089801598
 21
64.7314174294
 31
0.0
  0
LINE
  5
3DA
330
1F
100
AcDbEntity
  8
0
  6
Continuous
 62
     7
100
AcDbLine
 10
242.3089801598
 20
79.1314174294
 30
0.0
 11
242.3089801598
 21
65.73141742939999
 31
0.0
  0
LINE
  5
3DC
330
1F
100
AcDbEntity
  8
0
  6
Continuous
 62
     7
100
AcDbLine
 10
240.6089801598
 20
79.1314174294
 30
0.0
 11
242.3089801598
 21
79.1314174294
 31
0.0
  0
LINE
  5
3DF
330
1F
100
AcDbEntity
  8
0
  6
Continuous
 62
     7
100
AcDbLine
 10
239.6089801598
 20
82.7314174294
 30
0.0
 11
240.6089801598
 21
82.7314174294
 31
0.0
  0
LINE
  5
3E0
330
1F
100
AcDbEntity
  8
0
  6
Continuous
 62
     7
100
AcDbLine
 10
174.4272263877
 20
120.3888732643
 30
0.0
 11
174.2338843629999
 21
125.0595589791
 31
0.0
  0
LINE
  5
3E1
330
1F
100
AcDbEntity
  8
0
  6
Continuous
 62
     7
100
AcDbLine
 10
180.9894559797
 20
124.5681605527
 30
0.0
 11
180.6607745377
 21
132.5083262679
 31
0.0
  0
LINE
  5
3E2
330
1F
100
AcDbEntity
  8
0
  6
Continuous
 62
     7
100
AcDbLine
 10
174.4272263877
 20
120.3888732643
 30
0.0
 11
197.8519571001
 21
105.5545656989
 31
0.0
  0
LINE
  5
3E3
330
1F
100
AcDbEntity
  8
0
  6
Continuous
 62
     7
100
AcDbLine
 10
174.2338843629999
 20
125.0595589791
 30
0.0
 11
197.6586150754
 21
110.2252514137
 31
0.0
  0
LINE
  5
3E4
330
1F
100
AcDbEntity
  8
0
  6
Continuous
 62
     7
100
AcDbLine
 10
197.8519571001
 20
105.5545656989
 30
0.0
 11
197.6586150754
 21
110.2252514137
 31
0.0
  0
LINE
  5
3E5
330
1F
100
AcDbEntity
  8
0
  6
Continuous
 62
     7
100
AcDbLine
 10
199.7292405496
 20
112.7007145004
 30
0.0
 11
199.4005591075999
 21
120.6408802156
 31
0.0
  0
LINE
  5
3E6
330
1F
100
AcDbEntity
  8
0
  6
Continuous
 62
     7
100
AcDbLine
 10
180.9894559797
 20
124.5681605527
 30
0.0
 11
199.7292405496
 21
112.7007145004
 31
0.0
  0
LINE
  5
3E7
330
1F
100
AcDbEntity
  8
0
  6
Continuous
 62
     7
100
AcDbLine
 10
180.6607745377
 20
132.5083262679
 30
0.0
 11
199.4005591075999
 21
120.6408802156
 31
0.0
  0
LINE
  5
3E8
330
1F
100
AcDbEntity
  8
0
  6
Continuous
 62
     7
100
AcDbLine
 10
197.8519571001
 20
105.5545656989
 30
0.0
 11
277.2877309185
 21
123.411147641
 31
0.0
  0
LINE
  5
3E9
330
1F
100
AcDbEntity
  8
0
  6
Continuous
 62
     7
100
AcDbLine
 10
197.6586150754
 20
110.2252514137
 30
0.0
 11
277.0943888938
 21
128.0818333558
 31
0.0
  0
LINE
  5
3EA
330
1F
100
AcDbEntity
  8
0
  6
Continuous
 62
     7
100
AcDbLine
 10
199.7292405496
 20
112.7007145004
 30
0.0
 11
258.8647610589
 21
125.9939477239
 31
0.0
  0
LINE
  5
3EC
330
1F
100
AcDbEntity
  8
0
  6
Continuous
 62
     7
100
AcDbLine
 10
199.4005591075999
 20
120.6408802156
 30
0.0
 11
258.5360796169
 21
133.9341134391
 31
0.0
  0
LINE
  5
3EE
330
1F
100
AcDbEntity
  8
0
  6
Continuous
 62
     7
100
AcDbLine
 10
180.9070194901
 20
126.5596310308
 30
0.0
 11
174.2338843629999
 21
125.0595589791
 31
0.0
  0
LINE
  5
3EF
330
1F
100
AcDbEntity
  8
0
  6
Continuous
 62
     7
100
AcDbLine
 10
239.796295047
 20
145.8015594914
 30
0.0
 11
180.6607745377
 21
132.5083262679
 31
0.0
  0
LINE
  5
3F3
330
1F
100
AcDbEntity
  8
0
  6
Continuous
 62
     7
100
AcDbLine
 10
258.5360796169
 20
133.9341134391
 30
0.0
 11
239.796295047
 21
145.8015594914
 31
0.0
  0
LINE
  5
3F4
330
1F
100
AcDbEntity
  8
0
  6
Continuous
 62
     7
100
AcDbLine
 10
277.0943888938
 20
128.0818333558
 30
0.0
 11
253.6696581810828
 21
142.916140921485
 31
0.0
  0
LINE
  5
3F6
330
1F
100
AcDbEntity
  8
0
  6
Continuous
 62
     7
100
AcDbLine
 10
258.8647610589
 20
125.9939477239
 30
0.0
 11
258.5360796169
 21
133.9341134391
 31
0.0
  0
LINE
  5
3FA
330
1F
100
AcDbEntity
  8
0
  6
Continuous
 62
     7
100
AcDbLine
 10
277.2877309185
 20
123.411147641
 30
0.0
 11
277.0943888938
 21
128.0818333558
 31
0.0
  0
CIRCLE
  5
3FB
330
1F
100
AcDbEntity
  8
0
  6
Continuous
 62
     7
100
AcDbCircle
 10
206.909216
 20
31.694605
 30
0.0
 40
0.9154110000000001
  0
CIRCLE
  5
3FC
330
1F
100
AcDbEntity
  8
0
  6
Continuous
 62
     7
100
AcDbCircle
 10
206.909216
 20
31.694605
 30
0.0
 40
0.287938
  0
CIRCLE
  5
3FD
330
1F
100
AcDbEntity
  8
0
  6
Continuous
 62
     7
100
AcDbCircle
 10
145.3718535185
 20
133.829238358
 30
0.0
 40
2.25
  0
CIRCLE
  5
3FE
330
1F
100
AcDbEntity
  8
0
  6
Continuous
 62
     7
100
AcDbCircle
 10
275.6463792047
 20
80.98141742939999
 30
0.0
 40
0.45
  0
SPLINE
  5
3FF
330
1F
100
AcDbEntity
  8
0
  6
Continuous
 62
     7
100
AcDbSpline
210
0.0
220
0.0
230
1.0
 70
     8
 71
     3
 72
    11
 73
     7
 74
     5
 42
0.0000000001
 43
0.0000000001
 44
0.0000000001
 12
0.0134739948879873
 22
-0.9999092216105211
 32
0.0
 13
-0.9756530515759351
 23
-0.2193196820865958
 33
0.0
 40
0.0
 40
0.0
 40
0.0
 40
0.0
 40
0.2010611803825926
 40
0.5201598775236485
 40
0.9555509443114365
 40
1.494461791642517
 40
1.494461791642517
 40
1.494461791642517
 40
1.494461791642517
 10
269.2761595592
 20
127.9225332638
 30
0.0
 10
269.2770625916389
 20
127.8555189543425
 30
0.0
 10
269.2192413801846
 20
127.6802577631873
 30
0.0
 10
268.9626130342904
 20
127.473968814632
 30
0.0
 10
268.5728886231244
 20
127.2897114505678
 30
0.0
 10
268.2583695875753
 20
127.2010616127699
 30
0.0
 10
268.08310625
 20
127.1616636942
 30
0.0
 11
269.2761595592
 21
127.9225332638
 31
0.0
 11
269.2201293099
 21
127.7294368904
 31
0.0
 11
268.9894250963
 21
127.508983847
 31
0.0
 11
268.5998983633
 21
127.3144734223
 31
0.0
 11
268.08310625
 21
127.1616636942
 31
0.0
  0
SPLINE
  5
400
330
1F
100
AcDbEntity
  8
0
  6
Continuous
 62
     7
100
AcDbSpline
210
0.0
220
0.0
230
1.0
 70
     8
 71
     3
 72
    15
 73
    11
 74
     9
 42
0.0000000001
 43
0.0000000001
 44
0.0000000001
 12
-0.9756530515663435
 22
-0.2193196821292647
 32
0.0
 13
-0.0134739949052745
 23
0.9999092216102882
 33
0.0
 40
0.0
 40
0.0
 40
0.0
 40
0.0
 40
0.6102297551692432
 40
1.25008244336107
 40
1.874390949617623
 40
2.439782979441037
 40
2.910300346266232
 40
3.265434328661002
 40
3.518644182450303
 40
3.554197195844431
 40
3.554197195844431
 40
3.554197195844431
 40
3.554197195844431
 10
268.08310625
 20
127.1616636942
 30
0.0
 10
267.8846487424042
 20
127.1170518955568
 30
0.0
 10
267.4721183681125
 20
127.0513839403762
 30
0.0
 10
266.8474117617768
 20
127.0158082569622
 30
0.0
 10
266.2369873482377
 20
127.0419298627911
 30
0.0
 10
265.6887451431778
 20
127.12599235598
 30
0.0
 10
265.243091098764
 20
127.2641805970206
 30
0.0
 10
264.926434619432
 20
127.438519566781
 30
0.0
 10
264.7895538351324
 20
127.6275098207261
 30
0.0
 10
264.7819868570738
 20
127.7240318768503
 30
0.0
 10
264.7818271767
 20
127.7358818055
 30
0.0
 11
268.08310625
 21
127.1616636942
 31
0.0
 11
267.4809161802
 21
127.062934398
 31
0.0
 11
266.8421140117
 21
127.0262839941
 31
0.0
 11
266.2184516973
 21
127.0546816803
 31
0.0
 11
265.6604546486
 21
127.1458268449
 31
0.0
 11
265.2133284679
 21
127.2923354488
 31
0.0
 11
264.9132966592
 21
127.4823382362
 31
0.0
 11
264.7846660154
 21
127.7004423112
 31
0.0
 11
264.7818271767
 21
127.7358818055
 31
0.0
  0
SPLINE
  5
401
330
1F
100
AcDbEntity
  8
0
  6
Continuous
 62
     7
100
AcDbSpline
210
0.0
220
0.0
230
1.0
 70
     8
 71
     3
 72
    11
 73
     7
 74
     5
 42
0.0000000001
 43
0.0000000001
 44
0.0000000001
 12
-0.0134739948879873
 22
0.9999092216105211
 32
0.0
 13
0.9756530515759351
 23
0.2193196820865958
 33
0.0
 40
0.0
 40
0.0
 40
0.0
 40
0.0
 40
0.2010611804104995
 40
0.5201598774792246
 40
0.9555509443118362
 40
1.494461791575334
 40
1.494461791575334
 40
1.494461791575334
 40
1.494461791575334
 10
264.7818271767
 20
127.7358818055
 30
0.0
 10
264.780924144261
 20
127.8028961149668
 30
0.0
 10
264.838745355881
 20
127.978157306046
 30
0.0
 10
265.0953737015667
 20
128.1844462547658
 30
0.0
 10
265.4850981129088
 20
128.3687036184961
 30
0.0
 10
265.7996171483466
 20
128.457353456535
 30
0.0
 10
265.9748804859
 20
128.4967513751
 30
0.0
 11
264.7818271767
 21
127.7358818055
 31
0.0
 11
264.8378574261
 21
127.9289781789
 31
0.0
 11
265.0685616396
 21
128.1494312223
 31
0.0
 11
265.4580883727
 21
128.3439416469
 31
0.0
 11
265.9748804859
 21
128.4967513751
 31
0.0
  0
SPLINE
  5
402
330
1F
100
AcDbEntity
  8
0
  6
Continuous
 62
     7
100
AcDbSpline
210
0.0
220
0.0
230
1.0
 70
     8
 71
     3
 72
    15
 73
    11
 74
     9
 42
0.0000000001
 43
0.0000000001
 44
0.0000000001
 12
0.9756530515663435
 22
0.2193196821292647
 32
0.0
 13
0.0134739949052745
 23
-0.9999092216102882
 33
0.0
 40
0.0
 40
0.0
 40
0.0
 40
0.0
 40
0.6102297552679112
 40
1.250082443459796
 40
1.874390949716292
 40
2.439782979555881
 40
2.910300346381081
 40
3.2654343287223
 40
3.518644182597755
 40
3.55419719588424
 40
3.55419719588424
 40
3.55419719588424
 40
3.55419719588424
 10
265.9748804859
 20
128.4967513751
 30
0.0
 10
266.1733379935279
 20
128.5413631737504
 30
0.0
 10
266.5858683678568
 20
128.6070311289162
 30
0.0
 10
267.2105749742194
 20
128.6426068123295
 30
0.0
 10
267.8209993877799
 20
128.6164852065445
 30
0.0
 10
268.3692415927949
 20
128.5324227132048
 30
0.0
 10
268.8148956372674
 20
128.3942344721558
 30
0.0
 10
269.1315521164467
 20
128.2198955025052
 30
0.0
 10
269.2684329011667
 20
128.0309052485596
 30
0.0
 10
269.2759998788267
 20
127.9343831924137
 30
0.0
 10
269.2761595592
 20
127.9225332638
 30
0.0
 11
265.9748804859
 21
128.4967513751
 31
0.0
 11
266.5770705558
 21
128.5954806712999
 31
0.0
 11
267.2158727243
 21
128.6321310752
 31
0.0
 11
267.8395350387
 21
128.603733389
 31
0.0
 11
268.3975320874
 21
128.5125882243
 31
0.0
 11
268.8446582681
 21
128.3660796204
 31
0.0
 11
269.1446900768
 21
128.1760768331
 31
0.0
 11
269.2733207206
 21
127.957972758
 31
0.0
 11
269.2761595592
 21
127.9225332638
 31
0.0
  0
LINE
  5
463
330
1F
100
AcDbEntity
  8
0
100
AcDbLine
 10
253.6696581810828
 20
142.916140921485
 30
0.0
 11
246.7934655068954
 21
141.3704230158541
 31
0.0
  0
ENDSEC
  0
SECTION
  2
OBJECTS
  0
DICTIONARY
  5
C
330
0
100
AcDbDictionary
281
     1
  3
ACAD_COLOR
350
430
  3
ACAD_GROUP
350
D
  3
ACAD_LAYOUT
350
1A
  3
ACAD_MATERIAL
350
406
  3
ACAD_MLEADERSTYLE
350
455
  3
ACAD_MLINESTYLE
350
17
  3
ACAD_PLOTSETTINGS
350
19
  3
ACAD_PLOTSTYLENAME
350
E
  3
ACAD_SCALELIST
350
433
  3
ACAD_TABLESTYLE
350
431
  3
ACAD_VISUALSTYLE
350
41F
  3
ACDB_RECOMPOSE_DATA
350
637
  3
AcDbVariableDictionary
350
484
  3
DWGPROPS
350
638
  0
DICTIONARY
  5
4BD
330
8
100
AcDbDictionary
280
     1
281
     1
  0
DICTIONARY
  5
464
330
10
100
AcDbDictionary
280
     1
281
     1
  3
ADSK_XREC_LAYER_RECONCILED
360
465
  0
DICTIONARY
  5
466
330
1FA
100
AcDbDictionary
280
     1
281
     1
  3
ADSK_XREC_LAYER_RECONCILED
360
467
  0
DICTIONARY
  5
468
330
1FB
100
AcDbDictionary
280
     1
281
     1
  3
ADSK_XREC_LAYER_RECONCILED
360
469
  0
DICTIONARY
  5
46A
330
1FC
100
AcDbDictionary
280
     1
281
     1
  3
ADSK_XREC_LAYER_RECONCILED
360
46B
  0
DICTIONARY
  5
46C
330
1FD
100
AcDbDictionary
280
     1
281
     1
  3
ADSK_XREC_LAYER_RECONCILED
360
46D
  0
DICTIONARY
  5
4C9
330
1F
100
AcDbDictionary
280
     1
281
     1
  0
DICTIONARY
  5
4C5
330
1B
100
AcDbDictionary
280
     1
281
     1
  0
DICTIONARY
  5
430
102
{ACAD_REACTORS
330
C
102
}
330
C
100
AcDbDictionary
281
     1
  0
DICTIONARY
  5
D
102
{ACAD_REACTORS
330
C
102
}
330
C
100
AcDbDictionary
281
     1
  0
DICTIONARY
  5
1A
102
{ACAD_REACTORS
330
C
102
}
330
C
100
AcDbDictionary
281
     1
  3
Layout1
350
1E
  3
Model
350
22
  0
DICTIONARY
  5
406
102
{ACAD_REACTORS
330
C
102
}
330
C
100
AcDbDictionary
281
     1
  3
ByBlock
350
40F
  3
ByLayer
350
407
  3
Global
350
417
  0
DICTIONARY
  5
455
102
{ACAD_REACTORS
330
C
102
}
330
C
100
AcDbDictionary
281
     1
  3
Standard
350
456
  0
DICTIONARY
  5
17
102
{ACAD_REACTORS
330
C
102
}
330
C
100
AcDbDictionary
281
     1
  3
Standard
350
18
  0
DICTIONARY
  5
19
102
{ACAD_REACTORS
330
C
102
}
330
C
100
AcDbDictionary
281
     1
  0
ACDBDICTIONARYWDFLT
  5
E
102
{ACAD_REACTORS
330
C
102
}
330
C
100
AcDbDictionary
281
     1
  3
Normal
350
F
100
AcDbDictionaryWithDefault
340
F
  0
DICTIONARY
  5
433
102
{ACAD_REACTORS
330
C
102
}
330
C
100
AcDbDictionary
281
     1
  3
A0
350
434
  3
A1
350
435
  3
A2
350
436
  3
A3
350
437
  3
A4
350
438
  3
A5
350
439
  3
A6
350
43A
  3
A7
350
43B
  3
A8
350
43C
  3
A9
350
43D
  3
B0
350
43E
  3
B1
350
43F
  3
B2
350
440
  3
B3
350
441
  3
B4
350
442
  3
B5
350
443
  3
B6
350
444
  3
B7
350
445
  3
B8
350
446
  3
B9
350
447
  3
C0
350
448
  3
C1
350
449
  3
C2
350
44A
  3
C3
350
44B
  3
C4
350
44C
  3
C5
350
44D
  3
C6
350
44E
  3
C7
350
44F
  3
C8
350
450
  3
C9
350
451
  3
D0
350
452
  3
D1
350
453
  3
D2
350
454
  0
DICTIONARY
  5
431
102
{ACAD_REACTORS
330
C
102
}
330
C
100
AcDbDictionary
281
     1
  3
Standard
350
432
  0
DICTIONARY
  5
41F
102
{ACAD_REACTORS
330
C
102
}
330
C
100
AcDbDictionary
281
     1
  3
2dWireframe
350
425
  3
3D Hidden
350
427
  3
3dWireframe
350
426
  3
Basic
350
424
  3
Brighten
350
42B
  3
ColorChange
350
42F
  3
Conceptual
350
428
  3
Dim
350
42A
  3
EdgeColorOff
350
493
  3
Facepattern
350
42E
  3
Flat
350
420
  3
FlatWithEdges
350
421
  3
Gouraud
350
422
  3
GouraudWithEdges
350
423
  3
JitterOff
350
491
  3
Linepattern
350
42D
  3
OverhangOff
350
492
  3
Realistic
350
429
  3
Thicken
350
42C
  0
XRECORD
  5
637
102
{ACAD_REACTORS
330
C
102
}
330
C
100
AcDbXrecord
280
     1
 90
        1
330
432
  0
DICTIONARY
  5
484
102
{ACAD_REACTORS
330
C
102
}
330
C
100
AcDbDictionary
281
     1
  3
CANNOSCALE
350
488
  3
CMLEADERSTYLE
350
486
  3
CTABLESTYLE
350
485
  3
DIMASSOC
350
50C
  3
INDEXCTL
350
50A
  3
LAYEREVAL
350
60C
  3
LAYERNOTIFY
350
60D
  3
LIGHTINGUNITS
350
489
  3
MSLTSCALE
350
487
  3
SORTENTS
350
509
  3
XCLIPFRAME
350
580
  0
XRECORD
  5
638
102
{ACAD_REACTORS
330
C
102
}
330
C
100
AcDbXrecord
280
     1
  1
DWGPROPS COOKIE
  2

  3

  4

  6

  7

  8
Yumie
  9

300
=
301
=
302
=
303
=
304
=
305
=
306
=
307
=
308
=
309
=
 40
0.0069131828703704
 41
2456996.636939746
 42
2457877.681960903
  1

 90
        0
  0
XRECORD
  5
465
102
{ACAD_REACTORS
330
464
102
}
330
464
100
AcDbXrecord
280
     1
290
     1
  0
XRECORD
  5
467
102
{ACAD_REACTORS
330
466
102
}
330
466
100
AcDbXrecord
280
     1
290
     1
  0
XRECORD
  5
469
102
{ACAD_REACTORS
330
468
102
}
330
468
100
AcDbXrecord
280
     1
290
     1
  0
XRECORD
  5
46B
102
{ACAD_REACTORS
330
46A
102
}
330
46A
100
AcDbXrecord
280
     1
290
     1
  0
XRECORD
  5
46D
102
{ACAD_REACTORS
330
46C
102
}
330
46C
100
AcDbXrecord
280
     1
290
     1
  0
LAYOUT
  5
1E
102
{ACAD_XDICTIONARY
360
639
102
}
102
{ACAD_REACTORS
330
1A
102
}
330
1A
100
AcDbPlotSettings
  1

  2

  4

  6

 40
0.0
 41
0.0
 42
0.0
 43
0.0
 44
0.0
 45
0.0
 46
0.0
 47
0.0
 48
0.0
 49
0.0
140
0.0
141
0.0
142
1.0
143
1.0
 70
     0
 72
     0
 73
     0
 74
     0
  7

 75
     0
147
1.0
148
0.0
149
0.0
100
AcDbLayout
  1
Layout1
 70
     1
 71
     1
 10
0.0
 20
0.0
 11
12.0
 21
9.0
 12
0.0
 22
0.0
 32
0.0
 14
1.000000000000000E+20
 24
1.000000000000000E+20
 34
1.000000000000000E+20
 15
-1.000000000000000E+20
 25
-1.000000000000000E+20
 35
-1.000000000000000E+20
146
0.0
 13
0.0
 23
0.0
 33
0.0
 16
1.0
 26
0.0
 36
0.0
 17
0.0
 27
1.0
 37
0.0
 76
     0
330
1B
  0
LAYOUT
  5
22
102
{ACAD_XDICTIONARY
360
63B
102
}
102
{ACAD_REACTORS
330
1A
102
}
330
1A
100
AcDbPlotSettings
  1

  2
none_device
  4
ISO_A4_(210.00_x_297.00_MM)
  6

 40
7.5
 41
20.0
 42
7.5
 43
20.0
 44
210.0
 45
297.0
 46
0.0
 47
0.0
 48
0.0
 49
0.0
140
0.0
141
0.0
142
1.0
143
1.0
 70
 11264
 72
     1
 73
     1
 74
     0
  7

 75
     0
147
1.0
148
-198.3192461005199
149
12.94279015664318
100
AcDbLayout
  1
Model
 70
     0
 71
     0
 10
0.0
 20
0.0
 11
0.0
 21
0.0
 12
0.0
 22
0.0
 32
0.0
 14
0.0
 24
0.0
 34
0.0
 15
0.0
 25
0.0
 35
0.0
146
0.0
 13
0.0
 23
0.0
 33
0.0
 16
0.0
 26
0.0
 36
0.0
 17
0.0
 27
0.0
 37
0.0
 76
     0
330
1F
331
1F4
1001
ACAD_PSEXT
1000
L
1000
L
1000
A
1000
Dt@sWWA_htmN|XC
1070
     0
  0
MATERIAL
  5
40F
102
{ACAD_XDICTIONARY
360
410
102
}
102
{ACAD_REACTORS
330
406
102
}
330
406
100
AcDbMaterial
  1
ByBlock
 72
     0
 43
0.0008202099737533
 43
0.0
 43
0.0
 43
0.0
 43
0.0
 43
0.0008202099737533
 43
0.0
 43
0.0
 43
0.0
 43
0.0
 43
1.0
 43
0.0
 43
0.0
 43
0.0
 43
0.0
 43
1.0
 77
     0
 47
0.0008202099737533
 47
0.0
 47
0.0
 47
0.0
 47
0.0
 47
0.0008202099737533
 47
0.0
 47
0.0
 47
0.0
 47
0.0
 47
1.0
 47
0.0
 47
0.0
 47
0.0
 47
0.0
 47
1.0
171
     0
 49
0.0008202099737533
 49
0.0
 49
0.0
 49
0.0
 49
0.0
 49
0.0008202099737533
 49
0.0
 49
0.0
 49
0.0
 49
0.0
 49
1.0
 49
0.0
 49
0.0
 49
0.0
 49
0.0
 49
1.0
175
     0
142
0.0008202099737533
142
0.0
142
0.0
142
0.0
142
0.0
142
0.0008202099737533
142
0.0
142
0.0
142
0.0
142
0.0
142
1.0
142
0.0
142
0.0
142
0.0
142
0.0
142
1.0
179
     0
144
0.0008202099737533
144
0.0
144
0.0
144
0.0
144
0.0
144
0.0008202099737533
144
0.0
144
0.0
144
0.0
144
0.0
144
1.0
144
0.0
144
0.0
144
0.0
144
0.0
144
1.0
147
0.0008202099737533
147
0.0
147
0.0
147
0.0
147
0.0
147
0.0008202099737533
147
0.0
147
0.0
147
0.0
147
0.0
147
1.0
147
0.0
147
0.0
147
0.0
147
0.0
147
1.0
  0
MATERIAL
  5
407
102
{ACAD_XDICTIONARY
360
408
102
}
102
{ACAD_REACTORS
330
406
102
}
330
406
100
AcDbMaterial
  1
ByLayer
 72
     0
 43
0.0008202099737533
 43
0.0
 43
0.0
 43
0.0
 43
0.0
 43
0.0008202099737533
 43
0.0
 43
0.0
 43
0.0
 43
0.0
 43
1.0
 43
0.0
 43
0.0
 43
0.0
 43
0.0
 43
1.0
 77
     0
 47
0.0008202099737533
 47
0.0
 47
0.0
 47
0.0
 47
0.0
 47
0.0008202099737533
 47
0.0
 47
0.0
 47
0.0
 47
0.0
 47
1.0
 47
0.0
 47
0.0
 47
0.0
 47
0.0
 47
1.0
171
     0
 49
0.0008202099737533
 49
0.0
 49
0.0
 49
0.0
 49
0.0
 49
0.0008202099737533
 49
0.0
 49
0.0
 49
0.0
 49
0.0
 49
1.0
 49
0.0
 49
0.0
 49
0.0
 49
0.0
 49
1.0
175
     0
142
0.0008202099737533
142
0.0
142
0.0
142
0.0
142
0.0
142
0.0008202099737533
142
0.0
142
0.0
142
0.0
142
0.0
142
1.0
142
0.0
142
0.0
142
0.0
142
0.0
142
1.0
179
     0
144
0.0008202099737533
144
0.0
144
0.0
144
0.0
144
0.0
144
0.0008202099737533
144
0.0
144
0.0
144
0.0
144
0.0
144
1.0
144
0.0
144
0.0
144
0.0
144
0.0
144
1.0
147
0.0008202099737533
147
0.0
147
0.0
147
0.0
147
0.0
147
0.0008202099737533
147
0.0
147
0.0
147
0.0
147
0.0
147
1.0
147
0.0
147
0.0
147
0.0
147
0.0
147
1.0
  0
MATERIAL
  5
417
102
{ACAD_XDICTIONARY
360
418
102
}
102
{ACAD_REACTORS
330
406
102
}
330
406
100
AcDbMaterial
  1
Global
 72
     0
 43
0.0008202099737533
 43
0.0
 43
0.0
 43
0.0
 43
0.0
 43
0.0008202099737533
 43
0.0
 43
0.0
 43
0.0
 43
0.0
 43
1.0
 43
0.0
 43
0.0
 43
0.0
 43
0.0
 43
1.0
 77
     0
 47
0.0008202099737533
 47
0.0
 47
0.0
 47
0.0
 47
0.0
 47
0.0008202099737533
 47
0.0
 47
0.0
 47
0.0
 47
0.0
 47
1.0
 47
0.0
 47
0.0
 47
0.0
 47
0.0
 47
1.0
171
     0
 49
0.0008202099737533
 49
0.0
 49
0.0
 49
0.0
 49
0.0
 49
0.0008202099737533
 49
0.0
 49
0.0
 49
0.0
 49
0.0
 49
1.0
 49
0.0
 49
0.0
 49
0.0
 49
0.0
 49
1.0
175
     0
142
0.0008202099737533
142
0.0
142
0.0
142
0.0
142
0.0
142
0.0008202099737533
142
0.0
142
0.0
142
0.0
142
0.0
142
1.0
142
0.0
142
0.0
142
0.0
142
0.0
142
1.0
179
     0
144
0.0008202099737533
144
0.0
144
0.0
144
0.0
144
0.0
144
0.0008202099737533
144
0.0
144
0.0
144
0.0
144
0.0
144
1.0
144
0.0
144
0.0
144
0.0
144
0.0
144
1.0
147
0.0008202099737533
147
0.0
147
0.0
147
0.0
147
0.0
147
0.0008202099737533
147
0.0
147
0.0
147
0.0
147
0.0
147
1.0
147
0.0
147
0.0
147
0.0
147
0.0
147
1.0
  0
MLEADERSTYLE
  5
456
102
{ACAD_REACTORS
330
455
102
}
330
455
100
AcDbMLeaderStyle
170
     2
171
     1
172
     0
 90
        2
 40
0.0
 41
0.0
173
     1
 91
-1056964608
340
14
 92
       -2
290
     1
 42
2.0
291
     1
 43
0.36
  3
Standard
 44
4.0
300

342
11
174
     1
178
     6
175
     1
176
     0
 93
-1056964608
 45
4.0
292
     0
297
     0
 46
4.0
 94
-1056964608
 47
1.0
 49
1.0
140
1.0
293
     1
141
0.0
294
     1
177
     0
142
1.0
295
     0
296
     0
143
0.125
1001
ACAD_MLEADERVER
1070
     2
  0
MLINESTYLE
  5
18
102
{ACAD_REACTORS
330
17
102
}
330
17
100
AcDbMlineStyle
  2
STANDARD
 70
     0
  3

 62
   256
 51
90.0
 52
90.0
 71
     2
 49
0.5
 62
   256
  6
BYLAYER
 49
-0.5
 62
   256
  6
BYLAYER
  0
ACDBPLACEHOLDER
  5
F
102
{ACAD_REACTORS
330
E
102
}
330
E
  0
SCALE
  5
434
102
{ACAD_REACTORS
330
433
102
}
330
433
100
AcDbScale
 70
     0
300
1:1
140
1.0
141
1.0
290
     1
  0
SCALE
  5
435
102
{ACAD_REACTORS
330
433
102
}
330
433
100
AcDbScale
 70
     0
300
1:2
140
1.0
141
2.0
290
     0
  0
SCALE
  5
436
102
{ACAD_REACTORS
330
433
102
}
330
433
100
AcDbScale
 70
     0
300
1:4
140
1.0
141
4.0
290
     0
  0
SCALE
  5
437
102
{ACAD_REACTORS
330
433
102
}
330
433
100
AcDbScale
 70
     0
300
1:5
140
1.0
141
5.0
290
     0
  0
SCALE
  5
438
102
{ACAD_REACTORS
330
433
102
}
330
433
100
AcDbScale
 70
     0
300
1:8
140
1.0
141
8.0
290
     0
  0
SCALE
  5
439
102
{ACAD_REACTORS
330
433
102
}
330
433
100
AcDbScale
 70
     0
300
1:10
140
1.0
141
10.0
290
     0
  0
SCALE
  5
43A
102
{ACAD_REACTORS
330
433
102
}
330
433
100
AcDbScale
 70
     0
300
1:16
140
1.0
141
16.0
290
     0
  0
SCALE
  5
43B
102
{ACAD_REACTORS
330
433
102
}
330
433
100
AcDbScale
 70
     0
300
1:20
140
1.0
141
20.0
290
     0
  0
SCALE
  5
43C
102
{ACAD_REACTORS
330
433
102
}
330
433
100
AcDbScale
 70
     0
300
1:30
140
1.0
141
30.0
290
     0
  0
SCALE
  5
43D
102
{ACAD_REACTORS
330
433
102
}
330
433
100
AcDbScale
 70
     0
300
1:40
140
1.0
141
40.0
290
     0
  0
SCALE
  5
43E
102
{ACAD_REACTORS
330
433
102
}
330
433
100
AcDbScale
 70
     0
300
1:50
140
1.0
141
50.0
290
     0
  0
SCALE
  5
43F
102
{ACAD_REACTORS
330
433
102
}
330
433
100
AcDbScale
 70
     0
300
1:100
140
1.0
141
100.0
290
     0
  0
SCALE
  5
440
102
{ACAD_REACTORS
330
433
102
}
330
433
100
AcDbScale
 70
     0
300
2:1
140
2.0
141
1.0
290
     0
  0
SCALE
  5
441
102
{ACAD_REACTORS
330
433
102
}
330
433
100
AcDbScale
 70
     0
300
4:1
140
4.0
141
1.0
290
     0
  0
SCALE
  5
442
102
{ACAD_REACTORS
330
433
102
}
330
433
100
AcDbScale
 70
     0
300
8:1
140
8.0
141
1.0
290
     0
  0
SCALE
  5
443
102
{ACAD_REACTORS
330
433
102
}
330
433
100
AcDbScale
 70
     0
300
10:1
140
10.0
141
1.0
290
     0
  0
SCALE
  5
444
102
{ACAD_REACTORS
330
433
102
}
330
433
100
AcDbScale
 70
     0
300
100:1
140
100.0
141
1.0
290
     0
  0
SCALE
  5
445
102
{ACAD_REACTORS
330
433
102
}
330
433
100
AcDbScale
 70
     0
300
1/128" = 1'-0"
140
0.0078125
141
12.0
290
     0
  0
SCALE
  5
446
102
{ACAD_REACTORS
330
433
102
}
330
433
100
AcDbScale
 70
     0
300
1/64" = 1'-0"
140
0.015625
141
12.0
290
     0
  0
SCALE
  5
447
102
{ACAD_REACTORS
330
433
102
}
330
433
100
AcDbScale
 70
     0
300
1/32" = 1'-0"
140
0.03125
141
12.0
290
     0
  0
SCALE
  5
448
102
{ACAD_REACTORS
330
433
102
}
330
433
100
AcDbScale
 70
     0
300
1/16" = 1'-0"
140
0.0625
141
12.0
290
     0
  0
SCALE
  5
449
102
{ACAD_REACTORS
330
433
102
}
330
433
100
AcDbScale
 70
     0
300
3/32" = 1'-0"
140
0.09375
141
12.0
290
     0
  0
SCALE
  5
44A
102
{ACAD_REACTORS
330
433
102
}
330
433
100
AcDbScale
 70
     0
300
1/8" = 1'-0"
140
0.125
141
12.0
290
     0
  0
SCALE
  5
44B
102
{ACAD_REACTORS
330
433
102
}
330
433
100
AcDbScale
 70
     0
300
3/16" = 1'-0"
140
0.1875
141
12.0
290
     0
  0
SCALE
  5
44C
102
{ACAD_REACTORS
330
433
102
}
330
433
100
AcDbScale
 70
     0
300
1/4" = 1'-0"
140
0.25
141
12.0
290
     0
  0
SCALE
  5
44D
102
{ACAD_REACTORS
330
433
102
}
330
433
100
AcDbScale
 70
     0
300
3/8" = 1'-0"
140
0.375
141
12.0
290
     0
  0
SCALE
  5
44E
102
{ACAD_REACTORS
330
433
102
}
330
433
100
AcDbScale
 70
     0
300
1/2" = 1'-0"
140
0.5
141
12.0
290
     0
  0
SCALE
  5
44F
102
{ACAD_REACTORS
330
433
102
}
330
433
100
AcDbScale
 70
     0
300
3/4" = 1'-0"
140
0.75
141
12.0
290
     0
  0
SCALE
  5
450
102
{ACAD_REACTORS
330
433
102
}
330
433
100
AcDbScale
 70
     0
300
1" = 1'-0"
140
1.0
141
12.0
290
     0
  0
SCALE
  5
451
102
{ACAD_REACTORS
330
433
102
}
330
433
100
AcDbScale
 70
     0
300
1-1/2" = 1'-0"
140
1.5
141
12.0
290
     0
  0
SCALE
  5
452
102
{ACAD_REACTORS
330
433
102
}
330
433
100
AcDbScale
 70
     0
300
3" = 1'-0"
140
3.0
141
12.0
290
     0
  0
SCALE
  5
453
102
{ACAD_REACTORS
330
433
102
}
330
433
100
AcDbScale
 70
     0
300
6" = 1'-0"
140
6.0
141
12.0
290
     0
  0
SCALE
  5
454
102
{ACAD_REACTORS
330
433
102
}
330
433
100
AcDbScale
 70
     0
300
1'-0" = 1'-0"
140
12.0
141
12.0
290
     0
  0
TABLESTYLE
  5
432
102
{ACAD_XDICTIONARY
360
481
102
}
102
{ACAD_REACTORS
330
431
102
}
330
431
100
AcDbTableStyle
  3
Standard
 70
     0
 71
     0
 40
1.5
 41
1.5
280
     0
281
     0
  7
STANDARD
140
4.5
170
     2
 62
     0
 63
     7
283
     0
274
    -2
284
     1
 64
     0
275
    -2
285
     1
 65
     0
276
    -2
286
     1
 66
     0
277
    -2
287
     1
 67
     0
278
    -2
288
     1
 68
     0
279
    -2
289
     1
 69
     0
  7
STANDARD
140
6.0
170
     5
 62
     0
 63
     7
283
     0
274
    -2
284
     1
 64
     0
275
    -2
285
     1
 65
     0
276
    -2
286
     1
 66
     0
277
    -2
287
     1
 67
     0
278
    -2
288
     1
 68
     0
279
    -2
289
     1
 69
     0
  7
STANDARD
140
4.5
170
     5
 62
     0
 63
     7
283
     0
274
    -2
284
     1
 64
     0
275
    -2
285
     1
 65
     0
276
    -2
286
     1
 66
     0
277
    -2
287
     1
 67
     0
278
    -2
288
     1
 68
     0
279
    -2
289
     1
 69
     0
  0
VISUALSTYLE
  5
425
102
{ACAD_XDICTIONARY
360
64A
102
}
102
{ACAD_REACTORS
330
41F
102
}
330
41F
100
AcDbVisualStyle
  2
2dWireframe
 70
     4
 71
     0
 72
     2
 73
     0
 90
        0
 40
-0.6
 41
-30.0
 62
     5
 63
     7
 74
     1
 91
        4
 64
     7
 65
   257
 75
     1
175
     1
 42
1.0
 92
        0
 66
   257
 43
1.0
 76
     1
 77
     6
 78
     2
 67
     7
 79
     5
170
     0
171
     0
290
     0
174
     0
 93
        1
 44
0.0
173
     0
291
     0
 45
0.0
1001
ACAD
1000
AcDbSavedByObjectVersion
1070
     0
  0
VISUALSTYLE
  5
427
102
{ACAD_XDICTIONARY
360
64E
102
}
102
{ACAD_REACTORS
330
41F
102
}
330
41F
100
AcDbVisualStyle
  2
3D Hidden
 70
     6
 71
     1
 72
     2
 73
     2
 90
        0
 40
-0.6
 41
-30.0
 62
     5
 63
     7
 74
     2
 91
        2
 64
     7
 65
   257
 75
     2
175
     1
 42
40.0
 92
        0
 66
   257
 43
1.0
 76
     1
 77
     6
 78
     2
 67
     7
 79
     3
170
     0
171
     0
290
     0
174
     0
 93
        1
 44
0.0
173
     0
291
     0
 45
0.0
1001
ACAD
1000
AcDbSavedByObjectVersion
1070
     0
  0
VISUALSTYLE
  5
426
102
{ACAD_XDICTIONARY
360
64C
102
}
102
{ACAD_REACTORS
330
41F
102
}
330
41F
100
AcDbVisualStyle
  2
3dWireframe
 70
     5
 71
     0
 72
     2
 73
     0
 90
        0
 40
-0.6
 41
-30.0
 62
     5
 63
     7
 74
     1
 91
        4
 64
     7
 65
   257
 75
     1
175
     1
 42
1.0
 92
        0
 66
   257
 43
1.0
 76
     1
 77
     6
 78
     2
 67
     7
 79
     5
170
     0
171
     0
290
     0
174
     0
 93
        1
 44
0.0
173
     0
291
     0
 45
0.0
1001
ACAD
1000
AcDbSavedByObjectVersion
1070
     0
  0
VISUALSTYLE
  5
424
102
{ACAD_XDICTIONARY
360
648
102
}
102
{ACAD_REACTORS
330
41F
102
}
330
41F
100
AcDbVisualStyle
  2
Basic
 70
     7
 71
     1
 72
     0
 73
     1
 90
        0
 40
-0.6
 41
-30.0
 62
     5
 63
     7
 74
     0
 91
        4
 64
     7
 65
   257
 75
     1
175
     1
 42
1.0
 92
        8
 66
     7
 43
1.0
 76
     1
 77
     6
 78
     2
 67
     7
 79
     5
170
     0
171
     0
290
     0
174
     0
 93
        1
 44
0.0
173
     0
291
     1
 45
0.0
1001
ACAD
1000
AcDbSavedByObjectVersion
1070
     0
  0
VISUALSTYLE
  5
42B
102
{ACAD_XDICTIONARY
360
656
102
}
102
{ACAD_REACTORS
330
41F
102
}
330
41F
100
AcDbVisualStyle
  2
Brighten
 70
    12
 71
     2
 72
     2
 73
     0
 90
        0
 40
-0.6
 41
-30.0
 62
     5
 63
     7
 74
     1
 91
        4
 64
     7
 65
   257
 75
     1
175
     1
 42
1.0
 92
        8
 66
     7
 43
1.0
 76
     1
 77
     6
 78
     2
 67
     7
 79
     5
170
     0
171
     0
290
     0
174
     0
 93
        1
 44
50.0
173
     0
291
     1
 45
0.0
1001
ACAD
1000
AcDbSavedByObjectVersion
1070
     0
  0
VISUALSTYLE
  5
42F
102
{ACAD_XDICTIONARY
360
65E
102
}
102
{ACAD_REACTORS
330
41F
102
}
330
41F
100
AcDbVisualStyle
  2
ColorChange
 70
    16
 71
     2
 72
     2
 73
     3
 90
        0
 40
-0.6
 41
-30.0
 62
     5
 63
     8
 74
     1
 91
        4
 64
     7
 65
   257
 75
     1
175
     1
 42
1.0
 92
        8
 66
     8
 43
1.0
 76
     1
 77
     6
 78
     2
 67
     7
 79
     5
170
     0
171
     0
290
     0
174
     0
 93
        1
 44
0.0
173
     0
291
     1
 45
0.0
1001
ACAD
1000
AcDbSavedByObjectVersion
1070
     0
  0
VISUALSTYLE
  5
428
102
{ACAD_XDICTIONARY
360
650
102
}
102
{ACAD_REACTORS
330
41F
102
}
330
41F
100
AcDbVisualStyle
  2
Conceptual
 70
     9
 71
     3
 72
     2
 73
     0
 90
        0
 40
-0.6
 41
-30.0
 62
     5
 63
     7
 74
     2
 91
        2
 64
     7
 65
   257
 75
     1
175
     1
 42
40.0
 92
        8
 66
     7
 43
1.0
 76
     1
 77
     6
 78
     2
 67
     7
 79
     3
170
     0
171
     0
290
     0
174
     0
 93
        1
 44
0.0
173
     0
291
     0
 45
0.0
1001
ACAD
1000
AcDbSavedByObjectVersion
1070
     0
  0
VISUALSTYLE
  5
42A
102
{ACAD_XDICTIONARY
360
654
102
}
102
{ACAD_REACTORS
330
41F
102
}
330
41F
100
AcDbVisualStyle
  2
Dim
 70
    11
 71
     2
 72
     2
 73
     0
 90
        0
 40
-0.6
 41
-30.0
 62
     5
 63
     7
 74
     1
 91
        4
 64
     7
 65
   257
 75
     1
175
     1
 42
1.0
 92
        8
 66
     7
 43
1.0
 76
     1
 77
     6
 78
     2
 67
     7
 79
     5
170
     0
171
     0
290
     0
174
     0
 93
        1
 44
-50.0
173
     0
291
     1
 45
0.0
1001
ACAD
1000
AcDbSavedByObjectVersion
1070
     0
  0
VISUALSTYLE
  5
493
102
{ACAD_XDICTIONARY
360
665
102
}
102
{ACAD_REACTORS
330
41F
102
}
330
41F
100
AcDbVisualStyle
  2
EdgeColorOff
 70
    22
 71
     2
 72
     2
 73
     0
 90
        0
 40
-0.6
 41
-30.0
 62
     5
 63
     7
 74
     1
 91
        4
 64
     7
 65
   257
 75
     1
175
     1
 42
1.0
 92
        8
 66
     7
 43
1.0
 76
     1
 77
     6
 78
     2
 67
     7
 79
     5
170
     0
171
     0
290
     0
174
     0
 93
        1
 44
0.0
173
     0
291
     1
 45
0.0
1001
ACAD
1000
AcDbSavedByObjectVersion
1070
     0
  0
VISUALSTYLE
  5
42E
102
{ACAD_XDICTIONARY
360
65C
102
}
102
{ACAD_REACTORS
330
41F
102
}
330
41F
100
AcDbVisualStyle
  2
Facepattern
 70
    15
 71
     2
 72
     2
 73
     0
 90
        0
 40
-0.6
 41
-30.0
 62
     5
 63
     7
 74
     1
 91
        4
 64
     7
 65
   257
 75
     1
175
     1
 42
1.0
 92
        8
 66
     7
 43
1.0
 76
     1
 77
     6
 78
     2
 67
     7
 79
     5
170
     0
171
     0
290
     0
174
     0
 93
        1
 44
0.0
173
     0
291
     1
 45
0.0
1001
ACAD
1000
AcDbSavedByObjectVersion
1070
     0
  0
VISUALSTYLE
  5
420
102
{ACAD_XDICTIONARY
360
640
102
}
102
{ACAD_REACTORS
330
41F
102
}
330
41F
100
AcDbVisualStyle
  2
Flat
 70
     0
 71
     2
 72
     1
 73
     1
 90
        2
 40
-0.6
 41
30.0
 62
     5
 63
     7
 74
     0
 91
        4
 64
     7
 65
   257
 75
     1
175
     1
 42
1.0
 92
        8
 66
     7
 43
1.0
 76
     1
 77
     6
 78
     2
 67
     7
 79
     5
170
     0
171
     0
290
     0
174
     0
 93
       13
 44
0.0
173
     0
291
     1
 45
0.0
1001
ACAD
1000
AcDbSavedByObjectVersion
1070
     0
  0
VISUALSTYLE
  5
421
102
{ACAD_XDICTIONARY
360
642
102
}
102
{ACAD_REACTORS
330
41F
102
}
330
41F
100
AcDbVisualStyle
  2
FlatWithEdges
 70
     1
 71
     2
 72
     1
 73
     1
 90
        2
 40
-0.6
 41
30.0
 62
     5
 63
     7
 74
     1
 91
        4
 64
     7
 65
   257
 75
     1
175
     1
 42
1.0
 92
        0
 66
   257
 43
1.0
 76
     1
 77
     6
 78
     2
 67
     7
 79
     5
170
     0
171
     0
290
     0
174
     0
 93
       13
 44
0.0
173
     0
291
     1
 45
0.0
1001
ACAD
1000
AcDbSavedByObjectVersion
1070
     0
  0
VISUALSTYLE
  5
422
102
{ACAD_XDICTIONARY
360
644
102
}
102
{ACAD_REACTORS
330
41F
102
}
330
41F
100
AcDbVisualStyle
  2
Gouraud
 70
     2
 71
     2
 72
     2
 73
     1
 90
        2
 40
-0.6
 41
30.0
 62
     5
 63
     7
 74
     0
 91
        4
 64
     7
 65
   257
 75
     1
175
     1
 42
1.0
 92
        0
 66
     7
 43
1.0
 76
     1
 77
     6
 78
     2
 67
     7
 79
     5
170
     0
171
     0
290
     0
174
     0
 93
       13
 44
0.0
173
     0
291
     1
 45
0.0
1001
ACAD
1000
AcDbSavedByObjectVersion
1070
     0
  0
VISUALSTYLE
  5
423
102
{ACAD_XDICTIONARY
360
646
102
}
102
{ACAD_REACTORS
330
41F
102
}
330
41F
100
AcDbVisualStyle
  2
GouraudWithEdges
 70
     3
 71
     2
 72
     2
 73
     1
 90
        2
 40
-0.6
 41
30.0
 62
     5
 63
     7
 74
     1
 91
        4
 64
     7
 65
   257
 75
     1
175
     1
 42
1.0
 92
        0
 66
   257
 43
1.0
 76
     1
 77
     6
 78
     2
 67
     7
 79
     5
170
     0
171
     0
290
     0
174
     0
 93
       13
 44
0.0
173
     0
291
     1
 45
0.0
1001
ACAD
1000
AcDbSavedByObjectVersion
1070
     0
  0
VISUALSTYLE
  5
491
102
{ACAD_XDICTIONARY
360
661
102
}
102
{ACAD_REACTORS
330
41F
102
}
330
41F
100
AcDbVisualStyle
  2
JitterOff
 70
    20
 71
     2
 72
     2
 73
     0
 90
        0
 40
-0.6
 41
-30.0
 62
     5
 63
     7
 74
     1
 91
        4
 64
     7
 65
   257
 75
     1
175
     1
 42
1.0
 92
       10
 66
     7
 43
1.0
 76
     1
 77
     6
 78
     2
 67
     7
 79
     5
170
     0
171
     0
290
     0
174
     0
 93
        1
 44
0.0
173
     0
291
     1
 45
0.0
1001
ACAD
1000
AcDbSavedByObjectVersion
1070
     0
  0
VISUALSTYLE
  5
42D
102
{ACAD_XDICTIONARY
360
65A
102
}
102
{ACAD_REACTORS
330
41F
102
}
330
41F
100
AcDbVisualStyle
  2
Linepattern
 70
    14
 71
     2
 72
     2
 73
     0
 90
        0
 40
-0.6
 41
-30.0
 62
     5
 63
     7
 74
     1
 91
        4
 64
     7
 65
   257
 75
     7
175
     7
 42
1.0
 92
        8
 66
     7
 43
1.0
 76
     1
 77
     6
 78
     2
 67
     7
 79
     5
170
     0
171
     0
290
     0
174
     0
 93
        1
 44
0.0
173
     0
291
     1
 45
0.0
1001
ACAD
1000
AcDbSavedByObjectVersion
1070
     0
  0
VISUALSTYLE
  5
492
102
{ACAD_XDICTIONARY
360
663
102
}
102
{ACAD_REACTORS
330
41F
102
}
330
41F
100
AcDbVisualStyle
  2
OverhangOff
 70
    21
 71
     2
 72
     2
 73
     0
 90
        0
 40
-0.6
 41
-30.0
 62
     5
 63
     7
 74
     1
 91
        4
 64
     7
 65
   257
 75
     1
175
     1
 42
1.0
 92
        9
 66
     7
 43
1.0
 76
     1
 77
     6
 78
     2
 67
     7
 79
     5
170
     0
171
     0
290
     0
174
     0
 93
        1
 44
0.0
173
     0
291
     1
 45
0.0
1001
ACAD
1000
AcDbSavedByObjectVersion
1070
     0
  0
VISUALSTYLE
  5
429
102
{ACAD_XDICTIONARY
360
652
102
}
102
{ACAD_REACTORS
330
41F
102
}
330
41F
100
AcDbVisualStyle
  2
Realistic
 70
     8
 71
     2
 72
     2
 73
     0
 90
        0
 40
-0.6
 41
-30.0
 62
     5
 63
     7
 74
     1
 91
        0
 64
     7
 65
   257
 75
     1
175
     1
 42
1.0
 92
        8
 66
     8
 43
1.0
 76
     1
 77
     6
 78
     2
 67
     7
 79
     5
170
     0
171
     0
290
     0
174
     0
 93
       13
 44
0.0
173
     0
291
     0
 45
0.0
1001
ACAD
1000
AcDbSavedByObjectVersion
1070
     0
  0
VISUALSTYLE
  5
42C
102
{ACAD_XDICTIONARY
360
658
102
}
102
{ACAD_REACTORS
330
41F
102
}
330
41F
100
AcDbVisualStyle
  2
Thicken
 70
    13
 71
     2
 72
     2
 73
     0
 90
        0
 40
-0.6
 41
-30.0
 62
     5
 63
     7
 74
     1
 91
        4
 64
     7
 65
   257
 75
     1
175
     1
 42
1.0
 92
       12
 66
     7
 43
1.0
 76
     1
 77
     6
 78
     2
 67
     7
 79
     5
170
     0
171
     0
290
     0
174
     0
 93
        1
 44
0.0
173
     0
291
     1
 45
0.0
1001
ACAD
1000
AcDbSavedByObjectVersion
1070
     0
  0
DICTIONARYVAR
  5
488
102
{ACAD_REACTORS
330
484
102
}
330
484
100
DictionaryVariables
280
     0
  1
1:1
  0
DICTIONARYVAR
  5
486
102
{ACAD_REACTORS
330
484
102
}
330
484
100
DictionaryVariables
280
     0
  1
STANDARD
  0
DICTIONARYVAR
  5
485
102
{ACAD_REACTORS
330
484
102
}
330
484
100
DictionaryVariables
280
     0
  1
STANDARD
  0
DICTIONARYVAR
  5
50C
102
{ACAD_REACTORS
330
484
102
}
330
484
100
DictionaryVariables
280
     0
  1
1
  0
DICTIONARYVAR
  5
50A
102
{ACAD_REACTORS
330
484
102
}
330
484
100
DictionaryVariables
280
     0
  1
0
  0
DICTIONARYVAR
  5
60C
102
{ACAD_REACTORS
330
484
102
}
330
484
100
DictionaryVariables
280
     0
  1
1
  0
DICTIONARYVAR
  5
60D
102
{ACAD_REACTORS
330
484
102
}
330
484
100
DictionaryVariables
280
     0
  1
15
  0
DICTIONARYVAR
  5
489
102
{ACAD_REACTORS
330
484
102
}
330
484
100
DictionaryVariables
280
     0
  1
0
  0
DICTIONARYVAR
  5
487
102
{ACAD_REACTORS
330
484
102
}
330
484
100
DictionaryVariables
280
     0
  1
0
  0
DICTIONARYVAR
  5
509
102
{ACAD_REACTORS
330
484
102
}
330
484
100
DictionaryVariables
280
     0
  1
127
  0
DICTIONARYVAR
  5
580
102
{ACAD_REACTORS
330
484
102
}
330
484
100
DictionaryVariables
280
     0
  1
2
  0
DICTIONARY
  5
639
330
1E
100
AcDbDictionary
280
     1
281
     1
  3
ACAD_XREC_ROUNDTRIP
360
63A
  0
DICTIONARY
  5
63B
330
22
100
AcDbDictionary
280
     1
281
     1
  3
ACAD_XREC_ROUNDTRIP
360
63C
  0
DICTIONARY
  5
410
330
40F
100
AcDbDictionary
280
     1
281
     1
  3
ACAD_XREC_ROUNDTRIP
360
63E
  3
BUMPTILE
360
412
  3
DIFFUSETILE
360
411
  3
OPACITYTILE
360
415
  3
REFLECTIONTILE
360
414
  3
REFRACTIONTILE
360
416
  3
SPECULARTILE
360
413
  0
DICTIONARY
  5
408
330
407
100
AcDbDictionary
280
     1
281
     1
  3
ACAD_XREC_ROUNDTRIP
360
63D
  3
BUMPTILE
360
40A
  3
DIFFUSETILE
360
409
  3
OPACITYTILE
360
40D
  3
REFLECTIONTILE
360
40C
  3
REFRACTIONTILE
360
40E
  3
SPECULARTILE
360
40B
  0
DICTIONARY
  5
418
330
417
100
AcDbDictionary
280
     1
281
     1
  3
ACAD_XREC_ROUNDTRIP
360
63F
  3
BUMPTILE
360
41A
  3
DIFFUSETILE
360
419
  3
OPACITYTILE
360
41D
  3
REFLECTIONTILE
360
41C
  3
REFRACTIONTILE
360
41E
  3
SPECULARTILE
360
41B
  0
DICTIONARY
  5
481
330
432
100
AcDbDictionary
280
     1
281
     1
  3
ACAD_ROUNDTRIP_2008_TABLESTYLE_CELLSTYLEMAP
360
636
  3
ACAD_XREC_ROUNDTRIP
360
660
  0
DICTIONARY
  5
64A
330
425
100
AcDbDictionary
280
     1
281
     1
  3
ACAD_XREC_ROUNDTRIP
360
64B
  0
DICTIONARY
  5
64E
330
427
100
AcDbDictionary
280
     1
281
     1
  3
ACAD_XREC_ROUNDTRIP
360
64F
  0
DICTIONARY
  5
64C
330
426
100
AcDbDictionary
280
     1
281
     1
  3
ACAD_XREC_ROUNDTRIP
360
64D
  0
DICTIONARY
  5
648
330
424
100
AcDbDictionary
280
     1
281
     1
  3
ACAD_XREC_ROUNDTRIP
360
649
  0
DICTIONARY
  5
656
330
42B
100
AcDbDictionary
280
     1
281
     1
  3
ACAD_XREC_ROUNDTRIP
360
657
  0
DICTIONARY
  5
65E
330
42F
100
AcDbDictionary
280
     1
281
     1
  3
ACAD_XREC_ROUNDTRIP
360
65F
  0
DICTIONARY
  5
650
330
428
100
AcDbDictionary
280
     1
281
     1
  3
ACAD_XREC_ROUNDTRIP
360
651
  0
DICTIONARY
  5
654
330
42A
100
AcDbDictionary
280
     1
281
     1
  3
ACAD_XREC_ROUNDTRIP
360
655
  0
DICTIONARY
  5
665
330
493
100
AcDbDictionary
280
     1
281
     1
  3
ACAD_XREC_ROUNDTRIP
360
666
  0
DICTIONARY
  5
65C
330
42E
100
AcDbDictionary
280
     1
281
     1
  3
ACAD_XREC_ROUNDTRIP
360
65D
  0
DICTIONARY
  5
640
330
420
100
AcDbDictionary
280
     1
281
     1
  3
ACAD_XREC_ROUNDTRIP
360
641
  0
DICTIONARY
  5
642
330
421
100
AcDbDictionary
280
     1
281
     1
  3
ACAD_XREC_ROUNDTRIP
360
643
  0
DICTIONARY
  5
644
330
422
100
AcDbDictionary
280
     1
281
     1
  3
ACAD_XREC_ROUNDTRIP
360
645
  0
DICTIONARY
  5
646
330
423
100
AcDbDictionary
280
     1
281
     1
  3
ACAD_XREC_ROUNDTRIP
360
647
  0
DICTIONARY
  5
661
330
491
100
AcDbDictionary
280
     1
281
     1
  3
ACAD_XREC_ROUNDTRIP
360
662
  0
DICTIONARY
  5
65A
330
42D
100
AcDbDictionary
280
     1
281
     1
  3
ACAD_XREC_ROUNDTRIP
360
65B
  0
DICTIONARY
  5
663
330
492
100
AcDbDictionary
280
     1
281
     1
  3
ACAD_XREC_ROUNDTRIP
360
664
  0
DICTIONARY
  5
652
330
429
100
AcDbDictionary
280
     1
281
     1
  3
ACAD_XREC_ROUNDTRIP
360
653
  0
DICTIONARY
  5
658
330
42C
100
AcDbDictionary
280
     1
281
     1
  3
ACAD_XREC_ROUNDTRIP
360
659
  0
XRECORD
  5
63A
102
{ACAD_REACTORS
330
639
102
}
330
639
100
AcDbXrecord
280
     1
102
SHADEPLOT
 70
     0
102
SHADEPLOTRESLEVEL
 70
     2
102
SHADEPLOTCUSTOMDPI
 70
   300
  0
XRECORD
  5
63C
102
{ACAD_REACTORS
330
63B
102
}
330
63B
100
AcDbXrecord
280
     1
102
SHADEPLOT
 70
     0
102
SHADEPLOTRESLEVEL
 70
     2
102
SHADEPLOTCUSTOMDPI
 70
   300
  0
XRECORD
  5
63E
102
{ACAD_REACTORS
330
410
102
}
330
410
100
AcDbXrecord
280
     1
102
MATERIAL
148
0.0
149
0.0
149
0.0
 93
        0
 94
      127
282
     0
 72
     0
 77
     0
171
     0
175
     0
179
     0
273
     0
  0
XRECORD
  5
412
102
{ACAD_REACTORS
330
410
102
}
330
410
100
AcDbXrecord
280
     1
270
     1
271
     1
  0
XRECORD
  5
411
102
{ACAD_REACTORS
330
410
102
}
330
410
100
AcDbXrecord
280
     1
270
     1
271
     1
  0
XRECORD
  5
415
102
{ACAD_REACTORS
330
410
102
}
330
410
100
AcDbXrecord
280
     1
270
     1
271
     1
  0
XRECORD
  5
414
102
{ACAD_REACTORS
330
410
102
}
330
410
100
AcDbXrecord
280
     1
270
     1
271
     1
  0
XRECORD
  5
416
102
{ACAD_REACTORS
330
410
102
}
330
410
100
AcDbXrecord
280
     1
270
     1
271
     1
  0
XRECORD
  5
413
102
{ACAD_REACTORS
330
410
102
}
330
410
100
AcDbXrecord
280
     1
270
     1
271
     1
  0
XRECORD
  5
63D
102
{ACAD_REACTORS
330
408
102
}
330
408
100
AcDbXrecord
280
     1
102
MATERIAL
148
0.0
149
0.0
149
0.0
 93
        0
 94
      127
282
     0
 72
     0
 77
     0
171
     0
175
     0
179
     0
273
     0
  0
XRECORD
  5
40A
102
{ACAD_REACTORS
330
408
102
}
330
408
100
AcDbXrecord
280
     1
270
     1
271
     1
  0
XRECORD
  5
409
102
{ACAD_REACTORS
330
408
102
}
330
408
100
AcDbXrecord
280
     1
270
     1
271
     1
  0
XRECORD
  5
40D
102
{ACAD_REACTORS
330
408
102
}
330
408
100
AcDbXrecord
280
     1
270
     1
271
     1
  0
XRECORD
  5
40C
102
{ACAD_REACTORS
330
408
102
}
330
408
100
AcDbXrecord
280
     1
270
     1
271
     1
  0
XRECORD
  5
40E
102
{ACAD_REACTORS
330
408
102
}
330
408
100
AcDbXrecord
280
     1
270
     1
271
     1
  0
XRECORD
  5
40B
102
{ACAD_REACTORS
330
408
102
}
330
408
100
AcDbXrecord
280
     1
270
     1
271
     1
  0
XRECORD
  5
63F
102
{ACAD_REACTORS
330
418
102
}
330
418
100
AcDbXrecord
280
     1
102
MATERIAL
148
0.0
149
0.0
149
0.0
 93
        0
 94
      127
282
     0
 72
     0
 77
     0
171
     0
175
     0
179
     0
273
     0
  0
XRECORD
  5
41A
102
{ACAD_REACTORS
330
418
102
}
330
418
100
AcDbXrecord
280
     1
270
     1
271
     1
  0
XRECORD
  5
419
102
{ACAD_REACTORS
330
418
102
}
330
418
100
AcDbXrecord
280
     1
270
     1
271
     1
  0
XRECORD
  5
41D
102
{ACAD_REACTORS
330
418
102
}
330
418
100
AcDbXrecord
280
     1
270
     1
271
     1
  0
XRECORD
  5
41C
102
{ACAD_REACTORS
330
418
102
}
330
418
100
AcDbXrecord
280
     1
270
     1
271
     1
  0
XRECORD
  5
41E
102
{ACAD_REACTORS
330
418
102
}
330
418
100
AcDbXrecord
280
     1
270
     1
271
     1
  0
XRECORD
  5
41B
102
{ACAD_REACTORS
330
418
102
}
330
418
100
AcDbXrecord
280
     1
270
     1
271
     1
  0
CELLSTYLEMAP
  5
636
102
{ACAD_REACTORS
330
481
102
}
330
481
100
AcDbCellStyleMap
 90
        3
300
CELLSTYLE
  1
TABLEFORMAT_BEGIN
 90
        5
170
     1
 91
        0
 92
    32768
 62
   257
 93
        1
300
CONTENTFORMAT
  1
CONTENTFORMAT_BEGIN
 90
        0
 91
        0
 92
      512
 93
        0
300

 40
0.0
140
1.0
 94
        5
 62
     0
340
11
144
6.0
309
CONTENTFORMAT_END
171
     1
301
MARGIN
  1
CELLMARGIN_BEGIN
 40
1.5
 40
1.5
 40
1.5
 40
1.5
 40
4.5
 40
4.5
309
CELLMARGIN_END
 94
        6
 95
        1
302
GRIDFORMAT
  1
GRIDFORMAT_BEGIN
 90
        0
 91
        1
 62
     0
 92
       -2
340
0
 93
        0
 40
1.125
309
GRIDFORMAT_END
 95
        2
302
GRIDFORMAT
  1
GRIDFORMAT_BEGIN
 90
        0
 91
        1
 62
     0
 92
       -2
340
0
 93
        0
 40
1.125
309
GRIDFORMAT_END
 95
        4
302
GRIDFORMAT
  1
GRIDFORMAT_BEGIN
 90
        0
 91
        1
 62
     0
 92
       -2
340
0
 93
        0
 40
1.125
309
GRIDFORMAT_END
 95
        8
302
GRIDFORMAT
  1
GRIDFORMAT_BEGIN
 90
        0
 91
        1
 62
     0
 92
       -2
340
0
 93
        0
 40
1.125
309
GRIDFORMAT_END
 95
       16
302
GRIDFORMAT
  1
GRIDFORMAT_BEGIN
 90
        0
 91
        1
 62
     0
 92
       -2
340
0
 93
        0
 40
1.125
309
GRIDFORMAT_END
 95
       32
302
GRIDFORMAT
  1
GRIDFORMAT_BEGIN
 90
        0
 91
        1
 62
     0
 92
       -2
340
0
 93
        0
 40
1.125
309
GRIDFORMAT_END
309
TABLEFORMAT_END
  1
CELLSTYLE_BEGIN
 90
        1
 91
        1
300
_TITLE
309
CELLSTYLE_END
300
CELLSTYLE
  1
TABLEFORMAT_BEGIN
 90
        5
170
     1
 91
        0
 92
        0
 62
   257
 93
        1
300
CONTENTFORMAT
  1
CONTENTFORMAT_BEGIN
 90
        0
 91
        0
 92
      512
 93
        0
300

 40
0.0
140
1.0
 94
        5
 62
     0
340
11
144
4.5
309
CONTENTFORMAT_END
171
     1
301
MARGIN
  1
CELLMARGIN_BEGIN
 40
1.5
 40
1.5
 40
1.5
 40
1.5
 40
4.5
 40
4.5
309
CELLMARGIN_END
 94
        6
 95
        1
302
GRIDFORMAT
  1
GRIDFORMAT_BEGIN
 90
        0
 91
        1
 62
     0
 92
       -2
340
0
 93
        0
 40
1.125
309
GRIDFORMAT_END
 95
        2
302
GRIDFORMAT
  1
GRIDFORMAT_BEGIN
 90
        0
 91
        1
 62
     0
 92
       -2
340
0
 93
        0
 40
1.125
309
GRIDFORMAT_END
 95
        4
302
GRIDFORMAT
  1
GRIDFORMAT_BEGIN
 90
        0
 91
        1
 62
     0
 92
       -2
340
0
 93
        0
 40
1.125
309
GRIDFORMAT_END
 95
        8
302
GRIDFORMAT
  1
GRIDFORMAT_BEGIN
 90
        0
 91
        1
 62
     0
 92
       -2
340
0
 93
        0
 40
1.125
309
GRIDFORMAT_END
 95
       16
302
GRIDFORMAT
  1
GRIDFORMAT_BEGIN
 90
        0
 91
        1
 62
     0
 92
       -2
340
0
 93
        0
 40
1.125
309
GRIDFORMAT_END
 95
       32
302
GRIDFORMAT
  1
GRIDFORMAT_BEGIN
 90
        0
 91
        1
 62
     0
 92
       -2
340
0
 93
        0
 40
1.125
309
GRIDFORMAT_END
309
TABLEFORMAT_END
  1
CELLSTYLE_BEGIN
 90
        2
 91
        1
300
_HEADER
309
CELLSTYLE_END
300
CELLSTYLE
  1
TABLEFORMAT_BEGIN
 90
        5
170
     1
 91
        0
 92
        0
 62
   257
 93
        1
300
CONTENTFORMAT
  1
CONTENTFORMAT_BEGIN
 90
        0
 91
        0
 92
      512
 93
        0
300

 40
0.0
140
1.0
 94
        2
 62
     0
340
11
144
4.5
309
CONTENTFORMAT_END
171
     1
301
MARGIN
  1
CELLMARGIN_BEGIN
 40
1.5
 40
1.5
 40
1.5
 40
1.5
 40
4.5
 40
4.5
309
CELLMARGIN_END
 94
        6
 95
        1
302
GRIDFORMAT
  1
GRIDFORMAT_BEGIN
 90
        0
 91
        1
 62
     0
 92
       -2
340
0
 93
        0
 40
1.125
309
GRIDFORMAT_END
 95
        2
302
GRIDFORMAT
  1
GRIDFORMAT_BEGIN
 90
        0
 91
        1
 62
     0
 92
       -2
340
0
 93
        0
 40
1.125
309
GRIDFORMAT_END
 95
        4
302
GRIDFORMAT
  1
GRIDFORMAT_BEGIN
 90
        0
 91
        1
 62
     0
 92
       -2
340
0
 93
        0
 40
1.125
309
GRIDFORMAT_END
 95
        8
302
GRIDFORMAT
  1
GRIDFORMAT_BEGIN
 90
        0
 91
        1
 62
     0
 92
       -2
340
0
 93
        0
 40
1.125
309
GRIDFORMAT_END
 95
       16
302
GRIDFORMAT
  1
GRIDFORMAT_BEGIN
 90
        0
 91
        1
 62
     0
 92
       -2
340
0
 93
        0
 40
1.125
309
GRIDFORMAT_END
 95
       32
302
GRIDFORMAT
  1
GRIDFORMAT_BEGIN
 90
        0
 91
        1
 62
     0
 92
       -2
340
0
 93
        0
 40
1.125
309
GRIDFORMAT_END
309
TABLEFORMAT_END
  1
CELLSTYLE_BEGIN
 90
        3
 91
        2
300
_DATA
309
CELLSTYLE_END
  0
XRECORD
  5
660
102
{ACAD_REACTORS
330
481
102
}
330
481
100
AcDbXrecord
280
     1
102
ACAD_ROUNDTRIP_PRE2007_TABLESTYLE
 90
      512
 91
        0
  1

 92
      512
 93
        0
  2

 94
      512
 95
        0
  3

  0
XRECORD
  5
64B
102
{ACAD_REACTORS
330
64A
102
}
330
64A
100
AcDbXrecord
280
     1
102
RTVSPropertyOp0
 70
     1
102
RTVSPropertyOp1
 70
     1
102
RTVSPropertyOp2
 70
     1
102
RTVSPropertyOp3
 70
     1
102
RTVSPropertyOp4
 70
     1
102
RTVSPropertyOp5
 70
     1
102
RTVSPropertyOp6
 70
     1
102
RTVSPropertyOp7
 70
     1
102
RTVSPropertyOp8
 70
     1
102
RTVSPropertyOp9
 70
     1
102
RTVSPropertyOp10
 70
     1
102
RTVSPropertyOp11
 70
     1
102
RTVSPropertyOp12
 70
     1
102
RTVSPropertyOp13
 70
     1
102
RTVSPropertyOp14
 70
     1
102
RTVSPropertyOp15
 70
     1
102
RTVSPropertyOp16
 70
     1
102
RTVSPropertyOp17
 70
     1
102
RTVSPropertyOp18
 70
     1
102
RTVSPropertyOp19
 70
     1
102
RTVSPropertyOp20
 70
     1
102
RTVSPropertyOp21
 70
     1
102
RTVSPropertyOp22
 70
     1
102
RTVSPropertyOp23
 70
     1
102
RTVSPropertyOp24
 70
     1
102
RTVSPropertyOp25
 70
     1
102
RTVSPropertyOp26
 70
     1
102
RTVSPropertyOp27
 70
     1
  0
XRECORD
  5
64F
102
{ACAD_REACTORS
330
64E
102
}
330
64E
100
AcDbXrecord
280
     1
102
RTVSPropertyOp0
 70
     1
102
RTVSPropertyOp1
 70
     1
102
RTVSPropertyOp2
 70
     1
102
RTVSPropertyOp3
 70
     1
102
RTVSPropertyOp4
 70
     1
102
RTVSPropertyOp5
 70
     1
102
RTVSPropertyOp6
 70
     1
102
RTVSPropertyOp7
 70
     1
102
RTVSPropertyOp8
 70
     1
102
RTVSPropertyOp9
 70
     1
102
RTVSPropertyOp10
 70
     1
102
RTVSPropertyOp11
 70
     1
102
RTVSPropertyOp12
 70
     1
102
RTVSPropertyOp13
 70
     1
102
RTVSPropertyOp14
 70
     1
102
RTVSPropertyOp15
 70
     1
102
RTVSPropertyOp16
 70
     1
102
RTVSPropertyOp17
 70
     1
102
RTVSPropertyOp18
 70
     1
102
RTVSPropertyOp19
 70
     1
102
RTVSPropertyOp20
 70
     1
102
RTVSPropertyOp21
 70
     1
102
RTVSPropertyOp22
 70
     1
102
RTVSPropertyOp23
 70
     1
102
RTVSPropertyOp24
 70
     1
102
RTVSPropertyOp25
 70
     1
102
RTVSPropertyOp26
 70
     1
102
RTVSPropertyOp27
 70
     1
  0
XRECORD
  5
64D
102
{ACAD_REACTORS
330
64C
102
}
330
64C
100
AcDbXrecord
280
     1
102
RTVSPropertyOp0
 70
     1
102
RTVSPropertyOp1
 70
     1
102
RTVSPropertyOp2
 70
     1
102
RTVSPropertyOp3
 70
     1
102
RTVSPropertyOp4
 70
     1
102
RTVSPropertyOp5
 70
     1
102
RTVSPropertyOp6
 70
     1
102
RTVSPropertyOp7
 70
     1
102
RTVSPropertyOp8
 70
     1
102
RTVSPropertyOp9
 70
     1
102
RTVSPropertyOp10
 70
     1
102
RTVSPropertyOp11
 70
     1
102
RTVSPropertyOp12
 70
     1
102
RTVSPropertyOp13
 70
     1
102
RTVSPropertyOp14
 70
     1
102
RTVSPropertyOp15
 70
     1
102
RTVSPropertyOp16
 70
     1
102
RTVSPropertyOp17
 70
     1
102
RTVSPropertyOp18
 70
     1
102
RTVSPropertyOp19
 70
     1
102
RTVSPropertyOp20
 70
     1
102
RTVSPropertyOp21
 70
     1
102
RTVSPropertyOp22
 70
     1
102
RTVSPropertyOp23
 70
     1
102
RTVSPropertyOp24
 70
     1
102
RTVSPropertyOp25
 70
     1
102
RTVSPropertyOp26
 70
     1
102
RTVSPropertyOp27
 70
     1
  0
XRECORD
  5
649
102
{ACAD_REACTORS
330
648
102
}
330
648
100
AcDbXrecord
280
     1
102
RTVSPropertyOp0
 70
     1
102
RTVSPropertyOp1
 70
     1
102
RTVSPropertyOp2
 70
     1
102
RTVSPropertyOp3
 70
     1
102
RTVSPropertyOp4
 70
     1
102
RTVSPropertyOp5
 70
     1
102
RTVSPropertyOp6
 70
     1
102
RTVSPropertyOp7
 70
     1
102
RTVSPropertyOp8
 70
     1
102
RTVSPropertyOp9
 70
     1
102
RTVSPropertyOp10
 70
     1
102
RTVSPropertyOp11
 70
     1
102
RTVSPropertyOp12
 70
     1
102
RTVSPropertyOp13
 70
     1
102
RTVSPropertyOp14
 70
     1
102
RTVSPropertyOp15
 70
     1
102
RTVSPropertyOp16
 70
     1
102
RTVSPropertyOp17
 70
     1
102
RTVSPropertyOp18
 70
     1
102
RTVSPropertyOp19
 70
     1
102
RTVSPropertyOp20
 70
     1
102
RTVSPropertyOp21
 70
     1
102
RTVSPropertyOp22
 70
     1
102
RTVSPropertyOp23
 70
     1
102
RTVSPropertyOp24
 70
     1
102
RTVSPropertyOp25
 70
     1
102
RTVSPropertyOp26
 70
     1
102
RTVSPropertyOp27
 70
     1
  0
XRECORD
  5
657
102
{ACAD_REACTORS
330
656
102
}
330
656
100
AcDbXrecord
280
     1
102
RTVSPropertyOp0
 70
     1
102
RTVSPropertyOp1
 70
     1
102
RTVSPropertyOp2
 70
     1
102
RTVSPropertyOp3
 70
     1
102
RTVSPropertyOp4
 70
     1
102
RTVSPropertyOp5
 70
     1
102
RTVSPropertyOp6
 70
     1
102
RTVSPropertyOp7
 70
     1
102
RTVSPropertyOp8
 70
     1
102
RTVSPropertyOp9
 70
     1
102
RTVSPropertyOp10
 70
     1
102
RTVSPropertyOp11
 70
     1
102
RTVSPropertyOp12
 70
     1
102
RTVSPropertyOp13
 70
     1
102
RTVSPropertyOp14
 70
     1
102
RTVSPropertyOp15
 70
     1
102
RTVSPropertyOp16
 70
     1
102
RTVSPropertyOp17
 70
     1
102
RTVSPropertyOp18
 70
     1
102
RTVSPropertyOp19
 70
     1
102
RTVSPropertyOp20
 70
     1
102
RTVSPropertyOp21
 70
     1
102
RTVSPropertyOp22
 70
     1
102
RTVSPropertyOp23
 70
     1
102
RTVSPropertyOp24
 70
     1
102
RTVSPropertyOp25
 70
     1
102
RTVSPropertyOp26
 70
     1
102
RTVSPropertyOp27
 70
     1
  0
XRECORD
  5
65F
102
{ACAD_REACTORS
330
65E
102
}
330
65E
100
AcDbXrecord
280
     1
102
RTVSPropertyOp0
 70
     1
102
RTVSPropertyOp1
 70
     1
102
RTVSPropertyOp2
 70
     1
102
RTVSPropertyOp3
 70
     1
102
RTVSPropertyOp4
 70
     1
102
RTVSPropertyOp5
 70
     1
102
RTVSPropertyOp6
 70
     1
102
RTVSPropertyOp7
 70
     1
102
RTVSPropertyOp8
 70
     1
102
RTVSPropertyOp9
 70
     1
102
RTVSPropertyOp10
 70
     1
102
RTVSPropertyOp11
 70
     1
102
RTVSPropertyOp12
 70
     1
102
RTVSPropertyOp13
 70
     1
102
RTVSPropertyOp14
 70
     1
102
RTVSPropertyOp15
 70
     1
102
RTVSPropertyOp16
 70
     1
102
RTVSPropertyOp17
 70
     1
102
RTVSPropertyOp18
 70
     1
102
RTVSPropertyOp19
 70
     1
102
RTVSPropertyOp20
 70
     1
102
RTVSPropertyOp21
 70
     1
102
RTVSPropertyOp22
 70
     1
102
RTVSPropertyOp23
 70
     1
102
RTVSPropertyOp24
 70
     1
102
RTVSPropertyOp25
 70
     1
102
RTVSPropertyOp26
 70
     1
102
RTVSPropertyOp27
 70
     1
  0
XRECORD
  5
651
102
{ACAD_REACTORS
330
650
102
}
330
650
100
AcDbXrecord
280
     1
102
RTVSPropertyOp0
 70
     1
102
RTVSPropertyOp1
 70
     1
102
RTVSPropertyOp2
 70
     1
102
RTVSPropertyOp3
 70
     1
102
RTVSPropertyOp4
 70
     1
102
RTVSPropertyOp5
 70
     1
102
RTVSPropertyOp6
 70
     1
102
RTVSPropertyOp7
 70
     1
102
RTVSPropertyOp8
 70
     1
102
RTVSPropertyOp9
 70
     1
102
RTVSPropertyOp10
 70
     1
102
RTVSPropertyOp11
 70
     1
102
RTVSPropertyOp12
 70
     1
102
RTVSPropertyOp13
 70
     1
102
RTVSPropertyOp14
 70
     1
102
RTVSPropertyOp15
 70
     1
102
RTVSPropertyOp16
 70
     1
102
RTVSPropertyOp17
 70
     1
102
RTVSPropertyOp18
 70
     1
102
RTVSPropertyOp19
 70
     1
102
RTVSPropertyOp20
 70
     1
102
RTVSPropertyOp21
 70
     1
102
RTVSPropertyOp22
 70
     1
102
RTVSPropertyOp23
 70
     1
102
RTVSPropertyOp24
 70
     1
102
RTVSPropertyOp25
 70
     1
102
RTVSPropertyOp26
 70
     1
102
RTVSPropertyOp27
 70
     1
  0
XRECORD
  5
655
102
{ACAD_REACTORS
330
654
102
}
330
654
100
AcDbXrecord
280
     1
102
RTVSPropertyOp0
 70
     1
102
RTVSPropertyOp1
 70
     1
102
RTVSPropertyOp2
 70
     1
102
RTVSPropertyOp3
 70
     1
102
RTVSPropertyOp4
 70
     1
102
RTVSPropertyOp5
 70
     1
102
RTVSPropertyOp6
 70
     1
102
RTVSPropertyOp7
 70
     1
102
RTVSPropertyOp8
 70
     1
102
RTVSPropertyOp9
 70
     1
102
RTVSPropertyOp10
 70
     1
102
RTVSPropertyOp11
 70
     1
102
RTVSPropertyOp12
 70
     1
102
RTVSPropertyOp13
 70
     1
102
RTVSPropertyOp14
 70
     1
102
RTVSPropertyOp15
 70
     1
102
RTVSPropertyOp16
 70
     1
102
RTVSPropertyOp17
 70
     1
102
RTVSPropertyOp18
 70
     1
102
RTVSPropertyOp19
 70
     1
102
RTVSPropertyOp20
 70
     1
102
RTVSPropertyOp21
 70
     1
102
RTVSPropertyOp22
 70
     1
102
RTVSPropertyOp23
 70
     1
102
RTVSPropertyOp24
 70
     1
102
RTVSPropertyOp25
 70
     1
102
RTVSPropertyOp26
 70
     1
102
RTVSPropertyOp27
 70
     1
  0
XRECORD
  5
666
102
{ACAD_REACTORS
330
665
102
}
330
665
100
AcDbXrecord
280
     1
102
RTVSPropertyOp0
 70
     0
102
RTVSPropertyOp1
 70
     0
102
RTVSPropertyOp2
 70
     0
102
RTVSPropertyOp3
 70
     0
102
RTVSPropertyOp4
 70
     0
102
RTVSPropertyOp5
 70
     0
102
RTVSPropertyOp6
 70
     0
102
RTVSPropertyOp7
 70
     0
102
RTVSPropertyOp8
 70
     0
102
RTVSPropertyOp9
 70
     0
102
RTVSPropertyOp10
 70
     0
102
RTVSPropertyOp11
 70
     0
102
RTVSPropertyOp12
 70
     0
102
RTVSPropertyOp13
 70
     0
102
RTVSPropertyOp14
 70
     2
102
RTVSPropertyOp15
 70
     0
102
RTVSPropertyOp16
 70
     0
102
RTVSPropertyOp17
 70
     0
102
RTVSPropertyOp18
 70
     0
102
RTVSPropertyOp19
 70
     0
102
RTVSPropertyOp20
 70
     0
102
RTVSPropertyOp21
 70
     0
102
RTVSPropertyOp22
 70
     0
102
RTVSPropertyOp23
 70
     0
102
RTVSPropertyOp24
 70
     0
102
RTVSPropertyOp25
 70
     0
102
RTVSPropertyOp26
 70
     0
102
RTVSPropertyOp27
 70
     0
  0
XRECORD
  5
65D
102
{ACAD_REACTORS
330
65C
102
}
330
65C
100
AcDbXrecord
280
     1
102
RTVSPropertyOp0
 70
     1
102
RTVSPropertyOp1
 70
     1
102
RTVSPropertyOp2
 70
     1
102
RTVSPropertyOp3
 70
     1
102
RTVSPropertyOp4
 70
     1
102
RTVSPropertyOp5
 70
     1
102
RTVSPropertyOp6
 70
     1
102
RTVSPropertyOp7
 70
     1
102
RTVSPropertyOp8
 70
     1
102
RTVSPropertyOp9
 70
     1
102
RTVSPropertyOp10
 70
     1
102
RTVSPropertyOp11
 70
     1
102
RTVSPropertyOp12
 70
     1
102
RTVSPropertyOp13
 70
     1
102
RTVSPropertyOp14
 70
     1
102
RTVSPropertyOp15
 70
     1
102
RTVSPropertyOp16
 70
     1
102
RTVSPropertyOp17
 70
     1
102
RTVSPropertyOp18
 70
     1
102
RTVSPropertyOp19
 70
     1
102
RTVSPropertyOp20
 70
     1
102
RTVSPropertyOp21
 70
     1
102
RTVSPropertyOp22
 70
     1
102
RTVSPropertyOp23
 70
     1
102
RTVSPropertyOp24
 70
     1
102
RTVSPropertyOp25
 70
     1
102
RTVSPropertyOp26
 70
     1
102
RTVSPropertyOp27
 70
     1
  0
XRECORD
  5
641
102
{ACAD_REACTORS
330
640
102
}
330
640
100
AcDbXrecord
280
     1
102
RTVSPropertyOp0
 70
     1
102
RTVSPropertyOp1
 70
     1
102
RTVSPropertyOp2
 70
     1
102
RTVSPropertyOp3
 70
     1
102
RTVSPropertyOp4
 70
     1
102
RTVSPropertyOp5
 70
     1
102
RTVSPropertyOp6
 70
     1
102
RTVSPropertyOp7
 70
     1
102
RTVSPropertyOp8
 70
     1
102
RTVSPropertyOp9
 70
     1
102
RTVSPropertyOp10
 70
     1
102
RTVSPropertyOp11
 70
     1
102
RTVSPropertyOp12
 70
     1
102
RTVSPropertyOp13
 70
     1
102
RTVSPropertyOp14
 70
     1
102
RTVSPropertyOp15
 70
     1
102
RTVSPropertyOp16
 70
     1
102
RTVSPropertyOp17
 70
     1
102
RTVSPropertyOp18
 70
     1
102
RTVSPropertyOp19
 70
     1
102
RTVSPropertyOp20
 70
     1
102
RTVSPropertyOp21
 70
     1
102
RTVSPropertyOp22
 70
     1
102
RTVSPropertyOp23
 70
     1
102
RTVSPropertyOp24
 70
     1
102
RTVSPropertyOp25
 70
     1
102
RTVSPropertyOp26
 70
     1
102
RTVSPropertyOp27
 70
     1
  0
XRECORD
  5
643
102
{ACAD_REACTORS
330
642
102
}
330
642
100
AcDbXrecord
280
     1
102
RTVSPropertyOp0
 70
     1
102
RTVSPropertyOp1
 70
     1
102
RTVSPropertyOp2
 70
     1
102
RTVSPropertyOp3
 70
     1
102
RTVSPropertyOp4
 70
     1
102
RTVSPropertyOp5
 70
     1
102
RTVSPropertyOp6
 70
     1
102
RTVSPropertyOp7
 70
     1
102
RTVSPropertyOp8
 70
     1
102
RTVSPropertyOp9
 70
     1
102
RTVSPropertyOp10
 70
     1
102
RTVSPropertyOp11
 70
     1
102
RTVSPropertyOp12
 70
     1
102
RTVSPropertyOp13
 70
     1
102
RTVSPropertyOp14
 70
     1
102
RTVSPropertyOp15
 70
     1
102
RTVSPropertyOp16
 70
     1
102
RTVSPropertyOp17
 70
     1
102
RTVSPropertyOp18
 70
     1
102
RTVSPropertyOp19
 70
     1
102
RTVSPropertyOp20
 70
     1
102
RTVSPropertyOp21
 70
     1
102
RTVSPropertyOp22
 70
     1
102
RTVSPropertyOp23
 70
     1
102
RTVSPropertyOp24
 70
     1
102
RTVSPropertyOp25
 70
     1
102
RTVSPropertyOp26
 70
     1
102
RTVSPropertyOp27
 70
     1
  0
XRECORD
  5
645
102
{ACAD_REACTORS
330
644
102
}
330
644
100
AcDbXrecord
280
     1
102
RTVSPropertyOp0
 70
     1
102
RTVSPropertyOp1
 70
     1
102
RTVSPropertyOp2
 70
     1
102
RTVSPropertyOp3
 70
     1
102
RTVSPropertyOp4
 70
     1
102
RTVSPropertyOp5
 70
     1
102
RTVSPropertyOp6
 70
     1
102
RTVSPropertyOp7
 70
     1
102
RTVSPropertyOp8
 70
     1
102
RTVSPropertyOp9
 70
     1
102
RTVSPropertyOp10
 70
     1
102
RTVSPropertyOp11
 70
     1
102
RTVSPropertyOp12
 70
     1
102
RTVSPropertyOp13
 70
     1
102
RTVSPropertyOp14
 70
     1
102
RTVSPropertyOp15
 70
     1
102
RTVSPropertyOp16
 70
     1
102
RTVSPropertyOp17
 70
     1
102
RTVSPropertyOp18
 70
     1
102
RTVSPropertyOp19
 70
     1
102
RTVSPropertyOp20
 70
     1
102
RTVSPropertyOp21
 70
     1
102
RTVSPropertyOp22
 70
     1
102
RTVSPropertyOp23
 70
     1
102
RTVSPropertyOp24
 70
     1
102
RTVSPropertyOp25
 70
     1
102
RTVSPropertyOp26
 70
     1
102
RTVSPropertyOp27
 70
     1
  0
XRECORD
  5
647
102
{ACAD_REACTORS
330
646
102
}
330
646
100
AcDbXrecord
280
     1
102
RTVSPropertyOp0
 70
     1
102
RTVSPropertyOp1
 70
     1
102
RTVSPropertyOp2
 70
     1
102
RTVSPropertyOp3
 70
     1
102
RTVSPropertyOp4
 70
     1
102
RTVSPropertyOp5
 70
     1
102
RTVSPropertyOp6
 70
     1
102
RTVSPropertyOp7
 70
     1
102
RTVSPropertyOp8
 70
     1
102
RTVSPropertyOp9
 70
     1
102
RTVSPropertyOp10
 70
     1
102
RTVSPropertyOp11
 70
     1
102
RTVSPropertyOp12
 70
     1
102
RTVSPropertyOp13
 70
     1
102
RTVSPropertyOp14
 70
     1
102
RTVSPropertyOp15
 70
     1
102
RTVSPropertyOp16
 70
     1
102
RTVSPropertyOp17
 70
     1
102
RTVSPropertyOp18
 70
     1
102
RTVSPropertyOp19
 70
     1
102
RTVSPropertyOp20
 70
     1
102
RTVSPropertyOp21
 70
     1
102
RTVSPropertyOp22
 70
     1
102
RTVSPropertyOp23
 70
     1
102
RTVSPropertyOp24
 70
     1
102
RTVSPropertyOp25
 70
     1
102
RTVSPropertyOp26
 70
     1
102
RTVSPropertyOp27
 70
     1
  0
XRECORD
  5
662
102
{ACAD_REACTORS
330
661
102
}
330
661
100
AcDbXrecord
280
     1
102
RTVSPropertyOp0
 70
     0
102
RTVSPropertyOp1
 70
     0
102
RTVSPropertyOp2
 70
     0
102
RTVSPropertyOp3
 70
     0
102
RTVSPropertyOp4
 70
     0
102
RTVSPropertyOp5
 70
     0
102
RTVSPropertyOp6
 70
     0
102
RTVSPropertyOp7
 70
     0
102
RTVSPropertyOp8
 70
     0
102
RTVSPropertyOp9
 70
     0
102
RTVSPropertyOp10
 70
     0
102
RTVSPropertyOp11
 70
     0
102
RTVSPropertyOp12
 70
     0
102
RTVSPropertyOp13
 70
     0
102
RTVSPropertyOp14
 70
     2
102
RTVSPropertyOp15
 70
     0
102
RTVSPropertyOp16
 70
     0
102
RTVSPropertyOp17
 70
     0
102
RTVSPropertyOp18
 70
     0
102
RTVSPropertyOp19
 70
     0
102
RTVSPropertyOp20
 70
     0
102
RTVSPropertyOp21
 70
     0
102
RTVSPropertyOp22
 70
     0
102
RTVSPropertyOp23
 70
     0
102
RTVSPropertyOp24
 70
     0
102
RTVSPropertyOp25
 70
     0
102
RTVSPropertyOp26
 70
     0
102
RTVSPropertyOp27
 70
     0
  0
XRECORD
  5
65B
102
{ACAD_REACTORS
330
65A
102
}
330
65A
100
AcDbXrecord
280
     1
102
RTVSPropertyOp0
 70
     1
102
RTVSPropertyOp1
 70
     1
102
RTVSPropertyOp2
 70
     1
102
RTVSPropertyOp3
 70
     1
102
RTVSPropertyOp4
 70
     1
102
RTVSPropertyOp5
 70
     1
102
RTVSPropertyOp6
 70
     1
102
RTVSPropertyOp7
 70
     1
102
RTVSPropertyOp8
 70
     1
102
RTVSPropertyOp9
 70
     1
102
RTVSPropertyOp10
 70
     1
102
RTVSPropertyOp11
 70
     1
102
RTVSPropertyOp12
 70
     1
102
RTVSPropertyOp13
 70
     1
102
RTVSPropertyOp14
 70
     1
102
RTVSPropertyOp15
 70
     1
102
RTVSPropertyOp16
 70
     1
102
RTVSPropertyOp17
 70
     1
102
RTVSPropertyOp18
 70
     1
102
RTVSPropertyOp19
 70
     1
102
RTVSPropertyOp20
 70
     1
102
RTVSPropertyOp21
 70
     1
102
RTVSPropertyOp22
 70
     1
102
RTVSPropertyOp23
 70
     1
102
RTVSPropertyOp24
 70
     1
102
RTVSPropertyOp25
 70
     1
102
RTVSPropertyOp26
 70
     1
102
RTVSPropertyOp27
 70
     1
  0
XRECORD
  5
664
102
{ACAD_REACTORS
330
663
102
}
330
663
100
AcDbXrecord
280
     1
102
RTVSPropertyOp0
 70
     0
102
RTVSPropertyOp1
 70
     0
102
RTVSPropertyOp2
 70
     0
102
RTVSPropertyOp3
 70
     0
102
RTVSPropertyOp4
 70
     0
102
RTVSPropertyOp5
 70
     0
102
RTVSPropertyOp6
 70
     0
102
RTVSPropertyOp7
 70
     0
102
RTVSPropertyOp8
 70
     0
102
RTVSPropertyOp9
 70
     0
102
RTVSPropertyOp10
 70
     0
102
RTVSPropertyOp11
 70
     0
102
RTVSPropertyOp12
 70
     0
102
RTVSPropertyOp13
 70
     0
102
RTVSPropertyOp14
 70
     2
102
RTVSPropertyOp15
 70
     0
102
RTVSPropertyOp16
 70
     0
102
RTVSPropertyOp17
 70
     0
102
RTVSPropertyOp18
 70
     0
102
RTVSPropertyOp19
 70
     0
102
RTVSPropertyOp20
 70
     0
102
RTVSPropertyOp21
 70
     0
102
RTVSPropertyOp22
 70
     0
102
RTVSPropertyOp23
 70
     0
102
RTVSPropertyOp24
 70
     0
102
RTVSPropertyOp25
 70
     0
102
RTVSPropertyOp26
 70
     0
102
RTVSPropertyOp27
 70
     0
  0
XRECORD
  5
653
102
{ACAD_REACTORS
330
652
102
}
330
652
100
AcDbXrecord
280
     1
102
RTVSPropertyOp0
 70
     1
102
RTVSPropertyOp1
 70
     1
102
RTVSPropertyOp2
 70
     1
102
RTVSPropertyOp3
 70
     1
102
RTVSPropertyOp4
 70
     1
102
RTVSPropertyOp5
 70
     1
102
RTVSPropertyOp6
 70
     1
102
RTVSPropertyOp7
 70
     1
102
RTVSPropertyOp8
 70
     1
102
RTVSPropertyOp9
 70
     1
102
RTVSPropertyOp10
 70
     1
102
RTVSPropertyOp11
 70
     1
102
RTVSPropertyOp12
 70
     1
102
RTVSPropertyOp13
 70
     1
102
RTVSPropertyOp14
 70
     1
102
RTVSPropertyOp15
 70
     1
102
RTVSPropertyOp16
 70
     1
102
RTVSPropertyOp17
 70
     1
102
RTVSPropertyOp18
 70
     1
102
RTVSPropertyOp19
 70
     1
102
RTVSPropertyOp20
 70
     1
102
RTVSPropertyOp21
 70
     1
102
RTVSPropertyOp22
 70
     1
102
RTVSPropertyOp23
 70
     1
102
RTVSPropertyOp24
 70
     1
102
RTVSPropertyOp25
 70
     1
102
RTVSPropertyOp26
 70
     1
102
RTVSPropertyOp27
 70
     1
  0
XRECORD
  5
659
102
{ACAD_REACTORS
330
658
102
}
330
658
100
AcDbXrecord
280
     1
102
RTVSPropertyOp0
 70
     1
102
RTVSPropertyOp1
 70
     1
102
RTVSPropertyOp2
 70
     1
102
RTVSPropertyOp3
 70
     1
102
RTVSPropertyOp4
 70
     1
102
RTVSPropertyOp5
 70
     1
102
RTVSPropertyOp6
 70
     1
102
RTVSPropertyOp7
 70
     1
102
RTVSPropertyOp8
 70
     1
102
RTVSPropertyOp9
 70
     1
102
RTVSPropertyOp10
 70
     1
102
RTVSPropertyOp11
 70
     1
102
RTVSPropertyOp12
 70
     1
102
RTVSPropertyOp13
 70
     1
102
RTVSPropertyOp14
 70
     1
102
RTVSPropertyOp15
 70
     1
102
RTVSPropertyOp16
 70
     1
102
RTVSPropertyOp17
 70
     1
102
RTVSPropertyOp18
 70
     1
102
RTVSPropertyOp19
 70
     1
102
RTVSPropertyOp20
 70
     1
102
RTVSPropertyOp21
 70
     1
102
RTVSPropertyOp22
 70
     1
102
RTVSPropertyOp23
 70
     1
102
RTVSPropertyOp24
 70
     1
102
RTVSPropertyOp25
 70
     1
102
RTVSPropertyOp26
 70
     1
102
RTVSPropertyOp27
 70
     1
  0
ENDSEC
  0
EOF
