G04*
G04 #@! TF.GenerationSoftware,Altium Limited,Altium Designer,19.0.14 (431)*
G04*
G04 Layer_Color=32896*
%FSAX25Y25*%
%MOIN*%
G70*
G01*
G75*
%ADD11C,0.00394*%
%ADD15C,0.00787*%
%ADD17C,0.00591*%
%ADD110C,0.01575*%
%ADD138R,0.30000X0.12362*%
D11*
X0224055Y0133831D02*
X0227008D01*
D15*
X0256764Y0202329D02*
G03*
X0256771Y0202329I-0000779J-0039364D01*
G01*
X0127732Y0180071D02*
G03*
X0127732Y0180071I-0000177J0000000D01*
G01*
X0197538Y0180760D02*
Y0187098D01*
X0194447Y0184028D02*
X0200786D01*
X0194132Y0141547D02*
X0200471D01*
X0301888Y0120091D02*
X0305904Y0124106D01*
Y0125130D01*
X0273975Y0125484D02*
Y0125522D01*
X0276142Y0127689D01*
X0277872D01*
X0258345Y0111862D02*
X0278345D01*
X0258345D02*
Y0121862D01*
X0278345D01*
Y0111862D02*
Y0121862D01*
X0300156Y0111862D02*
Y0121862D01*
X0280156D02*
X0300156D01*
X0280156Y0111862D02*
Y0121862D01*
Y0111862D02*
X0300156D01*
X0108819Y0140201D02*
Y0175634D01*
X0124665D01*
X0108819Y0140201D02*
X0124665D01*
X0149610Y0175634D02*
X0154095D01*
X0149610Y0140201D02*
X0154095D01*
Y0172543D02*
Y0175634D01*
Y0140201D02*
Y0143291D01*
X0123622Y0194390D02*
Y0195177D01*
X0110236D02*
X0123622D01*
X0110236Y0194390D02*
Y0195177D01*
X0119685Y0182973D02*
X0123622D01*
Y0184154D01*
X0110236Y0182973D02*
X0110236Y0184154D01*
X0110236Y0182973D02*
X0114173D01*
X0228974Y0122256D02*
Y0123305D01*
Y0122781D01*
X0225825D01*
Y0122256D01*
Y0123305D01*
X0228974Y0126454D02*
Y0125405D01*
X0228449Y0124880D01*
X0226350D01*
X0225825Y0125405D01*
Y0126454D01*
X0226350Y0126979D01*
X0228449D01*
X0228974Y0126454D01*
X0228449Y0128028D02*
X0228974Y0128553D01*
Y0129603D01*
X0228449Y0130127D01*
X0227924D01*
X0227400Y0129603D01*
X0226875Y0130127D01*
X0226350D01*
X0225825Y0129603D01*
Y0128553D01*
X0226350Y0128028D01*
X0226875D01*
X0227400Y0128553D01*
X0227924Y0128028D01*
X0228449D01*
X0227400Y0128553D02*
Y0129603D01*
X0168175Y0123961D02*
X0168700Y0123436D01*
Y0122387D01*
X0168175Y0121862D01*
X0167650D01*
X0167125Y0122387D01*
Y0123436D01*
X0166601Y0123961D01*
X0166076D01*
X0165551Y0123436D01*
Y0122387D01*
X0166076Y0121862D01*
X0168700Y0125011D02*
X0165551D01*
X0166601Y0126060D01*
X0165551Y0127110D01*
X0168700D01*
X0168175Y0130258D02*
X0168700Y0129734D01*
Y0128684D01*
X0168175Y0128159D01*
X0166076D01*
X0165551Y0128684D01*
Y0129734D01*
X0166076Y0130258D01*
X0168700Y0131308D02*
X0165551D01*
Y0133407D01*
X0168700Y0134457D02*
X0165551D01*
X0166601D01*
X0168700Y0136556D01*
X0167125Y0134981D01*
X0165551Y0136556D01*
X0157899Y0123764D02*
X0158424Y0123240D01*
Y0122190D01*
X0157899Y0121665D01*
X0157375D01*
X0156850Y0122190D01*
Y0123240D01*
X0156325Y0123764D01*
X0155800D01*
X0155276Y0123240D01*
Y0122190D01*
X0155800Y0121665D01*
X0158424Y0124814D02*
X0155276D01*
X0156325Y0125864D01*
X0155276Y0126913D01*
X0158424D01*
Y0127963D02*
X0155276D01*
Y0129537D01*
X0155800Y0130062D01*
X0157899D01*
X0158424Y0129537D01*
Y0127963D01*
Y0131111D02*
Y0132161D01*
Y0131636D01*
X0155276D01*
Y0131111D01*
Y0132161D01*
X0158424Y0135309D02*
Y0134260D01*
X0157899Y0133735D01*
X0155800D01*
X0155276Y0134260D01*
Y0135309D01*
X0155800Y0135834D01*
X0157899D01*
X0158424Y0135309D01*
X0182556Y0122768D02*
Y0123817D01*
Y0123293D01*
X0179408D01*
Y0122768D01*
Y0123817D01*
X0182556Y0126966D02*
Y0125916D01*
X0182032Y0125392D01*
X0179933D01*
X0179408Y0125916D01*
Y0126966D01*
X0179933Y0127491D01*
X0182032D01*
X0182556Y0126966D01*
X0179408Y0128540D02*
Y0129590D01*
Y0129065D01*
X0182556D01*
X0182032Y0128540D01*
X0179408Y0131164D02*
Y0132213D01*
Y0131689D01*
X0182556D01*
X0182032Y0131164D01*
X0192793Y0122925D02*
Y0123975D01*
Y0123450D01*
X0189644D01*
Y0122925D01*
Y0123975D01*
X0192793Y0127123D02*
Y0126074D01*
X0192268Y0125549D01*
X0190169D01*
X0189644Y0126074D01*
Y0127123D01*
X0190169Y0127648D01*
X0192268D01*
X0192793Y0127123D01*
X0189644Y0128698D02*
Y0129747D01*
Y0129222D01*
X0192793D01*
X0192268Y0128698D01*
Y0131322D02*
X0192793Y0131846D01*
Y0132896D01*
X0192268Y0133421D01*
X0190169D01*
X0189644Y0132896D01*
Y0131846D01*
X0190169Y0131322D01*
X0192268D01*
X0200589Y0122610D02*
Y0124709D01*
X0201638Y0123660D02*
X0199539D01*
X0202163Y0127858D02*
Y0125759D01*
X0200589D01*
X0201113Y0126808D01*
Y0127333D01*
X0200589Y0127858D01*
X0199539D01*
X0199014Y0127333D01*
Y0126284D01*
X0199539Y0125759D01*
X0202163Y0128907D02*
X0200064D01*
X0199014Y0129957D01*
X0200064Y0131007D01*
X0202163D01*
X0212662Y0124788D02*
X0213187Y0124263D01*
Y0123214D01*
X0212662Y0122689D01*
X0210563D01*
X0210038Y0123214D01*
Y0124263D01*
X0210563Y0124788D01*
X0211612D01*
Y0123739D01*
X0210038Y0125838D02*
X0213187D01*
X0210038Y0127937D01*
X0213187D01*
Y0128986D02*
X0210038D01*
Y0130561D01*
X0210563Y0131085D01*
X0212662D01*
X0213187Y0130561D01*
Y0128986D01*
X0221021Y0122689D02*
Y0123739D01*
Y0123214D01*
X0217873D01*
Y0122689D01*
Y0123739D01*
X0221021Y0126887D02*
Y0125838D01*
X0220496Y0125313D01*
X0218397D01*
X0217873Y0125838D01*
Y0126887D01*
X0218397Y0127412D01*
X0220496D01*
X0221021Y0126887D01*
X0218397Y0128461D02*
X0217873Y0128986D01*
Y0130036D01*
X0218397Y0130561D01*
X0220496D01*
X0221021Y0130036D01*
Y0128986D01*
X0220496Y0128461D01*
X0219972D01*
X0219447Y0128986D01*
Y0130561D01*
X0237819Y0120287D02*
X0238344Y0120812D01*
Y0121862D01*
X0237819Y0122387D01*
X0237294D01*
X0236770Y0121862D01*
Y0121337D01*
Y0121862D01*
X0236245Y0122387D01*
X0235720D01*
X0235195Y0121862D01*
Y0120812D01*
X0235720Y0120287D01*
X0238344Y0123436D02*
X0236245D01*
X0235195Y0124486D01*
X0236245Y0125535D01*
X0238344D01*
X0237819Y0126585D02*
X0238344Y0127109D01*
Y0128159D01*
X0237819Y0128684D01*
X0237294D01*
X0236770Y0128159D01*
Y0127634D01*
Y0128159D01*
X0236245Y0128684D01*
X0235720D01*
X0235195Y0128159D01*
Y0127109D01*
X0235720Y0126585D01*
X0247440Y0124105D02*
X0248489D01*
X0249014Y0123581D01*
Y0121482D01*
X0248489Y0120957D01*
X0247440D01*
X0246915Y0121482D01*
Y0123581D01*
X0247440Y0124105D01*
X0245866D02*
Y0121482D01*
X0245341Y0120957D01*
X0244291D01*
X0243767Y0121482D01*
Y0124105D01*
X0242717D02*
X0240618D01*
X0241668D01*
Y0120957D01*
X0274251Y0124066D02*
X0271627D01*
X0272939Y0125378D02*
Y0122754D01*
X0264920Y0123397D02*
X0262296D01*
X0296101Y0124302D02*
X0293477D01*
X0294789Y0125614D02*
Y0122991D01*
X0287046Y0124381D02*
X0284422D01*
X0288975Y0130325D02*
Y0126390D01*
X0287007D01*
X0286351Y0127046D01*
Y0127702D01*
X0287007Y0128358D01*
X0288975D01*
X0287007D01*
X0286351Y0129014D01*
Y0129670D01*
X0287007Y0130325D01*
X0288975D01*
X0285039Y0126390D02*
Y0129014D01*
X0283727Y0130325D01*
X0282415Y0129014D01*
Y0126390D01*
Y0128358D01*
X0285039D01*
X0281103Y0130325D02*
X0278480D01*
X0279791D01*
Y0126390D01*
X0308241Y0129748D02*
X0308897Y0130404D01*
X0310209D01*
X0310865Y0129748D01*
Y0129092D01*
X0310209Y0128436D01*
X0308897D01*
X0308241Y0127780D01*
Y0127125D01*
X0308897Y0126469D01*
X0310209D01*
X0310865Y0127125D01*
X0304961Y0130404D02*
X0306273D01*
X0306929Y0129748D01*
Y0127125D01*
X0306273Y0126469D01*
X0304961D01*
X0304305Y0127125D01*
Y0129748D01*
X0304961Y0130404D01*
X0302993D02*
Y0126469D01*
X0300369D01*
X0299057D02*
Y0129092D01*
X0297745Y0130404D01*
X0296434Y0129092D01*
Y0126469D01*
Y0128436D01*
X0299057D01*
X0295122Y0126469D02*
Y0130404D01*
X0293154D01*
X0292498Y0129748D01*
Y0128436D01*
X0293154Y0127780D01*
X0295122D01*
X0293810D02*
X0292498Y0126469D01*
X0325378Y0117861D02*
Y0114581D01*
X0324722Y0113925D01*
X0323410D01*
X0322754Y0114581D01*
Y0117861D01*
X0318818Y0117205D02*
X0319474Y0117861D01*
X0320786D01*
X0321442Y0117205D01*
Y0116549D01*
X0320786Y0115893D01*
X0319474D01*
X0318818Y0115237D01*
Y0114581D01*
X0319474Y0113925D01*
X0320786D01*
X0321442Y0114581D01*
X0317507Y0117861D02*
Y0113925D01*
X0315539D01*
X0314883Y0114581D01*
Y0115237D01*
X0315539Y0115893D01*
X0317507D01*
X0315539D01*
X0314883Y0116549D01*
Y0117205D01*
X0315539Y0117861D01*
X0317507D01*
X0350394Y0183726D02*
X0349869Y0184251D01*
X0348820D01*
X0348295Y0183726D01*
Y0183202D01*
X0348820Y0182677D01*
X0349344D01*
X0348820D01*
X0348295Y0182152D01*
Y0181627D01*
X0348820Y0181103D01*
X0349869D01*
X0350394Y0181627D01*
X0347245Y0184251D02*
Y0182152D01*
X0346196Y0181103D01*
X0345146Y0182152D01*
Y0184251D01*
X0344097Y0183726D02*
X0343572Y0184251D01*
X0342522D01*
X0341998Y0183726D01*
Y0183202D01*
X0342522Y0182677D01*
X0343047D01*
X0342522D01*
X0341998Y0182152D01*
Y0181627D01*
X0342522Y0181103D01*
X0343572D01*
X0344097Y0181627D01*
X0347939Y0174289D02*
X0348464Y0174814D01*
X0349513D01*
X0350038Y0174289D01*
Y0173764D01*
X0349513Y0173240D01*
X0348464D01*
X0347939Y0172715D01*
Y0172190D01*
X0348464Y0171665D01*
X0349513D01*
X0350038Y0172190D01*
X0346889Y0174814D02*
Y0171665D01*
X0345315D01*
X0344790Y0172190D01*
Y0174289D01*
X0345315Y0174814D01*
X0346889D01*
X0343741Y0171665D02*
Y0173764D01*
X0342691Y0174814D01*
X0341642Y0173764D01*
Y0171665D01*
Y0173240D01*
X0343741D01*
X0348490Y0165116D02*
X0349015Y0165641D01*
X0350064D01*
X0350589Y0165116D01*
Y0164591D01*
X0350064Y0164066D01*
X0349015D01*
X0348490Y0163542D01*
Y0163017D01*
X0349015Y0162492D01*
X0350064D01*
X0350589Y0163017D01*
X0345341Y0165116D02*
X0345866Y0165641D01*
X0346916D01*
X0347441Y0165116D01*
Y0163017D01*
X0346916Y0162492D01*
X0345866D01*
X0345341Y0163017D01*
X0344292Y0165641D02*
Y0162492D01*
X0342193D01*
X0348569Y0153974D02*
X0349094Y0154499D01*
X0350143D01*
X0350668Y0153974D01*
Y0151875D01*
X0350143Y0151350D01*
X0349094D01*
X0348569Y0151875D01*
Y0152925D01*
X0349618D01*
X0347519Y0151350D02*
Y0154499D01*
X0345420Y0151350D01*
Y0154499D01*
X0344371D02*
Y0151350D01*
X0342796D01*
X0342272Y0151875D01*
Y0153974D01*
X0342796Y0154499D01*
X0344371D01*
X0145866Y0122256D02*
X0149015D01*
Y0123830D01*
X0148490Y0124355D01*
X0147441D01*
X0146916Y0123830D01*
Y0122256D01*
Y0123305D02*
X0145866Y0124355D01*
X0148490Y0127504D02*
X0149015Y0126979D01*
Y0125929D01*
X0148490Y0125405D01*
X0147965D01*
X0147441Y0125929D01*
Y0126979D01*
X0146916Y0127504D01*
X0146391D01*
X0145866Y0126979D01*
Y0125929D01*
X0146391Y0125405D01*
X0149015Y0128553D02*
Y0130652D01*
Y0129603D01*
X0145866D01*
D17*
X0214620Y0152150D02*
X0215276Y0152806D01*
X0216588D01*
X0217244Y0152150D01*
Y0149526D01*
X0216588Y0148870D01*
X0215276D01*
X0214620Y0149526D01*
X0211340Y0152806D02*
X0212652D01*
X0213308Y0152150D01*
Y0149526D01*
X0212652Y0148870D01*
X0211340D01*
X0210684Y0149526D01*
Y0152150D01*
X0211340Y0152806D01*
X0209373Y0148870D02*
Y0152806D01*
X0206749Y0148870D01*
Y0152806D01*
X0205437Y0152150D02*
X0204781Y0152806D01*
X0203469D01*
X0202813Y0152150D01*
Y0151494D01*
X0203469Y0150838D01*
X0204125D01*
X0203469D01*
X0202813Y0150182D01*
Y0149526D01*
X0203469Y0148870D01*
X0204781D01*
X0205437Y0149526D01*
X0153504Y0179657D02*
Y0177361D01*
X0153045Y0176902D01*
X0152126D01*
X0151667Y0177361D01*
Y0179657D01*
X0149371Y0176902D02*
Y0179657D01*
X0150749Y0178279D01*
X0148912D01*
X0117650Y0199119D02*
X0118109Y0199578D01*
X0119027D01*
X0119487Y0199119D01*
Y0197282D01*
X0119027Y0196823D01*
X0118109D01*
X0117650Y0197282D01*
X0115354Y0199578D02*
X0116272D01*
X0116732Y0199119D01*
Y0197282D01*
X0116272Y0196823D01*
X0115354D01*
X0114895Y0197282D01*
Y0199119D01*
X0115354Y0199578D01*
X0113977Y0196823D02*
Y0199578D01*
X0112140Y0196823D01*
Y0199578D01*
X0109844Y0196823D02*
Y0199578D01*
X0111222Y0198200D01*
X0109385D01*
D110*
X0327794Y0190957D02*
Y0198828D01*
X0323858D01*
X0322546Y0197516D01*
Y0194892D01*
X0323858Y0193580D01*
X0327794D01*
X0319922Y0190957D02*
X0317299D01*
X0318610D01*
Y0196204D01*
X0319922D01*
X0313363Y0190957D02*
Y0198828D01*
X0309427D01*
X0308115Y0197516D01*
Y0194892D01*
X0309427Y0193580D01*
X0313363D01*
X0310739D02*
X0308115Y0190957D01*
X0305491D02*
Y0196204D01*
X0302867Y0198828D01*
X0300244Y0196204D01*
Y0190957D01*
Y0194892D01*
X0305491D01*
X0328817Y0173291D02*
X0326194Y0168043D01*
X0323570Y0173291D01*
X0315698Y0168043D02*
X0320946D01*
X0315698Y0173291D01*
Y0174603D01*
X0317010Y0175915D01*
X0319634D01*
X0320946Y0174603D01*
X0313074Y0166731D02*
X0307827D01*
X0305203Y0168043D02*
X0302579D01*
X0303891D01*
Y0175915D01*
X0305203Y0174603D01*
X0206024Y0168752D02*
Y0176623D01*
X0200776Y0168752D01*
Y0176623D01*
X0196840Y0168752D02*
X0194216D01*
X0192904Y0170064D01*
Y0172688D01*
X0194216Y0174000D01*
X0196840D01*
X0198152Y0172688D01*
Y0170064D01*
X0196840Y0168752D01*
X0190281D02*
Y0170064D01*
X0188969D01*
Y0168752D01*
X0190281D01*
X0218425Y0190760D02*
X0214490D01*
X0216457D01*
Y0198631D01*
X0218425D01*
X0208586D02*
Y0190760D01*
Y0194696D01*
X0206618Y0196663D01*
X0204650Y0198631D01*
X0202682D01*
X0196779Y0190760D02*
Y0198631D01*
X0190875D01*
X0188907Y0196663D01*
Y0190760D01*
X0183004Y0198631D02*
X0179068D01*
X0177100Y0196663D01*
Y0190760D01*
X0183004D01*
X0184971Y0192728D01*
X0183004Y0194696D01*
X0177100D01*
X0173164Y0190760D02*
X0167261D01*
X0165293Y0192728D01*
X0167261Y0194696D01*
X0171196D01*
X0173164Y0196663D01*
X0171196Y0198631D01*
X0165293D01*
X0161357Y0190760D02*
Y0192728D01*
X0159389D01*
Y0190760D01*
X0161357D01*
X0145614D02*
X0149550D01*
X0151518Y0192728D01*
Y0196663D01*
X0149550Y0198631D01*
X0145614D01*
X0143646Y0196663D01*
Y0194696D01*
X0151518D01*
X0139710Y0198631D02*
Y0192728D01*
X0137743Y0190760D01*
X0131839D01*
Y0198631D01*
X0202009Y0163868D02*
X0202993Y0164852D01*
X0204961D01*
X0205945Y0163868D01*
Y0159933D01*
X0204961Y0158949D01*
X0202993D01*
X0202009Y0159933D01*
X0196106Y0164852D02*
X0200041D01*
Y0158949D01*
X0196106D01*
X0200041Y0161901D02*
X0198073D01*
X0194138Y0158949D02*
Y0164852D01*
X0191186D01*
X0190202Y0163868D01*
Y0161901D01*
X0191186Y0160917D01*
X0194138D01*
X0192170D02*
X0190202Y0158949D01*
X0188234D02*
Y0164852D01*
X0184298Y0158949D01*
Y0164852D01*
X0173475D02*
X0175443D01*
X0176427Y0163868D01*
Y0159933D01*
X0175443Y0158949D01*
X0173475D01*
X0172491Y0159933D01*
Y0163868D01*
X0173475Y0164852D01*
X0170523D02*
Y0158949D01*
Y0161901D01*
X0166588D01*
Y0164852D01*
Y0158949D01*
X0164620Y0164852D02*
Y0158949D01*
X0160684D01*
X0325105Y0185587D02*
X0326417Y0186899D01*
X0329041D01*
X0330353Y0185587D01*
Y0184275D01*
X0329041Y0182963D01*
X0326417D01*
X0325105Y0181651D01*
Y0180340D01*
X0326417Y0179028D01*
X0329041D01*
X0330353Y0180340D01*
X0322481Y0179028D02*
Y0184275D01*
X0321169D01*
X0319858Y0182963D01*
Y0179028D01*
Y0182963D01*
X0318546Y0184275D01*
X0317234Y0182963D01*
Y0179028D01*
X0313298Y0184275D02*
X0310674D01*
X0309362Y0182963D01*
Y0179028D01*
X0313298D01*
X0314610Y0180340D01*
X0313298Y0181651D01*
X0309362D01*
X0306738Y0184275D02*
Y0179028D01*
Y0181651D01*
X0305427Y0182963D01*
X0304115Y0184275D01*
X0302803D01*
X0297555Y0185587D02*
Y0184275D01*
X0298867D01*
X0296243D01*
X0297555D01*
Y0180340D01*
X0296243Y0179028D01*
D138*
X0172597Y0172295D02*
D03*
M02*
