G04 Layer_Color=32896*
%FSAX25Y25*%
%MOIN*%
G70*
G01*
G75*
%ADD46C,0.02362*%
%ADD53C,0.02756*%
%ADD66C,0.00787*%
%ADD114C,0.01575*%
%ADD115R,0.41339X0.13583*%
D46*
X0281221Y0139697D02*
G03*
X0281221Y0139697I-0001181J0000000D01*
G01*
D53*
X0265711D02*
G03*
X0265711Y0139697I-0001419J0000000D01*
G01*
D66*
X0354055Y0183004D02*
Y0186941D01*
X0352874Y0183004D02*
X0354055D01*
X0352874Y0196390D02*
X0354055D01*
Y0192453D02*
Y0196390D01*
X0341850Y0183004D02*
X0342638D01*
X0341850D02*
Y0196390D01*
X0342638D01*
X0271378Y0135760D02*
X0334370D01*
X0271378Y0198752D02*
X0334370Y0198752D01*
X0334173Y0203279D02*
Y0200983D01*
X0333714Y0200524D01*
X0332796D01*
X0332337Y0200983D01*
Y0203279D01*
X0330041Y0200524D02*
Y0203279D01*
X0331418Y0201901D01*
X0329581D01*
X0351037Y0180378D02*
X0351497Y0180838D01*
X0352415D01*
X0352874Y0180378D01*
Y0178542D01*
X0352415Y0178083D01*
X0351497D01*
X0351037Y0178542D01*
X0348742Y0180838D02*
X0349660D01*
X0350119Y0180378D01*
Y0178542D01*
X0349660Y0178083D01*
X0348742D01*
X0348282Y0178542D01*
Y0180378D01*
X0348742Y0180838D01*
X0347364Y0178083D02*
Y0180838D01*
X0345527Y0178083D01*
Y0180838D01*
X0344609Y0180378D02*
X0344150Y0180838D01*
X0343231D01*
X0342772Y0180378D01*
Y0179919D01*
X0343231Y0179460D01*
X0343691D01*
X0343231D01*
X0342772Y0179001D01*
Y0178542D01*
X0343231Y0178083D01*
X0344150D01*
X0344609Y0178542D01*
X0348216Y0172636D02*
X0348741Y0173160D01*
X0349790D01*
X0350315Y0172636D01*
Y0170537D01*
X0349790Y0170012D01*
X0348741D01*
X0348216Y0170537D01*
Y0171586D01*
X0349265D01*
X0347166Y0170012D02*
Y0173160D01*
X0345067Y0170012D01*
Y0173160D01*
X0344018D02*
Y0170012D01*
X0342443D01*
X0341919Y0170537D01*
Y0172636D01*
X0342443Y0173160D01*
X0344018D01*
X0348413Y0162990D02*
X0348938Y0163515D01*
X0349987D01*
X0350512Y0162990D01*
Y0162465D01*
X0349987Y0161940D01*
X0348938D01*
X0348413Y0161416D01*
Y0160891D01*
X0348938Y0160366D01*
X0349987D01*
X0350512Y0160891D01*
X0345264Y0162990D02*
X0345789Y0163515D01*
X0346838D01*
X0347363Y0162990D01*
Y0160891D01*
X0346838Y0160366D01*
X0345789D01*
X0345264Y0160891D01*
X0344215Y0163515D02*
Y0160366D01*
X0342116D01*
X0348216Y0152951D02*
X0348741Y0153475D01*
X0349790D01*
X0350315Y0152951D01*
Y0152426D01*
X0349790Y0151901D01*
X0348741D01*
X0348216Y0151376D01*
Y0150852D01*
X0348741Y0150327D01*
X0349790D01*
X0350315Y0150852D01*
X0347166Y0153475D02*
Y0150327D01*
X0345592D01*
X0345067Y0150852D01*
Y0152951D01*
X0345592Y0153475D01*
X0347166D01*
X0344018Y0150327D02*
Y0152426D01*
X0342968Y0153475D01*
X0341919Y0152426D01*
Y0150327D01*
Y0151901D01*
X0344018D01*
X0350512Y0142714D02*
X0349987Y0143239D01*
X0348938D01*
X0348413Y0142714D01*
Y0142190D01*
X0348938Y0141665D01*
X0349462D01*
X0348938D01*
X0348413Y0141140D01*
Y0140615D01*
X0348938Y0140091D01*
X0349987D01*
X0350512Y0140615D01*
X0347363Y0143239D02*
Y0141140D01*
X0346314Y0140091D01*
X0345264Y0141140D01*
Y0143239D01*
X0344215Y0142714D02*
X0343690Y0143239D01*
X0342640D01*
X0342116Y0142714D01*
Y0142190D01*
X0342640Y0141665D01*
X0343165D01*
X0342640D01*
X0342116Y0141140D01*
Y0140615D01*
X0342640Y0140091D01*
X0343690D01*
X0344215Y0140615D01*
X0325378Y0117861D02*
Y0114581D01*
X0324722Y0113925D01*
X0323410D01*
X0322754Y0114581D01*
Y0117861D01*
X0318818Y0117205D02*
X0319474Y0117861D01*
X0320786D01*
X0321442Y0117205D01*
Y0116549D01*
X0320786Y0115893D01*
X0319474D01*
X0318818Y0115237D01*
Y0114581D01*
X0319474Y0113925D01*
X0320786D01*
X0321442Y0114581D01*
X0317507Y0117861D02*
Y0113925D01*
X0315539D01*
X0314883Y0114581D01*
Y0115237D01*
X0315539Y0115893D01*
X0317507D01*
X0315539D01*
X0314883Y0116549D01*
Y0117205D01*
X0315539Y0117861D01*
X0317507D01*
X0294254Y0129705D02*
X0294910Y0130361D01*
X0296222D01*
X0296878Y0129705D01*
Y0129049D01*
X0296222Y0128393D01*
X0294910D01*
X0294254Y0127737D01*
Y0127081D01*
X0294910Y0126425D01*
X0296222D01*
X0296878Y0127081D01*
X0290974Y0130361D02*
X0292286D01*
X0292942Y0129705D01*
Y0127081D01*
X0292286Y0126425D01*
X0290974D01*
X0290318Y0127081D01*
Y0129705D01*
X0290974Y0130361D01*
X0289006D02*
Y0126425D01*
X0286383D01*
X0285071D02*
Y0129049D01*
X0283759Y0130361D01*
X0282447Y0129049D01*
Y0126425D01*
Y0128393D01*
X0285071D01*
X0281135Y0126425D02*
Y0130361D01*
X0279167D01*
X0278511Y0129705D01*
Y0128393D01*
X0279167Y0127737D01*
X0281135D01*
X0279823D02*
X0278511Y0126425D01*
X0271878Y0130361D02*
Y0126425D01*
X0269910D01*
X0269254Y0127081D01*
Y0127737D01*
X0269910Y0128393D01*
X0271878D01*
X0269910D01*
X0269254Y0129049D01*
Y0129705D01*
X0269910Y0130361D01*
X0271878D01*
X0267942Y0126425D02*
Y0129049D01*
X0266630Y0130361D01*
X0265318Y0129049D01*
Y0126425D01*
Y0128393D01*
X0267942D01*
X0264006Y0130361D02*
X0261383D01*
X0262695D01*
Y0126425D01*
X0287126Y0123358D02*
X0284502D01*
X0296181D02*
X0293557D01*
X0294869Y0124670D02*
Y0122046D01*
X0264685Y0123161D02*
X0262061D01*
X0274331D02*
X0271707D01*
X0273019Y0124473D02*
Y0121849D01*
X0254804Y0127574D02*
X0255853D01*
X0256378Y0127049D01*
Y0124950D01*
X0255853Y0124425D01*
X0254804D01*
X0254279Y0124950D01*
Y0127049D01*
X0254804Y0127574D01*
X0253229D02*
Y0124950D01*
X0252705Y0124425D01*
X0251655D01*
X0251130Y0124950D01*
Y0127574D01*
X0250081D02*
X0247982D01*
X0249031D01*
Y0124425D01*
X0245878Y0127049D02*
X0245353Y0127574D01*
X0244304D01*
X0243779Y0127049D01*
Y0126524D01*
X0244304Y0125999D01*
X0244828D01*
X0244304D01*
X0243779Y0125475D01*
Y0124950D01*
X0244304Y0124425D01*
X0245353D01*
X0245878Y0124950D01*
X0242729Y0127574D02*
Y0125475D01*
X0241680Y0124425D01*
X0240630Y0125475D01*
Y0127574D01*
X0239581Y0127049D02*
X0239056Y0127574D01*
X0238006D01*
X0237482Y0127049D01*
Y0126524D01*
X0238006Y0125999D01*
X0238531D01*
X0238006D01*
X0237482Y0125475D01*
Y0124950D01*
X0238006Y0124425D01*
X0239056D01*
X0239581Y0124950D01*
X0234378Y0127574D02*
X0232279D01*
X0233328D01*
Y0124425D01*
X0231229Y0127574D02*
X0229130Y0124425D01*
Y0127574D02*
X0231229Y0124425D01*
X0224878D02*
Y0127574D01*
X0223304D01*
X0222779Y0127049D01*
Y0125999D01*
X0223304Y0125475D01*
X0224878D01*
X0223828D02*
X0222779Y0124425D01*
X0221729Y0127574D02*
X0219630Y0124425D01*
Y0127574D02*
X0221729Y0124425D01*
X0214779Y0127049D02*
X0215304Y0127574D01*
X0216353D01*
X0216878Y0127049D01*
Y0124950D01*
X0216353Y0124425D01*
X0215304D01*
X0214779Y0124950D01*
Y0125999D01*
X0215828D01*
X0213729Y0124425D02*
Y0127574D01*
X0211630Y0124425D01*
Y0127574D01*
X0210581D02*
Y0124425D01*
X0209007D01*
X0208482Y0124950D01*
Y0127049D01*
X0209007Y0127574D01*
X0210581D01*
X0206878Y0125999D02*
X0204779D01*
X0205828Y0127049D02*
Y0124950D01*
X0201630Y0127574D02*
X0203729D01*
Y0125999D01*
X0202680Y0126524D01*
X0202155D01*
X0201630Y0125999D01*
Y0124950D01*
X0202155Y0124425D01*
X0203205D01*
X0203729Y0124950D01*
X0200581Y0127574D02*
Y0125475D01*
X0199531Y0124425D01*
X0198482Y0125475D01*
Y0127574D01*
X0195878D02*
X0194828D01*
X0195353D01*
Y0124425D01*
X0195878D01*
X0194828D01*
X0191680Y0127574D02*
X0192729D01*
X0193254Y0127049D01*
Y0124950D01*
X0192729Y0124425D01*
X0191680D01*
X0191155Y0124950D01*
Y0127049D01*
X0191680Y0127574D01*
X0188006D02*
X0189056Y0127049D01*
X0190105Y0125999D01*
Y0124950D01*
X0189581Y0124425D01*
X0188531D01*
X0188006Y0124950D01*
Y0125475D01*
X0188531Y0125999D01*
X0190105D01*
X0184878Y0127574D02*
X0183828D01*
X0184353D01*
Y0124425D01*
X0184878D01*
X0183828D01*
X0180680Y0127574D02*
X0181729D01*
X0182254Y0127049D01*
Y0124950D01*
X0181729Y0124425D01*
X0180680D01*
X0180155Y0124950D01*
Y0127049D01*
X0180680Y0127574D01*
X0177006D02*
X0179105D01*
Y0125999D01*
X0178056Y0126524D01*
X0177531D01*
X0177006Y0125999D01*
Y0124950D01*
X0177531Y0124425D01*
X0178581D01*
X0179105Y0124950D01*
X0172279Y0127049D02*
X0172804Y0127574D01*
X0173853D01*
X0174378Y0127049D01*
Y0126524D01*
X0173853Y0125999D01*
X0172804D01*
X0172279Y0125475D01*
Y0124950D01*
X0172804Y0124425D01*
X0173853D01*
X0174378Y0124950D01*
X0171229Y0127574D02*
Y0124425D01*
X0170180Y0125475D01*
X0169130Y0124425D01*
Y0127574D01*
X0168081D02*
Y0124425D01*
X0166507D01*
X0165982Y0124950D01*
Y0127049D01*
X0166507Y0127574D01*
X0168081D01*
X0164932D02*
X0163883D01*
X0164407D01*
Y0124425D01*
X0164932D01*
X0163883D01*
X0160734Y0127574D02*
X0161784D01*
X0162308Y0127049D01*
Y0124950D01*
X0161784Y0124425D01*
X0160734D01*
X0160209Y0124950D01*
Y0127049D01*
X0160734Y0127574D01*
X0154779Y0124549D02*
X0155304Y0125074D01*
X0156353D01*
X0156878Y0124549D01*
Y0124024D01*
X0156353Y0123500D01*
X0155304D01*
X0154779Y0122975D01*
Y0122450D01*
X0155304Y0121925D01*
X0156353D01*
X0156878Y0122450D01*
X0153729Y0125074D02*
Y0121925D01*
X0152680Y0122975D01*
X0151630Y0121925D01*
Y0125074D01*
X0148482Y0124549D02*
X0149006Y0125074D01*
X0150056D01*
X0150581Y0124549D01*
Y0122450D01*
X0150056Y0121925D01*
X0149006D01*
X0148482Y0122450D01*
X0147432Y0125074D02*
Y0121925D01*
X0145333D01*
X0144284Y0125074D02*
Y0121925D01*
Y0122975D01*
X0142184Y0125074D01*
X0143759Y0123500D01*
X0142184Y0121925D01*
D114*
X0222560Y0137924D02*
X0223544Y0138908D01*
X0225512D01*
X0226496Y0137924D01*
Y0133988D01*
X0225512Y0133004D01*
X0223544D01*
X0222560Y0133988D01*
X0216657Y0138908D02*
X0220592D01*
Y0133004D01*
X0216657D01*
X0220592Y0135956D02*
X0218625D01*
X0214689Y0133004D02*
Y0138908D01*
X0211737D01*
X0210753Y0137924D01*
Y0135956D01*
X0211737Y0134972D01*
X0214689D01*
X0212721D02*
X0210753Y0133004D01*
X0208785D02*
Y0138908D01*
X0204850Y0133004D01*
Y0138908D01*
X0194026D02*
X0195994D01*
X0196978Y0137924D01*
Y0133988D01*
X0195994Y0133004D01*
X0194026D01*
X0193042Y0133988D01*
Y0137924D01*
X0194026Y0138908D01*
X0191075D02*
Y0133004D01*
Y0135956D01*
X0187139D01*
Y0138908D01*
Y0133004D01*
X0185171Y0138908D02*
Y0133004D01*
X0181235D01*
X0225905Y0170799D02*
X0221970D01*
X0223938D01*
Y0178671D01*
X0225905D01*
X0216066D02*
Y0170799D01*
Y0174735D01*
X0214098Y0176703D01*
X0212130Y0178671D01*
X0210163D01*
X0204259Y0170799D02*
Y0178671D01*
X0198355D01*
X0196388Y0176703D01*
Y0170799D01*
X0190484Y0178671D02*
X0186548D01*
X0184580Y0176703D01*
Y0170799D01*
X0190484D01*
X0192452Y0172767D01*
X0190484Y0174735D01*
X0184580D01*
X0180645Y0170799D02*
X0174741D01*
X0172773Y0172767D01*
X0174741Y0174735D01*
X0178677D01*
X0180645Y0176703D01*
X0178677Y0178671D01*
X0172773D01*
X0168837Y0170799D02*
Y0172767D01*
X0166869D01*
Y0170799D01*
X0168837D01*
X0153094D02*
X0157030D01*
X0158998Y0172767D01*
Y0176703D01*
X0157030Y0178671D01*
X0153094D01*
X0151127Y0176703D01*
Y0174735D01*
X0158998D01*
X0147191Y0178671D02*
Y0172767D01*
X0145223Y0170799D01*
X0139319D01*
Y0178671D01*
X0226299Y0143437D02*
Y0151309D01*
X0221052Y0143437D01*
Y0151309D01*
X0217116Y0143437D02*
X0214492D01*
X0213180Y0144749D01*
Y0147373D01*
X0214492Y0148685D01*
X0217116D01*
X0218428Y0147373D01*
Y0144749D01*
X0217116Y0143437D01*
X0210556D02*
Y0144749D01*
X0209244D01*
Y0143437D01*
X0210556D01*
X0226693Y0164433D02*
X0224069Y0159185D01*
X0221445Y0164433D01*
X0218821Y0165745D02*
X0217510Y0167057D01*
X0214886D01*
X0213574Y0165745D01*
Y0160497D01*
X0214886Y0159185D01*
X0217510D01*
X0218821Y0160497D01*
Y0165745D01*
X0210950Y0159185D02*
Y0160497D01*
X0209638D01*
Y0159185D01*
X0210950D01*
X0199143D02*
X0204390D01*
X0199143Y0164433D01*
Y0165745D01*
X0200455Y0167057D01*
X0203079D01*
X0204390Y0165745D01*
X0225512Y0185760D02*
Y0197567D01*
X0219608D01*
X0217640Y0195599D01*
Y0191663D01*
X0219608Y0189696D01*
X0225512D01*
X0213705Y0185760D02*
X0209769D01*
X0211737D01*
Y0193631D01*
X0213705D01*
X0203865Y0185760D02*
Y0197567D01*
X0197962D01*
X0195994Y0195599D01*
Y0191663D01*
X0197962Y0189696D01*
X0203865D01*
X0199929D02*
X0195994Y0185760D01*
X0192058D02*
Y0193631D01*
X0188122Y0197567D01*
X0184187Y0193631D01*
Y0185760D01*
Y0191663D01*
X0192058D01*
X0160572Y0195599D02*
X0162540Y0197567D01*
X0166476D01*
X0168444Y0195599D01*
Y0193631D01*
X0166476Y0191663D01*
X0162540D01*
X0160572Y0189696D01*
Y0187728D01*
X0162540Y0185760D01*
X0166476D01*
X0168444Y0187728D01*
X0156637Y0185760D02*
Y0193631D01*
X0154669D01*
X0152701Y0191663D01*
Y0185760D01*
Y0191663D01*
X0150733Y0193631D01*
X0148765Y0191663D01*
Y0185760D01*
X0142861Y0193631D02*
X0138926D01*
X0136958Y0191663D01*
Y0185760D01*
X0142861D01*
X0144829Y0187728D01*
X0142861Y0189696D01*
X0136958D01*
X0133022Y0193631D02*
Y0185760D01*
Y0189696D01*
X0131054Y0191663D01*
X0129086Y0193631D01*
X0127119D01*
X0119247Y0195599D02*
Y0193631D01*
X0121215D01*
X0117279D01*
X0119247D01*
Y0187728D01*
X0117279Y0185760D01*
D115*
X0185551Y0149638D02*
D03*
M02*
