G04*
G04 #@! TF.GenerationSoftware,Altium Limited,Altium Designer,18.1.9 (240)*
G04*
G04 Layer_Color=16711935*
%FSAX25Y25*%
%MOIN*%
G70*
G01*
G75*
%ADD13C,0.01000*%
%ADD142C,0.00600*%
D13*
X0384370Y0226705D02*
X0386370Y0220705D01*
X0382370D02*
X0384370Y0226705D01*
X0382370Y0114594D02*
X0384370Y0108595D01*
X0386370Y0114594D01*
X0384370Y0181145D02*
Y0226705D01*
Y0108595D02*
Y0150954D01*
X0352890Y0226705D02*
X0385370D01*
X0353480Y0108595D02*
X0385370D01*
X0107598Y0243240D02*
X0113598Y0245240D01*
X0107598Y0243240D02*
X0113598Y0241240D01*
X0357504D02*
X0363504Y0243240D01*
X0357504Y0245240D02*
X0363504Y0243240D01*
X0107598D02*
X0218856D01*
X0249047D02*
X0363504D01*
X0107598Y0216091D02*
Y0244240D01*
X0363504Y0216091D02*
Y0244240D01*
D142*
X0382971Y0152554D02*
X0381971Y0153554D01*
Y0155553D01*
X0382971Y0156553D01*
X0383970D01*
X0384970Y0155553D01*
Y0154553D01*
Y0155553D01*
X0385970Y0156553D01*
X0386969D01*
X0387969Y0155553D01*
Y0153554D01*
X0386969Y0152554D01*
X0382971Y0158552D02*
X0381971Y0159552D01*
Y0161551D01*
X0382971Y0162551D01*
X0386969D01*
X0387969Y0161551D01*
Y0159552D01*
X0386969Y0158552D01*
X0382971D01*
X0387969Y0164550D02*
X0386969D01*
Y0165550D01*
X0387969D01*
Y0164550D01*
X0382971Y0169548D02*
X0381971Y0170548D01*
Y0172547D01*
X0382971Y0173547D01*
X0386969D01*
X0387969Y0172547D01*
Y0170548D01*
X0386969Y0169548D01*
X0382971D01*
Y0175547D02*
X0381971Y0176546D01*
Y0178546D01*
X0382971Y0179545D01*
X0386969D01*
X0387969Y0178546D01*
Y0176546D01*
X0386969Y0175547D01*
X0382971D01*
X0224454Y0245639D02*
X0222455Y0244639D01*
X0220456Y0242640D01*
Y0240641D01*
X0221455Y0239641D01*
X0223455D01*
X0224454Y0240641D01*
Y0241640D01*
X0223455Y0242640D01*
X0220456D01*
X0230452Y0245639D02*
X0226454D01*
Y0242640D01*
X0228453Y0243640D01*
X0229453D01*
X0230452Y0242640D01*
Y0240641D01*
X0229453Y0239641D01*
X0227453D01*
X0226454Y0240641D01*
X0232452Y0239641D02*
Y0240641D01*
X0233451D01*
Y0239641D01*
X0232452D01*
X0237450Y0244639D02*
X0238450Y0245639D01*
X0240449D01*
X0241449Y0244639D01*
Y0240641D01*
X0240449Y0239641D01*
X0238450D01*
X0237450Y0240641D01*
Y0244639D01*
X0243448D02*
X0244448Y0245639D01*
X0246447D01*
X0247447Y0244639D01*
Y0240641D01*
X0246447Y0239641D01*
X0244448D01*
X0243448Y0240641D01*
Y0244639D01*
M02*
