G04*
G04 #@! TF.GenerationSoftware,Altium Limited,Altium Designer,18.1.9 (240)*
G04*
G04 Layer_Color=32896*
%FSAX25Y25*%
%MOIN*%
G70*
G01*
G75*
%ADD10C,0.00984*%
%ADD11C,0.00394*%
%ADD14C,0.00787*%
%ADD16C,0.00591*%
%ADD140C,0.01575*%
%ADD141R,0.24843X0.13583*%
D10*
X0294626Y0146016D02*
G03*
X0294626Y0146016I-0000492J0000000D01*
G01*
X0188268Y0129894D02*
G03*
X0188268Y0129894I-0000492J0000000D01*
G01*
D11*
X0224055Y0133831D02*
X0227008D01*
X0237638Y0123201D01*
X0245551D01*
D14*
X0257000Y0202447D02*
G03*
X0257008Y0202447I-0000779J-0039364D01*
G01*
X0127732Y0180071D02*
G03*
X0127732Y0180071I-0000177J0000000D01*
G01*
X0295315Y0138634D02*
Y0142571D01*
X0307520Y0138634D02*
Y0142571D01*
X0295315D02*
X0307520D01*
X0295315Y0138634D02*
X0307520D01*
X0108819Y0140201D02*
Y0175634D01*
X0124665D01*
X0108819Y0140201D02*
X0124665D01*
X0149610Y0175634D02*
X0154095D01*
X0149610Y0140201D02*
X0154095D01*
Y0172543D02*
Y0175634D01*
Y0140201D02*
Y0143291D01*
X0123661Y0198681D02*
Y0199469D01*
X0110276D02*
X0123661D01*
X0110276Y0198681D02*
Y0199469D01*
X0119724Y0187264D02*
X0123661D01*
Y0188445D01*
X0110276Y0187264D02*
X0110276Y0188445D01*
X0110276Y0187264D02*
X0114213D01*
X0195158Y0131075D02*
Y0143280D01*
X0191220Y0131075D02*
Y0143280D01*
X0195158D01*
X0191220Y0131075D02*
X0195158D01*
X0168175Y0123961D02*
X0168700Y0123436D01*
Y0122387D01*
X0168175Y0121862D01*
X0167650D01*
X0167125Y0122387D01*
Y0123436D01*
X0166601Y0123961D01*
X0166076D01*
X0165551Y0123436D01*
Y0122387D01*
X0166076Y0121862D01*
X0168700Y0125011D02*
X0165551D01*
X0166601Y0126060D01*
X0165551Y0127110D01*
X0168700D01*
X0168175Y0130258D02*
X0168700Y0129734D01*
Y0128684D01*
X0168175Y0128159D01*
X0166076D01*
X0165551Y0128684D01*
Y0129734D01*
X0166076Y0130258D01*
X0168700Y0131308D02*
X0165551D01*
Y0133407D01*
X0168700Y0134457D02*
X0165551D01*
X0166601D01*
X0168700Y0136556D01*
X0167125Y0134981D01*
X0165551Y0136556D01*
X0157899Y0123764D02*
X0158424Y0123240D01*
Y0122190D01*
X0157899Y0121665D01*
X0157375D01*
X0156850Y0122190D01*
Y0123240D01*
X0156325Y0123764D01*
X0155800D01*
X0155276Y0123240D01*
Y0122190D01*
X0155800Y0121665D01*
X0158424Y0124814D02*
X0155276D01*
X0156325Y0125864D01*
X0155276Y0126913D01*
X0158424D01*
Y0127963D02*
X0155276D01*
Y0129537D01*
X0155800Y0130062D01*
X0157899D01*
X0158424Y0129537D01*
Y0127963D01*
Y0131111D02*
Y0132161D01*
Y0131636D01*
X0155276D01*
Y0131111D01*
Y0132161D01*
X0158424Y0135309D02*
Y0134260D01*
X0157899Y0133735D01*
X0155800D01*
X0155276Y0134260D01*
Y0135309D01*
X0155800Y0135834D01*
X0157899D01*
X0158424Y0135309D01*
X0181102Y0126113D02*
X0180053D01*
X0180578D01*
Y0122965D01*
X0181102D01*
X0180053D01*
X0176904Y0126113D02*
X0177954D01*
X0178479Y0125588D01*
Y0123489D01*
X0177954Y0122965D01*
X0176904D01*
X0176380Y0123489D01*
Y0125588D01*
X0176904Y0126113D01*
X0175330Y0122965D02*
X0174280D01*
X0174805D01*
Y0126113D01*
X0175330Y0125588D01*
X0172706Y0122965D02*
X0171657D01*
X0172181D01*
Y0126113D01*
X0172706Y0125588D01*
X0193976Y0126074D02*
X0192927D01*
X0193452D01*
Y0122925D01*
X0193976D01*
X0192927D01*
X0189778Y0126074D02*
X0190828D01*
X0191353Y0125549D01*
Y0123450D01*
X0190828Y0122925D01*
X0189778D01*
X0189253Y0123450D01*
Y0125549D01*
X0189778Y0126074D01*
X0188204Y0122925D02*
X0187154D01*
X0187679D01*
Y0126074D01*
X0188204Y0125549D01*
X0185580D02*
X0185055Y0126074D01*
X0184006D01*
X0183481Y0125549D01*
Y0123450D01*
X0184006Y0122925D01*
X0185055D01*
X0185580Y0123450D01*
Y0125549D01*
X0204842Y0124460D02*
X0202744D01*
X0203793Y0125510D02*
Y0123411D01*
X0199595Y0126034D02*
X0201694D01*
Y0124460D01*
X0200644Y0124985D01*
X0200120D01*
X0199595Y0124460D01*
Y0123411D01*
X0200120Y0122886D01*
X0201169D01*
X0201694Y0123411D01*
X0198545Y0126034D02*
Y0123935D01*
X0197496Y0122886D01*
X0196446Y0123935D01*
Y0126034D01*
X0212586Y0125667D02*
X0213111Y0126192D01*
X0214160D01*
X0214685Y0125667D01*
Y0123568D01*
X0214160Y0123043D01*
X0213111D01*
X0212586Y0123568D01*
Y0124618D01*
X0213635D01*
X0211537Y0123043D02*
Y0126192D01*
X0209437Y0123043D01*
Y0126192D01*
X0208388D02*
Y0123043D01*
X0206814D01*
X0206289Y0123568D01*
Y0125667D01*
X0206814Y0126192D01*
X0208388D01*
X0216457Y0122966D02*
X0217506D01*
X0216982D01*
Y0126114D01*
X0216457D01*
X0217506D01*
X0220655Y0122966D02*
X0219605D01*
X0219080Y0123490D01*
Y0125589D01*
X0219605Y0126114D01*
X0220655D01*
X0221180Y0125589D01*
Y0123490D01*
X0220655Y0122966D01*
X0222229Y0125589D02*
X0222754Y0126114D01*
X0223803D01*
X0224328Y0125589D01*
Y0123490D01*
X0223803Y0122966D01*
X0222754D01*
X0222229Y0123490D01*
Y0124015D01*
X0222754Y0124540D01*
X0224328D01*
X0225984Y0122887D02*
X0227034D01*
X0226509D01*
Y0126035D01*
X0225984D01*
X0227034D01*
X0230182Y0122887D02*
X0229133D01*
X0228608Y0123412D01*
Y0125511D01*
X0229133Y0126035D01*
X0230182D01*
X0230707Y0125511D01*
Y0123412D01*
X0230182Y0122887D01*
X0231757Y0123412D02*
X0232281Y0122887D01*
X0233331D01*
X0233856Y0123412D01*
Y0123936D01*
X0233331Y0124461D01*
X0233856Y0124986D01*
Y0125511D01*
X0233331Y0126035D01*
X0232281D01*
X0231757Y0125511D01*
Y0124986D01*
X0232281Y0124461D01*
X0231757Y0123936D01*
Y0123412D01*
X0232281Y0124461D02*
X0233331D01*
X0212874Y0134604D02*
X0212349Y0135129D01*
X0211300D01*
X0210775Y0134604D01*
Y0134079D01*
X0211300Y0133555D01*
X0211824D01*
X0211300D01*
X0210775Y0133030D01*
Y0132505D01*
X0211300Y0131980D01*
X0212349D01*
X0212874Y0132505D01*
X0209725Y0135129D02*
Y0133030D01*
X0208676Y0131980D01*
X0207626Y0133030D01*
Y0135129D01*
X0206577Y0134604D02*
X0206052Y0135129D01*
X0205002D01*
X0204478Y0134604D01*
Y0134079D01*
X0205002Y0133555D01*
X0205527D01*
X0205002D01*
X0204478Y0133030D01*
Y0132505D01*
X0205002Y0131980D01*
X0206052D01*
X0206577Y0132505D01*
X0221182Y0135247D02*
X0222231D01*
X0222756Y0134722D01*
Y0132623D01*
X0222231Y0132098D01*
X0221182D01*
X0220657Y0132623D01*
Y0134722D01*
X0221182Y0135247D01*
X0219607D02*
Y0132623D01*
X0219082Y0132098D01*
X0218033D01*
X0217508Y0132623D01*
Y0135247D01*
X0216459D02*
X0214360D01*
X0215409D01*
Y0132098D01*
X0274331Y0123161D02*
X0271707D01*
X0273019Y0124473D02*
Y0121849D01*
X0264685Y0123161D02*
X0262061D01*
X0296181Y0123358D02*
X0293557D01*
X0294869Y0124670D02*
Y0122046D01*
X0287126Y0123358D02*
X0284502D01*
X0290079Y0129892D02*
Y0125957D01*
X0288111D01*
X0287455Y0126613D01*
Y0127269D01*
X0288111Y0127925D01*
X0290079D01*
X0288111D01*
X0287455Y0128580D01*
Y0129236D01*
X0288111Y0129892D01*
X0290079D01*
X0286143Y0125957D02*
Y0128580D01*
X0284831Y0129892D01*
X0283519Y0128580D01*
Y0125957D01*
Y0127925D01*
X0286143D01*
X0282207Y0129892D02*
X0279583D01*
X0280895D01*
Y0125957D01*
X0308478Y0129158D02*
X0309135Y0129814D01*
X0310446D01*
X0311102Y0129158D01*
Y0128502D01*
X0310446Y0127846D01*
X0309135D01*
X0308478Y0127190D01*
Y0126534D01*
X0309135Y0125878D01*
X0310446D01*
X0311102Y0126534D01*
X0305199Y0129814D02*
X0306511D01*
X0307167Y0129158D01*
Y0126534D01*
X0306511Y0125878D01*
X0305199D01*
X0304543Y0126534D01*
Y0129158D01*
X0305199Y0129814D01*
X0303231D02*
Y0125878D01*
X0300607D01*
X0299295D02*
Y0128502D01*
X0297983Y0129814D01*
X0296671Y0128502D01*
Y0125878D01*
Y0127846D01*
X0299295D01*
X0295359Y0125878D02*
Y0129814D01*
X0293391D01*
X0292736Y0129158D01*
Y0127846D01*
X0293391Y0127190D01*
X0295359D01*
X0294047D02*
X0292736Y0125878D01*
X0325378Y0117861D02*
Y0114581D01*
X0324722Y0113925D01*
X0323410D01*
X0322754Y0114581D01*
Y0117861D01*
X0318818Y0117205D02*
X0319474Y0117861D01*
X0320786D01*
X0321442Y0117205D01*
Y0116549D01*
X0320786Y0115893D01*
X0319474D01*
X0318818Y0115237D01*
Y0114581D01*
X0319474Y0113925D01*
X0320786D01*
X0321442Y0114581D01*
X0317507Y0117861D02*
Y0113925D01*
X0315539D01*
X0314883Y0114581D01*
Y0115237D01*
X0315539Y0115893D01*
X0317507D01*
X0315539D01*
X0314883Y0116549D01*
Y0117205D01*
X0315539Y0117861D01*
X0317507D01*
X0349488Y0143226D02*
X0348963Y0143751D01*
X0347914D01*
X0347389Y0143226D01*
Y0142701D01*
X0347914Y0142177D01*
X0348439D01*
X0347914D01*
X0347389Y0141652D01*
Y0141127D01*
X0347914Y0140602D01*
X0348963D01*
X0349488Y0141127D01*
X0346340Y0143751D02*
Y0141652D01*
X0345290Y0140602D01*
X0344240Y0141652D01*
Y0143751D01*
X0343191Y0143226D02*
X0342666Y0143751D01*
X0341617D01*
X0341092Y0143226D01*
Y0142701D01*
X0341617Y0142177D01*
X0342142D01*
X0341617D01*
X0341092Y0141652D01*
Y0141127D01*
X0341617Y0140602D01*
X0342666D01*
X0343191Y0141127D01*
X0347271Y0153856D02*
X0347796Y0154381D01*
X0348845D01*
X0349370Y0153856D01*
Y0153331D01*
X0348845Y0152807D01*
X0347796D01*
X0347271Y0152282D01*
Y0151757D01*
X0347796Y0151232D01*
X0348845D01*
X0349370Y0151757D01*
X0346221Y0154381D02*
Y0151232D01*
X0344647D01*
X0344122Y0151757D01*
Y0153856D01*
X0344647Y0154381D01*
X0346221D01*
X0343073Y0151232D02*
Y0153331D01*
X0342023Y0154381D01*
X0340974Y0153331D01*
Y0151232D01*
Y0152807D01*
X0343073D01*
X0347389Y0163108D02*
X0347914Y0163633D01*
X0348963D01*
X0349488Y0163108D01*
Y0162583D01*
X0348963Y0162059D01*
X0347914D01*
X0347389Y0161534D01*
Y0161009D01*
X0347914Y0160484D01*
X0348963D01*
X0349488Y0161009D01*
X0344240Y0163108D02*
X0344765Y0163633D01*
X0345815D01*
X0346340Y0163108D01*
Y0161009D01*
X0345815Y0160484D01*
X0344765D01*
X0344240Y0161009D01*
X0343191Y0163633D02*
Y0160484D01*
X0341092D01*
X0347586Y0169801D02*
X0348111Y0170326D01*
X0349160D01*
X0349685Y0169801D01*
Y0167702D01*
X0349160Y0167177D01*
X0348111D01*
X0347586Y0167702D01*
Y0168752D01*
X0348636D01*
X0346536Y0167177D02*
Y0170326D01*
X0344437Y0167177D01*
Y0170326D01*
X0343388D02*
Y0167177D01*
X0341814D01*
X0341289Y0167702D01*
Y0169801D01*
X0341814Y0170326D01*
X0343388D01*
X0145866Y0122256D02*
X0149015D01*
Y0123830D01*
X0148490Y0124355D01*
X0147441D01*
X0146916Y0123830D01*
Y0122256D01*
Y0123305D02*
X0145866Y0124355D01*
X0148490Y0127504D02*
X0149015Y0126979D01*
Y0125929D01*
X0148490Y0125405D01*
X0147965D01*
X0147441Y0125929D01*
Y0126979D01*
X0146916Y0127504D01*
X0146391D01*
X0145866Y0126979D01*
Y0125929D01*
X0146391Y0125405D01*
X0149015Y0128553D02*
Y0130652D01*
Y0129603D01*
X0145866D01*
D16*
X0214857Y0152268D02*
X0215512Y0152924D01*
X0216824D01*
X0217480Y0152268D01*
Y0149644D01*
X0216824Y0148988D01*
X0215512D01*
X0214857Y0149644D01*
X0211577Y0152924D02*
X0212889D01*
X0213545Y0152268D01*
Y0149644D01*
X0212889Y0148988D01*
X0211577D01*
X0210921Y0149644D01*
Y0152268D01*
X0211577Y0152924D01*
X0209609Y0148988D02*
Y0152924D01*
X0206985Y0148988D01*
Y0152924D01*
X0205673Y0152268D02*
X0205017Y0152924D01*
X0203705D01*
X0203049Y0152268D01*
Y0151612D01*
X0203705Y0150956D01*
X0204361D01*
X0203705D01*
X0203049Y0150300D01*
Y0149644D01*
X0203705Y0148988D01*
X0205017D01*
X0205673Y0149644D01*
X0307126Y0152097D02*
X0305289D01*
X0306208D01*
Y0149343D01*
X0302534D02*
X0304371D01*
X0302534Y0151179D01*
Y0151638D01*
X0302993Y0152097D01*
X0303912D01*
X0304371Y0151638D01*
X0153504Y0179657D02*
Y0177361D01*
X0153045Y0176902D01*
X0152126D01*
X0151667Y0177361D01*
Y0179657D01*
X0149371Y0176902D02*
Y0179657D01*
X0150749Y0178279D01*
X0148912D01*
X0188740Y0146389D02*
X0186904D01*
X0187822D01*
Y0143634D01*
X0185985Y0145930D02*
X0185526Y0146389D01*
X0184608D01*
X0184149Y0145930D01*
Y0145470D01*
X0184608Y0145011D01*
X0185067D01*
X0184608D01*
X0184149Y0144552D01*
Y0144093D01*
X0184608Y0143634D01*
X0185526D01*
X0185985Y0144093D01*
X0120053Y0183882D02*
X0120512Y0184342D01*
X0121431D01*
X0121890Y0183882D01*
Y0182046D01*
X0121431Y0181587D01*
X0120512D01*
X0120053Y0182046D01*
X0117757Y0184342D02*
X0118676D01*
X0119135Y0183882D01*
Y0182046D01*
X0118676Y0181587D01*
X0117757D01*
X0117298Y0182046D01*
Y0183882D01*
X0117757Y0184342D01*
X0116380Y0181587D02*
Y0184342D01*
X0114543Y0181587D01*
Y0184342D01*
X0112247Y0181587D02*
Y0184342D01*
X0113625Y0182964D01*
X0111788D01*
D140*
X0337913Y0189461D02*
Y0201268D01*
X0332010D01*
X0330042Y0199300D01*
Y0195364D01*
X0332010Y0193396D01*
X0337913D01*
X0326106Y0189461D02*
X0322170D01*
X0324138D01*
Y0197332D01*
X0326106D01*
X0316267Y0189461D02*
Y0201268D01*
X0310363D01*
X0308395Y0199300D01*
Y0195364D01*
X0310363Y0193396D01*
X0316267D01*
X0312331D02*
X0308395Y0189461D01*
X0304460D02*
Y0197332D01*
X0300524Y0201268D01*
X0296588Y0197332D01*
Y0189461D01*
Y0195364D01*
X0304460D01*
X0335709Y0164197D02*
X0333085Y0158949D01*
X0330461Y0164197D01*
X0322589Y0158949D02*
X0327837D01*
X0322589Y0164197D01*
Y0165508D01*
X0323902Y0166820D01*
X0326525D01*
X0327837Y0165508D01*
X0319966Y0158949D02*
Y0160261D01*
X0318654D01*
Y0158949D01*
X0319966D01*
X0313406Y0165508D02*
X0312094Y0166820D01*
X0309470D01*
X0308158Y0165508D01*
Y0160261D01*
X0309470Y0158949D01*
X0312094D01*
X0313406Y0160261D01*
Y0165508D01*
X0206024Y0168752D02*
Y0176623D01*
X0200776Y0168752D01*
Y0176623D01*
X0196840Y0168752D02*
X0194216D01*
X0192904Y0170064D01*
Y0172688D01*
X0194216Y0174000D01*
X0196840D01*
X0198152Y0172688D01*
Y0170064D01*
X0196840Y0168752D01*
X0190281D02*
Y0170064D01*
X0188969D01*
Y0168752D01*
X0190281D01*
X0218425Y0190760D02*
X0214490D01*
X0216457D01*
Y0198631D01*
X0218425D01*
X0208586D02*
Y0190760D01*
Y0194696D01*
X0206618Y0196663D01*
X0204650Y0198631D01*
X0202682D01*
X0196779Y0190760D02*
Y0198631D01*
X0190875D01*
X0188907Y0196663D01*
Y0190760D01*
X0183004Y0198631D02*
X0179068D01*
X0177100Y0196663D01*
Y0190760D01*
X0183004D01*
X0184971Y0192728D01*
X0183004Y0194696D01*
X0177100D01*
X0173164Y0190760D02*
X0167261D01*
X0165293Y0192728D01*
X0167261Y0194696D01*
X0171196D01*
X0173164Y0196663D01*
X0171196Y0198631D01*
X0165293D01*
X0161357Y0190760D02*
Y0192728D01*
X0159389D01*
Y0190760D01*
X0161357D01*
X0145614D02*
X0149550D01*
X0151518Y0192728D01*
Y0196663D01*
X0149550Y0198631D01*
X0145614D01*
X0143646Y0196663D01*
Y0194696D01*
X0151518D01*
X0139710Y0198631D02*
Y0192728D01*
X0137743Y0190760D01*
X0131839D01*
Y0198631D01*
X0202009Y0163868D02*
X0202993Y0164852D01*
X0204961D01*
X0205945Y0163868D01*
Y0159933D01*
X0204961Y0158949D01*
X0202993D01*
X0202009Y0159933D01*
X0196106Y0164852D02*
X0200041D01*
Y0158949D01*
X0196106D01*
X0200041Y0161901D02*
X0198073D01*
X0194138Y0158949D02*
Y0164852D01*
X0191186D01*
X0190202Y0163868D01*
Y0161901D01*
X0191186Y0160917D01*
X0194138D01*
X0192170D02*
X0190202Y0158949D01*
X0188234D02*
Y0164852D01*
X0184298Y0158949D01*
Y0164852D01*
X0173475D02*
X0175443D01*
X0176427Y0163868D01*
Y0159933D01*
X0175443Y0158949D01*
X0173475D01*
X0172491Y0159933D01*
Y0163868D01*
X0173475Y0164852D01*
X0170523D02*
Y0158949D01*
Y0161901D01*
X0166588D01*
Y0164852D01*
Y0158949D01*
X0164620Y0164852D02*
Y0158949D01*
X0160684D01*
X0338940Y0183119D02*
X0340907Y0185087D01*
X0344843D01*
X0346811Y0183119D01*
Y0181151D01*
X0344843Y0179183D01*
X0340907D01*
X0338940Y0177215D01*
Y0175247D01*
X0340907Y0173280D01*
X0344843D01*
X0346811Y0175247D01*
X0335004Y0173280D02*
Y0181151D01*
X0333036D01*
X0331068Y0179183D01*
Y0173280D01*
Y0179183D01*
X0329100Y0181151D01*
X0327132Y0179183D01*
Y0173280D01*
X0321229Y0181151D02*
X0317293D01*
X0315325Y0179183D01*
Y0173280D01*
X0321229D01*
X0323197Y0175247D01*
X0321229Y0177215D01*
X0315325D01*
X0311389Y0181151D02*
Y0173280D01*
Y0177215D01*
X0309422Y0179183D01*
X0307454Y0181151D01*
X0305486D01*
X0297614Y0183119D02*
Y0181151D01*
X0299582D01*
X0295647D01*
X0297614D01*
Y0175247D01*
X0295647Y0173280D01*
D141*
X0173209Y0173890D02*
D03*
M02*
