G04 Layer_Color=16711935*
%FSAX25Y25*%
%MOIN*%
G70*
G01*
G75*
%ADD102R,0.09461X0.04934*%
%ADD103R,0.04737X0.04737*%
%ADD105C,0.06706*%
%ADD106R,0.06706X0.06706*%
%ADD107C,0.24422*%
%ADD108O,0.04737X0.07099*%
%ADD109R,0.00800X0.00800*%
%ADD110R,0.06706X0.06706*%
%ADD111P,0.10880X8X177.5*%
%ADD112C,0.02768*%
%ADD113R,0.10642X0.04737*%
D102*
X0347756Y0195504D02*
D03*
Y0183890D02*
D03*
D103*
X0353661Y0189697D02*
D03*
D105*
X0330598Y0218094D02*
D03*
Y0208095D02*
D03*
X0320599Y0218094D02*
D03*
Y0208095D02*
D03*
X0310598Y0218094D02*
D03*
Y0208095D02*
D03*
X0300599Y0218094D02*
D03*
Y0208095D02*
D03*
X0290599Y0218094D02*
D03*
Y0208095D02*
D03*
X0280598Y0218094D02*
D03*
Y0208095D02*
D03*
X0270599Y0218094D02*
D03*
Y0208095D02*
D03*
X0260598Y0218094D02*
D03*
Y0208095D02*
D03*
X0250599Y0218094D02*
D03*
Y0208095D02*
D03*
X0240599Y0218094D02*
D03*
Y0208095D02*
D03*
X0230598Y0218094D02*
D03*
Y0208095D02*
D03*
X0220599Y0218094D02*
D03*
Y0208095D02*
D03*
X0210598Y0218094D02*
D03*
Y0208095D02*
D03*
X0200599Y0218094D02*
D03*
Y0208095D02*
D03*
X0190598Y0218094D02*
D03*
Y0208095D02*
D03*
X0180598Y0218094D02*
D03*
Y0208095D02*
D03*
X0170598Y0218094D02*
D03*
Y0208095D02*
D03*
X0160599Y0218094D02*
D03*
Y0208095D02*
D03*
X0150599Y0218094D02*
D03*
Y0208095D02*
D03*
X0140598Y0218094D02*
D03*
X0171678Y0116862D02*
D03*
X0241693D02*
D03*
X0231693D02*
D03*
X0221693D02*
D03*
X0211693D02*
D03*
X0201693D02*
D03*
X0191693D02*
D03*
X0181693D02*
D03*
X0263347D02*
D03*
X0295158D02*
D03*
X0356417Y0141508D02*
D03*
Y0151508D02*
D03*
Y0161508D02*
D03*
D106*
X0140598Y0208095D02*
D03*
X0161678Y0116862D02*
D03*
X0251693D02*
D03*
X0273346D02*
D03*
X0285157D02*
D03*
X0359567Y0189697D02*
D03*
D107*
X0349724Y0122374D02*
D03*
Y0212925D02*
D03*
X0121378D02*
D03*
Y0122374D02*
D03*
D108*
X0308780Y0114896D02*
D03*
X0331417D02*
D03*
D109*
X0312114Y0123360D02*
D03*
X0328059D02*
D03*
D110*
X0356417Y0171508D02*
D03*
D111*
X0175498Y0191633D02*
D03*
X0246861Y0158356D02*
D03*
D112*
X0320591Y0178673D02*
D03*
X0317047D02*
D03*
Y0171587D02*
D03*
Y0175130D02*
D03*
X0324134Y0171587D02*
D03*
X0320591D02*
D03*
Y0175130D02*
D03*
X0324134D02*
D03*
Y0178673D02*
D03*
D113*
X0332402Y0139697D02*
D03*
Y0194815D02*
D03*
Y0186941D02*
D03*
Y0179067D02*
D03*
Y0171193D02*
D03*
X0332402Y0163319D02*
D03*
X0332402Y0155445D02*
D03*
Y0147571D02*
D03*
X0273346Y0186941D02*
D03*
Y0179067D02*
D03*
Y0171193D02*
D03*
Y0163319D02*
D03*
X0273346Y0155445D02*
D03*
X0273346Y0147571D02*
D03*
Y0139697D02*
D03*
X0273346Y0194815D02*
D03*
M02*
