G04*
G04 #@! TF.GenerationSoftware,Altium Limited,Altium Designer,18.1.9 (240)*
G04*
G04 Layer_Color=16711935*
%FSAX25Y25*%
%MOIN*%
G70*
G01*
G75*
%ADD11C,0.00394*%
%ADD13C,0.01000*%
%ADD14C,0.00787*%
%ADD16C,0.00591*%
%ADD143C,0.01968*%
%ADD144C,0.00197*%
%ADD145C,0.00472*%
%ADD146R,0.16535X0.02224*%
D11*
X0295984Y0163083D02*
G03*
X0295984Y0163083I-0039567J0000000D01*
G01*
X0199577Y0184551D02*
G03*
X0199577Y0184551I-0000943J0000000D01*
G01*
X0232047Y0171035D02*
G03*
X0232047Y0171035I-0001575J0000000D01*
G01*
X0343307Y0199303D02*
X0360039D01*
Y0193398D02*
Y0199303D01*
X0343307Y0193398D02*
X0360039D01*
X0343307D02*
Y0199303D01*
X0345472Y0197925D02*
X0352165D01*
Y0194776D02*
Y0197925D01*
X0345472Y0194776D02*
X0352165D01*
X0345472D02*
Y0197925D01*
X0342795Y0180602D02*
X0348701D01*
Y0191626D01*
X0342795D02*
X0348701D01*
X0342795Y0180602D02*
Y0191626D01*
X0200927Y0143659D02*
Y0149159D01*
X0189427D02*
X0200927D01*
X0189427Y0143659D02*
Y0149159D01*
Y0143659D02*
X0200927D01*
X0200947Y0138167D02*
Y0143667D01*
X0189447D02*
X0200947D01*
X0189447Y0138167D02*
Y0143667D01*
Y0138167D02*
X0200947D01*
X0200947Y0149152D02*
Y0154652D01*
X0189447D02*
X0200947D01*
X0189447Y0149152D02*
Y0154652D01*
Y0149152D02*
X0200947D01*
X0123504Y0187394D02*
Y0199323D01*
X0123543Y0199362D01*
X0110197D02*
X0123543D01*
X0110197Y0187472D02*
Y0199362D01*
Y0187472D02*
X0110276Y0187394D01*
X0123504D01*
X0202795Y0155839D02*
Y0166862D01*
X0208701D01*
Y0155839D02*
Y0166862D01*
X0202795Y0155839D02*
X0208701D01*
X0180157Y0122846D02*
Y0133870D01*
X0174252Y0122846D02*
X0180157D01*
X0174252D02*
Y0133870D01*
X0180157D01*
X0328268Y0188516D02*
Y0199539D01*
X0334173D01*
Y0188516D02*
Y0199539D01*
X0328268Y0188516D02*
X0334173D01*
X0327480D02*
Y0199539D01*
X0321575Y0188516D02*
X0327480D01*
X0321575D02*
Y0199539D01*
X0327480D01*
X0314882Y0188516D02*
Y0199539D01*
X0320787D01*
Y0188516D02*
Y0199539D01*
X0314882Y0188516D02*
X0320787D01*
X0308189D02*
Y0199539D01*
X0314094D01*
Y0188516D02*
Y0199539D01*
X0308189Y0188516D02*
X0314094D01*
X0306417Y0166075D02*
Y0182610D01*
X0289882Y0166075D02*
Y0182610D01*
X0306417D01*
X0289882Y0166075D02*
X0306417D01*
X0299331Y0186153D02*
Y0200327D01*
X0307205D01*
Y0186153D02*
Y0200327D01*
X0299331Y0186153D02*
X0307205D01*
X0290276D02*
Y0200327D01*
X0298150D01*
Y0186153D02*
Y0200327D01*
X0290276Y0186153D02*
X0298150D01*
X0277284Y0165484D02*
X0288307D01*
Y0159579D02*
Y0165484D01*
X0277284Y0159579D02*
X0288307D01*
X0277284D02*
Y0165484D01*
X0258386Y0192847D02*
X0272559D01*
X0258386D02*
Y0200721D01*
X0272559D01*
Y0192847D02*
Y0200721D01*
X0249331Y0186547D02*
Y0200721D01*
X0257205D01*
Y0186547D02*
Y0200721D01*
X0249331Y0186547D02*
X0257205D01*
X0240669D02*
Y0200721D01*
X0248543D01*
Y0186547D02*
Y0200721D01*
X0240669Y0186547D02*
X0248543D01*
X0334567Y0188516D02*
Y0199539D01*
X0340472D01*
Y0188516D02*
Y0199539D01*
X0334567Y0188516D02*
X0340472D01*
X0334567Y0176311D02*
Y0187335D01*
X0340472D01*
Y0176311D02*
Y0187335D01*
X0334567Y0176311D02*
X0340472D01*
X0337126Y0169028D02*
X0348150D01*
X0337126D02*
Y0174933D01*
X0348150D01*
Y0169028D02*
Y0174933D01*
X0337126Y0168240D02*
X0348150D01*
Y0162335D02*
Y0168240D01*
X0337126Y0162335D02*
X0348150D01*
X0337126D02*
Y0168240D01*
X0329252Y0148358D02*
Y0162531D01*
X0321378Y0148358D02*
X0329252D01*
X0321378D02*
Y0162531D01*
X0329252D01*
X0314691Y0160407D02*
X0320191D01*
X0314691Y0148907D02*
Y0160407D01*
Y0148907D02*
X0320191D01*
Y0160407D01*
X0306423Y0163951D02*
X0311923D01*
X0306423Y0152451D02*
Y0163951D01*
Y0152451D02*
X0311923D01*
Y0163951D01*
X0326496Y0134579D02*
Y0142453D01*
X0340669Y0134579D02*
Y0142453D01*
X0326496D02*
X0340669D01*
X0326496Y0134579D02*
X0340669D01*
X0349528Y0135760D02*
Y0146783D01*
X0343622Y0135760D02*
X0349528D01*
X0343622D02*
Y0146783D01*
X0349528D01*
X0317441Y0133201D02*
Y0143831D01*
X0302972D02*
X0320098D01*
X0302972Y0133201D02*
X0320098D01*
X0302972D02*
Y0143831D01*
X0320098Y0133201D02*
Y0143831D01*
X0287323Y0140878D02*
X0297953D01*
X0287323Y0126409D02*
Y0143535D01*
X0297953Y0126409D02*
Y0143535D01*
X0287323Y0126409D02*
X0297953D01*
X0287323Y0143535D02*
X0297953D01*
X0274134Y0152295D02*
Y0159382D01*
X0288307Y0152295D02*
Y0159382D01*
X0274134D02*
X0288307D01*
X0274134Y0152295D02*
X0288307D01*
X0277284Y0166272D02*
X0288307D01*
X0277284D02*
Y0172177D01*
X0288307D01*
Y0166272D02*
Y0172177D01*
X0277284Y0174146D02*
X0288307D01*
X0277284D02*
Y0180051D01*
X0288307D01*
Y0174146D02*
Y0180051D01*
X0254410Y0167138D02*
Y0183673D01*
X0237874Y0167138D02*
Y0183673D01*
X0254410D01*
X0237874Y0167138D02*
X0254410D01*
X0256142Y0156587D02*
X0270315D01*
X0256142D02*
Y0164461D01*
X0270315D01*
Y0156587D02*
Y0164461D01*
X0256142Y0148122D02*
X0270315D01*
X0256142D02*
Y0155996D01*
X0270315D01*
Y0148122D02*
Y0155996D01*
X0256063Y0139303D02*
X0270236D01*
X0256063D02*
Y0147177D01*
X0270236D01*
Y0139303D02*
Y0147177D01*
X0273740Y0152098D02*
X0284764D01*
Y0146193D02*
Y0152098D01*
X0273740Y0146193D02*
X0284764D01*
X0273740D02*
Y0152098D01*
X0212205Y0167217D02*
Y0181390D01*
X0220079D01*
Y0167217D02*
Y0181390D01*
X0212205Y0167217D02*
X0220079D01*
X0188031Y0186153D02*
X0200236D01*
X0188031Y0173949D02*
X0200236D01*
Y0186153D01*
X0188031Y0173949D02*
Y0186153D01*
X0185268Y0201508D02*
X0185268Y0192847D01*
X0201268Y0192847D01*
X0201268Y0201508D01*
X0185268D02*
X0201268D01*
X0189685Y0166744D02*
X0200709D01*
Y0160839D02*
Y0166744D01*
X0189685Y0160839D02*
X0200709Y0160839D01*
X0189685Y0160839D02*
X0189685Y0166744D01*
X0189685Y0160760D02*
X0200709Y0160760D01*
X0200709Y0154854D02*
X0200709Y0160760D01*
X0189685Y0154854D02*
X0200709D01*
X0189685D02*
X0189685Y0160760D01*
X0237283Y0123004D02*
Y0139736D01*
X0231378Y0123004D02*
X0237283D01*
X0231378D02*
Y0139736D01*
X0237283D01*
X0235906Y0130878D02*
Y0137571D01*
X0232756Y0130878D02*
X0235906D01*
X0232756D02*
Y0137571D01*
X0235906D01*
X0221417Y0165917D02*
Y0174185D01*
X0233622Y0165917D02*
Y0174185D01*
X0221417Y0165917D02*
X0233622D01*
X0221417Y0174185D02*
X0233622D01*
X0231378Y0178102D02*
Y0183811D01*
X0222716Y0178102D02*
Y0183811D01*
Y0178102D02*
X0231378D01*
X0222716Y0183811D02*
X0231378D01*
X0220630Y0161626D02*
X0234803D01*
X0234803Y0153752D02*
X0234803Y0161626D01*
X0220630Y0153752D02*
X0234803D01*
X0220630D02*
X0220630Y0161626D01*
X0240315Y0163949D02*
X0252126D01*
X0240315Y0139539D02*
X0252126D01*
Y0163949D01*
X0240315Y0139539D02*
Y0163949D01*
X0220039Y0123319D02*
Y0134343D01*
X0214134Y0123319D02*
X0220039D01*
X0214134D02*
Y0134343D01*
X0220039D01*
X0245276Y0122807D02*
Y0133831D01*
X0239370Y0122807D02*
X0245276D01*
X0239370D02*
Y0133831D01*
X0245276D01*
X0252795Y0122886D02*
Y0133909D01*
X0246890Y0122886D02*
X0252795D01*
X0246890D02*
Y0133909D01*
X0252795D01*
X0228622Y0123437D02*
Y0134461D01*
X0222716Y0123437D02*
X0228622D01*
X0222716D02*
Y0134461D01*
X0228622D01*
X0256299Y0122768D02*
X0280709D01*
X0256299Y0138516D02*
X0280709D01*
Y0122768D02*
Y0138516D01*
X0256299Y0122768D02*
Y0138516D01*
X0288545Y0181041D02*
Y0186541D01*
X0277045D02*
X0288545D01*
X0277045Y0181041D02*
Y0186541D01*
Y0181041D02*
X0288545D01*
X0277284Y0194224D02*
X0288307D01*
X0277284D02*
Y0200130D01*
X0288307D01*
Y0194224D02*
Y0200130D01*
X0277284Y0187531D02*
X0288307D01*
X0277284D02*
Y0193437D01*
X0288307D01*
Y0187531D02*
Y0193437D01*
X0150787Y0190957D02*
Y0201980D01*
X0156693D01*
Y0190957D02*
Y0201980D01*
X0150787Y0190957D02*
X0156693D01*
X0204252Y0167728D02*
Y0178752D01*
X0210157Y0178752D01*
Y0167728D02*
Y0178752D01*
X0204252Y0167728D02*
X0210157D01*
X0149921Y0190957D02*
Y0201980D01*
X0144016Y0190957D02*
X0149921D01*
X0144016D02*
Y0201980D01*
X0149921D01*
X0143150Y0190957D02*
Y0201980D01*
X0137244Y0190957D02*
X0143150D01*
X0137244D02*
Y0201980D01*
X0143150D01*
X0136378Y0190996D02*
Y0202020D01*
X0130472Y0190996D02*
X0136378D01*
X0130472D02*
Y0202020D01*
X0136378D01*
X0172913Y0122807D02*
Y0133831D01*
X0167008Y0122807D02*
X0172913D01*
X0167008D02*
Y0133831D01*
X0172913D01*
X0143898Y0122728D02*
Y0133752D01*
X0149803D01*
Y0122728D02*
Y0133752D01*
X0143898Y0122728D02*
X0149803D01*
X0136108Y0122293D02*
Y0133793D01*
X0141608D01*
Y0122293D02*
Y0133793D01*
X0136108Y0122293D02*
X0141608D01*
X0189842Y0135681D02*
X0200866D01*
Y0129776D02*
Y0135681D01*
X0189842Y0129776D02*
X0200866D01*
X0189842D02*
Y0135681D01*
X0189803Y0128752D02*
X0200827D01*
Y0122846D02*
Y0128752D01*
X0189803Y0122846D02*
X0200827D01*
X0189803D02*
Y0128752D01*
X0162421Y0201685D02*
X0184468D01*
Y0189087D02*
Y0201685D01*
X0162421Y0189087D02*
X0184468D01*
X0162421D02*
Y0201685D01*
X0113327Y0181882D02*
X0121004D01*
X0113327Y0177748D02*
X0121004D01*
X0113327D02*
Y0181882D01*
X0121004Y0177748D02*
Y0181882D01*
X0121634Y0177827D02*
Y0185504D01*
X0125768Y0177827D02*
Y0185504D01*
X0121634Y0177827D02*
X0125768D01*
X0121634Y0185504D02*
X0125768D01*
X0108405Y0177787D02*
Y0185465D01*
X0112539Y0177787D02*
Y0185465D01*
X0108405Y0177787D02*
X0112539D01*
X0108405Y0185465D02*
X0112539D01*
X0110354Y0187394D02*
X0123583D01*
X0123661Y0187472D01*
Y0199362D01*
X0110315D02*
X0123661D01*
X0110315D02*
X0110354Y0199323D01*
Y0187394D02*
Y0199323D01*
X0132311Y0140378D02*
X0181811D01*
X0132311D02*
Y0186378D01*
X0181811D01*
Y0140378D02*
Y0186378D01*
X0153333Y0122431D02*
X0158833D01*
Y0133931D01*
X0153333D02*
X0158833D01*
X0153333Y0122431D02*
Y0133931D01*
X0160282Y0122372D02*
X0165781D01*
Y0133872D01*
X0160282D02*
X0165781D01*
X0160282Y0122372D02*
Y0133872D01*
X0255648Y0165313D02*
Y0170813D01*
Y0165313D02*
X0267148D01*
Y0170813D01*
X0255648D02*
X0267148D01*
X0213307Y0155445D02*
X0219213D01*
Y0166469D01*
X0213307D02*
X0219213D01*
X0213307Y0155445D02*
Y0166469D01*
X0227835Y0190681D02*
X0233740D01*
Y0201705D01*
X0227835D02*
X0233740D01*
X0227835Y0190681D02*
Y0201705D01*
X0220315Y0190681D02*
X0226220D01*
Y0201705D01*
X0220315D02*
X0226220D01*
X0220315Y0190681D02*
Y0201705D01*
X0205669Y0201665D02*
X0211575D01*
X0205669Y0190642D02*
Y0201665D01*
Y0190642D02*
X0211575D01*
Y0201665D01*
X0213032Y0190681D02*
X0218937D01*
Y0201705D01*
X0213032D02*
X0218937D01*
X0213032Y0190681D02*
Y0201705D01*
X0354527Y0197531D02*
X0353740D01*
X0354134D01*
Y0195563D01*
X0353740Y0195169D01*
X0353346D01*
X0352953Y0195563D01*
X0356889Y0195169D02*
X0355314D01*
X0356889Y0196744D01*
Y0197137D01*
X0356495Y0197531D01*
X0355708D01*
X0355314Y0197137D01*
X0347323Y0181783D02*
X0344961D01*
Y0182964D01*
X0345355Y0183358D01*
X0346142D01*
X0346536Y0182964D01*
Y0181783D01*
Y0182571D02*
X0347323Y0183358D01*
Y0185719D02*
Y0184145D01*
X0345748Y0185719D01*
X0345355D01*
X0344961Y0185326D01*
Y0184538D01*
X0345355Y0184145D01*
X0347323Y0188081D02*
Y0186506D01*
X0345748Y0188081D01*
X0345355D01*
X0344961Y0187687D01*
Y0186900D01*
X0345355Y0186506D01*
X0304961Y0141979D02*
X0302862D01*
X0303911D01*
Y0138831D01*
X0299713D02*
X0301812D01*
X0299713Y0140930D01*
Y0141455D01*
X0300238Y0141979D01*
X0301287D01*
X0301812Y0141455D01*
X0197353Y0145442D02*
X0197747Y0145048D01*
X0198534D01*
X0198927Y0145442D01*
Y0147016D01*
X0198534Y0147409D01*
X0197747D01*
X0197353Y0147016D01*
X0196566Y0147409D02*
X0195779D01*
X0196172D01*
Y0145048D01*
X0196566Y0145442D01*
X0194598Y0147016D02*
X0194204Y0147409D01*
X0193417D01*
X0193024Y0147016D01*
Y0145442D01*
X0193417Y0145048D01*
X0194204D01*
X0194598Y0145442D01*
Y0145835D01*
X0194204Y0146229D01*
X0193024D01*
X0197373Y0139950D02*
X0197766Y0139556D01*
X0198553D01*
X0198947Y0139950D01*
Y0141524D01*
X0198553Y0141917D01*
X0197766D01*
X0197373Y0141524D01*
X0196585Y0141917D02*
X0195798D01*
X0196192D01*
Y0139556D01*
X0196585Y0139950D01*
X0194618D02*
X0194224Y0139556D01*
X0193437D01*
X0193043Y0139950D01*
Y0140343D01*
X0193437Y0140737D01*
X0193043Y0141130D01*
Y0141524D01*
X0193437Y0141917D01*
X0194224D01*
X0194618Y0141524D01*
Y0141130D01*
X0194224Y0140737D01*
X0194618Y0140343D01*
Y0139950D01*
X0194224Y0140737D02*
X0193437D01*
X0197373Y0150934D02*
X0197766Y0150540D01*
X0198553D01*
X0198947Y0150934D01*
Y0152508D01*
X0198553Y0152902D01*
X0197766D01*
X0197373Y0152508D01*
X0196585Y0152902D02*
X0195798D01*
X0196192D01*
Y0150540D01*
X0196585Y0150934D01*
X0194618Y0150540D02*
X0193043D01*
Y0150934D01*
X0194618Y0152508D01*
Y0152902D01*
X0118597Y0190964D02*
X0119253Y0190308D01*
X0120564D01*
X0121221Y0190964D01*
Y0193588D01*
X0120564Y0194244D01*
X0119253D01*
X0118597Y0193588D01*
X0115317Y0190308D02*
X0116629D01*
X0117285Y0190964D01*
Y0193588D01*
X0116629Y0194244D01*
X0115317D01*
X0114661Y0193588D01*
Y0190964D01*
X0115317Y0190308D01*
X0113349Y0194244D02*
Y0190308D01*
X0110725Y0194244D01*
Y0190308D01*
X0106789Y0194244D02*
X0109413D01*
X0106789Y0191620D01*
Y0190964D01*
X0107445Y0190308D01*
X0108757D01*
X0109413Y0190964D01*
X0207323Y0157020D02*
X0204961D01*
Y0158200D01*
X0205355Y0158594D01*
X0206142D01*
X0206536Y0158200D01*
Y0157020D01*
Y0157807D02*
X0207323Y0158594D01*
X0205355Y0159381D02*
X0204961Y0159775D01*
Y0160562D01*
X0205355Y0160955D01*
X0205749D01*
X0206142Y0160562D01*
Y0160168D01*
Y0160562D01*
X0206536Y0160955D01*
X0206929D01*
X0207323Y0160562D01*
Y0159775D01*
X0206929Y0159381D01*
X0207323Y0161743D02*
Y0162530D01*
Y0162136D01*
X0204961D01*
X0205355Y0161743D01*
X0175630Y0132689D02*
X0177991D01*
Y0131508D01*
X0177598Y0131115D01*
X0176811D01*
X0176417Y0131508D01*
Y0132689D01*
Y0131902D02*
X0175630Y0131115D01*
X0177598Y0130327D02*
X0177991Y0129934D01*
Y0129147D01*
X0177598Y0128753D01*
X0177204D01*
X0176811Y0129147D01*
Y0129540D01*
Y0129147D01*
X0176417Y0128753D01*
X0176023D01*
X0175630Y0129147D01*
Y0129934D01*
X0176023Y0130327D01*
X0177598Y0127966D02*
X0177991Y0127573D01*
Y0126785D01*
X0177598Y0126392D01*
X0176023D01*
X0175630Y0126785D01*
Y0127573D01*
X0176023Y0127966D01*
X0177598D01*
X0332205Y0190878D02*
X0329843D01*
Y0192059D01*
X0330237Y0192452D01*
X0331024D01*
X0331418Y0192059D01*
Y0190878D01*
Y0191665D02*
X0332205Y0192452D01*
Y0193239D02*
Y0194027D01*
Y0193633D01*
X0329843D01*
X0330237Y0193239D01*
X0332205Y0196388D02*
X0329843D01*
X0331024Y0195207D01*
Y0196782D01*
X0325709Y0192256D02*
X0323347D01*
Y0193437D01*
X0323741Y0193830D01*
X0324528D01*
X0324921Y0193437D01*
Y0192256D01*
Y0193043D02*
X0325709Y0193830D01*
X0323347Y0194617D02*
Y0196192D01*
X0323741D01*
X0325315Y0194617D01*
X0325709D01*
X0319016Y0191862D02*
X0316654D01*
Y0193043D01*
X0317048Y0193437D01*
X0317835D01*
X0318229Y0193043D01*
Y0191862D01*
Y0192649D02*
X0319016Y0193437D01*
X0317048Y0194224D02*
X0316654Y0194617D01*
Y0195404D01*
X0317048Y0195798D01*
X0317442D01*
X0317835Y0195404D01*
Y0195011D01*
Y0195404D01*
X0318229Y0195798D01*
X0318622D01*
X0319016Y0195404D01*
Y0194617D01*
X0318622Y0194224D01*
X0312520Y0190878D02*
X0310158D01*
Y0192059D01*
X0310552Y0192452D01*
X0311339D01*
X0311733Y0192059D01*
Y0190878D01*
Y0191665D02*
X0312520Y0192452D01*
Y0193239D02*
Y0194027D01*
Y0193633D01*
X0310158D01*
X0310552Y0193239D01*
Y0195207D02*
X0310158Y0195601D01*
Y0196388D01*
X0310552Y0196782D01*
X0310945D01*
X0311339Y0196388D01*
Y0195994D01*
Y0196388D01*
X0311733Y0196782D01*
X0312126D01*
X0312520Y0196388D01*
Y0195601D01*
X0312126Y0195207D01*
X0295493Y0152394D02*
Y0154493D01*
Y0153443D01*
X0298642D01*
Y0155542D02*
Y0156592D01*
Y0156067D01*
X0295493D01*
X0296018Y0155542D01*
X0302219Y0192780D02*
X0301694Y0192255D01*
Y0191206D01*
X0302219Y0190681D01*
X0304318D01*
X0304842Y0191206D01*
Y0192255D01*
X0304318Y0192780D01*
X0301694Y0195929D02*
Y0193830D01*
X0303268D01*
X0302744Y0194879D01*
Y0195404D01*
X0303268Y0195929D01*
X0304318D01*
X0304842Y0195404D01*
Y0194354D01*
X0304318Y0193830D01*
X0293164Y0192977D02*
X0292639Y0192452D01*
Y0191403D01*
X0293164Y0190878D01*
X0295263D01*
X0295787Y0191403D01*
Y0192452D01*
X0295263Y0192977D01*
X0295787Y0195601D02*
X0292639D01*
X0294213Y0194027D01*
Y0196126D01*
X0280039Y0161153D02*
Y0163515D01*
X0281220D01*
X0281614Y0163121D01*
Y0162334D01*
X0281220Y0161941D01*
X0280039D01*
X0280826D02*
X0281614Y0161153D01*
X0282401D02*
X0283188D01*
X0282794D01*
Y0163515D01*
X0282401Y0163121D01*
X0285943Y0163515D02*
X0284369D01*
Y0162334D01*
X0285156Y0162728D01*
X0285549D01*
X0285943Y0162334D01*
Y0161547D01*
X0285549Y0161153D01*
X0284762D01*
X0284369Y0161547D01*
X0265209Y0197833D02*
X0264685Y0198357D01*
X0263635D01*
X0263110Y0197833D01*
Y0195733D01*
X0263635Y0195209D01*
X0264685D01*
X0265209Y0195733D01*
X0266259D02*
X0266784Y0195209D01*
X0267833D01*
X0268358Y0195733D01*
Y0197833D01*
X0267833Y0198357D01*
X0266784D01*
X0266259Y0197833D01*
Y0197308D01*
X0266784Y0196783D01*
X0268358D01*
X0252219Y0191796D02*
X0251694Y0191271D01*
Y0190222D01*
X0252219Y0189697D01*
X0254318D01*
X0254842Y0190222D01*
Y0191271D01*
X0254318Y0191796D01*
X0254842Y0192845D02*
Y0193895D01*
Y0193370D01*
X0251694D01*
X0252219Y0192845D01*
X0254842Y0195469D02*
Y0196519D01*
Y0195994D01*
X0251694D01*
X0252219Y0195469D01*
X0243482Y0191233D02*
X0242958Y0190708D01*
Y0189659D01*
X0243482Y0189134D01*
X0245582D01*
X0246106Y0189659D01*
Y0190708D01*
X0245582Y0191233D01*
X0246106Y0192282D02*
Y0193332D01*
Y0192807D01*
X0242958D01*
X0243482Y0192282D01*
Y0194906D02*
X0242958Y0195431D01*
Y0196481D01*
X0243482Y0197005D01*
X0245582D01*
X0246106Y0196481D01*
Y0195431D01*
X0245582Y0194906D01*
X0243482D01*
X0338504Y0191862D02*
X0336142D01*
Y0193043D01*
X0336536Y0193437D01*
X0337323D01*
X0337717Y0193043D01*
Y0191862D01*
Y0192649D02*
X0338504Y0193437D01*
X0336142Y0195798D02*
X0336536Y0195011D01*
X0337323Y0194224D01*
X0338110D01*
X0338504Y0194617D01*
Y0195404D01*
X0338110Y0195798D01*
X0337717D01*
X0337323Y0195404D01*
Y0194224D01*
X0318228Y0176999D02*
Y0174375D01*
X0318753Y0173850D01*
X0319803D01*
X0320327Y0174375D01*
Y0176999D01*
X0321377Y0173850D02*
X0322427D01*
X0321902D01*
Y0176999D01*
X0321377Y0176474D01*
X0338504Y0179461D02*
X0336142D01*
Y0180641D01*
X0336536Y0181035D01*
X0337323D01*
X0337717Y0180641D01*
Y0179461D01*
Y0180248D02*
X0338504Y0181035D01*
Y0181822D02*
Y0182609D01*
Y0182216D01*
X0336142D01*
X0336536Y0181822D01*
X0338504Y0183790D02*
Y0184577D01*
Y0184184D01*
X0336142D01*
X0336536Y0183790D01*
X0340669Y0170602D02*
Y0172964D01*
X0341850D01*
X0342244Y0172570D01*
Y0171783D01*
X0341850Y0171389D01*
X0340669D01*
X0341456D02*
X0342244Y0170602D01*
X0344605D02*
X0343031D01*
X0344605Y0172177D01*
Y0172570D01*
X0344212Y0172964D01*
X0343424D01*
X0343031Y0172570D01*
X0340669Y0164106D02*
Y0166468D01*
X0341850D01*
X0342244Y0166074D01*
Y0165287D01*
X0341850Y0164893D01*
X0340669D01*
X0341456D02*
X0342244Y0164106D01*
X0343031D02*
X0343818D01*
X0343424D01*
Y0166468D01*
X0343031Y0166074D01*
X0340079Y0158987D02*
Y0156626D01*
X0341260D01*
X0341653Y0157020D01*
Y0158594D01*
X0341260Y0158987D01*
X0340079D01*
X0344015Y0156626D02*
X0342440D01*
X0344015Y0158200D01*
Y0158594D01*
X0343621Y0158987D01*
X0342834D01*
X0342440Y0158594D01*
X0324463Y0155772D02*
X0323938Y0155247D01*
Y0154198D01*
X0324463Y0153673D01*
X0326562D01*
X0327087Y0154198D01*
Y0155247D01*
X0326562Y0155772D01*
X0327087Y0156822D02*
Y0157871D01*
Y0157347D01*
X0323938D01*
X0324463Y0156822D01*
X0316457Y0154066D02*
X0316064Y0153673D01*
Y0152886D01*
X0316457Y0152492D01*
X0318032D01*
X0318425Y0152886D01*
Y0153673D01*
X0318032Y0154066D01*
X0318425Y0156428D02*
Y0154854D01*
X0316851Y0156428D01*
X0316457D01*
X0316064Y0156034D01*
Y0155247D01*
X0316457Y0154854D01*
X0308386Y0157807D02*
X0307993Y0157413D01*
Y0156626D01*
X0308386Y0156232D01*
X0309961D01*
X0310354Y0156626D01*
Y0157413D01*
X0309961Y0157807D01*
X0308386Y0158594D02*
X0307993Y0158987D01*
Y0159774D01*
X0308386Y0160168D01*
X0308780D01*
X0309174Y0159774D01*
Y0159381D01*
Y0159774D01*
X0309567Y0160168D01*
X0309961D01*
X0310354Y0159774D01*
Y0158987D01*
X0309961Y0158594D01*
X0331024Y0140089D02*
Y0136941D01*
X0332598D01*
X0333123Y0137466D01*
Y0139565D01*
X0332598Y0140089D01*
X0331024D01*
X0336271D02*
X0334172D01*
Y0138515D01*
X0335222Y0139040D01*
X0335747D01*
X0336271Y0138515D01*
Y0137466D01*
X0335747Y0136941D01*
X0334697D01*
X0334172Y0137466D01*
X0347756Y0138516D02*
X0345394D01*
Y0139697D01*
X0345788Y0140090D01*
X0346575D01*
X0346969Y0139697D01*
Y0138516D01*
Y0139303D02*
X0347756Y0140090D01*
Y0140877D02*
Y0141664D01*
Y0141271D01*
X0345394D01*
X0345788Y0140877D01*
X0347756Y0144419D02*
Y0142845D01*
X0346182Y0144419D01*
X0345788D01*
X0345394Y0144026D01*
Y0143239D01*
X0345788Y0142845D01*
X0308780Y0139893D02*
Y0136744D01*
X0310354D01*
X0310879Y0137269D01*
Y0139368D01*
X0310354Y0139893D01*
X0308780D01*
X0313502Y0136744D02*
Y0139893D01*
X0311928Y0138318D01*
X0314027D01*
X0291261Y0132020D02*
X0294409D01*
Y0133594D01*
X0293885Y0134119D01*
X0291786D01*
X0291261Y0133594D01*
Y0132020D01*
X0291786Y0135168D02*
X0291261Y0135693D01*
Y0136743D01*
X0291786Y0137267D01*
X0292310D01*
X0292835Y0136743D01*
Y0136218D01*
Y0136743D01*
X0293360Y0137267D01*
X0293885D01*
X0294409Y0136743D01*
Y0135693D01*
X0293885Y0135168D01*
X0277284Y0158199D02*
Y0153476D01*
X0279645D01*
X0280432Y0154263D01*
Y0157412D01*
X0279645Y0158199D01*
X0277284D01*
X0285155D02*
X0283581Y0157412D01*
X0282006Y0155838D01*
Y0154263D01*
X0282793Y0153476D01*
X0284368D01*
X0285155Y0154263D01*
Y0155051D01*
X0284368Y0155838D01*
X0282006D01*
X0279842Y0168240D02*
Y0170602D01*
X0281023D01*
X0281417Y0170208D01*
Y0169421D01*
X0281023Y0169027D01*
X0279842D01*
X0280630D02*
X0281417Y0168240D01*
X0282204D02*
X0282991D01*
X0282597D01*
Y0170602D01*
X0282204Y0170208D01*
X0284172D02*
X0284565Y0170602D01*
X0285353D01*
X0285746Y0170208D01*
Y0168634D01*
X0285353Y0168240D01*
X0284565D01*
X0284172Y0168634D01*
Y0170208D01*
X0280827Y0175917D02*
Y0178279D01*
X0282008D01*
X0282401Y0177885D01*
Y0177098D01*
X0282008Y0176705D01*
X0280827D01*
X0281614D02*
X0282401Y0175917D01*
X0283188Y0176311D02*
X0283582Y0175917D01*
X0284369D01*
X0284763Y0176311D01*
Y0177885D01*
X0284369Y0178279D01*
X0283582D01*
X0283188Y0177885D01*
Y0177492D01*
X0283582Y0177098D01*
X0284763D01*
X0262520Y0181428D02*
Y0178804D01*
X0263045Y0178279D01*
X0264094D01*
X0264619Y0178804D01*
Y0181428D01*
X0267767Y0178279D02*
X0265668D01*
X0267767Y0180379D01*
Y0180903D01*
X0267243Y0181428D01*
X0266193D01*
X0265668Y0180903D01*
X0262965Y0161376D02*
X0262440Y0161901D01*
X0261391D01*
X0260866Y0161376D01*
Y0159277D01*
X0261391Y0158752D01*
X0262440D01*
X0262965Y0159277D01*
X0264015Y0161376D02*
X0264540Y0161901D01*
X0265589D01*
X0266114Y0161376D01*
Y0160851D01*
X0265589Y0160326D01*
X0266114Y0159801D01*
Y0159277D01*
X0265589Y0158752D01*
X0264540D01*
X0264015Y0159277D01*
Y0159801D01*
X0264540Y0160326D01*
X0264015Y0160851D01*
Y0161376D01*
X0264540Y0160326D02*
X0265589D01*
X0263162Y0153108D02*
X0262637Y0153633D01*
X0261588D01*
X0261063Y0153108D01*
Y0151009D01*
X0261588Y0150484D01*
X0262637D01*
X0263162Y0151009D01*
X0264212Y0153633D02*
X0266311D01*
Y0153108D01*
X0264212Y0151009D01*
Y0150484D01*
X0259343Y0144289D02*
X0258818Y0144814D01*
X0257769D01*
X0257244Y0144289D01*
Y0142190D01*
X0257769Y0141665D01*
X0258818D01*
X0259343Y0142190D01*
X0262492Y0144814D02*
X0261442Y0144289D01*
X0260393Y0143240D01*
Y0142190D01*
X0260917Y0141665D01*
X0261967D01*
X0262492Y0142190D01*
Y0142715D01*
X0261967Y0143240D01*
X0260393D01*
X0277284Y0147768D02*
Y0150129D01*
X0278464D01*
X0278858Y0149736D01*
Y0148948D01*
X0278464Y0148555D01*
X0277284D01*
X0278071D02*
X0278858Y0147768D01*
X0281219Y0150129D02*
X0279645D01*
Y0148948D01*
X0280432Y0149342D01*
X0280826D01*
X0281219Y0148948D01*
Y0148161D01*
X0280826Y0147768D01*
X0280038D01*
X0279645Y0148161D01*
X0215093Y0172268D02*
X0214568Y0171744D01*
Y0170694D01*
X0215093Y0170169D01*
X0217192D01*
X0217717Y0170694D01*
Y0171744D01*
X0217192Y0172268D01*
X0217717Y0173318D02*
Y0174367D01*
Y0173843D01*
X0214568D01*
X0215093Y0173318D01*
X0217717Y0177516D02*
X0214568D01*
X0216142Y0175942D01*
Y0178041D01*
X0189921Y0199538D02*
X0192807Y0195209D01*
Y0199538D02*
X0189921Y0195209D01*
X0194251D02*
X0195694D01*
X0194972D01*
Y0199538D01*
X0194251Y0198816D01*
X0191850Y0162610D02*
Y0164972D01*
X0193031D01*
X0193425Y0164578D01*
Y0163791D01*
X0193031Y0163397D01*
X0191850D01*
X0192638D02*
X0193425Y0162610D01*
X0195786D02*
X0194212D01*
X0195786Y0164184D01*
Y0164578D01*
X0195393Y0164972D01*
X0194605D01*
X0194212Y0164578D01*
X0197754Y0162610D02*
Y0164972D01*
X0196573Y0163791D01*
X0198148D01*
X0191850Y0156429D02*
Y0158791D01*
X0193031D01*
X0193425Y0158397D01*
Y0157610D01*
X0193031Y0157216D01*
X0191850D01*
X0192638D02*
X0193425Y0156429D01*
X0195786D02*
X0194212D01*
X0195786Y0158003D01*
Y0158397D01*
X0195393Y0158791D01*
X0194605D01*
X0194212Y0158397D01*
X0198148Y0158791D02*
X0196573D01*
Y0157610D01*
X0197360Y0158003D01*
X0197754D01*
X0198148Y0157610D01*
Y0156823D01*
X0197754Y0156429D01*
X0196967D01*
X0196573Y0156823D01*
X0233150Y0128515D02*
Y0127728D01*
Y0128122D01*
X0235118D01*
X0235512Y0127728D01*
Y0127334D01*
X0235118Y0126941D01*
X0235512Y0129302D02*
Y0130089D01*
Y0129696D01*
X0233150D01*
X0233544Y0129302D01*
X0225316Y0158813D02*
X0224791Y0159338D01*
X0223741D01*
X0223217Y0158813D01*
Y0156714D01*
X0223741Y0156189D01*
X0224791D01*
X0225316Y0156714D01*
X0226365Y0156189D02*
X0227415D01*
X0226890D01*
Y0159338D01*
X0226365Y0158813D01*
X0228989D02*
X0229514Y0159338D01*
X0230563D01*
X0231088Y0158813D01*
Y0158288D01*
X0230563Y0157763D01*
X0230038D01*
X0230563D01*
X0231088Y0157238D01*
Y0156714D01*
X0230563Y0156189D01*
X0229514D01*
X0228989Y0156714D01*
X0243663Y0148988D02*
X0248386D01*
Y0151350D01*
X0247599Y0152137D01*
X0244450D01*
X0243663Y0151350D01*
Y0148988D01*
X0248386Y0153711D02*
Y0155285D01*
Y0154498D01*
X0243663D01*
X0244450Y0153711D01*
X0218268Y0125878D02*
X0215906D01*
Y0127059D01*
X0216300Y0127452D01*
X0217087D01*
X0217481Y0127059D01*
Y0125878D01*
Y0126665D02*
X0218268Y0127452D01*
Y0128239D02*
Y0129026D01*
Y0128633D01*
X0215906D01*
X0216300Y0128239D01*
X0217874Y0130207D02*
X0218268Y0130601D01*
Y0131388D01*
X0217874Y0131781D01*
X0216300D01*
X0215906Y0131388D01*
Y0130601D01*
X0216300Y0130207D01*
X0216693D01*
X0217087Y0130601D01*
Y0131781D01*
X0243504Y0125760D02*
X0241143D01*
Y0126941D01*
X0241536Y0127334D01*
X0242323D01*
X0242717Y0126941D01*
Y0125760D01*
Y0126547D02*
X0243504Y0127334D01*
Y0128121D02*
Y0128908D01*
Y0128515D01*
X0241143D01*
X0241536Y0128121D01*
X0241143Y0130089D02*
Y0131663D01*
X0241536D01*
X0243110Y0130089D01*
X0243504D01*
X0248661Y0131744D02*
X0251023D01*
Y0130563D01*
X0250629Y0130170D01*
X0249842D01*
X0249449Y0130563D01*
Y0131744D01*
Y0130957D02*
X0248661Y0130170D01*
Y0129383D02*
Y0128595D01*
Y0128989D01*
X0251023D01*
X0250629Y0129383D01*
Y0127415D02*
X0251023Y0127021D01*
Y0126234D01*
X0250629Y0125840D01*
X0250236D01*
X0249842Y0126234D01*
X0249449Y0125840D01*
X0249055D01*
X0248661Y0126234D01*
Y0127021D01*
X0249055Y0127415D01*
X0249449D01*
X0249842Y0127021D01*
X0250236Y0127415D01*
X0250629D01*
X0249842Y0127021D02*
Y0126234D01*
X0224685Y0132295D02*
X0227046D01*
Y0131115D01*
X0226653Y0130721D01*
X0225866D01*
X0225472Y0131115D01*
Y0132295D01*
Y0131508D02*
X0224685Y0130721D01*
Y0128359D02*
Y0129934D01*
X0226259Y0128359D01*
X0226653D01*
X0227046Y0128753D01*
Y0129540D01*
X0226653Y0129934D01*
Y0127572D02*
X0227046Y0127179D01*
Y0126392D01*
X0226653Y0125998D01*
X0225079D01*
X0224685Y0126392D01*
Y0127179D01*
X0225079Y0127572D01*
X0226653D01*
X0268635Y0132019D02*
X0266535D01*
Y0130444D01*
X0267585D01*
X0266535D01*
Y0128870D01*
X0269684D02*
X0270734D01*
X0270209D01*
Y0132019D01*
X0269684Y0131494D01*
X0281417Y0184578D02*
X0281023Y0184972D01*
X0280236D01*
X0279842Y0184578D01*
Y0183004D01*
X0280236Y0182610D01*
X0281023D01*
X0281417Y0183004D01*
X0282204Y0182610D02*
X0282991D01*
X0282597D01*
Y0184972D01*
X0282204Y0184578D01*
X0285746Y0182610D02*
X0284172D01*
X0285746Y0184185D01*
Y0184578D01*
X0285353Y0184972D01*
X0284565D01*
X0284172Y0184578D01*
X0280827Y0195799D02*
Y0198161D01*
X0282008D01*
X0282401Y0197767D01*
Y0196980D01*
X0282008Y0196586D01*
X0280827D01*
X0281614D02*
X0282401Y0195799D01*
X0283188Y0197767D02*
X0283582Y0198161D01*
X0284369D01*
X0284763Y0197767D01*
Y0197373D01*
X0284369Y0196980D01*
X0284763Y0196586D01*
Y0196193D01*
X0284369Y0195799D01*
X0283582D01*
X0283188Y0196193D01*
Y0196586D01*
X0283582Y0196980D01*
X0283188Y0197373D01*
Y0197767D01*
X0283582Y0196980D02*
X0284369D01*
X0280827Y0189106D02*
Y0191468D01*
X0282008D01*
X0282401Y0191074D01*
Y0190287D01*
X0282008Y0189893D01*
X0280827D01*
X0281614D02*
X0282401Y0189106D01*
X0284369D02*
Y0191468D01*
X0283188Y0190287D01*
X0284763D01*
X0152568Y0199535D02*
X0154930D01*
Y0198355D01*
X0154536Y0197961D01*
X0153749D01*
X0153356Y0198355D01*
Y0199535D01*
Y0198748D02*
X0152568Y0197961D01*
Y0195600D02*
Y0197174D01*
X0154143Y0195600D01*
X0154536D01*
X0154930Y0195993D01*
Y0196780D01*
X0154536Y0197174D01*
X0152962Y0194813D02*
X0152568Y0194419D01*
Y0193632D01*
X0152962Y0193238D01*
X0154536D01*
X0154930Y0193632D01*
Y0194419D01*
X0154536Y0194813D01*
X0154143D01*
X0153749Y0194419D01*
Y0193238D01*
X0205836Y0176110D02*
X0208198D01*
Y0174929D01*
X0207804Y0174536D01*
X0207017D01*
X0206623Y0174929D01*
Y0176110D01*
Y0175323D02*
X0205836Y0174536D01*
Y0172175D02*
Y0173749D01*
X0207411Y0172175D01*
X0207804D01*
X0208198Y0172568D01*
Y0173355D01*
X0207804Y0173749D01*
Y0171387D02*
X0208198Y0170994D01*
Y0170207D01*
X0207804Y0169813D01*
X0207411D01*
X0207017Y0170207D01*
X0206623Y0169813D01*
X0206230D01*
X0205836Y0170207D01*
Y0170994D01*
X0206230Y0171387D01*
X0206623D01*
X0207017Y0170994D01*
X0207411Y0171387D01*
X0207804D01*
X0207017Y0170994D02*
Y0170207D01*
X0148150Y0193220D02*
X0145788D01*
Y0194401D01*
X0146182Y0194795D01*
X0146969D01*
X0147362Y0194401D01*
Y0193220D01*
Y0194008D02*
X0148150Y0194795D01*
X0146182Y0195582D02*
X0145788Y0195975D01*
Y0196763D01*
X0146182Y0197156D01*
X0146575D01*
X0146969Y0196763D01*
Y0196369D01*
Y0196763D01*
X0147362Y0197156D01*
X0147756D01*
X0148150Y0196763D01*
Y0195975D01*
X0147756Y0195582D01*
X0148150Y0199518D02*
Y0197943D01*
X0146575Y0199518D01*
X0146182D01*
X0145788Y0199124D01*
Y0198337D01*
X0146182Y0197943D01*
X0141575Y0193516D02*
X0139213D01*
Y0194696D01*
X0139607Y0195090D01*
X0140394D01*
X0140788Y0194696D01*
Y0193516D01*
Y0194303D02*
X0141575Y0195090D01*
Y0197451D02*
Y0195877D01*
X0140000Y0197451D01*
X0139607D01*
X0139213Y0197058D01*
Y0196271D01*
X0139607Y0195877D01*
X0139213Y0199813D02*
X0139607Y0199026D01*
X0140394Y0198239D01*
X0141181D01*
X0141575Y0198632D01*
Y0199419D01*
X0141181Y0199813D01*
X0140788D01*
X0140394Y0199419D01*
Y0198239D01*
X0134606Y0193752D02*
X0132245D01*
Y0194933D01*
X0132638Y0195326D01*
X0133426D01*
X0133819Y0194933D01*
Y0193752D01*
Y0194539D02*
X0134606Y0195326D01*
Y0197688D02*
Y0196113D01*
X0133032Y0197688D01*
X0132638D01*
X0132245Y0197294D01*
Y0196507D01*
X0132638Y0196113D01*
X0132245Y0198475D02*
Y0200049D01*
X0132638D01*
X0134213Y0198475D01*
X0134606D01*
X0168976Y0130878D02*
X0171338D01*
Y0129697D01*
X0170944Y0129304D01*
X0170157D01*
X0169764Y0129697D01*
Y0130878D01*
Y0130091D02*
X0168976Y0129304D01*
Y0126942D02*
Y0128516D01*
X0170551Y0126942D01*
X0170944D01*
X0171338Y0127336D01*
Y0128123D01*
X0170944Y0128516D01*
X0168976Y0126155D02*
Y0125368D01*
Y0125761D01*
X0171338D01*
X0170944Y0126155D01*
X0148819Y0123319D02*
X0146458D01*
Y0124500D01*
X0146851Y0124893D01*
X0147638D01*
X0148032Y0124500D01*
Y0123319D01*
Y0124106D02*
X0148819Y0124893D01*
Y0127255D02*
Y0125680D01*
X0147245Y0127255D01*
X0146851D01*
X0146458Y0126861D01*
Y0126074D01*
X0146851Y0125680D01*
Y0128042D02*
X0146458Y0128435D01*
Y0129223D01*
X0146851Y0129616D01*
X0147245D01*
X0147638Y0129223D01*
Y0128829D01*
Y0129223D01*
X0148032Y0129616D01*
X0148425D01*
X0148819Y0129223D01*
Y0128435D01*
X0148425Y0128042D01*
X0137890Y0125868D02*
X0137497Y0125474D01*
Y0124687D01*
X0137890Y0124293D01*
X0139465D01*
X0139858Y0124687D01*
Y0125474D01*
X0139465Y0125868D01*
X0139858Y0126655D02*
Y0127442D01*
Y0127048D01*
X0137497D01*
X0137890Y0126655D01*
X0137497Y0130197D02*
Y0128623D01*
X0138678D01*
X0138284Y0129410D01*
Y0129803D01*
X0138678Y0130197D01*
X0139465D01*
X0139858Y0129803D01*
Y0129016D01*
X0139465Y0128623D01*
X0191024Y0131154D02*
Y0133515D01*
X0192204D01*
X0192598Y0133121D01*
Y0132334D01*
X0192204Y0131941D01*
X0191024D01*
X0191811D02*
X0192598Y0131154D01*
X0193385Y0133121D02*
X0193779Y0133515D01*
X0194566D01*
X0194959Y0133121D01*
Y0132728D01*
X0194566Y0132334D01*
X0194172D01*
X0194566D01*
X0194959Y0131941D01*
Y0131547D01*
X0194566Y0131154D01*
X0193779D01*
X0193385Y0131547D01*
X0197321Y0133515D02*
X0195747D01*
Y0132334D01*
X0196534Y0132728D01*
X0196927D01*
X0197321Y0132334D01*
Y0131547D01*
X0196927Y0131154D01*
X0196140D01*
X0195747Y0131547D01*
X0190984Y0124224D02*
Y0126586D01*
X0192165D01*
X0192559Y0126192D01*
Y0125405D01*
X0192165Y0125012D01*
X0190984D01*
X0191771D02*
X0192559Y0124224D01*
X0193346Y0126192D02*
X0193739Y0126586D01*
X0194526D01*
X0194920Y0126192D01*
Y0125799D01*
X0194526Y0125405D01*
X0194133D01*
X0194526D01*
X0194920Y0125012D01*
Y0124618D01*
X0194526Y0124224D01*
X0193739D01*
X0193346Y0124618D01*
X0197281Y0126586D02*
X0196494Y0126192D01*
X0195707Y0125405D01*
Y0124618D01*
X0196101Y0124224D01*
X0196888D01*
X0197281Y0124618D01*
Y0125012D01*
X0196888Y0125405D01*
X0195707D01*
X0170557Y0197878D02*
X0169901Y0198534D01*
X0168589D01*
X0167933Y0197878D01*
Y0197222D01*
X0168589Y0196566D01*
X0169901D01*
X0170557Y0195910D01*
Y0195254D01*
X0169901Y0194598D01*
X0168589D01*
X0167933Y0195254D01*
X0171869Y0198534D02*
Y0194598D01*
X0173181Y0195910D01*
X0174493Y0194598D01*
Y0198534D01*
X0175805Y0194598D02*
X0177117D01*
X0176461D01*
Y0198534D01*
X0175805Y0197878D01*
X0115262Y0190964D02*
X0114606Y0190308D01*
X0113294D01*
X0112638Y0190964D01*
Y0193588D01*
X0113294Y0194244D01*
X0114606D01*
X0115262Y0193588D01*
X0118541Y0190308D02*
X0117229D01*
X0116574Y0190964D01*
Y0193588D01*
X0117229Y0194244D01*
X0118541D01*
X0119197Y0193588D01*
Y0190964D01*
X0118541Y0190308D01*
X0120509Y0194244D02*
Y0190308D01*
X0123133Y0194244D01*
Y0190308D01*
X0126413Y0194244D02*
Y0190308D01*
X0124445Y0192276D01*
X0127069D01*
X0172811Y0158442D02*
Y0161722D01*
X0172155Y0162378D01*
X0170843D01*
X0170187Y0161722D01*
Y0158442D01*
X0166252D02*
X0167563Y0159098D01*
X0168875Y0160410D01*
Y0161722D01*
X0168219Y0162378D01*
X0166907D01*
X0166252Y0161722D01*
Y0161066D01*
X0166907Y0160410D01*
X0168875D01*
X0155115Y0126005D02*
X0154721Y0125612D01*
Y0124825D01*
X0155115Y0124431D01*
X0156689D01*
X0157083Y0124825D01*
Y0125612D01*
X0156689Y0126005D01*
X0157083Y0128367D02*
Y0126793D01*
X0155508Y0128367D01*
X0155115D01*
X0154721Y0127973D01*
Y0127186D01*
X0155115Y0126793D01*
X0157083Y0130335D02*
X0154721D01*
X0155902Y0129154D01*
Y0130728D01*
X0162064Y0125946D02*
X0161670Y0125553D01*
Y0124766D01*
X0162064Y0124372D01*
X0163638D01*
X0164032Y0124766D01*
Y0125553D01*
X0163638Y0125946D01*
X0164032Y0126734D02*
Y0127521D01*
Y0127127D01*
X0161670D01*
X0162064Y0126734D01*
X0161670Y0130276D02*
X0162064Y0129489D01*
X0162851Y0128701D01*
X0163638D01*
X0164032Y0129095D01*
Y0129882D01*
X0163638Y0130276D01*
X0163244D01*
X0162851Y0129882D01*
Y0128701D01*
X0259222Y0169031D02*
X0258828Y0169424D01*
X0258041D01*
X0257648Y0169031D01*
Y0167457D01*
X0258041Y0167063D01*
X0258828D01*
X0259222Y0167457D01*
X0261583Y0167063D02*
X0260009D01*
X0261583Y0168637D01*
Y0169031D01*
X0261190Y0169424D01*
X0260403D01*
X0260009Y0169031D01*
X0262370D02*
X0262764Y0169424D01*
X0263551D01*
X0263945Y0169031D01*
Y0167457D01*
X0263551Y0167063D01*
X0262764D01*
X0262370Y0167457D01*
Y0169031D01*
X0191812Y0140720D02*
Y0138621D01*
Y0139671D01*
X0194961D01*
X0192337Y0137572D02*
X0191812Y0137047D01*
Y0135998D01*
X0192337Y0135473D01*
X0192862D01*
X0193386Y0135998D01*
Y0136522D01*
Y0135998D01*
X0193911Y0135473D01*
X0194436D01*
X0194961Y0135998D01*
Y0137047D01*
X0194436Y0137572D01*
X0217835Y0156626D02*
X0215473D01*
Y0157807D01*
X0215867Y0158200D01*
X0216654D01*
X0217048Y0157807D01*
Y0156626D01*
Y0157413D02*
X0217835Y0158200D01*
Y0158987D02*
Y0159775D01*
Y0159381D01*
X0215473D01*
X0215867Y0158987D01*
X0215473Y0162530D02*
X0215867Y0161742D01*
X0216654Y0160955D01*
X0217441D01*
X0217835Y0161349D01*
Y0162136D01*
X0217441Y0162530D01*
X0217048D01*
X0216654Y0162136D01*
Y0160955D01*
X0232362Y0191862D02*
X0230001D01*
Y0193043D01*
X0230394Y0193437D01*
X0231182D01*
X0231575Y0193043D01*
Y0191862D01*
Y0192649D02*
X0232362Y0193437D01*
X0230394Y0194224D02*
X0230001Y0194617D01*
Y0195404D01*
X0230394Y0195798D01*
X0230788D01*
X0231182Y0195404D01*
Y0195011D01*
Y0195404D01*
X0231575Y0195798D01*
X0231969D01*
X0232362Y0195404D01*
Y0194617D01*
X0231969Y0194224D01*
X0230001Y0196585D02*
Y0198159D01*
X0230394D01*
X0231969Y0196585D01*
X0232362D01*
X0224843Y0191862D02*
X0222481D01*
Y0193043D01*
X0222875Y0193437D01*
X0223662D01*
X0224055Y0193043D01*
Y0191862D01*
Y0192649D02*
X0224843Y0193437D01*
X0222875Y0194224D02*
X0222481Y0194617D01*
Y0195404D01*
X0222875Y0195798D01*
X0223268D01*
X0223662Y0195404D01*
Y0195011D01*
Y0195404D01*
X0224055Y0195798D01*
X0224449D01*
X0224843Y0195404D01*
Y0194617D01*
X0224449Y0194224D01*
X0224843Y0197766D02*
X0222481D01*
X0223662Y0196585D01*
Y0198159D01*
X0207047Y0200484D02*
X0209409D01*
Y0199303D01*
X0209015Y0198910D01*
X0208228D01*
X0207834Y0199303D01*
Y0200484D01*
Y0199697D02*
X0207047Y0198910D01*
X0209015Y0198123D02*
X0209409Y0197729D01*
Y0196942D01*
X0209015Y0196548D01*
X0208622D01*
X0208228Y0196942D01*
Y0197336D01*
Y0196942D01*
X0207834Y0196548D01*
X0207441D01*
X0207047Y0196942D01*
Y0197729D01*
X0207441Y0198123D01*
X0209015Y0195761D02*
X0209409Y0195368D01*
Y0194581D01*
X0209015Y0194187D01*
X0208622D01*
X0208228Y0194581D01*
X0207834Y0194187D01*
X0207441D01*
X0207047Y0194581D01*
Y0195368D01*
X0207441Y0195761D01*
X0207834D01*
X0208228Y0195368D01*
X0208622Y0195761D01*
X0209015D01*
X0208228Y0195368D02*
Y0194581D01*
X0217559Y0191862D02*
X0215198D01*
Y0193043D01*
X0215591Y0193437D01*
X0216378D01*
X0216772Y0193043D01*
Y0191862D01*
Y0192649D02*
X0217559Y0193437D01*
X0215591Y0194224D02*
X0215198Y0194617D01*
Y0195404D01*
X0215591Y0195798D01*
X0215985D01*
X0216378Y0195404D01*
Y0195011D01*
Y0195404D01*
X0216772Y0195798D01*
X0217165D01*
X0217559Y0195404D01*
Y0194617D01*
X0217165Y0194224D01*
X0215591Y0196585D02*
X0215198Y0196979D01*
Y0197766D01*
X0215591Y0198159D01*
X0215985D01*
X0216378Y0197766D01*
Y0197372D01*
Y0197766D01*
X0216772Y0198159D01*
X0217165D01*
X0217559Y0197766D01*
Y0196979D01*
X0217165Y0196585D01*
D13*
X0275709Y0158201D02*
G03*
X0275709Y0158201I-0000394J0000000D01*
G01*
X0180827Y0142118D02*
G03*
X0180827Y0142118I-0000394J0000000D01*
G01*
X0335157Y0160957D02*
X0348150D01*
Y0154657D02*
Y0160957D01*
X0335157Y0154657D02*
X0348150D01*
X0335157D02*
Y0160957D01*
X0336339Y0154657D02*
Y0160957D01*
X0119435Y0168870D02*
X0124433D01*
X0125433Y0167870D01*
Y0165871D01*
X0124433Y0164871D01*
X0119435D01*
X0125433Y0159873D02*
X0119435D01*
X0122434Y0162872D01*
Y0158873D01*
X0314747Y0117530D02*
X0313747Y0118530D01*
X0311748D01*
X0310748Y0117530D01*
Y0113531D01*
X0311748Y0112531D01*
X0313747D01*
X0314747Y0113531D01*
X0319745Y0118530D02*
X0317746D01*
X0316746Y0117530D01*
Y0113531D01*
X0317746Y0112531D01*
X0319745D01*
X0320745Y0113531D01*
Y0117530D01*
X0319745Y0118530D01*
X0322744Y0112531D02*
Y0118530D01*
X0326743Y0112531D01*
Y0118530D01*
X0328742Y0112531D02*
X0330742D01*
X0329742D01*
Y0118530D01*
X0328742Y0117530D01*
D14*
X0328071Y0141272D02*
G03*
X0328071Y0141272I-0000394J0000000D01*
G01*
X0250945Y0162374D02*
G03*
X0250945Y0162374I-0000394J0000000D01*
G01*
X0108819Y0140201D02*
Y0175634D01*
Y0140201D02*
X0154095D01*
Y0175634D01*
X0108819D02*
X0154095D01*
X0335059Y0104559D02*
Y0126016D01*
X0305138Y0104559D02*
Y0126016D01*
X0335059D01*
X0305138Y0104559D02*
X0335059D01*
X0294606Y0178278D02*
Y0172374D01*
X0298542D01*
X0300510D02*
X0302478D01*
X0301494D01*
Y0178278D01*
X0300510Y0177294D01*
X0241024Y0179144D02*
Y0173240D01*
X0244959D01*
X0250863D02*
X0246927D01*
X0250863Y0177176D01*
Y0178160D01*
X0249879Y0179144D01*
X0247911D01*
X0246927Y0178160D01*
D16*
X0192757Y0177492D02*
X0195381D01*
X0195905Y0178017D01*
Y0179066D01*
X0195381Y0179591D01*
X0192757D01*
Y0182740D02*
Y0180641D01*
X0194331D01*
X0193807Y0181690D01*
Y0182215D01*
X0194331Y0182740D01*
X0195381D01*
X0195905Y0182215D01*
Y0181166D01*
X0195381Y0180641D01*
X0222598Y0170444D02*
Y0167820D01*
X0223123Y0167295D01*
X0224173D01*
X0224697Y0167820D01*
Y0170444D01*
X0225747Y0169919D02*
X0226272Y0170444D01*
X0227321D01*
X0227846Y0169919D01*
Y0169394D01*
X0227321Y0168870D01*
X0226797D01*
X0227321D01*
X0227846Y0168345D01*
Y0167820D01*
X0227321Y0167295D01*
X0226272D01*
X0225747Y0167820D01*
D143*
X0322953Y0133398D02*
G03*
X0322953Y0133398I-0000394J0000000D01*
G01*
X0298150Y0145996D02*
G03*
X0298150Y0145996I-0000394J0000000D01*
G01*
D144*
X0225512Y0181940D02*
Y0179973D01*
X0226824D01*
X0227480Y0181612D02*
X0227808Y0181940D01*
X0228464D01*
X0228792Y0181612D01*
Y0181284D01*
X0228464Y0180956D01*
X0228136D01*
X0228464D01*
X0228792Y0180628D01*
Y0180300D01*
X0228464Y0179973D01*
X0227808D01*
X0227480Y0180300D01*
D145*
X0118347Y0179127D02*
X0118741Y0178733D01*
X0119528D01*
X0119921Y0179127D01*
Y0180701D01*
X0119528Y0181095D01*
X0118741D01*
X0118347Y0180701D01*
X0115986Y0181095D02*
X0117560D01*
X0115986Y0179520D01*
Y0179127D01*
X0116379Y0178733D01*
X0117166D01*
X0117560Y0179127D01*
X0115198Y0181095D02*
X0114411D01*
X0114805D01*
Y0178733D01*
X0115198Y0179127D01*
X0124389Y0182847D02*
X0124783Y0183241D01*
Y0184028D01*
X0124389Y0184421D01*
X0122815D01*
X0122421Y0184028D01*
Y0183241D01*
X0122815Y0182847D01*
X0122421Y0180485D02*
Y0182060D01*
X0123996Y0180485D01*
X0124389D01*
X0124783Y0180879D01*
Y0181666D01*
X0124389Y0182060D01*
X0122421Y0178124D02*
Y0179698D01*
X0123996Y0178124D01*
X0124389D01*
X0124783Y0178518D01*
Y0179305D01*
X0124389Y0179698D01*
X0111161Y0182808D02*
X0111554Y0183201D01*
Y0183988D01*
X0111161Y0184382D01*
X0109587D01*
X0109193Y0183988D01*
Y0183201D01*
X0109587Y0182808D01*
X0109193Y0180446D02*
Y0182020D01*
X0110767Y0180446D01*
X0111161D01*
X0111554Y0180840D01*
Y0181627D01*
X0111161Y0182020D01*
Y0179659D02*
X0111554Y0179265D01*
Y0178478D01*
X0111161Y0178085D01*
X0110767D01*
X0110374Y0178478D01*
Y0178872D01*
Y0178478D01*
X0109980Y0178085D01*
X0109587D01*
X0109193Y0178478D01*
Y0179265D01*
X0109587Y0179659D01*
D146*
X0298150Y0167187D02*
D03*
X0246142Y0168250D02*
D03*
M02*
