G04*
G04 #@! TF.GenerationSoftware,Altium Limited,Altium Designer,19.0.14 (431)*
G04*
G04 Layer_Color=16711935*
%FSAX25Y25*%
%MOIN*%
G70*
G01*
G75*
%ADD11C,0.00394*%
%ADD13C,0.01000*%
%ADD15C,0.00787*%
%ADD17C,0.00591*%
%ADD104C,0.01181*%
%ADD109C,0.01968*%
%ADD140C,0.00472*%
%ADD141R,0.16535X0.02224*%
D11*
X0295748Y0162965D02*
G03*
X0295748Y0162965I-0039567J0000000D01*
G01*
X0199577Y0184551D02*
G03*
X0199577Y0184551I-0000943J0000000D01*
G01*
X0253805Y0174990D02*
Y0186490D01*
X0259305D01*
Y0174990D02*
Y0186490D01*
X0253805Y0174990D02*
X0259305D01*
X0214567Y0154657D02*
Y0166469D01*
X0202756Y0154657D02*
X0214567D01*
X0202756D02*
Y0166469D01*
X0214567D01*
X0214411Y0146396D02*
Y0151896D01*
X0202911D02*
X0214411D01*
X0202911Y0146396D02*
Y0151896D01*
Y0146396D02*
X0214411D01*
X0224882Y0189854D02*
X0236693D01*
X0224882D02*
Y0201665D01*
X0236693D01*
Y0189854D02*
Y0201665D01*
X0248077Y0202100D02*
X0253577D01*
X0248077Y0190600D02*
Y0202100D01*
Y0190600D02*
X0253577D01*
Y0202100D01*
X0283071Y0139461D02*
Y0145366D01*
X0272047D02*
X0283071D01*
X0272047Y0139461D02*
Y0145366D01*
Y0139461D02*
X0283071D01*
X0200927Y0143659D02*
Y0149159D01*
X0189427D02*
X0200927D01*
X0189427Y0143659D02*
Y0149159D01*
Y0143659D02*
X0200927D01*
X0200947Y0138167D02*
Y0143667D01*
X0189447D02*
X0200947D01*
X0189447Y0138167D02*
Y0143667D01*
Y0138167D02*
X0200947D01*
X0200947Y0149152D02*
Y0154652D01*
X0189447D02*
X0200947D01*
X0189447Y0149152D02*
Y0154652D01*
Y0149152D02*
X0200947D01*
X0123543Y0183102D02*
Y0195031D01*
X0123583Y0195071D01*
X0110236D02*
X0123583D01*
X0110236Y0183181D02*
Y0195071D01*
Y0183181D02*
X0110315Y0183102D01*
X0123543D01*
X0234409Y0177020D02*
Y0188043D01*
X0228504Y0177020D02*
X0234409D01*
X0228504D02*
Y0188043D01*
X0234409D01*
X0203189Y0124224D02*
Y0135248D01*
X0197283Y0124224D02*
X0203189D01*
X0197283D02*
Y0135248D01*
X0203189D01*
X0328268Y0188516D02*
Y0199539D01*
X0334173D01*
Y0188516D02*
Y0199539D01*
X0328268Y0188516D02*
X0334173D01*
X0327480D02*
Y0199539D01*
X0321575Y0188516D02*
X0327480D01*
X0321575D02*
Y0199539D01*
X0327480D01*
X0314882Y0188516D02*
Y0199539D01*
X0320787D01*
Y0188516D02*
Y0199539D01*
X0314882Y0188516D02*
X0320787D01*
X0308189D02*
Y0199539D01*
X0314094D01*
Y0188516D02*
Y0199539D01*
X0308189Y0188516D02*
X0314094D01*
X0306417Y0166075D02*
Y0182610D01*
X0289882Y0166075D02*
Y0182610D01*
X0306417D01*
X0289882Y0166075D02*
X0306417D01*
X0299331Y0186153D02*
Y0200327D01*
X0307205D01*
Y0186153D02*
Y0200327D01*
X0299331Y0186153D02*
X0307205D01*
X0290276D02*
Y0200327D01*
X0298150D01*
Y0186153D02*
Y0200327D01*
X0290276Y0186153D02*
X0298150D01*
X0277284Y0165484D02*
X0288307D01*
Y0159579D02*
Y0165484D01*
X0277284Y0159579D02*
X0288307D01*
X0277284D02*
Y0165484D01*
X0259921Y0184972D02*
X0274095D01*
X0259921D02*
Y0192847D01*
X0274095D01*
Y0184972D02*
Y0192847D01*
X0259842Y0193004D02*
X0274016D01*
X0259842D02*
Y0200878D01*
X0274016D01*
Y0193004D02*
Y0200878D01*
X0334567Y0188516D02*
Y0199539D01*
X0340472D01*
Y0188516D02*
Y0199539D01*
X0334567Y0188516D02*
X0340472D01*
X0334567Y0176311D02*
Y0187335D01*
X0340472D01*
Y0176311D02*
Y0187335D01*
X0334567Y0176311D02*
X0340472D01*
X0337126Y0169028D02*
X0348150D01*
X0337126D02*
Y0174933D01*
X0348150D01*
Y0169028D02*
Y0174933D01*
X0337126Y0168240D02*
X0348150D01*
Y0162335D02*
Y0168240D01*
X0337126Y0162335D02*
X0348150D01*
X0337126D02*
Y0168240D01*
X0329252Y0148358D02*
Y0162531D01*
X0321378Y0148358D02*
X0329252D01*
X0321378D02*
Y0162531D01*
X0329252D01*
X0314691Y0160407D02*
X0320191D01*
X0314691Y0148907D02*
Y0160407D01*
Y0148907D02*
X0320191D01*
Y0160407D01*
X0306423Y0163951D02*
X0311923D01*
X0306423Y0152451D02*
Y0163951D01*
Y0152451D02*
X0311923D01*
Y0163951D01*
X0326496Y0134579D02*
Y0142453D01*
X0340669Y0134579D02*
Y0142453D01*
X0326496D02*
X0340669D01*
X0326496Y0134579D02*
X0340669D01*
X0349528Y0135760D02*
Y0146783D01*
X0343622Y0135760D02*
X0349528D01*
X0343622D02*
Y0146783D01*
X0349528D01*
X0317441Y0133201D02*
Y0143831D01*
X0302972D02*
X0320098D01*
X0302972Y0133201D02*
X0320098D01*
X0302972D02*
Y0143831D01*
X0320098Y0133201D02*
Y0143831D01*
X0287323Y0140878D02*
X0297953D01*
X0287323Y0126409D02*
Y0143535D01*
X0297953Y0126409D02*
Y0143535D01*
X0287323Y0126409D02*
X0297953D01*
X0287323Y0143535D02*
X0297953D01*
X0274134Y0152295D02*
Y0159382D01*
X0288307Y0152295D02*
Y0159382D01*
X0274134D02*
X0288307D01*
X0274134Y0152295D02*
X0288307D01*
X0277284Y0166272D02*
X0288307D01*
X0277284D02*
Y0172177D01*
X0288307D01*
Y0166272D02*
Y0172177D01*
X0277284Y0174146D02*
X0288307D01*
X0277284D02*
Y0180051D01*
X0288307D01*
Y0174146D02*
Y0180051D01*
X0252520Y0166311D02*
Y0182846D01*
X0235984Y0166311D02*
Y0182846D01*
X0252520D01*
X0235984Y0166311D02*
X0252520D01*
X0243976Y0162571D02*
X0258150D01*
Y0154697D02*
Y0162571D01*
X0243976Y0154697D02*
X0258150D01*
X0243976D02*
Y0162571D01*
X0243937Y0154500D02*
X0258110D01*
Y0146626D02*
Y0154500D01*
X0243937Y0146626D02*
X0258110D01*
X0243937D02*
Y0154500D01*
X0243858Y0146429D02*
X0258032D01*
Y0138555D02*
Y0146429D01*
X0243858Y0138555D02*
X0258032D01*
X0243858D02*
Y0146429D01*
X0273740Y0152098D02*
X0284764D01*
Y0146193D02*
Y0152098D01*
X0273740Y0146193D02*
X0284764D01*
X0273740D02*
Y0152098D01*
X0213937Y0168555D02*
X0228110D01*
X0213937D02*
Y0176429D01*
X0228110D01*
Y0168555D02*
Y0176429D01*
X0188031Y0186153D02*
X0200236D01*
X0188031Y0173949D02*
X0200236D01*
Y0186153D01*
X0188031Y0173949D02*
Y0186153D01*
X0185268Y0201508D02*
X0185268Y0192847D01*
X0201268Y0192847D01*
X0201268Y0201508D01*
X0185268D02*
X0201268D01*
X0189685Y0166744D02*
X0200709D01*
Y0160839D02*
Y0166744D01*
X0189685Y0160839D02*
X0200709Y0160839D01*
X0189685Y0160839D02*
X0189685Y0166744D01*
X0189685Y0160760D02*
X0200709Y0160760D01*
X0200709Y0154854D02*
X0200709Y0160760D01*
X0189685Y0154854D02*
X0200709D01*
X0189685D02*
X0189685Y0160760D01*
X0259882Y0139106D02*
X0271693D01*
X0259882Y0163516D02*
X0271693D01*
X0259882Y0139106D02*
Y0163516D01*
X0271693Y0139106D02*
Y0163516D01*
X0220236Y0137650D02*
X0231260D01*
X0220236D02*
Y0143555D01*
X0231260D01*
Y0137650D02*
Y0143555D01*
X0234488Y0123122D02*
Y0134146D01*
X0228583Y0123122D02*
X0234488D01*
X0228583D02*
Y0134146D01*
X0234488D01*
X0221732Y0123201D02*
Y0134224D01*
X0227638D01*
Y0123201D02*
Y0134224D01*
X0221732Y0123201D02*
X0227638D01*
X0231221Y0143555D02*
X0242244D01*
Y0137650D02*
Y0143555D01*
X0231221Y0137650D02*
X0242244D01*
X0231221D02*
Y0143555D01*
X0256299Y0122768D02*
X0280709D01*
X0256299Y0138516D02*
X0280709D01*
Y0122768D02*
Y0138516D01*
X0256299Y0122768D02*
Y0138516D01*
X0288545Y0181041D02*
Y0186541D01*
X0277045D02*
X0288545D01*
X0277045Y0181041D02*
Y0186541D01*
Y0181041D02*
X0288545D01*
X0277284Y0194224D02*
X0288307D01*
X0277284D02*
Y0200130D01*
X0288307D01*
Y0194224D02*
Y0200130D01*
X0277284Y0187531D02*
X0288307D01*
X0277284D02*
Y0193437D01*
X0288307D01*
Y0187531D02*
Y0193437D01*
X0150787Y0190957D02*
Y0201980D01*
X0156693D01*
Y0190957D02*
Y0201980D01*
X0150787Y0190957D02*
X0156693D01*
X0240748Y0190681D02*
Y0201705D01*
X0246654Y0201705D01*
Y0190681D02*
Y0201705D01*
X0240748Y0190681D02*
X0246654D01*
X0149921Y0190957D02*
Y0201980D01*
X0144016Y0190957D02*
X0149921D01*
X0144016D02*
Y0201980D01*
X0149921D01*
X0143150Y0190957D02*
Y0201980D01*
X0137244Y0190957D02*
X0143150D01*
X0137244D02*
Y0201980D01*
X0143150D01*
X0136378Y0190996D02*
Y0202020D01*
X0130472Y0190996D02*
X0136378D01*
X0130472D02*
Y0202020D01*
X0136378D01*
X0195945Y0124185D02*
Y0135209D01*
X0190039Y0124185D02*
X0195945D01*
X0190039D02*
Y0135209D01*
X0195945D01*
X0166929Y0124106D02*
Y0135130D01*
X0172835D01*
Y0124106D02*
Y0135130D01*
X0166929Y0124106D02*
X0172835D01*
X0159140Y0123671D02*
Y0135171D01*
X0164640D01*
Y0123671D02*
Y0135171D01*
X0159140Y0123671D02*
X0164640D01*
X0228268Y0177020D02*
Y0188043D01*
X0222362Y0177020D02*
X0228268D01*
X0222362D02*
Y0188043D01*
X0228268D01*
X0135583Y0122768D02*
X0157630D01*
X0135583D02*
Y0135366D01*
X0157630D01*
Y0122768D02*
Y0135366D01*
X0116791Y0179283D02*
X0124469D01*
X0116791Y0175150D02*
X0124469D01*
X0116791D02*
Y0179283D01*
X0124469Y0175150D02*
Y0179283D01*
X0128799Y0171606D02*
Y0179283D01*
X0124665Y0171606D02*
Y0179283D01*
X0128799D01*
X0124665Y0171606D02*
X0128799D01*
X0116791D02*
Y0179283D01*
X0112657Y0171606D02*
Y0179283D01*
X0116791D01*
X0112657Y0171606D02*
X0116791D01*
X0110315Y0183102D02*
X0123543D01*
X0123622Y0183181D01*
Y0195071D01*
X0110276D02*
X0123622D01*
X0110276D02*
X0110315Y0195031D01*
Y0183102D02*
Y0195031D01*
X0132311Y0140378D02*
X0181811D01*
X0132311D02*
Y0186378D01*
X0181811D01*
Y0140378D02*
Y0186378D01*
X0176364Y0123809D02*
X0181864D01*
Y0135309D01*
X0176364D02*
X0181864D01*
X0176364Y0123809D02*
Y0135309D01*
X0183313Y0123750D02*
X0188813D01*
Y0135250D01*
X0183313D02*
X0188813D01*
X0183313Y0123750D02*
Y0135250D01*
X0253805Y0174994D02*
X0259305D01*
X0253805Y0163494D02*
Y0174994D01*
Y0163494D02*
X0259305D01*
Y0174994D01*
X0213189Y0188122D02*
X0219094D01*
X0213189Y0177098D02*
Y0188122D01*
Y0177098D02*
X0219094D01*
Y0188122D01*
X0221614Y0154815D02*
X0227520D01*
Y0165839D01*
X0221614D02*
X0227520D01*
X0221614Y0154815D02*
Y0165839D01*
X0213976Y0190602D02*
X0219882D01*
Y0201626D01*
X0213976D02*
X0219882D01*
X0213976Y0190602D02*
Y0201626D01*
X0201929D02*
X0207835D01*
X0201929Y0190602D02*
Y0201626D01*
Y0190602D02*
X0207835D01*
Y0201626D01*
X0207953Y0190602D02*
X0213858D01*
Y0201626D01*
X0207953D02*
X0213858D01*
X0207953Y0190602D02*
Y0201626D01*
X0255587Y0178565D02*
X0255194Y0178171D01*
Y0177384D01*
X0255587Y0176990D01*
X0257161D01*
X0257555Y0177384D01*
Y0178171D01*
X0257161Y0178565D01*
X0257555Y0179352D02*
Y0180139D01*
Y0179745D01*
X0255194D01*
X0255587Y0179352D01*
X0257555Y0181319D02*
Y0182107D01*
Y0181713D01*
X0255194D01*
X0255587Y0181319D01*
X0243505Y0126784D02*
Y0128883D01*
Y0127833D01*
X0246654D01*
Y0132031D02*
Y0129932D01*
X0244554Y0132031D01*
X0244030D01*
X0243505Y0131506D01*
Y0130457D01*
X0244030Y0129932D01*
X0210837Y0148178D02*
X0211231Y0147784D01*
X0212018D01*
X0212411Y0148178D01*
Y0149752D01*
X0212018Y0150146D01*
X0211231D01*
X0210837Y0149752D01*
X0208476Y0150146D02*
X0210050D01*
X0208476Y0148571D01*
Y0148178D01*
X0208869Y0147784D01*
X0209656D01*
X0210050Y0148178D01*
X0206114Y0147784D02*
X0207688D01*
Y0148965D01*
X0206901Y0148571D01*
X0206508D01*
X0206114Y0148965D01*
Y0149752D01*
X0206508Y0150146D01*
X0207295D01*
X0207688Y0149752D01*
X0251795Y0198526D02*
X0252188Y0198920D01*
Y0199707D01*
X0251795Y0200100D01*
X0250220D01*
X0249827Y0199707D01*
Y0198920D01*
X0250220Y0198526D01*
X0249827Y0197739D02*
Y0196952D01*
Y0197345D01*
X0252188D01*
X0251795Y0197739D01*
Y0195771D02*
X0252188Y0195378D01*
Y0194590D01*
X0251795Y0194197D01*
X0251401D01*
X0251008Y0194590D01*
Y0194984D01*
Y0194590D01*
X0250614Y0194197D01*
X0250220D01*
X0249827Y0194590D01*
Y0195378D01*
X0250220Y0195771D01*
X0281890Y0143988D02*
Y0141627D01*
X0280709D01*
X0280315Y0142020D01*
Y0142807D01*
X0280709Y0143201D01*
X0281890D01*
X0281103D02*
X0280315Y0143988D01*
X0277954D02*
X0279528D01*
X0277954Y0142414D01*
Y0142020D01*
X0278348Y0141627D01*
X0279135D01*
X0279528Y0142020D01*
X0275593Y0143988D02*
X0277167D01*
X0275593Y0142414D01*
Y0142020D01*
X0275986Y0141627D01*
X0276773D01*
X0277167Y0142020D01*
X0197353Y0145442D02*
X0197747Y0145048D01*
X0198534D01*
X0198927Y0145442D01*
Y0147016D01*
X0198534Y0147409D01*
X0197747D01*
X0197353Y0147016D01*
X0196566Y0147409D02*
X0195779D01*
X0196172D01*
Y0145048D01*
X0196566Y0145442D01*
X0194598Y0147016D02*
X0194204Y0147409D01*
X0193417D01*
X0193024Y0147016D01*
Y0145442D01*
X0193417Y0145048D01*
X0194204D01*
X0194598Y0145442D01*
Y0145835D01*
X0194204Y0146229D01*
X0193024D01*
X0197373Y0139950D02*
X0197766Y0139556D01*
X0198553D01*
X0198947Y0139950D01*
Y0141524D01*
X0198553Y0141917D01*
X0197766D01*
X0197373Y0141524D01*
X0196585Y0141917D02*
X0195798D01*
X0196192D01*
Y0139556D01*
X0196585Y0139950D01*
X0194618D02*
X0194224Y0139556D01*
X0193437D01*
X0193043Y0139950D01*
Y0140343D01*
X0193437Y0140737D01*
X0193043Y0141130D01*
Y0141524D01*
X0193437Y0141917D01*
X0194224D01*
X0194618Y0141524D01*
Y0141130D01*
X0194224Y0140737D01*
X0194618Y0140343D01*
Y0139950D01*
X0194224Y0140737D02*
X0193437D01*
X0197373Y0150934D02*
X0197766Y0150540D01*
X0198553D01*
X0198947Y0150934D01*
Y0152508D01*
X0198553Y0152902D01*
X0197766D01*
X0197373Y0152508D01*
X0196585Y0152902D02*
X0195798D01*
X0196192D01*
Y0150540D01*
X0196585Y0150934D01*
X0194618Y0150540D02*
X0193043D01*
Y0150934D01*
X0194618Y0152508D01*
Y0152902D01*
X0118636Y0186673D02*
X0119292Y0186017D01*
X0120604D01*
X0121260Y0186673D01*
Y0189297D01*
X0120604Y0189953D01*
X0119292D01*
X0118636Y0189297D01*
X0115356Y0186017D02*
X0116668D01*
X0117324Y0186673D01*
Y0189297D01*
X0116668Y0189953D01*
X0115356D01*
X0114700Y0189297D01*
Y0186673D01*
X0115356Y0186017D01*
X0113388Y0189953D02*
Y0186017D01*
X0110765Y0189953D01*
Y0186017D01*
X0106829Y0189953D02*
X0109453D01*
X0106829Y0187329D01*
Y0186673D01*
X0107485Y0186017D01*
X0108797D01*
X0109453Y0186673D01*
X0229882Y0186862D02*
X0232243D01*
Y0185681D01*
X0231850Y0185288D01*
X0231063D01*
X0230669Y0185681D01*
Y0186862D01*
Y0186075D02*
X0229882Y0185288D01*
X0231850Y0184501D02*
X0232243Y0184107D01*
Y0183320D01*
X0231850Y0182926D01*
X0231456D01*
X0231063Y0183320D01*
Y0183714D01*
Y0183320D01*
X0230669Y0182926D01*
X0230276D01*
X0229882Y0183320D01*
Y0184107D01*
X0230276Y0184501D01*
X0229882Y0182139D02*
Y0181352D01*
Y0181746D01*
X0232243D01*
X0231850Y0182139D01*
X0198661Y0134067D02*
X0201023D01*
Y0132886D01*
X0200629Y0132493D01*
X0199842D01*
X0199449Y0132886D01*
Y0134067D01*
Y0133280D02*
X0198661Y0132493D01*
X0200629Y0131705D02*
X0201023Y0131312D01*
Y0130525D01*
X0200629Y0130131D01*
X0200236D01*
X0199842Y0130525D01*
Y0130918D01*
Y0130525D01*
X0199449Y0130131D01*
X0199055D01*
X0198661Y0130525D01*
Y0131312D01*
X0199055Y0131705D01*
X0200629Y0129344D02*
X0201023Y0128951D01*
Y0128163D01*
X0200629Y0127770D01*
X0199055D01*
X0198661Y0128163D01*
Y0128951D01*
X0199055Y0129344D01*
X0200629D01*
X0332205Y0190878D02*
X0329843D01*
Y0192059D01*
X0330237Y0192452D01*
X0331024D01*
X0331418Y0192059D01*
Y0190878D01*
Y0191665D02*
X0332205Y0192452D01*
Y0193239D02*
Y0194027D01*
Y0193633D01*
X0329843D01*
X0330237Y0193239D01*
X0332205Y0196388D02*
X0329843D01*
X0331024Y0195207D01*
Y0196782D01*
X0325709Y0192256D02*
X0323347D01*
Y0193437D01*
X0323741Y0193830D01*
X0324528D01*
X0324921Y0193437D01*
Y0192256D01*
Y0193043D02*
X0325709Y0193830D01*
X0323347Y0194617D02*
Y0196192D01*
X0323741D01*
X0325315Y0194617D01*
X0325709D01*
X0319016Y0191862D02*
X0316654D01*
Y0193043D01*
X0317048Y0193437D01*
X0317835D01*
X0318229Y0193043D01*
Y0191862D01*
Y0192649D02*
X0319016Y0193437D01*
X0317048Y0194224D02*
X0316654Y0194617D01*
Y0195404D01*
X0317048Y0195798D01*
X0317442D01*
X0317835Y0195404D01*
Y0195011D01*
Y0195404D01*
X0318229Y0195798D01*
X0318622D01*
X0319016Y0195404D01*
Y0194617D01*
X0318622Y0194224D01*
X0312520Y0190878D02*
X0310158D01*
Y0192059D01*
X0310552Y0192452D01*
X0311339D01*
X0311733Y0192059D01*
Y0190878D01*
Y0191665D02*
X0312520Y0192452D01*
Y0193239D02*
Y0194027D01*
Y0193633D01*
X0310158D01*
X0310552Y0193239D01*
Y0195207D02*
X0310158Y0195601D01*
Y0196388D01*
X0310552Y0196782D01*
X0310945D01*
X0311339Y0196388D01*
Y0195994D01*
Y0196388D01*
X0311733Y0196782D01*
X0312126D01*
X0312520Y0196388D01*
Y0195601D01*
X0312126Y0195207D01*
X0295493Y0152394D02*
Y0154493D01*
Y0153443D01*
X0298642D01*
Y0155542D02*
Y0156592D01*
Y0156067D01*
X0295493D01*
X0296018Y0155542D01*
X0302219Y0192780D02*
X0301694Y0192255D01*
Y0191206D01*
X0302219Y0190681D01*
X0304318D01*
X0304842Y0191206D01*
Y0192255D01*
X0304318Y0192780D01*
X0301694Y0195929D02*
Y0193830D01*
X0303268D01*
X0302744Y0194879D01*
Y0195404D01*
X0303268Y0195929D01*
X0304318D01*
X0304842Y0195404D01*
Y0194354D01*
X0304318Y0193830D01*
X0293164Y0192977D02*
X0292639Y0192452D01*
Y0191403D01*
X0293164Y0190878D01*
X0295263D01*
X0295787Y0191403D01*
Y0192452D01*
X0295263Y0192977D01*
X0295787Y0195601D02*
X0292639D01*
X0294213Y0194027D01*
Y0196126D01*
X0280039Y0161153D02*
Y0163515D01*
X0281220D01*
X0281614Y0163121D01*
Y0162334D01*
X0281220Y0161941D01*
X0280039D01*
X0280826D02*
X0281614Y0161153D01*
X0282401D02*
X0283188D01*
X0282794D01*
Y0163515D01*
X0282401Y0163121D01*
X0285943Y0163515D02*
X0284369D01*
Y0162334D01*
X0285156Y0162728D01*
X0285549D01*
X0285943Y0162334D01*
Y0161547D01*
X0285549Y0161153D01*
X0284762D01*
X0284369Y0161547D01*
X0266745Y0189959D02*
X0266220Y0190483D01*
X0265170D01*
X0264646Y0189959D01*
Y0187859D01*
X0265170Y0187335D01*
X0266220D01*
X0266745Y0187859D01*
X0267794D02*
X0268319Y0187335D01*
X0269369D01*
X0269893Y0187859D01*
Y0189959D01*
X0269369Y0190483D01*
X0268319D01*
X0267794Y0189959D01*
Y0189434D01*
X0268319Y0188909D01*
X0269893D01*
X0269330Y0195817D02*
X0269855Y0195292D01*
X0270904D01*
X0271429Y0195817D01*
Y0197916D01*
X0270904Y0198441D01*
X0269855D01*
X0269330Y0197916D01*
X0268281Y0198441D02*
X0267231D01*
X0267756D01*
Y0195292D01*
X0268281Y0195817D01*
X0265657D02*
X0265132Y0195292D01*
X0264082D01*
X0263558Y0195817D01*
Y0197916D01*
X0264082Y0198441D01*
X0265132D01*
X0265657Y0197916D01*
Y0195817D01*
X0338504Y0191862D02*
X0336142D01*
Y0193043D01*
X0336536Y0193437D01*
X0337323D01*
X0337717Y0193043D01*
Y0191862D01*
Y0192649D02*
X0338504Y0193437D01*
X0336142Y0195798D02*
X0336536Y0195011D01*
X0337323Y0194224D01*
X0338110D01*
X0338504Y0194617D01*
Y0195404D01*
X0338110Y0195798D01*
X0337717D01*
X0337323Y0195404D01*
Y0194224D01*
X0318228Y0176999D02*
Y0174375D01*
X0318753Y0173850D01*
X0319803D01*
X0320327Y0174375D01*
Y0176999D01*
X0321377Y0173850D02*
X0322427D01*
X0321902D01*
Y0176999D01*
X0321377Y0176474D01*
X0338504Y0179461D02*
X0336142D01*
Y0180641D01*
X0336536Y0181035D01*
X0337323D01*
X0337717Y0180641D01*
Y0179461D01*
Y0180248D02*
X0338504Y0181035D01*
Y0181822D02*
Y0182609D01*
Y0182216D01*
X0336142D01*
X0336536Y0181822D01*
X0338504Y0183790D02*
Y0184577D01*
Y0184184D01*
X0336142D01*
X0336536Y0183790D01*
X0340669Y0170602D02*
Y0172964D01*
X0341850D01*
X0342244Y0172570D01*
Y0171783D01*
X0341850Y0171389D01*
X0340669D01*
X0341456D02*
X0342244Y0170602D01*
X0344605D02*
X0343031D01*
X0344605Y0172177D01*
Y0172570D01*
X0344212Y0172964D01*
X0343424D01*
X0343031Y0172570D01*
X0340669Y0164106D02*
Y0166468D01*
X0341850D01*
X0342244Y0166074D01*
Y0165287D01*
X0341850Y0164893D01*
X0340669D01*
X0341456D02*
X0342244Y0164106D01*
X0343031D02*
X0343818D01*
X0343424D01*
Y0166468D01*
X0343031Y0166074D01*
X0340079Y0158987D02*
Y0156626D01*
X0341260D01*
X0341653Y0157020D01*
Y0158594D01*
X0341260Y0158987D01*
X0340079D01*
X0344015Y0156626D02*
X0342440D01*
X0344015Y0158200D01*
Y0158594D01*
X0343621Y0158987D01*
X0342834D01*
X0342440Y0158594D01*
X0324463Y0155772D02*
X0323938Y0155247D01*
Y0154198D01*
X0324463Y0153673D01*
X0326562D01*
X0327087Y0154198D01*
Y0155247D01*
X0326562Y0155772D01*
X0327087Y0156822D02*
Y0157871D01*
Y0157347D01*
X0323938D01*
X0324463Y0156822D01*
X0316457Y0154066D02*
X0316064Y0153673D01*
Y0152886D01*
X0316457Y0152492D01*
X0318032D01*
X0318425Y0152886D01*
Y0153673D01*
X0318032Y0154066D01*
X0318425Y0156428D02*
Y0154854D01*
X0316851Y0156428D01*
X0316457D01*
X0316064Y0156034D01*
Y0155247D01*
X0316457Y0154854D01*
X0308386Y0157807D02*
X0307993Y0157413D01*
Y0156626D01*
X0308386Y0156232D01*
X0309961D01*
X0310354Y0156626D01*
Y0157413D01*
X0309961Y0157807D01*
X0308386Y0158594D02*
X0307993Y0158987D01*
Y0159774D01*
X0308386Y0160168D01*
X0308780D01*
X0309174Y0159774D01*
Y0159381D01*
Y0159774D01*
X0309567Y0160168D01*
X0309961D01*
X0310354Y0159774D01*
Y0158987D01*
X0309961Y0158594D01*
X0331024Y0140089D02*
Y0136941D01*
X0332598D01*
X0333123Y0137466D01*
Y0139565D01*
X0332598Y0140089D01*
X0331024D01*
X0336271D02*
X0334172D01*
Y0138515D01*
X0335222Y0139040D01*
X0335747D01*
X0336271Y0138515D01*
Y0137466D01*
X0335747Y0136941D01*
X0334697D01*
X0334172Y0137466D01*
X0347756Y0138516D02*
X0345394D01*
Y0139697D01*
X0345788Y0140090D01*
X0346575D01*
X0346969Y0139697D01*
Y0138516D01*
Y0139303D02*
X0347756Y0140090D01*
Y0140877D02*
Y0141664D01*
Y0141271D01*
X0345394D01*
X0345788Y0140877D01*
X0347756Y0144419D02*
Y0142845D01*
X0346182Y0144419D01*
X0345788D01*
X0345394Y0144026D01*
Y0143239D01*
X0345788Y0142845D01*
X0308780Y0139893D02*
Y0136744D01*
X0310354D01*
X0310879Y0137269D01*
Y0139368D01*
X0310354Y0139893D01*
X0308780D01*
X0313502Y0136744D02*
Y0139893D01*
X0311928Y0138318D01*
X0314027D01*
X0291261Y0132020D02*
X0294409D01*
Y0133594D01*
X0293885Y0134119D01*
X0291786D01*
X0291261Y0133594D01*
Y0132020D01*
X0291786Y0135168D02*
X0291261Y0135693D01*
Y0136743D01*
X0291786Y0137267D01*
X0292310D01*
X0292835Y0136743D01*
Y0136218D01*
Y0136743D01*
X0293360Y0137267D01*
X0293885D01*
X0294409Y0136743D01*
Y0135693D01*
X0293885Y0135168D01*
X0277284Y0158199D02*
Y0153476D01*
X0279645D01*
X0280432Y0154263D01*
Y0157412D01*
X0279645Y0158199D01*
X0277284D01*
X0285155D02*
X0283581Y0157412D01*
X0282006Y0155838D01*
Y0154263D01*
X0282793Y0153476D01*
X0284368D01*
X0285155Y0154263D01*
Y0155051D01*
X0284368Y0155838D01*
X0282006D01*
X0279842Y0168240D02*
Y0170602D01*
X0281023D01*
X0281417Y0170208D01*
Y0169421D01*
X0281023Y0169027D01*
X0279842D01*
X0280630D02*
X0281417Y0168240D01*
X0282204D02*
X0282991D01*
X0282597D01*
Y0170602D01*
X0282204Y0170208D01*
X0284172D02*
X0284565Y0170602D01*
X0285353D01*
X0285746Y0170208D01*
Y0168634D01*
X0285353Y0168240D01*
X0284565D01*
X0284172Y0168634D01*
Y0170208D01*
X0280827Y0175917D02*
Y0178279D01*
X0282008D01*
X0282401Y0177885D01*
Y0177098D01*
X0282008Y0176705D01*
X0280827D01*
X0281614D02*
X0282401Y0175917D01*
X0283188Y0176311D02*
X0283582Y0175917D01*
X0284369D01*
X0284763Y0176311D01*
Y0177885D01*
X0284369Y0178279D01*
X0283582D01*
X0283188Y0177885D01*
Y0177492D01*
X0283582Y0177098D01*
X0284763D01*
X0262510Y0178160D02*
Y0175537D01*
X0263035Y0175012D01*
X0264084D01*
X0264609Y0175537D01*
Y0178160D01*
X0267758Y0175012D02*
X0265658D01*
X0267758Y0177111D01*
Y0177636D01*
X0267233Y0178160D01*
X0266183D01*
X0265658Y0177636D01*
X0251326Y0157782D02*
X0251851Y0157257D01*
X0252900D01*
X0253425Y0157782D01*
Y0159881D01*
X0252900Y0160406D01*
X0251851D01*
X0251326Y0159881D01*
X0250277Y0157782D02*
X0249752Y0157257D01*
X0248702D01*
X0248178Y0157782D01*
Y0158307D01*
X0248702Y0158831D01*
X0248178Y0159356D01*
Y0159881D01*
X0248702Y0160406D01*
X0249752D01*
X0250277Y0159881D01*
Y0159356D01*
X0249752Y0158831D01*
X0250277Y0158307D01*
Y0157782D01*
X0249752Y0158831D02*
X0248702D01*
X0251090Y0149514D02*
X0251615Y0148989D01*
X0252664D01*
X0253189Y0149514D01*
Y0151613D01*
X0252664Y0152138D01*
X0251615D01*
X0251090Y0151613D01*
X0250040Y0148989D02*
X0247941D01*
Y0149514D01*
X0250040Y0151613D01*
Y0152138D01*
X0254751Y0141443D02*
X0255276Y0140918D01*
X0256326D01*
X0256850Y0141443D01*
Y0143542D01*
X0256326Y0144067D01*
X0255276D01*
X0254751Y0143542D01*
X0251603Y0140918D02*
X0252652Y0141443D01*
X0253702Y0142493D01*
Y0143542D01*
X0253177Y0144067D01*
X0252128D01*
X0251603Y0143542D01*
Y0143017D01*
X0252128Y0142493D01*
X0253702D01*
X0277284Y0147768D02*
Y0150129D01*
X0278464D01*
X0278858Y0149736D01*
Y0148948D01*
X0278464Y0148555D01*
X0277284D01*
X0278071D02*
X0278858Y0147768D01*
X0281219Y0150129D02*
X0279645D01*
Y0148948D01*
X0280432Y0149342D01*
X0280826D01*
X0281219Y0148948D01*
Y0148161D01*
X0280826Y0147768D01*
X0280038D01*
X0279645Y0148161D01*
X0223058Y0171443D02*
X0223583Y0170918D01*
X0224633D01*
X0225157Y0171443D01*
Y0173542D01*
X0224633Y0174067D01*
X0223583D01*
X0223058Y0173542D01*
X0222009Y0174067D02*
X0220959D01*
X0221484D01*
Y0170918D01*
X0222009Y0171443D01*
X0217811Y0174067D02*
Y0170918D01*
X0219385Y0172493D01*
X0217286D01*
X0189921Y0199538D02*
X0192807Y0195209D01*
Y0199538D02*
X0189921Y0195209D01*
X0194251D02*
X0195694D01*
X0194972D01*
Y0199538D01*
X0194251Y0198816D01*
X0191850Y0162610D02*
Y0164972D01*
X0193031D01*
X0193425Y0164578D01*
Y0163791D01*
X0193031Y0163397D01*
X0191850D01*
X0192638D02*
X0193425Y0162610D01*
X0195786D02*
X0194212D01*
X0195786Y0164184D01*
Y0164578D01*
X0195393Y0164972D01*
X0194605D01*
X0194212Y0164578D01*
X0197754Y0162610D02*
Y0164972D01*
X0196573Y0163791D01*
X0198148D01*
X0191850Y0156429D02*
Y0158791D01*
X0193031D01*
X0193425Y0158397D01*
Y0157610D01*
X0193031Y0157216D01*
X0191850D01*
X0192638D02*
X0193425Y0156429D01*
X0195786D02*
X0194212D01*
X0195786Y0158003D01*
Y0158397D01*
X0195393Y0158791D01*
X0194605D01*
X0194212Y0158397D01*
X0198148Y0158791D02*
X0196573D01*
Y0157610D01*
X0197360Y0158003D01*
X0197754D01*
X0198148Y0157610D01*
Y0156823D01*
X0197754Y0156429D01*
X0196967D01*
X0196573Y0156823D01*
X0268345Y0154067D02*
X0263622D01*
Y0151706D01*
X0264409Y0150918D01*
X0267558D01*
X0268345Y0151706D01*
Y0154067D01*
X0263622Y0149344D02*
Y0147770D01*
Y0148557D01*
X0268345D01*
X0267558Y0149344D01*
X0222795Y0139421D02*
Y0141783D01*
X0223976D01*
X0224370Y0141389D01*
Y0140602D01*
X0223976Y0140208D01*
X0222795D01*
X0223582D02*
X0224370Y0139421D01*
X0225157D02*
X0225944D01*
X0225550D01*
Y0141783D01*
X0225157Y0141389D01*
X0227125Y0139815D02*
X0227518Y0139421D01*
X0228305D01*
X0228699Y0139815D01*
Y0141389D01*
X0228305Y0141783D01*
X0227518D01*
X0227125Y0141389D01*
Y0140996D01*
X0227518Y0140602D01*
X0228699D01*
X0232716Y0126075D02*
X0230355D01*
Y0127255D01*
X0230749Y0127649D01*
X0231536D01*
X0231929Y0127255D01*
Y0126075D01*
Y0126862D02*
X0232716Y0127649D01*
Y0128436D02*
Y0129223D01*
Y0128830D01*
X0230355D01*
X0230749Y0128436D01*
X0230355Y0130404D02*
Y0131978D01*
X0230749D01*
X0232323Y0130404D01*
X0232716D01*
X0225866Y0125366D02*
X0223505D01*
Y0126547D01*
X0223898Y0126940D01*
X0224685D01*
X0225079Y0126547D01*
Y0125366D01*
Y0126153D02*
X0225866Y0126940D01*
Y0127728D02*
Y0128515D01*
Y0128121D01*
X0223505D01*
X0223898Y0127728D01*
Y0129695D02*
X0223505Y0130089D01*
Y0130876D01*
X0223898Y0131270D01*
X0224292D01*
X0224685Y0130876D01*
X0225079Y0131270D01*
X0225473D01*
X0225866Y0130876D01*
Y0130089D01*
X0225473Y0129695D01*
X0225079D01*
X0224685Y0130089D01*
X0224292Y0129695D01*
X0223898D01*
X0224685Y0130089D02*
Y0130876D01*
X0233386Y0139618D02*
Y0141980D01*
X0234567D01*
X0234960Y0141586D01*
Y0140799D01*
X0234567Y0140405D01*
X0233386D01*
X0234173D02*
X0234960Y0139618D01*
X0237322D02*
X0235747D01*
X0237322Y0141192D01*
Y0141586D01*
X0236928Y0141980D01*
X0236141D01*
X0235747Y0141586D01*
X0238109D02*
X0238502Y0141980D01*
X0239289D01*
X0239683Y0141586D01*
Y0140012D01*
X0239289Y0139618D01*
X0238502D01*
X0238109Y0140012D01*
Y0141586D01*
X0268635Y0132019D02*
X0266535D01*
Y0130444D01*
X0267585D01*
X0266535D01*
Y0128870D01*
X0269684D02*
X0270734D01*
X0270209D01*
Y0132019D01*
X0269684Y0131494D01*
X0281417Y0184578D02*
X0281023Y0184972D01*
X0280236D01*
X0279842Y0184578D01*
Y0183004D01*
X0280236Y0182610D01*
X0281023D01*
X0281417Y0183004D01*
X0282204Y0182610D02*
X0282991D01*
X0282597D01*
Y0184972D01*
X0282204Y0184578D01*
X0285746Y0182610D02*
X0284172D01*
X0285746Y0184185D01*
Y0184578D01*
X0285353Y0184972D01*
X0284565D01*
X0284172Y0184578D01*
X0280827Y0195799D02*
Y0198161D01*
X0282008D01*
X0282401Y0197767D01*
Y0196980D01*
X0282008Y0196586D01*
X0280827D01*
X0281614D02*
X0282401Y0195799D01*
X0283188Y0197767D02*
X0283582Y0198161D01*
X0284369D01*
X0284763Y0197767D01*
Y0197373D01*
X0284369Y0196980D01*
X0284763Y0196586D01*
Y0196193D01*
X0284369Y0195799D01*
X0283582D01*
X0283188Y0196193D01*
Y0196586D01*
X0283582Y0196980D01*
X0283188Y0197373D01*
Y0197767D01*
X0283582Y0196980D02*
X0284369D01*
X0280827Y0189106D02*
Y0191468D01*
X0282008D01*
X0282401Y0191074D01*
Y0190287D01*
X0282008Y0189893D01*
X0280827D01*
X0281614D02*
X0282401Y0189106D01*
X0284369D02*
Y0191468D01*
X0283188Y0190287D01*
X0284763D01*
X0152568Y0199535D02*
X0154930D01*
Y0198355D01*
X0154536Y0197961D01*
X0153749D01*
X0153356Y0198355D01*
Y0199535D01*
Y0198748D02*
X0152568Y0197961D01*
Y0195600D02*
Y0197174D01*
X0154143Y0195600D01*
X0154536D01*
X0154930Y0195993D01*
Y0196780D01*
X0154536Y0197174D01*
X0152962Y0194813D02*
X0152568Y0194419D01*
Y0193632D01*
X0152962Y0193238D01*
X0154536D01*
X0154930Y0193632D01*
Y0194419D01*
X0154536Y0194813D01*
X0154143D01*
X0153749Y0194419D01*
Y0193238D01*
X0242332Y0199063D02*
X0244694D01*
Y0197882D01*
X0244300Y0197489D01*
X0243513D01*
X0243120Y0197882D01*
Y0199063D01*
Y0198276D02*
X0242332Y0197489D01*
Y0195127D02*
Y0196702D01*
X0243907Y0195127D01*
X0244300D01*
X0244694Y0195521D01*
Y0196308D01*
X0244300Y0196702D01*
Y0194340D02*
X0244694Y0193947D01*
Y0193159D01*
X0244300Y0192766D01*
X0243907D01*
X0243513Y0193159D01*
X0243120Y0192766D01*
X0242726D01*
X0242332Y0193159D01*
Y0193947D01*
X0242726Y0194340D01*
X0243120D01*
X0243513Y0193947D01*
X0243907Y0194340D01*
X0244300D01*
X0243513Y0193947D02*
Y0193159D01*
X0148150Y0193220D02*
X0145788D01*
Y0194401D01*
X0146182Y0194795D01*
X0146969D01*
X0147362Y0194401D01*
Y0193220D01*
Y0194008D02*
X0148150Y0194795D01*
X0146182Y0195582D02*
X0145788Y0195975D01*
Y0196763D01*
X0146182Y0197156D01*
X0146575D01*
X0146969Y0196763D01*
Y0196369D01*
Y0196763D01*
X0147362Y0197156D01*
X0147756D01*
X0148150Y0196763D01*
Y0195975D01*
X0147756Y0195582D01*
X0148150Y0199518D02*
Y0197943D01*
X0146575Y0199518D01*
X0146182D01*
X0145788Y0199124D01*
Y0198337D01*
X0146182Y0197943D01*
X0141575Y0193516D02*
X0139213D01*
Y0194696D01*
X0139607Y0195090D01*
X0140394D01*
X0140788Y0194696D01*
Y0193516D01*
Y0194303D02*
X0141575Y0195090D01*
Y0197451D02*
Y0195877D01*
X0140000Y0197451D01*
X0139607D01*
X0139213Y0197058D01*
Y0196271D01*
X0139607Y0195877D01*
X0139213Y0199813D02*
X0139607Y0199026D01*
X0140394Y0198239D01*
X0141181D01*
X0141575Y0198632D01*
Y0199419D01*
X0141181Y0199813D01*
X0140788D01*
X0140394Y0199419D01*
Y0198239D01*
X0134606Y0193752D02*
X0132245D01*
Y0194933D01*
X0132638Y0195326D01*
X0133426D01*
X0133819Y0194933D01*
Y0193752D01*
Y0194539D02*
X0134606Y0195326D01*
Y0197688D02*
Y0196113D01*
X0133032Y0197688D01*
X0132638D01*
X0132245Y0197294D01*
Y0196507D01*
X0132638Y0196113D01*
X0132245Y0198475D02*
Y0200049D01*
X0132638D01*
X0134213Y0198475D01*
X0134606D01*
X0192008Y0132256D02*
X0194369D01*
Y0131075D01*
X0193976Y0130682D01*
X0193189D01*
X0192795Y0131075D01*
Y0132256D01*
Y0131469D02*
X0192008Y0130682D01*
Y0128320D02*
Y0129894D01*
X0193582Y0128320D01*
X0193976D01*
X0194369Y0128714D01*
Y0129501D01*
X0193976Y0129894D01*
X0192008Y0127533D02*
Y0126746D01*
Y0127139D01*
X0194369D01*
X0193976Y0127533D01*
X0171850Y0124697D02*
X0169489D01*
Y0125878D01*
X0169883Y0126271D01*
X0170670D01*
X0171063Y0125878D01*
Y0124697D01*
Y0125484D02*
X0171850Y0126271D01*
Y0128633D02*
Y0127058D01*
X0170276Y0128633D01*
X0169883D01*
X0169489Y0128239D01*
Y0127452D01*
X0169883Y0127058D01*
Y0129420D02*
X0169489Y0129813D01*
Y0130600D01*
X0169883Y0130994D01*
X0170276D01*
X0170670Y0130600D01*
Y0130207D01*
Y0130600D01*
X0171063Y0130994D01*
X0171457D01*
X0171850Y0130600D01*
Y0129813D01*
X0171457Y0129420D01*
X0160922Y0127246D02*
X0160528Y0126852D01*
Y0126065D01*
X0160922Y0125671D01*
X0162496D01*
X0162890Y0126065D01*
Y0126852D01*
X0162496Y0127246D01*
X0162890Y0128033D02*
Y0128820D01*
Y0128426D01*
X0160528D01*
X0160922Y0128033D01*
X0160528Y0131575D02*
Y0130001D01*
X0161709D01*
X0161316Y0130788D01*
Y0131181D01*
X0161709Y0131575D01*
X0162496D01*
X0162890Y0131181D01*
Y0130394D01*
X0162496Y0130001D01*
X0223740Y0186862D02*
X0226102D01*
Y0185681D01*
X0225708Y0185288D01*
X0224921D01*
X0224527Y0185681D01*
Y0186862D01*
Y0186075D02*
X0223740Y0185288D01*
X0225708Y0184501D02*
X0226102Y0184107D01*
Y0183320D01*
X0225708Y0182926D01*
X0225314D01*
X0224921Y0183320D01*
Y0183714D01*
Y0183320D01*
X0224527Y0182926D01*
X0224134D01*
X0223740Y0183320D01*
Y0184107D01*
X0224134Y0184501D01*
X0226102Y0180565D02*
Y0182139D01*
X0224921D01*
X0225314Y0181352D01*
Y0180959D01*
X0224921Y0180565D01*
X0224134D01*
X0223740Y0180959D01*
Y0181746D01*
X0224134Y0182139D01*
X0149494Y0126575D02*
X0150150Y0125919D01*
X0151462D01*
X0152118Y0126575D01*
Y0127231D01*
X0151462Y0127886D01*
X0150150D01*
X0149494Y0128542D01*
Y0129198D01*
X0150150Y0129854D01*
X0151462D01*
X0152118Y0129198D01*
X0148182Y0125919D02*
Y0129854D01*
X0146871Y0128542D01*
X0145559Y0129854D01*
Y0125919D01*
X0144247Y0129854D02*
X0142935D01*
X0143591D01*
Y0125919D01*
X0144247Y0126575D01*
X0115222Y0186673D02*
X0114566Y0186017D01*
X0113254D01*
X0112598Y0186673D01*
Y0189297D01*
X0113254Y0189953D01*
X0114566D01*
X0115222Y0189297D01*
X0118502Y0186017D02*
X0117190D01*
X0116534Y0186673D01*
Y0189297D01*
X0117190Y0189953D01*
X0118502D01*
X0119158Y0189297D01*
Y0186673D01*
X0118502Y0186017D01*
X0120470Y0189953D02*
Y0186017D01*
X0123094Y0189953D01*
Y0186017D01*
X0126374Y0189953D02*
Y0186017D01*
X0124406Y0187985D01*
X0127030D01*
X0172811Y0158442D02*
Y0161722D01*
X0172155Y0162378D01*
X0170843D01*
X0170187Y0161722D01*
Y0158442D01*
X0166252D02*
X0167563Y0159098D01*
X0168875Y0160410D01*
Y0161722D01*
X0168219Y0162378D01*
X0166907D01*
X0166252Y0161722D01*
Y0161066D01*
X0166907Y0160410D01*
X0168875D01*
X0178146Y0127383D02*
X0177753Y0126990D01*
Y0126203D01*
X0178146Y0125809D01*
X0179721D01*
X0180114Y0126203D01*
Y0126990D01*
X0179721Y0127383D01*
X0180114Y0129745D02*
Y0128171D01*
X0178540Y0129745D01*
X0178146D01*
X0177753Y0129351D01*
Y0128564D01*
X0178146Y0128171D01*
X0180114Y0131713D02*
X0177753D01*
X0178934Y0130532D01*
Y0132106D01*
X0185095Y0127324D02*
X0184702Y0126931D01*
Y0126144D01*
X0185095Y0125750D01*
X0186669D01*
X0187063Y0126144D01*
Y0126931D01*
X0186669Y0127324D01*
X0187063Y0128111D02*
Y0128899D01*
Y0128505D01*
X0184702D01*
X0185095Y0128111D01*
X0184702Y0131654D02*
X0185095Y0130867D01*
X0185882Y0130079D01*
X0186669D01*
X0187063Y0130473D01*
Y0131260D01*
X0186669Y0131654D01*
X0186276D01*
X0185882Y0131260D01*
Y0130079D01*
X0257523Y0171420D02*
X0257917Y0171813D01*
Y0172600D01*
X0257523Y0172994D01*
X0255949D01*
X0255555Y0172600D01*
Y0171813D01*
X0255949Y0171420D01*
X0255555Y0169058D02*
Y0170633D01*
X0257129Y0169058D01*
X0257523D01*
X0257917Y0169452D01*
Y0170239D01*
X0257523Y0170633D01*
Y0168271D02*
X0257917Y0167878D01*
Y0167090D01*
X0257523Y0166697D01*
X0255949D01*
X0255555Y0167090D01*
Y0167878D01*
X0255949Y0168271D01*
X0257523D01*
X0214567Y0186941D02*
X0216928D01*
Y0185760D01*
X0216535Y0185367D01*
X0215748D01*
X0215354Y0185760D01*
Y0186941D01*
Y0186154D02*
X0214567Y0185367D01*
Y0184580D02*
Y0183792D01*
Y0184186D01*
X0216928D01*
X0216535Y0184580D01*
X0216928Y0181037D02*
X0216535Y0181825D01*
X0215748Y0182612D01*
X0214961D01*
X0214567Y0182218D01*
Y0181431D01*
X0214961Y0181037D01*
X0215354D01*
X0215748Y0181431D01*
Y0182612D01*
X0226142Y0155996D02*
X0223780D01*
Y0157177D01*
X0224174Y0157570D01*
X0224961D01*
X0225355Y0157177D01*
Y0155996D01*
Y0156783D02*
X0226142Y0157570D01*
X0224174Y0158358D02*
X0223780Y0158751D01*
Y0159538D01*
X0224174Y0159932D01*
X0224568D01*
X0224961Y0159538D01*
Y0159145D01*
Y0159538D01*
X0225355Y0159932D01*
X0225748D01*
X0226142Y0159538D01*
Y0158751D01*
X0225748Y0158358D01*
X0223780Y0160719D02*
Y0162293D01*
X0224174D01*
X0225748Y0160719D01*
X0226142D01*
X0218504Y0191783D02*
X0216143D01*
Y0192964D01*
X0216536Y0193358D01*
X0217323D01*
X0217717Y0192964D01*
Y0191783D01*
Y0192571D02*
X0218504Y0193358D01*
X0216536Y0194145D02*
X0216143Y0194538D01*
Y0195326D01*
X0216536Y0195719D01*
X0216930D01*
X0217323Y0195326D01*
Y0194932D01*
Y0195326D01*
X0217717Y0195719D01*
X0218110D01*
X0218504Y0195326D01*
Y0194538D01*
X0218110Y0194145D01*
X0218504Y0197687D02*
X0216143D01*
X0217323Y0196506D01*
Y0198081D01*
X0203307Y0200445D02*
X0205668D01*
Y0199264D01*
X0205275Y0198871D01*
X0204488D01*
X0204094Y0199264D01*
Y0200445D01*
Y0199658D02*
X0203307Y0198871D01*
X0205275Y0198083D02*
X0205668Y0197690D01*
Y0196903D01*
X0205275Y0196509D01*
X0204881D01*
X0204488Y0196903D01*
Y0197296D01*
Y0196903D01*
X0204094Y0196509D01*
X0203701D01*
X0203307Y0196903D01*
Y0197690D01*
X0203701Y0198083D01*
X0205275Y0195722D02*
X0205668Y0195328D01*
Y0194541D01*
X0205275Y0194148D01*
X0204881D01*
X0204488Y0194541D01*
X0204094Y0194148D01*
X0203701D01*
X0203307Y0194541D01*
Y0195328D01*
X0203701Y0195722D01*
X0204094D01*
X0204488Y0195328D01*
X0204881Y0195722D01*
X0205275D01*
X0204488Y0195328D02*
Y0194541D01*
X0212480Y0191783D02*
X0210119D01*
Y0192964D01*
X0210512Y0193358D01*
X0211300D01*
X0211693Y0192964D01*
Y0191783D01*
Y0192571D02*
X0212480Y0193358D01*
X0210512Y0194145D02*
X0210119Y0194538D01*
Y0195326D01*
X0210512Y0195719D01*
X0210906D01*
X0211300Y0195326D01*
Y0194932D01*
Y0195326D01*
X0211693Y0195719D01*
X0212087D01*
X0212480Y0195326D01*
Y0194538D01*
X0212087Y0194145D01*
X0210512Y0196506D02*
X0210119Y0196900D01*
Y0197687D01*
X0210512Y0198081D01*
X0210906D01*
X0211300Y0197687D01*
Y0197293D01*
Y0197687D01*
X0211693Y0198081D01*
X0212087D01*
X0212480Y0197687D01*
Y0196900D01*
X0212087Y0196506D01*
D13*
X0275709Y0158201D02*
G03*
X0275709Y0158201I-0000394J0000000D01*
G01*
X0180827Y0142118D02*
G03*
X0180827Y0142118I-0000394J0000000D01*
G01*
X0335157Y0160957D02*
X0348150D01*
Y0154657D02*
Y0160957D01*
X0335157Y0154657D02*
X0348150D01*
X0335157D02*
Y0160957D01*
X0336339Y0154657D02*
Y0160957D01*
X0119435Y0168870D02*
X0124433D01*
X0125433Y0167870D01*
Y0165871D01*
X0124433Y0164871D01*
X0119435D01*
X0125433Y0159873D02*
X0119435D01*
X0122434Y0162872D01*
Y0158873D01*
X0314727Y0119243D02*
X0313727Y0120242D01*
X0311728D01*
X0310728Y0119243D01*
Y0115244D01*
X0311728Y0114244D01*
X0313727D01*
X0314727Y0115244D01*
X0319725Y0120242D02*
X0317726D01*
X0316726Y0119243D01*
Y0115244D01*
X0317726Y0114244D01*
X0319725D01*
X0320725Y0115244D01*
Y0119243D01*
X0319725Y0120242D01*
X0322725Y0114244D02*
Y0120242D01*
X0326723Y0114244D01*
Y0120242D01*
X0328723Y0114244D02*
X0330722D01*
X0329722D01*
Y0120242D01*
X0328723Y0119243D01*
D15*
X0328071Y0141272D02*
G03*
X0328071Y0141272I-0000394J0000000D01*
G01*
X0261850Y0140681D02*
G03*
X0261850Y0140681I-0000394J0000000D01*
G01*
X0108819Y0140201D02*
Y0175634D01*
Y0140201D02*
X0154095D01*
Y0175634D01*
X0108819D02*
X0154095D01*
X0335039Y0106272D02*
Y0127728D01*
X0305118Y0106272D02*
Y0127728D01*
X0335039D01*
X0305118Y0106272D02*
X0335039D01*
X0294606Y0178278D02*
Y0172374D01*
X0298542D01*
X0300510D02*
X0302478D01*
X0301494D01*
Y0178278D01*
X0300510Y0177294D01*
X0239134Y0178317D02*
Y0172413D01*
X0243070D01*
X0248973D02*
X0245038D01*
X0248973Y0176349D01*
Y0177333D01*
X0247989Y0178317D01*
X0246021D01*
X0245038Y0177333D01*
D17*
X0192757Y0177492D02*
X0195381D01*
X0195905Y0178017D01*
Y0179066D01*
X0195381Y0179591D01*
X0192757D01*
Y0182740D02*
Y0180641D01*
X0194331D01*
X0193807Y0181690D01*
Y0182215D01*
X0194331Y0182740D01*
X0195381D01*
X0195905Y0182215D01*
Y0181166D01*
X0195381Y0180641D01*
D104*
X0216142Y0166075D02*
G03*
X0216142Y0166075I-0000394J0000000D01*
G01*
X0236693Y0188673D02*
G03*
X0236693Y0188673I-0000394J0000000D01*
G01*
D109*
X0322953Y0133398D02*
G03*
X0322953Y0133398I-0000394J0000000D01*
G01*
X0298150Y0145996D02*
G03*
X0298150Y0145996I-0000394J0000000D01*
G01*
D140*
X0209546Y0162433D02*
X0207579D01*
X0207185Y0162039D01*
Y0161252D01*
X0207579Y0160859D01*
X0209546D01*
Y0160072D02*
Y0158497D01*
X0209153D01*
X0207579Y0160072D01*
X0207185D01*
X0232658Y0194875D02*
Y0196843D01*
X0232264Y0197236D01*
X0231477D01*
X0231083Y0196843D01*
Y0194875D01*
X0230296Y0195268D02*
X0229903Y0194875D01*
X0229115D01*
X0228722Y0195268D01*
Y0195662D01*
X0229115Y0196055D01*
X0229509D01*
X0229115D01*
X0228722Y0196449D01*
Y0196843D01*
X0229115Y0197236D01*
X0229903D01*
X0230296Y0196843D01*
X0121812Y0176528D02*
X0122205Y0176135D01*
X0122992D01*
X0123386Y0176528D01*
Y0178103D01*
X0122992Y0178496D01*
X0122205D01*
X0121812Y0178103D01*
X0119450Y0178496D02*
X0121024D01*
X0119450Y0176922D01*
Y0176528D01*
X0119844Y0176135D01*
X0120631D01*
X0121024Y0176528D01*
X0118663Y0178496D02*
X0117876D01*
X0118269D01*
Y0176135D01*
X0118663Y0176528D01*
X0126044Y0174263D02*
X0125650Y0173870D01*
Y0173082D01*
X0126044Y0172689D01*
X0127618D01*
X0128012Y0173082D01*
Y0173870D01*
X0127618Y0174263D01*
X0128012Y0176625D02*
Y0175050D01*
X0126437Y0176625D01*
X0126044D01*
X0125650Y0176231D01*
Y0175444D01*
X0126044Y0175050D01*
X0128012Y0178986D02*
Y0177412D01*
X0126437Y0178986D01*
X0126044D01*
X0125650Y0178593D01*
Y0177805D01*
X0126044Y0177412D01*
X0114036Y0174263D02*
X0113643Y0173870D01*
Y0173082D01*
X0114036Y0172689D01*
X0115610D01*
X0116004Y0173082D01*
Y0173870D01*
X0115610Y0174263D01*
X0116004Y0176625D02*
Y0175050D01*
X0114430Y0176625D01*
X0114036D01*
X0113643Y0176231D01*
Y0175444D01*
X0114036Y0175050D01*
Y0177412D02*
X0113643Y0177805D01*
Y0178593D01*
X0114036Y0178986D01*
X0114430D01*
X0114823Y0178593D01*
Y0178199D01*
Y0178593D01*
X0115217Y0178986D01*
X0115610D01*
X0116004Y0178593D01*
Y0177805D01*
X0115610Y0177412D01*
D141*
X0298150Y0167187D02*
D03*
X0244252Y0167423D02*
D03*
M02*
