G04*
G04 #@! TF.GenerationSoftware,Altium Limited,Altium Designer,18.1.9 (240)*
G04*
G04 Layer_Physical_Order=1*
G04 Layer_Color=255*
%FSAX25Y25*%
%MOIN*%
G70*
G01*
G75*
%ADD12C,0.02362*%
%ADD13C,0.01000*%
%ADD21R,0.02362X0.03543*%
%ADD22R,0.03543X0.02362*%
%ADD23R,0.03150X0.03150*%
%ADD24R,0.04134X0.08661*%
%ADD25R,0.03937X0.03937*%
%ADD26R,0.05512X0.03937*%
%ADD27R,0.09449X0.06299*%
%ADD28R,0.05118X0.03543*%
%ADD29R,0.03543X0.05118*%
%ADD30O,0.03543X0.00984*%
%ADD31O,0.00984X0.03543*%
%ADD32R,0.09449X0.09449*%
%ADD33R,0.03150X0.03150*%
%ADD34R,0.03543X0.03740*%
%ADD35R,0.06299X0.05906*%
%ADD36R,0.05906X0.06299*%
%ADD37R,0.02756X0.01772*%
G04:AMPARAMS|DCode=38|XSize=9.84mil|YSize=23.62mil|CornerRadius=2.46mil|HoleSize=0mil|Usage=FLASHONLY|Rotation=270.000|XOffset=0mil|YOffset=0mil|HoleType=Round|Shape=RoundedRectangle|*
%AMROUNDEDRECTD38*
21,1,0.00984,0.01870,0,0,270.0*
21,1,0.00492,0.02362,0,0,270.0*
1,1,0.00492,-0.00935,-0.00246*
1,1,0.00492,-0.00935,0.00246*
1,1,0.00492,0.00935,0.00246*
1,1,0.00492,0.00935,-0.00246*
%
%ADD38ROUNDEDRECTD38*%
G04:AMPARAMS|DCode=39|XSize=9.84mil|YSize=23.62mil|CornerRadius=2.46mil|HoleSize=0mil|Usage=FLASHONLY|Rotation=180.000|XOffset=0mil|YOffset=0mil|HoleType=Round|Shape=RoundedRectangle|*
%AMROUNDEDRECTD39*
21,1,0.00984,0.01870,0,0,180.0*
21,1,0.00492,0.02362,0,0,180.0*
1,1,0.00492,-0.00246,0.00935*
1,1,0.00492,0.00246,0.00935*
1,1,0.00492,0.00246,-0.00935*
1,1,0.00492,-0.00246,-0.00935*
%
%ADD39ROUNDEDRECTD39*%
G04:AMPARAMS|DCode=40|XSize=9.84mil|YSize=53.15mil|CornerRadius=2.46mil|HoleSize=0mil|Usage=FLASHONLY|Rotation=270.000|XOffset=0mil|YOffset=0mil|HoleType=Round|Shape=RoundedRectangle|*
%AMROUNDEDRECTD40*
21,1,0.00984,0.04823,0,0,270.0*
21,1,0.00492,0.05315,0,0,270.0*
1,1,0.00492,-0.02411,-0.00246*
1,1,0.00492,-0.02411,0.00246*
1,1,0.00492,0.02411,0.00246*
1,1,0.00492,0.02411,-0.00246*
%
%ADD40ROUNDEDRECTD40*%
G04:AMPARAMS|DCode=41|XSize=9.84mil|YSize=66.93mil|CornerRadius=2.46mil|HoleSize=0mil|Usage=FLASHONLY|Rotation=270.000|XOffset=0mil|YOffset=0mil|HoleType=Round|Shape=RoundedRectangle|*
%AMROUNDEDRECTD41*
21,1,0.00984,0.06201,0,0,270.0*
21,1,0.00492,0.06693,0,0,270.0*
1,1,0.00492,-0.03100,-0.00246*
1,1,0.00492,-0.03100,0.00246*
1,1,0.00492,0.03100,0.00246*
1,1,0.00492,0.03100,-0.00246*
%
%ADD41ROUNDEDRECTD41*%
G04:AMPARAMS|DCode=42|XSize=9.84mil|YSize=27.56mil|CornerRadius=2.46mil|HoleSize=0mil|Usage=FLASHONLY|Rotation=270.000|XOffset=0mil|YOffset=0mil|HoleType=Round|Shape=RoundedRectangle|*
%AMROUNDEDRECTD42*
21,1,0.00984,0.02264,0,0,270.0*
21,1,0.00492,0.02756,0,0,270.0*
1,1,0.00492,-0.01132,-0.00246*
1,1,0.00492,-0.01132,0.00246*
1,1,0.00492,0.01132,0.00246*
1,1,0.00492,0.01132,-0.00246*
%
%ADD42ROUNDEDRECTD42*%
%ADD43R,0.01968X0.05512*%
%ADD44R,0.04331X0.07480*%
%ADD45R,0.01575X0.05512*%
%ADD46R,0.04724X0.05512*%
%ADD47R,0.07874X0.03110*%
%ADD48R,0.00984X0.02756*%
%ADD49R,0.04016X0.07008*%
%ADD50R,0.08504X0.07008*%
%ADD51R,0.06102X0.13583*%
%ADD52R,0.03543X0.03937*%
%ADD53R,0.02362X0.02520*%
%ADD54R,0.02520X0.02362*%
G04:AMPARAMS|DCode=55|XSize=59.06mil|YSize=59.06mil|CornerRadius=5.91mil|HoleSize=0mil|Usage=FLASHONLY|Rotation=180.000|XOffset=0mil|YOffset=0mil|HoleType=Round|Shape=RoundedRectangle|*
%AMROUNDEDRECTD55*
21,1,0.05906,0.04724,0,0,180.0*
21,1,0.04724,0.05906,0,0,180.0*
1,1,0.01181,-0.02362,0.02362*
1,1,0.01181,0.02362,0.02362*
1,1,0.01181,0.02362,-0.02362*
1,1,0.01181,-0.02362,-0.02362*
%
%ADD55ROUNDEDRECTD55*%
%ADD56R,0.05906X0.05906*%
%ADD102R,0.06102X0.07480*%
%ADD103R,0.06693X0.01968*%
%ADD104R,0.01968X0.06693*%
%ADD105C,0.00800*%
%ADD106C,0.03150*%
%ADD107C,0.02500*%
%ADD108C,0.02000*%
%ADD109C,0.02756*%
%ADD110C,0.01500*%
%ADD111C,0.02300*%
%ADD112C,0.01900*%
%ADD113C,0.01200*%
%ADD114C,0.03000*%
%ADD115R,0.06693X0.07559*%
%ADD116R,0.07677X0.03110*%
%ADD117R,0.08071X0.02362*%
%ADD118R,0.03032X0.07165*%
%ADD119R,0.03583X0.34528*%
%ADD120R,0.03150X0.12559*%
%ADD121R,0.08858X0.02756*%
%ADD122R,0.03543X0.10906*%
%ADD123R,0.03150X0.07974*%
%ADD124C,0.05906*%
%ADD125P,0.07671X8X112.5*%
%ADD126R,0.05906X0.05906*%
%ADD127O,0.03937X0.06299*%
%ADD128C,0.23622*%
%ADD129C,0.01968*%
G36*
X0351693Y0226138D02*
Y0226138D01*
X0353452Y0225999D01*
X0355168Y0225587D01*
X0356798Y0224912D01*
X0358302Y0223990D01*
X0359644Y0222844D01*
X0360789Y0221503D01*
X0361711Y0219998D01*
X0362387Y0218368D01*
X0362799Y0216653D01*
X0362937Y0214894D01*
X0362938D01*
Y0193512D01*
X0362438Y0193463D01*
X0362373Y0193786D01*
X0362020Y0194315D01*
X0359508Y0196827D01*
Y0198122D01*
X0359317Y0198581D01*
X0358858Y0198772D01*
X0356496D01*
X0356037Y0198581D01*
X0355847Y0198122D01*
Y0194579D01*
X0356037Y0194120D01*
X0356496Y0193929D01*
X0357791D01*
X0359235Y0192486D01*
Y0183988D01*
X0359359Y0183364D01*
X0359713Y0182835D01*
X0360242Y0182481D01*
X0360866Y0182357D01*
X0361490Y0182481D01*
X0362020Y0182835D01*
X0362373Y0183364D01*
X0362438Y0183687D01*
X0362938Y0183638D01*
Y0120405D01*
X0362937D01*
X0362799Y0118647D01*
X0362387Y0116931D01*
X0361711Y0115301D01*
X0360789Y0113796D01*
X0359644Y0112455D01*
X0358302Y0111309D01*
X0356798Y0110387D01*
X0355168Y0109712D01*
X0353452Y0109300D01*
X0351693Y0109161D01*
Y0109161D01*
X0125118D01*
Y0110508D01*
X0125225Y0110534D01*
X0127030Y0111282D01*
X0128695Y0112302D01*
X0130181Y0113571D01*
X0131450Y0115056D01*
X0132471Y0116722D01*
X0133218Y0118527D01*
X0133674Y0120426D01*
X0133827Y0122374D01*
X0133674Y0124321D01*
X0133218Y0126221D01*
X0132471Y0128026D01*
X0131450Y0129692D01*
X0130181Y0131177D01*
X0128695Y0132446D01*
X0127030Y0133466D01*
X0125225Y0134214D01*
X0125118Y0134240D01*
Y0175333D01*
X0125618Y0175651D01*
X0126106Y0175554D01*
X0134913D01*
X0135608Y0175692D01*
X0135674Y0175736D01*
X0137079D01*
X0137538Y0175927D01*
X0137728Y0176386D01*
Y0178354D01*
X0137538Y0178814D01*
X0137079Y0179004D01*
X0135674D01*
X0135608Y0179048D01*
X0134913Y0179186D01*
X0126858D01*
X0125610Y0180435D01*
Y0180957D01*
X0125420Y0181416D01*
X0125118Y0181541D01*
Y0201059D01*
X0125225Y0201085D01*
X0127030Y0201833D01*
X0128695Y0202853D01*
X0130181Y0204122D01*
X0131450Y0205608D01*
X0132471Y0207273D01*
X0133218Y0209078D01*
X0133674Y0210978D01*
X0133827Y0212925D01*
X0133674Y0214873D01*
X0133218Y0216772D01*
X0132471Y0218577D01*
X0131450Y0220243D01*
X0130181Y0221728D01*
X0128695Y0222997D01*
X0127030Y0224018D01*
X0125225Y0224765D01*
X0125118Y0224791D01*
Y0226138D01*
X0351693Y0226138D01*
D02*
G37*
%LPC*%
G36*
X0330598Y0221678D02*
X0329671Y0221556D01*
X0328807Y0221198D01*
X0328065Y0220628D01*
X0327495Y0219886D01*
X0327137Y0219022D01*
X0327015Y0218094D01*
X0327137Y0217167D01*
X0327495Y0216303D01*
X0328065Y0215561D01*
X0328807Y0214991D01*
X0329671Y0214633D01*
X0330598Y0214511D01*
X0331526Y0214633D01*
X0332390Y0214991D01*
X0333132Y0215561D01*
X0333702Y0216303D01*
X0334060Y0217167D01*
X0334182Y0218094D01*
X0334060Y0219022D01*
X0333702Y0219886D01*
X0333132Y0220628D01*
X0332390Y0221198D01*
X0331526Y0221556D01*
X0330598Y0221678D01*
D02*
G37*
G36*
X0320599D02*
X0319671Y0221556D01*
X0318807Y0221198D01*
X0318065Y0220628D01*
X0317495Y0219886D01*
X0317137Y0219022D01*
X0317015Y0218094D01*
X0317137Y0217167D01*
X0317495Y0216303D01*
X0318065Y0215561D01*
X0318807Y0214991D01*
X0319671Y0214633D01*
X0320599Y0214511D01*
X0321526Y0214633D01*
X0322390Y0214991D01*
X0323132Y0215561D01*
X0323702Y0216303D01*
X0324060Y0217167D01*
X0324182Y0218094D01*
X0324060Y0219022D01*
X0323702Y0219886D01*
X0323132Y0220628D01*
X0322390Y0221198D01*
X0321526Y0221556D01*
X0320599Y0221678D01*
D02*
G37*
G36*
X0310598D02*
X0309671Y0221556D01*
X0308807Y0221198D01*
X0308065Y0220628D01*
X0307495Y0219886D01*
X0307137Y0219022D01*
X0307015Y0218094D01*
X0307137Y0217167D01*
X0307495Y0216303D01*
X0308065Y0215561D01*
X0308807Y0214991D01*
X0309671Y0214633D01*
X0310598Y0214511D01*
X0311526Y0214633D01*
X0312390Y0214991D01*
X0313132Y0215561D01*
X0313702Y0216303D01*
X0314060Y0217167D01*
X0314182Y0218094D01*
X0314060Y0219022D01*
X0313702Y0219886D01*
X0313132Y0220628D01*
X0312390Y0221198D01*
X0311526Y0221556D01*
X0310598Y0221678D01*
D02*
G37*
G36*
X0290599D02*
X0289671Y0221556D01*
X0288807Y0221198D01*
X0288065Y0220628D01*
X0287495Y0219886D01*
X0287137Y0219022D01*
X0287015Y0218094D01*
X0287137Y0217167D01*
X0287495Y0216303D01*
X0288065Y0215561D01*
X0288807Y0214991D01*
X0289671Y0214633D01*
X0290599Y0214511D01*
X0291526Y0214633D01*
X0292390Y0214991D01*
X0293132Y0215561D01*
X0293702Y0216303D01*
X0294060Y0217167D01*
X0294182Y0218094D01*
X0294060Y0219022D01*
X0293702Y0219886D01*
X0293132Y0220628D01*
X0292390Y0221198D01*
X0291526Y0221556D01*
X0290599Y0221678D01*
D02*
G37*
G36*
X0270599D02*
X0269671Y0221556D01*
X0268807Y0221198D01*
X0268065Y0220628D01*
X0267495Y0219886D01*
X0267137Y0219022D01*
X0267015Y0218094D01*
X0267137Y0217167D01*
X0267495Y0216303D01*
X0268065Y0215561D01*
X0268807Y0214991D01*
X0269671Y0214633D01*
X0270599Y0214511D01*
X0271526Y0214633D01*
X0272390Y0214991D01*
X0273132Y0215561D01*
X0273702Y0216303D01*
X0274060Y0217167D01*
X0274182Y0218094D01*
X0274060Y0219022D01*
X0273702Y0219886D01*
X0273132Y0220628D01*
X0272390Y0221198D01*
X0271526Y0221556D01*
X0270599Y0221678D01*
D02*
G37*
G36*
X0260598D02*
X0259671Y0221556D01*
X0258807Y0221198D01*
X0258065Y0220628D01*
X0257495Y0219886D01*
X0257137Y0219022D01*
X0257015Y0218094D01*
X0257137Y0217167D01*
X0257495Y0216303D01*
X0258065Y0215561D01*
X0258807Y0214991D01*
X0259671Y0214633D01*
X0260598Y0214511D01*
X0261526Y0214633D01*
X0262390Y0214991D01*
X0263132Y0215561D01*
X0263702Y0216303D01*
X0264060Y0217167D01*
X0264182Y0218094D01*
X0264060Y0219022D01*
X0263702Y0219886D01*
X0263132Y0220628D01*
X0262390Y0221198D01*
X0261526Y0221556D01*
X0260598Y0221678D01*
D02*
G37*
G36*
X0240599D02*
X0239671Y0221556D01*
X0238807Y0221198D01*
X0238065Y0220628D01*
X0237495Y0219886D01*
X0237137Y0219022D01*
X0237015Y0218094D01*
X0237137Y0217167D01*
X0237495Y0216303D01*
X0238065Y0215561D01*
X0238807Y0214991D01*
X0239671Y0214633D01*
X0240599Y0214511D01*
X0241526Y0214633D01*
X0242390Y0214991D01*
X0243132Y0215561D01*
X0243702Y0216303D01*
X0244060Y0217167D01*
X0244182Y0218094D01*
X0244060Y0219022D01*
X0243702Y0219886D01*
X0243132Y0220628D01*
X0242390Y0221198D01*
X0241526Y0221556D01*
X0240599Y0221678D01*
D02*
G37*
G36*
X0210598D02*
X0209671Y0221556D01*
X0208807Y0221198D01*
X0208065Y0220628D01*
X0207495Y0219886D01*
X0207137Y0219022D01*
X0207015Y0218094D01*
X0207137Y0217167D01*
X0207495Y0216303D01*
X0208065Y0215561D01*
X0208807Y0214991D01*
X0209671Y0214633D01*
X0210598Y0214511D01*
X0211526Y0214633D01*
X0212390Y0214991D01*
X0213132Y0215561D01*
X0213702Y0216303D01*
X0214060Y0217167D01*
X0214182Y0218094D01*
X0214060Y0219022D01*
X0213702Y0219886D01*
X0213132Y0220628D01*
X0212390Y0221198D01*
X0211526Y0221556D01*
X0210598Y0221678D01*
D02*
G37*
G36*
X0246654Y0225323D02*
X0218228D01*
X0217838Y0225245D01*
X0217507Y0225024D01*
X0214988Y0222504D01*
X0214767Y0222174D01*
X0214689Y0221783D01*
Y0205670D01*
X0209956Y0200937D01*
X0206850D01*
X0206391Y0200747D01*
X0206201Y0200287D01*
Y0197925D01*
X0206391Y0197466D01*
X0206850Y0197276D01*
X0210394D01*
X0210853Y0197466D01*
X0211043Y0197925D01*
Y0199141D01*
X0216430Y0204527D01*
X0216651Y0204858D01*
X0216728Y0205248D01*
Y0206848D01*
X0217228Y0206947D01*
X0217495Y0206303D01*
X0218065Y0205561D01*
X0218460Y0205257D01*
X0218336Y0204722D01*
X0218193Y0204694D01*
X0217862Y0204473D01*
X0215263Y0201874D01*
X0215042Y0201544D01*
X0214965Y0201153D01*
Y0200976D01*
X0214213D01*
X0213753Y0200786D01*
X0213563Y0200327D01*
Y0197965D01*
X0213733Y0197555D01*
X0213550Y0197055D01*
X0211457D01*
X0211067Y0196977D01*
X0210736Y0196756D01*
X0209011Y0195031D01*
X0206850D01*
X0206391Y0194841D01*
X0206201Y0194382D01*
Y0194220D01*
X0205197D01*
X0204807Y0194143D01*
X0204476Y0193922D01*
X0203491Y0192937D01*
X0203346Y0192966D01*
X0202728Y0192843D01*
X0202204Y0192493D01*
X0201854Y0191969D01*
X0201731Y0191350D01*
X0201854Y0190732D01*
X0202204Y0190208D01*
X0202728Y0189858D01*
X0203346Y0189735D01*
X0203965Y0189858D01*
X0204489Y0190208D01*
X0204839Y0190732D01*
X0204962Y0191350D01*
X0204933Y0191495D01*
X0205619Y0192181D01*
X0206201D01*
Y0192020D01*
X0206391Y0191560D01*
X0206850Y0191370D01*
X0210394D01*
X0210853Y0191560D01*
X0211043Y0192020D01*
Y0194180D01*
X0211879Y0195016D01*
X0213268D01*
X0213602Y0194516D01*
X0213563Y0194421D01*
Y0192059D01*
X0213753Y0191600D01*
X0213828Y0191226D01*
X0212786Y0190184D01*
X0212265Y0190217D01*
X0212245Y0190249D01*
X0211720Y0190599D01*
X0211102Y0190722D01*
X0210484Y0190599D01*
X0209960Y0190249D01*
X0209610Y0189724D01*
X0209487Y0189106D01*
X0209524Y0188922D01*
X0209207Y0188535D01*
X0206417D01*
X0205958Y0188345D01*
X0204187Y0186573D01*
X0203996Y0186114D01*
Y0185228D01*
X0199596D01*
X0199416Y0185694D01*
X0199606Y0186154D01*
Y0191665D01*
X0199416Y0192125D01*
X0199094Y0192258D01*
Y0192788D01*
X0200354D01*
X0200814Y0192978D01*
X0201004Y0193437D01*
Y0200917D01*
X0200814Y0201377D01*
X0200354Y0201567D01*
X0196024D01*
X0195564Y0201377D01*
X0195374Y0200917D01*
Y0194318D01*
X0194912Y0194127D01*
X0191161Y0197878D01*
Y0200917D01*
X0190971Y0201377D01*
X0190512Y0201567D01*
X0186181D01*
X0185722Y0201377D01*
X0185532Y0200917D01*
Y0193437D01*
X0185722Y0192978D01*
X0186181Y0192788D01*
X0190512D01*
X0190971Y0192978D01*
X0191161Y0193437D01*
Y0194052D01*
X0191623Y0194244D01*
X0193090Y0192777D01*
X0192899Y0192315D01*
X0191870D01*
X0191411Y0192125D01*
X0191221Y0191665D01*
Y0186154D01*
X0191411Y0185694D01*
X0191733Y0185561D01*
Y0185504D01*
X0191733Y0185504D01*
X0191818Y0185075D01*
X0192061Y0184711D01*
X0193459Y0183313D01*
X0193459Y0183313D01*
X0193823Y0183070D01*
X0194252Y0182985D01*
X0203996D01*
Y0182571D01*
X0204187Y0182112D01*
X0205958Y0180340D01*
X0206417Y0180150D01*
X0209961D01*
X0210226Y0180260D01*
X0210509Y0179836D01*
X0210264Y0179591D01*
X0209910Y0179061D01*
X0209786Y0178437D01*
Y0177982D01*
X0209077D01*
X0208976Y0178024D01*
X0205433D01*
X0205209Y0177931D01*
X0198858D01*
X0198254Y0177811D01*
X0197741Y0177468D01*
X0196855Y0176582D01*
X0196512Y0176069D01*
X0196392Y0175465D01*
Y0174598D01*
X0194429D01*
X0194309Y0174548D01*
X0193806Y0174802D01*
X0193796Y0174851D01*
X0193575Y0175182D01*
X0191292Y0177465D01*
X0190961Y0177686D01*
X0190571Y0177764D01*
X0190161D01*
X0190079Y0177886D01*
X0189555Y0178236D01*
X0188937Y0178359D01*
X0188319Y0178236D01*
X0187795Y0177886D01*
X0187445Y0177362D01*
X0187322Y0176744D01*
X0187445Y0176126D01*
X0187795Y0175602D01*
X0188319Y0175252D01*
X0188937Y0175129D01*
X0189555Y0175252D01*
X0190079Y0175602D01*
X0190254Y0175619D01*
X0190813Y0175060D01*
X0190621Y0174598D01*
X0189311D01*
X0188852Y0174408D01*
X0188662Y0173949D01*
Y0173882D01*
X0188642Y0173866D01*
X0187090D01*
X0187008Y0173989D01*
X0186484Y0174339D01*
X0185866Y0174462D01*
X0185248Y0174339D01*
X0184724Y0173989D01*
X0184693Y0173942D01*
X0184193Y0174094D01*
Y0175189D01*
X0184087Y0175444D01*
X0184028Y0175799D01*
X0184087Y0176154D01*
X0184193Y0176409D01*
Y0178378D01*
X0184002Y0178837D01*
X0184002Y0179060D01*
X0184193Y0179520D01*
Y0181488D01*
X0184002Y0181947D01*
X0183543Y0182138D01*
X0176850D01*
X0176391Y0181947D01*
X0175925Y0182129D01*
Y0188004D01*
X0175735Y0188463D01*
X0175276Y0188653D01*
X0173307D01*
X0172848Y0188463D01*
X0172346Y0188559D01*
X0172153Y0188639D01*
Y0190030D01*
X0172651Y0190528D01*
X0173855D01*
X0173937Y0190405D01*
X0174461Y0190055D01*
X0175079Y0189932D01*
X0175697Y0190055D01*
X0176221Y0190405D01*
X0176571Y0190929D01*
X0176694Y0191547D01*
X0176571Y0192165D01*
X0176221Y0192689D01*
X0175697Y0193040D01*
X0175079Y0193163D01*
X0174461Y0193040D01*
X0173937Y0192689D01*
X0173855Y0192567D01*
X0172228D01*
X0171838Y0192489D01*
X0171507Y0192268D01*
X0170413Y0191174D01*
X0170192Y0190843D01*
X0170114Y0190453D01*
Y0189227D01*
X0170102Y0189221D01*
X0169602Y0189520D01*
Y0191755D01*
X0175761Y0197914D01*
X0175906Y0197885D01*
X0176524Y0198008D01*
X0177048Y0198358D01*
X0177398Y0198882D01*
X0177521Y0199500D01*
X0177398Y0200118D01*
X0177048Y0200642D01*
X0176524Y0200992D01*
X0176585Y0201490D01*
X0178993D01*
X0179177Y0200990D01*
X0179008Y0200583D01*
Y0196646D01*
X0179198Y0196186D01*
X0179657Y0195996D01*
X0183201D01*
X0183660Y0196186D01*
X0183850Y0196646D01*
Y0200583D01*
X0183660Y0201042D01*
X0183201Y0201232D01*
X0182538D01*
X0182386Y0201732D01*
X0182471Y0201788D01*
X0186705Y0206023D01*
X0186926Y0206354D01*
X0186928Y0206365D01*
X0187448Y0206416D01*
X0187495Y0206303D01*
X0188065Y0205561D01*
X0188807Y0204991D01*
X0189671Y0204633D01*
X0190598Y0204511D01*
X0191526Y0204633D01*
X0192390Y0204991D01*
X0193132Y0205561D01*
X0193702Y0206303D01*
X0194060Y0207167D01*
X0194182Y0208095D01*
X0194060Y0209022D01*
X0193702Y0209886D01*
X0193132Y0210628D01*
X0192390Y0211198D01*
X0191526Y0211556D01*
X0190598Y0211678D01*
X0189671Y0211556D01*
X0188807Y0211198D01*
X0188065Y0210628D01*
X0187504Y0209898D01*
X0187467Y0209893D01*
X0187004Y0210007D01*
Y0216182D01*
X0187467Y0216296D01*
X0187504Y0216291D01*
X0188065Y0215561D01*
X0188807Y0214991D01*
X0189671Y0214633D01*
X0190598Y0214511D01*
X0191526Y0214633D01*
X0192390Y0214991D01*
X0193132Y0215561D01*
X0193702Y0216303D01*
X0194060Y0217167D01*
X0194182Y0218094D01*
X0194060Y0219022D01*
X0193702Y0219886D01*
X0193132Y0220628D01*
X0192390Y0221198D01*
X0191526Y0221556D01*
X0190598Y0221678D01*
X0189671Y0221556D01*
X0188807Y0221198D01*
X0188065Y0220628D01*
X0187504Y0219898D01*
X0187467Y0219893D01*
X0187004Y0220007D01*
Y0221547D01*
X0186926Y0221937D01*
X0186705Y0222268D01*
X0184619Y0224355D01*
X0184288Y0224576D01*
X0183898Y0224654D01*
X0176138D01*
X0175748Y0224576D01*
X0175417Y0224355D01*
X0172298Y0221236D01*
X0171526Y0221556D01*
X0170598Y0221678D01*
X0169671Y0221556D01*
X0168807Y0221198D01*
X0168065Y0220628D01*
X0167495Y0219886D01*
X0167137Y0219022D01*
X0167015Y0218094D01*
X0167137Y0217167D01*
X0167495Y0216303D01*
X0168065Y0215561D01*
X0168807Y0214991D01*
X0169671Y0214633D01*
X0170598Y0214511D01*
X0171526Y0214633D01*
X0172390Y0214991D01*
X0173132Y0215561D01*
X0173702Y0216303D01*
X0174060Y0217167D01*
X0174182Y0218094D01*
X0174060Y0219022D01*
X0173740Y0219794D01*
X0176560Y0222614D01*
X0183475D01*
X0184965Y0221125D01*
Y0207166D01*
X0181327Y0203529D01*
X0175061D01*
X0174870Y0203991D01*
X0176233Y0205354D01*
X0176454Y0205685D01*
X0176531Y0206075D01*
Y0211873D01*
X0179403Y0214744D01*
X0179671Y0214633D01*
X0180598Y0214511D01*
X0181526Y0214633D01*
X0182390Y0214991D01*
X0183132Y0215561D01*
X0183702Y0216303D01*
X0184060Y0217167D01*
X0184182Y0218094D01*
X0184060Y0219022D01*
X0183702Y0219886D01*
X0183132Y0220628D01*
X0182390Y0221198D01*
X0181526Y0221556D01*
X0180598Y0221678D01*
X0179671Y0221556D01*
X0178807Y0221198D01*
X0178065Y0220628D01*
X0177495Y0219886D01*
X0177137Y0219022D01*
X0177015Y0218094D01*
X0177137Y0217167D01*
X0177495Y0216303D01*
X0177748Y0215973D01*
X0174791Y0213016D01*
X0174570Y0212685D01*
X0174492Y0212295D01*
Y0209284D01*
X0173992Y0209185D01*
X0173702Y0209886D01*
X0173132Y0210628D01*
X0172390Y0211198D01*
X0171526Y0211556D01*
X0170598Y0211678D01*
X0169671Y0211556D01*
X0168807Y0211198D01*
X0168065Y0210628D01*
X0167495Y0209886D01*
X0167137Y0209022D01*
X0167015Y0208095D01*
X0167137Y0207167D01*
X0167495Y0206303D01*
X0168065Y0205561D01*
X0168236Y0205429D01*
X0168066Y0204929D01*
X0163130D01*
X0162961Y0205429D01*
X0163132Y0205561D01*
X0163702Y0206303D01*
X0164060Y0207167D01*
X0164182Y0208095D01*
X0164060Y0209022D01*
X0163702Y0209886D01*
X0163132Y0210628D01*
X0162390Y0211198D01*
X0161526Y0211556D01*
X0160599Y0211678D01*
X0159671Y0211556D01*
X0158807Y0211198D01*
X0158505Y0210967D01*
X0155557Y0213915D01*
X0155193Y0214158D01*
X0154764Y0214244D01*
X0154764Y0214244D01*
X0151892D01*
X0151793Y0214744D01*
X0152390Y0214991D01*
X0153132Y0215561D01*
X0153702Y0216303D01*
X0154060Y0217167D01*
X0154182Y0218094D01*
X0154060Y0219022D01*
X0153702Y0219886D01*
X0153132Y0220628D01*
X0152390Y0221198D01*
X0151526Y0221556D01*
X0150599Y0221678D01*
X0149671Y0221556D01*
X0148807Y0221198D01*
X0148065Y0220628D01*
X0147495Y0219886D01*
X0147137Y0219022D01*
X0147015Y0218094D01*
X0147137Y0217167D01*
X0147495Y0216303D01*
X0148065Y0215561D01*
X0148807Y0214991D01*
X0149405Y0214744D01*
X0149305Y0214244D01*
X0148622D01*
X0148622Y0214244D01*
X0148193Y0214158D01*
X0147829Y0213915D01*
X0147829Y0213915D01*
X0144837Y0210923D01*
X0144701Y0210719D01*
X0144201Y0210871D01*
Y0211047D01*
X0144010Y0211507D01*
X0143551Y0211697D01*
X0137646D01*
X0137187Y0211507D01*
X0136996Y0211047D01*
Y0205142D01*
X0137187Y0204682D01*
X0137148Y0204157D01*
X0137081Y0204112D01*
X0137081Y0204112D01*
X0134260Y0201291D01*
X0131653D01*
X0131194Y0201101D01*
X0131004Y0200642D01*
Y0198280D01*
X0131128Y0197980D01*
X0131049Y0197564D01*
X0130958Y0197404D01*
X0130696Y0197229D01*
X0128565Y0195097D01*
X0128343Y0194766D01*
X0128266Y0194376D01*
Y0188844D01*
X0128343Y0188453D01*
X0128565Y0188123D01*
X0128862Y0187825D01*
Y0187421D01*
X0128665Y0187126D01*
X0128542Y0186508D01*
X0128665Y0185890D01*
X0129015Y0185366D01*
X0129539Y0185016D01*
X0130157Y0184893D01*
X0130776Y0185016D01*
X0131300Y0185366D01*
X0131650Y0185890D01*
X0131773Y0186508D01*
X0131650Y0187126D01*
X0131300Y0187650D01*
X0131199Y0187717D01*
X0131391Y0188181D01*
X0131402Y0188187D01*
X0131535Y0188160D01*
X0132154Y0188283D01*
X0132678Y0188633D01*
X0133028Y0189157D01*
X0133151Y0189776D01*
X0133122Y0189920D01*
X0134926Y0191725D01*
X0135197D01*
X0135656Y0191915D01*
X0135846Y0192374D01*
Y0193003D01*
X0135862Y0193083D01*
X0135846Y0193162D01*
Y0194736D01*
X0135742Y0194988D01*
X0136016Y0195488D01*
X0137645D01*
X0137897Y0194988D01*
X0137776Y0194697D01*
Y0192335D01*
X0137966Y0191875D01*
X0138425Y0191685D01*
X0141969D01*
X0142428Y0191875D01*
X0142428Y0191876D01*
X0142786Y0191570D01*
X0142765Y0191043D01*
X0142755Y0191036D01*
X0142405Y0190512D01*
X0142397Y0190472D01*
X0142318Y0190402D01*
X0141845Y0190259D01*
X0141689Y0190363D01*
X0141299Y0190441D01*
X0136850D01*
X0136460Y0190363D01*
X0136129Y0190142D01*
X0134784Y0188796D01*
X0134606Y0188832D01*
X0133988Y0188709D01*
X0133464Y0188359D01*
X0133114Y0187835D01*
X0132991Y0187216D01*
X0133114Y0186598D01*
X0133464Y0186074D01*
X0133652Y0185949D01*
Y0185348D01*
X0133503Y0185248D01*
X0133153Y0184724D01*
X0133030Y0184106D01*
X0133153Y0183488D01*
X0133503Y0182964D01*
X0134028Y0182614D01*
X0134646Y0182491D01*
X0135264Y0182614D01*
X0135788Y0182964D01*
X0136138Y0183488D01*
X0136261Y0184106D01*
X0136747Y0184228D01*
X0137815D01*
Y0181311D01*
X0138005Y0180852D01*
X0138465Y0180662D01*
X0140433D01*
X0140892Y0180852D01*
X0141316Y0180852D01*
X0141776Y0180662D01*
X0143744D01*
X0143989Y0180763D01*
X0144294Y0180817D01*
X0144763Y0180476D01*
Y0178970D01*
X0144763Y0178970D01*
X0144848Y0178541D01*
X0145091Y0178177D01*
X0146254Y0177014D01*
X0146254Y0177014D01*
X0146618Y0176771D01*
X0147047Y0176686D01*
X0147047Y0176686D01*
X0159339D01*
X0161516Y0174508D01*
Y0169488D01*
X0161516Y0169487D01*
X0161016Y0169275D01*
X0160472Y0169383D01*
X0159854Y0169260D01*
X0159330Y0168910D01*
X0159038Y0168472D01*
X0152717D01*
X0152326Y0168395D01*
X0151996Y0168174D01*
X0150893Y0167071D01*
X0150672Y0166741D01*
X0150595Y0166350D01*
Y0160800D01*
X0150063Y0160268D01*
X0143481D01*
X0143431Y0160258D01*
X0143048Y0160282D01*
X0142888Y0160620D01*
X0142831Y0160906D01*
X0142481Y0161430D01*
X0141957Y0161780D01*
X0141339Y0161903D01*
X0140720Y0161780D01*
X0140196Y0161430D01*
X0139846Y0160906D01*
X0139837Y0160857D01*
X0138649Y0159670D01*
X0138428Y0159339D01*
X0138350Y0158949D01*
Y0153815D01*
X0138283Y0153755D01*
X0137648Y0153858D01*
X0137610Y0153924D01*
X0137658Y0154135D01*
X0137736Y0154323D01*
Y0156291D01*
X0137546Y0156751D01*
X0137546Y0157013D01*
X0137736Y0157473D01*
Y0159441D01*
X0137630Y0159696D01*
X0137571Y0160051D01*
X0137630Y0160406D01*
X0137736Y0160661D01*
Y0162630D01*
X0137650Y0162837D01*
X0137538Y0163332D01*
X0137728Y0163791D01*
Y0165760D01*
X0137636Y0165981D01*
X0137538Y0166482D01*
X0137728Y0166941D01*
Y0168909D01*
X0137538Y0169369D01*
X0137636Y0169869D01*
X0137728Y0170091D01*
Y0172059D01*
X0137538Y0172518D01*
X0137079Y0172708D01*
X0130386D01*
X0129927Y0172518D01*
X0129736Y0172059D01*
Y0170091D01*
X0129927Y0169631D01*
X0129828Y0169131D01*
X0129736Y0168909D01*
Y0166941D01*
X0129828Y0166719D01*
X0129927Y0166219D01*
X0129736Y0165760D01*
Y0163791D01*
X0129822Y0163584D01*
X0129935Y0163089D01*
X0129744Y0162630D01*
Y0160661D01*
X0129850Y0160406D01*
X0129909Y0160051D01*
X0129850Y0159696D01*
X0129744Y0159441D01*
Y0157473D01*
X0129935Y0157013D01*
X0129935Y0156751D01*
X0129744Y0156291D01*
Y0156031D01*
X0129177D01*
X0129095Y0156154D01*
X0128571Y0156504D01*
X0127953Y0156627D01*
X0127335Y0156504D01*
X0126811Y0156154D01*
X0126460Y0155630D01*
X0126338Y0155012D01*
X0126460Y0154394D01*
X0126811Y0153870D01*
X0127335Y0153519D01*
X0127953Y0153396D01*
X0128571Y0153519D01*
X0129095Y0153870D01*
X0129171Y0153983D01*
X0129643Y0153971D01*
X0129858Y0153525D01*
X0129822Y0153369D01*
X0129744Y0153181D01*
Y0153137D01*
X0129417Y0152918D01*
X0127744Y0151245D01*
X0127523Y0150914D01*
X0127445Y0150524D01*
Y0139169D01*
X0127523Y0138778D01*
X0127744Y0138447D01*
X0132930Y0133261D01*
X0133261Y0133040D01*
X0133651Y0132963D01*
X0141434D01*
X0142406Y0131991D01*
Y0126801D01*
X0141026D01*
X0140892Y0127125D01*
X0140433Y0127315D01*
X0137284D01*
X0136824Y0127125D01*
X0136634Y0126665D01*
Y0123516D01*
X0136824Y0123056D01*
X0137284Y0122866D01*
X0140433D01*
X0140892Y0123056D01*
X0141083Y0123516D01*
Y0123538D01*
X0143029D01*
X0143425Y0123459D01*
X0145073D01*
X0145079Y0123457D01*
X0146106D01*
Y0119892D01*
X0145334Y0119572D01*
X0144592Y0119002D01*
X0144023Y0118260D01*
X0143665Y0117396D01*
X0143543Y0116469D01*
X0143665Y0115541D01*
X0144023Y0114677D01*
X0144592Y0113935D01*
X0145334Y0113365D01*
X0146198Y0113007D01*
X0147126Y0112885D01*
X0148053Y0113007D01*
X0148918Y0113365D01*
X0149660Y0113935D01*
X0150229Y0114677D01*
X0150587Y0115541D01*
X0150709Y0116469D01*
X0150587Y0117396D01*
X0150229Y0118260D01*
X0149660Y0119002D01*
X0148918Y0119572D01*
X0148146Y0119892D01*
Y0123457D01*
X0148622D01*
X0149081Y0123647D01*
X0149272Y0124106D01*
Y0126469D01*
X0149081Y0126928D01*
X0148622Y0127118D01*
X0145079D01*
X0144945Y0127062D01*
X0144445Y0127397D01*
Y0129084D01*
X0144945Y0129418D01*
X0145079Y0129362D01*
X0148622D01*
X0148960Y0129502D01*
X0151516D01*
X0152011Y0129601D01*
X0153858D01*
Y0129559D01*
X0154049Y0129100D01*
X0154508Y0128910D01*
X0157658D01*
X0157890Y0129006D01*
X0158390Y0128720D01*
Y0123280D01*
X0158467Y0122889D01*
X0158688Y0122559D01*
X0160696Y0120551D01*
X0161027Y0120330D01*
X0161417Y0120252D01*
X0163432D01*
X0163661Y0119752D01*
X0163524Y0119421D01*
Y0113516D01*
X0163714Y0113057D01*
X0164173Y0112866D01*
X0170079D01*
X0170538Y0113057D01*
X0170728Y0113516D01*
Y0119421D01*
X0170591Y0119752D01*
X0170820Y0120252D01*
X0171310D01*
X0173159Y0118403D01*
X0173267Y0117886D01*
X0172917Y0117362D01*
X0172794Y0116744D01*
X0172917Y0116126D01*
X0173267Y0115602D01*
X0173791Y0115252D01*
X0174409Y0115129D01*
X0175028Y0115252D01*
X0175552Y0115602D01*
X0175902Y0116126D01*
X0176025Y0116744D01*
X0175902Y0117362D01*
X0175552Y0117886D01*
X0175449Y0117955D01*
Y0118575D01*
X0175371Y0118965D01*
X0175150Y0119296D01*
X0172453Y0121993D01*
X0172123Y0122214D01*
X0171732Y0122291D01*
X0161840D01*
X0160429Y0123702D01*
Y0129106D01*
X0160929Y0129206D01*
X0160997Y0129041D01*
X0161457Y0128851D01*
X0164606D01*
X0165066Y0129041D01*
X0165256Y0129500D01*
Y0132650D01*
X0165066Y0133109D01*
X0165041Y0133119D01*
X0164880Y0133727D01*
X0165036Y0133961D01*
X0165159Y0134579D01*
X0165036Y0135197D01*
X0164961Y0135309D01*
X0165228Y0135809D01*
X0166658D01*
X0168865Y0133602D01*
X0168658Y0133102D01*
X0168189D01*
X0167730Y0132912D01*
X0167540Y0132453D01*
Y0130091D01*
X0167730Y0129631D01*
X0168189Y0129441D01*
X0171732D01*
X0172192Y0129631D01*
X0172382Y0130091D01*
Y0132453D01*
X0172192Y0132912D01*
X0171732Y0133102D01*
X0171295D01*
Y0133634D01*
X0171218Y0134024D01*
X0170997Y0134355D01*
X0168123Y0137229D01*
X0168330Y0137729D01*
X0168937D01*
X0169396Y0137919D01*
X0169659Y0137919D01*
X0170118Y0137729D01*
X0172087D01*
X0172546Y0137919D01*
X0172848Y0137919D01*
X0173307Y0137729D01*
X0175276D01*
X0175735Y0137919D01*
X0175925Y0138378D01*
Y0140705D01*
X0179154D01*
X0179544Y0140782D01*
X0179875Y0141004D01*
X0182099Y0143228D01*
X0182320Y0143559D01*
X0182398Y0143949D01*
Y0144225D01*
X0183543D01*
X0184002Y0144415D01*
X0184193Y0144874D01*
Y0146843D01*
X0184106Y0147051D01*
X0184169Y0147139D01*
X0184752Y0147165D01*
X0185281Y0146812D01*
X0185906Y0146688D01*
X0186530Y0146812D01*
X0187059Y0147165D01*
X0187355Y0147462D01*
X0187404Y0147482D01*
X0187405Y0147483D01*
X0187407Y0147484D01*
X0189558Y0149636D01*
X0190020Y0149444D01*
Y0148032D01*
X0190000Y0147984D01*
Y0144835D01*
X0190020Y0144787D01*
Y0142492D01*
X0190020Y0142492D01*
Y0139342D01*
X0190034Y0139308D01*
X0189700Y0138808D01*
X0180352D01*
X0179923Y0138723D01*
X0179559Y0138480D01*
X0179559Y0138480D01*
X0179552Y0138473D01*
X0179528Y0138478D01*
X0178909Y0138355D01*
X0178385Y0138004D01*
X0178035Y0137480D01*
X0177912Y0136862D01*
X0177917Y0136838D01*
X0176412Y0135332D01*
X0176169Y0134969D01*
X0176083Y0134539D01*
X0176083Y0134539D01*
Y0133142D01*
X0175433D01*
X0174974Y0132951D01*
X0174784Y0132492D01*
Y0130130D01*
X0174974Y0129671D01*
X0175433Y0129481D01*
X0178976D01*
X0179436Y0129671D01*
X0179626Y0130130D01*
Y0132492D01*
X0179436Y0132951D01*
X0178976Y0133142D01*
X0178326D01*
Y0134075D01*
X0179503Y0135252D01*
X0179528Y0135247D01*
X0180146Y0135370D01*
X0180670Y0135720D01*
X0181020Y0136244D01*
X0181084Y0136565D01*
X0182041D01*
X0182335Y0136065D01*
X0182243Y0135602D01*
X0182366Y0134984D01*
X0182716Y0134460D01*
X0183240Y0134110D01*
X0183858Y0133987D01*
X0183883Y0133992D01*
X0185939Y0131935D01*
X0185939Y0131935D01*
X0186303Y0131692D01*
X0186732Y0131607D01*
X0186732Y0131607D01*
X0190571D01*
Y0130957D01*
X0190761Y0130498D01*
X0191220Y0130307D01*
X0191241D01*
Y0128220D01*
X0191181D01*
X0190722Y0128030D01*
X0190532Y0127571D01*
Y0124028D01*
X0190722Y0123568D01*
X0191181Y0123378D01*
X0193543D01*
X0194002Y0123568D01*
X0194193Y0124028D01*
Y0127571D01*
X0194002Y0128030D01*
X0193543Y0128220D01*
X0193484D01*
Y0130307D01*
X0193583D01*
X0194042Y0130498D01*
X0194232Y0130957D01*
Y0134500D01*
X0194042Y0134959D01*
X0193583Y0135149D01*
X0191220D01*
X0190761Y0134959D01*
X0190571Y0134500D01*
Y0133850D01*
X0187197D01*
X0185469Y0135578D01*
X0185474Y0135602D01*
X0185381Y0136065D01*
X0185676Y0136565D01*
X0200509D01*
X0200510Y0136565D01*
X0200939Y0136650D01*
X0201303Y0136894D01*
X0202407Y0137998D01*
X0202650Y0138362D01*
X0202736Y0138791D01*
X0202736Y0138791D01*
Y0144783D01*
X0206147Y0148194D01*
X0206147Y0148194D01*
X0206390Y0148558D01*
X0206475Y0148987D01*
Y0153125D01*
X0206975Y0153392D01*
X0207138Y0153283D01*
X0207756Y0153160D01*
X0208374Y0153283D01*
X0208898Y0153633D01*
X0209248Y0154157D01*
X0209286Y0154347D01*
X0209786Y0154298D01*
Y0152216D01*
X0209910Y0151592D01*
X0210264Y0151063D01*
X0217030Y0144297D01*
Y0139461D01*
X0217154Y0138836D01*
X0217508Y0138307D01*
X0218037Y0137953D01*
X0218661Y0137829D01*
X0218955Y0137888D01*
X0219201Y0137427D01*
X0218751Y0136976D01*
X0214488D01*
X0214098Y0136899D01*
X0213767Y0136678D01*
X0212232Y0135142D01*
X0212011Y0134811D01*
X0211933Y0134421D01*
Y0127768D01*
X0212011Y0127377D01*
X0212232Y0127047D01*
X0214122Y0125157D01*
X0214452Y0124936D01*
X0214666Y0124894D01*
Y0124697D01*
X0214856Y0124238D01*
X0215315Y0124047D01*
X0218858D01*
X0219318Y0124238D01*
X0219508Y0124697D01*
Y0127059D01*
X0219318Y0127518D01*
X0218858Y0127708D01*
X0215315D01*
X0214856Y0127518D01*
X0214679Y0127483D01*
X0213972Y0128190D01*
Y0133999D01*
X0214911Y0134937D01*
X0219173D01*
X0219563Y0135015D01*
X0219894Y0135236D01*
X0222217Y0137559D01*
X0222438Y0137889D01*
X0222516Y0138279D01*
Y0147857D01*
X0225525Y0150866D01*
X0225669Y0150838D01*
X0226287Y0150960D01*
X0226812Y0151311D01*
X0227162Y0151835D01*
X0227285Y0152453D01*
X0227162Y0153071D01*
X0226812Y0153595D01*
X0226287Y0153945D01*
X0225669Y0154068D01*
X0225051Y0153945D01*
X0224527Y0153595D01*
X0224177Y0153071D01*
X0224054Y0152453D01*
X0224083Y0152308D01*
X0220775Y0149001D01*
X0220554Y0148670D01*
X0220477Y0148280D01*
Y0146036D01*
X0219976Y0145884D01*
X0219815Y0146126D01*
X0213049Y0152892D01*
Y0162396D01*
X0213976D01*
X0214029Y0162269D01*
X0214488Y0162079D01*
X0217014D01*
X0217205Y0161617D01*
X0215423Y0159835D01*
X0214488D01*
X0214029Y0159644D01*
X0213839Y0159185D01*
Y0156823D01*
X0214029Y0156364D01*
X0214488Y0156173D01*
X0215980D01*
X0216260Y0156118D01*
X0216540Y0156173D01*
X0218032D01*
X0218491Y0156364D01*
X0218681Y0156823D01*
Y0157757D01*
X0221389Y0160466D01*
X0225295D01*
X0226017Y0160609D01*
X0226045Y0160628D01*
X0226449Y0160709D01*
X0227144Y0161173D01*
X0227608Y0161867D01*
X0227771Y0162687D01*
Y0164284D01*
X0228996D01*
Y0156783D01*
X0229036Y0156688D01*
Y0155130D01*
X0229061Y0155068D01*
X0229031Y0154552D01*
X0228377Y0154115D01*
X0227940Y0153461D01*
X0227786Y0152689D01*
Y0143634D01*
X0227940Y0142862D01*
X0228377Y0142208D01*
X0229031Y0141771D01*
X0229803Y0141617D01*
X0230575Y0141771D01*
X0231229Y0142208D01*
X0231666Y0142862D01*
X0231820Y0143634D01*
Y0152689D01*
X0231666Y0153461D01*
X0231319Y0153981D01*
X0231514Y0154481D01*
X0232349D01*
Y0138921D01*
X0232100Y0138818D01*
X0231910Y0138358D01*
Y0135996D01*
X0232063Y0135626D01*
X0231857Y0135126D01*
X0231693D01*
X0231303Y0135048D01*
X0230972Y0134827D01*
X0229004Y0132859D01*
X0228782Y0132528D01*
X0228705Y0132138D01*
Y0124607D01*
X0223812Y0119714D01*
X0223485Y0119966D01*
X0222620Y0120324D01*
X0221693Y0120446D01*
X0220765Y0120324D01*
X0219901Y0119966D01*
X0219159Y0119396D01*
X0218590Y0118654D01*
X0218232Y0117790D01*
X0218109Y0116862D01*
X0218232Y0115935D01*
X0218590Y0115070D01*
X0219159Y0114328D01*
X0219901Y0113759D01*
X0220765Y0113401D01*
X0221693Y0113279D01*
X0222620Y0113401D01*
X0223485Y0113759D01*
X0224227Y0114328D01*
X0224796Y0115070D01*
X0225154Y0115935D01*
X0225276Y0116862D01*
X0225154Y0117790D01*
X0225042Y0118061D01*
X0230268Y0123287D01*
X0230768Y0123080D01*
Y0120721D01*
X0230446Y0120191D01*
X0229901Y0119966D01*
X0229159Y0119396D01*
X0228590Y0118654D01*
X0228232Y0117790D01*
X0228110Y0116862D01*
X0228232Y0115935D01*
X0228590Y0115070D01*
X0229159Y0114328D01*
X0229901Y0113759D01*
X0230766Y0113401D01*
X0231693Y0113279D01*
X0232620Y0113401D01*
X0233485Y0113759D01*
X0234227Y0114328D01*
X0234796Y0115070D01*
X0235154Y0115935D01*
X0235276Y0116862D01*
X0235210Y0117363D01*
X0239162Y0121315D01*
X0253858D01*
X0254248Y0121393D01*
X0254579Y0121614D01*
X0256513Y0123548D01*
X0257103Y0123431D01*
X0257119Y0123391D01*
X0257579Y0123201D01*
X0263681D01*
X0264140Y0123391D01*
X0264331Y0123850D01*
Y0125664D01*
X0264455Y0125756D01*
X0264830Y0125885D01*
X0265248Y0125606D01*
X0265866Y0125483D01*
X0266123Y0125024D01*
X0265949Y0124764D01*
X0265826Y0124146D01*
X0265949Y0123528D01*
X0266299Y0123003D01*
X0266823Y0122653D01*
X0267441Y0122530D01*
X0268059Y0122653D01*
X0268583Y0123003D01*
X0268933Y0123528D01*
X0269056Y0124146D01*
X0269027Y0124290D01*
X0269441Y0124704D01*
X0269941Y0124497D01*
Y0120277D01*
X0269935Y0120274D01*
X0269744Y0119815D01*
Y0113909D01*
X0269935Y0113450D01*
X0270074Y0113393D01*
X0270131Y0113253D01*
X0270591Y0113063D01*
X0276496D01*
X0276955Y0113253D01*
X0277146Y0113713D01*
Y0123201D01*
X0279429D01*
X0279888Y0123391D01*
X0280079Y0123850D01*
Y0137433D01*
X0279888Y0137892D01*
X0279429Y0138083D01*
X0277146D01*
Y0138516D01*
X0276955Y0138975D01*
X0276496Y0139165D01*
X0272677D01*
X0272486Y0139627D01*
X0274642Y0141783D01*
X0274863Y0142114D01*
X0274941Y0142504D01*
Y0146606D01*
X0275118Y0146725D01*
X0277480D01*
X0277940Y0146915D01*
X0278130Y0147374D01*
Y0150917D01*
X0277940Y0151376D01*
X0277480Y0151567D01*
X0276571D01*
Y0154303D01*
X0277677D01*
X0278136Y0154494D01*
X0278327Y0154953D01*
Y0156724D01*
X0278136Y0157184D01*
X0277677Y0157374D01*
X0276571D01*
Y0167700D01*
X0277512Y0168641D01*
X0278012Y0168434D01*
Y0167453D01*
X0278202Y0166993D01*
X0278661Y0166803D01*
X0281024D01*
X0281483Y0166993D01*
X0281673Y0167453D01*
Y0170996D01*
X0281646Y0171061D01*
X0281833Y0171410D01*
X0282164Y0171631D01*
X0284288Y0173755D01*
X0284509Y0174086D01*
X0284587Y0174476D01*
Y0174677D01*
X0286929D01*
X0287388Y0174868D01*
X0287579Y0175327D01*
Y0175467D01*
X0289724D01*
X0290349Y0175591D01*
X0290878Y0175945D01*
X0291941Y0177008D01*
X0292276Y0177509D01*
X0292313Y0177515D01*
X0292776Y0177279D01*
Y0175524D01*
X0292966Y0175064D01*
X0293425Y0174874D01*
X0302605D01*
X0304383Y0173096D01*
X0304842Y0172906D01*
X0314291D01*
X0314751Y0173096D01*
X0314775Y0173155D01*
X0315079Y0173358D01*
X0315320Y0173720D01*
X0315405Y0174146D01*
X0315320Y0174572D01*
X0315162Y0174808D01*
X0315110Y0175130D01*
X0315162Y0175452D01*
X0315320Y0175688D01*
X0315405Y0176114D01*
X0315320Y0176540D01*
X0315262Y0176994D01*
X0315453Y0177453D01*
Y0180138D01*
X0315669Y0180316D01*
X0316095Y0180400D01*
X0316313Y0180546D01*
X0316653Y0180607D01*
X0316994Y0180546D01*
X0317212Y0180400D01*
X0317638Y0180316D01*
X0318064Y0180400D01*
X0318425Y0180642D01*
X0318819D01*
X0319180Y0180400D01*
X0319606Y0180316D01*
X0320032Y0180400D01*
X0320394Y0180642D01*
X0320635Y0181003D01*
X0320720Y0181429D01*
Y0183988D01*
X0320635Y0184414D01*
X0320626Y0184428D01*
Y0185731D01*
X0324139Y0189244D01*
X0326299D01*
X0326758Y0189435D01*
X0326949Y0189894D01*
Y0192256D01*
X0326844Y0192508D01*
X0327119Y0193008D01*
X0334567D01*
X0334957Y0193086D01*
X0335288Y0193307D01*
X0337131Y0195150D01*
X0339291D01*
X0339751Y0195340D01*
X0339941Y0195799D01*
Y0198161D01*
X0339751Y0198621D01*
X0339291Y0198811D01*
X0335748D01*
X0335289Y0198621D01*
X0335099Y0198161D01*
Y0196001D01*
X0334263Y0195166D01*
X0333851Y0195207D01*
X0333585Y0195664D01*
X0333642Y0195799D01*
Y0198161D01*
X0333451Y0198621D01*
X0332992Y0198811D01*
X0329449D01*
X0328990Y0198621D01*
X0328799Y0198161D01*
Y0198000D01*
X0326949D01*
Y0198161D01*
X0326758Y0198621D01*
X0326364Y0198784D01*
X0326254Y0199072D01*
X0326213Y0199311D01*
X0326532Y0199787D01*
X0326655Y0200406D01*
X0326532Y0201024D01*
X0326182Y0201548D01*
X0325658Y0201898D01*
X0325039Y0202021D01*
X0324421Y0201898D01*
X0323897Y0201548D01*
X0323547Y0201024D01*
X0323424Y0200406D01*
X0323547Y0199787D01*
X0323866Y0199311D01*
X0323811Y0199088D01*
X0323674Y0198811D01*
X0322756D01*
X0322297Y0198621D01*
X0322107Y0198161D01*
Y0195799D01*
X0322211Y0195547D01*
X0321936Y0195047D01*
X0320590D01*
X0320385Y0195006D01*
X0320116Y0195463D01*
X0320256Y0195799D01*
Y0198161D01*
X0320065Y0198621D01*
X0319661Y0198788D01*
X0319598Y0198874D01*
X0319560Y0198965D01*
X0319455Y0199311D01*
X0319721Y0199709D01*
X0319844Y0200327D01*
X0319721Y0200945D01*
X0319371Y0201469D01*
X0318847Y0201819D01*
X0318228Y0201942D01*
X0317610Y0201819D01*
X0317086Y0201469D01*
X0316736Y0200945D01*
X0316613Y0200327D01*
X0316736Y0199709D01*
X0317002Y0199311D01*
X0316843Y0198887D01*
X0316780Y0198811D01*
X0316063D01*
X0315604Y0198621D01*
X0315414Y0198161D01*
Y0195799D01*
X0315604Y0195340D01*
X0316063Y0195150D01*
X0319582D01*
X0319678Y0195040D01*
X0319870Y0194748D01*
X0318026Y0192905D01*
X0317249D01*
X0315406Y0194748D01*
X0315075Y0194969D01*
X0314685Y0195047D01*
X0313733D01*
X0313458Y0195547D01*
X0313563Y0195799D01*
Y0198161D01*
X0313373Y0198621D01*
X0312913Y0198811D01*
X0309370D01*
X0308911Y0198621D01*
X0308721Y0198161D01*
Y0195799D01*
X0308911Y0195340D01*
X0309370Y0195150D01*
X0310134D01*
X0310200Y0194818D01*
X0310421Y0194488D01*
X0311602Y0193307D01*
X0311933Y0193086D01*
X0312323Y0193008D01*
X0314263D01*
X0315414Y0191857D01*
Y0189894D01*
X0315604Y0189435D01*
X0316063Y0189244D01*
X0316618D01*
Y0185269D01*
X0316118Y0185002D01*
X0316095Y0185017D01*
X0315669Y0185102D01*
X0315243Y0185017D01*
X0314882Y0184776D01*
X0314640Y0184414D01*
X0314556Y0183988D01*
Y0181429D01*
X0314378Y0181212D01*
X0307126D01*
X0306779Y0181069D01*
X0306279Y0181288D01*
X0306279Y0187266D01*
X0306286Y0187269D01*
X0306476Y0187728D01*
Y0191272D01*
X0306286Y0191731D01*
X0305827Y0191921D01*
X0291654D01*
X0291492Y0192029D01*
Y0199117D01*
X0292296Y0199921D01*
X0292441Y0199893D01*
X0293059Y0200016D01*
X0293583Y0200366D01*
X0293933Y0200890D01*
X0294056Y0201508D01*
X0293933Y0202126D01*
X0293583Y0202650D01*
X0293059Y0203000D01*
X0292441Y0203123D01*
X0291823Y0203000D01*
X0291299Y0202650D01*
X0290949Y0202126D01*
X0290826Y0201508D01*
X0290854Y0201363D01*
X0289752Y0200260D01*
X0289631Y0200248D01*
X0288516Y0201363D01*
X0288544Y0201508D01*
X0288422Y0202126D01*
X0288071Y0202650D01*
X0287547Y0203000D01*
X0286929Y0203123D01*
X0286311Y0203000D01*
X0285787Y0202650D01*
X0285437Y0202126D01*
X0285314Y0201508D01*
X0285437Y0200890D01*
X0285787Y0200366D01*
X0286311Y0200016D01*
X0286929Y0199893D01*
X0287074Y0199921D01*
X0288053Y0198942D01*
Y0192318D01*
X0287579Y0192256D01*
X0287388Y0192715D01*
X0286929Y0192905D01*
X0284769D01*
X0281673Y0196001D01*
Y0198949D01*
X0281483Y0199408D01*
X0281024Y0199598D01*
X0278661D01*
X0278202Y0199408D01*
X0278012Y0198949D01*
Y0195405D01*
X0278202Y0194946D01*
X0278661Y0194756D01*
X0280034D01*
X0281570Y0193220D01*
X0281287Y0192796D01*
X0281214Y0192827D01*
X0281024Y0192905D01*
X0278661D01*
X0278202Y0192715D01*
X0278012Y0192256D01*
Y0191504D01*
X0266791D01*
Y0191726D01*
X0266642Y0192086D01*
X0266588Y0192360D01*
X0266150Y0193015D01*
X0264153Y0195012D01*
Y0199343D01*
X0263963Y0199802D01*
X0263504Y0199992D01*
X0259961D01*
X0259501Y0199802D01*
X0259331Y0199391D01*
X0256375D01*
X0256286Y0199605D01*
X0255827Y0199795D01*
X0250709D01*
X0250250Y0199605D01*
X0250161Y0199391D01*
X0247713D01*
X0247625Y0199605D01*
X0247529Y0199645D01*
Y0201587D01*
X0247375Y0202358D01*
X0246938Y0203013D01*
X0246284Y0203450D01*
X0245512Y0203603D01*
X0244740Y0203450D01*
X0244086Y0203013D01*
X0243649Y0202358D01*
X0243495Y0201587D01*
Y0199795D01*
X0242047D01*
X0241588Y0199605D01*
X0241475Y0199332D01*
X0241000Y0199237D01*
X0240346Y0198800D01*
X0237330Y0195784D01*
X0237189Y0195573D01*
X0236689Y0195725D01*
Y0199024D01*
X0236811Y0199106D01*
X0237161Y0199630D01*
X0237284Y0200248D01*
X0237161Y0200866D01*
X0236811Y0201390D01*
X0236494Y0201603D01*
X0236645Y0202102D01*
X0241653D01*
X0242044Y0202180D01*
X0242374Y0202401D01*
X0246755Y0206782D01*
X0247345Y0206665D01*
X0247495Y0206303D01*
X0248065Y0205561D01*
X0248807Y0204991D01*
X0249671Y0204633D01*
X0250599Y0204511D01*
X0251526Y0204633D01*
X0252390Y0204991D01*
X0253132Y0205561D01*
X0253702Y0206303D01*
X0254060Y0207167D01*
X0254182Y0208095D01*
X0254060Y0209022D01*
X0253702Y0209886D01*
X0253132Y0210628D01*
X0252390Y0211198D01*
X0251526Y0211556D01*
X0250599Y0211678D01*
X0249671Y0211556D01*
X0248807Y0211198D01*
X0248065Y0210628D01*
X0247495Y0209886D01*
X0247175Y0209114D01*
X0246626D01*
X0246236Y0209036D01*
X0245905Y0208816D01*
X0244611Y0207521D01*
X0244137Y0207755D01*
X0244182Y0208095D01*
X0244060Y0209022D01*
X0243702Y0209886D01*
X0243132Y0210628D01*
X0242390Y0211198D01*
X0241526Y0211556D01*
X0240599Y0211678D01*
X0239671Y0211556D01*
X0238807Y0211198D01*
X0238065Y0210628D01*
X0237495Y0209886D01*
X0237137Y0209022D01*
X0237015Y0208095D01*
X0237047Y0207854D01*
X0233845Y0204652D01*
X0232769D01*
X0232600Y0205152D01*
X0233132Y0205561D01*
X0233702Y0206303D01*
X0234060Y0207167D01*
X0234182Y0208095D01*
X0234060Y0209022D01*
X0233702Y0209886D01*
X0233132Y0210628D01*
X0232390Y0211198D01*
X0231526Y0211556D01*
X0230598Y0211678D01*
X0229671Y0211556D01*
X0228807Y0211198D01*
X0228065Y0210628D01*
X0227495Y0209886D01*
X0227137Y0209022D01*
X0227116Y0208862D01*
X0227047Y0208816D01*
X0223665Y0205434D01*
X0223289Y0205765D01*
X0223702Y0206303D01*
X0224060Y0207167D01*
X0224182Y0208095D01*
X0224060Y0209022D01*
X0223702Y0209886D01*
X0223132Y0210628D01*
X0222390Y0211198D01*
X0221526Y0211556D01*
X0220599Y0211678D01*
X0219671Y0211556D01*
X0218807Y0211198D01*
X0218065Y0210628D01*
X0217495Y0209886D01*
X0217228Y0209242D01*
X0216728Y0209341D01*
Y0216848D01*
X0217228Y0216947D01*
X0217495Y0216303D01*
X0218065Y0215561D01*
X0218807Y0214991D01*
X0219671Y0214633D01*
X0220599Y0214511D01*
X0221526Y0214633D01*
X0222390Y0214991D01*
X0223132Y0215561D01*
X0223702Y0216303D01*
X0224060Y0217167D01*
X0224182Y0218094D01*
X0224060Y0219022D01*
X0223702Y0219886D01*
X0223132Y0220628D01*
X0222390Y0221198D01*
X0221526Y0221556D01*
X0220599Y0221678D01*
X0219671Y0221556D01*
X0218807Y0221198D01*
X0218065Y0220628D01*
X0217495Y0219886D01*
X0217228Y0219242D01*
X0216728Y0219341D01*
Y0221361D01*
X0218651Y0223284D01*
X0246231D01*
X0248261Y0221253D01*
X0248229Y0220754D01*
X0248065Y0220628D01*
X0247495Y0219886D01*
X0247137Y0219022D01*
X0247015Y0218094D01*
X0247137Y0217167D01*
X0247495Y0216303D01*
X0248065Y0215561D01*
X0248807Y0214991D01*
X0249671Y0214633D01*
X0250599Y0214511D01*
X0251526Y0214633D01*
X0252390Y0214991D01*
X0253132Y0215561D01*
X0253702Y0216303D01*
X0254060Y0217167D01*
X0254182Y0218094D01*
X0254060Y0219022D01*
X0253702Y0219886D01*
X0253132Y0220628D01*
X0252390Y0221198D01*
X0251526Y0221556D01*
X0250739Y0221659D01*
X0247375Y0225024D01*
X0247044Y0225245D01*
X0246654Y0225323D01*
D02*
G37*
G36*
X0140598Y0221678D02*
X0139671Y0221556D01*
X0138807Y0221198D01*
X0138065Y0220628D01*
X0137495Y0219886D01*
X0137137Y0219022D01*
X0137015Y0218094D01*
X0137137Y0217167D01*
X0137495Y0216303D01*
X0138065Y0215561D01*
X0138807Y0214991D01*
X0139671Y0214633D01*
X0140598Y0214511D01*
X0141526Y0214633D01*
X0142390Y0214991D01*
X0143132Y0215561D01*
X0143702Y0216303D01*
X0144060Y0217167D01*
X0144182Y0218094D01*
X0144060Y0219022D01*
X0143702Y0219886D01*
X0143132Y0220628D01*
X0142390Y0221198D01*
X0141526Y0221556D01*
X0140598Y0221678D01*
D02*
G37*
G36*
X0320599Y0211678D02*
X0319671Y0211556D01*
X0318807Y0211198D01*
X0318065Y0210628D01*
X0317495Y0209886D01*
X0317137Y0209022D01*
X0317015Y0208095D01*
X0317137Y0207167D01*
X0317495Y0206303D01*
X0318065Y0205561D01*
X0318807Y0204991D01*
X0319671Y0204633D01*
X0320599Y0204511D01*
X0321526Y0204633D01*
X0322390Y0204991D01*
X0323132Y0205561D01*
X0323702Y0206303D01*
X0324060Y0207167D01*
X0324182Y0208095D01*
X0324060Y0209022D01*
X0323702Y0209886D01*
X0323132Y0210628D01*
X0322390Y0211198D01*
X0321526Y0211556D01*
X0320599Y0211678D01*
D02*
G37*
G36*
X0310598D02*
X0309671Y0211556D01*
X0308807Y0211198D01*
X0308065Y0210628D01*
X0307495Y0209886D01*
X0307137Y0209022D01*
X0307015Y0208095D01*
X0307137Y0207167D01*
X0307495Y0206303D01*
X0308065Y0205561D01*
X0308807Y0204991D01*
X0309671Y0204633D01*
X0310598Y0204511D01*
X0311526Y0204633D01*
X0312390Y0204991D01*
X0313132Y0205561D01*
X0313702Y0206303D01*
X0314060Y0207167D01*
X0314182Y0208095D01*
X0314060Y0209022D01*
X0313702Y0209886D01*
X0313132Y0210628D01*
X0312390Y0211198D01*
X0311526Y0211556D01*
X0310598Y0211678D01*
D02*
G37*
G36*
X0300599D02*
X0299671Y0211556D01*
X0298807Y0211198D01*
X0298065Y0210628D01*
X0297495Y0209886D01*
X0297137Y0209022D01*
X0297015Y0208095D01*
X0297137Y0207167D01*
X0297495Y0206303D01*
X0298065Y0205561D01*
X0298807Y0204991D01*
X0299671Y0204633D01*
X0300599Y0204511D01*
X0301526Y0204633D01*
X0302390Y0204991D01*
X0303132Y0205561D01*
X0303702Y0206303D01*
X0304060Y0207167D01*
X0304182Y0208095D01*
X0304060Y0209022D01*
X0303702Y0209886D01*
X0303132Y0210628D01*
X0302390Y0211198D01*
X0301526Y0211556D01*
X0300599Y0211678D01*
D02*
G37*
G36*
X0290599D02*
X0289671Y0211556D01*
X0288807Y0211198D01*
X0288065Y0210628D01*
X0287495Y0209886D01*
X0287137Y0209022D01*
X0287015Y0208095D01*
X0287137Y0207167D01*
X0287495Y0206303D01*
X0288065Y0205561D01*
X0288807Y0204991D01*
X0289671Y0204633D01*
X0290599Y0204511D01*
X0291526Y0204633D01*
X0292390Y0204991D01*
X0293132Y0205561D01*
X0293702Y0206303D01*
X0294060Y0207167D01*
X0294182Y0208095D01*
X0294060Y0209022D01*
X0293702Y0209886D01*
X0293132Y0210628D01*
X0292390Y0211198D01*
X0291526Y0211556D01*
X0290599Y0211678D01*
D02*
G37*
G36*
X0280598D02*
X0279671Y0211556D01*
X0278807Y0211198D01*
X0278065Y0210628D01*
X0277495Y0209886D01*
X0277137Y0209022D01*
X0277015Y0208095D01*
X0277137Y0207167D01*
X0277495Y0206303D01*
X0278065Y0205561D01*
X0278807Y0204991D01*
X0279671Y0204633D01*
X0280598Y0204511D01*
X0281526Y0204633D01*
X0282390Y0204991D01*
X0283132Y0205561D01*
X0283702Y0206303D01*
X0284060Y0207167D01*
X0284182Y0208095D01*
X0284060Y0209022D01*
X0283702Y0209886D01*
X0283132Y0210628D01*
X0282390Y0211198D01*
X0281526Y0211556D01*
X0280598Y0211678D01*
D02*
G37*
G36*
X0270599D02*
X0269671Y0211556D01*
X0268807Y0211198D01*
X0268065Y0210628D01*
X0267495Y0209886D01*
X0267137Y0209022D01*
X0267015Y0208095D01*
X0267137Y0207167D01*
X0267495Y0206303D01*
X0268065Y0205561D01*
X0268807Y0204991D01*
X0269671Y0204633D01*
X0270599Y0204511D01*
X0271526Y0204633D01*
X0272390Y0204991D01*
X0273132Y0205561D01*
X0273702Y0206303D01*
X0274060Y0207167D01*
X0274182Y0208095D01*
X0274060Y0209022D01*
X0273702Y0209886D01*
X0273132Y0210628D01*
X0272390Y0211198D01*
X0271526Y0211556D01*
X0270599Y0211678D01*
D02*
G37*
G36*
X0210598D02*
X0209671Y0211556D01*
X0208807Y0211198D01*
X0208065Y0210628D01*
X0207495Y0209886D01*
X0207137Y0209022D01*
X0207015Y0208095D01*
X0207137Y0207167D01*
X0207495Y0206303D01*
X0208065Y0205561D01*
X0208807Y0204991D01*
X0209671Y0204633D01*
X0210598Y0204511D01*
X0211526Y0204633D01*
X0212390Y0204991D01*
X0213132Y0205561D01*
X0213702Y0206303D01*
X0214060Y0207167D01*
X0214182Y0208095D01*
X0214060Y0209022D01*
X0213702Y0209886D01*
X0213132Y0210628D01*
X0212390Y0211198D01*
X0211526Y0211556D01*
X0210598Y0211678D01*
D02*
G37*
G36*
X0200599D02*
X0199671Y0211556D01*
X0198807Y0211198D01*
X0198065Y0210628D01*
X0197495Y0209886D01*
X0197137Y0209022D01*
X0197015Y0208095D01*
X0197137Y0207167D01*
X0197495Y0206303D01*
X0198065Y0205561D01*
X0198807Y0204991D01*
X0199671Y0204633D01*
X0200599Y0204511D01*
X0201526Y0204633D01*
X0202390Y0204991D01*
X0203132Y0205561D01*
X0203702Y0206303D01*
X0204060Y0207167D01*
X0204182Y0208095D01*
X0204060Y0209022D01*
X0203702Y0209886D01*
X0203132Y0210628D01*
X0202390Y0211198D01*
X0201526Y0211556D01*
X0200599Y0211678D01*
D02*
G37*
G36*
X0349724Y0225375D02*
X0347777Y0225221D01*
X0345877Y0224765D01*
X0344073Y0224018D01*
X0342407Y0222997D01*
X0340921Y0221728D01*
X0339653Y0220243D01*
X0338632Y0218577D01*
X0337884Y0216772D01*
X0337428Y0214873D01*
X0337275Y0212925D01*
X0337428Y0210978D01*
X0337884Y0209078D01*
X0338632Y0207273D01*
X0339653Y0205608D01*
X0340921Y0204122D01*
X0342407Y0202853D01*
X0344073Y0201833D01*
X0345877Y0201085D01*
X0347777Y0200629D01*
X0349724Y0200476D01*
X0351672Y0200629D01*
X0353572Y0201085D01*
X0355376Y0201833D01*
X0357042Y0202853D01*
X0358527Y0204122D01*
X0359796Y0205608D01*
X0360817Y0207273D01*
X0361564Y0209078D01*
X0362020Y0210978D01*
X0362174Y0212925D01*
X0362020Y0214873D01*
X0361564Y0216772D01*
X0360817Y0218577D01*
X0359796Y0220243D01*
X0358527Y0221728D01*
X0357042Y0222997D01*
X0355376Y0224018D01*
X0353572Y0224765D01*
X0351672Y0225221D01*
X0349724Y0225375D01*
D02*
G37*
G36*
X0352953Y0198772D02*
X0350591D01*
X0350131Y0198581D01*
X0349941Y0198122D01*
Y0194579D01*
X0350131Y0194120D01*
X0350140Y0194116D01*
Y0192571D01*
X0350265Y0191947D01*
X0350373Y0191784D01*
X0350106Y0191284D01*
X0347498D01*
Y0194116D01*
X0347506Y0194120D01*
X0347697Y0194579D01*
Y0198122D01*
X0347506Y0198581D01*
X0347047Y0198772D01*
X0344685D01*
X0344226Y0198581D01*
X0344036Y0198122D01*
Y0194579D01*
X0344226Y0194120D01*
X0344235Y0194116D01*
Y0190898D01*
X0343976D01*
X0343517Y0190707D01*
X0343327Y0190248D01*
Y0187886D01*
X0343517Y0187427D01*
X0343976Y0187236D01*
X0344573D01*
X0344900Y0187018D01*
X0345748Y0186849D01*
X0353307D01*
X0354156Y0187018D01*
X0354875Y0187499D01*
X0355356Y0188218D01*
X0355524Y0189067D01*
X0355356Y0189916D01*
X0354875Y0190635D01*
X0354156Y0191116D01*
X0353422Y0191261D01*
X0353233Y0191555D01*
X0353170Y0191784D01*
X0353279Y0191947D01*
X0353403Y0192571D01*
Y0194116D01*
X0353412Y0194120D01*
X0353602Y0194579D01*
Y0198122D01*
X0353412Y0198581D01*
X0352953Y0198772D01*
D02*
G37*
G36*
X0183201Y0194933D02*
X0179657D01*
X0179198Y0194743D01*
X0179008Y0194283D01*
Y0190347D01*
X0179198Y0189887D01*
X0179657Y0189697D01*
X0183201D01*
X0183660Y0189887D01*
X0183850Y0190347D01*
Y0194283D01*
X0183660Y0194743D01*
X0183201Y0194933D01*
D02*
G37*
G36*
X0332008Y0187567D02*
X0325315D01*
X0324925Y0187489D01*
X0324594Y0187268D01*
X0322822Y0185497D01*
X0322601Y0185166D01*
X0322524Y0184776D01*
Y0184428D01*
X0322515Y0184414D01*
X0322430Y0183988D01*
Y0181429D01*
X0322515Y0181003D01*
X0322756Y0180642D01*
X0323117Y0180400D01*
X0323543Y0180316D01*
X0323970Y0180400D01*
X0324187Y0180546D01*
X0324528Y0180607D01*
X0324868Y0180546D01*
X0325086Y0180400D01*
X0325512Y0180316D01*
X0325776Y0180051D01*
X0325861Y0179625D01*
X0326007Y0179407D01*
X0326067Y0179067D01*
X0326007Y0178726D01*
X0325861Y0178509D01*
X0325776Y0178083D01*
X0325861Y0177656D01*
X0326007Y0177439D01*
X0326067Y0177098D01*
X0326007Y0176758D01*
X0325861Y0176540D01*
X0325776Y0176114D01*
X0325861Y0175688D01*
X0326007Y0175470D01*
X0326067Y0175130D01*
X0326007Y0174790D01*
X0325861Y0174572D01*
X0325776Y0174146D01*
X0325861Y0173720D01*
X0326007Y0173502D01*
X0326067Y0173161D01*
X0326007Y0172821D01*
X0325861Y0172603D01*
X0325776Y0172177D01*
X0325861Y0171751D01*
X0326007Y0171533D01*
X0326067Y0171193D01*
X0326007Y0170852D01*
X0325861Y0170635D01*
X0325776Y0170209D01*
X0325512Y0169944D01*
X0325086Y0169860D01*
X0324724Y0169618D01*
X0324331D01*
X0323970Y0169860D01*
X0323543Y0169944D01*
X0323117Y0169860D01*
X0322756Y0169618D01*
X0322362D01*
X0322001Y0169860D01*
X0321575Y0169944D01*
X0321149Y0169860D01*
X0320931Y0169714D01*
X0320591Y0169653D01*
X0320250Y0169714D01*
X0320032Y0169860D01*
X0319606Y0169944D01*
X0319180Y0169860D01*
X0318962Y0169714D01*
X0318622Y0169653D01*
X0318282Y0169714D01*
X0318064Y0169860D01*
X0317638Y0169944D01*
X0317212Y0169860D01*
X0316976Y0169702D01*
X0316653Y0169650D01*
X0316331Y0169702D01*
X0316095Y0169860D01*
X0315669Y0169944D01*
X0315243Y0169860D01*
X0314882Y0169618D01*
X0314790Y0169480D01*
X0303523D01*
Y0170799D01*
X0303333Y0171258D01*
X0302874Y0171449D01*
X0293425D01*
X0292966Y0171258D01*
X0292776Y0170799D01*
Y0164500D01*
X0292966Y0164041D01*
X0293425Y0163851D01*
X0305755D01*
X0306949Y0162656D01*
Y0159776D01*
X0306949Y0159776D01*
Y0159579D01*
X0307139Y0159119D01*
X0307598Y0158929D01*
X0310748D01*
X0311207Y0159119D01*
X0311210Y0159126D01*
X0311606D01*
X0311962Y0159033D01*
X0312091Y0158664D01*
Y0157516D01*
X0311702Y0157173D01*
X0311212Y0157271D01*
X0311207Y0157282D01*
X0310748Y0157472D01*
X0307598D01*
X0307139Y0157282D01*
X0306949Y0156823D01*
Y0153673D01*
X0307139Y0153214D01*
X0307598Y0153024D01*
X0310748D01*
X0311207Y0153214D01*
X0311398Y0153673D01*
Y0154240D01*
X0311729Y0154306D01*
X0312059Y0154527D01*
X0313831Y0156299D01*
X0314052Y0156630D01*
X0314130Y0157020D01*
Y0158577D01*
X0314717Y0159164D01*
X0315217Y0158957D01*
Y0156035D01*
X0315407Y0155576D01*
X0315866Y0155386D01*
X0319016D01*
X0319475Y0155576D01*
X0319665Y0156035D01*
Y0159185D01*
X0319475Y0159644D01*
X0319115Y0159793D01*
X0318976Y0160138D01*
X0318950Y0160335D01*
X0319494Y0160879D01*
X0319803Y0160818D01*
X0320421Y0160941D01*
X0320945Y0161291D01*
X0321295Y0161815D01*
X0321418Y0162433D01*
X0321357Y0162742D01*
X0322212Y0163596D01*
X0322580Y0163628D01*
X0322822Y0163582D01*
X0324295Y0162109D01*
Y0161606D01*
X0322756D01*
X0322297Y0161416D01*
X0322107Y0160957D01*
Y0157413D01*
X0322297Y0156954D01*
X0322756Y0156764D01*
X0327874D01*
X0328333Y0156954D01*
X0328523Y0157413D01*
Y0160957D01*
X0328333Y0161416D01*
X0327874Y0161606D01*
X0326335D01*
Y0162531D01*
X0326257Y0162922D01*
X0326036Y0163252D01*
X0324744Y0164544D01*
X0324779Y0164851D01*
X0324836Y0164924D01*
X0325254Y0165201D01*
X0325268Y0165204D01*
X0329390Y0161081D01*
Y0145478D01*
X0325833Y0141921D01*
X0323513D01*
X0323510Y0141928D01*
X0323051Y0142118D01*
X0316752D01*
X0316293Y0141928D01*
X0316290Y0141921D01*
X0312323D01*
X0311864Y0141731D01*
X0311673Y0141272D01*
Y0133732D01*
X0293890D01*
X0283326Y0144295D01*
Y0146725D01*
X0283386D01*
X0283845Y0146915D01*
X0284035Y0147374D01*
Y0150917D01*
X0283845Y0151376D01*
X0283386Y0151567D01*
X0281024D01*
X0280564Y0151376D01*
X0280374Y0150917D01*
Y0147374D01*
X0280564Y0146915D01*
X0281024Y0146725D01*
X0281083D01*
Y0143831D01*
X0281083Y0143831D01*
X0281169Y0143402D01*
X0281412Y0143038D01*
X0292632Y0131817D01*
X0292996Y0131574D01*
X0293425Y0131489D01*
X0293425Y0131489D01*
X0311465D01*
X0311673Y0131280D01*
Y0128673D01*
X0311864Y0128214D01*
X0313544Y0126534D01*
Y0125445D01*
X0313043Y0125178D01*
X0313013Y0125198D01*
X0312886Y0125223D01*
X0312778Y0125295D01*
X0312241Y0125402D01*
X0312176Y0125389D01*
X0312114Y0125415D01*
X0312053Y0125389D01*
X0311987Y0125402D01*
X0311450Y0125295D01*
X0311342Y0125223D01*
X0311216Y0125198D01*
X0310760Y0124894D01*
X0310688Y0124786D01*
X0310581Y0124715D01*
X0310276Y0124259D01*
X0310251Y0124132D01*
X0310179Y0124025D01*
X0310072Y0123487D01*
X0310098Y0123360D01*
X0310072Y0123233D01*
X0310179Y0122696D01*
X0310251Y0122589D01*
X0310276Y0122462D01*
X0310581Y0122006D01*
X0310688Y0121934D01*
X0310760Y0121827D01*
X0311216Y0121522D01*
X0311342Y0121497D01*
X0311450Y0121425D01*
X0311987Y0121318D01*
X0312053Y0121331D01*
X0312114Y0121306D01*
X0312176Y0121331D01*
X0312241Y0121318D01*
X0312778Y0121425D01*
X0312886Y0121497D01*
X0313013Y0121522D01*
X0313407Y0121785D01*
X0313468Y0121827D01*
X0313469Y0121827D01*
X0313615Y0121984D01*
X0313648Y0122006D01*
X0313679Y0122053D01*
X0313734Y0122112D01*
X0314193Y0121921D01*
X0315768D01*
X0316227Y0122112D01*
X0316293Y0122112D01*
X0316752Y0121921D01*
X0318327D01*
X0318786Y0122112D01*
X0318852Y0122112D01*
X0319311Y0121921D01*
X0320886D01*
X0321345Y0122112D01*
X0321411Y0122112D01*
X0321870Y0121921D01*
X0323445D01*
X0323904Y0122112D01*
X0324094Y0122571D01*
Y0128083D01*
X0323904Y0128542D01*
X0323445Y0128732D01*
X0321870D01*
X0321411Y0128542D01*
X0321345Y0128542D01*
X0320886Y0128732D01*
X0319311D01*
X0318852Y0128542D01*
X0318786Y0128542D01*
X0318327Y0128732D01*
X0316752D01*
X0316735Y0128725D01*
X0316319Y0129003D01*
Y0134717D01*
X0327284D01*
X0327743Y0134907D01*
X0334436Y0141600D01*
X0334626Y0142059D01*
Y0163063D01*
X0338042D01*
X0338045Y0163057D01*
X0338504Y0162866D01*
X0340866D01*
X0341118Y0162971D01*
X0341618Y0162696D01*
Y0161773D01*
X0339877Y0160031D01*
X0337520D01*
X0337060Y0159841D01*
X0336870Y0159382D01*
Y0156232D01*
X0337060Y0155773D01*
X0337520Y0155583D01*
X0340669D01*
X0341128Y0155773D01*
X0341319Y0156232D01*
Y0158589D01*
X0343359Y0160629D01*
X0343580Y0160960D01*
X0343657Y0161350D01*
Y0162696D01*
X0344102Y0162940D01*
X0344571Y0162748D01*
Y0160031D01*
X0343819D01*
X0343360Y0159841D01*
X0343169Y0159382D01*
Y0156232D01*
X0343360Y0155773D01*
X0343819Y0155583D01*
X0346969D01*
X0347428Y0155773D01*
X0347618Y0156232D01*
Y0159382D01*
X0347428Y0159841D01*
X0346969Y0160031D01*
X0346610D01*
Y0162866D01*
X0346772D01*
X0347231Y0163057D01*
X0347421Y0163516D01*
Y0167059D01*
X0347231Y0167518D01*
X0346772Y0167709D01*
X0344409D01*
X0344157Y0167604D01*
X0343657Y0167879D01*
Y0173949D01*
X0343580Y0174339D01*
X0343359Y0174670D01*
X0343002Y0175026D01*
X0343194Y0175488D01*
X0347791D01*
X0348705Y0174575D01*
Y0167059D01*
X0348782Y0166669D01*
X0349004Y0166338D01*
X0352374Y0162968D01*
X0352444Y0162431D01*
X0352802Y0161567D01*
X0353372Y0160824D01*
X0353592Y0160656D01*
X0353624Y0160157D01*
X0346743Y0153276D01*
X0343388D01*
X0343343Y0153504D01*
X0342993Y0154028D01*
X0342469Y0154378D01*
X0341850Y0154501D01*
X0341232Y0154378D01*
X0340708Y0154028D01*
X0340358Y0153504D01*
X0340235Y0152886D01*
X0340358Y0152268D01*
X0340708Y0151744D01*
X0341232Y0151393D01*
X0341355Y0151369D01*
Y0150859D01*
X0341232Y0150835D01*
X0340708Y0150485D01*
X0340358Y0149961D01*
X0340235Y0149343D01*
X0340358Y0148724D01*
X0340708Y0148200D01*
X0341232Y0147850D01*
X0341850Y0147727D01*
X0342469Y0147850D01*
X0342993Y0148200D01*
X0343343Y0148724D01*
X0343466Y0149343D01*
X0343456Y0149393D01*
X0343797Y0149780D01*
X0344720D01*
X0344911Y0149318D01*
X0340814Y0145220D01*
X0340669Y0145249D01*
X0340051Y0145126D01*
X0339527Y0144776D01*
X0339177Y0144252D01*
X0339054Y0143634D01*
X0339177Y0143016D01*
X0339527Y0142492D01*
X0340051Y0142141D01*
X0340669Y0142019D01*
X0341287Y0142141D01*
X0341811Y0142492D01*
X0342162Y0143016D01*
X0342285Y0143634D01*
X0342256Y0143779D01*
X0346603Y0148126D01*
X0359055D01*
X0359445Y0148204D01*
X0359776Y0148425D01*
X0361469Y0150118D01*
X0361690Y0150448D01*
X0361768Y0150839D01*
Y0176587D01*
X0361690Y0176977D01*
X0361469Y0177308D01*
X0359382Y0179394D01*
X0359052Y0179615D01*
X0358661Y0179693D01*
X0358429D01*
X0358347Y0179815D01*
X0357823Y0180166D01*
X0357205Y0180289D01*
X0356587Y0180166D01*
X0356063Y0179815D01*
X0355712Y0179291D01*
X0355589Y0178673D01*
X0355712Y0178055D01*
X0356063Y0177531D01*
X0356587Y0177181D01*
X0357205Y0177058D01*
X0357823Y0177181D01*
X0358347Y0177531D01*
X0358360Y0177532D01*
X0359729Y0176164D01*
Y0164719D01*
X0359228Y0164620D01*
X0359009Y0165150D01*
X0358439Y0165892D01*
X0357697Y0166462D01*
X0356833Y0166820D01*
X0355906Y0166942D01*
X0354978Y0166820D01*
X0354242Y0166515D01*
X0353896Y0166897D01*
X0353933Y0166953D01*
X0354056Y0167571D01*
X0353933Y0168189D01*
X0353583Y0168713D01*
X0353059Y0169063D01*
X0352441Y0169186D01*
X0352144Y0169580D01*
Y0176092D01*
X0352066Y0176482D01*
X0351845Y0176813D01*
X0349776Y0178882D01*
X0349445Y0179103D01*
X0349055Y0179181D01*
X0345540D01*
X0343852Y0180869D01*
X0343881Y0180976D01*
X0344098Y0181331D01*
X0347520D01*
X0347979Y0181521D01*
X0347983Y0181530D01*
X0350394D01*
X0350394Y0181530D01*
X0351018Y0181654D01*
X0351547Y0182008D01*
X0351901Y0182537D01*
X0352025Y0183161D01*
X0351901Y0183786D01*
X0351547Y0184315D01*
X0351018Y0184669D01*
X0350394Y0184793D01*
X0347983D01*
X0347979Y0184802D01*
X0347520Y0184992D01*
X0343976D01*
X0343517Y0184802D01*
X0343327Y0184343D01*
Y0182102D01*
X0342972Y0181885D01*
X0342865Y0181856D01*
X0342178Y0182544D01*
X0341847Y0182765D01*
X0341457Y0182842D01*
X0340111D01*
X0339836Y0183342D01*
X0339941Y0183595D01*
Y0185957D01*
X0339751Y0186416D01*
X0339291Y0186606D01*
X0335748D01*
X0335289Y0186416D01*
X0335099Y0185957D01*
Y0185795D01*
X0334202D01*
X0332729Y0187268D01*
X0332398Y0187489D01*
X0332008Y0187567D01*
D02*
G37*
G36*
X0287126Y0165937D02*
X0284764D01*
X0284305Y0165747D01*
X0284114Y0165287D01*
Y0164765D01*
X0284108Y0164762D01*
X0283917Y0164303D01*
Y0160760D01*
X0284108Y0160301D01*
X0284114Y0160298D01*
Y0156724D01*
Y0154953D01*
X0284305Y0154494D01*
X0284764Y0154303D01*
X0287520D01*
X0287979Y0154494D01*
X0288169Y0154953D01*
Y0156764D01*
X0289420D01*
X0289423Y0156757D01*
X0289882Y0156567D01*
X0295394D01*
X0295853Y0156757D01*
X0296043Y0157217D01*
Y0161153D01*
X0295853Y0161613D01*
X0295394Y0161803D01*
X0289882D01*
X0289423Y0161613D01*
X0289420Y0161606D01*
X0287775D01*
Y0165287D01*
X0287585Y0165747D01*
X0287126Y0165937D01*
D02*
G37*
G36*
X0304055Y0158063D02*
X0298543D01*
X0298084Y0157873D01*
X0297894Y0157413D01*
Y0153476D01*
X0298084Y0153017D01*
X0298543Y0152827D01*
X0300280D01*
Y0151134D01*
X0300357Y0150744D01*
X0300578Y0150413D01*
X0306346Y0144645D01*
X0306677Y0144424D01*
X0307067Y0144347D01*
X0321335D01*
X0321417Y0144224D01*
X0321941Y0143874D01*
X0322559Y0143751D01*
X0323177Y0143874D01*
X0323701Y0144224D01*
X0324051Y0144748D01*
X0324174Y0145366D01*
X0324051Y0145984D01*
X0323701Y0146508D01*
X0323177Y0146859D01*
X0322559Y0146981D01*
X0321941Y0146859D01*
X0321417Y0146508D01*
X0321335Y0146386D01*
X0307489D01*
X0302319Y0151556D01*
Y0152827D01*
X0304055D01*
X0304514Y0153017D01*
X0304705Y0153476D01*
Y0157413D01*
X0304514Y0157873D01*
X0304055Y0158063D01*
D02*
G37*
G36*
X0355906Y0146942D02*
X0354978Y0146820D01*
X0354114Y0146462D01*
X0353372Y0145892D01*
X0352802Y0145150D01*
X0352444Y0144286D01*
X0352322Y0143358D01*
X0352444Y0142431D01*
X0352802Y0141567D01*
X0353372Y0140824D01*
X0354114Y0140255D01*
X0354978Y0139897D01*
X0355906Y0139775D01*
X0356833Y0139897D01*
X0357697Y0140255D01*
X0358439Y0140824D01*
X0359009Y0141567D01*
X0359367Y0142431D01*
X0359489Y0143358D01*
X0359367Y0144286D01*
X0359009Y0145150D01*
X0358439Y0145892D01*
X0357697Y0146462D01*
X0356833Y0146820D01*
X0355906Y0146942D01*
D02*
G37*
G36*
X0228386Y0141233D02*
X0227768Y0141110D01*
X0227244Y0140760D01*
X0226893Y0140236D01*
X0226770Y0139618D01*
X0226775Y0139594D01*
X0224876Y0137695D01*
X0224633Y0137331D01*
X0224548Y0136902D01*
X0224548Y0136901D01*
Y0133732D01*
X0223898D01*
X0223438Y0133542D01*
X0223248Y0133083D01*
Y0133023D01*
X0219483D01*
X0219318Y0133424D01*
X0218858Y0133614D01*
X0215315D01*
X0214856Y0133424D01*
X0214666Y0132965D01*
Y0130602D01*
X0214856Y0130143D01*
X0215315Y0129953D01*
X0218858D01*
X0219318Y0130143D01*
X0219508Y0130602D01*
Y0130780D01*
X0223248D01*
Y0130720D01*
X0223438Y0130261D01*
X0223898Y0130071D01*
X0227441D01*
X0227900Y0130261D01*
X0228090Y0130720D01*
Y0133083D01*
X0227900Y0133542D01*
X0227441Y0133732D01*
X0226791D01*
Y0136437D01*
X0228362Y0138008D01*
X0228386Y0138003D01*
X0229004Y0138126D01*
X0229528Y0138476D01*
X0229878Y0139000D01*
X0230001Y0139618D01*
X0229878Y0140236D01*
X0229528Y0140760D01*
X0229004Y0141110D01*
X0228386Y0141233D01*
D02*
G37*
G36*
X0342244Y0141035D02*
X0338701D01*
X0338242Y0140845D01*
X0338051Y0140386D01*
Y0136646D01*
X0338242Y0136186D01*
X0338701Y0135996D01*
X0342244D01*
X0342703Y0136186D01*
X0342750Y0136298D01*
X0346378D01*
X0347227Y0136467D01*
X0347258Y0136488D01*
X0348346D01*
X0348806Y0136679D01*
X0348996Y0137138D01*
Y0139500D01*
X0348806Y0139959D01*
X0348346Y0140149D01*
X0347848D01*
X0347227Y0140564D01*
X0346378Y0140733D01*
X0342750D01*
X0342703Y0140845D01*
X0342244Y0141035D01*
D02*
G37*
G36*
X0295590Y0147138D02*
X0289685D01*
X0289226Y0146947D01*
X0289036Y0146488D01*
Y0140189D01*
X0289226Y0139730D01*
X0289685Y0139540D01*
X0290420D01*
Y0138949D01*
X0290420Y0138949D01*
X0290589Y0138100D01*
X0291070Y0137381D01*
X0292881Y0135570D01*
X0292881Y0135570D01*
X0293600Y0135089D01*
X0294449Y0134920D01*
X0294449Y0134920D01*
X0300003D01*
X0300020Y0134914D01*
X0306319D01*
X0306778Y0135104D01*
X0306968Y0135563D01*
Y0141469D01*
X0306778Y0141928D01*
X0306319Y0142118D01*
X0300020D01*
X0299560Y0141928D01*
X0299370Y0141469D01*
Y0139355D01*
X0296328D01*
X0296102Y0139855D01*
X0296240Y0140189D01*
Y0146488D01*
X0296050Y0146947D01*
X0295590Y0147138D01*
D02*
G37*
G36*
X0199488Y0135149D02*
X0197126D01*
X0196667Y0134959D01*
X0196477Y0134500D01*
Y0130957D01*
X0196667Y0130498D01*
X0197126Y0130307D01*
X0199488D01*
X0199947Y0130498D01*
X0200138Y0130957D01*
Y0131709D01*
X0202655D01*
X0202751Y0131625D01*
X0203002Y0131209D01*
X0202912Y0130760D01*
X0203035Y0130142D01*
X0203385Y0129618D01*
X0203909Y0129268D01*
X0204528Y0129145D01*
X0205146Y0129268D01*
X0205670Y0129618D01*
X0206020Y0130142D01*
X0206143Y0130760D01*
X0206020Y0131378D01*
X0205670Y0131902D01*
X0205519Y0132003D01*
X0205469Y0132252D01*
X0205248Y0132583D01*
X0204382Y0133449D01*
X0204052Y0133670D01*
X0203661Y0133748D01*
X0200138D01*
Y0134500D01*
X0199947Y0134959D01*
X0199488Y0135149D01*
D02*
G37*
G36*
X0208780Y0136123D02*
X0208008Y0135969D01*
X0207353Y0135532D01*
X0206916Y0134878D01*
X0206763Y0134106D01*
Y0127275D01*
X0206272Y0127110D01*
X0205742Y0127464D01*
X0205118Y0127588D01*
X0204494Y0127464D01*
X0204444Y0127431D01*
X0200098D01*
Y0127571D01*
X0199908Y0128030D01*
X0199449Y0128220D01*
X0197087D01*
X0196627Y0128030D01*
X0196437Y0127571D01*
Y0124028D01*
X0196627Y0123568D01*
X0197087Y0123378D01*
X0199449D01*
X0199908Y0123568D01*
X0200098Y0124028D01*
Y0124168D01*
X0204961D01*
X0205558Y0124287D01*
X0205590Y0124265D01*
X0205799Y0123821D01*
X0202339Y0120361D01*
X0201693Y0120446D01*
X0200765Y0120324D01*
X0199901Y0119966D01*
X0199159Y0119396D01*
X0198590Y0118654D01*
X0198232Y0117790D01*
X0198109Y0116862D01*
X0198232Y0115935D01*
X0198590Y0115070D01*
X0199159Y0114328D01*
X0199901Y0113759D01*
X0200765Y0113401D01*
X0201693Y0113279D01*
X0202620Y0113401D01*
X0203485Y0113759D01*
X0204227Y0114328D01*
X0204796Y0115070D01*
X0205154Y0115935D01*
X0205276Y0116862D01*
X0205191Y0117508D01*
X0210206Y0122523D01*
X0210643Y0123177D01*
X0210796Y0123949D01*
Y0134106D01*
X0210643Y0134878D01*
X0210206Y0135532D01*
X0209551Y0135969D01*
X0208780Y0136123D01*
D02*
G37*
G36*
X0328059Y0125415D02*
X0327998Y0125389D01*
X0327932Y0125402D01*
X0327395Y0125295D01*
X0327287Y0125223D01*
X0327161Y0125198D01*
X0326705Y0124894D01*
X0326633Y0124786D01*
X0326526Y0124715D01*
X0326221Y0124259D01*
X0326196Y0124132D01*
X0326124Y0124025D01*
X0326017Y0123487D01*
X0326042Y0123360D01*
X0326017Y0123233D01*
X0326124Y0122696D01*
X0326196Y0122589D01*
X0326221Y0122462D01*
X0326526Y0122006D01*
X0326633Y0121934D01*
X0326705Y0121827D01*
X0327161Y0121522D01*
X0327287Y0121497D01*
X0327395Y0121425D01*
X0327932Y0121318D01*
X0327998Y0121331D01*
X0328059Y0121306D01*
X0328120Y0121331D01*
X0328186Y0121318D01*
X0328723Y0121425D01*
X0328831Y0121497D01*
X0328958Y0121522D01*
X0329413Y0121827D01*
X0329485Y0121934D01*
X0329592Y0122006D01*
X0329897Y0122462D01*
X0329922Y0122589D01*
X0329994Y0122696D01*
X0330101Y0123233D01*
X0330076Y0123360D01*
X0330101Y0123487D01*
X0329994Y0124025D01*
X0329922Y0124132D01*
X0329897Y0124259D01*
X0329592Y0124715D01*
X0329485Y0124786D01*
X0329413Y0124894D01*
X0328958Y0125198D01*
X0328831Y0125223D01*
X0328723Y0125295D01*
X0328186Y0125402D01*
X0328120Y0125389D01*
X0328059Y0125415D01*
D02*
G37*
G36*
X0295590Y0130405D02*
X0289685D01*
X0289226Y0130215D01*
X0289036Y0129756D01*
Y0123457D01*
X0289226Y0122997D01*
X0289685Y0122807D01*
X0289942D01*
X0290420Y0122768D01*
X0290589Y0121919D01*
X0291070Y0121200D01*
X0292639Y0119631D01*
X0292624Y0119396D01*
X0292054Y0118654D01*
X0291696Y0117790D01*
X0291574Y0116862D01*
X0291696Y0115935D01*
X0292054Y0115070D01*
X0292624Y0114328D01*
X0293366Y0113759D01*
X0294230Y0113401D01*
X0295158Y0113279D01*
X0296085Y0113401D01*
X0296949Y0113759D01*
X0297691Y0114328D01*
X0298261Y0115070D01*
X0298619Y0115935D01*
X0298741Y0116862D01*
X0298619Y0117790D01*
X0298261Y0118654D01*
X0297691Y0119396D01*
X0297375Y0119639D01*
Y0120248D01*
X0297375Y0120248D01*
X0297206Y0121097D01*
X0296725Y0121816D01*
X0296725Y0121816D01*
X0295966Y0122576D01*
X0296050Y0122997D01*
X0296240Y0123457D01*
Y0129756D01*
X0296050Y0130215D01*
X0295590Y0130405D01*
D02*
G37*
G36*
X0241693Y0120446D02*
X0240766Y0120324D01*
X0239901Y0119966D01*
X0239159Y0119396D01*
X0238590Y0118654D01*
X0238232Y0117790D01*
X0238109Y0116862D01*
X0238232Y0115935D01*
X0238590Y0115070D01*
X0239159Y0114328D01*
X0239901Y0113759D01*
X0240766Y0113401D01*
X0241693Y0113279D01*
X0242620Y0113401D01*
X0243485Y0113759D01*
X0244227Y0114328D01*
X0244796Y0115070D01*
X0245154Y0115935D01*
X0245276Y0116862D01*
X0245154Y0117790D01*
X0244796Y0118654D01*
X0244227Y0119396D01*
X0243485Y0119966D01*
X0242620Y0120324D01*
X0241693Y0120446D01*
D02*
G37*
G36*
X0181850Y0128005D02*
X0181232Y0127882D01*
X0180708Y0127532D01*
X0180358Y0127008D01*
X0180235Y0126390D01*
X0180358Y0125772D01*
X0180673Y0125300D01*
Y0120285D01*
X0179901Y0119966D01*
X0179159Y0119396D01*
X0178590Y0118654D01*
X0178232Y0117790D01*
X0178110Y0116862D01*
X0178232Y0115935D01*
X0178590Y0115070D01*
X0179159Y0114328D01*
X0179901Y0113759D01*
X0180765Y0113401D01*
X0181693Y0113279D01*
X0182620Y0113401D01*
X0183485Y0113759D01*
X0184227Y0114328D01*
X0184796Y0115070D01*
X0185154Y0115935D01*
X0185276Y0116862D01*
X0185154Y0117790D01*
X0184796Y0118654D01*
X0184227Y0119396D01*
X0183485Y0119966D01*
X0182712Y0120285D01*
Y0125060D01*
X0182993Y0125248D01*
X0183220Y0125587D01*
X0183362Y0125618D01*
X0183777Y0125585D01*
X0184055Y0125169D01*
X0184295Y0125008D01*
Y0123240D01*
X0184373Y0122850D01*
X0184594Y0122519D01*
X0188551Y0118562D01*
X0188232Y0117790D01*
X0188110Y0116862D01*
X0188232Y0115935D01*
X0188590Y0115070D01*
X0189159Y0114328D01*
X0189901Y0113759D01*
X0190766Y0113401D01*
X0191693Y0113279D01*
X0192620Y0113401D01*
X0193485Y0113759D01*
X0194227Y0114328D01*
X0194796Y0115070D01*
X0195154Y0115935D01*
X0195276Y0116862D01*
X0195154Y0117790D01*
X0194796Y0118654D01*
X0194227Y0119396D01*
X0193485Y0119966D01*
X0192620Y0120324D01*
X0191693Y0120446D01*
X0190766Y0120324D01*
X0189993Y0120004D01*
X0186335Y0123662D01*
Y0125166D01*
X0186339Y0125169D01*
X0186689Y0125693D01*
X0186812Y0126311D01*
X0186689Y0126929D01*
X0186339Y0127453D01*
X0185815Y0127803D01*
X0185197Y0127926D01*
X0184579Y0127803D01*
X0184055Y0127453D01*
X0183828Y0127114D01*
X0183685Y0127083D01*
X0183271Y0127116D01*
X0182993Y0127532D01*
X0182468Y0127882D01*
X0181850Y0128005D01*
D02*
G37*
G36*
X0254646Y0120464D02*
X0248740D01*
X0248281Y0120274D01*
X0248091Y0119815D01*
Y0113909D01*
X0248281Y0113450D01*
X0248740Y0113260D01*
X0254646D01*
X0255105Y0113450D01*
X0255295Y0113909D01*
Y0119815D01*
X0255105Y0120274D01*
X0254646Y0120464D01*
D02*
G37*
G36*
X0157126Y0120052D02*
X0156199Y0119930D01*
X0155334Y0119572D01*
X0154592Y0119002D01*
X0154023Y0118260D01*
X0153665Y0117396D01*
X0153543Y0116469D01*
X0153665Y0115541D01*
X0154023Y0114677D01*
X0154592Y0113935D01*
X0155334Y0113365D01*
X0156199Y0113007D01*
X0157126Y0112885D01*
X0158053Y0113007D01*
X0158918Y0113365D01*
X0159660Y0113935D01*
X0160229Y0114677D01*
X0160587Y0115541D01*
X0160709Y0116469D01*
X0160587Y0117396D01*
X0160229Y0118260D01*
X0159660Y0119002D01*
X0158918Y0119572D01*
X0158053Y0119930D01*
X0157126Y0120052D01*
D02*
G37*
G36*
X0349724Y0134823D02*
X0347777Y0134670D01*
X0345877Y0134214D01*
X0344073Y0133466D01*
X0342407Y0132446D01*
X0340921Y0131177D01*
X0339653Y0129692D01*
X0338632Y0128026D01*
X0337884Y0126221D01*
X0337428Y0124321D01*
X0337275Y0122374D01*
X0337428Y0120426D01*
X0337884Y0118527D01*
X0338632Y0116722D01*
X0339653Y0115056D01*
X0340921Y0113571D01*
X0342407Y0112302D01*
X0344073Y0111282D01*
X0345877Y0110534D01*
X0347777Y0110078D01*
X0349724Y0109925D01*
X0351672Y0110078D01*
X0353572Y0110534D01*
X0355376Y0111282D01*
X0357042Y0112302D01*
X0358527Y0113571D01*
X0359796Y0115056D01*
X0360817Y0116722D01*
X0361564Y0118527D01*
X0362020Y0120426D01*
X0362174Y0122374D01*
X0362020Y0124321D01*
X0361564Y0126221D01*
X0360817Y0128026D01*
X0359796Y0129692D01*
X0358527Y0131177D01*
X0357042Y0132446D01*
X0355376Y0133466D01*
X0353572Y0134214D01*
X0351672Y0134670D01*
X0349724Y0134823D01*
D02*
G37*
%LPD*%
G36*
X0157178Y0209121D02*
X0157137Y0209022D01*
X0157015Y0208095D01*
X0157137Y0207167D01*
X0157495Y0206303D01*
X0158065Y0205561D01*
X0158807Y0204991D01*
X0159671Y0204633D01*
X0160599Y0204511D01*
X0161392Y0204615D01*
X0161646Y0204203D01*
X0161654Y0204171D01*
X0159989Y0202505D01*
X0159446Y0202670D01*
X0159406Y0202874D01*
X0159056Y0203398D01*
X0158531Y0203748D01*
X0157913Y0203871D01*
X0157295Y0203748D01*
X0156771Y0203398D01*
X0156421Y0202874D01*
X0156298Y0202256D01*
X0156327Y0202111D01*
X0156068Y0201852D01*
X0155847Y0201522D01*
X0155617Y0201336D01*
X0155117Y0201492D01*
Y0201976D01*
X0155233Y0202150D01*
X0155355Y0202768D01*
X0155233Y0203386D01*
X0154882Y0203910D01*
X0154358Y0204260D01*
X0153740Y0204383D01*
X0153122Y0204260D01*
X0152598Y0203910D01*
X0152248Y0203386D01*
X0152125Y0202768D01*
X0152248Y0202150D01*
X0152364Y0201976D01*
Y0201252D01*
X0151969D01*
X0151509Y0201062D01*
X0151319Y0200602D01*
Y0198240D01*
X0151407Y0198028D01*
X0151110Y0197528D01*
X0142827D01*
X0142530Y0198028D01*
X0142618Y0198240D01*
Y0200602D01*
X0142750Y0200799D01*
X0144484D01*
X0144874Y0200877D01*
X0145205Y0201098D01*
X0149013Y0204906D01*
X0149671Y0204633D01*
X0150599Y0204511D01*
X0151526Y0204633D01*
X0152390Y0204991D01*
X0153132Y0205561D01*
X0153702Y0206303D01*
X0154060Y0207167D01*
X0154182Y0208095D01*
X0154060Y0209022D01*
X0153702Y0209886D01*
X0153132Y0210628D01*
X0152390Y0211198D01*
X0151659Y0211501D01*
X0151759Y0212000D01*
X0154299D01*
X0157178Y0209121D01*
D02*
G37*
G36*
X0175287Y0200992D02*
X0174763Y0200642D01*
X0174413Y0200118D01*
X0174290Y0199500D01*
X0174319Y0199355D01*
X0167862Y0192898D01*
X0167641Y0192567D01*
X0167563Y0192177D01*
Y0188653D01*
X0167000D01*
X0166541Y0188463D01*
X0166040Y0188562D01*
X0165819Y0188653D01*
X0163850D01*
X0163391Y0188463D01*
X0163128D01*
X0162669Y0188653D01*
X0160701D01*
X0160242Y0188463D01*
X0159979Y0188463D01*
X0159520Y0188653D01*
X0159358D01*
Y0190526D01*
X0160438Y0191606D01*
X0160659Y0191937D01*
X0160736Y0192327D01*
Y0198389D01*
X0162404Y0200057D01*
X0162866Y0199866D01*
Y0196646D01*
X0163057Y0196186D01*
X0163516Y0195996D01*
X0167059D01*
X0167518Y0196186D01*
X0167709Y0196646D01*
Y0197713D01*
X0169350D01*
X0169741Y0197790D01*
X0170071Y0198011D01*
X0170407Y0198346D01*
X0170551Y0198318D01*
X0171169Y0198441D01*
X0171693Y0198791D01*
X0172044Y0199315D01*
X0172167Y0199933D01*
X0172044Y0200551D01*
X0171750Y0200990D01*
X0171847Y0201304D01*
X0171972Y0201490D01*
X0175226D01*
X0175287Y0200992D01*
D02*
G37*
G36*
X0259311Y0194224D02*
X0259501Y0193765D01*
X0259961Y0193575D01*
X0260025D01*
X0260306Y0193155D01*
X0262343Y0191118D01*
Y0183752D01*
X0262533Y0183293D01*
X0262992Y0183103D01*
X0266142D01*
X0266601Y0183293D01*
X0266963Y0183240D01*
X0267293Y0183175D01*
X0267785D01*
X0268116Y0183240D01*
X0268157Y0183268D01*
X0268524Y0183386D01*
X0268890Y0183268D01*
X0268932Y0183240D01*
X0269262Y0183175D01*
X0269754D01*
X0270084Y0183240D01*
X0270364Y0183427D01*
X0270551Y0183707D01*
X0270600Y0183953D01*
X0274528D01*
X0274918Y0184030D01*
X0275249Y0184251D01*
X0276850Y0185853D01*
X0277376Y0185819D01*
X0277641Y0185421D01*
X0277618Y0185366D01*
Y0184811D01*
X0277284D01*
X0276893Y0184733D01*
X0276562Y0184512D01*
X0272727Y0180677D01*
X0272383D01*
X0272348Y0180701D01*
X0272018Y0180766D01*
X0270148D01*
X0269817Y0180701D01*
X0269538Y0180514D01*
X0269351Y0180234D01*
X0269285Y0179903D01*
Y0179411D01*
X0269351Y0179081D01*
X0269378Y0179040D01*
X0269496Y0178673D01*
X0269378Y0178307D01*
X0269351Y0178265D01*
X0269285Y0177935D01*
Y0177443D01*
X0269351Y0177113D01*
X0269378Y0177071D01*
X0269496Y0176705D01*
X0269378Y0176338D01*
X0269351Y0176297D01*
X0269285Y0175967D01*
Y0175474D01*
X0269351Y0175144D01*
X0269538Y0174864D01*
X0269817Y0174677D01*
X0270148Y0174612D01*
X0272018D01*
X0272348Y0174677D01*
X0272383Y0174701D01*
X0274331D01*
X0274721Y0174778D01*
X0275052Y0174999D01*
X0276131Y0176079D01*
X0278012D01*
Y0175327D01*
X0278035Y0175272D01*
X0277701Y0174772D01*
X0277008D01*
X0276618Y0174694D01*
X0276287Y0174473D01*
X0271800Y0169986D01*
X0271579Y0169656D01*
X0271502Y0169265D01*
Y0143507D01*
X0266996Y0139000D01*
X0266775Y0138670D01*
X0266697Y0138279D01*
Y0129371D01*
X0266011Y0128685D01*
X0265866Y0128714D01*
X0265248Y0128591D01*
X0264830Y0128312D01*
X0264455Y0128440D01*
X0264331Y0128533D01*
Y0137433D01*
X0264140Y0137892D01*
X0263681Y0138083D01*
X0261909D01*
Y0151549D01*
X0262409Y0151817D01*
X0262689Y0151630D01*
X0263307Y0151507D01*
X0263925Y0151630D01*
X0264449Y0151980D01*
X0264799Y0152504D01*
X0264922Y0153122D01*
X0264799Y0153740D01*
X0264449Y0154264D01*
X0264327Y0154346D01*
Y0162778D01*
X0265186Y0163638D01*
X0266417D01*
X0266808Y0163716D01*
X0267138Y0163936D01*
X0268260Y0165059D01*
X0268481Y0165389D01*
X0268559Y0165779D01*
Y0171074D01*
X0268582Y0171109D01*
X0268648Y0171439D01*
Y0173309D01*
X0268582Y0173639D01*
X0268395Y0173919D01*
X0268116Y0174106D01*
X0267785Y0174172D01*
X0267293D01*
X0266963Y0174106D01*
X0266922Y0174078D01*
X0266742Y0174020D01*
X0266428Y0174376D01*
X0266402Y0174462D01*
X0266516Y0174736D01*
Y0175842D01*
X0266525Y0175849D01*
X0266712Y0176128D01*
X0266778Y0176459D01*
Y0176951D01*
X0266712Y0177281D01*
X0266525Y0177561D01*
X0266246Y0177748D01*
X0265915Y0177813D01*
X0261092D01*
X0260763Y0177748D01*
X0259173D01*
X0258714Y0177558D01*
X0255361Y0174205D01*
X0241457D01*
X0241273Y0174128D01*
X0240773Y0174443D01*
Y0177436D01*
X0241063Y0177630D01*
X0254842D01*
X0255302Y0177820D01*
X0257080Y0179599D01*
X0260763D01*
X0261092Y0179533D01*
X0265915D01*
X0266246Y0179599D01*
X0266525Y0179786D01*
X0266712Y0180066D01*
X0266778Y0180396D01*
Y0180888D01*
X0266712Y0181218D01*
X0266525Y0181498D01*
X0266516Y0181504D01*
Y0181626D01*
X0266325Y0182085D01*
X0265866Y0182275D01*
X0253734D01*
X0251516Y0184493D01*
Y0185248D01*
X0251325Y0185707D01*
X0250866Y0185898D01*
X0241417D01*
X0241273Y0185837D01*
X0240773Y0186172D01*
Y0193523D01*
X0242203Y0194953D01*
X0247165D01*
X0247625Y0195143D01*
X0247713Y0195357D01*
X0250161D01*
X0250250Y0195143D01*
X0250709Y0194953D01*
X0255827D01*
X0256286Y0195143D01*
X0256375Y0195357D01*
X0259311D01*
Y0194224D01*
D02*
G37*
G36*
X0220886Y0194516D02*
X0220847Y0194421D01*
Y0192059D01*
X0221037Y0191600D01*
X0221496Y0191410D01*
X0222248D01*
Y0188988D01*
X0222326Y0188598D01*
X0222547Y0188267D01*
X0222960Y0187854D01*
X0222753Y0187354D01*
X0217613D01*
X0217520Y0187493D01*
X0216996Y0187843D01*
X0216378Y0187966D01*
X0215760Y0187843D01*
X0215236Y0187493D01*
X0214886Y0186969D01*
X0214763Y0186350D01*
X0214886Y0185732D01*
X0215236Y0185208D01*
X0215760Y0184858D01*
X0216378Y0184735D01*
X0216996Y0184858D01*
X0217374Y0185111D01*
X0220614D01*
X0220948Y0184611D01*
X0220886Y0184461D01*
Y0180606D01*
X0220820Y0180541D01*
X0211890D01*
X0211265Y0180417D01*
X0211079Y0180292D01*
X0210760Y0180680D01*
X0212192Y0182112D01*
X0212382Y0182571D01*
Y0186114D01*
X0212192Y0186573D01*
X0211638Y0187127D01*
X0211803Y0187669D01*
X0212245Y0187964D01*
X0212327Y0188087D01*
X0213150D01*
X0213540Y0188164D01*
X0213871Y0188385D01*
X0216705Y0191220D01*
X0216832Y0191410D01*
X0217756D01*
X0218215Y0191600D01*
X0218405Y0192059D01*
Y0194421D01*
X0218366Y0194516D01*
X0218700Y0195016D01*
X0220552D01*
X0220886Y0194516D01*
D02*
G37*
G36*
X0160701Y0180662D02*
X0160702D01*
X0160743Y0180456D01*
X0160964Y0180125D01*
X0163925Y0177165D01*
X0164255Y0176944D01*
X0164646Y0176866D01*
X0170167D01*
X0170629Y0176626D01*
X0170752Y0176008D01*
X0171102Y0175484D01*
X0171626Y0175134D01*
X0172244Y0175011D01*
X0172541Y0174586D01*
Y0152313D01*
X0171641Y0151413D01*
X0171420Y0151082D01*
X0171404Y0151002D01*
X0171220Y0150879D01*
X0170870Y0150355D01*
X0170747Y0149736D01*
X0170870Y0149118D01*
X0171219Y0148595D01*
X0170748Y0148280D01*
X0170397Y0147756D01*
X0170274Y0147138D01*
X0170397Y0146520D01*
X0170598Y0146220D01*
X0170330Y0145720D01*
X0170118D01*
X0169659Y0145530D01*
X0169396Y0145530D01*
X0168937Y0145720D01*
X0166969D01*
X0166509Y0145530D01*
X0166247Y0145530D01*
X0165787Y0145720D01*
X0163819D01*
X0163360Y0145530D01*
X0163170Y0145071D01*
Y0138378D01*
X0163182Y0138348D01*
X0162848Y0137848D01*
X0160459D01*
X0160125Y0138348D01*
X0160138Y0138378D01*
Y0145071D01*
X0159947Y0145530D01*
X0159488Y0145720D01*
X0157520D01*
X0157061Y0145530D01*
X0156798Y0145530D01*
X0156339Y0145720D01*
X0154370D01*
X0153911Y0145530D01*
X0153648Y0145530D01*
X0153189Y0145720D01*
X0151221D01*
X0150761Y0145530D01*
X0150502Y0145530D01*
X0150075Y0145714D01*
Y0146311D01*
X0149997Y0146701D01*
X0149812Y0146978D01*
X0149844Y0147138D01*
X0149721Y0147756D01*
X0149634Y0147886D01*
X0149901Y0148386D01*
X0161490D01*
X0161693Y0148082D01*
X0162216Y0147732D01*
X0162835Y0147609D01*
X0163453Y0147732D01*
X0163977Y0148082D01*
X0164327Y0148606D01*
X0164450Y0149224D01*
X0164327Y0149843D01*
X0163977Y0150367D01*
X0163453Y0150717D01*
X0162835Y0150840D01*
X0162216Y0150717D01*
X0161780Y0150425D01*
X0146402D01*
X0146011Y0150347D01*
X0145681Y0150127D01*
X0144854Y0149300D01*
X0144633Y0148969D01*
X0144555Y0148579D01*
Y0145867D01*
X0144055Y0145606D01*
X0143780Y0145720D01*
X0141811D01*
X0141352Y0145530D01*
X0141050Y0145530D01*
X0140591Y0145720D01*
X0139474D01*
X0139283Y0146182D01*
X0143122Y0150022D01*
X0143344Y0150353D01*
X0143421Y0150743D01*
Y0155736D01*
X0144473Y0156788D01*
X0159134D01*
X0159179Y0156797D01*
X0159646Y0156704D01*
X0160264Y0156827D01*
X0160788Y0157177D01*
X0161138Y0157701D01*
X0161261Y0158319D01*
X0161138Y0158937D01*
X0160788Y0159461D01*
X0160264Y0159811D01*
X0159646Y0159934D01*
X0159028Y0159811D01*
X0158503Y0159461D01*
X0158153Y0158937D01*
X0158131Y0158827D01*
X0152159D01*
X0151968Y0159289D01*
X0152335Y0159656D01*
X0152556Y0159987D01*
X0152634Y0160377D01*
Y0165928D01*
X0153139Y0166433D01*
X0159618D01*
X0159854Y0166276D01*
X0160472Y0166153D01*
X0161016Y0166261D01*
X0161516Y0166048D01*
X0161516Y0166048D01*
Y0159618D01*
X0161516Y0159618D01*
X0161602Y0159189D01*
X0161845Y0158825D01*
X0163026Y0157644D01*
X0163026Y0157644D01*
X0163390Y0157401D01*
X0163819Y0157316D01*
X0163819Y0157316D01*
X0169159D01*
X0169173Y0157295D01*
X0169697Y0156945D01*
X0170315Y0156822D01*
X0170933Y0156945D01*
X0171457Y0157295D01*
X0171807Y0157819D01*
X0171930Y0158437D01*
X0171807Y0159055D01*
X0171457Y0159579D01*
X0170933Y0159929D01*
X0170315Y0160052D01*
X0169697Y0159929D01*
X0169173Y0159579D01*
X0169159Y0159559D01*
X0164284D01*
X0163759Y0160083D01*
Y0174972D01*
X0163759Y0174972D01*
X0163674Y0175402D01*
X0163431Y0175766D01*
X0163431Y0175766D01*
X0160596Y0178600D01*
X0160232Y0178843D01*
X0159803Y0178929D01*
X0159803Y0178929D01*
X0147512D01*
X0147006Y0179435D01*
Y0180697D01*
X0147141Y0180753D01*
X0147517Y0180824D01*
X0147880Y0180750D01*
X0148102Y0180658D01*
X0150071D01*
X0150292Y0180749D01*
X0150793Y0180848D01*
X0151252Y0180658D01*
X0153220D01*
X0153680Y0180848D01*
X0154143Y0180769D01*
X0154402Y0180662D01*
X0156370D01*
X0156829Y0180852D01*
X0157092Y0180852D01*
X0157551Y0180662D01*
X0159520D01*
X0159979Y0180852D01*
X0160242Y0180852D01*
X0160701Y0180662D01*
D02*
G37*
G36*
X0253465Y0181626D02*
X0265866D01*
Y0180248D01*
X0256811D01*
X0254842Y0178279D01*
X0241063D01*
Y0184579D01*
X0250512D01*
X0253465Y0181626D01*
D02*
G37*
G36*
X0230984Y0176783D02*
X0230984Y0173791D01*
X0229961Y0173791D01*
X0229961Y0176941D01*
X0228543Y0178358D01*
X0232559D01*
X0230984Y0176783D01*
D02*
G37*
G36*
X0305630Y0177886D02*
X0306024Y0177492D01*
X0307205Y0176311D01*
X0314291D01*
Y0173555D01*
X0304842D01*
X0302874Y0175524D01*
X0293425D01*
Y0184185D01*
X0291850Y0185760D01*
Y0191272D01*
X0305630D01*
X0305630Y0177886D01*
D02*
G37*
G36*
X0225551Y0176626D02*
X0225039Y0176114D01*
X0225039Y0173319D01*
X0224095Y0174264D01*
X0224095Y0176154D01*
X0223661Y0176587D01*
X0221535D01*
X0221535Y0178595D01*
X0225551D01*
X0225551Y0176626D01*
D02*
G37*
G36*
X0204974Y0174553D02*
X0205433Y0174362D01*
X0208976D01*
X0209286Y0174491D01*
X0209786Y0174250D01*
Y0172231D01*
X0209286Y0171990D01*
X0208976Y0172118D01*
X0205433D01*
X0204974Y0171928D01*
X0204784Y0171468D01*
Y0169106D01*
X0204974Y0168647D01*
X0205433Y0168457D01*
X0206083D01*
Y0167768D01*
X0206083Y0167768D01*
X0206169Y0167339D01*
X0206412Y0166975D01*
X0206791Y0166596D01*
X0206599Y0166134D01*
X0203976D01*
X0203517Y0165944D01*
X0203327Y0165484D01*
Y0165043D01*
X0201175Y0162891D01*
X0200932Y0162528D01*
X0200847Y0162098D01*
X0200847Y0162098D01*
Y0160262D01*
X0200826Y0160248D01*
X0200476Y0159724D01*
X0200458Y0159633D01*
X0200189Y0159602D01*
X0199951Y0159649D01*
X0199790Y0160038D01*
X0199781Y0160042D01*
Y0161557D01*
X0199790Y0161560D01*
X0199980Y0162020D01*
Y0165563D01*
X0199790Y0166022D01*
X0199331Y0166212D01*
X0196968D01*
X0196509Y0166022D01*
X0196319Y0165563D01*
Y0162020D01*
X0196509Y0161560D01*
X0196518Y0161557D01*
Y0160042D01*
X0196509Y0160038D01*
X0196319Y0159579D01*
Y0156035D01*
X0196509Y0155576D01*
X0196968Y0155386D01*
X0198786D01*
X0201046Y0153127D01*
Y0149618D01*
X0201170Y0148994D01*
X0201524Y0148465D01*
X0202053Y0148111D01*
X0202162Y0148089D01*
X0202327Y0147547D01*
X0200821Y0146041D01*
X0200578Y0145677D01*
X0200493Y0145248D01*
X0200493Y0145248D01*
Y0139256D01*
X0200045Y0138808D01*
X0194788D01*
X0194454Y0139308D01*
X0194468Y0139342D01*
Y0151902D01*
Y0153476D01*
X0194278Y0153936D01*
X0193819Y0154126D01*
X0188823D01*
X0186429Y0156520D01*
X0185900Y0156873D01*
X0185276Y0156998D01*
X0184193D01*
Y0162630D01*
X0184002Y0163089D01*
X0183543Y0163279D01*
X0176850D01*
X0176480Y0163126D01*
X0175980Y0163331D01*
Y0166259D01*
X0176480Y0166465D01*
X0176850Y0166311D01*
X0183543D01*
X0184002Y0166501D01*
X0184193Y0166961D01*
Y0168929D01*
X0184002Y0169388D01*
X0184002Y0169651D01*
X0184193Y0170110D01*
Y0171599D01*
X0184693Y0171751D01*
X0184724Y0171704D01*
X0185248Y0171354D01*
X0185866Y0171231D01*
X0186484Y0171354D01*
X0187008Y0171704D01*
X0187090Y0171827D01*
X0188219D01*
X0188662Y0171385D01*
Y0171001D01*
X0186759Y0169099D01*
X0186538Y0168768D01*
X0186461Y0168378D01*
Y0167493D01*
X0186421Y0167295D01*
X0186461Y0167097D01*
Y0160642D01*
X0186538Y0160252D01*
X0186759Y0159921D01*
X0189594Y0157086D01*
X0189925Y0156865D01*
X0190315Y0156788D01*
X0190414D01*
Y0156035D01*
X0190604Y0155576D01*
X0191063Y0155386D01*
X0193425D01*
X0193884Y0155576D01*
X0194075Y0156035D01*
Y0159579D01*
X0193884Y0160038D01*
X0193425Y0160228D01*
X0191063D01*
X0190604Y0160038D01*
X0190495Y0159776D01*
X0189952Y0159612D01*
X0188500Y0161064D01*
Y0167676D01*
X0189000Y0167916D01*
X0189311Y0167788D01*
X0191279D01*
X0191339Y0167812D01*
X0191835Y0167517D01*
Y0166212D01*
X0191063D01*
X0190604Y0166022D01*
X0190414Y0165563D01*
Y0162020D01*
X0190604Y0161560D01*
X0191063Y0161370D01*
X0193425D01*
X0193884Y0161560D01*
X0194075Y0162020D01*
Y0165563D01*
X0193884Y0166022D01*
X0193874Y0166027D01*
Y0167517D01*
X0194370Y0167812D01*
X0194429Y0167788D01*
X0196398D01*
X0196693Y0167910D01*
X0196988Y0167788D01*
X0198957D01*
X0199416Y0167978D01*
X0199606Y0168437D01*
Y0173949D01*
X0199553Y0174077D01*
Y0174770D01*
X0204884D01*
X0204974Y0174553D01*
D02*
G37*
G36*
X0227956Y0184611D02*
X0227894Y0184461D01*
Y0178358D01*
X0227894Y0178358D01*
X0227894Y0178358D01*
Y0177453D01*
X0228084Y0176994D01*
X0228543Y0176803D01*
X0229180D01*
X0229311Y0176672D01*
X0229311Y0173791D01*
X0229331Y0173744D01*
Y0172413D01*
X0229521Y0171954D01*
X0229980Y0171764D01*
X0230965D01*
X0231435Y0171418D01*
Y0168573D01*
X0231419Y0168534D01*
X0231328Y0168496D01*
X0225413D01*
X0225033Y0168338D01*
X0224075D01*
X0223616Y0168148D01*
X0223550Y0168148D01*
X0223091Y0168338D01*
X0222106D01*
X0221647Y0168148D01*
X0221457Y0167689D01*
Y0164933D01*
X0221538Y0164738D01*
X0221229Y0164238D01*
X0220608D01*
X0219886Y0164095D01*
X0219274Y0163686D01*
X0219143Y0163555D01*
X0218681Y0163746D01*
Y0165091D01*
X0218491Y0165550D01*
X0218032Y0165740D01*
X0214488D01*
X0214292Y0165659D01*
X0213049D01*
Y0175302D01*
X0213549Y0175636D01*
X0213583Y0175622D01*
X0218701D01*
X0219160Y0175812D01*
X0219350Y0176272D01*
Y0177278D01*
X0220886D01*
Y0176587D01*
X0221076Y0176127D01*
X0221371Y0176005D01*
X0221547Y0175766D01*
X0221568Y0175437D01*
X0221457Y0175169D01*
Y0172413D01*
X0221647Y0171954D01*
X0222106Y0171764D01*
X0223091D01*
X0223550Y0171954D01*
X0224021Y0171786D01*
X0224075Y0171764D01*
X0225059D01*
X0225518Y0171954D01*
X0225709Y0172413D01*
Y0175169D01*
X0225689Y0175217D01*
X0225689Y0175845D01*
X0226010Y0176167D01*
X0226201Y0176626D01*
Y0177453D01*
Y0184461D01*
X0226138Y0184611D01*
X0226472Y0185111D01*
X0227622D01*
X0227956Y0184611D01*
D02*
G37*
G36*
X0265866Y0174736D02*
X0259961D01*
X0250512Y0165287D01*
X0241063D01*
Y0173161D01*
X0241457Y0173555D01*
X0255630D01*
X0259173Y0177098D01*
X0265866D01*
Y0174736D01*
D02*
G37*
G36*
X0262528Y0173686D02*
X0262549Y0173587D01*
X0262494Y0173309D01*
Y0171439D01*
X0262559Y0171109D01*
X0262719Y0170870D01*
Y0170264D01*
X0262316Y0170097D01*
X0262126Y0169638D01*
Y0168146D01*
X0260386Y0166406D01*
X0260163Y0166361D01*
X0259634Y0166008D01*
X0259280Y0165479D01*
X0259156Y0164854D01*
X0259280Y0164230D01*
X0259318Y0164173D01*
X0259083Y0163732D01*
X0257716D01*
X0257605Y0163686D01*
X0250679D01*
X0250472Y0163771D01*
X0241968D01*
X0241509Y0163581D01*
X0241399Y0163315D01*
X0240926Y0163122D01*
X0240819Y0163122D01*
X0240773Y0163157D01*
Y0164444D01*
X0241063Y0164638D01*
X0250512D01*
X0250971Y0164828D01*
X0251191Y0165048D01*
X0251325Y0165104D01*
X0251381Y0165238D01*
X0260230Y0174087D01*
X0262257D01*
X0262528Y0173686D01*
D02*
G37*
G36*
X0234370Y0170701D02*
X0234370Y0160806D01*
X0234330Y0160602D01*
X0234355Y0160473D01*
X0234146Y0159972D01*
X0230039D01*
Y0165091D01*
X0228071Y0167059D01*
X0225413D01*
Y0167847D01*
X0231457D01*
X0231916Y0168037D01*
X0232106Y0168496D01*
Y0170340D01*
X0232606Y0170701D01*
X0234370Y0170701D01*
D02*
G37*
G36*
X0236142Y0154776D02*
X0232992Y0154815D01*
X0230149Y0157659D01*
X0239089Y0157722D01*
X0236142Y0154776D01*
D02*
G37*
G36*
X0176850Y0153654D02*
X0183543D01*
X0183739Y0153735D01*
X0184600D01*
X0186322Y0152012D01*
X0186317Y0151037D01*
X0184752Y0149472D01*
X0184693Y0149384D01*
X0184193Y0149536D01*
Y0149992D01*
X0184002Y0150451D01*
X0183543Y0150642D01*
X0176850D01*
X0176508Y0150824D01*
X0176453Y0151102D01*
X0176103Y0151627D01*
X0175980Y0151708D01*
Y0153602D01*
X0176480Y0153807D01*
X0176850Y0153654D01*
D02*
G37*
G36*
X0188543Y0153476D02*
X0191417D01*
Y0152413D01*
X0186947Y0147943D01*
X0186990Y0155030D01*
X0188543Y0153476D01*
D02*
G37*
G36*
X0253469Y0158952D02*
X0253516Y0158751D01*
X0253193Y0158268D01*
X0253070Y0157650D01*
X0253189Y0157052D01*
X0252610Y0156937D01*
X0252086Y0156587D01*
X0251736Y0156063D01*
X0251613Y0155445D01*
X0251736Y0154827D01*
X0252086Y0154303D01*
X0252610Y0153953D01*
X0252806Y0153914D01*
X0253547Y0153172D01*
Y0140985D01*
X0252255Y0139693D01*
X0241260D01*
X0240870Y0139615D01*
X0240539Y0139394D01*
X0237252Y0136107D01*
X0236752Y0136314D01*
Y0137250D01*
X0236784Y0137413D01*
Y0154500D01*
X0237643Y0155358D01*
X0245165D01*
X0245701Y0155465D01*
X0250472D01*
X0250932Y0155655D01*
X0251122Y0156114D01*
Y0159251D01*
X0253330D01*
X0253469Y0158952D01*
D02*
G37*
G36*
X0255531Y0139378D02*
Y0135332D01*
X0255031Y0135039D01*
X0254567Y0135131D01*
X0253948Y0135008D01*
X0253425Y0134658D01*
X0253411Y0134637D01*
X0252008D01*
X0252008Y0134637D01*
X0251579Y0134552D01*
X0251215Y0134309D01*
X0251215Y0134309D01*
X0250087Y0133181D01*
X0248071D01*
X0247612Y0132991D01*
X0247421Y0132531D01*
X0246969Y0132472D01*
X0246539Y0132387D01*
X0246176Y0132143D01*
X0245401Y0131369D01*
X0244901Y0131577D01*
Y0137177D01*
X0245245Y0137654D01*
X0252677D01*
X0253067Y0137731D01*
X0253398Y0137952D01*
X0255031Y0139585D01*
X0255531Y0139378D01*
D02*
G37*
G36*
X0231910Y0132174D02*
Y0130091D01*
X0232100Y0129631D01*
X0232559Y0129441D01*
X0241030D01*
X0241220Y0129362D01*
X0244252D01*
X0244289Y0129378D01*
X0244705Y0129100D01*
Y0127485D01*
X0244205Y0127151D01*
X0244094Y0127197D01*
X0240551D01*
X0240092Y0127006D01*
X0239902Y0126547D01*
Y0124185D01*
X0240039Y0123854D01*
X0239810Y0123354D01*
X0238740D01*
X0238350Y0123277D01*
X0238019Y0123056D01*
X0234351Y0119388D01*
X0234227Y0119396D01*
X0233736Y0119773D01*
X0233705Y0119891D01*
X0233727Y0120379D01*
X0236562Y0123214D01*
X0236752Y0123673D01*
Y0126547D01*
X0236562Y0127006D01*
X0236102Y0127197D01*
X0231417D01*
X0231244Y0127125D01*
X0230744Y0127446D01*
Y0131716D01*
X0231410Y0132381D01*
X0231910Y0132174D01*
D02*
G37*
G36*
X0236102Y0123673D02*
X0233150Y0120721D01*
X0231417D01*
Y0126547D01*
X0236102D01*
Y0123673D01*
D02*
G37*
G36*
X0276496Y0113713D02*
X0270591D01*
Y0137732D01*
X0271375Y0138516D01*
X0276496D01*
Y0113713D01*
D02*
G37*
G36*
X0343848Y0177989D02*
X0343657Y0177527D01*
X0334362D01*
X0333086Y0178804D01*
X0332850Y0178962D01*
X0332745Y0179361D01*
X0332739Y0179538D01*
X0334005Y0180803D01*
X0341034D01*
X0343848Y0177989D01*
D02*
G37*
G36*
X0302874Y0168831D02*
X0317835D01*
Y0165681D01*
X0311929Y0159776D01*
X0307598D01*
Y0162925D01*
X0306024Y0164500D01*
X0293425D01*
Y0170799D01*
X0302874D01*
Y0168831D01*
D02*
G37*
G36*
X0338701Y0166862D02*
X0340669D01*
Y0163713D01*
X0333976D01*
Y0142059D01*
X0327284Y0135366D01*
X0315669D01*
Y0124736D01*
X0314291D01*
Y0126705D01*
X0312323Y0128673D01*
Y0141272D01*
X0326102D01*
X0330039Y0145209D01*
Y0161350D01*
X0324921Y0166469D01*
Y0168831D01*
X0325709D01*
X0326496Y0169618D01*
Y0170405D01*
X0335157D01*
X0338701Y0166862D01*
D02*
G37*
G36*
X0287126Y0160957D02*
X0295000D01*
Y0157413D01*
X0287520D01*
Y0155051D01*
X0284764D01*
Y0165287D01*
X0287126D01*
Y0160957D01*
D02*
G37*
D12*
X0115276Y0179815D02*
Y0186043D01*
X0285748Y0183791D02*
X0288701D01*
X0126106Y0177370D02*
X0134913D01*
X0119055Y0179815D02*
X0123661D01*
X0123701Y0179776D02*
X0126106Y0177370D01*
X0110551Y0179815D02*
X0115276D01*
Y0186043D02*
X0116890Y0187657D01*
X0110473Y0183516D02*
Y0192953D01*
X0111083Y0193563D01*
X0122697D01*
Y0184559D02*
Y0193563D01*
Y0184559D02*
X0123701Y0183555D01*
X0126724Y0193563D02*
X0127008Y0193280D01*
Y0193555D01*
X0126535Y0194028D02*
X0127008Y0193555D01*
X0122697Y0193563D02*
X0126724D01*
D13*
X0328130Y0167551D02*
Y0170169D01*
X0325512Y0167551D02*
X0328130D01*
Y0170169D02*
X0328169Y0170209D01*
X0181378Y0145858D02*
X0181516Y0145996D01*
X0282205Y0143831D02*
Y0149146D01*
Y0143831D02*
X0293425Y0132610D01*
X0311929D01*
X0315079Y0129461D01*
Y0127591D02*
Y0129461D01*
X0159791Y0208095D02*
X0160599D01*
X0154764Y0213122D02*
X0159791Y0208095D01*
X0133425Y0199461D02*
X0134016D01*
X0201969Y0159106D02*
Y0162098D01*
X0204173Y0164303D01*
X0192854Y0185504D02*
Y0188909D01*
Y0185504D02*
X0194252Y0184106D01*
X0206535D01*
X0204173Y0164303D02*
X0205748D01*
X0205353Y0158003D02*
X0205748Y0158398D01*
X0205353Y0148987D02*
Y0158003D01*
X0207756Y0154776D02*
Y0155897D01*
X0209134Y0157275D01*
Y0165839D01*
X0134016Y0199461D02*
X0137874Y0203319D01*
X0143863D01*
X0232874Y0186232D02*
X0233976Y0185130D01*
X0145884Y0178970D02*
Y0184513D01*
X0145740Y0184658D02*
X0145884Y0184513D01*
X0162638Y0159618D02*
X0163819Y0158437D01*
X0170315D01*
X0145884Y0178970D02*
X0147047Y0177807D01*
X0159803D01*
X0162638Y0174972D01*
X0216378Y0186350D02*
X0216496Y0186232D01*
X0232874D01*
X0163543Y0131075D02*
Y0134579D01*
X0192362Y0125799D02*
Y0132689D01*
X0192402Y0132728D01*
X0183858Y0135602D02*
X0186732Y0132728D01*
X0192402D01*
X0177205Y0131311D02*
Y0134539D01*
X0179528Y0136862D01*
X0201614Y0138791D02*
Y0145248D01*
X0205353Y0148987D01*
X0179528Y0136862D02*
X0180352Y0137687D01*
X0200510D01*
X0201614Y0138791D01*
X0225669Y0131902D02*
Y0136902D01*
X0217205Y0131902D02*
X0225669D01*
X0217087Y0131783D02*
X0217205Y0131902D01*
X0225669Y0136902D02*
X0228386Y0139618D01*
X0242323Y0125366D02*
X0244921D01*
X0245827Y0126272D01*
Y0130209D01*
X0246969Y0131350D01*
X0249843D01*
X0232441Y0173791D02*
X0232557Y0173676D01*
X0232441Y0166311D02*
X0232557D01*
Y0173676D01*
X0232441Y0173791D02*
Y0174657D01*
X0233976Y0176193D01*
Y0185130D01*
X0197973Y0188909D02*
Y0195898D01*
X0199685Y0197610D01*
X0162638Y0159618D02*
Y0174972D01*
X0207205Y0167768D02*
X0209134Y0165839D01*
X0207205Y0167768D02*
Y0170287D01*
X0189842Y0197610D02*
X0195413Y0192039D01*
Y0188909D02*
Y0192039D01*
X0249843Y0131350D02*
X0252008Y0133516D01*
X0254567D01*
X0148622Y0213122D02*
X0154764D01*
X0143863Y0203319D02*
X0145630Y0205086D01*
Y0210130D01*
X0148622Y0213122D01*
D21*
X0357677Y0196350D02*
D03*
X0345866D02*
D03*
X0351772D02*
D03*
X0279842Y0162531D02*
D03*
X0285748D02*
D03*
X0345590Y0171980D02*
D03*
X0339685D02*
D03*
X0339685Y0165287D02*
D03*
X0345591D02*
D03*
X0285748Y0169224D02*
D03*
X0279842D02*
D03*
X0285748Y0177098D02*
D03*
X0279842D02*
D03*
X0276299Y0149146D02*
D03*
X0282205D02*
D03*
X0192244Y0163791D02*
D03*
X0198150Y0163791D02*
D03*
X0192244Y0157807D02*
D03*
X0198150D02*
D03*
X0285748Y0197177D02*
D03*
X0279842D02*
D03*
X0285748Y0190484D02*
D03*
X0279842D02*
D03*
X0192402Y0132728D02*
D03*
X0198307D02*
D03*
X0192362Y0125799D02*
D03*
X0198268D02*
D03*
D22*
X0345748Y0189067D02*
D03*
Y0183161D02*
D03*
X0205748Y0158398D02*
D03*
Y0164303D02*
D03*
X0177205Y0131311D02*
D03*
Y0125406D02*
D03*
X0331221Y0191075D02*
D03*
Y0196980D02*
D03*
X0324528Y0196980D02*
D03*
Y0191075D02*
D03*
X0317835Y0191075D02*
D03*
Y0196980D02*
D03*
X0311142Y0191075D02*
D03*
Y0196980D02*
D03*
X0337520Y0191075D02*
D03*
Y0196980D02*
D03*
Y0178870D02*
D03*
Y0184776D02*
D03*
X0346575Y0144224D02*
D03*
Y0138319D02*
D03*
X0234331Y0125366D02*
D03*
Y0137177D02*
D03*
Y0131272D02*
D03*
X0217087Y0131783D02*
D03*
Y0125878D02*
D03*
X0242323Y0131272D02*
D03*
Y0125366D02*
D03*
X0249843Y0131350D02*
D03*
Y0125445D02*
D03*
X0225669Y0131902D02*
D03*
Y0125996D02*
D03*
X0153740Y0193516D02*
D03*
Y0199421D02*
D03*
X0207205Y0170287D02*
D03*
Y0176193D02*
D03*
X0146968Y0199421D02*
D03*
Y0193516D02*
D03*
X0140197Y0199421D02*
D03*
Y0193516D02*
D03*
X0133425Y0199461D02*
D03*
Y0193555D02*
D03*
X0169961Y0131272D02*
D03*
Y0125366D02*
D03*
X0146850Y0125287D02*
D03*
Y0131193D02*
D03*
X0216260Y0163909D02*
D03*
Y0158004D02*
D03*
X0230787Y0199146D02*
D03*
Y0193240D02*
D03*
X0223268Y0199146D02*
D03*
Y0193240D02*
D03*
X0208622Y0193201D02*
D03*
Y0199106D02*
D03*
X0215984Y0199146D02*
D03*
Y0193240D02*
D03*
D23*
X0192224Y0146409D02*
D03*
X0198130D02*
D03*
X0192244Y0140917D02*
D03*
X0198150D02*
D03*
X0192244Y0151902D02*
D03*
X0198150D02*
D03*
X0345394Y0157807D02*
D03*
X0339094D02*
D03*
X0279842Y0183791D02*
D03*
X0285748D02*
D03*
X0264350Y0168063D02*
D03*
X0258445D02*
D03*
D24*
X0111083Y0193563D02*
D03*
X0122697D02*
D03*
D25*
X0116890Y0187657D02*
D03*
D26*
X0301299Y0155445D02*
D03*
X0292638Y0151705D02*
D03*
Y0159185D02*
D03*
D27*
X0298150Y0181035D02*
D03*
Y0167650D02*
D03*
X0246142Y0182098D02*
D03*
Y0168713D02*
D03*
D28*
X0303268Y0189500D02*
D03*
Y0196980D02*
D03*
X0294213Y0189500D02*
D03*
Y0196980D02*
D03*
X0253268Y0189894D02*
D03*
Y0197374D02*
D03*
X0244606Y0189894D02*
D03*
Y0197374D02*
D03*
X0325315Y0159185D02*
D03*
Y0151705D02*
D03*
X0216142Y0170563D02*
D03*
Y0178043D02*
D03*
D29*
X0269213Y0196783D02*
D03*
X0261732D02*
D03*
X0266968Y0160524D02*
D03*
X0259488D02*
D03*
X0266968Y0152059D02*
D03*
X0259488D02*
D03*
X0266890Y0143240D02*
D03*
X0259409D02*
D03*
X0223976Y0157689D02*
D03*
X0231457D02*
D03*
D30*
X0328169Y0170209D02*
D03*
Y0172177D02*
D03*
Y0174146D02*
D03*
Y0176114D02*
D03*
Y0178083D02*
D03*
Y0180051D02*
D03*
X0313012D02*
D03*
Y0178083D02*
D03*
Y0176114D02*
D03*
Y0174146D02*
D03*
Y0172177D02*
D03*
Y0170209D02*
D03*
D31*
X0325512Y0182709D02*
D03*
X0323543D02*
D03*
X0321575D02*
D03*
X0319606D02*
D03*
X0317638D02*
D03*
X0315669D02*
D03*
Y0167551D02*
D03*
X0317638D02*
D03*
X0319606D02*
D03*
X0321575D02*
D03*
X0323543D02*
D03*
X0325512D02*
D03*
D32*
X0320591Y0175130D02*
D03*
D33*
X0317441Y0151705D02*
D03*
Y0157610D02*
D03*
X0309173Y0155248D02*
D03*
Y0161153D02*
D03*
X0138858Y0125091D02*
D03*
Y0130996D02*
D03*
X0156083Y0131134D02*
D03*
Y0125228D02*
D03*
X0163031Y0131075D02*
D03*
Y0125169D02*
D03*
D34*
X0326693Y0138516D02*
D03*
X0340472D02*
D03*
D35*
X0303169Y0138516D02*
D03*
X0319902D02*
D03*
D36*
X0292638Y0126606D02*
D03*
Y0143339D02*
D03*
D37*
X0276299Y0155839D02*
D03*
X0286142D02*
D03*
D38*
X0271083Y0175721D02*
D03*
Y0177689D02*
D03*
Y0179657D02*
D03*
Y0181626D02*
D03*
D39*
X0269508Y0184972D02*
D03*
X0267539D02*
D03*
X0265571D02*
D03*
X0263602D02*
D03*
Y0172374D02*
D03*
X0265571D02*
D03*
X0267539D02*
D03*
X0269508D02*
D03*
D40*
X0263504Y0180642D02*
D03*
Y0176705D02*
D03*
D41*
X0264193Y0178673D02*
D03*
D42*
X0264587Y0173063D02*
D03*
Y0184283D02*
D03*
D43*
X0197973Y0188909D02*
D03*
X0195413D02*
D03*
X0192854D02*
D03*
X0190295D02*
D03*
X0197973Y0171193D02*
D03*
X0195413D02*
D03*
X0192854D02*
D03*
X0190295D02*
D03*
D44*
X0198189Y0197177D02*
D03*
X0188347D02*
D03*
D45*
X0317539Y0125327D02*
D03*
X0320098D02*
D03*
X0325217D02*
D03*
X0322657D02*
D03*
X0314980D02*
D03*
D46*
X0332697Y0124441D02*
D03*
X0307500D02*
D03*
D47*
X0227520Y0170051D02*
D03*
D48*
X0222598Y0166311D02*
D03*
X0224567D02*
D03*
X0226535Y0166311D02*
D03*
X0228504D02*
D03*
X0230472D02*
D03*
X0232441D02*
D03*
X0222598Y0173791D02*
D03*
X0224567Y0173791D02*
D03*
X0226535Y0173791D02*
D03*
X0228504D02*
D03*
X0230472Y0173791D02*
D03*
X0232441D02*
D03*
D49*
X0230551Y0180957D02*
D03*
X0223543D02*
D03*
D50*
X0246220Y0159618D02*
D03*
Y0143870D02*
D03*
D51*
X0276378Y0130642D02*
D03*
X0260630D02*
D03*
D52*
X0165287Y0192315D02*
D03*
X0181429D02*
D03*
Y0198614D02*
D03*
X0165287D02*
D03*
D53*
X0115276Y0179815D02*
D03*
X0119055D02*
D03*
D54*
X0123701Y0179776D02*
D03*
Y0183555D02*
D03*
X0110473Y0179736D02*
D03*
Y0183516D02*
D03*
D55*
X0166803Y0153358D02*
D03*
D56*
X0156961Y0153358D02*
D03*
X0147118Y0153358D02*
D03*
X0166803Y0163201D02*
D03*
X0156961D02*
D03*
X0147118D02*
D03*
X0166902Y0173043D02*
D03*
X0156961D02*
D03*
X0147118D02*
D03*
X0167126Y0116469D02*
D03*
X0285157Y0116862D02*
D03*
X0273346D02*
D03*
X0251693D02*
D03*
X0140598Y0208095D02*
D03*
D102*
X0324134Y0114106D02*
D03*
X0316063D02*
D03*
D103*
X0180197Y0145858D02*
D03*
Y0149008D02*
D03*
Y0152197D02*
D03*
Y0155347D02*
D03*
Y0158496D02*
D03*
Y0161646D02*
D03*
Y0164756D02*
D03*
Y0167945D02*
D03*
Y0171095D02*
D03*
Y0174205D02*
D03*
Y0177394D02*
D03*
Y0180504D02*
D03*
X0133732Y0180524D02*
D03*
Y0177370D02*
D03*
X0133732Y0174213D02*
D03*
X0133732Y0171075D02*
D03*
X0133732Y0167925D02*
D03*
X0133732Y0164776D02*
D03*
X0133740Y0161646D02*
D03*
Y0158457D02*
D03*
Y0155307D02*
D03*
Y0152197D02*
D03*
Y0149008D02*
D03*
Y0145858D02*
D03*
D104*
X0174291Y0184658D02*
D03*
X0171134D02*
D03*
X0167984D02*
D03*
X0164835Y0184658D02*
D03*
X0161685Y0184658D02*
D03*
X0158535Y0184658D02*
D03*
X0155386D02*
D03*
X0152236Y0184653D02*
D03*
X0149087Y0184653D02*
D03*
X0145937Y0184658D02*
D03*
X0142760D02*
D03*
X0139449Y0184658D02*
D03*
X0139606Y0141724D02*
D03*
X0142795D02*
D03*
X0145905D02*
D03*
X0149055D02*
D03*
X0152205D02*
D03*
X0155354D02*
D03*
X0158504D02*
D03*
X0161653D02*
D03*
X0164803D02*
D03*
X0167953D02*
D03*
X0171102D02*
D03*
X0174291D02*
D03*
D105*
X0267539Y0165779D02*
Y0172374D01*
X0266417Y0164657D02*
X0267539Y0165779D01*
X0264764Y0164657D02*
X0266417D01*
X0263307Y0163201D02*
X0264764Y0164657D01*
X0349055Y0178161D02*
X0351124Y0176092D01*
X0345118Y0178161D02*
X0349055D01*
X0341457Y0181823D02*
X0345118Y0178161D01*
X0283173Y0181802D02*
Y0185780D01*
Y0181802D02*
X0283189Y0181787D01*
X0283173Y0185780D02*
X0283759Y0186366D01*
X0360748Y0150839D02*
Y0176587D01*
X0358661Y0178673D02*
X0360748Y0176587D01*
X0351124Y0168966D02*
X0352480Y0167610D01*
X0351124Y0168966D02*
Y0176092D01*
X0319606Y0186153D02*
X0324528Y0191075D01*
X0333583Y0181823D02*
X0341457D01*
X0331811Y0180051D02*
X0333583Y0181823D01*
X0333940Y0176508D02*
X0348214D01*
X0318228Y0197374D02*
Y0200327D01*
X0325039Y0197492D02*
Y0200406D01*
X0324528Y0196980D02*
X0325039Y0197492D01*
X0317835Y0196980D02*
X0318228Y0197374D01*
X0174409Y0116744D02*
X0174429Y0116764D01*
Y0118575D01*
X0181378Y0143949D02*
Y0145858D01*
X0179154Y0141724D02*
X0181378Y0143949D01*
X0134921Y0149008D02*
X0137697D01*
X0142271Y0158037D02*
X0143481Y0159248D01*
X0140709Y0160287D02*
X0141339D01*
X0171732Y0121272D02*
X0174429Y0118575D01*
X0161417Y0121272D02*
X0171732D01*
X0317638Y0191075D02*
X0320590Y0194028D01*
X0317638Y0182709D02*
Y0191075D01*
X0314685Y0194028D02*
X0317638Y0191075D01*
X0312323Y0194028D02*
X0314685D01*
X0274528Y0184972D02*
X0276496Y0186941D01*
X0280666D01*
X0317441Y0160268D02*
X0321575Y0164402D01*
X0284924Y0180642D02*
X0289882D01*
X0283567Y0179284D02*
X0284924Y0180642D01*
X0289882D02*
X0291148Y0181907D01*
X0282167Y0180764D02*
X0283189Y0181787D01*
X0291148Y0181907D02*
Y0184527D01*
X0290472Y0185202D02*
Y0199539D01*
Y0185202D02*
X0291148Y0184527D01*
X0290472Y0199539D02*
X0292441Y0201508D01*
X0286929D02*
X0289072Y0199365D01*
Y0187116D02*
Y0199365D01*
X0288323Y0186366D02*
X0289072Y0187116D01*
X0283759Y0186366D02*
X0288323D01*
X0348214Y0176508D02*
X0349724Y0174997D01*
X0341479Y0175108D02*
X0342638Y0173949D01*
X0333360Y0175108D02*
X0341479D01*
X0332354Y0176114D02*
X0333360Y0175108D01*
X0328169Y0176114D02*
X0332354D01*
X0332365Y0178083D02*
X0333940Y0176508D01*
X0321575Y0164402D02*
Y0167551D01*
X0317441Y0157610D02*
Y0160268D01*
X0319606Y0182709D02*
Y0186153D01*
X0332008Y0186547D02*
X0333780Y0184776D01*
X0337520D01*
X0319606Y0165496D02*
Y0167551D01*
X0313110Y0159000D02*
X0319606Y0165496D01*
X0313110Y0157020D02*
Y0159000D01*
X0311339Y0155248D02*
X0313110Y0157020D01*
X0309173Y0155248D02*
X0311339D01*
X0323543Y0164303D02*
Y0167551D01*
Y0164303D02*
X0325315Y0162531D01*
Y0159185D02*
Y0162531D01*
X0324528Y0196980D02*
X0331221D01*
X0324528Y0196980D02*
X0324528Y0196980D01*
X0334567Y0194028D02*
X0337520Y0196980D01*
X0311142Y0195209D02*
Y0196980D01*
Y0195209D02*
X0312323Y0194028D01*
X0328169Y0172177D02*
X0339488D01*
X0339685Y0171980D01*
X0345591Y0158004D02*
Y0165287D01*
X0345394Y0157807D02*
X0345591Y0158004D01*
X0323543Y0182709D02*
Y0184776D01*
X0325315Y0186547D01*
X0332008D01*
X0271083Y0179657D02*
X0273150D01*
X0277284Y0183791D01*
X0279842D01*
X0275709Y0177098D02*
X0279842D01*
X0274331Y0175721D02*
X0275709Y0177098D01*
X0271083Y0175721D02*
X0274331D01*
X0269508Y0184972D02*
X0274528D01*
X0320590Y0194028D02*
X0334567D01*
X0279842Y0196390D02*
X0285748Y0190484D01*
X0279842Y0196390D02*
Y0197177D01*
X0328169Y0180051D02*
X0331811D01*
X0328169Y0178083D02*
X0332365D01*
X0339094Y0157807D02*
X0342638Y0161350D01*
Y0173949D01*
X0280666Y0186941D02*
X0284209Y0190484D01*
X0285748D01*
X0159409Y0123280D02*
X0161417Y0121272D01*
X0159409Y0123280D02*
Y0132531D01*
X0147126Y0116469D02*
Y0125091D01*
X0133651Y0133982D02*
X0141856D01*
X0143425Y0132413D01*
X0170276Y0131429D02*
Y0133634D01*
X0134882Y0136232D02*
Y0137847D01*
X0138760Y0141724D01*
X0134823Y0155209D02*
X0134921Y0155307D01*
X0135820Y0185248D02*
X0138937D01*
X0134678Y0184106D02*
X0135820Y0185248D01*
X0134646Y0187216D02*
X0136850Y0189421D01*
X0180598Y0217382D02*
Y0218094D01*
X0170598D02*
X0176138Y0223634D01*
X0183898D01*
X0185984Y0221547D01*
Y0206744D02*
Y0221547D01*
X0134921Y0145858D02*
Y0146071D01*
X0131535Y0189776D02*
X0134843Y0193083D01*
X0129882Y0186508D02*
Y0188247D01*
X0129285Y0188844D02*
X0129882Y0188247D01*
X0159134Y0157807D02*
X0159646Y0158319D01*
X0134606Y0187216D02*
X0134646D01*
X0134646Y0184106D02*
X0134678D01*
X0129882Y0186508D02*
X0130157D01*
X0141654Y0193516D02*
X0142559D01*
X0144050Y0157807D02*
X0159134D01*
X0129285Y0188844D02*
Y0194376D01*
X0131417Y0196508D01*
X0155925D01*
X0175512Y0212295D02*
X0180598Y0217382D01*
X0162654Y0149406D02*
X0162835Y0149224D01*
X0142266Y0158037D02*
X0142271D01*
X0145575Y0148579D02*
X0146402Y0149406D01*
X0162654D01*
X0156772Y0136114D02*
X0156772Y0136114D01*
X0156732Y0135721D02*
Y0136075D01*
X0156772Y0136114D01*
X0158232Y0133709D02*
X0159409Y0132531D01*
X0273921Y0168685D02*
X0277588Y0172352D01*
X0272521Y0169265D02*
X0277008Y0173752D01*
X0280863D01*
X0282167Y0175056D01*
Y0180764D01*
X0277588Y0172352D02*
X0281443D01*
X0283567Y0174476D01*
Y0179284D01*
X0175512Y0206075D02*
Y0212295D01*
X0263307Y0153122D02*
Y0163201D01*
X0185315Y0123240D02*
X0191693Y0116862D01*
X0185315Y0123240D02*
Y0126193D01*
X0185197Y0126311D02*
X0185315Y0126193D01*
X0181693Y0116862D02*
Y0126232D01*
X0181850Y0126390D01*
X0140197Y0200248D02*
X0141768Y0201819D01*
X0140197Y0199421D02*
Y0200248D01*
X0141768Y0201819D02*
X0144484D01*
X0150599Y0207933D01*
Y0208095D01*
X0165484Y0198732D02*
X0169350D01*
X0170551Y0199933D01*
X0349724Y0167059D02*
Y0174997D01*
Y0167059D02*
X0353425Y0163358D01*
X0355906D01*
X0356417Y0162847D01*
Y0161508D02*
Y0162847D01*
X0357205Y0178673D02*
X0358661D01*
X0208622Y0193201D02*
X0211457Y0196035D01*
X0233268Y0116862D02*
X0238740Y0122335D01*
X0231693Y0116862D02*
X0233268D01*
X0223268Y0193240D02*
Y0193319D01*
X0212953Y0127768D02*
X0214843Y0125878D01*
X0217087D01*
X0221693Y0116862D02*
X0222402D01*
X0142559Y0193516D02*
X0143898Y0192177D01*
Y0189894D02*
Y0192177D01*
X0155189Y0189965D02*
X0158189Y0192965D01*
X0158339Y0190949D02*
X0159716Y0192327D01*
X0173346Y0203909D02*
X0175512Y0206075D01*
X0181750Y0202509D02*
X0185984Y0206744D01*
X0155925Y0196508D02*
X0156789Y0197372D01*
Y0201132D01*
X0157913Y0202256D01*
X0134587Y0155445D02*
X0134823Y0155209D01*
X0134153Y0155012D02*
X0134587Y0155445D01*
X0138445Y0152197D02*
X0139370Y0153122D01*
Y0158949D01*
X0140709Y0160287D01*
X0137697Y0149008D02*
X0140866Y0152177D01*
Y0156637D01*
X0142266Y0158037D01*
X0134921Y0146071D02*
X0137729D01*
X0142402Y0150743D01*
Y0156158D02*
X0144050Y0157807D01*
X0142402Y0150743D02*
Y0156158D01*
X0127953Y0155012D02*
X0134153D01*
X0136850Y0189421D02*
X0141299D01*
X0142563Y0188157D01*
Y0184658D02*
Y0188157D01*
X0151772Y0184921D02*
Y0190051D01*
Y0184921D02*
X0152039Y0184653D01*
X0155189Y0184658D02*
Y0189965D01*
X0158339Y0184658D02*
Y0190949D01*
X0152717Y0167453D02*
X0160197D01*
X0130138Y0152197D02*
X0138445D01*
X0151614Y0166350D02*
X0152717Y0167453D01*
X0143481Y0159248D02*
X0150485D01*
X0151614Y0160377D01*
Y0166350D01*
X0160197Y0167453D02*
Y0167492D01*
X0138760Y0141724D02*
X0139606D01*
X0143091Y0136016D02*
X0145398Y0133709D01*
X0158232D01*
X0143091Y0136016D02*
Y0141429D01*
X0142795Y0141724D02*
X0143091Y0141429D01*
X0145575Y0142055D02*
Y0148579D01*
Y0142055D02*
X0145905Y0141724D01*
X0149055D02*
Y0146311D01*
X0148228Y0147138D02*
X0149055Y0146311D01*
X0152165Y0136941D02*
X0153032Y0136075D01*
X0152165Y0136941D02*
Y0141685D01*
X0152205Y0141724D01*
X0155157Y0137295D02*
X0156732Y0135721D01*
X0155157Y0137295D02*
Y0141528D01*
X0155354Y0141724D01*
X0158504Y0137453D02*
X0159128Y0136829D01*
X0158504Y0137453D02*
Y0141724D01*
X0174291D02*
X0179154D01*
X0176290Y0149008D02*
X0181378D01*
X0174420Y0147138D02*
X0176290Y0149008D01*
X0171890Y0147138D02*
X0174420D01*
X0143425Y0125091D02*
Y0132413D01*
X0190315Y0157807D02*
X0192244D01*
X0187480Y0160642D02*
X0190315Y0157807D01*
X0187480Y0168378D02*
X0190295Y0171193D01*
X0192244Y0163791D02*
X0192854Y0164402D01*
Y0171193D01*
X0208622Y0199106D02*
X0209567D01*
X0218228Y0224303D02*
X0246654D01*
X0250599Y0220358D01*
Y0218094D02*
Y0220358D01*
X0215984Y0199146D02*
Y0201153D01*
X0218583Y0203752D01*
X0223425D01*
X0227768Y0208095D01*
X0230598D01*
X0205197Y0193201D02*
X0208622D01*
X0203346Y0191350D02*
X0205197Y0193201D01*
X0215984Y0191941D02*
Y0193240D01*
X0213150Y0189106D02*
X0215984Y0191941D01*
X0211102Y0189106D02*
X0213150D01*
X0174960Y0150484D02*
Y0178245D01*
X0164835Y0180413D02*
Y0184658D01*
X0161685Y0180847D02*
Y0184658D01*
Y0180847D02*
X0164646Y0177886D01*
X0170984D01*
X0172244Y0176626D01*
X0164835Y0180413D02*
X0165962Y0179286D01*
X0173920D01*
X0174960Y0178245D01*
X0192854Y0171193D02*
Y0174461D01*
X0190571Y0176744D02*
X0192854Y0174461D01*
X0188937Y0176744D02*
X0190571D01*
X0211457Y0196035D02*
X0232756D01*
X0234134Y0194658D01*
Y0189382D02*
Y0194658D01*
X0233268Y0188516D02*
X0234134Y0189382D01*
X0223268Y0188988D02*
Y0193240D01*
Y0188988D02*
X0224134Y0188122D01*
X0230787Y0191941D02*
Y0193240D01*
X0224134Y0188122D02*
X0229528D01*
X0229150Y0190303D02*
X0230787Y0191941D01*
X0226102Y0190169D02*
X0226236Y0190303D01*
X0229150D01*
X0229528Y0188122D02*
X0229724Y0188319D01*
X0171134Y0184658D02*
Y0190453D01*
X0172228Y0191547D01*
X0175079D01*
X0158189Y0192965D02*
Y0199264D01*
X0162835Y0203909D01*
X0173346D01*
X0159716Y0192327D02*
Y0198811D01*
X0163415Y0202509D01*
X0181750D01*
X0167984Y0184658D02*
X0168583Y0185256D01*
Y0192177D01*
X0175906Y0199500D01*
X0167081Y0136829D02*
X0170276Y0133634D01*
X0159128Y0136829D02*
X0167081D01*
X0198307Y0132728D02*
X0203661D01*
X0212953Y0127768D02*
Y0134421D01*
X0221496Y0138279D02*
Y0148280D01*
X0212953Y0134421D02*
X0214488Y0135957D01*
X0219173D01*
X0221496Y0138279D01*
Y0148280D02*
X0225669Y0152453D01*
X0231693Y0134106D02*
X0236693D01*
X0222402Y0116862D02*
X0229724Y0124185D01*
Y0132138D01*
X0231693Y0134106D01*
X0238740Y0122335D02*
X0253858D01*
X0204528Y0130760D02*
Y0131862D01*
X0203661Y0132728D02*
X0204528Y0131862D01*
X0187441Y0167295D02*
X0187480Y0167335D01*
Y0160642D02*
Y0167335D01*
Y0168378D01*
X0160197Y0167492D02*
X0160472Y0167768D01*
X0246626Y0208095D02*
X0250599D01*
X0241653Y0203122D02*
X0246626Y0208095D01*
X0223268Y0199146D02*
X0227754Y0203632D01*
X0230787Y0199146D02*
X0231761D01*
X0235737Y0203122D01*
X0241653D01*
X0227754Y0203632D02*
X0234267D01*
X0238730Y0208095D01*
X0240599D01*
X0264724Y0190484D02*
X0279842D01*
X0301299Y0151134D02*
Y0155445D01*
Y0151134D02*
X0307067Y0145366D01*
X0185866Y0172846D02*
X0188642D01*
X0190295Y0171193D01*
X0235669Y0160878D02*
Y0200248D01*
Y0160878D02*
X0235945Y0160602D01*
X0254685Y0157374D02*
Y0157650D01*
X0254567Y0140563D02*
Y0153594D01*
X0253228Y0154933D02*
X0254567Y0153594D01*
X0253228Y0154933D02*
Y0155445D01*
X0307067Y0145366D02*
X0322559D01*
X0340669Y0143634D02*
X0346181Y0149146D01*
X0359055D01*
X0360748Y0150839D01*
X0341850Y0149343D02*
X0343307Y0150799D01*
X0355709D01*
X0356417Y0151508D01*
X0341850Y0152908D02*
X0342502Y0152256D01*
X0347165D01*
X0356417Y0161508D01*
X0252677Y0138673D02*
X0254567Y0140563D01*
X0236693Y0134106D02*
X0241260Y0138673D01*
X0252677D01*
X0256551Y0125027D02*
Y0155508D01*
X0253858Y0122335D02*
X0256551Y0125027D01*
X0254685Y0157374D02*
X0256551Y0155508D01*
X0128465Y0139169D02*
X0133651Y0133982D01*
X0128465Y0139169D02*
Y0150524D01*
X0130138Y0152197D01*
X0209567Y0199106D02*
X0215709Y0205248D01*
Y0221783D01*
X0218228Y0224303D01*
X0173561Y0151891D02*
Y0175310D01*
X0172244Y0176626D02*
X0173561Y0175310D01*
X0172362Y0149736D02*
Y0150692D01*
X0173561Y0151891D01*
X0275551Y0149894D02*
X0276299Y0149146D01*
X0275551Y0149894D02*
Y0168122D01*
X0277441Y0170012D01*
X0279055D01*
X0279842Y0169224D01*
X0267441Y0124146D02*
X0269173Y0125878D01*
X0265866Y0127098D02*
X0267717Y0128949D01*
Y0138279D01*
X0272521Y0143084D01*
Y0169265D01*
X0269173Y0125878D02*
Y0137756D01*
X0273921Y0142504D01*
Y0168685D01*
D106*
X0232513Y0157499D02*
X0234567Y0155445D01*
X0301791Y0137138D02*
X0303169Y0138516D01*
X0294449Y0137138D02*
X0301791D01*
X0292638Y0138949D02*
X0294449Y0137138D01*
X0292638Y0138949D02*
Y0143339D01*
X0345748Y0189067D02*
X0353307D01*
X0340472Y0138516D02*
X0346378D01*
X0319902D02*
X0326693D01*
X0319902Y0138516D02*
X0319902Y0138516D01*
X0292638Y0122768D02*
Y0126606D01*
Y0122768D02*
X0295158Y0120248D01*
Y0116862D02*
Y0120248D01*
X0246220Y0158555D02*
Y0159618D01*
X0248071Y0161469D02*
X0254331D01*
X0258543D01*
X0246220Y0159618D02*
X0248071Y0161469D01*
X0258543D02*
X0259488Y0160524D01*
X0245354Y0157689D02*
X0246220Y0158555D01*
X0234567Y0137413D02*
Y0155445D01*
D107*
X0220608Y0162352D02*
X0225295D01*
X0216260Y0158004D02*
X0220608Y0162352D01*
D108*
X0211417Y0176350D02*
Y0178437D01*
X0211535Y0178555D01*
X0211772Y0178791D02*
X0211890Y0178909D01*
X0221496D02*
X0223543Y0180957D01*
X0261142Y0164854D02*
X0264350Y0168063D01*
X0260787Y0164854D02*
X0261142D01*
X0360866Y0183988D02*
Y0193161D01*
X0357677Y0196350D02*
X0360866Y0193161D01*
X0345748Y0189067D02*
X0345866Y0189185D01*
Y0196350D01*
X0350394Y0183161D02*
X0350394Y0183161D01*
X0345748Y0183161D02*
X0350394D01*
X0146811Y0131311D02*
X0146988Y0131134D01*
X0155512Y0130563D02*
X0156083Y0131134D01*
X0154842Y0131232D02*
X0155512Y0130563D01*
X0151614Y0131232D02*
X0154842D01*
X0151516Y0131134D02*
X0151614Y0131232D01*
X0146988Y0131134D02*
X0151516D01*
X0148189Y0193516D02*
X0153740D01*
X0351772Y0192571D02*
Y0196350D01*
X0289724Y0177098D02*
X0290787Y0178161D01*
X0285748Y0177098D02*
X0289724D01*
X0264350Y0168063D02*
Y0172301D01*
X0192126Y0141154D02*
X0192244Y0141035D01*
Y0140917D02*
Y0141035D01*
X0198150Y0158330D02*
Y0163791D01*
Y0158330D02*
X0202677Y0153802D01*
Y0149618D02*
Y0153802D01*
X0146968Y0191350D02*
Y0193516D01*
X0138858Y0125169D02*
X0143425D01*
Y0125091D02*
X0147126D01*
X0146968Y0191350D02*
X0149087Y0189232D01*
Y0184653D02*
Y0189232D01*
X0211417Y0152216D02*
X0218661Y0144973D01*
Y0139461D02*
Y0144973D01*
X0181378Y0155366D02*
X0185276D01*
X0211417Y0164028D02*
Y0176350D01*
X0205748D02*
X0211417D01*
X0185276Y0155366D02*
X0188386Y0152256D01*
X0191890D01*
X0192244Y0151902D01*
X0185906Y0148319D02*
X0188386Y0150799D01*
Y0152256D01*
X0198268Y0125799D02*
X0204961D01*
X0205118Y0125957D01*
X0211417Y0164028D02*
X0216142D01*
X0216260Y0163909D01*
X0211417Y0152216D02*
Y0164028D01*
X0211535Y0178555D02*
X0211772Y0178791D01*
X0211890Y0178909D02*
X0221496D01*
D109*
X0261142Y0197374D02*
X0261732Y0196783D01*
X0253268Y0197374D02*
X0261142D01*
X0244606D02*
X0253268D01*
X0238756Y0194358D02*
X0241772Y0197374D01*
X0244606D01*
X0238756Y0161980D02*
Y0194358D01*
X0261732Y0194581D02*
Y0196783D01*
X0244606Y0197374D02*
X0245668Y0198435D01*
X0245512Y0198591D02*
X0245668Y0198435D01*
X0245512Y0198591D02*
Y0201587D01*
X0201693Y0116862D02*
X0208780Y0123949D01*
Y0134106D01*
X0264724Y0190484D02*
Y0191588D01*
X0261732Y0194581D02*
X0264724Y0191588D01*
X0229803Y0143634D02*
Y0152689D01*
X0238907Y0161735D02*
X0239340Y0161302D01*
X0238907Y0161735D02*
Y0161829D01*
X0238756Y0161980D02*
X0238907Y0161829D01*
D110*
X0153740Y0199421D02*
Y0202768D01*
D111*
X0251811Y0125445D02*
X0253780Y0127413D01*
X0249843Y0125445D02*
X0251811D01*
D112*
X0197973Y0171193D02*
Y0175465D01*
X0198858Y0176350D01*
X0205748D01*
D113*
X0225630Y0165405D02*
X0226535Y0166311D01*
X0225295Y0162352D02*
X0225630Y0162687D01*
D114*
Y0165405D01*
X0232513Y0157499D02*
X0245165D01*
X0245354Y0157689D01*
D115*
X0180197Y0158083D02*
D03*
D116*
X0310965Y0179008D02*
D03*
D117*
X0238287Y0131272D02*
D03*
D118*
X0242736Y0133595D02*
D03*
D119*
X0259469Y0141134D02*
D03*
D120*
X0192244Y0145622D02*
D03*
D121*
X0228524Y0166311D02*
D03*
D122*
X0231417Y0162236D02*
D03*
D123*
X0264567Y0187739D02*
D03*
D124*
X0157126Y0116469D02*
D03*
X0147126D02*
D03*
X0355906Y0163358D02*
D03*
Y0153358D02*
D03*
Y0143358D02*
D03*
X0295158Y0116862D02*
D03*
X0263347D02*
D03*
X0181693D02*
D03*
X0191693D02*
D03*
X0201693D02*
D03*
X0211693D02*
D03*
X0221693D02*
D03*
X0231693D02*
D03*
X0241693D02*
D03*
X0140598Y0218094D02*
D03*
X0150599Y0208095D02*
D03*
Y0218094D02*
D03*
X0160599Y0208095D02*
D03*
Y0218094D02*
D03*
X0170598Y0208095D02*
D03*
Y0218094D02*
D03*
X0180598Y0208095D02*
D03*
Y0218094D02*
D03*
X0190598Y0208095D02*
D03*
Y0218094D02*
D03*
X0200599Y0208095D02*
D03*
Y0218094D02*
D03*
X0210598Y0208095D02*
D03*
Y0218094D02*
D03*
X0220599Y0208095D02*
D03*
Y0218094D02*
D03*
X0230598Y0208095D02*
D03*
Y0218094D02*
D03*
X0240599Y0208095D02*
D03*
Y0218094D02*
D03*
X0250599Y0208095D02*
D03*
Y0218094D02*
D03*
X0260598Y0208095D02*
D03*
Y0218094D02*
D03*
X0270599Y0208095D02*
D03*
Y0218094D02*
D03*
X0280598Y0208095D02*
D03*
Y0218094D02*
D03*
X0290599Y0208095D02*
D03*
Y0218094D02*
D03*
X0300599Y0208095D02*
D03*
Y0218094D02*
D03*
X0310598Y0208095D02*
D03*
Y0218094D02*
D03*
X0320599Y0208095D02*
D03*
Y0218094D02*
D03*
X0330598Y0208095D02*
D03*
Y0218094D02*
D03*
D125*
X0208189Y0141823D02*
D03*
Y0184343D02*
D03*
D126*
X0355906Y0173358D02*
D03*
D127*
X0331417Y0114896D02*
D03*
X0308780D02*
D03*
D128*
X0121378Y0122374D02*
D03*
Y0212925D02*
D03*
X0349724D02*
D03*
Y0122374D02*
D03*
D129*
X0260787Y0164854D02*
D03*
X0352441Y0167571D02*
D03*
X0265866Y0127098D02*
D03*
X0267441Y0124146D02*
D03*
X0360866Y0183988D02*
D03*
X0308228Y0179185D02*
D03*
X0350394Y0183161D02*
D03*
X0340472Y0179067D02*
D03*
X0318228Y0200327D02*
D03*
X0353307Y0189067D02*
D03*
X0325039Y0200406D02*
D03*
X0174409Y0116744D02*
D03*
X0115236Y0183870D02*
D03*
X0141339Y0160287D02*
D03*
X0153032Y0136075D02*
D03*
X0305630Y0216429D02*
D03*
X0305591Y0220366D02*
D03*
X0295878Y0193425D02*
D03*
X0292878D02*
D03*
X0324134Y0178673D02*
D03*
Y0175130D02*
D03*
X0320591D02*
D03*
Y0171587D02*
D03*
X0324134D02*
D03*
X0317047Y0175130D02*
D03*
Y0171587D02*
D03*
Y0178673D02*
D03*
X0320591D02*
D03*
X0265276Y0206626D02*
D03*
Y0210169D02*
D03*
X0275709Y0205642D02*
D03*
Y0216469D02*
D03*
Y0219618D02*
D03*
X0288701Y0183791D02*
D03*
X0295591Y0201508D02*
D03*
X0292441D02*
D03*
X0347362Y0169028D02*
D03*
X0298346Y0201508D02*
D03*
X0283189Y0197374D02*
D03*
X0341850Y0152886D02*
D03*
Y0149343D02*
D03*
X0340669Y0143634D02*
D03*
X0319803Y0162433D02*
D03*
X0286929Y0201508D02*
D03*
X0151614Y0131232D02*
D03*
X0162835Y0149224D02*
D03*
X0134882Y0136232D02*
D03*
X0131535Y0189776D02*
D03*
X0159646Y0158319D02*
D03*
X0134606Y0187216D02*
D03*
X0134646Y0184106D02*
D03*
X0130157Y0186508D02*
D03*
X0148228Y0147138D02*
D03*
X0127126Y0169461D02*
D03*
X0142598Y0147098D02*
D03*
X0292638Y0112571D02*
D03*
X0298150Y0112886D02*
D03*
X0295354Y0110917D02*
D03*
X0289370Y0112453D02*
D03*
X0287441Y0110484D02*
D03*
X0285433Y0112374D02*
D03*
X0302716Y0110445D02*
D03*
X0300866Y0112728D02*
D03*
X0299961Y0115327D02*
D03*
X0280039Y0110484D02*
D03*
X0281929Y0112492D02*
D03*
X0290118Y0115720D02*
D03*
X0279134Y0113083D02*
D03*
X0280197Y0115720D02*
D03*
Y0120602D02*
D03*
X0283740Y0121547D02*
D03*
X0287047Y0121232D02*
D03*
X0289764Y0121114D02*
D03*
X0290000Y0118280D02*
D03*
X0299646Y0119815D02*
D03*
X0304055Y0113083D02*
D03*
X0302559Y0115681D02*
D03*
X0300315Y0117650D02*
D03*
X0302284Y0120130D02*
D03*
X0299764Y0122295D02*
D03*
X0287717Y0123319D02*
D03*
X0302559Y0122650D02*
D03*
X0281496Y0123673D02*
D03*
X0285039Y0123870D02*
D03*
X0297756Y0124028D02*
D03*
X0301575Y0125051D02*
D03*
X0313543Y0119776D02*
D03*
X0316378Y0119815D02*
D03*
X0319291D02*
D03*
X0322087Y0119894D02*
D03*
X0325000Y0119854D02*
D03*
X0139606Y0121114D02*
D03*
X0143150Y0121232D02*
D03*
X0138898Y0117768D02*
D03*
X0142165Y0117807D02*
D03*
X0140512Y0114736D02*
D03*
X0238268Y0200839D02*
D03*
X0156732Y0135721D02*
D03*
X0351772Y0192571D02*
D03*
X0290787Y0178161D02*
D03*
X0263307Y0153122D02*
D03*
X0232913Y0122374D02*
D03*
X0171890Y0147138D02*
D03*
X0170315Y0158437D02*
D03*
X0208780Y0134106D02*
D03*
X0181850Y0126390D02*
D03*
X0185197Y0126311D02*
D03*
X0201969Y0159106D02*
D03*
X0202677Y0149618D02*
D03*
X0207756Y0154776D02*
D03*
X0153740Y0202768D02*
D03*
X0157913Y0202256D02*
D03*
X0170551Y0199933D02*
D03*
X0254331Y0161469D02*
D03*
X0357205Y0178673D02*
D03*
X0143898Y0189894D02*
D03*
X0151772Y0190051D02*
D03*
X0141299Y0168161D02*
D03*
X0127953Y0155012D02*
D03*
X0141339Y0163909D02*
D03*
X0172362Y0149736D02*
D03*
X0174960Y0150484D02*
D03*
X0245512Y0201587D02*
D03*
X0203346Y0191350D02*
D03*
X0211102Y0189106D02*
D03*
X0174567Y0178988D02*
D03*
X0233268Y0188516D02*
D03*
X0216378Y0186350D02*
D03*
X0172244Y0176626D02*
D03*
X0188937Y0176744D02*
D03*
X0226102Y0190169D02*
D03*
X0229724Y0188319D02*
D03*
X0175906Y0199500D02*
D03*
X0175079Y0191547D02*
D03*
X0163543Y0134579D02*
D03*
X0185906Y0148319D02*
D03*
X0179528Y0136862D02*
D03*
X0183858Y0135602D02*
D03*
X0218661Y0139461D02*
D03*
X0229803Y0152689D02*
D03*
X0225669Y0152453D02*
D03*
X0229803Y0143634D02*
D03*
X0228386Y0139618D02*
D03*
X0253780Y0127413D02*
D03*
X0220984Y0170091D02*
D03*
X0185158Y0151784D02*
D03*
X0169803Y0168319D02*
D03*
X0162165Y0191114D02*
D03*
X0205118Y0125957D02*
D03*
X0269803Y0144894D02*
D03*
X0287795Y0147807D02*
D03*
X0188819Y0183280D02*
D03*
X0192835Y0181232D02*
D03*
X0186102Y0186075D02*
D03*
X0178228Y0139264D02*
D03*
X0187835Y0144264D02*
D03*
X0204528Y0130760D02*
D03*
X0160472Y0167768D02*
D03*
X0242992Y0136153D02*
D03*
X0195473Y0215366D02*
D03*
X0206181Y0215445D02*
D03*
X0205433Y0219972D02*
D03*
X0196339Y0220012D02*
D03*
X0164921Y0215878D02*
D03*
X0145079Y0221744D02*
D03*
X0165276Y0210602D02*
D03*
X0235669Y0200248D02*
D03*
X0181378Y0139933D02*
D03*
X0238583Y0128358D02*
D03*
X0238701Y0125642D02*
D03*
X0219803Y0174146D02*
D03*
X0224370Y0128988D02*
D03*
X0224724Y0139421D02*
D03*
X0238347Y0145130D02*
D03*
X0238268Y0138634D02*
D03*
X0220276Y0165563D02*
D03*
X0185866Y0172846D02*
D03*
X0129921Y0110236D02*
D03*
Y0133858D02*
D03*
X0133858Y0110236D02*
D03*
X0135827Y0114173D02*
D03*
Y0122047D02*
D03*
X0133858Y0204725D02*
D03*
X0135827Y0208662D02*
D03*
Y0216536D02*
D03*
X0133858Y0220473D02*
D03*
X0137795Y0110236D02*
D03*
X0141732D02*
D03*
X0145669D02*
D03*
X0149606D02*
D03*
X0151575Y0114173D02*
D03*
Y0122047D02*
D03*
X0153543Y0110236D02*
D03*
X0155512Y0208662D02*
D03*
Y0216536D02*
D03*
X0157480Y0110236D02*
D03*
X0161417D02*
D03*
Y0118110D02*
D03*
X0165354Y0110236D02*
D03*
X0169291D02*
D03*
X0173228D02*
D03*
X0175197Y0122047D02*
D03*
X0173228Y0125984D02*
D03*
X0177165Y0110236D02*
D03*
Y0118110D02*
D03*
X0179134Y0122047D02*
D03*
X0177165Y0188977D02*
D03*
Y0204725D02*
D03*
X0183071Y0185039D02*
D03*
X0187008Y0114173D02*
D03*
Y0129921D02*
D03*
X0185039Y0165354D02*
D03*
X0188977Y0125984D02*
D03*
X0198819Y0122047D02*
D03*
X0196851Y0181103D02*
D03*
Y0204725D02*
D03*
X0202756Y0169291D02*
D03*
X0200787Y0173228D02*
D03*
Y0181103D02*
D03*
X0204725Y0173228D02*
D03*
Y0204725D02*
D03*
X0208662Y0173228D02*
D03*
X0214567Y0153543D02*
D03*
X0216536Y0118110D02*
D03*
X0218504Y0153543D02*
D03*
X0222441D02*
D03*
X0220473Y0157480D02*
D03*
Y0188977D02*
D03*
X0226378Y0216536D02*
D03*
X0240158Y0141732D02*
D03*
X0250000Y0200787D02*
D03*
X0253937Y0185039D02*
D03*
X0251969Y0212598D02*
D03*
X0255906Y0165354D02*
D03*
X0257874Y0185039D02*
D03*
Y0192913D02*
D03*
Y0200787D02*
D03*
X0255906Y0204725D02*
D03*
Y0212598D02*
D03*
Y0220473D02*
D03*
X0259843Y0110236D02*
D03*
Y0188977D02*
D03*
Y0212598D02*
D03*
X0263780Y0110236D02*
D03*
X0265748Y0200787D02*
D03*
X0263780Y0212598D02*
D03*
X0265748Y0216536D02*
D03*
X0267717Y0110236D02*
D03*
Y0118110D02*
D03*
Y0212598D02*
D03*
X0271654Y0110236D02*
D03*
Y0173228D02*
D03*
X0273622Y0192913D02*
D03*
Y0200787D02*
D03*
X0271654Y0212598D02*
D03*
X0275591Y0110236D02*
D03*
X0277559Y0145669D02*
D03*
X0275591Y0196851D02*
D03*
X0277559Y0200787D02*
D03*
X0275591Y0212598D02*
D03*
X0279528Y0118110D02*
D03*
X0281496Y0200787D02*
D03*
X0279528Y0212598D02*
D03*
X0283465Y0110236D02*
D03*
Y0125984D02*
D03*
X0285433Y0145669D02*
D03*
Y0208662D02*
D03*
X0283465Y0212598D02*
D03*
X0285433Y0216536D02*
D03*
X0287402Y0125984D02*
D03*
X0289370Y0169291D02*
D03*
X0287402Y0173228D02*
D03*
Y0204725D02*
D03*
Y0212598D02*
D03*
X0291339Y0110236D02*
D03*
Y0165354D02*
D03*
Y0173228D02*
D03*
Y0212598D02*
D03*
X0295276Y0173228D02*
D03*
Y0204725D02*
D03*
Y0212598D02*
D03*
Y0220473D02*
D03*
X0299213Y0110236D02*
D03*
Y0173228D02*
D03*
Y0196851D02*
D03*
X0301181Y0200787D02*
D03*
X0299213Y0212598D02*
D03*
X0305118Y0200787D02*
D03*
X0303150Y0212598D02*
D03*
X0307087Y0110236D02*
D03*
X0309055Y0137795D02*
D03*
Y0185039D02*
D03*
Y0200787D02*
D03*
X0307087Y0204725D02*
D03*
Y0212598D02*
D03*
X0311024Y0110236D02*
D03*
X0314961Y0212598D02*
D03*
Y0220473D02*
D03*
X0318898Y0212598D02*
D03*
X0324803Y0129921D02*
D03*
X0322835Y0212598D02*
D03*
X0328740Y0129921D02*
D03*
Y0200787D02*
D03*
X0326772Y0204725D02*
D03*
Y0212598D02*
D03*
X0330709Y0110236D02*
D03*
X0332677Y0129921D02*
D03*
Y0200787D02*
D03*
X0330709Y0212598D02*
D03*
X0334646Y0110236D02*
D03*
X0336614Y0114173D02*
D03*
X0334646Y0118110D02*
D03*
X0336614Y0129921D02*
D03*
Y0153543D02*
D03*
Y0200787D02*
D03*
X0334646Y0204725D02*
D03*
X0336614Y0208662D02*
D03*
X0334646Y0212598D02*
D03*
X0336614Y0216536D02*
D03*
X0334646Y0220473D02*
D03*
X0338583Y0110236D02*
D03*
X0340551Y0200787D02*
D03*
X0338583Y0204725D02*
D03*
Y0220473D02*
D03*
X0342520Y0110236D02*
D03*
X0348425Y0161417D02*
D03*
X0356299Y0200787D02*
D03*
X0358268Y0133858D02*
D03*
X0360236Y0200787D02*
D03*
X0235945Y0160602D02*
D03*
X0254685Y0157650D02*
D03*
X0253228Y0155445D02*
D03*
X0239331Y0160977D02*
D03*
X0322559Y0145366D02*
D03*
X0312677Y0143004D02*
D03*
X0254567Y0133516D02*
D03*
X0246929Y0134461D02*
D03*
X0249134Y0136153D02*
D03*
M02*
