G04*
G04 #@! TF.GenerationSoftware,Altium Limited,Altium Designer,18.1.9 (240)*
G04*
G04 Layer_Color=8388736*
%FSAX25Y25*%
%MOIN*%
G70*
G01*
G75*
%ADD57R,0.03162X0.04343*%
%ADD58R,0.04343X0.03162*%
%ADD59R,0.03950X0.03950*%
%ADD60R,0.04934X0.09461*%
%ADD61R,0.04737X0.04737*%
%ADD62R,0.06312X0.04737*%
%ADD63R,0.10249X0.07099*%
%ADD64R,0.05918X0.04343*%
%ADD65R,0.04343X0.05918*%
%ADD66O,0.04343X0.01784*%
%ADD67O,0.01784X0.04343*%
%ADD68R,0.10249X0.10249*%
%ADD69R,0.03950X0.03950*%
%ADD70R,0.04343X0.04540*%
%ADD71R,0.07099X0.06706*%
%ADD72R,0.06706X0.07099*%
%ADD73R,0.03556X0.02572*%
G04:AMPARAMS|DCode=74|XSize=17.84mil|YSize=31.62mil|CornerRadius=6.46mil|HoleSize=0mil|Usage=FLASHONLY|Rotation=270.000|XOffset=0mil|YOffset=0mil|HoleType=Round|Shape=RoundedRectangle|*
%AMROUNDEDRECTD74*
21,1,0.01784,0.01870,0,0,270.0*
21,1,0.00492,0.03162,0,0,270.0*
1,1,0.01292,-0.00935,-0.00246*
1,1,0.01292,-0.00935,0.00246*
1,1,0.01292,0.00935,0.00246*
1,1,0.01292,0.00935,-0.00246*
%
%ADD74ROUNDEDRECTD74*%
G04:AMPARAMS|DCode=75|XSize=17.84mil|YSize=31.62mil|CornerRadius=6.46mil|HoleSize=0mil|Usage=FLASHONLY|Rotation=180.000|XOffset=0mil|YOffset=0mil|HoleType=Round|Shape=RoundedRectangle|*
%AMROUNDEDRECTD75*
21,1,0.01784,0.01870,0,0,180.0*
21,1,0.00492,0.03162,0,0,180.0*
1,1,0.01292,-0.00246,0.00935*
1,1,0.01292,0.00246,0.00935*
1,1,0.01292,0.00246,-0.00935*
1,1,0.01292,-0.00246,-0.00935*
%
%ADD75ROUNDEDRECTD75*%
G04:AMPARAMS|DCode=76|XSize=17.84mil|YSize=61.15mil|CornerRadius=6.46mil|HoleSize=0mil|Usage=FLASHONLY|Rotation=270.000|XOffset=0mil|YOffset=0mil|HoleType=Round|Shape=RoundedRectangle|*
%AMROUNDEDRECTD76*
21,1,0.01784,0.04823,0,0,270.0*
21,1,0.00492,0.06115,0,0,270.0*
1,1,0.01292,-0.02411,-0.00246*
1,1,0.01292,-0.02411,0.00246*
1,1,0.01292,0.02411,0.00246*
1,1,0.01292,0.02411,-0.00246*
%
%ADD76ROUNDEDRECTD76*%
G04:AMPARAMS|DCode=77|XSize=17.84mil|YSize=74.93mil|CornerRadius=6.46mil|HoleSize=0mil|Usage=FLASHONLY|Rotation=270.000|XOffset=0mil|YOffset=0mil|HoleType=Round|Shape=RoundedRectangle|*
%AMROUNDEDRECTD77*
21,1,0.01784,0.06201,0,0,270.0*
21,1,0.00492,0.07493,0,0,270.0*
1,1,0.01292,-0.03100,-0.00246*
1,1,0.01292,-0.03100,0.00246*
1,1,0.01292,0.03100,0.00246*
1,1,0.01292,0.03100,-0.00246*
%
%ADD77ROUNDEDRECTD77*%
G04:AMPARAMS|DCode=78|XSize=17.84mil|YSize=35.56mil|CornerRadius=6.46mil|HoleSize=0mil|Usage=FLASHONLY|Rotation=270.000|XOffset=0mil|YOffset=0mil|HoleType=Round|Shape=RoundedRectangle|*
%AMROUNDEDRECTD78*
21,1,0.01784,0.02264,0,0,270.0*
21,1,0.00492,0.03556,0,0,270.0*
1,1,0.01292,-0.01132,-0.00246*
1,1,0.01292,-0.01132,0.00246*
1,1,0.01292,0.01132,0.00246*
1,1,0.01292,0.01132,-0.00246*
%
%ADD78ROUNDEDRECTD78*%
%ADD79R,0.02769X0.06312*%
%ADD80R,0.05131X0.08280*%
%ADD81R,0.01968X0.05906*%
%ADD82R,0.06902X0.08280*%
%ADD83R,0.05524X0.06312*%
%ADD84R,0.08674X0.03910*%
%ADD85R,0.01784X0.03556*%
%ADD86R,0.04816X0.07808*%
%ADD87R,0.09304X0.07808*%
%ADD88R,0.06902X0.14383*%
%ADD89R,0.04343X0.04737*%
%ADD90R,0.03162X0.03320*%
%ADD91R,0.03320X0.03162*%
%ADD92R,0.07493X0.02769*%
%ADD93R,0.02769X0.07493*%
G04:AMPARAMS|DCode=94|XSize=67.06mil|YSize=67.06mil|CornerRadius=9.91mil|HoleSize=0mil|Usage=FLASHONLY|Rotation=180.000|XOffset=0mil|YOffset=0mil|HoleType=Round|Shape=RoundedRectangle|*
%AMROUNDEDRECTD94*
21,1,0.06706,0.04724,0,0,180.0*
21,1,0.04724,0.06706,0,0,180.0*
1,1,0.01981,-0.02362,0.02362*
1,1,0.01981,0.02362,0.02362*
1,1,0.01981,0.02362,-0.02362*
1,1,0.01981,-0.02362,-0.02362*
%
%ADD94ROUNDEDRECTD94*%
%ADD95R,0.06706X0.06706*%
%ADD96C,0.06706*%
%ADD97P,0.08537X8X112.5*%
%ADD98R,0.06706X0.06706*%
%ADD99R,0.00800X0.00800*%
%ADD100O,0.04737X0.07099*%
%ADD101C,0.24422*%
D57*
X0357677Y0196350D02*
D03*
X0345866D02*
D03*
X0351772D02*
D03*
X0279842Y0162531D02*
D03*
X0285748D02*
D03*
X0345590Y0171980D02*
D03*
X0339685D02*
D03*
X0339685Y0165287D02*
D03*
X0345591D02*
D03*
X0285748Y0169224D02*
D03*
X0279842D02*
D03*
X0285748Y0177098D02*
D03*
X0279842D02*
D03*
X0276299Y0149146D02*
D03*
X0282205D02*
D03*
X0192244Y0163791D02*
D03*
X0198150Y0163791D02*
D03*
X0192244Y0157807D02*
D03*
X0198150D02*
D03*
X0285748Y0197177D02*
D03*
X0279842D02*
D03*
X0285748Y0190484D02*
D03*
X0279842D02*
D03*
X0192402Y0132728D02*
D03*
X0198307D02*
D03*
X0192362Y0125799D02*
D03*
X0198268D02*
D03*
D58*
X0345748Y0189067D02*
D03*
Y0183161D02*
D03*
X0205748Y0158398D02*
D03*
Y0164303D02*
D03*
X0177205Y0131311D02*
D03*
Y0125406D02*
D03*
X0331221Y0191075D02*
D03*
Y0196980D02*
D03*
X0324528Y0196980D02*
D03*
Y0191075D02*
D03*
X0317835Y0191075D02*
D03*
Y0196980D02*
D03*
X0311142Y0191075D02*
D03*
Y0196980D02*
D03*
X0337520Y0191075D02*
D03*
Y0196980D02*
D03*
Y0178870D02*
D03*
Y0184776D02*
D03*
X0346575Y0144224D02*
D03*
Y0138319D02*
D03*
X0234331Y0125366D02*
D03*
Y0137177D02*
D03*
Y0131272D02*
D03*
X0217087Y0131783D02*
D03*
Y0125878D02*
D03*
X0242323Y0131272D02*
D03*
Y0125366D02*
D03*
X0249843Y0131350D02*
D03*
Y0125445D02*
D03*
X0225669Y0131902D02*
D03*
Y0125996D02*
D03*
X0153740Y0193516D02*
D03*
Y0199421D02*
D03*
X0207205Y0170287D02*
D03*
Y0176193D02*
D03*
X0146968Y0199421D02*
D03*
Y0193516D02*
D03*
X0140197Y0199421D02*
D03*
Y0193516D02*
D03*
X0133425Y0199461D02*
D03*
Y0193555D02*
D03*
X0169961Y0131272D02*
D03*
Y0125366D02*
D03*
X0146850Y0125287D02*
D03*
Y0131193D02*
D03*
X0216260Y0163909D02*
D03*
Y0158004D02*
D03*
X0230787Y0199146D02*
D03*
Y0193240D02*
D03*
X0223268Y0199146D02*
D03*
Y0193240D02*
D03*
X0208622Y0193201D02*
D03*
Y0199106D02*
D03*
X0215984Y0199146D02*
D03*
Y0193240D02*
D03*
D59*
X0192224Y0146409D02*
D03*
X0198130D02*
D03*
X0192244Y0140917D02*
D03*
X0198150D02*
D03*
X0192244Y0151902D02*
D03*
X0198150D02*
D03*
X0345394Y0157807D02*
D03*
X0339094D02*
D03*
X0279842Y0183791D02*
D03*
X0285748D02*
D03*
X0264350Y0168063D02*
D03*
X0258445D02*
D03*
D60*
X0111083Y0193563D02*
D03*
X0122697D02*
D03*
D61*
X0116890Y0187657D02*
D03*
D62*
X0301299Y0155445D02*
D03*
X0292638Y0151705D02*
D03*
Y0159185D02*
D03*
D63*
X0298150Y0181035D02*
D03*
Y0167650D02*
D03*
X0246142Y0182098D02*
D03*
Y0168713D02*
D03*
D64*
X0303268Y0189500D02*
D03*
Y0196980D02*
D03*
X0294213Y0189500D02*
D03*
Y0196980D02*
D03*
X0253268Y0189894D02*
D03*
Y0197374D02*
D03*
X0244606Y0189894D02*
D03*
Y0197374D02*
D03*
X0325315Y0159185D02*
D03*
Y0151705D02*
D03*
X0216142Y0170563D02*
D03*
Y0178043D02*
D03*
D65*
X0269213Y0196783D02*
D03*
X0261732D02*
D03*
X0266968Y0160524D02*
D03*
X0259488D02*
D03*
X0266968Y0152059D02*
D03*
X0259488D02*
D03*
X0266890Y0143240D02*
D03*
X0259409D02*
D03*
X0223976Y0157689D02*
D03*
X0231457D02*
D03*
D66*
X0328169Y0170209D02*
D03*
Y0172177D02*
D03*
Y0174146D02*
D03*
Y0176114D02*
D03*
Y0178083D02*
D03*
Y0180051D02*
D03*
X0313012D02*
D03*
Y0178083D02*
D03*
Y0176114D02*
D03*
Y0174146D02*
D03*
Y0172177D02*
D03*
Y0170209D02*
D03*
D67*
X0325512Y0182709D02*
D03*
X0323543D02*
D03*
X0321575D02*
D03*
X0319606D02*
D03*
X0317638D02*
D03*
X0315669D02*
D03*
Y0167551D02*
D03*
X0317638D02*
D03*
X0319606D02*
D03*
X0321575D02*
D03*
X0323543D02*
D03*
X0325512D02*
D03*
D68*
X0320591Y0175130D02*
D03*
D69*
X0317441Y0151705D02*
D03*
Y0157610D02*
D03*
X0309173Y0155248D02*
D03*
Y0161153D02*
D03*
X0138858Y0125091D02*
D03*
Y0130996D02*
D03*
X0156083Y0131134D02*
D03*
Y0125228D02*
D03*
X0163031Y0131075D02*
D03*
Y0125169D02*
D03*
D70*
X0326693Y0138516D02*
D03*
X0340472D02*
D03*
D71*
X0303169Y0138516D02*
D03*
X0319902D02*
D03*
D72*
X0292638Y0126606D02*
D03*
Y0143339D02*
D03*
D73*
X0276299Y0155839D02*
D03*
X0286142D02*
D03*
D74*
X0271083Y0175721D02*
D03*
Y0177689D02*
D03*
Y0179657D02*
D03*
Y0181626D02*
D03*
D75*
X0269508Y0184972D02*
D03*
X0267539D02*
D03*
X0265571D02*
D03*
X0263602D02*
D03*
Y0172374D02*
D03*
X0265571D02*
D03*
X0267539D02*
D03*
X0269508D02*
D03*
D76*
X0263504Y0180642D02*
D03*
Y0176705D02*
D03*
D77*
X0264193Y0178673D02*
D03*
D78*
X0264587Y0173063D02*
D03*
Y0184283D02*
D03*
D79*
X0197973Y0188909D02*
D03*
X0195413D02*
D03*
X0192854D02*
D03*
X0190295D02*
D03*
X0197973Y0171193D02*
D03*
X0195413D02*
D03*
X0192854D02*
D03*
X0190295D02*
D03*
D80*
X0198189Y0197177D02*
D03*
X0188347D02*
D03*
D81*
X0317539Y0125327D02*
D03*
X0320098D02*
D03*
X0325217D02*
D03*
X0322657D02*
D03*
X0314980D02*
D03*
D82*
X0324134Y0114106D02*
D03*
X0316063D02*
D03*
D83*
X0332697Y0124441D02*
D03*
X0307500D02*
D03*
D84*
X0227520Y0170051D02*
D03*
D85*
X0222598Y0166311D02*
D03*
X0224567D02*
D03*
X0226535Y0166311D02*
D03*
X0228504D02*
D03*
X0230472D02*
D03*
X0232441D02*
D03*
X0222598Y0173791D02*
D03*
X0224567Y0173791D02*
D03*
X0226535Y0173791D02*
D03*
X0228504D02*
D03*
X0230472Y0173791D02*
D03*
X0232441D02*
D03*
D86*
X0230551Y0180957D02*
D03*
X0223543D02*
D03*
D87*
X0246220Y0159618D02*
D03*
Y0143870D02*
D03*
D88*
X0276378Y0130642D02*
D03*
X0260630D02*
D03*
D89*
X0165287Y0192315D02*
D03*
X0181429D02*
D03*
Y0198614D02*
D03*
X0165287D02*
D03*
D90*
X0115276Y0179815D02*
D03*
X0119055D02*
D03*
D91*
X0123701Y0179776D02*
D03*
Y0183555D02*
D03*
X0110473Y0179736D02*
D03*
Y0183516D02*
D03*
D92*
X0180197Y0145858D02*
D03*
Y0149008D02*
D03*
Y0152197D02*
D03*
Y0155347D02*
D03*
Y0158496D02*
D03*
Y0161646D02*
D03*
Y0164756D02*
D03*
Y0167945D02*
D03*
Y0171095D02*
D03*
Y0174205D02*
D03*
Y0177394D02*
D03*
Y0180504D02*
D03*
X0133732Y0180524D02*
D03*
Y0177370D02*
D03*
X0133732Y0174213D02*
D03*
X0133732Y0171075D02*
D03*
X0133732Y0167925D02*
D03*
X0133732Y0164776D02*
D03*
X0133740Y0161646D02*
D03*
Y0158457D02*
D03*
Y0155307D02*
D03*
Y0152197D02*
D03*
Y0149008D02*
D03*
Y0145858D02*
D03*
D93*
X0174291Y0184658D02*
D03*
X0171134D02*
D03*
X0167984D02*
D03*
X0164835Y0184658D02*
D03*
X0161685Y0184658D02*
D03*
X0158535Y0184658D02*
D03*
X0155386D02*
D03*
X0152236Y0184653D02*
D03*
X0149087Y0184653D02*
D03*
X0145937Y0184658D02*
D03*
X0142760D02*
D03*
X0139449Y0184658D02*
D03*
X0139606Y0141724D02*
D03*
X0142795D02*
D03*
X0145905D02*
D03*
X0149055D02*
D03*
X0152205D02*
D03*
X0155354D02*
D03*
X0158504D02*
D03*
X0161653D02*
D03*
X0164803D02*
D03*
X0167953D02*
D03*
X0171102D02*
D03*
X0174291D02*
D03*
D94*
X0166803Y0153358D02*
D03*
D95*
X0156961Y0153358D02*
D03*
X0147118Y0153358D02*
D03*
X0166803Y0163201D02*
D03*
X0156961D02*
D03*
X0147118D02*
D03*
X0166902Y0173043D02*
D03*
X0156961D02*
D03*
X0147118D02*
D03*
X0167126Y0116469D02*
D03*
X0285157Y0116862D02*
D03*
X0273346D02*
D03*
X0251693D02*
D03*
X0140598Y0208095D02*
D03*
D96*
X0157126Y0116469D02*
D03*
X0147126D02*
D03*
X0355906Y0163358D02*
D03*
Y0153358D02*
D03*
Y0143358D02*
D03*
X0295158Y0116862D02*
D03*
X0263347D02*
D03*
X0181693D02*
D03*
X0191693D02*
D03*
X0201693D02*
D03*
X0211693D02*
D03*
X0221693D02*
D03*
X0231693D02*
D03*
X0241693D02*
D03*
X0140598Y0218094D02*
D03*
X0150599Y0208095D02*
D03*
Y0218094D02*
D03*
X0160599Y0208095D02*
D03*
Y0218094D02*
D03*
X0170598Y0208095D02*
D03*
Y0218094D02*
D03*
X0180598Y0208095D02*
D03*
Y0218094D02*
D03*
X0190598Y0208095D02*
D03*
Y0218094D02*
D03*
X0200599Y0208095D02*
D03*
Y0218094D02*
D03*
X0210598Y0208095D02*
D03*
Y0218094D02*
D03*
X0220599Y0208095D02*
D03*
Y0218094D02*
D03*
X0230598Y0208095D02*
D03*
Y0218094D02*
D03*
X0240599Y0208095D02*
D03*
Y0218094D02*
D03*
X0250599Y0208095D02*
D03*
Y0218094D02*
D03*
X0260598Y0208095D02*
D03*
Y0218094D02*
D03*
X0270599Y0208095D02*
D03*
Y0218094D02*
D03*
X0280598Y0208095D02*
D03*
Y0218094D02*
D03*
X0290599Y0208095D02*
D03*
Y0218094D02*
D03*
X0300599Y0208095D02*
D03*
Y0218094D02*
D03*
X0310598Y0208095D02*
D03*
Y0218094D02*
D03*
X0320599Y0208095D02*
D03*
Y0218094D02*
D03*
X0330598Y0208095D02*
D03*
Y0218094D02*
D03*
D97*
X0208189Y0141823D02*
D03*
Y0184343D02*
D03*
D98*
X0355906Y0173358D02*
D03*
D99*
X0328059Y0123360D02*
D03*
X0312114D02*
D03*
D100*
X0331417Y0114896D02*
D03*
X0308780D02*
D03*
D101*
X0121378Y0122374D02*
D03*
Y0212925D02*
D03*
X0349724D02*
D03*
Y0122374D02*
D03*
M02*
