G04*
G04 #@! TF.GenerationSoftware,Altium Limited,Altium Designer,19.0.14 (431)*
G04*
G04 Layer_Color=8421504*
%FSAX25Y25*%
%MOIN*%
G70*
G01*
G75*
%ADD19R,0.01929X0.03740*%
%ADD20R,0.03780X0.01968*%
%ADD21R,0.03740X0.01929*%
%ADD22R,0.03740X0.01929*%
%ADD23R,0.03150X0.03150*%
%ADD24R,0.03937X0.02756*%
%ADD25R,0.02362X0.03937*%
%ADD26R,0.03150X0.03150*%
%ADD27R,0.03937X0.02362*%
%ADD28R,0.02362X0.03543*%
%ADD29R,0.04134X0.08661*%
%ADD30R,0.03937X0.03937*%
%ADD31R,0.03543X0.02362*%
%ADD32R,0.05512X0.03937*%
%ADD33R,0.09449X0.06299*%
%ADD34R,0.05118X0.03543*%
%ADD35R,0.03543X0.05118*%
%ADD36O,0.03543X0.00984*%
%ADD37O,0.00984X0.03543*%
%ADD38R,0.09449X0.09449*%
%ADD39R,0.03543X0.03740*%
%ADD40R,0.06299X0.05906*%
%ADD41R,0.05906X0.06299*%
%ADD42R,0.02756X0.01772*%
G04:AMPARAMS|DCode=43|XSize=9.84mil|YSize=23.62mil|CornerRadius=2.46mil|HoleSize=0mil|Usage=FLASHONLY|Rotation=270.000|XOffset=0mil|YOffset=0mil|HoleType=Round|Shape=RoundedRectangle|*
%AMROUNDEDRECTD43*
21,1,0.00984,0.01870,0,0,270.0*
21,1,0.00492,0.02362,0,0,270.0*
1,1,0.00492,-0.00935,-0.00246*
1,1,0.00492,-0.00935,0.00246*
1,1,0.00492,0.00935,0.00246*
1,1,0.00492,0.00935,-0.00246*
%
%ADD43ROUNDEDRECTD43*%
G04:AMPARAMS|DCode=44|XSize=9.84mil|YSize=23.62mil|CornerRadius=2.46mil|HoleSize=0mil|Usage=FLASHONLY|Rotation=180.000|XOffset=0mil|YOffset=0mil|HoleType=Round|Shape=RoundedRectangle|*
%AMROUNDEDRECTD44*
21,1,0.00984,0.01870,0,0,180.0*
21,1,0.00492,0.02362,0,0,180.0*
1,1,0.00492,-0.00246,0.00935*
1,1,0.00492,0.00246,0.00935*
1,1,0.00492,0.00246,-0.00935*
1,1,0.00492,-0.00246,-0.00935*
%
%ADD44ROUNDEDRECTD44*%
G04:AMPARAMS|DCode=45|XSize=9.84mil|YSize=53.15mil|CornerRadius=2.46mil|HoleSize=0mil|Usage=FLASHONLY|Rotation=270.000|XOffset=0mil|YOffset=0mil|HoleType=Round|Shape=RoundedRectangle|*
%AMROUNDEDRECTD45*
21,1,0.00984,0.04823,0,0,270.0*
21,1,0.00492,0.05315,0,0,270.0*
1,1,0.00492,-0.02411,-0.00246*
1,1,0.00492,-0.02411,0.00246*
1,1,0.00492,0.02411,0.00246*
1,1,0.00492,0.02411,-0.00246*
%
%ADD45ROUNDEDRECTD45*%
G04:AMPARAMS|DCode=46|XSize=9.84mil|YSize=66.93mil|CornerRadius=2.46mil|HoleSize=0mil|Usage=FLASHONLY|Rotation=270.000|XOffset=0mil|YOffset=0mil|HoleType=Round|Shape=RoundedRectangle|*
%AMROUNDEDRECTD46*
21,1,0.00984,0.06201,0,0,270.0*
21,1,0.00492,0.06693,0,0,270.0*
1,1,0.00492,-0.03100,-0.00246*
1,1,0.00492,-0.03100,0.00246*
1,1,0.00492,0.03100,0.00246*
1,1,0.00492,0.03100,-0.00246*
%
%ADD46ROUNDEDRECTD46*%
G04:AMPARAMS|DCode=47|XSize=9.84mil|YSize=27.56mil|CornerRadius=2.46mil|HoleSize=0mil|Usage=FLASHONLY|Rotation=270.000|XOffset=0mil|YOffset=0mil|HoleType=Round|Shape=RoundedRectangle|*
%AMROUNDEDRECTD47*
21,1,0.00984,0.02264,0,0,270.0*
21,1,0.00492,0.02756,0,0,270.0*
1,1,0.00492,-0.01132,-0.00246*
1,1,0.00492,-0.01132,0.00246*
1,1,0.00492,0.01132,0.00246*
1,1,0.00492,0.01132,-0.00246*
%
%ADD47ROUNDEDRECTD47*%
%ADD48R,0.01968X0.05512*%
%ADD49R,0.04331X0.07480*%
%ADD50R,0.01575X0.05512*%
%ADD51R,0.04724X0.05512*%
%ADD52R,0.08504X0.07008*%
%ADD53R,0.06102X0.13583*%
%ADD54R,0.03543X0.03937*%
%ADD55R,0.02362X0.02520*%
%ADD56R,0.02520X0.02362*%
G04:AMPARAMS|DCode=57|XSize=59.06mil|YSize=59.06mil|CornerRadius=5.91mil|HoleSize=0mil|Usage=FLASHONLY|Rotation=180.000|XOffset=0mil|YOffset=0mil|HoleType=Round|Shape=RoundedRectangle|*
%AMROUNDEDRECTD57*
21,1,0.05906,0.04724,0,0,180.0*
21,1,0.04724,0.05906,0,0,180.0*
1,1,0.01181,-0.02362,0.02362*
1,1,0.01181,0.02362,0.02362*
1,1,0.01181,0.02362,-0.02362*
1,1,0.01181,-0.02362,-0.02362*
%
%ADD57ROUNDEDRECTD57*%
%ADD58R,0.05906X0.05906*%
D19*
X0139626Y0143161D02*
D03*
X0142815D02*
D03*
X0145965D02*
D03*
X0149114Y0143161D02*
D03*
X0152264Y0143161D02*
D03*
X0155413D02*
D03*
X0158563Y0143161D02*
D03*
X0161673Y0143161D02*
D03*
X0164823Y0143161D02*
D03*
X0167973Y0143161D02*
D03*
X0171122D02*
D03*
X0174311Y0143201D02*
D03*
X0139469Y0183201D02*
D03*
X0142776D02*
D03*
X0145965D02*
D03*
X0149114D02*
D03*
X0152264D02*
D03*
X0155413D02*
D03*
X0158563D02*
D03*
X0161713D02*
D03*
X0164823D02*
D03*
X0167972D02*
D03*
X0171161D02*
D03*
X0174311D02*
D03*
D20*
X0135197Y0180543D02*
D03*
Y0177394D02*
D03*
Y0174244D02*
D03*
Y0171095D02*
D03*
Y0167945D02*
D03*
Y0164795D02*
D03*
Y0161646D02*
D03*
Y0158496D02*
D03*
Y0155347D02*
D03*
Y0152197D02*
D03*
Y0149047D02*
D03*
Y0145898D02*
D03*
X0178740Y0145858D02*
D03*
D21*
X0178760Y0180524D02*
D03*
Y0177374D02*
D03*
X0178760Y0174224D02*
D03*
X0178760Y0171075D02*
D03*
Y0167925D02*
D03*
X0178760Y0164776D02*
D03*
X0178760Y0161626D02*
D03*
Y0158476D02*
D03*
X0178760Y0152177D02*
D03*
Y0148988D02*
D03*
D22*
X0178760Y0155327D02*
D03*
D23*
X0256555Y0177787D02*
D03*
Y0183693D02*
D03*
X0250827Y0193398D02*
D03*
Y0199303D02*
D03*
X0317441Y0151705D02*
D03*
Y0157610D02*
D03*
X0309173Y0155248D02*
D03*
Y0161153D02*
D03*
X0161890Y0126469D02*
D03*
Y0132374D02*
D03*
X0179114Y0132512D02*
D03*
Y0126606D02*
D03*
X0186063Y0132453D02*
D03*
Y0126547D02*
D03*
X0256555Y0166291D02*
D03*
Y0172197D02*
D03*
D24*
X0250295Y0134067D02*
D03*
Y0130327D02*
D03*
Y0126587D02*
D03*
X0239469D02*
D03*
X0239469Y0130327D02*
D03*
X0239469Y0134067D02*
D03*
D25*
X0212402Y0155150D02*
D03*
X0204921D02*
D03*
Y0165976D02*
D03*
X0208661D02*
D03*
X0212402D02*
D03*
D26*
X0205709Y0149146D02*
D03*
X0211614D02*
D03*
X0192224Y0146409D02*
D03*
X0198130D02*
D03*
X0192244Y0140917D02*
D03*
X0198150D02*
D03*
X0192244Y0151902D02*
D03*
X0198150D02*
D03*
X0345394Y0157807D02*
D03*
X0339094D02*
D03*
X0279842Y0183791D02*
D03*
X0285748D02*
D03*
D27*
X0225374Y0192020D02*
D03*
Y0199500D02*
D03*
X0236201D02*
D03*
Y0195760D02*
D03*
Y0192020D02*
D03*
D28*
X0274606Y0142413D02*
D03*
X0280512D02*
D03*
X0279842Y0162531D02*
D03*
X0285748D02*
D03*
X0345590Y0171980D02*
D03*
X0339685D02*
D03*
X0339685Y0165287D02*
D03*
X0345591D02*
D03*
X0285748Y0169224D02*
D03*
X0279842D02*
D03*
X0285748Y0177098D02*
D03*
X0279842D02*
D03*
X0276299Y0149146D02*
D03*
X0282205D02*
D03*
X0192244Y0163791D02*
D03*
X0198150Y0163791D02*
D03*
X0192244Y0157807D02*
D03*
X0198150D02*
D03*
X0228701Y0140602D02*
D03*
X0222795D02*
D03*
X0233780D02*
D03*
X0239685D02*
D03*
X0285748Y0197177D02*
D03*
X0279842D02*
D03*
X0285748Y0190484D02*
D03*
X0279842D02*
D03*
D29*
X0111122Y0189272D02*
D03*
X0122736D02*
D03*
D30*
X0116929Y0183366D02*
D03*
D31*
X0231457Y0185484D02*
D03*
Y0179579D02*
D03*
X0200236Y0132689D02*
D03*
Y0126784D02*
D03*
X0331221Y0191075D02*
D03*
Y0196980D02*
D03*
X0324528Y0196980D02*
D03*
Y0191075D02*
D03*
X0317835Y0191075D02*
D03*
Y0196980D02*
D03*
X0311142Y0191075D02*
D03*
Y0196980D02*
D03*
X0337520Y0191075D02*
D03*
Y0196980D02*
D03*
Y0178870D02*
D03*
Y0184776D02*
D03*
X0346575Y0144224D02*
D03*
Y0138319D02*
D03*
X0231535Y0131587D02*
D03*
Y0125681D02*
D03*
X0224685Y0125760D02*
D03*
Y0131665D02*
D03*
X0153740Y0193516D02*
D03*
Y0199421D02*
D03*
X0243701Y0193240D02*
D03*
Y0199146D02*
D03*
X0146968Y0199421D02*
D03*
Y0193516D02*
D03*
X0140197Y0199421D02*
D03*
Y0193516D02*
D03*
X0133425Y0199461D02*
D03*
Y0193555D02*
D03*
X0192992Y0132650D02*
D03*
Y0126744D02*
D03*
X0169882Y0126665D02*
D03*
Y0132571D02*
D03*
X0225315Y0185484D02*
D03*
Y0179579D02*
D03*
X0216142Y0179657D02*
D03*
Y0185563D02*
D03*
X0224567Y0163279D02*
D03*
Y0157374D02*
D03*
X0216929Y0199067D02*
D03*
Y0193161D02*
D03*
X0204882Y0193161D02*
D03*
Y0199067D02*
D03*
X0210906Y0199067D02*
D03*
Y0193161D02*
D03*
D32*
X0301299Y0155445D02*
D03*
X0292638Y0151705D02*
D03*
Y0159185D02*
D03*
D33*
X0298150Y0181035D02*
D03*
Y0167650D02*
D03*
X0244252Y0181272D02*
D03*
Y0167886D02*
D03*
D34*
X0303268Y0189500D02*
D03*
Y0196980D02*
D03*
X0294213Y0189500D02*
D03*
Y0196980D02*
D03*
X0325315Y0159185D02*
D03*
Y0151705D02*
D03*
D35*
X0270748Y0188909D02*
D03*
X0263268D02*
D03*
X0270669Y0196941D02*
D03*
X0263189D02*
D03*
X0247323Y0158634D02*
D03*
X0254803D02*
D03*
X0247284Y0150563D02*
D03*
X0254764D02*
D03*
X0247205Y0142492D02*
D03*
X0254685D02*
D03*
X0224764Y0172492D02*
D03*
X0217284D02*
D03*
D36*
X0328169Y0170209D02*
D03*
Y0172177D02*
D03*
Y0174146D02*
D03*
Y0176114D02*
D03*
Y0178083D02*
D03*
Y0180051D02*
D03*
X0313012D02*
D03*
Y0178083D02*
D03*
Y0176114D02*
D03*
Y0174146D02*
D03*
Y0172177D02*
D03*
Y0170209D02*
D03*
D37*
X0325512Y0182709D02*
D03*
X0323543D02*
D03*
X0321575D02*
D03*
X0319606D02*
D03*
X0317638D02*
D03*
X0315669D02*
D03*
Y0167551D02*
D03*
X0317638D02*
D03*
X0319606D02*
D03*
X0321575D02*
D03*
X0323543D02*
D03*
X0325512D02*
D03*
D38*
X0320591Y0175130D02*
D03*
D39*
X0326693Y0138516D02*
D03*
X0340472D02*
D03*
D40*
X0303169Y0138516D02*
D03*
X0319902D02*
D03*
D41*
X0292638Y0126606D02*
D03*
Y0143339D02*
D03*
D42*
X0276299Y0155839D02*
D03*
X0286142D02*
D03*
D43*
X0271073Y0172453D02*
D03*
Y0174421D02*
D03*
Y0176390D02*
D03*
Y0178358D02*
D03*
D44*
X0269498Y0181705D02*
D03*
X0267530D02*
D03*
X0265561D02*
D03*
X0263593D02*
D03*
Y0169106D02*
D03*
X0265561D02*
D03*
X0267530D02*
D03*
X0269498D02*
D03*
D45*
X0263494Y0177374D02*
D03*
Y0173437D02*
D03*
D46*
X0264183Y0175406D02*
D03*
D47*
X0264577Y0169795D02*
D03*
Y0181016D02*
D03*
D48*
X0197973Y0188909D02*
D03*
X0195413D02*
D03*
X0192854D02*
D03*
X0190295D02*
D03*
X0197973Y0171193D02*
D03*
X0195413D02*
D03*
X0192854D02*
D03*
X0190295D02*
D03*
D49*
X0198189Y0197177D02*
D03*
X0188347D02*
D03*
D50*
X0317520Y0127039D02*
D03*
X0320079D02*
D03*
X0325197D02*
D03*
X0322638D02*
D03*
X0314961D02*
D03*
D51*
X0332677Y0126154D02*
D03*
X0307480D02*
D03*
D52*
X0265787Y0143437D02*
D03*
Y0159185D02*
D03*
D53*
X0276378Y0130642D02*
D03*
X0260630D02*
D03*
D54*
X0154764Y0132138D02*
D03*
X0138622D02*
D03*
Y0125839D02*
D03*
X0154764D02*
D03*
D55*
X0118740Y0177216D02*
D03*
X0122520D02*
D03*
D56*
X0126732Y0177335D02*
D03*
Y0173555D02*
D03*
X0114724Y0177335D02*
D03*
Y0173555D02*
D03*
D57*
X0166803Y0153358D02*
D03*
D58*
X0156961Y0153358D02*
D03*
X0147118Y0153358D02*
D03*
X0166803Y0163201D02*
D03*
X0156961D02*
D03*
X0147118D02*
D03*
X0166902Y0173043D02*
D03*
X0156961D02*
D03*
X0147118D02*
D03*
M02*
