G04*
G04 #@! TF.GenerationSoftware,Altium Limited,Altium Designer,19.0.14 (431)*
G04*
G04 Layer_Color=8388736*
%FSAX25Y25*%
%MOIN*%
G70*
G01*
G75*
%ADD59R,0.03950X0.03950*%
%ADD60R,0.04737X0.03556*%
%ADD61R,0.03162X0.04737*%
%ADD62R,0.03950X0.03950*%
%ADD63R,0.04737X0.03162*%
%ADD64R,0.03162X0.04343*%
%ADD65R,0.04934X0.09461*%
%ADD66R,0.04737X0.04737*%
%ADD67R,0.04343X0.03162*%
%ADD68R,0.06312X0.04737*%
%ADD69R,0.10249X0.07099*%
%ADD70R,0.05918X0.04343*%
%ADD71R,0.04343X0.05918*%
%ADD72O,0.04343X0.01784*%
%ADD73O,0.01784X0.04343*%
%ADD74R,0.10249X0.10249*%
%ADD75R,0.04343X0.04540*%
%ADD76R,0.07099X0.06706*%
%ADD77R,0.06706X0.07099*%
%ADD78R,0.03556X0.02572*%
G04:AMPARAMS|DCode=79|XSize=17.84mil|YSize=31.62mil|CornerRadius=6.46mil|HoleSize=0mil|Usage=FLASHONLY|Rotation=270.000|XOffset=0mil|YOffset=0mil|HoleType=Round|Shape=RoundedRectangle|*
%AMROUNDEDRECTD79*
21,1,0.01784,0.01870,0,0,270.0*
21,1,0.00492,0.03162,0,0,270.0*
1,1,0.01292,-0.00935,-0.00246*
1,1,0.01292,-0.00935,0.00246*
1,1,0.01292,0.00935,0.00246*
1,1,0.01292,0.00935,-0.00246*
%
%ADD79ROUNDEDRECTD79*%
G04:AMPARAMS|DCode=80|XSize=17.84mil|YSize=31.62mil|CornerRadius=6.46mil|HoleSize=0mil|Usage=FLASHONLY|Rotation=180.000|XOffset=0mil|YOffset=0mil|HoleType=Round|Shape=RoundedRectangle|*
%AMROUNDEDRECTD80*
21,1,0.01784,0.01870,0,0,180.0*
21,1,0.00492,0.03162,0,0,180.0*
1,1,0.01292,-0.00246,0.00935*
1,1,0.01292,0.00246,0.00935*
1,1,0.01292,0.00246,-0.00935*
1,1,0.01292,-0.00246,-0.00935*
%
%ADD80ROUNDEDRECTD80*%
G04:AMPARAMS|DCode=81|XSize=17.84mil|YSize=61.15mil|CornerRadius=6.46mil|HoleSize=0mil|Usage=FLASHONLY|Rotation=270.000|XOffset=0mil|YOffset=0mil|HoleType=Round|Shape=RoundedRectangle|*
%AMROUNDEDRECTD81*
21,1,0.01784,0.04823,0,0,270.0*
21,1,0.00492,0.06115,0,0,270.0*
1,1,0.01292,-0.02411,-0.00246*
1,1,0.01292,-0.02411,0.00246*
1,1,0.01292,0.02411,0.00246*
1,1,0.01292,0.02411,-0.00246*
%
%ADD81ROUNDEDRECTD81*%
G04:AMPARAMS|DCode=82|XSize=17.84mil|YSize=74.93mil|CornerRadius=6.46mil|HoleSize=0mil|Usage=FLASHONLY|Rotation=270.000|XOffset=0mil|YOffset=0mil|HoleType=Round|Shape=RoundedRectangle|*
%AMROUNDEDRECTD82*
21,1,0.01784,0.06201,0,0,270.0*
21,1,0.00492,0.07493,0,0,270.0*
1,1,0.01292,-0.03100,-0.00246*
1,1,0.01292,-0.03100,0.00246*
1,1,0.01292,0.03100,0.00246*
1,1,0.01292,0.03100,-0.00246*
%
%ADD82ROUNDEDRECTD82*%
G04:AMPARAMS|DCode=83|XSize=17.84mil|YSize=35.56mil|CornerRadius=6.46mil|HoleSize=0mil|Usage=FLASHONLY|Rotation=270.000|XOffset=0mil|YOffset=0mil|HoleType=Round|Shape=RoundedRectangle|*
%AMROUNDEDRECTD83*
21,1,0.01784,0.02264,0,0,270.0*
21,1,0.00492,0.03556,0,0,270.0*
1,1,0.01292,-0.01132,-0.00246*
1,1,0.01292,-0.01132,0.00246*
1,1,0.01292,0.01132,0.00246*
1,1,0.01292,0.01132,-0.00246*
%
%ADD83ROUNDEDRECTD83*%
%ADD84R,0.02769X0.06312*%
%ADD85R,0.05131X0.08280*%
%ADD86R,0.01968X0.05906*%
%ADD87R,0.06902X0.08280*%
%ADD88R,0.05524X0.06312*%
%ADD89R,0.09304X0.07808*%
%ADD90R,0.06902X0.14383*%
%ADD91R,0.04343X0.04737*%
%ADD92R,0.03162X0.03320*%
%ADD93R,0.03320X0.03162*%
%ADD94R,0.07493X0.02769*%
%ADD95R,0.02769X0.07493*%
G04:AMPARAMS|DCode=96|XSize=67.06mil|YSize=67.06mil|CornerRadius=9.91mil|HoleSize=0mil|Usage=FLASHONLY|Rotation=180.000|XOffset=0mil|YOffset=0mil|HoleType=Round|Shape=RoundedRectangle|*
%AMROUNDEDRECTD96*
21,1,0.06706,0.04724,0,0,180.0*
21,1,0.04724,0.06706,0,0,180.0*
1,1,0.01981,-0.02362,0.02362*
1,1,0.01981,0.02362,0.02362*
1,1,0.01981,0.02362,-0.02362*
1,1,0.01981,-0.02362,-0.02362*
%
%ADD96ROUNDEDRECTD96*%
%ADD97R,0.06706X0.06706*%
%ADD98C,0.06706*%
%ADD99P,0.08537X8X112.5*%
%ADD100R,0.06706X0.06706*%
%ADD101R,0.00800X0.00800*%
%ADD102O,0.04737X0.07099*%
%ADD103C,0.24422*%
D59*
X0256555Y0177787D02*
D03*
Y0183693D02*
D03*
X0250827Y0193398D02*
D03*
Y0199303D02*
D03*
X0317441Y0151705D02*
D03*
Y0157610D02*
D03*
X0309173Y0155248D02*
D03*
Y0161153D02*
D03*
X0161890Y0126469D02*
D03*
Y0132374D02*
D03*
X0179114Y0132512D02*
D03*
Y0126606D02*
D03*
X0186063Y0132453D02*
D03*
Y0126547D02*
D03*
X0256555Y0166291D02*
D03*
Y0172197D02*
D03*
D60*
X0250295Y0134067D02*
D03*
Y0130327D02*
D03*
Y0126587D02*
D03*
X0239469D02*
D03*
X0239469Y0130327D02*
D03*
X0239469Y0134067D02*
D03*
D61*
X0212402Y0155150D02*
D03*
X0204921D02*
D03*
Y0165976D02*
D03*
X0208661D02*
D03*
X0212402D02*
D03*
D62*
X0205709Y0149146D02*
D03*
X0211614D02*
D03*
X0192224Y0146409D02*
D03*
X0198130D02*
D03*
X0192244Y0140917D02*
D03*
X0198150D02*
D03*
X0192244Y0151902D02*
D03*
X0198150D02*
D03*
X0345394Y0157807D02*
D03*
X0339094D02*
D03*
X0279842Y0183791D02*
D03*
X0285748D02*
D03*
D63*
X0225374Y0192020D02*
D03*
Y0199500D02*
D03*
X0236201D02*
D03*
Y0195760D02*
D03*
Y0192020D02*
D03*
D64*
X0274606Y0142413D02*
D03*
X0280512D02*
D03*
X0279842Y0162531D02*
D03*
X0285748D02*
D03*
X0345590Y0171980D02*
D03*
X0339685D02*
D03*
X0339685Y0165287D02*
D03*
X0345591D02*
D03*
X0285748Y0169224D02*
D03*
X0279842D02*
D03*
X0285748Y0177098D02*
D03*
X0279842D02*
D03*
X0276299Y0149146D02*
D03*
X0282205D02*
D03*
X0192244Y0163791D02*
D03*
X0198150Y0163791D02*
D03*
X0192244Y0157807D02*
D03*
X0198150D02*
D03*
X0228701Y0140602D02*
D03*
X0222795D02*
D03*
X0233780D02*
D03*
X0239685D02*
D03*
X0285748Y0197177D02*
D03*
X0279842D02*
D03*
X0285748Y0190484D02*
D03*
X0279842D02*
D03*
D65*
X0111122Y0189272D02*
D03*
X0122736D02*
D03*
D66*
X0116929Y0183366D02*
D03*
D67*
X0231457Y0185484D02*
D03*
Y0179579D02*
D03*
X0200236Y0132689D02*
D03*
Y0126784D02*
D03*
X0331221Y0191075D02*
D03*
Y0196980D02*
D03*
X0324528Y0196980D02*
D03*
Y0191075D02*
D03*
X0317835Y0191075D02*
D03*
Y0196980D02*
D03*
X0311142Y0191075D02*
D03*
Y0196980D02*
D03*
X0337520Y0191075D02*
D03*
Y0196980D02*
D03*
Y0178870D02*
D03*
Y0184776D02*
D03*
X0346575Y0144224D02*
D03*
Y0138319D02*
D03*
X0231535Y0131587D02*
D03*
Y0125681D02*
D03*
X0224685Y0125760D02*
D03*
Y0131665D02*
D03*
X0153740Y0193516D02*
D03*
Y0199421D02*
D03*
X0243701Y0193240D02*
D03*
Y0199146D02*
D03*
X0146968Y0199421D02*
D03*
Y0193516D02*
D03*
X0140197Y0199421D02*
D03*
Y0193516D02*
D03*
X0133425Y0199461D02*
D03*
Y0193555D02*
D03*
X0192992Y0132650D02*
D03*
Y0126744D02*
D03*
X0169882Y0126665D02*
D03*
Y0132571D02*
D03*
X0225315Y0185484D02*
D03*
Y0179579D02*
D03*
X0216142Y0179657D02*
D03*
Y0185563D02*
D03*
X0224567Y0163279D02*
D03*
Y0157374D02*
D03*
X0216929Y0199067D02*
D03*
Y0193161D02*
D03*
X0204882Y0193161D02*
D03*
Y0199067D02*
D03*
X0210906Y0199067D02*
D03*
Y0193161D02*
D03*
D68*
X0301299Y0155445D02*
D03*
X0292638Y0151705D02*
D03*
Y0159185D02*
D03*
D69*
X0298150Y0181035D02*
D03*
Y0167650D02*
D03*
X0244252Y0181272D02*
D03*
Y0167886D02*
D03*
D70*
X0303268Y0189500D02*
D03*
Y0196980D02*
D03*
X0294213Y0189500D02*
D03*
Y0196980D02*
D03*
X0325315Y0159185D02*
D03*
Y0151705D02*
D03*
D71*
X0270748Y0188909D02*
D03*
X0263268D02*
D03*
X0270669Y0196941D02*
D03*
X0263189D02*
D03*
X0247323Y0158634D02*
D03*
X0254803D02*
D03*
X0247284Y0150563D02*
D03*
X0254764D02*
D03*
X0247205Y0142492D02*
D03*
X0254685D02*
D03*
X0224764Y0172492D02*
D03*
X0217284D02*
D03*
D72*
X0328169Y0170209D02*
D03*
Y0172177D02*
D03*
Y0174146D02*
D03*
Y0176114D02*
D03*
Y0178083D02*
D03*
Y0180051D02*
D03*
X0313012D02*
D03*
Y0178083D02*
D03*
Y0176114D02*
D03*
Y0174146D02*
D03*
Y0172177D02*
D03*
Y0170209D02*
D03*
D73*
X0325512Y0182709D02*
D03*
X0323543D02*
D03*
X0321575D02*
D03*
X0319606D02*
D03*
X0317638D02*
D03*
X0315669D02*
D03*
Y0167551D02*
D03*
X0317638D02*
D03*
X0319606D02*
D03*
X0321575D02*
D03*
X0323543D02*
D03*
X0325512D02*
D03*
D74*
X0320591Y0175130D02*
D03*
D75*
X0326693Y0138516D02*
D03*
X0340472D02*
D03*
D76*
X0303169Y0138516D02*
D03*
X0319902D02*
D03*
D77*
X0292638Y0126606D02*
D03*
Y0143339D02*
D03*
D78*
X0276299Y0155839D02*
D03*
X0286142D02*
D03*
D79*
X0271073Y0172453D02*
D03*
Y0174421D02*
D03*
Y0176390D02*
D03*
Y0178358D02*
D03*
D80*
X0269498Y0181705D02*
D03*
X0267530D02*
D03*
X0265561D02*
D03*
X0263593D02*
D03*
Y0169106D02*
D03*
X0265561D02*
D03*
X0267530D02*
D03*
X0269498D02*
D03*
D81*
X0263494Y0177374D02*
D03*
Y0173437D02*
D03*
D82*
X0264183Y0175406D02*
D03*
D83*
X0264577Y0169795D02*
D03*
Y0181016D02*
D03*
D84*
X0197973Y0188909D02*
D03*
X0195413D02*
D03*
X0192854D02*
D03*
X0190295D02*
D03*
X0197973Y0171193D02*
D03*
X0195413D02*
D03*
X0192854D02*
D03*
X0190295D02*
D03*
D85*
X0198189Y0197177D02*
D03*
X0188347D02*
D03*
D86*
X0317520Y0127039D02*
D03*
X0320079D02*
D03*
X0325197D02*
D03*
X0322638D02*
D03*
X0314961D02*
D03*
D87*
X0324114Y0115819D02*
D03*
X0316043D02*
D03*
D88*
X0332677Y0126154D02*
D03*
X0307480D02*
D03*
D89*
X0265787Y0143437D02*
D03*
Y0159185D02*
D03*
D90*
X0276378Y0130642D02*
D03*
X0260630D02*
D03*
D91*
X0154764Y0132138D02*
D03*
X0138622D02*
D03*
Y0125839D02*
D03*
X0154764D02*
D03*
D92*
X0118740Y0177216D02*
D03*
X0122520D02*
D03*
D93*
X0126732Y0177335D02*
D03*
Y0173555D02*
D03*
X0114724Y0177335D02*
D03*
Y0173555D02*
D03*
D94*
X0180197Y0145858D02*
D03*
Y0149008D02*
D03*
Y0152197D02*
D03*
Y0155347D02*
D03*
Y0158496D02*
D03*
Y0161646D02*
D03*
Y0164756D02*
D03*
Y0167945D02*
D03*
Y0171095D02*
D03*
Y0174205D02*
D03*
Y0177394D02*
D03*
Y0180504D02*
D03*
X0133732Y0180524D02*
D03*
Y0177370D02*
D03*
X0133732Y0174213D02*
D03*
X0133732Y0171075D02*
D03*
X0133732Y0167925D02*
D03*
X0133732Y0164776D02*
D03*
X0133740Y0161646D02*
D03*
Y0158457D02*
D03*
Y0155307D02*
D03*
Y0152197D02*
D03*
Y0149008D02*
D03*
Y0145858D02*
D03*
D95*
X0174291Y0184658D02*
D03*
X0171134D02*
D03*
X0167984D02*
D03*
X0164835Y0184658D02*
D03*
X0161685Y0184658D02*
D03*
X0158535Y0184658D02*
D03*
X0155386D02*
D03*
X0152236Y0184653D02*
D03*
X0149087Y0184653D02*
D03*
X0145937Y0184658D02*
D03*
X0142760D02*
D03*
X0139449Y0184658D02*
D03*
X0139606Y0141724D02*
D03*
X0142795D02*
D03*
X0145905D02*
D03*
X0149055D02*
D03*
X0152205D02*
D03*
X0155354D02*
D03*
X0158504D02*
D03*
X0161653D02*
D03*
X0164803D02*
D03*
X0167953D02*
D03*
X0171102D02*
D03*
X0174291D02*
D03*
D96*
X0166803Y0153358D02*
D03*
D97*
X0156961Y0153358D02*
D03*
X0147118Y0153358D02*
D03*
X0166803Y0163201D02*
D03*
X0156961D02*
D03*
X0147118D02*
D03*
X0166902Y0173043D02*
D03*
X0156961D02*
D03*
X0147118D02*
D03*
X0165551Y0116862D02*
D03*
X0285157D02*
D03*
X0273346D02*
D03*
X0251693D02*
D03*
X0140598Y0208095D02*
D03*
D98*
X0155551Y0116862D02*
D03*
X0145551D02*
D03*
X0357205Y0163673D02*
D03*
Y0173673D02*
D03*
Y0183673D02*
D03*
X0295158Y0116862D02*
D03*
X0263347D02*
D03*
X0181693D02*
D03*
X0191693D02*
D03*
X0201693D02*
D03*
X0211693D02*
D03*
X0221693D02*
D03*
X0231693D02*
D03*
X0241693D02*
D03*
X0140598Y0218094D02*
D03*
X0150599Y0208095D02*
D03*
Y0218094D02*
D03*
X0160599Y0208095D02*
D03*
Y0218094D02*
D03*
X0170598Y0208095D02*
D03*
Y0218094D02*
D03*
X0180598Y0208095D02*
D03*
Y0218094D02*
D03*
X0190598Y0208095D02*
D03*
Y0218094D02*
D03*
X0200599Y0208095D02*
D03*
Y0218094D02*
D03*
X0210598Y0208095D02*
D03*
Y0218094D02*
D03*
X0220599Y0208095D02*
D03*
Y0218094D02*
D03*
X0230598Y0208095D02*
D03*
Y0218094D02*
D03*
X0240599Y0208095D02*
D03*
Y0218094D02*
D03*
X0250599Y0208095D02*
D03*
Y0218094D02*
D03*
X0260598Y0208095D02*
D03*
Y0218094D02*
D03*
X0270599Y0208095D02*
D03*
Y0218094D02*
D03*
X0280598Y0208095D02*
D03*
Y0218094D02*
D03*
X0290599Y0208095D02*
D03*
Y0218094D02*
D03*
X0300599Y0208095D02*
D03*
Y0218094D02*
D03*
X0310598Y0208095D02*
D03*
Y0218094D02*
D03*
X0320599Y0208095D02*
D03*
Y0218094D02*
D03*
X0330598Y0208095D02*
D03*
Y0218094D02*
D03*
D99*
X0207953Y0141705D02*
D03*
Y0184224D02*
D03*
D100*
X0357205Y0153673D02*
D03*
D101*
X0328039Y0125073D02*
D03*
X0312094D02*
D03*
D102*
X0331398Y0116608D02*
D03*
X0308760D02*
D03*
D103*
X0121378Y0122374D02*
D03*
Y0212925D02*
D03*
X0349724D02*
D03*
Y0122374D02*
D03*
M02*
