G04*
G04 #@! TF.GenerationSoftware,Altium Limited,Altium Designer,18.1.9 (240)*
G04*
G04 Layer_Physical_Order=2*
G04 Layer_Color=16711680*
%FSAX25Y25*%
%MOIN*%
G70*
G01*
G75*
%ADD12C,0.02362*%
%ADD13C,0.01000*%
%ADD24R,0.04134X0.08661*%
%ADD25R,0.03937X0.03937*%
%ADD56R,0.05906X0.05906*%
%ADD105C,0.00800*%
%ADD106C,0.03150*%
%ADD108C,0.02000*%
%ADD109C,0.02756*%
%ADD110C,0.01500*%
%ADD111C,0.02300*%
%ADD124C,0.05906*%
%ADD125P,0.07671X8X112.5*%
%ADD126R,0.05906X0.05906*%
%ADD127O,0.03937X0.06299*%
%ADD128C,0.23622*%
%ADD129C,0.01968*%
%ADD130R,0.02756X0.03937*%
%ADD131R,0.02756X0.05906*%
%ADD132R,0.05906X0.02756*%
%ADD133R,0.03937X0.02756*%
%ADD134C,0.02800*%
%ADD135R,0.02756X0.03912*%
G36*
X0351693Y0226138D02*
Y0226138D01*
X0353452Y0225999D01*
X0355168Y0225587D01*
X0356798Y0224912D01*
X0358302Y0223990D01*
X0359644Y0222844D01*
X0360789Y0221503D01*
X0361711Y0219998D01*
X0362387Y0218368D01*
X0362799Y0216653D01*
X0362937Y0214894D01*
X0362938D01*
Y0184949D01*
X0362839Y0184868D01*
X0362171Y0184967D01*
X0362124Y0185038D01*
X0362020Y0185142D01*
X0361490Y0185495D01*
X0360866Y0185619D01*
X0360242Y0185495D01*
X0359713Y0185142D01*
X0359359Y0184613D01*
X0359235Y0183988D01*
X0359339Y0183466D01*
Y0165541D01*
X0358839Y0165372D01*
X0358439Y0165892D01*
X0357697Y0166462D01*
X0356833Y0166820D01*
X0355906Y0166942D01*
X0354978Y0166820D01*
X0354242Y0166515D01*
X0353896Y0166897D01*
X0353933Y0166953D01*
X0354056Y0167571D01*
X0353933Y0168189D01*
X0353583Y0168713D01*
X0353059Y0169063D01*
X0352441Y0169186D01*
X0351823Y0169063D01*
X0351299Y0168713D01*
X0350949Y0168189D01*
X0350826Y0167571D01*
X0350854Y0167426D01*
X0350696Y0167268D01*
X0350475Y0166937D01*
X0350398Y0166547D01*
Y0156508D01*
X0350475Y0156118D01*
X0350696Y0155787D01*
X0352415Y0154068D01*
X0352322Y0153358D01*
X0352444Y0152431D01*
X0352802Y0151567D01*
X0353372Y0150824D01*
X0354114Y0150255D01*
X0354978Y0149897D01*
X0355906Y0149775D01*
X0356833Y0149897D01*
X0357697Y0150255D01*
X0358439Y0150824D01*
X0358839Y0151345D01*
X0359339Y0151175D01*
Y0145541D01*
X0358839Y0145372D01*
X0358439Y0145892D01*
X0357697Y0146462D01*
X0356833Y0146820D01*
X0355906Y0146942D01*
X0354978Y0146820D01*
X0354114Y0146462D01*
X0353372Y0145892D01*
X0352802Y0145150D01*
X0352444Y0144286D01*
X0352322Y0143358D01*
X0352444Y0142431D01*
X0352563Y0142143D01*
X0352229Y0141643D01*
X0341345D01*
X0341287Y0142141D01*
X0341811Y0142492D01*
X0342162Y0143016D01*
X0342285Y0143634D01*
X0342162Y0144252D01*
X0341811Y0144776D01*
X0341287Y0145126D01*
X0340669Y0145249D01*
X0340051Y0145126D01*
X0339527Y0144776D01*
X0339177Y0144252D01*
X0339054Y0143634D01*
X0339083Y0143489D01*
X0338625Y0143031D01*
X0326336D01*
X0324146Y0145221D01*
X0324174Y0145366D01*
X0324051Y0145984D01*
X0323701Y0146508D01*
X0323177Y0146859D01*
X0322559Y0146981D01*
X0321941Y0146859D01*
X0321417Y0146508D01*
X0321067Y0145984D01*
X0320944Y0145366D01*
X0320997Y0145100D01*
X0320536Y0144854D01*
X0317529Y0147861D01*
X0317720Y0148323D01*
X0340626D01*
X0340708Y0148200D01*
X0341232Y0147850D01*
X0341850Y0147727D01*
X0342469Y0147850D01*
X0342993Y0148200D01*
X0343343Y0148724D01*
X0343466Y0149343D01*
X0343343Y0149961D01*
X0342993Y0150485D01*
X0342469Y0150835D01*
X0342346Y0150859D01*
Y0151369D01*
X0342469Y0151393D01*
X0342993Y0151744D01*
X0343343Y0152268D01*
X0343466Y0152886D01*
X0343343Y0153504D01*
X0342993Y0154028D01*
X0342469Y0154378D01*
X0341850Y0154501D01*
X0341232Y0154378D01*
X0340708Y0154028D01*
X0340358Y0153504D01*
X0340235Y0152886D01*
X0340264Y0152741D01*
X0339285Y0151762D01*
X0328059D01*
X0327868Y0152224D01*
X0354898Y0179254D01*
X0355434Y0179110D01*
X0355446Y0179095D01*
X0355621Y0178833D01*
X0355589Y0178673D01*
X0355712Y0178055D01*
X0356063Y0177531D01*
X0356587Y0177181D01*
X0357205Y0177058D01*
X0357823Y0177181D01*
X0358347Y0177531D01*
X0358697Y0178055D01*
X0358820Y0178673D01*
X0358697Y0179291D01*
X0358347Y0179815D01*
X0357823Y0180166D01*
X0357398Y0180250D01*
Y0191075D01*
X0357320Y0191465D01*
X0357099Y0191796D01*
X0353556Y0195339D01*
X0353225Y0195560D01*
X0352835Y0195638D01*
X0329044D01*
X0326059Y0198623D01*
Y0199181D01*
X0326182Y0199263D01*
X0326532Y0199787D01*
X0326655Y0200406D01*
X0326532Y0201024D01*
X0326182Y0201548D01*
X0325658Y0201898D01*
X0325039Y0202021D01*
X0324421Y0201898D01*
X0323897Y0201548D01*
X0323740Y0201312D01*
X0323557Y0201295D01*
X0323174Y0201365D01*
X0322886Y0201795D01*
X0320666Y0204016D01*
X0320685Y0204234D01*
X0320807Y0204539D01*
X0321526Y0204633D01*
X0322390Y0204991D01*
X0323132Y0205561D01*
X0323702Y0206303D01*
X0324060Y0207167D01*
X0324182Y0208095D01*
X0324060Y0209022D01*
X0323702Y0209886D01*
X0323132Y0210628D01*
X0322390Y0211198D01*
X0321526Y0211556D01*
X0320599Y0211678D01*
X0319671Y0211556D01*
X0318807Y0211198D01*
X0318065Y0210628D01*
X0317495Y0209886D01*
X0317137Y0209022D01*
X0317015Y0208095D01*
X0317137Y0207167D01*
X0317495Y0206303D01*
X0318065Y0205561D01*
X0318740Y0205042D01*
X0318719Y0204799D01*
X0318602Y0204542D01*
X0315537D01*
X0314913Y0204418D01*
X0314384Y0204065D01*
X0289634Y0179315D01*
X0288497Y0178179D01*
X0270945D01*
X0270321Y0178054D01*
X0269791Y0177701D01*
X0259634Y0167543D01*
X0259280Y0167014D01*
X0259156Y0166390D01*
Y0164854D01*
X0259280Y0164230D01*
X0259310Y0164186D01*
X0259043Y0163686D01*
X0254331D01*
X0253482Y0163517D01*
X0252763Y0163037D01*
X0252282Y0162317D01*
X0252113Y0161469D01*
X0252282Y0160620D01*
X0252763Y0159901D01*
X0253304Y0159539D01*
X0253415Y0159017D01*
X0253400Y0158926D01*
X0253399Y0158926D01*
X0252795Y0158895D01*
X0232144Y0179546D01*
Y0185950D01*
X0233123Y0186929D01*
X0233268Y0186900D01*
X0233886Y0187023D01*
X0234410Y0187374D01*
X0234760Y0187898D01*
X0234883Y0188516D01*
X0234760Y0189134D01*
X0234410Y0189658D01*
X0233886Y0190008D01*
X0233268Y0190131D01*
X0232650Y0190008D01*
X0232125Y0189658D01*
X0231775Y0189134D01*
X0231731Y0188913D01*
X0231222D01*
X0231217Y0188937D01*
X0230867Y0189461D01*
X0230715Y0189562D01*
X0230666Y0189807D01*
X0230445Y0190137D01*
X0228292Y0192290D01*
X0228102Y0192417D01*
X0226755Y0193764D01*
X0226425Y0193985D01*
X0226034Y0194063D01*
X0216598D01*
X0210479Y0200182D01*
X0210149Y0200403D01*
X0209758Y0200480D01*
X0177156D01*
X0177048Y0200642D01*
X0176524Y0200992D01*
X0175906Y0201115D01*
X0175287Y0200992D01*
X0174763Y0200642D01*
X0174413Y0200118D01*
X0174290Y0199500D01*
X0174387Y0199014D01*
X0174103Y0198514D01*
X0172110D01*
X0171843Y0199014D01*
X0172044Y0199315D01*
X0172167Y0199933D01*
X0172044Y0200551D01*
X0171693Y0201075D01*
X0171169Y0201425D01*
X0170551Y0201548D01*
X0170407Y0201520D01*
X0168949Y0202977D01*
X0168619Y0203198D01*
X0168228Y0203275D01*
X0159137D01*
X0159056Y0203398D01*
X0158531Y0203748D01*
X0157913Y0203871D01*
X0157295Y0203748D01*
X0156771Y0203398D01*
X0156421Y0202874D01*
X0156298Y0202256D01*
X0156421Y0201638D01*
X0156771Y0201114D01*
X0157295Y0200764D01*
X0157913Y0200641D01*
X0158531Y0200764D01*
X0159056Y0201114D01*
X0159137Y0201236D01*
X0167806D01*
X0168965Y0200078D01*
X0168936Y0199933D01*
X0169059Y0199315D01*
X0169260Y0199014D01*
X0168992Y0198514D01*
X0157657D01*
X0155117Y0201054D01*
Y0201976D01*
X0155233Y0202150D01*
X0155355Y0202768D01*
X0155233Y0203386D01*
X0154882Y0203910D01*
X0154358Y0204260D01*
X0153740Y0204383D01*
X0153122Y0204260D01*
X0152598Y0203910D01*
X0152248Y0203386D01*
X0152125Y0202768D01*
X0152248Y0202150D01*
X0152364Y0201976D01*
Y0200484D01*
X0152469Y0199958D01*
X0152767Y0199511D01*
X0156113Y0196165D01*
X0156560Y0195866D01*
X0157087Y0195761D01*
X0209036D01*
X0215002Y0189796D01*
Y0187142D01*
X0214886Y0186969D01*
X0214763Y0186350D01*
X0214886Y0185732D01*
X0215236Y0185208D01*
X0215760Y0184858D01*
X0216378Y0184735D01*
X0216996Y0184858D01*
X0217520Y0185208D01*
X0217870Y0185732D01*
X0217993Y0186350D01*
X0217870Y0186969D01*
X0217754Y0187142D01*
Y0190366D01*
X0217650Y0190893D01*
X0217351Y0191340D01*
X0217129Y0191562D01*
X0217320Y0192024D01*
X0225126D01*
X0225278Y0191524D01*
X0224960Y0191312D01*
X0224610Y0190787D01*
X0224487Y0190169D01*
X0224610Y0189551D01*
X0224960Y0189027D01*
X0225484Y0188677D01*
X0226102Y0188554D01*
X0226221Y0188577D01*
X0226721Y0188167D01*
Y0180024D01*
X0210810D01*
X0210603Y0180524D01*
X0212192Y0182112D01*
X0212382Y0182571D01*
Y0186114D01*
X0212192Y0186573D01*
X0211638Y0187127D01*
X0211803Y0187669D01*
X0212245Y0187964D01*
X0212595Y0188488D01*
X0212718Y0189106D01*
X0212595Y0189724D01*
X0212245Y0190249D01*
X0211720Y0190599D01*
X0211102Y0190722D01*
X0210484Y0190599D01*
X0209960Y0190249D01*
X0209878Y0190126D01*
X0205035D01*
X0204768Y0190626D01*
X0204839Y0190732D01*
X0204962Y0191350D01*
X0204839Y0191969D01*
X0204489Y0192493D01*
X0203965Y0192843D01*
X0203346Y0192966D01*
X0202728Y0192843D01*
X0202204Y0192493D01*
X0202122Y0192370D01*
X0176434D01*
X0176221Y0192689D01*
X0175697Y0193040D01*
X0175079Y0193163D01*
X0174461Y0193040D01*
X0173937Y0192689D01*
X0173586Y0192165D01*
X0173463Y0191547D01*
X0173586Y0190929D01*
X0173937Y0190405D01*
X0174461Y0190055D01*
X0175079Y0189932D01*
X0175697Y0190055D01*
X0176110Y0190331D01*
X0180589D01*
X0180741Y0189831D01*
X0180736Y0189827D01*
X0173846Y0182938D01*
X0173625Y0182607D01*
X0173547Y0182217D01*
Y0180212D01*
X0173425Y0180130D01*
X0173075Y0179606D01*
X0172952Y0178988D01*
X0173038Y0178557D01*
X0172679Y0178178D01*
X0172645Y0178162D01*
X0172244Y0178241D01*
X0171626Y0178118D01*
X0171102Y0177768D01*
X0170752Y0177244D01*
X0170629Y0176626D01*
X0170752Y0176008D01*
X0170981Y0175665D01*
X0170747Y0175165D01*
X0165040D01*
X0152195Y0188010D01*
X0152360Y0188553D01*
X0152390Y0188559D01*
X0152914Y0188909D01*
X0153264Y0189433D01*
X0153387Y0190051D01*
X0153264Y0190669D01*
X0152914Y0191193D01*
X0152390Y0191543D01*
X0151772Y0191666D01*
X0151627Y0191638D01*
X0146846Y0196418D01*
Y0206562D01*
X0147346Y0206662D01*
X0147495Y0206303D01*
X0148065Y0205561D01*
X0148807Y0204991D01*
X0149671Y0204633D01*
X0150599Y0204511D01*
X0151526Y0204633D01*
X0152390Y0204991D01*
X0153132Y0205561D01*
X0153702Y0206303D01*
X0154060Y0207167D01*
X0154182Y0208095D01*
X0154060Y0209022D01*
X0153702Y0209886D01*
X0153132Y0210628D01*
X0152390Y0211198D01*
X0151698Y0211484D01*
X0151798Y0211984D01*
X0159399D01*
X0159499Y0211484D01*
X0158807Y0211198D01*
X0158065Y0210628D01*
X0157495Y0209886D01*
X0157137Y0209022D01*
X0157015Y0208095D01*
X0157137Y0207167D01*
X0157495Y0206303D01*
X0158065Y0205561D01*
X0158807Y0204991D01*
X0159671Y0204633D01*
X0160599Y0204511D01*
X0161526Y0204633D01*
X0162390Y0204991D01*
X0163132Y0205561D01*
X0163702Y0206303D01*
X0164060Y0207167D01*
X0164182Y0208095D01*
X0164060Y0209022D01*
X0163702Y0209886D01*
X0163132Y0210628D01*
X0162390Y0211198D01*
X0161698Y0211484D01*
X0161798Y0211984D01*
X0169399D01*
X0169499Y0211484D01*
X0168807Y0211198D01*
X0168065Y0210628D01*
X0167495Y0209886D01*
X0167137Y0209022D01*
X0167015Y0208095D01*
X0167137Y0207167D01*
X0167495Y0206303D01*
X0168065Y0205561D01*
X0168807Y0204991D01*
X0169671Y0204633D01*
X0170598Y0204511D01*
X0171526Y0204633D01*
X0172390Y0204991D01*
X0173132Y0205561D01*
X0173702Y0206303D01*
X0174060Y0207167D01*
X0174182Y0208095D01*
X0174060Y0209022D01*
X0173702Y0209886D01*
X0173132Y0210628D01*
X0172390Y0211198D01*
X0171698Y0211484D01*
X0171798Y0211984D01*
X0189399D01*
X0189498Y0211484D01*
X0188807Y0211198D01*
X0188065Y0210628D01*
X0187495Y0209886D01*
X0187137Y0209022D01*
X0187015Y0208095D01*
X0187137Y0207167D01*
X0187495Y0206303D01*
X0188065Y0205561D01*
X0188807Y0204991D01*
X0189671Y0204633D01*
X0190598Y0204511D01*
X0191526Y0204633D01*
X0192390Y0204991D01*
X0193132Y0205561D01*
X0193702Y0206303D01*
X0194060Y0207167D01*
X0194182Y0208095D01*
X0194060Y0209022D01*
X0193702Y0209886D01*
X0193132Y0210628D01*
X0192390Y0211198D01*
X0191698Y0211484D01*
X0191798Y0211984D01*
X0199399D01*
X0199498Y0211484D01*
X0198807Y0211198D01*
X0198065Y0210628D01*
X0197495Y0209886D01*
X0197137Y0209022D01*
X0197015Y0208095D01*
X0197137Y0207167D01*
X0197495Y0206303D01*
X0198065Y0205561D01*
X0198807Y0204991D01*
X0199671Y0204633D01*
X0200599Y0204511D01*
X0201526Y0204633D01*
X0202390Y0204991D01*
X0203132Y0205561D01*
X0203702Y0206303D01*
X0204060Y0207167D01*
X0204182Y0208095D01*
X0204060Y0209022D01*
X0203702Y0209886D01*
X0203132Y0210628D01*
X0202390Y0211198D01*
X0201698Y0211484D01*
X0201798Y0211984D01*
X0209399D01*
X0209499Y0211484D01*
X0208807Y0211198D01*
X0208065Y0210628D01*
X0207495Y0209886D01*
X0207137Y0209022D01*
X0207015Y0208095D01*
X0207137Y0207167D01*
X0207495Y0206303D01*
X0208065Y0205561D01*
X0208807Y0204991D01*
X0209671Y0204633D01*
X0210598Y0204511D01*
X0211526Y0204633D01*
X0212390Y0204991D01*
X0213132Y0205561D01*
X0213702Y0206303D01*
X0214060Y0207167D01*
X0214182Y0208095D01*
X0214060Y0209022D01*
X0213702Y0209886D01*
X0213132Y0210628D01*
X0212390Y0211198D01*
X0211698Y0211484D01*
X0211798Y0211984D01*
X0219399D01*
X0219498Y0211484D01*
X0218807Y0211198D01*
X0218065Y0210628D01*
X0217495Y0209886D01*
X0217137Y0209022D01*
X0217015Y0208095D01*
X0217137Y0207167D01*
X0217495Y0206303D01*
X0218065Y0205561D01*
X0218807Y0204991D01*
X0219671Y0204633D01*
X0220599Y0204511D01*
X0221526Y0204633D01*
X0222390Y0204991D01*
X0223132Y0205561D01*
X0223702Y0206303D01*
X0224060Y0207167D01*
X0224182Y0208095D01*
X0224060Y0209022D01*
X0223702Y0209886D01*
X0223132Y0210628D01*
X0222390Y0211198D01*
X0221698Y0211484D01*
X0221798Y0211984D01*
X0229399D01*
X0229499Y0211484D01*
X0228807Y0211198D01*
X0228065Y0210628D01*
X0227495Y0209886D01*
X0227137Y0209022D01*
X0227015Y0208095D01*
X0227137Y0207167D01*
X0227495Y0206303D01*
X0228065Y0205561D01*
X0228807Y0204991D01*
X0229671Y0204633D01*
X0230598Y0204511D01*
X0231526Y0204633D01*
X0232390Y0204991D01*
X0233132Y0205561D01*
X0233702Y0206303D01*
X0233988Y0206995D01*
X0234488Y0206895D01*
Y0201433D01*
X0234504Y0201356D01*
X0234177Y0200866D01*
X0234054Y0200248D01*
X0234177Y0199630D01*
X0234527Y0199106D01*
X0235051Y0198756D01*
X0235669Y0198633D01*
X0236287Y0198756D01*
X0236811Y0199106D01*
X0237161Y0199630D01*
X0237284Y0200248D01*
X0237161Y0200866D01*
X0236811Y0201390D01*
X0236752Y0201430D01*
X0236729Y0201544D01*
X0236527Y0201846D01*
Y0207967D01*
X0237028Y0208000D01*
X0237137Y0207167D01*
X0237495Y0206303D01*
X0238065Y0205561D01*
X0238807Y0204991D01*
X0239671Y0204633D01*
X0240599Y0204511D01*
X0241526Y0204633D01*
X0242390Y0204991D01*
X0243012Y0205469D01*
X0243513Y0205295D01*
Y0201674D01*
X0243495Y0201587D01*
X0243649Y0200815D01*
X0244086Y0200161D01*
X0244740Y0199723D01*
X0245512Y0199570D01*
X0246284Y0199723D01*
X0246938Y0200161D01*
X0246955Y0200178D01*
X0247392Y0200832D01*
X0247546Y0201604D01*
Y0205459D01*
X0248019Y0205620D01*
X0248065Y0205561D01*
X0248807Y0204991D01*
X0249671Y0204633D01*
X0250599Y0204511D01*
X0251526Y0204633D01*
X0252390Y0204991D01*
X0253132Y0205561D01*
X0253702Y0206303D01*
X0254060Y0207167D01*
X0254182Y0208095D01*
X0254060Y0209022D01*
X0253702Y0209886D01*
X0253132Y0210628D01*
X0252390Y0211198D01*
X0251526Y0211556D01*
X0250599Y0211678D01*
X0249671Y0211556D01*
X0248807Y0211198D01*
X0248065Y0210628D01*
X0248019Y0210569D01*
X0247546Y0210730D01*
Y0215459D01*
X0248019Y0215620D01*
X0248065Y0215561D01*
X0248807Y0214991D01*
X0249671Y0214633D01*
X0250599Y0214511D01*
X0251526Y0214633D01*
X0252390Y0214991D01*
X0253132Y0215561D01*
X0253702Y0216303D01*
X0254060Y0217167D01*
X0254182Y0218094D01*
X0254060Y0219022D01*
X0253702Y0219886D01*
X0253132Y0220628D01*
X0252390Y0221198D01*
X0251526Y0221556D01*
X0250599Y0221678D01*
X0249671Y0221556D01*
X0248807Y0221198D01*
X0248065Y0220628D01*
X0248019Y0220569D01*
X0247546Y0220730D01*
Y0221482D01*
X0247684Y0222179D01*
X0247531Y0222951D01*
X0247094Y0223605D01*
X0245910Y0224788D01*
X0245256Y0225225D01*
X0244484Y0225379D01*
X0155866D01*
X0155094Y0225225D01*
X0154440Y0224788D01*
X0151245Y0221593D01*
X0150599Y0221678D01*
X0149671Y0221556D01*
X0148807Y0221198D01*
X0148065Y0220628D01*
X0147668Y0220111D01*
X0143529D01*
X0143132Y0220628D01*
X0142390Y0221198D01*
X0141526Y0221556D01*
X0140598Y0221678D01*
X0139671Y0221556D01*
X0138807Y0221198D01*
X0138065Y0220628D01*
X0137495Y0219886D01*
X0137137Y0219022D01*
X0137015Y0218094D01*
X0137137Y0217167D01*
X0137495Y0216303D01*
X0138065Y0215561D01*
X0138807Y0214991D01*
X0139671Y0214633D01*
X0140598Y0214511D01*
X0141526Y0214633D01*
X0142390Y0214991D01*
X0143132Y0215561D01*
X0143529Y0216078D01*
X0147668D01*
X0148065Y0215561D01*
X0148807Y0214991D01*
X0149671Y0214633D01*
X0150504Y0214524D01*
X0150471Y0214023D01*
X0147835D01*
X0147444Y0213946D01*
X0147114Y0213725D01*
X0145106Y0211717D01*
X0144885Y0211386D01*
X0144807Y0210996D01*
Y0195996D01*
X0144885Y0195606D01*
X0145106Y0195275D01*
X0146342Y0194039D01*
X0146291Y0193813D01*
X0146123Y0193551D01*
X0133228D01*
X0132838Y0193473D01*
X0132507Y0193253D01*
X0130815Y0191560D01*
X0130594Y0191229D01*
X0130553Y0191024D01*
X0130393Y0190918D01*
X0130043Y0190394D01*
X0129920Y0189776D01*
X0130043Y0189157D01*
X0130393Y0188633D01*
X0130494Y0188566D01*
X0130299Y0188095D01*
X0130157Y0188123D01*
X0129539Y0188000D01*
X0129015Y0187650D01*
X0128665Y0187126D01*
X0128542Y0186508D01*
X0128665Y0185890D01*
X0129015Y0185366D01*
X0129138Y0185284D01*
Y0184736D01*
X0129216Y0184346D01*
X0129437Y0184015D01*
X0132350Y0181102D01*
X0132681Y0180881D01*
X0133071Y0180803D01*
X0146299D01*
X0147973Y0179129D01*
Y0178252D01*
X0145236D01*
X0144777Y0178062D01*
X0144587Y0177602D01*
Y0171697D01*
X0144777Y0171238D01*
X0145236Y0171047D01*
X0147079D01*
X0147270Y0170586D01*
X0146737Y0170053D01*
X0146516Y0169722D01*
X0146439Y0169332D01*
Y0161633D01*
X0146113Y0161307D01*
X0142563D01*
X0142481Y0161430D01*
X0141957Y0161780D01*
X0141339Y0161903D01*
X0140720Y0161780D01*
X0140196Y0161430D01*
X0139846Y0160906D01*
X0139723Y0160287D01*
X0139846Y0159669D01*
X0140196Y0159145D01*
X0140720Y0158795D01*
X0141339Y0158672D01*
X0141957Y0158795D01*
X0142481Y0159145D01*
X0142563Y0159268D01*
X0146535D01*
X0146926Y0159345D01*
X0146997Y0159393D01*
X0147550Y0159174D01*
X0147572Y0159065D01*
X0144735Y0156228D01*
X0128984D01*
X0128571Y0156504D01*
X0127953Y0156627D01*
X0127335Y0156504D01*
X0126811Y0156154D01*
X0126460Y0155630D01*
X0126338Y0155012D01*
X0126460Y0154394D01*
X0126811Y0153870D01*
X0127335Y0153519D01*
X0127953Y0153396D01*
X0128571Y0153519D01*
X0129095Y0153870D01*
X0129308Y0154189D01*
X0145158D01*
X0145548Y0154267D01*
X0145878Y0154488D01*
X0149579Y0158188D01*
X0149738Y0158426D01*
X0150157Y0158252D01*
X0156063D01*
X0156522Y0158442D01*
X0156712Y0158902D01*
Y0159260D01*
X0156882D01*
X0157272Y0159337D01*
X0157603Y0159559D01*
X0158444Y0160400D01*
X0158906Y0160209D01*
Y0159730D01*
X0158503Y0159461D01*
X0158153Y0158937D01*
X0158030Y0158319D01*
X0158153Y0157701D01*
X0158503Y0157177D01*
X0159028Y0156827D01*
X0159646Y0156704D01*
X0160264Y0156827D01*
X0160788Y0157177D01*
X0161138Y0157701D01*
X0161261Y0158319D01*
X0161138Y0158937D01*
X0160946Y0159225D01*
Y0163177D01*
X0163178Y0165409D01*
X0163399Y0165740D01*
X0163476Y0166130D01*
Y0171270D01*
X0163932Y0171726D01*
X0184709D01*
X0184724Y0171704D01*
X0185248Y0171354D01*
X0185866Y0171231D01*
X0186484Y0171354D01*
X0187008Y0171704D01*
X0187090Y0171827D01*
X0187846D01*
X0188236Y0171905D01*
X0188567Y0172125D01*
X0191625Y0175184D01*
X0227598D01*
X0239314Y0163468D01*
X0239123Y0162952D01*
X0238559Y0162840D01*
X0237905Y0162403D01*
X0237577Y0161912D01*
X0237210Y0161787D01*
X0236972Y0161821D01*
X0236563Y0162095D01*
X0235945Y0162218D01*
X0235327Y0162095D01*
X0234803Y0161745D01*
X0234453Y0161221D01*
X0234330Y0160602D01*
X0234358Y0160458D01*
X0229987Y0156087D01*
X0228284D01*
X0227893Y0156009D01*
X0227562Y0155788D01*
X0225814Y0154039D01*
X0225669Y0154068D01*
X0225051Y0153945D01*
X0224527Y0153595D01*
X0224177Y0153071D01*
X0224054Y0152453D01*
X0224177Y0151835D01*
X0224332Y0151602D01*
X0224065Y0151102D01*
X0205981D01*
X0200921Y0156163D01*
X0200955Y0156506D01*
X0201944Y0157496D01*
X0201969Y0157491D01*
X0202587Y0157614D01*
X0203111Y0157964D01*
X0203461Y0158488D01*
X0203471Y0158539D01*
X0204013Y0158704D01*
X0206368Y0156350D01*
X0206614Y0155918D01*
X0206264Y0155394D01*
X0206141Y0154776D01*
X0206264Y0154157D01*
X0206614Y0153633D01*
X0207138Y0153283D01*
X0207756Y0153160D01*
X0208374Y0153283D01*
X0208898Y0153633D01*
X0209248Y0154157D01*
X0209371Y0154776D01*
X0209248Y0155394D01*
X0208898Y0155918D01*
X0208877Y0155931D01*
Y0156547D01*
X0208877Y0156547D01*
X0208792Y0156976D01*
X0208549Y0157340D01*
X0208549Y0157340D01*
X0203906Y0161984D01*
X0203542Y0162227D01*
X0203113Y0162312D01*
X0203113Y0162312D01*
X0169762D01*
X0169761Y0162312D01*
X0169332Y0162227D01*
X0168968Y0161984D01*
X0168968Y0161984D01*
X0158937Y0151952D01*
X0156712D01*
Y0152209D01*
X0156522Y0152668D01*
X0156063Y0152858D01*
X0150157D01*
X0149698Y0152668D01*
X0149508Y0152209D01*
Y0149453D01*
X0149698Y0148994D01*
X0150157Y0148803D01*
X0156063D01*
X0156522Y0148994D01*
X0156565Y0149097D01*
X0157144Y0149188D01*
X0157708Y0148525D01*
X0157732Y0148513D01*
X0157743Y0148487D01*
X0157795Y0148466D01*
X0162422Y0143839D01*
Y0138303D01*
X0161922Y0138151D01*
X0161679Y0138513D01*
X0158988Y0141205D01*
X0158459Y0141558D01*
X0157835Y0141683D01*
X0152977D01*
X0152353Y0141558D01*
X0151824Y0141205D01*
X0149142Y0138523D01*
X0148642Y0138730D01*
Y0144138D01*
X0148451Y0144597D01*
X0147992Y0144787D01*
X0145236D01*
X0144777Y0144597D01*
X0144587Y0144138D01*
Y0138232D01*
X0144777Y0137773D01*
X0145236Y0137583D01*
X0147495D01*
X0147702Y0137083D01*
X0146745Y0136126D01*
X0146391Y0135597D01*
X0146267Y0134972D01*
Y0132864D01*
X0145203D01*
X0139309Y0138758D01*
Y0141657D01*
X0139193Y0142239D01*
Y0144138D01*
X0139003Y0144597D01*
X0138543Y0144787D01*
X0135787D01*
X0135328Y0144597D01*
X0135138Y0144138D01*
Y0138306D01*
X0135121Y0138277D01*
X0134950Y0138231D01*
X0134468Y0138589D01*
Y0144138D01*
X0134278Y0144597D01*
X0134255Y0144714D01*
X0138060Y0148520D01*
X0145208D01*
X0146619Y0147108D01*
X0146736Y0146520D01*
X0147086Y0145996D01*
X0147610Y0145646D01*
X0148228Y0145523D01*
X0148846Y0145646D01*
X0149008Y0145754D01*
X0149508Y0145486D01*
Y0144728D01*
X0149698Y0144269D01*
X0150157Y0144079D01*
X0156063D01*
X0156522Y0144269D01*
X0156712Y0144728D01*
Y0147484D01*
X0156522Y0147943D01*
X0156063Y0148134D01*
X0150157D01*
X0149698Y0147943D01*
X0149602Y0147934D01*
X0149371Y0148280D01*
X0148846Y0148630D01*
X0148228Y0148753D01*
X0147919Y0148692D01*
X0146351Y0150260D01*
X0146020Y0150481D01*
X0145630Y0150559D01*
X0137638D01*
X0137248Y0150481D01*
X0136917Y0150260D01*
X0132035Y0145378D01*
X0131814Y0145048D01*
X0131762Y0144787D01*
X0131063D01*
X0130604Y0144597D01*
X0130414Y0144138D01*
Y0138232D01*
X0130587Y0137813D01*
X0130406Y0137318D01*
X0130079Y0137280D01*
X0129563Y0137796D01*
X0129744Y0138232D01*
Y0144138D01*
X0129554Y0144597D01*
X0129095Y0144787D01*
X0126339D01*
X0125879Y0144597D01*
X0125689Y0144138D01*
Y0138232D01*
X0125879Y0137773D01*
X0126339Y0137583D01*
X0127072D01*
X0127090Y0137496D01*
X0127311Y0137165D01*
X0128964Y0135511D01*
X0129295Y0135290D01*
X0129685Y0135213D01*
X0133658D01*
X0133740Y0135090D01*
X0134264Y0134740D01*
X0134882Y0134617D01*
X0135500Y0134740D01*
X0136024Y0135090D01*
X0136374Y0135614D01*
X0136497Y0136232D01*
X0136493Y0136252D01*
X0136954Y0136499D01*
X0143374Y0130079D01*
X0143903Y0129725D01*
X0144528Y0129601D01*
X0151614D01*
X0152239Y0129725D01*
X0152768Y0130079D01*
X0153121Y0130608D01*
X0153245Y0131232D01*
X0153121Y0131857D01*
X0152768Y0132386D01*
X0152239Y0132739D01*
X0151614Y0132864D01*
X0149530D01*
Y0134297D01*
X0150973Y0135740D01*
X0151516Y0135575D01*
X0151539Y0135457D01*
X0151889Y0134933D01*
X0152413Y0134582D01*
X0153032Y0134459D01*
X0153176Y0134488D01*
X0156106Y0131558D01*
Y0119892D01*
X0155334Y0119572D01*
X0154592Y0119002D01*
X0154023Y0118260D01*
X0153665Y0117396D01*
X0153543Y0116469D01*
X0153665Y0115541D01*
X0154023Y0114677D01*
X0154592Y0113935D01*
X0155334Y0113365D01*
X0156199Y0113007D01*
X0157126Y0112885D01*
X0158053Y0113007D01*
X0158918Y0113365D01*
X0159660Y0113935D01*
X0160229Y0114677D01*
X0160587Y0115541D01*
X0160709Y0116469D01*
X0160587Y0117396D01*
X0160229Y0118260D01*
X0159660Y0119002D01*
X0158918Y0119572D01*
X0158146Y0119892D01*
Y0123354D01*
X0158607Y0123545D01*
X0163524Y0118629D01*
Y0113516D01*
X0163714Y0113057D01*
X0164173Y0112866D01*
X0170079D01*
X0170538Y0113057D01*
X0170728Y0113516D01*
Y0119421D01*
X0170538Y0119880D01*
X0170079Y0120071D01*
X0164966D01*
X0159546Y0125491D01*
Y0130656D01*
X0160008Y0130847D01*
X0161012Y0129842D01*
X0161541Y0129489D01*
X0162165Y0129365D01*
X0167228D01*
X0167853Y0129489D01*
X0168382Y0129842D01*
X0170327Y0131787D01*
X0170504Y0132053D01*
X0170520Y0132059D01*
X0171082Y0132018D01*
X0171169Y0131889D01*
X0181366Y0121692D01*
X0181696Y0121471D01*
X0182087Y0121394D01*
X0193082D01*
X0195831Y0118645D01*
Y0114028D01*
X0195908Y0113637D01*
X0196129Y0113307D01*
X0196823Y0112613D01*
X0196632Y0112151D01*
X0180444D01*
X0175996Y0116600D01*
X0176025Y0116744D01*
X0175902Y0117362D01*
X0175552Y0117886D01*
X0175028Y0118236D01*
X0174409Y0118359D01*
X0173791Y0118236D01*
X0173267Y0117886D01*
X0172917Y0117362D01*
X0172794Y0116744D01*
X0172917Y0116126D01*
X0173267Y0115602D01*
X0173791Y0115252D01*
X0174409Y0115129D01*
X0174554Y0115158D01*
X0179301Y0110410D01*
X0179632Y0110189D01*
X0180022Y0110112D01*
X0256395D01*
X0256785Y0110189D01*
X0257116Y0110410D01*
X0258910Y0112204D01*
X0259131Y0112535D01*
X0259209Y0112925D01*
Y0118791D01*
X0262009Y0121591D01*
X0265905D01*
X0266296Y0121668D01*
X0266627Y0121889D01*
X0267296Y0122559D01*
X0267441Y0122530D01*
X0268059Y0122653D01*
X0268583Y0123003D01*
X0268933Y0123528D01*
X0269056Y0124146D01*
X0268933Y0124764D01*
X0268583Y0125288D01*
X0268059Y0125638D01*
X0267441Y0125761D01*
X0267184Y0126220D01*
X0267358Y0126480D01*
X0267481Y0127098D01*
X0267391Y0127551D01*
X0267690Y0128051D01*
X0317742D01*
X0318366Y0128175D01*
X0318895Y0128529D01*
X0326147Y0135781D01*
X0357872D01*
X0358497Y0135905D01*
X0359026Y0136258D01*
X0362124Y0139356D01*
X0362171Y0139427D01*
X0362839Y0139526D01*
X0362938Y0139444D01*
Y0120405D01*
X0362937D01*
X0362799Y0118647D01*
X0362387Y0116931D01*
X0361711Y0115301D01*
X0360789Y0113796D01*
X0359644Y0112455D01*
X0358302Y0111309D01*
X0356798Y0110387D01*
X0355168Y0109712D01*
X0353452Y0109300D01*
X0351693Y0109161D01*
Y0109161D01*
X0125157D01*
Y0110518D01*
X0125225Y0110534D01*
X0127030Y0111282D01*
X0128695Y0112302D01*
X0130181Y0113571D01*
X0131450Y0115056D01*
X0132471Y0116722D01*
X0133218Y0118527D01*
X0133674Y0120426D01*
X0133827Y0122374D01*
X0133674Y0124321D01*
X0133218Y0126221D01*
X0132471Y0128026D01*
X0131450Y0129692D01*
X0130181Y0131177D01*
X0128695Y0132446D01*
X0127030Y0133466D01*
X0125225Y0134214D01*
X0125157Y0134230D01*
Y0201069D01*
X0125225Y0201085D01*
X0127030Y0201833D01*
X0128695Y0202853D01*
X0130181Y0204122D01*
X0131450Y0205608D01*
X0132471Y0207273D01*
X0133218Y0209078D01*
X0133674Y0210978D01*
X0133827Y0212925D01*
X0133674Y0214873D01*
X0133218Y0216772D01*
X0132471Y0218577D01*
X0131450Y0220243D01*
X0130181Y0221728D01*
X0128695Y0222997D01*
X0127030Y0224018D01*
X0125225Y0224765D01*
X0125157Y0224781D01*
Y0226138D01*
X0351693Y0226138D01*
D02*
G37*
G36*
X0238348Y0220846D02*
X0238065Y0220628D01*
X0237495Y0219886D01*
X0237137Y0219022D01*
X0237015Y0218094D01*
X0237137Y0217167D01*
X0237457Y0216395D01*
X0235086Y0214023D01*
X0220726D01*
X0220693Y0214524D01*
X0221526Y0214633D01*
X0222390Y0214991D01*
X0223132Y0215561D01*
X0223702Y0216303D01*
X0224060Y0217167D01*
X0224182Y0218094D01*
X0224060Y0219022D01*
X0223702Y0219886D01*
X0223132Y0220628D01*
X0222849Y0220846D01*
X0223019Y0221345D01*
X0238178D01*
X0238348Y0220846D01*
D02*
G37*
G36*
X0208348D02*
X0208065Y0220628D01*
X0207495Y0219886D01*
X0207137Y0219022D01*
X0207015Y0218094D01*
X0207137Y0217167D01*
X0207495Y0216303D01*
X0208065Y0215561D01*
X0208807Y0214991D01*
X0209671Y0214633D01*
X0210504Y0214524D01*
X0210471Y0214023D01*
X0190726D01*
X0190693Y0214524D01*
X0191526Y0214633D01*
X0192390Y0214991D01*
X0193132Y0215561D01*
X0193702Y0216303D01*
X0194060Y0217167D01*
X0194182Y0218094D01*
X0194060Y0219022D01*
X0193702Y0219886D01*
X0193132Y0220628D01*
X0192849Y0220846D01*
X0193019Y0221345D01*
X0208178D01*
X0208348Y0220846D01*
D02*
G37*
G36*
X0168348D02*
X0168065Y0220628D01*
X0167495Y0219886D01*
X0167137Y0219022D01*
X0167015Y0218094D01*
X0167137Y0217167D01*
X0167495Y0216303D01*
X0168065Y0215561D01*
X0168807Y0214991D01*
X0169671Y0214633D01*
X0170504Y0214524D01*
X0170471Y0214023D01*
X0150726D01*
X0150693Y0214524D01*
X0151526Y0214633D01*
X0152390Y0214991D01*
X0153132Y0215561D01*
X0153702Y0216303D01*
X0154060Y0217167D01*
X0154182Y0218094D01*
X0154097Y0218741D01*
X0156702Y0221345D01*
X0168178D01*
X0168348Y0220846D01*
D02*
G37*
G36*
X0235118Y0211075D02*
X0233583Y0212610D01*
X0235118Y0212610D01*
X0235118Y0211075D01*
D02*
G37*
G36*
X0320101Y0199378D02*
Y0198437D01*
X0320225Y0197813D01*
X0320579Y0197283D01*
X0326445Y0191417D01*
X0326974Y0191064D01*
X0327598Y0190939D01*
X0351364D01*
X0351609Y0190439D01*
X0351258Y0189916D01*
X0351090Y0189067D01*
X0351258Y0188218D01*
X0351351Y0188080D01*
Y0185002D01*
X0350851Y0184702D01*
X0350394Y0184793D01*
X0349769Y0184669D01*
X0349240Y0184315D01*
X0323222Y0158297D01*
X0314969D01*
X0309860Y0163406D01*
Y0179185D01*
X0309735Y0179809D01*
X0309382Y0180339D01*
X0308853Y0180692D01*
X0308228Y0180816D01*
X0307604Y0180692D01*
X0307075Y0180339D01*
X0306721Y0179809D01*
X0306597Y0179185D01*
Y0163618D01*
X0306097Y0163351D01*
X0305849Y0163517D01*
X0305000Y0163686D01*
X0305000Y0163686D01*
X0262532D01*
X0262265Y0164186D01*
X0262295Y0164230D01*
X0262419Y0164854D01*
Y0165714D01*
X0271621Y0174916D01*
X0289173D01*
X0289797Y0175040D01*
X0290327Y0175394D01*
X0291941Y0177008D01*
X0313343Y0198409D01*
X0313803Y0198163D01*
X0313764Y0197965D01*
Y0167453D01*
X0313842Y0167063D01*
X0314062Y0166732D01*
X0318217Y0162578D01*
X0318188Y0162433D01*
X0318311Y0161815D01*
X0318661Y0161291D01*
X0319185Y0160941D01*
X0319803Y0160818D01*
X0320421Y0160941D01*
X0320945Y0161291D01*
X0321295Y0161815D01*
X0321418Y0162433D01*
X0321295Y0163051D01*
X0320945Y0163575D01*
X0320421Y0163925D01*
X0319803Y0164048D01*
X0319659Y0164020D01*
X0315803Y0167875D01*
Y0197542D01*
X0317302Y0199041D01*
X0317610Y0198834D01*
X0318228Y0198712D01*
X0318847Y0198834D01*
X0319371Y0199185D01*
X0319601Y0199529D01*
X0320101Y0199378D01*
D02*
G37*
G36*
X0205238Y0187625D02*
X0204187Y0186573D01*
X0203996Y0186114D01*
Y0182571D01*
X0204187Y0182112D01*
X0205775Y0180524D01*
X0205568Y0180024D01*
X0186186D01*
X0185795Y0179946D01*
X0185465Y0179725D01*
X0182362Y0176622D01*
X0173932D01*
X0173817Y0177103D01*
X0174132Y0177436D01*
X0174166Y0177453D01*
X0174567Y0177373D01*
X0175185Y0177496D01*
X0175709Y0177846D01*
X0176059Y0178370D01*
X0176182Y0178988D01*
X0176059Y0179606D01*
X0175709Y0180130D01*
X0175586Y0180212D01*
Y0181794D01*
X0181879Y0188087D01*
X0205047D01*
X0205238Y0187625D01*
D02*
G37*
G36*
X0163875Y0172588D02*
X0162457Y0171169D01*
X0162457Y0174007D01*
X0163875Y0172588D01*
D02*
G37*
G36*
X0158202Y0148946D02*
X0156598Y0150831D01*
X0160087Y0150831D01*
X0158202Y0148946D01*
D02*
G37*
G36*
X0309278Y0146189D02*
X0309807Y0145835D01*
X0310431Y0145711D01*
X0315064D01*
X0321917Y0138858D01*
X0322447Y0138505D01*
X0323071Y0138381D01*
X0323479D01*
X0323671Y0137918D01*
X0317066Y0131314D01*
X0307185D01*
Y0133595D01*
X0307185Y0133595D01*
Y0137157D01*
X0306995Y0137617D01*
X0306535Y0137807D01*
X0303780D01*
X0303320Y0137617D01*
X0303130Y0137157D01*
Y0133595D01*
Y0131314D01*
X0263850D01*
X0263226Y0131190D01*
X0262697Y0130836D01*
X0252325Y0120464D01*
X0248740D01*
X0248281Y0120274D01*
X0248091Y0119815D01*
Y0113909D01*
X0247851Y0113551D01*
X0244035D01*
X0243865Y0114051D01*
X0244227Y0114328D01*
X0244796Y0115070D01*
X0245154Y0115935D01*
X0245276Y0116862D01*
X0245154Y0117790D01*
X0244796Y0118654D01*
X0244227Y0119396D01*
X0243485Y0119966D01*
X0242620Y0120324D01*
X0242218Y0120377D01*
X0235366Y0127228D01*
X0235364Y0127230D01*
X0235362Y0127232D01*
X0235099Y0127407D01*
X0234837Y0127582D01*
X0234834Y0127583D01*
X0234832Y0127584D01*
X0234523Y0127645D01*
X0234213Y0127706D01*
X0234210Y0127706D01*
X0234207Y0127706D01*
X0225343Y0127676D01*
X0222686D01*
X0222640Y0127667D01*
X0222507D01*
X0220293Y0129758D01*
Y0139461D01*
X0220169Y0140085D01*
X0220136Y0140133D01*
X0220404Y0140633D01*
X0226603D01*
X0226873Y0140133D01*
X0226770Y0139618D01*
X0226893Y0139000D01*
X0227244Y0138476D01*
X0227768Y0138126D01*
X0228386Y0138003D01*
X0228410Y0138008D01*
X0236294Y0130124D01*
X0236294Y0130124D01*
X0236657Y0129881D01*
X0237087Y0129796D01*
X0237087Y0129796D01*
X0248898D01*
X0248898Y0129796D01*
X0249327Y0129881D01*
X0249691Y0130124D01*
X0252606Y0133040D01*
X0252816Y0132976D01*
X0253113Y0132840D01*
X0253425Y0132374D01*
X0253948Y0132024D01*
X0254567Y0131901D01*
X0255153Y0132017D01*
X0255183Y0131995D01*
X0255353Y0131510D01*
X0252518Y0128675D01*
X0252131Y0128096D01*
X0251995Y0127413D01*
X0252131Y0126731D01*
X0252518Y0126152D01*
X0253097Y0125765D01*
X0253780Y0125629D01*
X0254462Y0125765D01*
X0255041Y0126152D01*
X0262294Y0133405D01*
X0295650D01*
Y0133221D01*
X0295840Y0132761D01*
X0296299Y0132571D01*
X0299055D01*
X0299514Y0132761D01*
X0299705Y0133221D01*
Y0137157D01*
X0299514Y0137617D01*
X0299055Y0137807D01*
X0296781D01*
X0296574Y0138307D01*
X0299205Y0140937D01*
X0304134D01*
X0304134Y0140937D01*
X0304563Y0141023D01*
X0304927Y0141266D01*
X0305950Y0142290D01*
X0305950Y0142290D01*
X0306194Y0142654D01*
X0306279Y0143083D01*
Y0143398D01*
X0306535D01*
X0306995Y0143588D01*
X0307185Y0144047D01*
Y0147575D01*
X0307685Y0147782D01*
X0309278Y0146189D01*
D02*
G37*
G36*
X0202488Y0151711D02*
X0202297Y0151250D01*
X0200118D01*
X0199494Y0151125D01*
X0198965Y0150772D01*
X0197449Y0149256D01*
X0197095Y0148727D01*
X0196971Y0148102D01*
Y0142945D01*
X0196634D01*
X0196175Y0142754D01*
X0195984Y0142295D01*
Y0139539D01*
X0196175Y0139080D01*
X0196634Y0138890D01*
X0200571D01*
X0201030Y0139080D01*
X0201220Y0139539D01*
Y0142295D01*
X0201030Y0142754D01*
X0200571Y0142945D01*
X0200234D01*
Y0147427D01*
X0200794Y0147987D01*
X0202519D01*
X0203577Y0146929D01*
X0204106Y0146575D01*
X0204731Y0146451D01*
X0246815D01*
X0247022Y0145951D01*
X0241550Y0140479D01*
X0241108Y0139818D01*
X0240953Y0139037D01*
Y0136153D01*
X0241108Y0135373D01*
X0241550Y0134712D01*
X0242212Y0134270D01*
X0242992Y0134114D01*
X0243773Y0134270D01*
X0244434Y0134712D01*
X0244876Y0135373D01*
X0245031Y0136153D01*
Y0138193D01*
X0249536Y0142697D01*
X0264488D01*
X0265269Y0142852D01*
X0265930Y0143294D01*
X0272420Y0149784D01*
X0299195D01*
X0299378Y0149600D01*
Y0148849D01*
X0299055Y0148634D01*
X0296299D01*
X0295840Y0148443D01*
X0295650Y0147984D01*
Y0144047D01*
X0295840Y0143588D01*
X0295936Y0143104D01*
X0293060Y0140228D01*
X0260028D01*
X0260028Y0140228D01*
X0259598Y0140143D01*
X0259235Y0139899D01*
X0259235Y0139899D01*
X0256650Y0137314D01*
X0254173D01*
X0254173Y0137314D01*
X0253744Y0137229D01*
X0253380Y0136986D01*
X0253380Y0136986D01*
X0248433Y0132039D01*
X0237551D01*
X0229996Y0139594D01*
X0230001Y0139618D01*
X0229878Y0140236D01*
X0229792Y0140365D01*
X0229591Y0140786D01*
X0230245Y0141224D01*
X0231229Y0142208D01*
X0231666Y0142862D01*
X0231820Y0143634D01*
X0231666Y0144406D01*
X0231229Y0145060D01*
X0230575Y0145497D01*
X0229803Y0145651D01*
X0229031Y0145497D01*
X0228377Y0145060D01*
X0227984Y0144666D01*
X0217205D01*
X0216433Y0144513D01*
X0215779Y0144076D01*
X0213928Y0142225D01*
X0213491Y0141571D01*
X0213338Y0140799D01*
Y0138170D01*
X0211291Y0136123D01*
X0208780D01*
X0208008Y0135969D01*
X0207353Y0135532D01*
X0206916Y0134878D01*
X0206763Y0134106D01*
X0206916Y0133335D01*
X0207353Y0132680D01*
X0208008Y0132243D01*
X0208780Y0132090D01*
X0212126D01*
X0212898Y0132243D01*
X0213552Y0132680D01*
X0216530Y0135658D01*
X0217030Y0135451D01*
Y0129693D01*
X0215004Y0127667D01*
X0196818D01*
X0194820Y0129664D01*
Y0136980D01*
Y0144461D01*
X0194696Y0145085D01*
X0194343Y0145614D01*
X0190484Y0149472D01*
X0189955Y0149826D01*
X0189331Y0149950D01*
X0183589D01*
X0179308Y0154231D01*
X0179500Y0154693D01*
X0199507D01*
X0202488Y0151711D01*
D02*
G37*
G36*
X0181760Y0147165D02*
X0182289Y0146812D01*
X0182913Y0146688D01*
X0188655D01*
X0191558Y0143785D01*
Y0138809D01*
X0190585D01*
X0190298Y0139309D01*
X0190393Y0139539D01*
Y0142295D01*
X0190203Y0142754D01*
X0189744Y0142945D01*
X0185807D01*
X0185348Y0142754D01*
X0185158Y0142295D01*
Y0141677D01*
X0183065Y0139584D01*
X0182822Y0139220D01*
X0182737Y0138791D01*
X0182737Y0138791D01*
Y0136758D01*
X0182716Y0136745D01*
X0182366Y0136221D01*
X0182271Y0135743D01*
X0181878Y0135560D01*
X0181761Y0135546D01*
X0181027Y0136280D01*
X0181143Y0136862D01*
X0181020Y0137480D01*
X0180670Y0138004D01*
X0180146Y0138355D01*
X0179528Y0138478D01*
X0178909Y0138355D01*
X0178385Y0138004D01*
X0178035Y0137480D01*
X0177912Y0136862D01*
X0178035Y0136244D01*
X0178385Y0135720D01*
X0178630Y0135557D01*
X0178735Y0135400D01*
X0181490Y0132644D01*
X0181490Y0132644D01*
X0181854Y0132401D01*
X0182283Y0132316D01*
X0182283Y0132316D01*
X0185158D01*
Y0132059D01*
X0185348Y0131600D01*
X0185807Y0131410D01*
X0189744D01*
X0190203Y0131600D01*
X0190393Y0132059D01*
Y0134815D01*
X0190298Y0135046D01*
X0190585Y0135546D01*
X0191558D01*
Y0128988D01*
X0191682Y0128364D01*
X0192035Y0127835D01*
X0194988Y0124882D01*
X0195518Y0124528D01*
X0196142Y0124404D01*
X0204208D01*
X0204360Y0123904D01*
X0204204Y0123800D01*
X0200700Y0120297D01*
X0199901Y0119966D01*
X0199159Y0119396D01*
X0198590Y0118654D01*
X0198370Y0118124D01*
X0197870Y0118223D01*
Y0119067D01*
X0197792Y0119457D01*
X0197571Y0119788D01*
X0194225Y0123134D01*
X0193894Y0123355D01*
X0193504Y0123433D01*
X0182509D01*
X0181634Y0124308D01*
X0181812Y0124692D01*
X0181871Y0124778D01*
X0182468Y0124897D01*
X0182993Y0125248D01*
X0183220Y0125587D01*
X0183362Y0125618D01*
X0183777Y0125585D01*
X0184055Y0125169D01*
X0184579Y0124819D01*
X0185197Y0124696D01*
X0185815Y0124819D01*
X0186339Y0125169D01*
X0186689Y0125693D01*
X0186812Y0126311D01*
X0186689Y0126929D01*
X0186339Y0127453D01*
X0185815Y0127803D01*
X0185197Y0127926D01*
X0185052Y0127898D01*
X0182256Y0130693D01*
X0177043Y0135907D01*
Y0149421D01*
X0176966Y0149811D01*
X0176745Y0150142D01*
X0176547Y0150340D01*
X0176576Y0150484D01*
X0176453Y0151102D01*
X0176133Y0151581D01*
X0176185Y0151797D01*
X0176322Y0152081D01*
X0176844D01*
X0181760Y0147165D01*
D02*
G37*
G36*
X0222955Y0126350D02*
X0214606Y0126350D01*
X0218661Y0130405D01*
X0222955Y0126350D01*
D02*
G37*
G36*
X0219760Y0119857D02*
X0219159Y0119396D01*
X0218590Y0118654D01*
X0218232Y0117790D01*
X0218109Y0116862D01*
X0218232Y0115935D01*
X0218590Y0115070D01*
X0219159Y0114328D01*
X0219520Y0114051D01*
X0219351Y0113551D01*
X0204035D01*
X0203865Y0114051D01*
X0204227Y0114328D01*
X0204796Y0115070D01*
X0205154Y0115935D01*
X0205276Y0116862D01*
X0205154Y0117790D01*
X0204796Y0118654D01*
X0204781Y0118673D01*
X0206465Y0120357D01*
X0219590D01*
X0219760Y0119857D01*
D02*
G37*
%LPC*%
G36*
X0330598Y0221678D02*
X0329671Y0221556D01*
X0328807Y0221198D01*
X0328065Y0220628D01*
X0327495Y0219886D01*
X0327137Y0219022D01*
X0327015Y0218094D01*
X0327137Y0217167D01*
X0327495Y0216303D01*
X0328065Y0215561D01*
X0328807Y0214991D01*
X0329671Y0214633D01*
X0330598Y0214511D01*
X0331526Y0214633D01*
X0332390Y0214991D01*
X0333132Y0215561D01*
X0333702Y0216303D01*
X0334060Y0217167D01*
X0334182Y0218094D01*
X0334060Y0219022D01*
X0333702Y0219886D01*
X0333132Y0220628D01*
X0332390Y0221198D01*
X0331526Y0221556D01*
X0330598Y0221678D01*
D02*
G37*
G36*
X0320599D02*
X0319671Y0221556D01*
X0318807Y0221198D01*
X0318065Y0220628D01*
X0317495Y0219886D01*
X0317137Y0219022D01*
X0317015Y0218094D01*
X0317137Y0217167D01*
X0317495Y0216303D01*
X0318065Y0215561D01*
X0318807Y0214991D01*
X0319671Y0214633D01*
X0320599Y0214511D01*
X0321526Y0214633D01*
X0322390Y0214991D01*
X0323132Y0215561D01*
X0323702Y0216303D01*
X0324060Y0217167D01*
X0324182Y0218094D01*
X0324060Y0219022D01*
X0323702Y0219886D01*
X0323132Y0220628D01*
X0322390Y0221198D01*
X0321526Y0221556D01*
X0320599Y0221678D01*
D02*
G37*
G36*
X0310598D02*
X0309671Y0221556D01*
X0308807Y0221198D01*
X0308065Y0220628D01*
X0307495Y0219886D01*
X0307137Y0219022D01*
X0307015Y0218094D01*
X0307137Y0217167D01*
X0307495Y0216303D01*
X0308065Y0215561D01*
X0308807Y0214991D01*
X0309671Y0214633D01*
X0310598Y0214511D01*
X0311526Y0214633D01*
X0312390Y0214991D01*
X0313132Y0215561D01*
X0313702Y0216303D01*
X0314060Y0217167D01*
X0314182Y0218094D01*
X0314060Y0219022D01*
X0313702Y0219886D01*
X0313132Y0220628D01*
X0312390Y0221198D01*
X0311526Y0221556D01*
X0310598Y0221678D01*
D02*
G37*
G36*
X0290599D02*
X0289671Y0221556D01*
X0288807Y0221198D01*
X0288065Y0220628D01*
X0287495Y0219886D01*
X0287137Y0219022D01*
X0287015Y0218094D01*
X0287137Y0217167D01*
X0287495Y0216303D01*
X0288065Y0215561D01*
X0288807Y0214991D01*
X0289671Y0214633D01*
X0290599Y0214511D01*
X0291526Y0214633D01*
X0292390Y0214991D01*
X0293132Y0215561D01*
X0293702Y0216303D01*
X0294060Y0217167D01*
X0294182Y0218094D01*
X0294060Y0219022D01*
X0293702Y0219886D01*
X0293132Y0220628D01*
X0292390Y0221198D01*
X0291526Y0221556D01*
X0290599Y0221678D01*
D02*
G37*
G36*
X0270599D02*
X0269671Y0221556D01*
X0268807Y0221198D01*
X0268065Y0220628D01*
X0267495Y0219886D01*
X0267137Y0219022D01*
X0267015Y0218094D01*
X0267137Y0217167D01*
X0267495Y0216303D01*
X0268065Y0215561D01*
X0268807Y0214991D01*
X0269671Y0214633D01*
X0270599Y0214511D01*
X0271526Y0214633D01*
X0272390Y0214991D01*
X0273132Y0215561D01*
X0273702Y0216303D01*
X0274060Y0217167D01*
X0274182Y0218094D01*
X0274060Y0219022D01*
X0273702Y0219886D01*
X0273132Y0220628D01*
X0272390Y0221198D01*
X0271526Y0221556D01*
X0270599Y0221678D01*
D02*
G37*
G36*
X0260598D02*
X0259671Y0221556D01*
X0258807Y0221198D01*
X0258065Y0220628D01*
X0257495Y0219886D01*
X0257137Y0219022D01*
X0257015Y0218094D01*
X0257137Y0217167D01*
X0257495Y0216303D01*
X0258065Y0215561D01*
X0258807Y0214991D01*
X0259671Y0214633D01*
X0260598Y0214511D01*
X0261526Y0214633D01*
X0262390Y0214991D01*
X0263132Y0215561D01*
X0263702Y0216303D01*
X0264060Y0217167D01*
X0264182Y0218094D01*
X0264060Y0219022D01*
X0263702Y0219886D01*
X0263132Y0220628D01*
X0262390Y0221198D01*
X0261526Y0221556D01*
X0260598Y0221678D01*
D02*
G37*
G36*
X0310598Y0211678D02*
X0309671Y0211556D01*
X0308807Y0211198D01*
X0308065Y0210628D01*
X0307495Y0209886D01*
X0307137Y0209022D01*
X0307015Y0208095D01*
X0307137Y0207167D01*
X0307495Y0206303D01*
X0308065Y0205561D01*
X0308807Y0204991D01*
X0309671Y0204633D01*
X0310598Y0204511D01*
X0311526Y0204633D01*
X0312390Y0204991D01*
X0313132Y0205561D01*
X0313702Y0206303D01*
X0314060Y0207167D01*
X0314182Y0208095D01*
X0314060Y0209022D01*
X0313702Y0209886D01*
X0313132Y0210628D01*
X0312390Y0211198D01*
X0311526Y0211556D01*
X0310598Y0211678D01*
D02*
G37*
G36*
X0300599D02*
X0299671Y0211556D01*
X0298807Y0211198D01*
X0298065Y0210628D01*
X0297495Y0209886D01*
X0297137Y0209022D01*
X0297015Y0208095D01*
X0297137Y0207167D01*
X0297495Y0206303D01*
X0298065Y0205561D01*
X0298807Y0204991D01*
X0299671Y0204633D01*
X0300599Y0204511D01*
X0301526Y0204633D01*
X0302390Y0204991D01*
X0303132Y0205561D01*
X0303702Y0206303D01*
X0304060Y0207167D01*
X0304182Y0208095D01*
X0304060Y0209022D01*
X0303702Y0209886D01*
X0303132Y0210628D01*
X0302390Y0211198D01*
X0301526Y0211556D01*
X0300599Y0211678D01*
D02*
G37*
G36*
X0270599D02*
X0269671Y0211556D01*
X0268807Y0211198D01*
X0268065Y0210628D01*
X0267495Y0209886D01*
X0267137Y0209022D01*
X0267015Y0208095D01*
X0267137Y0207167D01*
X0267495Y0206303D01*
X0268065Y0205561D01*
X0268807Y0204991D01*
X0269671Y0204633D01*
X0270599Y0204511D01*
X0271526Y0204633D01*
X0272390Y0204991D01*
X0273132Y0205561D01*
X0273702Y0206303D01*
X0274060Y0207167D01*
X0274182Y0208095D01*
X0274060Y0209022D01*
X0273702Y0209886D01*
X0273132Y0210628D01*
X0272390Y0211198D01*
X0271526Y0211556D01*
X0270599Y0211678D01*
D02*
G37*
G36*
X0143551Y0211697D02*
X0137646D01*
X0137187Y0211507D01*
X0136996Y0211047D01*
Y0205142D01*
X0137187Y0204682D01*
X0137646Y0204492D01*
X0143551D01*
X0144010Y0204682D01*
X0144201Y0205142D01*
Y0211047D01*
X0144010Y0211507D01*
X0143551Y0211697D01*
D02*
G37*
G36*
X0349724Y0225375D02*
X0347777Y0225221D01*
X0345877Y0224765D01*
X0344073Y0224018D01*
X0342407Y0222997D01*
X0340921Y0221728D01*
X0339653Y0220243D01*
X0338632Y0218577D01*
X0337884Y0216772D01*
X0337428Y0214873D01*
X0337275Y0212925D01*
X0337428Y0210978D01*
X0337884Y0209078D01*
X0338632Y0207273D01*
X0339653Y0205608D01*
X0340921Y0204122D01*
X0342407Y0202853D01*
X0344073Y0201833D01*
X0345877Y0201085D01*
X0347777Y0200629D01*
X0349724Y0200476D01*
X0351672Y0200629D01*
X0353572Y0201085D01*
X0355376Y0201833D01*
X0357042Y0202853D01*
X0358527Y0204122D01*
X0359796Y0205608D01*
X0360817Y0207273D01*
X0361564Y0209078D01*
X0362020Y0210978D01*
X0362174Y0212925D01*
X0362020Y0214873D01*
X0361564Y0216772D01*
X0360817Y0218577D01*
X0359796Y0220243D01*
X0358527Y0221728D01*
X0357042Y0222997D01*
X0355376Y0224018D01*
X0353572Y0224765D01*
X0351672Y0225221D01*
X0349724Y0225375D01*
D02*
G37*
G36*
X0290599Y0211678D02*
X0289671Y0211556D01*
X0288807Y0211198D01*
X0288065Y0210628D01*
X0287495Y0209886D01*
X0287137Y0209022D01*
X0287015Y0208095D01*
X0287137Y0207167D01*
X0287495Y0206303D01*
X0288065Y0205561D01*
X0288807Y0204991D01*
X0289579Y0204671D01*
Y0203350D01*
X0289656Y0202960D01*
X0289878Y0202629D01*
X0290854Y0201653D01*
X0290826Y0201508D01*
X0290949Y0200890D01*
X0291299Y0200366D01*
X0291823Y0200016D01*
X0292441Y0199893D01*
X0293059Y0200016D01*
X0293583Y0200366D01*
X0293933Y0200890D01*
X0294056Y0201508D01*
X0293933Y0202126D01*
X0293583Y0202650D01*
X0293059Y0203000D01*
X0292441Y0203123D01*
X0292296Y0203094D01*
X0291618Y0203773D01*
Y0204671D01*
X0292390Y0204991D01*
X0293132Y0205561D01*
X0293702Y0206303D01*
X0294060Y0207167D01*
X0294182Y0208095D01*
X0294060Y0209022D01*
X0293702Y0209886D01*
X0293132Y0210628D01*
X0292390Y0211198D01*
X0291526Y0211556D01*
X0290599Y0211678D01*
D02*
G37*
G36*
X0280598D02*
X0279671Y0211556D01*
X0278807Y0211198D01*
X0278065Y0210628D01*
X0277495Y0209886D01*
X0277137Y0209022D01*
X0277015Y0208095D01*
X0277137Y0207167D01*
X0277495Y0206303D01*
X0278065Y0205561D01*
X0278807Y0204991D01*
X0279671Y0204633D01*
X0280598Y0204511D01*
X0281526Y0204633D01*
X0282117Y0204878D01*
X0285343Y0201653D01*
X0285314Y0201508D01*
X0285437Y0200890D01*
X0285787Y0200366D01*
X0286311Y0200016D01*
X0286929Y0199893D01*
X0287547Y0200016D01*
X0288071Y0200366D01*
X0288422Y0200890D01*
X0288544Y0201508D01*
X0288422Y0202126D01*
X0288071Y0202650D01*
X0287547Y0203000D01*
X0286929Y0203123D01*
X0286785Y0203094D01*
X0283647Y0206232D01*
X0283702Y0206303D01*
X0284060Y0207167D01*
X0284182Y0208095D01*
X0284060Y0209022D01*
X0283702Y0209886D01*
X0283132Y0210628D01*
X0282390Y0211198D01*
X0281526Y0211556D01*
X0280598Y0211678D01*
D02*
G37*
G36*
X0143268Y0178252D02*
X0140512D01*
X0140053Y0178062D01*
X0139862Y0177602D01*
Y0171697D01*
X0140053Y0171238D01*
X0140512Y0171047D01*
X0143268D01*
X0143727Y0171238D01*
X0143917Y0171697D01*
Y0177602D01*
X0143727Y0178062D01*
X0143268Y0178252D01*
D02*
G37*
G36*
X0138543D02*
X0135787D01*
X0135328Y0178062D01*
X0135138Y0177602D01*
Y0171697D01*
X0135328Y0171238D01*
X0135787Y0171047D01*
X0138543D01*
X0139003Y0171238D01*
X0139193Y0171697D01*
Y0177602D01*
X0139003Y0178062D01*
X0138543Y0178252D01*
D02*
G37*
G36*
X0129095D02*
X0126339D01*
X0125879Y0178062D01*
X0125689Y0177602D01*
Y0171697D01*
X0125879Y0171238D01*
X0126339Y0171047D01*
X0129095D01*
X0129554Y0171238D01*
X0129744Y0171697D01*
Y0177602D01*
X0129554Y0178062D01*
X0129095Y0178252D01*
D02*
G37*
G36*
X0156063Y0157582D02*
X0150157D01*
X0149698Y0157392D01*
X0149508Y0156933D01*
Y0154177D01*
X0149698Y0153718D01*
X0150157Y0153528D01*
X0156063D01*
X0156522Y0153718D01*
X0156712Y0154177D01*
Y0156933D01*
X0156522Y0157392D01*
X0156063Y0157582D01*
D02*
G37*
G36*
X0328059Y0125415D02*
X0327998Y0125389D01*
X0327932Y0125402D01*
X0327395Y0125295D01*
X0327287Y0125223D01*
X0327161Y0125198D01*
X0326705Y0124894D01*
X0326633Y0124786D01*
X0326526Y0124715D01*
X0326221Y0124259D01*
X0326196Y0124132D01*
X0326124Y0124025D01*
X0326017Y0123487D01*
X0326042Y0123360D01*
X0326017Y0123233D01*
X0326124Y0122696D01*
X0326196Y0122589D01*
X0326221Y0122462D01*
X0326526Y0122006D01*
X0326633Y0121934D01*
X0326705Y0121827D01*
X0327161Y0121522D01*
X0327287Y0121497D01*
X0327395Y0121425D01*
X0327932Y0121318D01*
X0327998Y0121331D01*
X0328059Y0121306D01*
X0328120Y0121331D01*
X0328186Y0121318D01*
X0328723Y0121425D01*
X0328831Y0121497D01*
X0328958Y0121522D01*
X0329413Y0121827D01*
X0329485Y0121934D01*
X0329592Y0122006D01*
X0329897Y0122462D01*
X0329922Y0122589D01*
X0329994Y0122696D01*
X0330101Y0123233D01*
X0330076Y0123360D01*
X0330101Y0123487D01*
X0329994Y0124025D01*
X0329922Y0124132D01*
X0329897Y0124259D01*
X0329592Y0124715D01*
X0329485Y0124786D01*
X0329413Y0124894D01*
X0328958Y0125198D01*
X0328831Y0125223D01*
X0328723Y0125295D01*
X0328186Y0125402D01*
X0328120Y0125389D01*
X0328059Y0125415D01*
D02*
G37*
G36*
X0312114D02*
X0312053Y0125389D01*
X0311987Y0125402D01*
X0311450Y0125295D01*
X0311342Y0125223D01*
X0311216Y0125198D01*
X0310760Y0124894D01*
X0310688Y0124786D01*
X0310581Y0124715D01*
X0310276Y0124259D01*
X0310251Y0124132D01*
X0310179Y0124025D01*
X0310072Y0123487D01*
X0310098Y0123360D01*
X0310072Y0123233D01*
X0310179Y0122696D01*
X0310251Y0122589D01*
X0310276Y0122462D01*
X0310581Y0122006D01*
X0310688Y0121934D01*
X0310760Y0121827D01*
X0311216Y0121522D01*
X0311342Y0121497D01*
X0311450Y0121425D01*
X0311987Y0121318D01*
X0312053Y0121331D01*
X0312114Y0121306D01*
X0312176Y0121331D01*
X0312241Y0121318D01*
X0312778Y0121425D01*
X0312886Y0121497D01*
X0313013Y0121522D01*
X0313468Y0121827D01*
X0313540Y0121934D01*
X0313648Y0122006D01*
X0313952Y0122462D01*
X0313977Y0122589D01*
X0314049Y0122696D01*
X0314156Y0123233D01*
X0314131Y0123360D01*
X0314156Y0123487D01*
X0314049Y0124025D01*
X0313977Y0124132D01*
X0313952Y0124259D01*
X0313648Y0124715D01*
X0313540Y0124786D01*
X0313468Y0124894D01*
X0313013Y0125198D01*
X0312886Y0125223D01*
X0312778Y0125295D01*
X0312241Y0125402D01*
X0312176Y0125389D01*
X0312114Y0125415D01*
D02*
G37*
G36*
X0295158Y0120446D02*
X0294230Y0120324D01*
X0293366Y0119966D01*
X0292624Y0119396D01*
X0292054Y0118654D01*
X0291696Y0117790D01*
X0291574Y0116862D01*
X0291696Y0115935D01*
X0292054Y0115070D01*
X0292624Y0114328D01*
X0293366Y0113759D01*
X0294230Y0113401D01*
X0295158Y0113279D01*
X0296085Y0113401D01*
X0296949Y0113759D01*
X0297691Y0114328D01*
X0298261Y0115070D01*
X0298619Y0115935D01*
X0298741Y0116862D01*
X0298619Y0117790D01*
X0298261Y0118654D01*
X0297691Y0119396D01*
X0296949Y0119966D01*
X0296085Y0120324D01*
X0295158Y0120446D01*
D02*
G37*
G36*
X0191693D02*
X0190766Y0120324D01*
X0189901Y0119966D01*
X0189159Y0119396D01*
X0188590Y0118654D01*
X0188232Y0117790D01*
X0188110Y0116862D01*
X0188232Y0115935D01*
X0188590Y0115070D01*
X0189159Y0114328D01*
X0189901Y0113759D01*
X0190766Y0113401D01*
X0191693Y0113279D01*
X0192620Y0113401D01*
X0193485Y0113759D01*
X0194227Y0114328D01*
X0194796Y0115070D01*
X0195154Y0115935D01*
X0195276Y0116862D01*
X0195154Y0117790D01*
X0194796Y0118654D01*
X0194227Y0119396D01*
X0193485Y0119966D01*
X0192620Y0120324D01*
X0191693Y0120446D01*
D02*
G37*
G36*
X0181693D02*
X0180765Y0120324D01*
X0179901Y0119966D01*
X0179159Y0119396D01*
X0178590Y0118654D01*
X0178232Y0117790D01*
X0178110Y0116862D01*
X0178232Y0115935D01*
X0178590Y0115070D01*
X0179159Y0114328D01*
X0179901Y0113759D01*
X0180765Y0113401D01*
X0181693Y0113279D01*
X0182620Y0113401D01*
X0183485Y0113759D01*
X0184227Y0114328D01*
X0184796Y0115070D01*
X0185154Y0115935D01*
X0185276Y0116862D01*
X0185154Y0117790D01*
X0184796Y0118654D01*
X0184227Y0119396D01*
X0183485Y0119966D01*
X0182620Y0120324D01*
X0181693Y0120446D01*
D02*
G37*
G36*
X0276299Y0120464D02*
X0270394D01*
X0269935Y0120274D01*
X0269744Y0119815D01*
Y0113909D01*
X0269935Y0113450D01*
X0270394Y0113260D01*
X0276299D01*
X0276758Y0113450D01*
X0276949Y0113909D01*
Y0119815D01*
X0276758Y0120274D01*
X0276299Y0120464D01*
D02*
G37*
G36*
X0147126Y0120052D02*
X0146198Y0119930D01*
X0145334Y0119572D01*
X0144592Y0119002D01*
X0144023Y0118260D01*
X0143665Y0117396D01*
X0143543Y0116469D01*
X0143665Y0115541D01*
X0144023Y0114677D01*
X0144592Y0113935D01*
X0145334Y0113365D01*
X0146198Y0113007D01*
X0147126Y0112885D01*
X0148053Y0113007D01*
X0148918Y0113365D01*
X0149660Y0113935D01*
X0150229Y0114677D01*
X0150587Y0115541D01*
X0150709Y0116469D01*
X0150587Y0117396D01*
X0150229Y0118260D01*
X0149660Y0119002D01*
X0148918Y0119572D01*
X0148053Y0119930D01*
X0147126Y0120052D01*
D02*
G37*
G36*
X0349724Y0134823D02*
X0347777Y0134670D01*
X0345877Y0134214D01*
X0344073Y0133466D01*
X0342407Y0132446D01*
X0340921Y0131177D01*
X0339653Y0129692D01*
X0338632Y0128026D01*
X0337884Y0126221D01*
X0337428Y0124321D01*
X0337275Y0122374D01*
X0337428Y0120426D01*
X0337884Y0118527D01*
X0338632Y0116722D01*
X0339653Y0115056D01*
X0340921Y0113571D01*
X0342407Y0112302D01*
X0344073Y0111282D01*
X0345877Y0110534D01*
X0347777Y0110078D01*
X0349724Y0109925D01*
X0351672Y0110078D01*
X0353572Y0110534D01*
X0355376Y0111282D01*
X0357042Y0112302D01*
X0358527Y0113571D01*
X0359796Y0115056D01*
X0360817Y0116722D01*
X0361564Y0118527D01*
X0362020Y0120426D01*
X0362174Y0122374D01*
X0362020Y0124321D01*
X0361564Y0126221D01*
X0360817Y0128026D01*
X0359796Y0129692D01*
X0358527Y0131177D01*
X0357042Y0132446D01*
X0355376Y0133466D01*
X0353572Y0134214D01*
X0351672Y0134670D01*
X0349724Y0134823D01*
D02*
G37*
G36*
X0200571Y0135464D02*
X0196634D01*
X0196175Y0135274D01*
X0195984Y0134815D01*
Y0132059D01*
X0196175Y0131600D01*
X0196634Y0131410D01*
X0197583D01*
Y0130839D01*
X0197660Y0130448D01*
X0197881Y0130118D01*
X0199299Y0128700D01*
X0199629Y0128479D01*
X0200020Y0128402D01*
X0203031D01*
X0203422Y0128479D01*
X0203752Y0128700D01*
X0204252Y0129200D01*
X0204528Y0129145D01*
X0205146Y0129268D01*
X0205670Y0129618D01*
X0206020Y0130142D01*
X0206143Y0130760D01*
X0206020Y0131378D01*
X0205670Y0131902D01*
X0205146Y0132252D01*
X0204528Y0132375D01*
X0203909Y0132252D01*
X0203385Y0131902D01*
X0203035Y0131378D01*
X0202912Y0130760D01*
X0202564Y0130441D01*
X0200442D01*
X0199973Y0130910D01*
X0200180Y0131410D01*
X0200571D01*
X0201030Y0131600D01*
X0201220Y0132059D01*
Y0134815D01*
X0201030Y0135274D01*
X0200571Y0135464D01*
D02*
G37*
%LPD*%
D12*
X0123122Y0193909D02*
X0126772D01*
X0122776Y0193563D02*
X0123122Y0193909D01*
X0111161Y0193563D02*
X0122776D01*
X0115236Y0183870D02*
Y0185925D01*
X0116969Y0187657D01*
D13*
X0297677Y0143259D02*
Y0146016D01*
X0293525Y0139106D02*
X0297677Y0143259D01*
X0260028Y0139106D02*
X0293525D01*
X0298740Y0142059D02*
X0304134D01*
X0294120Y0137439D02*
X0298740Y0142059D01*
X0260623Y0137439D02*
X0294120D01*
X0158551Y0149295D02*
Y0150831D01*
Y0149295D02*
X0163543Y0144303D01*
X0170315Y0158437D02*
X0171453Y0157299D01*
X0200161D01*
X0201969Y0159106D01*
X0207756Y0154776D02*
Y0156547D01*
X0203113Y0161191D02*
X0207756Y0156547D01*
X0163543Y0134579D02*
Y0144303D01*
X0179528Y0136193D02*
Y0136862D01*
Y0136193D02*
X0182283Y0133437D01*
X0185984Y0140917D02*
X0187776D01*
X0183858Y0138791D02*
X0185984Y0140917D01*
X0183858Y0135602D02*
Y0138791D01*
X0182283Y0133437D02*
X0187776D01*
X0153622Y0150831D02*
X0159402D01*
X0169761Y0161191D01*
X0203113D01*
X0305157Y0143083D02*
Y0146016D01*
X0304134Y0142059D02*
X0305157Y0143083D01*
X0254567Y0133516D02*
X0256700D01*
X0260623Y0137439D01*
X0257114Y0136193D02*
X0260028Y0139106D01*
X0248898Y0130917D02*
X0254173Y0136193D01*
X0257114D01*
X0228386Y0139618D02*
X0237087Y0130917D01*
X0248898D01*
D24*
X0111161Y0193563D02*
D03*
X0122776D02*
D03*
D25*
X0116969Y0187657D02*
D03*
D56*
X0167126Y0116469D02*
D03*
X0285157Y0116862D02*
D03*
X0273346D02*
D03*
X0251693D02*
D03*
X0140598Y0208095D02*
D03*
D105*
X0264094Y0127098D02*
X0265866D01*
X0314784Y0167453D02*
X0319803Y0162433D01*
X0174409Y0116744D02*
X0180022Y0111132D01*
X0198346Y0112531D02*
X0255433D01*
X0196850Y0114028D02*
X0198346Y0112531D01*
X0196850Y0114028D02*
Y0119067D01*
X0145630Y0149539D02*
X0148130Y0147039D01*
X0137638Y0149539D02*
X0145630D01*
X0132756Y0144658D02*
X0137638Y0149539D01*
X0147458Y0161210D02*
Y0169332D01*
X0146535Y0160287D02*
X0147458Y0161210D01*
X0141339Y0160287D02*
X0146535D01*
X0148858Y0168752D02*
X0149835Y0169728D01*
X0235508Y0213004D02*
X0240599Y0218094D01*
X0256614Y0113713D02*
Y0119618D01*
X0255433Y0112531D02*
X0256614Y0113713D01*
X0290599Y0203350D02*
X0292441Y0201508D01*
X0256395Y0111132D02*
X0258189Y0112925D01*
X0180022Y0111132D02*
X0256395D01*
X0290599Y0203350D02*
Y0208095D01*
X0256614Y0119618D02*
X0264094Y0127098D01*
X0157126Y0116469D02*
Y0131980D01*
X0158526Y0125068D02*
X0167126Y0116469D01*
X0158526Y0125068D02*
Y0132560D01*
X0132756Y0141657D02*
Y0144658D01*
X0162559Y0149500D02*
X0162835Y0149224D01*
X0129685Y0136232D02*
X0134882D01*
X0128032Y0137886D02*
X0129685Y0136232D01*
X0128032Y0137886D02*
Y0141185D01*
X0153425Y0165004D02*
X0156055D01*
X0153425Y0160280D02*
X0156882D01*
X0134606Y0187216D02*
X0135917D01*
X0130157Y0184736D02*
Y0186508D01*
X0149835Y0169728D02*
X0153425D01*
X0156732Y0134354D02*
Y0135721D01*
X0153032Y0136075D02*
X0157126Y0131980D01*
X0156732Y0134354D02*
X0158526Y0132560D01*
X0317146Y0200327D02*
X0318228D01*
X0314784Y0167453D02*
Y0197965D01*
X0317146Y0200327D01*
X0339707Y0150742D02*
X0341850Y0152886D01*
X0147458Y0169332D02*
X0148992Y0170866D01*
Y0179552D01*
X0280598Y0207839D02*
Y0208095D01*
Y0207839D02*
X0286929Y0201508D01*
X0193504Y0122413D02*
X0196850Y0119067D01*
X0182087Y0122413D02*
X0193504D01*
X0162559Y0149500D02*
X0168772Y0155713D01*
X0199929D01*
X0311260Y0149343D02*
X0341850D01*
X0311840Y0150742D02*
X0339707D01*
X0145827Y0195996D02*
Y0210996D01*
Y0195996D02*
X0151772Y0190051D01*
X0127362Y0155012D02*
X0127953D01*
X0128150Y0155209D01*
X0156882Y0160280D02*
X0158526Y0161924D01*
X0160391Y0167850D02*
Y0174093D01*
X0128150Y0155209D02*
X0145158D01*
X0148858Y0158909D01*
Y0168752D01*
X0172362Y0149736D02*
X0172716D01*
X0174409Y0148043D01*
X0174960Y0150484D02*
X0176024Y0149421D01*
X0235508Y0201433D02*
X0235787Y0201153D01*
X0235508Y0201433D02*
Y0213004D01*
X0130157Y0184736D02*
X0133071Y0181823D01*
X0134646Y0184106D02*
X0135433Y0183319D01*
X0135917Y0187216D02*
X0138415Y0184719D01*
X0133071Y0181823D02*
X0146721D01*
X0148992Y0179552D01*
X0135433Y0183319D02*
X0147205D01*
X0157126Y0173398D01*
X0138415Y0184719D02*
X0147785D01*
X0158526Y0173977D01*
X0139365Y0186119D02*
X0148364D01*
X0160391Y0174093D01*
X0146232Y0192532D02*
X0164618Y0174146D01*
X0188937Y0176744D02*
X0189797Y0177604D01*
X0145827Y0210996D02*
X0147835Y0213004D01*
X0235508D01*
X0175906Y0199461D02*
Y0199500D01*
X0157913Y0202256D02*
X0168228D01*
X0170551Y0199933D01*
X0174567Y0178988D02*
Y0182217D01*
X0181457Y0189106D01*
X0211102D01*
X0132110Y0189201D02*
X0136284D01*
X0139365Y0186119D01*
X0131535Y0189776D02*
X0132110Y0189201D01*
X0131535Y0189776D02*
Y0190839D01*
X0133228Y0192532D01*
X0146232D01*
X0143898Y0189894D02*
X0146273Y0187519D01*
X0148944D01*
X0200020Y0129421D02*
X0203031D01*
X0264039Y0158894D02*
X0303689D01*
X0311840Y0150742D01*
X0264619Y0157494D02*
X0303109D01*
X0311260Y0149343D01*
X0325039Y0198201D02*
Y0200406D01*
X0351417Y0156508D02*
X0356417Y0151508D01*
X0351417Y0156508D02*
Y0166547D01*
X0352441Y0167571D01*
X0258189Y0112925D02*
Y0119213D01*
X0261586Y0122610D01*
X0265905D01*
X0267441Y0124146D01*
X0203031Y0129421D02*
X0204370Y0130760D01*
X0204528D01*
X0160391Y0167850D02*
X0160472Y0167768D01*
X0156055Y0165004D02*
X0157063Y0166012D01*
Y0169617D01*
X0157126Y0169680D01*
Y0173398D01*
X0158526Y0161924D02*
Y0166121D01*
X0158488Y0166158D02*
X0158526Y0166121D01*
X0158488Y0166158D02*
Y0169062D01*
X0158526Y0169100D01*
Y0173977D01*
X0159646Y0158319D02*
X0159926Y0158599D01*
X0198602Y0130839D02*
X0200020Y0129421D01*
X0198602Y0130839D02*
Y0133437D01*
X0175079Y0191547D02*
X0175276Y0191350D01*
X0203346D01*
X0226102Y0190169D02*
X0226992D01*
X0227740Y0189421D01*
Y0179587D02*
Y0189421D01*
X0227157Y0179004D02*
X0227740Y0179587D01*
X0231124Y0186372D02*
X0233268Y0188516D01*
X0175906Y0199461D02*
X0209758D01*
X0216176Y0193043D01*
X0226034D01*
X0227508Y0191569D01*
X0227572D01*
X0229724Y0188319D02*
Y0189417D01*
X0227572Y0191569D02*
X0229724Y0189417D01*
X0159926Y0163599D02*
X0162457Y0166130D01*
Y0174007D01*
X0148944Y0187519D02*
X0162457Y0174007D01*
X0163718Y0172746D01*
X0159926Y0158599D02*
Y0163599D01*
X0185765Y0172746D02*
X0185866Y0172846D01*
X0163718Y0172746D02*
X0185765D01*
X0189797Y0177604D02*
X0228600D01*
X0187846Y0172846D02*
X0191203Y0176204D01*
X0185866Y0172846D02*
X0187846D01*
X0164618Y0174146D02*
X0183307D01*
X0185906Y0176744D01*
X0188937D01*
X0186186Y0179004D02*
X0227157D01*
X0172244Y0176626D02*
X0173268Y0175602D01*
X0182784D01*
X0186186Y0179004D01*
X0225669Y0152453D02*
X0228284Y0155067D01*
X0230410D01*
X0325039Y0198201D02*
X0328622Y0194618D01*
X0356378Y0179500D02*
X0357205Y0178673D01*
X0171890Y0132610D02*
X0182087Y0122413D01*
X0171890Y0132610D02*
Y0147138D01*
X0181535Y0129972D02*
X0185197Y0126311D01*
X0176024Y0135484D02*
Y0149421D01*
Y0135484D02*
X0181535Y0129972D01*
X0174409Y0133831D02*
Y0148043D01*
Y0133831D02*
X0181850Y0126390D01*
X0230410Y0155067D02*
X0235945Y0160602D01*
X0191203Y0176204D02*
X0228021D01*
X0258608Y0151483D02*
X0264619Y0157494D01*
X0258028Y0152883D02*
X0264039Y0158894D01*
X0251313Y0151483D02*
X0258608D01*
X0251893Y0152883D02*
X0258028D01*
X0252783Y0155445D02*
X0253228D01*
X0229724Y0178504D02*
Y0188319D01*
Y0178504D02*
X0252783Y0155445D01*
X0231124Y0179124D02*
Y0186372D01*
Y0179124D02*
X0252598Y0157650D01*
X0254685D01*
X0228600Y0177604D02*
X0249370Y0156834D01*
Y0155405D02*
X0251893Y0152883D01*
X0249370Y0155405D02*
Y0156834D01*
X0228021Y0176204D02*
X0247970Y0156254D01*
Y0154826D02*
X0251313Y0151483D01*
X0247970Y0154826D02*
Y0156254D01*
X0325913Y0142012D02*
X0339047D01*
X0322559Y0145366D02*
X0325913Y0142012D01*
X0339047D02*
X0340669Y0143634D01*
X0199929Y0155713D02*
X0205559Y0150083D01*
X0260268D01*
X0263307Y0153122D01*
X0328622Y0194618D02*
X0352835D01*
X0356378Y0191075D01*
Y0179500D02*
Y0191075D01*
D106*
X0353569Y0181061D02*
Y0188805D01*
X0353307Y0189067D02*
X0353569Y0188805D01*
X0254331Y0161469D02*
X0305000D01*
X0313151Y0153317D01*
X0325825D01*
X0353569Y0181061D01*
D108*
X0271003Y0155494D02*
X0302280D01*
X0263592Y0148083D02*
X0271003Y0155494D01*
X0204731Y0148083D02*
X0263592D01*
X0270945Y0176547D02*
X0289173D01*
X0260787Y0166390D02*
X0270945Y0176547D01*
X0260787Y0164854D02*
Y0166390D01*
X0289173Y0176547D02*
X0290787Y0178161D01*
X0354882Y0141508D02*
X0356417D01*
X0360866Y0183988D02*
X0360970Y0183884D01*
X0152977Y0140051D02*
X0157835D01*
X0147899Y0134972D02*
X0152977Y0140051D01*
X0160526Y0132635D02*
Y0137360D01*
X0157835Y0140051D02*
X0160526Y0137360D01*
X0137677Y0138083D02*
Y0141657D01*
Y0138083D02*
X0144528Y0131232D01*
X0147899Y0131326D02*
Y0134972D01*
Y0131326D02*
X0147992Y0131232D01*
X0144528D02*
X0147992D01*
X0151614D01*
X0315537Y0202911D02*
X0319463D01*
X0321732Y0200642D01*
X0290787Y0178161D02*
X0315537Y0202911D01*
X0323898Y0156665D02*
X0350394Y0183161D01*
X0308228Y0162730D02*
Y0179185D01*
Y0162730D02*
X0314293Y0156665D01*
X0323898D01*
X0251693Y0116862D02*
Y0117525D01*
X0263850Y0129683D01*
X0241693Y0116862D02*
Y0118595D01*
X0360970Y0140509D02*
Y0183884D01*
X0160526Y0132635D02*
X0162165Y0130996D01*
X0234213Y0126075D02*
X0241693Y0118595D01*
X0225345Y0126045D02*
X0234213Y0126075D01*
X0222686Y0126045D02*
X0225345D01*
X0222677Y0126035D02*
X0222686Y0126045D01*
X0218347Y0126035D02*
X0222677D01*
X0177520Y0153713D02*
X0182913Y0148319D01*
X0185906D01*
X0310431Y0147343D02*
X0315740D01*
X0302280Y0155494D02*
X0310431Y0147343D01*
X0218347Y0126035D02*
X0218661Y0126350D01*
X0263850Y0129683D02*
X0317742D01*
X0218661Y0126350D02*
Y0139461D01*
X0185906Y0148319D02*
X0189331D01*
X0193189Y0144461D01*
X0196142Y0126035D02*
X0218347D01*
X0193189Y0128988D02*
X0196142Y0126035D01*
X0187776Y0137177D02*
X0192992D01*
X0193189Y0136980D01*
Y0128988D02*
Y0136980D01*
Y0144461D01*
X0198602Y0140917D02*
Y0148102D01*
X0200118Y0149618D01*
X0202677D01*
X0315740Y0147343D02*
X0323071Y0140012D01*
X0353386D01*
X0354882Y0141508D01*
X0317742Y0129683D02*
X0325471Y0137412D01*
X0357872D01*
X0360970Y0140509D01*
X0162165Y0130996D02*
X0167228D01*
X0171535Y0153713D02*
X0177520D01*
X0167228Y0130996D02*
X0169173Y0132941D01*
Y0151350D01*
X0171535Y0153713D01*
X0202677Y0149618D02*
X0203195D01*
X0204731Y0148083D01*
X0321732Y0198437D02*
Y0200642D01*
Y0198437D02*
X0327598Y0192571D01*
X0351772D01*
D109*
X0140598Y0218094D02*
X0150599D01*
X0155866Y0223362D01*
X0244484D01*
X0245668Y0222179D01*
X0201693Y0116862D02*
Y0118437D01*
X0205630Y0122374D01*
X0232913D01*
X0245529Y0222040D02*
X0245668Y0222179D01*
X0245512Y0201587D02*
X0245529Y0201604D01*
Y0222040D01*
X0208780Y0134106D02*
X0212126D01*
X0215354Y0137335D01*
Y0140799D01*
X0217205Y0142650D01*
X0228819D01*
X0229803Y0143634D01*
Y0152689D02*
X0232221D01*
X0239331Y0159799D01*
Y0160977D01*
D110*
X0153740Y0200484D02*
Y0202768D01*
X0216378Y0186350D02*
X0216378Y0186350D01*
X0216378Y0186350D02*
Y0190366D01*
X0209606Y0197138D02*
X0216378Y0190366D01*
X0153740Y0200484D02*
X0157087Y0197138D01*
X0209606D01*
D111*
X0261555Y0135189D02*
X0297677D01*
X0253780Y0127413D02*
X0261555Y0135189D01*
D124*
X0157126Y0116469D02*
D03*
X0147126D02*
D03*
X0355906Y0163358D02*
D03*
Y0153358D02*
D03*
Y0143358D02*
D03*
X0295158Y0116862D02*
D03*
X0263347D02*
D03*
X0181693D02*
D03*
X0191693D02*
D03*
X0201693D02*
D03*
X0211693D02*
D03*
X0221693D02*
D03*
X0231693D02*
D03*
X0241693D02*
D03*
X0140598Y0218094D02*
D03*
X0150599Y0208095D02*
D03*
Y0218094D02*
D03*
X0160599Y0208095D02*
D03*
Y0218094D02*
D03*
X0170598Y0208095D02*
D03*
Y0218094D02*
D03*
X0180598Y0208095D02*
D03*
Y0218094D02*
D03*
X0190598Y0208095D02*
D03*
Y0218094D02*
D03*
X0200599Y0208095D02*
D03*
Y0218094D02*
D03*
X0210598Y0208095D02*
D03*
Y0218094D02*
D03*
X0220599Y0208095D02*
D03*
Y0218094D02*
D03*
X0230598Y0208095D02*
D03*
Y0218094D02*
D03*
X0240599Y0208095D02*
D03*
Y0218094D02*
D03*
X0250599Y0208095D02*
D03*
Y0218094D02*
D03*
X0260598Y0208095D02*
D03*
Y0218094D02*
D03*
X0270599Y0208095D02*
D03*
Y0218094D02*
D03*
X0280598Y0208095D02*
D03*
Y0218094D02*
D03*
X0290599Y0208095D02*
D03*
Y0218094D02*
D03*
X0300599Y0208095D02*
D03*
Y0218094D02*
D03*
X0310598Y0208095D02*
D03*
Y0218094D02*
D03*
X0320599Y0208095D02*
D03*
Y0218094D02*
D03*
X0330598Y0208095D02*
D03*
Y0218094D02*
D03*
D125*
X0208189Y0141823D02*
D03*
Y0184343D02*
D03*
D126*
X0355906Y0173358D02*
D03*
D127*
X0331417Y0114896D02*
D03*
X0308780D02*
D03*
D128*
X0121378Y0122374D02*
D03*
Y0212925D02*
D03*
X0349724D02*
D03*
Y0122374D02*
D03*
D129*
X0260787Y0164854D02*
D03*
X0352441Y0167571D02*
D03*
X0265866Y0127098D02*
D03*
X0267441Y0124146D02*
D03*
X0360866Y0183988D02*
D03*
X0308228Y0179185D02*
D03*
X0350394Y0183161D02*
D03*
X0340472Y0179067D02*
D03*
X0318228Y0200327D02*
D03*
X0353307Y0189067D02*
D03*
X0325039Y0200406D02*
D03*
X0174409Y0116744D02*
D03*
X0115236Y0183870D02*
D03*
X0141339Y0160287D02*
D03*
X0153032Y0136075D02*
D03*
X0305630Y0216429D02*
D03*
X0305591Y0220366D02*
D03*
X0295878Y0193425D02*
D03*
X0292878D02*
D03*
X0324134Y0178673D02*
D03*
Y0175130D02*
D03*
X0320591D02*
D03*
Y0171587D02*
D03*
X0324134D02*
D03*
X0317047Y0175130D02*
D03*
Y0171587D02*
D03*
Y0178673D02*
D03*
X0320591D02*
D03*
X0265276Y0206626D02*
D03*
Y0210169D02*
D03*
X0275709Y0205642D02*
D03*
Y0216469D02*
D03*
Y0219618D02*
D03*
X0288701Y0183791D02*
D03*
X0295591Y0201508D02*
D03*
X0292441D02*
D03*
X0347362Y0169028D02*
D03*
X0298346Y0201508D02*
D03*
X0283189Y0197374D02*
D03*
X0341850Y0152886D02*
D03*
Y0149343D02*
D03*
X0340669Y0143634D02*
D03*
X0319803Y0162433D02*
D03*
X0286929Y0201508D02*
D03*
X0151614Y0131232D02*
D03*
X0162835Y0149224D02*
D03*
X0134882Y0136232D02*
D03*
X0131535Y0189776D02*
D03*
X0159646Y0158319D02*
D03*
X0134606Y0187216D02*
D03*
X0134646Y0184106D02*
D03*
X0130157Y0186508D02*
D03*
X0148228Y0147138D02*
D03*
X0127126Y0169461D02*
D03*
X0142598Y0147098D02*
D03*
X0292638Y0112571D02*
D03*
X0298150Y0112886D02*
D03*
X0295354Y0110917D02*
D03*
X0289370Y0112453D02*
D03*
X0287441Y0110484D02*
D03*
X0285433Y0112374D02*
D03*
X0302716Y0110445D02*
D03*
X0300866Y0112728D02*
D03*
X0299961Y0115327D02*
D03*
X0280039Y0110484D02*
D03*
X0281929Y0112492D02*
D03*
X0290118Y0115720D02*
D03*
X0279134Y0113083D02*
D03*
X0280197Y0115720D02*
D03*
Y0120602D02*
D03*
X0283740Y0121547D02*
D03*
X0287047Y0121232D02*
D03*
X0289764Y0121114D02*
D03*
X0290000Y0118280D02*
D03*
X0299646Y0119815D02*
D03*
X0304055Y0113083D02*
D03*
X0302559Y0115681D02*
D03*
X0300315Y0117650D02*
D03*
X0302284Y0120130D02*
D03*
X0299764Y0122295D02*
D03*
X0287717Y0123319D02*
D03*
X0302559Y0122650D02*
D03*
X0281496Y0123673D02*
D03*
X0285039Y0123870D02*
D03*
X0297756Y0124028D02*
D03*
X0301575Y0125051D02*
D03*
X0313543Y0119776D02*
D03*
X0316378Y0119815D02*
D03*
X0319291D02*
D03*
X0322087Y0119894D02*
D03*
X0325000Y0119854D02*
D03*
X0139606Y0121114D02*
D03*
X0143150Y0121232D02*
D03*
X0138898Y0117768D02*
D03*
X0142165Y0117807D02*
D03*
X0140512Y0114736D02*
D03*
X0238268Y0200839D02*
D03*
X0156732Y0135721D02*
D03*
X0351772Y0192571D02*
D03*
X0290787Y0178161D02*
D03*
X0263307Y0153122D02*
D03*
X0232913Y0122374D02*
D03*
X0171890Y0147138D02*
D03*
X0170315Y0158437D02*
D03*
X0208780Y0134106D02*
D03*
X0181850Y0126390D02*
D03*
X0185197Y0126311D02*
D03*
X0201969Y0159106D02*
D03*
X0202677Y0149618D02*
D03*
X0207756Y0154776D02*
D03*
X0153740Y0202768D02*
D03*
X0157913Y0202256D02*
D03*
X0170551Y0199933D02*
D03*
X0254331Y0161469D02*
D03*
X0357205Y0178673D02*
D03*
X0143898Y0189894D02*
D03*
X0151772Y0190051D02*
D03*
X0141299Y0168161D02*
D03*
X0127953Y0155012D02*
D03*
X0141339Y0163909D02*
D03*
X0172362Y0149736D02*
D03*
X0174960Y0150484D02*
D03*
X0245512Y0201587D02*
D03*
X0203346Y0191350D02*
D03*
X0211102Y0189106D02*
D03*
X0174567Y0178988D02*
D03*
X0233268Y0188516D02*
D03*
X0216378Y0186350D02*
D03*
X0172244Y0176626D02*
D03*
X0188937Y0176744D02*
D03*
X0226102Y0190169D02*
D03*
X0229724Y0188319D02*
D03*
X0175906Y0199500D02*
D03*
X0175079Y0191547D02*
D03*
X0163543Y0134579D02*
D03*
X0185906Y0148319D02*
D03*
X0179528Y0136862D02*
D03*
X0183858Y0135602D02*
D03*
X0218661Y0139461D02*
D03*
X0229803Y0152689D02*
D03*
X0225669Y0152453D02*
D03*
X0229803Y0143634D02*
D03*
X0228386Y0139618D02*
D03*
X0253780Y0127413D02*
D03*
X0220984Y0170091D02*
D03*
X0185158Y0151784D02*
D03*
X0169803Y0168319D02*
D03*
X0162165Y0191114D02*
D03*
X0205118Y0125957D02*
D03*
X0269803Y0144894D02*
D03*
X0287795Y0147807D02*
D03*
X0188819Y0183280D02*
D03*
X0192835Y0181232D02*
D03*
X0186102Y0186075D02*
D03*
X0178228Y0139264D02*
D03*
X0187835Y0144264D02*
D03*
X0204528Y0130760D02*
D03*
X0160472Y0167768D02*
D03*
X0242992Y0136153D02*
D03*
X0195473Y0215366D02*
D03*
X0206181Y0215445D02*
D03*
X0205433Y0219972D02*
D03*
X0196339Y0220012D02*
D03*
X0164921Y0215878D02*
D03*
X0145079Y0221744D02*
D03*
X0165276Y0210602D02*
D03*
X0235669Y0200248D02*
D03*
X0181378Y0139933D02*
D03*
X0238583Y0128358D02*
D03*
X0238701Y0125642D02*
D03*
X0219803Y0174146D02*
D03*
X0224370Y0128988D02*
D03*
X0224724Y0139421D02*
D03*
X0238347Y0145130D02*
D03*
X0238268Y0138634D02*
D03*
X0220276Y0165563D02*
D03*
X0185866Y0172846D02*
D03*
X0129921Y0110236D02*
D03*
Y0133858D02*
D03*
X0133858Y0110236D02*
D03*
X0135827Y0114173D02*
D03*
Y0122047D02*
D03*
X0133858Y0204725D02*
D03*
X0135827Y0208662D02*
D03*
Y0216536D02*
D03*
X0133858Y0220473D02*
D03*
X0137795Y0110236D02*
D03*
X0141732D02*
D03*
X0145669D02*
D03*
X0149606D02*
D03*
X0151575Y0114173D02*
D03*
Y0122047D02*
D03*
X0153543Y0110236D02*
D03*
X0155512Y0208662D02*
D03*
Y0216536D02*
D03*
X0157480Y0110236D02*
D03*
X0161417D02*
D03*
Y0118110D02*
D03*
X0165354Y0110236D02*
D03*
X0169291D02*
D03*
X0173228D02*
D03*
X0175197Y0122047D02*
D03*
X0173228Y0125984D02*
D03*
X0177165Y0110236D02*
D03*
Y0118110D02*
D03*
X0179134Y0122047D02*
D03*
X0177165Y0188977D02*
D03*
Y0204725D02*
D03*
X0183071Y0185039D02*
D03*
X0187008Y0114173D02*
D03*
Y0129921D02*
D03*
X0185039Y0165354D02*
D03*
X0188977Y0125984D02*
D03*
X0198819Y0122047D02*
D03*
X0196851Y0181103D02*
D03*
Y0204725D02*
D03*
X0202756Y0169291D02*
D03*
X0200787Y0173228D02*
D03*
Y0181103D02*
D03*
X0204725Y0173228D02*
D03*
Y0204725D02*
D03*
X0208662Y0173228D02*
D03*
X0214567Y0153543D02*
D03*
X0216536Y0118110D02*
D03*
X0218504Y0153543D02*
D03*
X0222441D02*
D03*
X0220473Y0157480D02*
D03*
Y0188977D02*
D03*
X0226378Y0216536D02*
D03*
X0240158Y0141732D02*
D03*
X0250000Y0200787D02*
D03*
X0253937Y0185039D02*
D03*
X0251969Y0212598D02*
D03*
X0255906Y0165354D02*
D03*
X0257874Y0185039D02*
D03*
Y0192913D02*
D03*
Y0200787D02*
D03*
X0255906Y0204725D02*
D03*
Y0212598D02*
D03*
Y0220473D02*
D03*
X0259843Y0110236D02*
D03*
Y0188977D02*
D03*
Y0212598D02*
D03*
X0263780Y0110236D02*
D03*
X0265748Y0200787D02*
D03*
X0263780Y0212598D02*
D03*
X0265748Y0216536D02*
D03*
X0267717Y0110236D02*
D03*
Y0118110D02*
D03*
Y0212598D02*
D03*
X0271654Y0110236D02*
D03*
Y0173228D02*
D03*
X0273622Y0192913D02*
D03*
Y0200787D02*
D03*
X0271654Y0212598D02*
D03*
X0275591Y0110236D02*
D03*
X0277559Y0145669D02*
D03*
X0275591Y0196851D02*
D03*
X0277559Y0200787D02*
D03*
X0275591Y0212598D02*
D03*
X0279528Y0118110D02*
D03*
X0281496Y0200787D02*
D03*
X0279528Y0212598D02*
D03*
X0283465Y0110236D02*
D03*
Y0125984D02*
D03*
X0285433Y0145669D02*
D03*
Y0208662D02*
D03*
X0283465Y0212598D02*
D03*
X0285433Y0216536D02*
D03*
X0287402Y0125984D02*
D03*
X0289370Y0169291D02*
D03*
X0287402Y0173228D02*
D03*
Y0204725D02*
D03*
Y0212598D02*
D03*
X0291339Y0110236D02*
D03*
Y0165354D02*
D03*
Y0173228D02*
D03*
Y0212598D02*
D03*
X0295276Y0173228D02*
D03*
Y0204725D02*
D03*
Y0212598D02*
D03*
Y0220473D02*
D03*
X0299213Y0110236D02*
D03*
Y0173228D02*
D03*
Y0196851D02*
D03*
X0301181Y0200787D02*
D03*
X0299213Y0212598D02*
D03*
X0305118Y0200787D02*
D03*
X0303150Y0212598D02*
D03*
X0307087Y0110236D02*
D03*
X0309055Y0137795D02*
D03*
Y0185039D02*
D03*
Y0200787D02*
D03*
X0307087Y0204725D02*
D03*
Y0212598D02*
D03*
X0311024Y0110236D02*
D03*
X0314961Y0212598D02*
D03*
Y0220473D02*
D03*
X0318898Y0212598D02*
D03*
X0324803Y0129921D02*
D03*
X0322835Y0212598D02*
D03*
X0328740Y0129921D02*
D03*
Y0200787D02*
D03*
X0326772Y0204725D02*
D03*
Y0212598D02*
D03*
X0330709Y0110236D02*
D03*
X0332677Y0129921D02*
D03*
Y0200787D02*
D03*
X0330709Y0212598D02*
D03*
X0334646Y0110236D02*
D03*
X0336614Y0114173D02*
D03*
X0334646Y0118110D02*
D03*
X0336614Y0129921D02*
D03*
Y0153543D02*
D03*
Y0200787D02*
D03*
X0334646Y0204725D02*
D03*
X0336614Y0208662D02*
D03*
X0334646Y0212598D02*
D03*
X0336614Y0216536D02*
D03*
X0334646Y0220473D02*
D03*
X0338583Y0110236D02*
D03*
X0340551Y0200787D02*
D03*
X0338583Y0204725D02*
D03*
Y0220473D02*
D03*
X0342520Y0110236D02*
D03*
X0348425Y0161417D02*
D03*
X0356299Y0200787D02*
D03*
X0358268Y0133858D02*
D03*
X0360236Y0200787D02*
D03*
X0235945Y0160602D02*
D03*
X0254685Y0157650D02*
D03*
X0253228Y0155445D02*
D03*
X0239331Y0160977D02*
D03*
X0322559Y0145366D02*
D03*
X0312677Y0143004D02*
D03*
X0254567Y0133516D02*
D03*
X0246929Y0134461D02*
D03*
X0249134Y0136153D02*
D03*
D130*
X0297677Y0146016D02*
D03*
X0301417Y0146016D02*
D03*
X0305157Y0146016D02*
D03*
Y0135189D02*
D03*
X0301417D02*
D03*
X0297677D02*
D03*
D131*
X0127717Y0174650D02*
D03*
X0132441D02*
D03*
X0137165D02*
D03*
X0141890D02*
D03*
X0146614D02*
D03*
Y0141185D02*
D03*
X0141890D02*
D03*
X0137165D02*
D03*
X0132441D02*
D03*
X0127717D02*
D03*
D132*
X0153110Y0169728D02*
D03*
Y0165004D02*
D03*
Y0160280D02*
D03*
Y0155555D02*
D03*
Y0150831D02*
D03*
Y0146106D02*
D03*
D133*
X0198602Y0133437D02*
D03*
Y0137177D02*
D03*
Y0140917D02*
D03*
X0187776D02*
D03*
Y0137177D02*
D03*
Y0133437D02*
D03*
D134*
X0271575Y0151823D02*
X0300039D01*
X0264488Y0144736D02*
X0271575Y0151823D01*
X0248691Y0144736D02*
X0264488D01*
X0301417Y0146016D02*
Y0150445D01*
X0300039Y0151823D02*
X0301417Y0150445D01*
X0242992Y0136153D02*
Y0139037D01*
X0248691Y0144736D01*
D135*
X0305157Y0131639D02*
D03*
M02*
