G04 Layer_Color=16711935*
%FSAX25Y25*%
%MOIN*%
G70*
G01*
G75*
%ADD45C,0.00800*%
%ADD49C,0.01000*%
%ADD65C,0.00500*%
%ADD117C,0.00700*%
%ADD118C,0.00600*%
D45*
X0230046Y0165111D02*
G03*
X0228724Y0164643I-0000423J-0000906D01*
G01*
X0234477Y0163045D02*
G03*
X0235806Y0163528I0000423J0000906D01*
G01*
X0235793Y0163500D02*
G03*
X0235309Y0164829I-0000906J0000423D01*
G01*
X0230387Y0168208D02*
G03*
X0230877Y0166895I0000914J-0000407D01*
G01*
X0232297Y0167794D02*
G03*
X0232297Y0167794I-0001000J0000000D01*
G01*
X0234606Y0157554D02*
G03*
X0237929Y0158764I0001057J0002266D01*
G01*
X0240807Y0164937D02*
G03*
X0239598Y0168259I-0002266J0001057D01*
G01*
X0174189Y0194415D02*
X0175853Y0197984D01*
X0172525Y0190847D02*
X0174189Y0194415D01*
X0170861Y0187279D02*
X0172525Y0190847D01*
X0228723Y0164642D01*
X0228717Y0164627D02*
X0228723Y0164642D01*
X0230046Y0165111D02*
X0234477Y0163045D01*
X0230878Y0166895D02*
X0235309Y0164829D01*
X0174189Y0194415D02*
X0230387Y0168210D01*
X0186918Y0179792D02*
X0234606Y0157554D01*
X0237929Y0158764D02*
X0240807Y0164937D01*
X0191910Y0190496D02*
X0239598Y0168259D01*
X0175853Y0197984D02*
X0191910Y0190496D01*
X0170501Y0200479D02*
X0175853Y0197984D01*
X0169669Y0198695D02*
X0170501Y0200479D01*
X0166101Y0200359D02*
X0169669Y0198695D01*
X0162773Y0193223D02*
X0166341Y0191559D01*
X0165509Y0189775D02*
X0166341Y0191559D01*
X0165509Y0189775D02*
X0170861Y0187279D01*
X0186918Y0179792D01*
X0254352Y0161379D02*
X0263272Y0157219D01*
X0249360Y0150674D02*
X0254352Y0161379D01*
X0249360Y0150674D02*
X0258281Y0146515D01*
D49*
X0363504Y0216091D02*
Y0244240D01*
X0107598Y0216091D02*
Y0244240D01*
X0249047Y0243240D02*
X0363504D01*
X0107598D02*
X0218856D01*
X0357504Y0245240D02*
X0363504Y0243240D01*
X0357504Y0241240D02*
X0363504Y0243240D01*
X0107598D02*
X0113598Y0241240D01*
X0107598Y0243240D02*
X0113598Y0245240D01*
X0353480Y0108595D02*
X0385370D01*
X0352890Y0226705D02*
X0385370D01*
X0384370Y0108595D02*
Y0150954D01*
Y0181145D02*
Y0226705D01*
Y0108595D02*
X0386370Y0114594D01*
X0382370D02*
X0384370Y0108595D01*
X0382370Y0220705D02*
X0384370Y0226705D01*
X0386370Y0220705D01*
D65*
X0230627Y0164212D02*
G03*
X0230627Y0164212I-0001000J0000000D01*
G01*
X0235793Y0163500D02*
X0235806Y0163528D01*
X0230387Y0168210D02*
X0230394Y0168224D01*
D117*
X0263364Y0157532D02*
G03*
X0192091Y0190767I-0038268J0010973D01*
G01*
X0186827Y0179479D02*
G03*
X0258100Y0146244I0038268J-0010973D01*
G01*
D118*
X0224454Y0245639D02*
X0222455Y0244639D01*
X0220456Y0242640D01*
Y0240641D01*
X0221455Y0239641D01*
X0223455D01*
X0224454Y0240641D01*
Y0241640D01*
X0223455Y0242640D01*
X0220456D01*
X0230452Y0245639D02*
X0226454D01*
Y0242640D01*
X0228453Y0243640D01*
X0229453D01*
X0230452Y0242640D01*
Y0240641D01*
X0229453Y0239641D01*
X0227453D01*
X0226454Y0240641D01*
X0232452Y0239641D02*
Y0240641D01*
X0233451D01*
Y0239641D01*
X0232452D01*
X0237450Y0244639D02*
X0238450Y0245639D01*
X0240449D01*
X0241449Y0244639D01*
Y0240641D01*
X0240449Y0239641D01*
X0238450D01*
X0237450Y0240641D01*
Y0244639D01*
X0243448D02*
X0244448Y0245639D01*
X0246447D01*
X0247447Y0244639D01*
Y0240641D01*
X0246447Y0239641D01*
X0244448D01*
X0243448Y0240641D01*
Y0244639D01*
X0382971Y0152554D02*
X0381971Y0153554D01*
Y0155553D01*
X0382971Y0156553D01*
X0383970D01*
X0384970Y0155553D01*
Y0154553D01*
Y0155553D01*
X0385970Y0156553D01*
X0386969D01*
X0387969Y0155553D01*
Y0153554D01*
X0386969Y0152554D01*
X0382971Y0158552D02*
X0381971Y0159552D01*
Y0161551D01*
X0382971Y0162551D01*
X0386969D01*
X0387969Y0161551D01*
Y0159552D01*
X0386969Y0158552D01*
X0382971D01*
X0387969Y0164550D02*
X0386969D01*
Y0165550D01*
X0387969D01*
Y0164550D01*
X0382971Y0169548D02*
X0381971Y0170548D01*
Y0172547D01*
X0382971Y0173547D01*
X0386969D01*
X0387969Y0172547D01*
Y0170548D01*
X0386969Y0169548D01*
X0382971D01*
Y0175547D02*
X0381971Y0176546D01*
Y0178546D01*
X0382971Y0179545D01*
X0386969D01*
X0387969Y0178546D01*
Y0176546D01*
X0386969Y0175547D01*
X0382971D01*
M02*
