G04*
G04 #@! TF.GenerationSoftware,Altium Limited,Altium Designer,19.0.14 (431)*
G04*
G04 Layer_Color=65535*
%FSAX25Y25*%
%MOIN*%
G70*
G01*
G75*
%ADD10C,0.00984*%
%ADD11C,0.00394*%
%ADD12C,0.02362*%
%ADD13C,0.01000*%
%ADD14C,0.00027*%
%ADD15C,0.00787*%
%ADD16C,0.00315*%
%ADD17C,0.00591*%
%ADD18C,0.00669*%
D10*
X0239961Y0137610D02*
G03*
X0239961Y0137610I-0000492J0000000D01*
G01*
X0216240Y0165976D02*
G03*
X0216240Y0165976I-0000492J0000000D01*
G01*
X0236693Y0188673D02*
G03*
X0236693Y0188673I-0000492J0000000D01*
G01*
X0293130Y0163319D02*
G03*
X0293130Y0163319I-0000492J0000000D01*
G01*
X0290642Y0164342D02*
G03*
X0290642Y0164342I-0000492J0000000D01*
G01*
X0331319Y0164598D02*
G03*
X0331319Y0164598I-0000492J0000000D01*
G01*
X0323248Y0133398D02*
G03*
X0323248Y0133398I-0000492J0000000D01*
G01*
X0298248Y0146193D02*
G03*
X0298248Y0146193I-0000492J0000000D01*
G01*
X0272026Y0167020D02*
G03*
X0272026Y0167020I-0000492J0000000D01*
G01*
X0236744Y0164579D02*
G03*
X0236744Y0164579I-0000492J0000000D01*
G01*
X0201614Y0188909D02*
G03*
X0201614Y0188909I-0000492J0000000D01*
G01*
X0260322Y0140287D02*
G03*
X0260322Y0140287I-0000440J0000000D01*
G01*
D11*
X0325512Y0141567D02*
G03*
X0325512Y0141567I-0000197J0000000D01*
G01*
X0275512Y0157905D02*
G03*
X0275512Y0157905I-0000197J0000000D01*
G01*
X0124469Y0175150D02*
Y0179283D01*
X0116791D02*
X0124469D01*
X0116791Y0175150D02*
Y0179283D01*
Y0175150D02*
X0124469D01*
X0124665Y0171606D02*
X0128799D01*
Y0179283D01*
X0124665D02*
X0128799D01*
X0124665Y0171606D02*
Y0179283D01*
X0112657Y0171606D02*
X0116791D01*
Y0179283D01*
X0112657D02*
X0116791D01*
X0112657Y0171606D02*
Y0179283D01*
X0125551Y0166705D02*
X0125945D01*
X0131890Y0189736D02*
Y0189854D01*
D12*
X0197480Y0180642D02*
G03*
X0197480Y0180642I-0001181J0000000D01*
G01*
D13*
X0185118Y0141606D02*
G03*
X0185118Y0141606I-0000905J0000000D01*
G01*
X0125945Y0166705D02*
G03*
X0125945Y0166705I-0000394J0000000D01*
G01*
X0132008Y0189854D02*
G03*
X0132008Y0189854I-0000118J0000000D01*
G01*
D14*
X0115798Y0142900D02*
X0116973D01*
X0116073Y0142875D02*
X0116698D01*
X0111698Y0150900D02*
X0117548D01*
X0111673Y0150875D02*
X0117548D01*
X0111673Y0150850D02*
X0117548D01*
X0111648Y0150825D02*
X0117523D01*
X0111648Y0150800D02*
X0117523D01*
X0111623Y0150775D02*
X0117523D01*
X0111623Y0150750D02*
X0117498D01*
X0111598Y0150725D02*
X0117498D01*
X0111598Y0150700D02*
X0117498D01*
X0111573Y0150675D02*
X0117498D01*
X0111573Y0150650D02*
X0117498D01*
X0111548Y0150625D02*
X0117473D01*
X0111548Y0150600D02*
X0117473D01*
X0111523Y0150575D02*
X0117473D01*
X0111523Y0150550D02*
X0117473D01*
X0111523Y0150525D02*
X0117473D01*
X0111498Y0150500D02*
X0117473D01*
X0111498Y0150475D02*
X0117473D01*
X0111473Y0150450D02*
X0117473D01*
X0111473Y0150425D02*
X0117498D01*
X0111473Y0150400D02*
X0117498D01*
X0111448Y0150375D02*
X0117498D01*
X0111448Y0150350D02*
X0117498D01*
X0111423Y0150325D02*
X0117498D01*
X0111423Y0150300D02*
X0117523D01*
X0111423Y0150275D02*
X0117523D01*
X0111398Y0150250D02*
X0117523D01*
X0111398Y0150225D02*
X0117548D01*
X0111373Y0150200D02*
X0117548D01*
X0111373Y0150175D02*
X0117548D01*
X0111373Y0150150D02*
X0117573D01*
X0111348Y0150125D02*
X0117598D01*
X0111348Y0150100D02*
X0117598D01*
X0111348Y0150075D02*
X0117623D01*
X0111323Y0150050D02*
X0115423D01*
X0115723D02*
X0117623D01*
X0111323Y0150025D02*
X0115348D01*
X0115798D02*
X0117648D01*
X0111323Y0150000D02*
X0115298D01*
X0115848D02*
X0117673D01*
X0111298Y0149975D02*
X0115248D01*
X0115898D02*
X0117698D01*
X0111298Y0149950D02*
X0115198D01*
X0115948D02*
X0117698D01*
X0111298Y0149925D02*
X0115173D01*
X0115973D02*
X0117723D01*
X0111298Y0149900D02*
X0115148D01*
X0115998D02*
X0117723D01*
X0111273Y0149875D02*
X0115123D01*
X0116023D02*
X0117748D01*
X0111273Y0149850D02*
X0115098D01*
X0116048D02*
X0117748D01*
X0111273Y0149825D02*
X0115073D01*
X0116073D02*
X0117748D01*
X0111248Y0149800D02*
X0115073D01*
X0116073D02*
X0117748D01*
X0111248Y0149775D02*
X0115048D01*
X0116098D02*
X0117748D01*
X0111248Y0149750D02*
X0115023D01*
X0116123D02*
X0117723D01*
X0111248Y0149725D02*
X0115023D01*
X0116123D02*
X0117723D01*
X0111223Y0149700D02*
X0114998D01*
X0116148D02*
X0117723D01*
X0117898D02*
X0118048D01*
X0111223Y0149675D02*
X0114998D01*
X0116148D02*
X0117698D01*
X0117848D02*
X0118123D01*
X0111223Y0149650D02*
X0114998D01*
X0116148D02*
X0117698D01*
X0117823D02*
X0118198D01*
X0111223Y0149625D02*
X0114973D01*
X0116173D02*
X0117673D01*
X0117798D02*
X0118323D01*
X0111198Y0149600D02*
X0114973D01*
X0116173D02*
X0117673D01*
X0111198Y0149575D02*
X0114973D01*
X0116173D02*
X0117648D01*
X0111198Y0149550D02*
X0114973D01*
X0116198D02*
X0117648D01*
X0111198Y0149525D02*
X0114948D01*
X0116198D02*
X0117623D01*
X0111198Y0149500D02*
X0114948D01*
X0116198D02*
X0117598D01*
X0111173Y0149475D02*
X0114948D01*
X0116198D02*
X0117598D01*
X0111173Y0149450D02*
X0114948D01*
X0116198D02*
X0117573D01*
X0111173Y0149425D02*
X0114948D01*
X0116198D02*
X0117548D01*
X0111173Y0149400D02*
X0114948D01*
X0116198D02*
X0117548D01*
X0111173Y0149375D02*
X0114948D01*
X0116198D02*
X0117523D01*
X0111148Y0149350D02*
X0114973D01*
X0116198D02*
X0117498D01*
X0111148Y0149325D02*
X0114973D01*
X0116173D02*
X0117498D01*
X0111148Y0149300D02*
X0114973D01*
X0116198D02*
X0117473D01*
X0111148Y0149275D02*
X0114973D01*
X0116198D02*
X0117448D01*
X0111148Y0149250D02*
X0114998D01*
X0116223D02*
X0117448D01*
X0111123Y0149225D02*
X0114998D01*
X0116248D02*
X0117423D01*
X0111123Y0149200D02*
X0114998D01*
X0116273D02*
X0117398D01*
X0111123Y0149175D02*
X0115023D01*
X0116323D02*
X0117398D01*
X0111123Y0149150D02*
X0115023D01*
X0116348D02*
X0117373D01*
X0111123Y0149125D02*
X0115048D01*
X0116398D02*
X0117348D01*
X0111123Y0149100D02*
X0115073D01*
X0116423D02*
X0117348D01*
X0111123Y0149075D02*
X0115098D01*
X0116073D02*
X0116198D01*
X0116473D02*
X0117323D01*
X0111098Y0149050D02*
X0115098D01*
X0116048D02*
X0116273D01*
X0116498D02*
X0117298D01*
X0111098Y0149025D02*
X0115123D01*
X0116023D02*
X0116323D01*
X0116548D02*
X0117223D01*
X0111098Y0149000D02*
X0115148D01*
X0115998D02*
X0116373D01*
X0116573D02*
X0117098D01*
X0111098Y0148975D02*
X0115173D01*
X0115973D02*
X0116448D01*
X0116623D02*
X0116998D01*
X0111098Y0148950D02*
X0115223D01*
X0115948D02*
X0116473D01*
X0116648D02*
X0116948D01*
X0111098Y0148925D02*
X0115248D01*
X0115898D02*
X0116523D01*
X0116698D02*
X0116898D01*
X0111098Y0148900D02*
X0115298D01*
X0115848D02*
X0116573D01*
X0111098Y0148875D02*
X0115348D01*
X0115798D02*
X0116623D01*
X0111098Y0148850D02*
X0115423D01*
X0115723D02*
X0116648D01*
X0111098Y0148825D02*
X0116673D01*
X0111098Y0148800D02*
X0116698D01*
X0111073Y0148775D02*
X0116723D01*
X0111073Y0148750D02*
X0111773D01*
X0112023D02*
X0116723D01*
X0111073Y0148725D02*
X0111698D01*
X0112073D02*
X0116723D01*
X0111073Y0148700D02*
X0111648D01*
X0112123D02*
X0116723D01*
X0111073Y0148675D02*
X0111623D01*
X0112173D02*
X0116698D01*
X0111073Y0148650D02*
X0111598D01*
X0112198D02*
X0116698D01*
X0111073Y0148625D02*
X0111573D01*
X0112223D02*
X0116698D01*
X0111073Y0148600D02*
X0111548D01*
X0112248D02*
X0116698D01*
X0111073Y0148575D02*
X0111523D01*
X0112273D02*
X0116698D01*
X0111073Y0148550D02*
X0111498D01*
X0112273D02*
X0116673D01*
X0111073Y0148525D02*
X0111498D01*
X0112298D02*
X0116673D01*
X0111073Y0148500D02*
X0111473D01*
X0112298D02*
X0116673D01*
X0111073Y0148475D02*
X0111473D01*
X0112323D02*
X0116673D01*
X0111073Y0148450D02*
X0111473D01*
X0112323D02*
X0116698D01*
X0111073Y0148425D02*
X0111448D01*
X0112323D02*
X0116698D01*
X0111073Y0148400D02*
X0111448D01*
X0112348D02*
X0116698D01*
X0111073Y0148375D02*
X0111448D01*
X0112348D02*
X0116698D01*
X0111073Y0148350D02*
X0111448D01*
X0112348D02*
X0116723D01*
X0111073Y0148325D02*
X0111448D01*
X0112348D02*
X0116723D01*
X0111073Y0148300D02*
X0111448D01*
X0112348D02*
X0115348D01*
X0115373D02*
X0116723D01*
X0111073Y0148275D02*
X0111448D01*
X0112348D02*
X0115173D01*
X0115548D02*
X0116748D01*
X0111073Y0148250D02*
X0111448D01*
X0112348D02*
X0115098D01*
X0115623D02*
X0116773D01*
X0111073Y0148225D02*
X0111448D01*
X0112348D02*
X0115023D01*
X0115698D02*
X0116773D01*
X0111073Y0148200D02*
X0111448D01*
X0112323D02*
X0113048D01*
X0113123D02*
X0114973D01*
X0115723D02*
X0116798D01*
X0111073Y0148175D02*
X0111473D01*
X0112323D02*
X0112923D01*
X0113248D02*
X0114948D01*
X0115773D02*
X0116823D01*
X0111073Y0148150D02*
X0111473D01*
X0112323D02*
X0112873D01*
X0113298D02*
X0114898D01*
X0115823D02*
X0116848D01*
X0111073Y0148125D02*
X0111498D01*
X0112298D02*
X0112823D01*
X0113348D02*
X0114873D01*
X0115848D02*
X0116873D01*
X0111073Y0148100D02*
X0111498D01*
X0112298D02*
X0112773D01*
X0113398D02*
X0114848D01*
X0115873D02*
X0116898D01*
X0111073Y0148075D02*
X0111523D01*
X0112273D02*
X0112748D01*
X0113423D02*
X0114823D01*
X0115898D02*
X0116948D01*
X0111073Y0148050D02*
X0111523D01*
X0112248D02*
X0112723D01*
X0113448D02*
X0114798D01*
X0115923D02*
X0116998D01*
X0111073Y0148025D02*
X0111548D01*
X0112248D02*
X0112698D01*
X0113473D02*
X0114773D01*
X0115948D02*
X0117073D01*
X0111073Y0148000D02*
X0111573D01*
X0112223D02*
X0112673D01*
X0113498D02*
X0114748D01*
X0111073Y0147975D02*
X0111598D01*
X0112198D02*
X0112648D01*
X0113523D02*
X0114723D01*
X0111073Y0147950D02*
X0111623D01*
X0112148D02*
X0112623D01*
X0113523D02*
X0114698D01*
X0111073Y0147925D02*
X0111673D01*
X0112123D02*
X0112623D01*
X0113548D02*
X0114698D01*
X0111073Y0147900D02*
X0111723D01*
X0112073D02*
X0112598D01*
X0113573D02*
X0114673D01*
X0111073Y0147875D02*
X0111798D01*
X0111998D02*
X0112598D01*
X0113573D02*
X0114673D01*
X0111073Y0147850D02*
X0112573D01*
X0113573D02*
X0114648D01*
X0111098Y0147825D02*
X0112573D01*
X0113598D02*
X0114648D01*
X0111098Y0147800D02*
X0112573D01*
X0113598D02*
X0114623D01*
X0111098Y0147775D02*
X0112548D01*
X0113598D02*
X0114623D01*
X0111098Y0147750D02*
X0112548D01*
X0113623D02*
X0114623D01*
X0111098Y0147725D02*
X0112548D01*
X0113623D02*
X0114598D01*
X0111098Y0147700D02*
X0112548D01*
X0113623D02*
X0114598D01*
X0111098Y0147675D02*
X0112548D01*
X0113623D02*
X0114598D01*
X0111098Y0147650D02*
X0112548D01*
X0113623D02*
X0114573D01*
X0111123Y0147625D02*
X0112548D01*
X0113623D02*
X0114573D01*
X0111123Y0147600D02*
X0112548D01*
X0113623D02*
X0114573D01*
X0111123Y0147575D02*
X0112548D01*
X0113623D02*
X0114573D01*
X0111123Y0147550D02*
X0112548D01*
X0113598D02*
X0114573D01*
X0111123Y0147525D02*
X0112573D01*
X0113598D02*
X0114573D01*
X0111123Y0147500D02*
X0112573D01*
X0113598D02*
X0114573D01*
X0111123Y0147475D02*
X0112573D01*
X0113573D02*
X0114573D01*
X0111123Y0147450D02*
X0112598D01*
X0113573D02*
X0114573D01*
X0111148Y0147425D02*
X0112598D01*
X0113548D02*
X0114573D01*
X0111148Y0147400D02*
X0112623D01*
X0113548D02*
X0114573D01*
X0111148Y0147375D02*
X0112623D01*
X0113523D02*
X0114573D01*
X0111148Y0147350D02*
X0112648D01*
X0113523D02*
X0114598D01*
X0116123D02*
X0118573D01*
X0111148Y0147325D02*
X0112673D01*
X0113498D02*
X0114598D01*
X0116123D02*
X0118498D01*
X0111148Y0147300D02*
X0112698D01*
X0113473D02*
X0114598D01*
X0116123D02*
X0118423D01*
X0111173Y0147275D02*
X0112723D01*
X0113448D02*
X0114598D01*
X0116098D02*
X0118373D01*
X0111173Y0147250D02*
X0112748D01*
X0113423D02*
X0114623D01*
X0116098D02*
X0118348D01*
X0111173Y0147225D02*
X0112773D01*
X0113398D02*
X0114623D01*
X0116098D02*
X0118298D01*
X0111173Y0147200D02*
X0112823D01*
X0113348D02*
X0114648D01*
X0116073D02*
X0118273D01*
X0111198Y0147175D02*
X0112873D01*
X0113298D02*
X0114648D01*
X0116073D02*
X0118248D01*
X0111198Y0147150D02*
X0112923D01*
X0113223D02*
X0114673D01*
X0116048D02*
X0118223D01*
X0111198Y0147125D02*
X0114673D01*
X0116048D02*
X0118198D01*
X0111198Y0147100D02*
X0114698D01*
X0116023D02*
X0118173D01*
X0111198Y0147075D02*
X0114698D01*
X0116023D02*
X0118148D01*
X0111223Y0147050D02*
X0114723D01*
X0115998D02*
X0118148D01*
X0111223Y0147025D02*
X0114748D01*
X0115973D02*
X0118123D01*
X0111223Y0147000D02*
X0114773D01*
X0115948D02*
X0118123D01*
X0111223Y0146975D02*
X0114773D01*
X0115923D02*
X0118098D01*
X0111248Y0146950D02*
X0114823D01*
X0115898D02*
X0118098D01*
X0111248Y0146925D02*
X0114848D01*
X0115873D02*
X0118073D01*
X0111248Y0146900D02*
X0114873D01*
X0115848D02*
X0118073D01*
X0111248Y0146875D02*
X0114898D01*
X0115823D02*
X0118073D01*
X0111248Y0146850D02*
X0114948D01*
X0115773D02*
X0118048D01*
X0111273Y0146825D02*
X0114973D01*
X0115748D02*
X0118048D01*
X0111273Y0146800D02*
X0115023D01*
X0115698D02*
X0118048D01*
X0111273Y0146775D02*
X0115098D01*
X0115648D02*
X0118048D01*
X0111298Y0146750D02*
X0115173D01*
X0115548D02*
X0118023D01*
X0111298Y0146725D02*
X0115323D01*
X0115373D02*
X0118023D01*
X0111298Y0146700D02*
X0118023D01*
X0111323Y0146675D02*
X0118023D01*
X0111323Y0146650D02*
X0118023D01*
X0111323Y0146625D02*
X0118023D01*
X0111348Y0146600D02*
X0118023D01*
X0111348Y0146575D02*
X0118048D01*
X0111348Y0146550D02*
X0118048D01*
X0111373Y0146525D02*
X0118048D01*
X0111373Y0146500D02*
X0118048D01*
X0111373Y0146475D02*
X0118073D01*
X0111398Y0146450D02*
X0113973D01*
X0114198D02*
X0118073D01*
X0111398Y0146425D02*
X0113873D01*
X0114273D02*
X0118073D01*
X0111398Y0146400D02*
X0113823D01*
X0114348D02*
X0118098D01*
X0111423Y0146375D02*
X0113773D01*
X0114373D02*
X0118098D01*
X0111423Y0146350D02*
X0113748D01*
X0114423D02*
X0118123D01*
X0111423Y0146325D02*
X0113723D01*
X0114448D02*
X0118123D01*
X0111448Y0146300D02*
X0113698D01*
X0114473D02*
X0118148D01*
X0111448Y0146275D02*
X0113673D01*
X0114498D02*
X0118173D01*
X0111473Y0146250D02*
X0113648D01*
X0114523D02*
X0118173D01*
X0111473Y0146225D02*
X0113623D01*
X0114548D02*
X0118198D01*
X0111473Y0146200D02*
X0113598D01*
X0114573D02*
X0118223D01*
X0111498Y0146175D02*
X0113598D01*
X0114573D02*
X0118248D01*
X0111498Y0146150D02*
X0113573D01*
X0114598D02*
X0118273D01*
X0111523Y0146125D02*
X0113573D01*
X0114598D02*
X0118323D01*
X0111523Y0146100D02*
X0113548D01*
X0114623D02*
X0118348D01*
X0111548Y0146075D02*
X0113548D01*
X0114623D02*
X0118398D01*
X0111548Y0146050D02*
X0113548D01*
X0114623D02*
X0118448D01*
X0111573Y0146025D02*
X0113523D01*
X0114648D02*
X0118523D01*
X0111573Y0146000D02*
X0113523D01*
X0114648D02*
X0118598D01*
X0111573Y0145975D02*
X0113523D01*
X0111598Y0145950D02*
X0113523D01*
X0111598Y0145925D02*
X0113523D01*
X0111623Y0145900D02*
X0113523D01*
X0111623Y0145875D02*
X0113523D01*
X0111648Y0145850D02*
X0113523D01*
X0111648Y0145825D02*
X0113523D01*
X0111673Y0145800D02*
X0113523D01*
X0111673Y0145775D02*
X0113523D01*
X0111698Y0145750D02*
X0113523D01*
X0111698Y0145725D02*
X0113548D01*
X0111723Y0145700D02*
X0113548D01*
X0111723Y0145675D02*
X0113548D01*
X0111748Y0145650D02*
X0113573D01*
X0111748Y0145625D02*
X0113573D01*
X0111773Y0145600D02*
X0113598D01*
X0111773Y0145575D02*
X0113623D01*
X0111798Y0145550D02*
X0113623D01*
X0111823Y0145525D02*
X0113648D01*
X0111823Y0145500D02*
X0113673D01*
X0111848Y0145475D02*
X0113698D01*
X0111848Y0145450D02*
X0113723D01*
X0111873Y0145425D02*
X0113773D01*
X0111898Y0145400D02*
X0113798D01*
X0111898Y0145375D02*
X0113848D01*
X0111923Y0145350D02*
X0113923D01*
X0111948Y0145325D02*
X0114023D01*
X0113848Y0143525D02*
X0118948D01*
X0113898Y0143500D02*
X0118898D01*
X0113948Y0143475D02*
X0118848D01*
X0113998Y0143450D02*
X0118798D01*
X0114048Y0143425D02*
X0118748D01*
X0114098Y0143400D02*
X0118698D01*
X0114148Y0143375D02*
X0118648D01*
X0114198Y0143350D02*
X0118598D01*
X0114248Y0143325D02*
X0118548D01*
X0114298Y0143300D02*
X0118498D01*
X0114373Y0143275D02*
X0118423D01*
X0114423Y0143250D02*
X0118373D01*
X0114498Y0143225D02*
X0118298D01*
X0114548Y0143200D02*
X0118248D01*
X0114623Y0143175D02*
X0118173D01*
X0114698Y0143150D02*
X0118098D01*
X0114773Y0143125D02*
X0118023D01*
X0114848Y0143100D02*
X0117948D01*
X0114923Y0143075D02*
X0117873D01*
X0115023Y0143050D02*
X0117773D01*
X0115098Y0143025D02*
X0117648D01*
X0115223Y0143000D02*
X0117548D01*
X0115323Y0142975D02*
X0117448D01*
X0115448Y0142950D02*
X0117323D01*
X0116123Y0153775D02*
X0116698D01*
X0115848Y0153750D02*
X0116998D01*
X0115648Y0153725D02*
X0117173D01*
X0115473Y0153700D02*
X0117323D01*
X0115348Y0153675D02*
X0117473D01*
X0115248Y0153650D02*
X0117573D01*
X0115148Y0153625D02*
X0117673D01*
X0115023Y0153600D02*
X0117773D01*
X0114923Y0153575D02*
X0117873D01*
X0114848Y0153550D02*
X0117948D01*
X0114773Y0153525D02*
X0118023D01*
X0114698Y0153500D02*
X0118098D01*
X0114623Y0153475D02*
X0118173D01*
X0114548Y0153450D02*
X0118248D01*
X0114498Y0153425D02*
X0118298D01*
X0114423Y0153400D02*
X0118373D01*
X0114373Y0153375D02*
X0118423D01*
X0114298Y0153350D02*
X0118498D01*
X0114248Y0153325D02*
X0118548D01*
X0114198Y0153300D02*
X0118598D01*
X0114148Y0153275D02*
X0118648D01*
X0114098Y0153250D02*
X0118698D01*
X0114048Y0153225D02*
X0118748D01*
X0113998Y0153200D02*
X0118798D01*
X0113948Y0153175D02*
X0118848D01*
X0113898Y0153150D02*
X0118898D01*
X0113848Y0153125D02*
X0118948D01*
X0112073Y0151525D02*
X0118298D01*
X0112048Y0151500D02*
X0118198D01*
X0112048Y0151475D02*
X0118123D01*
X0112023Y0151450D02*
X0118073D01*
X0111998Y0151425D02*
X0118023D01*
X0111998Y0151400D02*
X0117973D01*
X0111973Y0151375D02*
X0117948D01*
X0111948Y0151350D02*
X0117898D01*
X0111948Y0151325D02*
X0117873D01*
X0111923Y0151300D02*
X0117848D01*
X0111898Y0151275D02*
X0117798D01*
X0111898Y0151250D02*
X0117773D01*
X0111873Y0151225D02*
X0117773D01*
X0111848Y0151200D02*
X0117748D01*
X0111848Y0151175D02*
X0117723D01*
X0111823Y0151150D02*
X0117698D01*
X0111823Y0151125D02*
X0117673D01*
X0111798Y0151100D02*
X0117673D01*
X0111798Y0151075D02*
X0117648D01*
X0111773Y0151050D02*
X0117623D01*
X0111748Y0151025D02*
X0117623D01*
X0111748Y0151000D02*
X0117598D01*
X0111723Y0150975D02*
X0117598D01*
X0111723Y0150950D02*
X0117573D01*
X0119398Y0150900D02*
X0121098D01*
X0119398Y0150875D02*
X0121123D01*
X0119423Y0150850D02*
X0121123D01*
X0119423Y0150825D02*
X0121148D01*
X0119423Y0150800D02*
X0121148D01*
X0119448Y0150775D02*
X0121173D01*
X0119448Y0150750D02*
X0121173D01*
X0119448Y0150725D02*
X0121198D01*
X0119448Y0150700D02*
X0121198D01*
X0119448Y0150675D02*
X0121198D01*
X0119473Y0150650D02*
X0121223D01*
X0119473Y0150625D02*
X0121223D01*
X0119473Y0150600D02*
X0121248D01*
X0119473Y0150575D02*
X0121248D01*
X0119473Y0150550D02*
X0121273D01*
X0119473Y0150525D02*
X0121273D01*
X0119448Y0150500D02*
X0121298D01*
X0119448Y0150475D02*
X0121298D01*
X0119448Y0150450D02*
X0121298D01*
X0119448Y0150425D02*
X0121323D01*
X0119423Y0150400D02*
X0121323D01*
X0119423Y0150375D02*
X0121348D01*
X0119423Y0150350D02*
X0121348D01*
X0119398Y0150325D02*
X0121373D01*
X0119398Y0150300D02*
X0121373D01*
X0119398Y0150275D02*
X0121373D01*
X0119398Y0150250D02*
X0121398D01*
X0119398Y0150225D02*
X0121398D01*
X0119398Y0150200D02*
X0121398D01*
X0119398Y0150175D02*
X0121423D01*
X0119398Y0150150D02*
X0121423D01*
X0119398Y0150125D02*
X0121423D01*
X0119423Y0150100D02*
X0121448D01*
X0119448Y0150075D02*
X0121448D01*
X0119448Y0150050D02*
X0121448D01*
X0119498Y0150025D02*
X0121473D01*
X0119523Y0150000D02*
X0121473D01*
X0119548Y0149975D02*
X0121473D01*
X0119573Y0149950D02*
X0121498D01*
X0119598Y0149925D02*
X0121498D01*
X0119623Y0149900D02*
X0121498D01*
X0119648Y0149875D02*
X0121523D01*
X0119198Y0149850D02*
X0119298D01*
X0119698D02*
X0121523D01*
X0119123Y0149825D02*
X0119348D01*
X0119723D02*
X0121523D01*
X0119098Y0149800D02*
X0119398D01*
X0119748D02*
X0121523D01*
X0119048Y0149775D02*
X0119448D01*
X0119798D02*
X0121548D01*
X0119023Y0149750D02*
X0119498D01*
X0119848D02*
X0121548D01*
X0119898Y0149725D02*
X0121548D01*
X0119948Y0149700D02*
X0121548D01*
X0119998Y0149675D02*
X0121573D01*
X0120048Y0149650D02*
X0121573D01*
X0120098Y0149625D02*
X0121573D01*
X0120123Y0149600D02*
X0120498D01*
X0120748D02*
X0121573D01*
X0120173Y0149575D02*
X0120398D01*
X0120823D02*
X0121573D01*
X0120873Y0149550D02*
X0121598D01*
X0120898Y0149525D02*
X0121598D01*
X0120923Y0149500D02*
X0121598D01*
X0120973Y0149475D02*
X0121598D01*
X0120973Y0149450D02*
X0121623D01*
X0120998Y0149425D02*
X0121623D01*
X0121023Y0149400D02*
X0121623D01*
X0121023Y0149375D02*
X0121623D01*
X0121048Y0149350D02*
X0121623D01*
X0121048Y0149325D02*
X0121648D01*
X0121073Y0149300D02*
X0121648D01*
X0121073Y0149275D02*
X0121648D01*
X0121073Y0149250D02*
X0121648D01*
X0121098Y0149225D02*
X0121648D01*
X0121098Y0149200D02*
X0121648D01*
X0121098Y0149175D02*
X0121673D01*
X0121098Y0149150D02*
X0121673D01*
X0121098Y0149125D02*
X0121673D01*
X0121098Y0149100D02*
X0121673D01*
X0121098Y0149075D02*
X0121673D01*
X0121073Y0149050D02*
X0121673D01*
X0121073Y0149025D02*
X0121673D01*
X0121073Y0149000D02*
X0121673D01*
X0121048Y0148975D02*
X0121698D01*
X0121048Y0148950D02*
X0121698D01*
X0121023Y0148925D02*
X0121698D01*
X0121023Y0148900D02*
X0121698D01*
X0120998Y0148875D02*
X0121698D01*
X0120973Y0148850D02*
X0121698D01*
X0120948Y0148825D02*
X0121698D01*
X0120923Y0148800D02*
X0121698D01*
X0120898Y0148775D02*
X0121723D01*
X0120873Y0148750D02*
X0121723D01*
X0120823Y0148725D02*
X0121723D01*
X0120748Y0148700D02*
X0121723D01*
X0120798Y0148300D02*
X0121723D01*
X0120848Y0148275D02*
X0121723D01*
X0120898Y0148250D02*
X0121723D01*
X0120923Y0148225D02*
X0121723D01*
X0120948Y0148200D02*
X0121723D01*
X0120973Y0148175D02*
X0121723D01*
X0120973Y0148150D02*
X0121723D01*
X0120973Y0148125D02*
X0121723D01*
X0120973Y0148100D02*
X0121723D01*
X0120998Y0148075D02*
X0121723D01*
X0120998Y0148050D02*
X0121723D01*
X0120998Y0148025D02*
X0121723D01*
X0120998Y0148000D02*
X0121723D01*
X0120998Y0147975D02*
X0121723D01*
X0120998Y0147950D02*
X0121723D01*
X0120998Y0147925D02*
X0121723D01*
X0120998Y0147900D02*
X0121698D01*
X0120998Y0147875D02*
X0121698D01*
X0120998Y0147850D02*
X0121698D01*
X0120998Y0147825D02*
X0121698D01*
X0120998Y0147800D02*
X0121698D01*
X0120998Y0147775D02*
X0121698D01*
X0120998Y0147750D02*
X0121698D01*
X0120998Y0147725D02*
X0121698D01*
X0120998Y0147700D02*
X0121698D01*
X0120998Y0147675D02*
X0121698D01*
X0120998Y0147650D02*
X0121698D01*
X0120998Y0147625D02*
X0121698D01*
X0120998Y0147600D02*
X0121673D01*
X0120998Y0147575D02*
X0121673D01*
X0120998Y0147550D02*
X0121673D01*
X0120998Y0147525D02*
X0121673D01*
X0120998Y0147500D02*
X0121673D01*
X0120998Y0147475D02*
X0121673D01*
X0120998Y0147450D02*
X0121673D01*
X0120998Y0147425D02*
X0121648D01*
X0120998Y0147400D02*
X0121648D01*
X0120998Y0147375D02*
X0121648D01*
X0120998Y0147350D02*
X0121648D01*
X0120998Y0147325D02*
X0121648D01*
X0120998Y0147300D02*
X0121648D01*
X0119048Y0147275D02*
X0120298D01*
X0120998D02*
X0121623D01*
X0119098Y0147250D02*
X0120298D01*
X0120998D02*
X0121623D01*
X0119123Y0147225D02*
X0120298D01*
X0120998D02*
X0121623D01*
X0119148Y0147200D02*
X0120298D01*
X0120998D02*
X0121623D01*
X0119198Y0147175D02*
X0120298D01*
X0120998D02*
X0121623D01*
X0119223Y0147150D02*
X0120298D01*
X0120998D02*
X0121598D01*
X0119223Y0147125D02*
X0120298D01*
X0120998D02*
X0121598D01*
X0119248Y0147100D02*
X0120298D01*
X0120998D02*
X0121598D01*
X0119273Y0147075D02*
X0120298D01*
X0120998D02*
X0121598D01*
X0119298Y0147050D02*
X0120298D01*
X0120998D02*
X0121573D01*
X0119298Y0147025D02*
X0120298D01*
X0120998D02*
X0121573D01*
X0119323Y0147000D02*
X0120298D01*
X0120998D02*
X0121573D01*
X0119323Y0146975D02*
X0120298D01*
X0120998D02*
X0121573D01*
X0119348Y0146950D02*
X0120298D01*
X0120998D02*
X0121573D01*
X0119348Y0146925D02*
X0120298D01*
X0120998D02*
X0121548D01*
X0119373Y0146900D02*
X0120298D01*
X0120998D02*
X0121548D01*
X0119373Y0146875D02*
X0120298D01*
X0120998D02*
X0121548D01*
X0119373Y0146850D02*
X0120298D01*
X0120998D02*
X0121523D01*
X0119398Y0146825D02*
X0120298D01*
X0120998D02*
X0121523D01*
X0119398Y0146800D02*
X0120298D01*
X0120998D02*
X0121523D01*
X0119398Y0146775D02*
X0120298D01*
X0120998D02*
X0121523D01*
X0119398Y0146750D02*
X0120298D01*
X0120998D02*
X0121498D01*
X0119398Y0146725D02*
X0120298D01*
X0120998D02*
X0121498D01*
X0119398Y0146700D02*
X0120298D01*
X0120998D02*
X0121498D01*
X0119398Y0146675D02*
X0120298D01*
X0120998D02*
X0121473D01*
X0119398Y0146650D02*
X0120298D01*
X0120998D02*
X0121473D01*
X0119398Y0146625D02*
X0120298D01*
X0120998D02*
X0121473D01*
X0119398Y0146600D02*
X0120298D01*
X0120998D02*
X0121448D01*
X0119398Y0146575D02*
X0120298D01*
X0120998D02*
X0121448D01*
X0119398Y0146550D02*
X0120298D01*
X0120998D02*
X0121448D01*
X0119398Y0146525D02*
X0120298D01*
X0120998D02*
X0121423D01*
X0119373Y0146500D02*
X0120298D01*
X0120998D02*
X0121423D01*
X0119373Y0146475D02*
X0120298D01*
X0120998D02*
X0121423D01*
X0119373Y0146450D02*
X0120298D01*
X0120998D02*
X0121398D01*
X0119348Y0146425D02*
X0120298D01*
X0120998D02*
X0121398D01*
X0119348Y0146400D02*
X0120298D01*
X0120998D02*
X0121398D01*
X0119323Y0146375D02*
X0120298D01*
X0120998D02*
X0121373D01*
X0119323Y0146350D02*
X0120298D01*
X0120998D02*
X0121373D01*
X0119298Y0146325D02*
X0120298D01*
X0120998D02*
X0121373D01*
X0119298Y0146300D02*
X0120298D01*
X0120998D02*
X0121348D01*
X0119273Y0146275D02*
X0120298D01*
X0120998D02*
X0121348D01*
X0119248Y0146250D02*
X0120298D01*
X0120998D02*
X0121323D01*
X0119223Y0146225D02*
X0120298D01*
X0120998D02*
X0121323D01*
X0119198Y0146200D02*
X0120298D01*
X0120998D02*
X0121323D01*
X0119173Y0146175D02*
X0120298D01*
X0120998D02*
X0121298D01*
X0119148Y0146150D02*
X0120298D01*
X0120998D02*
X0121298D01*
X0119123Y0146125D02*
X0120298D01*
X0120998D02*
X0121273D01*
X0119098Y0146100D02*
X0120298D01*
X0120998D02*
X0121273D01*
X0119048Y0146075D02*
X0120298D01*
X0120998D02*
X0121248D01*
X0120998Y0146050D02*
X0121248D01*
X0120998Y0146025D02*
X0121248D01*
X0120998Y0146000D02*
X0121223D01*
X0120998Y0145975D02*
X0121223D01*
X0120998Y0145950D02*
X0121198D01*
X0120998Y0145925D02*
X0121198D01*
X0120998Y0145900D02*
X0121173D01*
X0120998Y0145875D02*
X0121173D01*
X0120998Y0145850D02*
X0121148D01*
X0120998Y0145825D02*
X0121148D01*
X0120998Y0145800D02*
X0121123D01*
X0120998Y0145775D02*
X0121123D01*
X0120998Y0145750D02*
X0121098D01*
X0120998Y0145725D02*
X0121098D01*
X0120998Y0145700D02*
X0121073D01*
X0120998Y0145675D02*
X0121073D01*
X0120998Y0145650D02*
X0121048D01*
X0120998Y0145625D02*
X0121048D01*
X0120998Y0145600D02*
X0121023D01*
X0119023Y0151375D02*
X0120823D01*
X0119073Y0151350D02*
X0120848D01*
X0119098Y0151325D02*
X0120848D01*
X0119123Y0151300D02*
X0120873D01*
X0119148Y0151275D02*
X0120898D01*
X0119173Y0151250D02*
X0120898D01*
X0119198Y0151225D02*
X0120923D01*
X0119223Y0151200D02*
X0120923D01*
X0119248Y0151175D02*
X0120948D01*
X0119273Y0151150D02*
X0120973D01*
X0119298Y0151125D02*
X0120973D01*
X0119298Y0151100D02*
X0120998D01*
X0119323Y0151075D02*
X0120998D01*
X0119323Y0151050D02*
X0121023D01*
X0119348Y0151025D02*
X0121048D01*
X0119348Y0151000D02*
X0121048D01*
X0119373Y0150975D02*
X0121073D01*
X0119373Y0150950D02*
X0121073D01*
X0111698Y0150925D02*
X0117573D01*
X0115598Y0142925D02*
X0117148D01*
X0119398Y0150925D02*
X0121098D01*
X0118973Y0149725D02*
X0119548D01*
X0118923Y0149700D02*
X0119598D01*
X0118873Y0149675D02*
X0119648D01*
X0118773Y0149650D02*
X0119673D01*
X0118673Y0149625D02*
X0119723D01*
X0117773Y0149600D02*
X0119773D01*
X0117773Y0149575D02*
X0119823D01*
X0117748Y0149550D02*
X0119848D01*
X0117723Y0149525D02*
X0119898D01*
X0117723Y0149500D02*
X0119923D01*
X0117698Y0149475D02*
X0119973D01*
X0117673Y0149450D02*
X0120023D01*
X0117673Y0149425D02*
X0120048D01*
X0117648Y0149400D02*
X0120073D01*
X0117623Y0149375D02*
X0120098D01*
X0117623Y0149350D02*
X0120123D01*
X0117598Y0149325D02*
X0120123D01*
X0117598Y0149300D02*
X0120148D01*
X0117573Y0149275D02*
X0120148D01*
X0117548Y0149250D02*
X0120148D01*
X0117548Y0149225D02*
X0120173D01*
X0117523Y0149200D02*
X0120173D01*
X0117523Y0149175D02*
X0120173D01*
X0117523Y0149150D02*
X0120173D01*
X0117498Y0149125D02*
X0120198D01*
X0117498Y0149100D02*
X0120198D01*
X0117498Y0149075D02*
X0120198D01*
X0117498Y0149050D02*
X0120223D01*
X0117498Y0149025D02*
X0120223D01*
X0117498Y0149000D02*
X0120223D01*
X0117498Y0148975D02*
X0120248D01*
X0117498Y0148950D02*
X0120248D01*
X0117523Y0148925D02*
X0120248D01*
X0117523Y0148900D02*
X0120273D01*
X0117548Y0148875D02*
X0120273D01*
X0117573Y0148850D02*
X0120298D01*
X0117573Y0148825D02*
X0120298D01*
X0117598Y0148800D02*
X0120323D01*
X0117623Y0148775D02*
X0120348D01*
X0117623Y0148750D02*
X0120373D01*
X0117623Y0148725D02*
X0120423D01*
X0117648Y0148700D02*
X0120498D01*
X0117648Y0148675D02*
X0121723D01*
X0117673Y0148650D02*
X0121723D01*
X0117673Y0148625D02*
X0121723D01*
X0117673Y0148600D02*
X0121723D01*
X0117673Y0148575D02*
X0121723D01*
X0117673Y0148550D02*
X0121723D01*
X0117673Y0148525D02*
X0121723D01*
X0117673Y0148500D02*
X0121723D01*
X0117673Y0148475D02*
X0121723D01*
X0117673Y0148450D02*
X0121723D01*
X0117673Y0148425D02*
X0121723D01*
X0117673Y0148400D02*
X0121723D01*
X0117673Y0148375D02*
X0121723D01*
X0117648Y0148350D02*
X0121723D01*
X0117648Y0148325D02*
X0121723D01*
X0117648Y0148300D02*
X0120473D01*
X0117623Y0148275D02*
X0120398D01*
X0117623Y0148250D02*
X0120373D01*
X0117598Y0148225D02*
X0120348D01*
X0117573Y0148200D02*
X0120323D01*
X0117548Y0148175D02*
X0120323D01*
X0117523Y0148150D02*
X0120298D01*
X0117498Y0148125D02*
X0120298D01*
X0117473Y0148100D02*
X0120298D01*
X0117423Y0148075D02*
X0120298D01*
X0117373Y0148050D02*
X0120298D01*
X0117298Y0148025D02*
X0120298D01*
X0115973Y0148000D02*
X0120298D01*
X0115998Y0147975D02*
X0120298D01*
X0115998Y0147950D02*
X0120298D01*
X0116023Y0147925D02*
X0120298D01*
X0116048Y0147900D02*
X0120298D01*
X0116048Y0147875D02*
X0120298D01*
X0116073Y0147850D02*
X0120298D01*
X0116073Y0147825D02*
X0120298D01*
X0116098Y0147800D02*
X0120298D01*
X0116098Y0147775D02*
X0120298D01*
X0116098Y0147750D02*
X0120298D01*
X0116123Y0147725D02*
X0120298D01*
X0116123Y0147700D02*
X0120298D01*
X0116123Y0147675D02*
X0120298D01*
X0116123Y0147650D02*
X0120298D01*
X0116148Y0147625D02*
X0120298D01*
X0116148Y0147600D02*
X0120298D01*
X0116148Y0147575D02*
X0120298D01*
X0116148Y0147550D02*
X0120298D01*
X0116148Y0147525D02*
X0120298D01*
X0116148Y0147500D02*
X0120298D01*
X0116148Y0147475D02*
X0120298D01*
X0116148Y0147450D02*
X0120298D01*
X0116148Y0147425D02*
X0120298D01*
X0116148Y0147400D02*
X0120298D01*
X0116123Y0147375D02*
X0120298D01*
X0118873Y0147350D02*
X0120298D01*
X0118948Y0147325D02*
X0120298D01*
X0118998Y0147300D02*
X0120298D01*
X0118998Y0146050D02*
X0120298D01*
X0118923Y0146025D02*
X0120298D01*
X0118848Y0146000D02*
X0120298D01*
X0114648Y0145975D02*
X0120298D01*
X0114648Y0145950D02*
X0120298D01*
X0114648Y0145925D02*
X0120298D01*
X0114648Y0145900D02*
X0120298D01*
X0114648Y0145875D02*
X0120298D01*
X0114648Y0145850D02*
X0120298D01*
X0114648Y0145825D02*
X0120298D01*
X0114648Y0145800D02*
X0120298D01*
X0114648Y0145775D02*
X0120298D01*
X0114648Y0145750D02*
X0120298D01*
X0114623Y0145725D02*
X0120298D01*
X0114623Y0145700D02*
X0120298D01*
X0114623Y0145675D02*
X0120298D01*
X0114598Y0145650D02*
X0120298D01*
X0114598Y0145625D02*
X0120298D01*
X0114573Y0145600D02*
X0120298D01*
X0114548Y0145575D02*
X0120298D01*
X0114548Y0145550D02*
X0120298D01*
X0114523Y0145525D02*
X0120298D01*
X0114498Y0145500D02*
X0120298D01*
X0114473Y0145475D02*
X0120298D01*
X0114448Y0145450D02*
X0120298D01*
X0114398Y0145425D02*
X0120298D01*
X0114373Y0145400D02*
X0120298D01*
X0114323Y0145375D02*
X0120298D01*
X0114248Y0145350D02*
X0120298D01*
X0114148Y0145325D02*
X0120298D01*
X0111948Y0145300D02*
X0120298D01*
X0111973Y0145275D02*
X0120298D01*
X0111973Y0145250D02*
X0120298D01*
X0111998Y0145225D02*
X0120298D01*
X0112023Y0145200D02*
X0120298D01*
X0112023Y0145175D02*
X0120298D01*
X0112048Y0145150D02*
X0120298D01*
X0112073Y0145125D02*
X0120298D01*
X0112098Y0145100D02*
X0120298D01*
X0112098Y0145075D02*
X0120298D01*
X0112123Y0145050D02*
X0120298D01*
X0112148Y0145025D02*
X0120298D01*
X0112173Y0145000D02*
X0120298D01*
X0112173Y0144975D02*
X0120298D01*
X0112198Y0144950D02*
X0120298D01*
X0112223Y0144925D02*
X0120298D01*
X0112248Y0144900D02*
X0120298D01*
X0112248Y0144875D02*
X0120298D01*
X0112273Y0144850D02*
X0120298D01*
X0112298Y0144825D02*
X0120298D01*
X0112323Y0144800D02*
X0120298D01*
X0112348Y0144775D02*
X0120298D01*
X0112348Y0144750D02*
X0120298D01*
X0112373Y0144725D02*
X0120298D01*
X0112398Y0144700D02*
X0120298D01*
X0112423Y0144675D02*
X0120298D01*
X0112448Y0144650D02*
X0120298D01*
X0112473Y0144625D02*
X0120298D01*
X0112498Y0144600D02*
X0120298D01*
X0112523Y0144575D02*
X0120273D01*
X0112548Y0144550D02*
X0120248D01*
X0112573Y0144525D02*
X0120223D01*
X0112598Y0144500D02*
X0120198D01*
X0112598Y0144475D02*
X0120173D01*
X0112623Y0144450D02*
X0120148D01*
X0112648Y0144425D02*
X0120123D01*
X0112673Y0144400D02*
X0120098D01*
X0112698Y0144375D02*
X0120073D01*
X0112723Y0144350D02*
X0120048D01*
X0112773Y0144325D02*
X0120023D01*
X0112798Y0144300D02*
X0119998D01*
X0112823Y0144275D02*
X0119973D01*
X0112848Y0144250D02*
X0119948D01*
X0112873Y0144225D02*
X0119923D01*
X0112898Y0144200D02*
X0119898D01*
X0112923Y0144175D02*
X0119873D01*
X0112948Y0144150D02*
X0119848D01*
X0112973Y0144125D02*
X0119798D01*
X0113023Y0144100D02*
X0119773D01*
X0113048Y0144075D02*
X0119748D01*
X0113073Y0144050D02*
X0119723D01*
X0113098Y0144025D02*
X0119698D01*
X0113148Y0144000D02*
X0119648D01*
X0113173Y0143975D02*
X0119623D01*
X0113198Y0143950D02*
X0119598D01*
X0113223Y0143925D02*
X0119548D01*
X0113273Y0143900D02*
X0119523D01*
X0113298Y0143875D02*
X0119498D01*
X0113323Y0143850D02*
X0119473D01*
X0113373Y0143825D02*
X0119423D01*
X0113398Y0143800D02*
X0119398D01*
X0113448Y0143775D02*
X0119348D01*
X0113473Y0143750D02*
X0119323D01*
X0113523Y0143725D02*
X0119273D01*
X0113548Y0143700D02*
X0119248D01*
X0113598Y0143675D02*
X0119198D01*
X0113648Y0143650D02*
X0119148D01*
X0113673Y0143625D02*
X0119123D01*
X0113723Y0143600D02*
X0119073D01*
X0113773Y0143575D02*
X0119048D01*
X0113798Y0143550D02*
X0118998D01*
X0113798Y0153100D02*
X0118998D01*
X0113748Y0153075D02*
X0119023D01*
X0113723Y0153050D02*
X0119073D01*
X0113673Y0153025D02*
X0119123D01*
X0113648Y0153000D02*
X0119148D01*
X0113598Y0152975D02*
X0119198D01*
X0113548Y0152950D02*
X0119223D01*
X0113523Y0152925D02*
X0119273D01*
X0113473Y0152900D02*
X0119298D01*
X0113448Y0152875D02*
X0119348D01*
X0113398Y0152850D02*
X0119373D01*
X0113373Y0152825D02*
X0119423D01*
X0113323Y0152800D02*
X0119448D01*
X0113298Y0152775D02*
X0119498D01*
X0113273Y0152750D02*
X0119523D01*
X0113223Y0152725D02*
X0119548D01*
X0113198Y0152700D02*
X0119598D01*
X0113173Y0152675D02*
X0119623D01*
X0113123Y0152650D02*
X0119648D01*
X0113098Y0152625D02*
X0119698D01*
X0113073Y0152600D02*
X0119723D01*
X0113048Y0152575D02*
X0119748D01*
X0113023Y0152550D02*
X0119773D01*
X0112973Y0152525D02*
X0119798D01*
X0112948Y0152500D02*
X0119848D01*
X0112923Y0152475D02*
X0119873D01*
X0112898Y0152450D02*
X0119898D01*
X0112873Y0152425D02*
X0119923D01*
X0112848Y0152400D02*
X0119948D01*
X0112823Y0152375D02*
X0119973D01*
X0112798Y0152350D02*
X0119998D01*
X0112773Y0152325D02*
X0120023D01*
X0112723Y0152300D02*
X0120048D01*
X0112698Y0152275D02*
X0120073D01*
X0112673Y0152250D02*
X0120098D01*
X0112648Y0152225D02*
X0120123D01*
X0112648Y0152200D02*
X0120148D01*
X0112623Y0152175D02*
X0120173D01*
X0112598Y0152150D02*
X0120198D01*
X0112573Y0152125D02*
X0120223D01*
X0112548Y0152100D02*
X0120248D01*
X0112523Y0152075D02*
X0120273D01*
X0112498Y0152050D02*
X0120298D01*
X0112473Y0152025D02*
X0120323D01*
X0112448Y0152000D02*
X0120348D01*
X0112423Y0151975D02*
X0120373D01*
X0112398Y0151950D02*
X0120398D01*
X0112373Y0151925D02*
X0120423D01*
X0112373Y0151900D02*
X0120423D01*
X0112348Y0151875D02*
X0120448D01*
X0112323Y0151850D02*
X0120473D01*
X0112298Y0151825D02*
X0120498D01*
X0112273Y0151800D02*
X0120523D01*
X0112248Y0151775D02*
X0120523D01*
X0112248Y0151750D02*
X0120548D01*
X0112223Y0151725D02*
X0120573D01*
X0112198Y0151700D02*
X0120598D01*
X0112173Y0151675D02*
X0120623D01*
X0112173Y0151650D02*
X0120623D01*
X0112148Y0151625D02*
X0120648D01*
X0112123Y0151600D02*
X0120673D01*
X0112098Y0151575D02*
X0120698D01*
X0112098Y0151550D02*
X0120698D01*
X0118673Y0151525D02*
X0120723D01*
X0118773Y0151500D02*
X0120748D01*
X0118848Y0151475D02*
X0120748D01*
X0118898Y0151450D02*
X0120773D01*
X0118948Y0151425D02*
X0120798D01*
X0118998Y0151400D02*
X0120798D01*
D15*
X0163069Y0137059D02*
X0175707D01*
X0161967Y0135957D02*
X0163069Y0137059D01*
X0161967Y0135917D02*
Y0135957D01*
X0253805Y0186490D02*
X0259305D01*
X0253805Y0174990D02*
Y0186490D01*
Y0174990D02*
X0259305D01*
Y0186490D01*
X0246850Y0124224D02*
Y0136429D01*
X0242913Y0124224D02*
Y0136429D01*
Y0124224D02*
X0246850D01*
X0242913Y0136429D02*
X0246850D01*
X0202559Y0158595D02*
X0214764D01*
X0202559Y0162531D02*
X0214764D01*
X0202559Y0158595D02*
Y0162531D01*
X0214764Y0158595D02*
Y0162531D01*
X0202911Y0151896D02*
X0214411D01*
Y0146396D02*
Y0151896D01*
X0202911Y0146396D02*
X0214411D01*
X0202911D02*
Y0151896D01*
X0228819Y0189657D02*
Y0201862D01*
X0232756Y0189657D02*
Y0201862D01*
X0228819D02*
X0232756D01*
X0228819Y0189657D02*
X0232756D01*
X0248077Y0190600D02*
Y0202100D01*
X0253577D01*
Y0190600D02*
Y0202100D01*
X0248077Y0190600D02*
X0253577D01*
X0283059Y0139413D02*
Y0145413D01*
X0272059Y0139413D02*
X0283059D01*
X0272059D02*
Y0145413D01*
X0283059D01*
X0189427Y0149159D02*
X0200927D01*
Y0143659D02*
Y0149159D01*
X0189427Y0143659D02*
X0200927D01*
X0189427D02*
Y0149159D01*
X0189447Y0143667D02*
X0200947D01*
Y0138167D02*
Y0143667D01*
X0189447Y0138167D02*
X0200947D01*
X0189447D02*
Y0143667D01*
X0189447Y0154652D02*
X0200947D01*
Y0149152D02*
Y0154652D01*
X0189447Y0149152D02*
X0200947D01*
X0189447D02*
Y0154652D01*
X0140551Y0121862D02*
X0170551D01*
X0140551Y0111862D02*
Y0121862D01*
Y0111862D02*
X0170551D01*
Y0121862D01*
X0119685Y0182973D02*
X0123622D01*
X0123622Y0184154D02*
X0123622Y0182973D01*
X0110236Y0182973D02*
Y0184154D01*
Y0182973D02*
X0114173D01*
X0123622Y0194390D02*
Y0195177D01*
X0110236D02*
X0123622D01*
X0110236Y0194390D02*
Y0195177D01*
X0228457Y0177032D02*
Y0188031D01*
Y0177032D02*
X0234457D01*
Y0188031D01*
X0228457D02*
X0234457D01*
X0197236Y0124236D02*
Y0135236D01*
Y0124236D02*
X0203236D01*
Y0135236D01*
X0197236D02*
X0203236D01*
X0334221Y0188528D02*
Y0199528D01*
X0328221D02*
X0334221D01*
X0328221Y0188528D02*
Y0199528D01*
Y0188528D02*
X0334221D01*
X0321528D02*
Y0199528D01*
Y0188528D02*
X0327528D01*
Y0199528D01*
X0321528D02*
X0327528D01*
X0320835Y0188528D02*
Y0199528D01*
X0314835D02*
X0320835D01*
X0314835Y0188528D02*
Y0199528D01*
Y0188528D02*
X0320835D01*
X0314142D02*
Y0199528D01*
X0308142D02*
X0314142D01*
X0308142Y0188528D02*
Y0199528D01*
Y0188528D02*
X0314142D01*
X0299921Y0149343D02*
Y0151902D01*
X0295591Y0149343D02*
X0299921D01*
Y0158988D02*
Y0161547D01*
X0295591D02*
X0299921D01*
X0304449Y0182610D02*
X0306417D01*
X0304449Y0166075D02*
X0306417D01*
X0289882Y0182610D02*
X0291850D01*
X0289882Y0166075D02*
X0291850D01*
X0306417D02*
Y0182610D01*
X0289882Y0166075D02*
Y0182610D01*
X0307268Y0186240D02*
Y0200240D01*
X0299268D02*
X0307268D01*
X0299268Y0186240D02*
Y0200240D01*
Y0186240D02*
X0307268D01*
X0298213D02*
Y0200240D01*
X0290213D02*
X0298213D01*
X0290213Y0186240D02*
Y0200240D01*
Y0186240D02*
X0298213D01*
X0277295Y0159531D02*
X0288295D01*
Y0165532D01*
X0277295D02*
X0288295D01*
X0277295Y0159531D02*
Y0165532D01*
X0260008Y0192909D02*
X0274008D01*
X0260008Y0184909D02*
Y0192909D01*
Y0184909D02*
X0274008D01*
Y0192909D01*
X0259929Y0200941D02*
X0273929D01*
X0259929Y0192941D02*
Y0200941D01*
Y0192941D02*
X0273929D01*
Y0200941D01*
X0340520Y0188528D02*
Y0199528D01*
X0334520D02*
X0340520D01*
X0334520Y0188528D02*
Y0199528D01*
Y0188528D02*
X0340520D01*
X0352205Y0188673D02*
X0362205D01*
Y0148673D02*
Y0188673D01*
X0352205Y0148673D02*
Y0188673D01*
Y0148673D02*
X0362205D01*
X0329350Y0166370D02*
Y0168142D01*
X0327579Y0166370D02*
X0329350D01*
X0311831D02*
X0313602D01*
X0311831D02*
Y0168142D01*
Y0182118D02*
Y0183890D01*
X0313602D01*
X0329350Y0182118D02*
Y0183890D01*
X0327579D02*
X0329350D01*
X0340520Y0176323D02*
Y0187323D01*
X0334520D02*
X0340520D01*
X0334520Y0176323D02*
Y0187323D01*
Y0176323D02*
X0340520D01*
X0337138Y0174980D02*
X0348138D01*
X0337138Y0168980D02*
Y0174980D01*
Y0168980D02*
X0348138D01*
Y0174980D01*
X0337138Y0162287D02*
X0348138D01*
Y0168287D01*
X0337138D02*
X0348138D01*
X0337138Y0162287D02*
Y0168287D01*
X0335244Y0154807D02*
Y0160807D01*
X0336244Y0154807D02*
Y0160807D01*
X0335244D02*
X0348244D01*
Y0154807D02*
Y0160807D01*
X0335244Y0154807D02*
X0348244D01*
X0321315Y0148445D02*
Y0162445D01*
Y0148445D02*
X0329315D01*
Y0162445D01*
X0321315D02*
X0329315D01*
X0314691Y0148907D02*
Y0160407D01*
X0320191D01*
Y0148907D02*
Y0160407D01*
X0314691Y0148907D02*
X0320191D01*
X0306423Y0152451D02*
Y0163951D01*
X0311923D01*
Y0152451D02*
Y0163951D01*
X0306423Y0152451D02*
X0311923D01*
X0340669Y0134579D02*
Y0135366D01*
X0326496Y0134579D02*
X0340669D01*
X0326496D02*
Y0135366D01*
Y0141665D02*
Y0142453D01*
X0340669D01*
Y0141665D02*
Y0142453D01*
X0343575Y0135772D02*
Y0146772D01*
Y0135772D02*
X0349575D01*
Y0146772D01*
X0343575D02*
X0349575D01*
X0302874Y0143043D02*
Y0143831D01*
X0320197Y0143043D02*
Y0143831D01*
X0302874Y0133201D02*
Y0133988D01*
X0320197Y0133201D02*
Y0133988D01*
X0302874Y0143831D02*
X0320197D01*
X0302874Y0133201D02*
X0320197D01*
X0287323Y0126311D02*
X0288110Y0126311D01*
X0287323Y0143634D02*
X0288110Y0143634D01*
X0297165Y0126311D02*
X0297953Y0126311D01*
X0297165Y0143634D02*
X0297953Y0143634D01*
X0287323Y0126311D02*
Y0143634D01*
X0297953Y0126311D02*
Y0143634D01*
X0277677Y0158595D02*
X0284764D01*
X0277677Y0153083D02*
X0284764D01*
X0277677Y0157905D02*
Y0158595D01*
X0284764Y0157905D02*
Y0158595D01*
X0277677Y0153083D02*
Y0153772D01*
X0284764Y0153083D02*
Y0153772D01*
X0277295Y0172224D02*
X0288295D01*
X0277295Y0166224D02*
Y0172224D01*
Y0166224D02*
X0288295D01*
Y0172224D01*
X0277295Y0180098D02*
X0288295D01*
X0277295Y0174098D02*
Y0180098D01*
Y0174098D02*
X0288295D01*
Y0180098D01*
X0272254Y0168713D02*
Y0170386D01*
X0271565Y0168713D02*
X0272254D01*
X0260837D02*
X0261526D01*
X0260837D02*
Y0170386D01*
Y0180425D02*
Y0182098D01*
X0261526D01*
X0272254Y0180425D02*
Y0182098D01*
X0271565D02*
X0272254D01*
X0250551Y0182846D02*
X0252520D01*
X0250551Y0166311D02*
X0252520D01*
X0235984Y0182846D02*
X0237953D01*
X0235984Y0166311D02*
X0237953D01*
X0252520D02*
Y0182846D01*
X0235984Y0166311D02*
Y0182846D01*
X0244063Y0154634D02*
X0258063D01*
Y0162634D01*
X0244063D02*
X0258063D01*
X0244063Y0154634D02*
Y0162634D01*
X0244024Y0146563D02*
X0258024D01*
Y0154563D01*
X0244024D02*
X0258024D01*
X0244024Y0146563D02*
Y0154563D01*
X0243945Y0138492D02*
X0257945D01*
Y0146492D01*
X0243945D02*
X0257945D01*
X0243945Y0138492D02*
Y0146492D01*
X0273752Y0146146D02*
X0284752D01*
Y0152146D01*
X0273752D02*
X0284752D01*
X0273752Y0146146D02*
Y0152146D01*
X0280157Y0121862D02*
X0300157D01*
X0280157Y0111862D02*
Y0121862D01*
Y0111862D02*
X0300157D01*
Y0121862D01*
X0258347Y0111862D02*
X0278346D01*
Y0121862D01*
X0258347D02*
X0278346D01*
X0258347Y0111862D02*
Y0121862D01*
X0214024Y0176492D02*
X0228024D01*
X0214024Y0168492D02*
X0214024Y0176492D01*
X0214024Y0168492D02*
X0228024Y0168492D01*
Y0176492D01*
X0188031Y0184579D02*
X0200236D01*
X0188031Y0175524D02*
X0200236D01*
X0200236Y0184579D01*
X0188031Y0175524D02*
X0188031Y0184579D01*
X0185268Y0201677D02*
X0185268Y0192847D01*
X0185268Y0201677D02*
X0201268D01*
Y0192847D02*
Y0201677D01*
X0185268Y0192847D02*
X0201268Y0192847D01*
X0189697Y0160791D02*
X0200697Y0160791D01*
Y0166791D01*
X0189697D02*
X0200697D01*
X0189697D02*
X0189697Y0160791D01*
Y0154807D02*
X0200697D01*
Y0160807D01*
X0189697D02*
X0200697D01*
X0189697Y0154807D02*
Y0160807D01*
X0341339Y0097610D02*
Y0102335D01*
X0298819D02*
X0341339D01*
X0298819Y0097610D02*
Y0102335D01*
X0327165Y0128122D02*
X0328346D01*
X0304724Y0121232D02*
Y0122020D01*
X0304331Y0105681D02*
X0335827D01*
X0304331D02*
Y0111784D01*
X0335827Y0105681D02*
Y0111784D01*
X0304331Y0110799D02*
X0335827D01*
X0304331Y0108043D02*
X0335827D01*
X0335433Y0121232D02*
Y0122020D01*
X0311811Y0128122D02*
X0312992D01*
X0333858Y0102335D02*
Y0104303D01*
X0306299Y0102335D02*
Y0104303D01*
X0320079Y0097610D02*
Y0102335D01*
X0321654Y0100760D01*
X0318504D02*
X0320079Y0102335D01*
X0270905Y0142256D02*
Y0160366D01*
X0260276Y0142256D02*
Y0160366D01*
X0220248Y0143602D02*
X0231248D01*
X0220248Y0137602D02*
Y0143602D01*
Y0137602D02*
X0231248D01*
Y0143602D01*
X0228535Y0123134D02*
Y0134134D01*
Y0123134D02*
X0234535D01*
Y0134134D01*
X0228535D02*
X0234535D01*
X0227685Y0123213D02*
Y0134213D01*
X0221685D02*
X0227685D01*
X0221685Y0123213D02*
Y0134213D01*
Y0123213D02*
X0227685D01*
X0231232Y0137602D02*
X0242232D01*
Y0143602D01*
X0231232D02*
X0242232D01*
X0231232Y0137602D02*
Y0143602D01*
X0280709Y0122768D02*
Y0138516D01*
X0256299Y0122768D02*
X0280709D01*
X0256299D02*
Y0138516D01*
X0280709D01*
X0277045Y0186541D02*
X0288545D01*
Y0181041D02*
Y0186541D01*
X0277045Y0181041D02*
X0288545D01*
X0277045D02*
Y0186541D01*
X0277295Y0200177D02*
X0288295D01*
X0277295Y0194177D02*
Y0200177D01*
Y0194177D02*
X0288295D01*
Y0200177D01*
X0277295Y0193484D02*
X0288295D01*
X0277295Y0187484D02*
Y0193484D01*
Y0187484D02*
X0288295D01*
Y0193484D01*
X0176693Y0111862D02*
X0256693D01*
Y0121862D01*
X0176693D02*
X0256693D01*
X0176693Y0111862D02*
Y0121862D01*
X0156740Y0190969D02*
Y0201969D01*
X0150740D02*
X0156740D01*
X0150740Y0190969D02*
Y0201969D01*
Y0190969D02*
X0156740D01*
X0246701Y0190693D02*
X0246701Y0201693D01*
X0240701D02*
X0246701D01*
X0240701Y0190693D02*
Y0201693D01*
Y0190693D02*
X0246701D01*
X0143968Y0190969D02*
Y0201969D01*
Y0190969D02*
X0149969D01*
Y0201969D01*
X0143968D02*
X0149969D01*
X0137197Y0190969D02*
Y0201969D01*
Y0190969D02*
X0143197D01*
Y0201969D01*
X0137197D02*
X0143197D01*
X0130425Y0191008D02*
Y0202008D01*
Y0191008D02*
X0136425D01*
Y0202008D01*
X0130425D02*
X0136425D01*
X0189992Y0124197D02*
Y0135197D01*
Y0124197D02*
X0195992D01*
Y0135197D01*
X0189992D02*
X0195992D01*
X0172882Y0124118D02*
Y0135118D01*
X0166882D02*
X0172882D01*
X0166882Y0124118D02*
Y0135118D01*
Y0124118D02*
X0172882D01*
X0335598Y0203095D02*
Y0223095D01*
X0135599Y0203095D02*
Y0223095D01*
X0335598D01*
X0135599Y0203095D02*
X0335598D01*
X0159140Y0135171D02*
X0164640D01*
X0159140Y0123671D02*
Y0135171D01*
Y0123671D02*
X0164640D01*
Y0135171D01*
X0222315Y0177032D02*
Y0188031D01*
Y0177032D02*
X0228315D01*
Y0188031D01*
X0222315D02*
X0228315D01*
X0135583Y0122768D02*
X0157630D01*
X0135583D02*
Y0135366D01*
X0157630D01*
Y0122768D02*
Y0135366D01*
X0181653Y0186449D02*
X0181811Y0186291D01*
Y0182315D02*
Y0186291D01*
X0176142Y0186449D02*
X0181653D01*
X0132402Y0186370D02*
X0137716D01*
X0132323Y0186291D02*
X0132402Y0186370D01*
X0132323Y0182354D02*
Y0186291D01*
X0132283Y0140465D02*
Y0144047D01*
Y0140465D02*
X0132402Y0140347D01*
X0137795D01*
X0176142Y0140307D02*
X0181811D01*
X0181850Y0140347D01*
Y0144047D01*
X0181864Y0123809D02*
Y0135309D01*
X0176364Y0123809D02*
X0181864D01*
X0176364D02*
Y0135309D01*
X0181864D01*
X0188813Y0123750D02*
Y0135250D01*
X0183313Y0123750D02*
X0188813D01*
X0183313D02*
Y0135250D01*
X0188813D01*
X0125945Y0166705D02*
X0129447Y0170207D01*
Y0187294D01*
X0131890Y0189736D01*
X0253805Y0163494D02*
Y0174994D01*
X0259305D01*
Y0163494D02*
Y0174994D01*
X0253805Y0163494D02*
X0259305D01*
X0213142Y0188110D02*
X0219142D01*
Y0177110D02*
Y0188110D01*
X0213142Y0177110D02*
X0219142D01*
X0213142D02*
Y0188110D01*
X0221567Y0154827D02*
X0227567D01*
X0221567D02*
Y0165827D01*
X0227567D01*
Y0154827D02*
Y0165827D01*
X0213929Y0190614D02*
X0219929D01*
X0213929D02*
Y0201614D01*
X0219929D01*
Y0190614D02*
Y0201614D01*
X0201882D02*
X0207882D01*
Y0190614D02*
Y0201614D01*
X0201882Y0190614D02*
X0207882D01*
X0201882D02*
Y0201614D01*
X0207906Y0190614D02*
X0213906D01*
X0207906D02*
Y0201614D01*
X0213906D01*
Y0190614D02*
Y0201614D01*
X0272281Y0110263D02*
X0274904D01*
X0273480Y0111746D02*
Y0109122D01*
X0293321Y0111627D02*
Y0109004D01*
X0294803Y0110154D02*
X0292179D01*
X0263306Y0110131D02*
X0260682D01*
X0303878Y0116957D02*
X0301254D01*
X0302566Y0115645D02*
Y0118269D01*
X0286378Y0109957D02*
X0283754D01*
D16*
X0320079Y0117492D02*
Y0118280D01*
D17*
X0215943Y0162924D02*
Y0160628D01*
X0216403Y0160169D01*
X0217321D01*
X0217780Y0160628D01*
Y0162924D01*
X0218698D02*
X0220535D01*
Y0162465D01*
X0218698Y0160628D01*
Y0160169D01*
X0262152Y0174971D02*
X0261693Y0175430D01*
X0260775D01*
X0260316Y0174971D01*
Y0173135D01*
X0260775Y0172675D01*
X0261693D01*
X0262152Y0173135D01*
X0264907Y0172675D02*
X0263071D01*
X0264907Y0174512D01*
Y0174971D01*
X0264448Y0175430D01*
X0263530D01*
X0263071Y0174971D01*
X0265826D02*
X0266285Y0175430D01*
X0267203D01*
X0267662Y0174971D01*
Y0173135D01*
X0267203Y0172675D01*
X0266285D01*
X0265826Y0173135D01*
Y0174971D01*
X0175865Y0195130D02*
X0173110D01*
Y0196507D01*
X0173569Y0196967D01*
X0174487D01*
X0174946Y0196507D01*
Y0195130D01*
Y0196048D02*
X0175865Y0196967D01*
X0173569Y0197885D02*
X0173110Y0198344D01*
Y0199262D01*
X0173569Y0199722D01*
X0174028D01*
X0174487Y0199262D01*
Y0198803D01*
Y0199262D01*
X0174946Y0199722D01*
X0175406D01*
X0175865Y0199262D01*
Y0198344D01*
X0175406Y0197885D01*
X0173569Y0200640D02*
X0173110Y0201099D01*
Y0202017D01*
X0173569Y0202477D01*
X0174028D01*
X0174487Y0202017D01*
X0174946Y0202477D01*
X0175406D01*
X0175865Y0202017D01*
Y0201099D01*
X0175406Y0200640D01*
X0174946D01*
X0174487Y0201099D01*
X0174028Y0200640D01*
X0173569D01*
X0174487Y0201099D02*
Y0202017D01*
X0221378Y0150917D02*
Y0153672D01*
X0222756D01*
X0223215Y0153213D01*
Y0152295D01*
X0222756Y0151836D01*
X0221378D01*
X0222296D02*
X0223215Y0150917D01*
X0224133Y0153213D02*
X0224592Y0153672D01*
X0225511D01*
X0225970Y0153213D01*
Y0152754D01*
X0225511Y0152295D01*
X0225051D01*
X0225511D01*
X0225970Y0151836D01*
Y0151376D01*
X0225511Y0150917D01*
X0224592D01*
X0224133Y0151376D01*
X0226888Y0153672D02*
X0228725D01*
Y0153213D01*
X0226888Y0151376D01*
Y0150917D01*
X0183463Y0194933D02*
X0180708D01*
Y0196311D01*
X0181167Y0196770D01*
X0182086D01*
X0182545Y0196311D01*
Y0194933D01*
Y0195851D02*
X0183463Y0196770D01*
X0181167Y0197688D02*
X0180708Y0198147D01*
Y0199066D01*
X0181167Y0199525D01*
X0181626D01*
X0182086Y0199066D01*
Y0198606D01*
Y0199066D01*
X0182545Y0199525D01*
X0183004D01*
X0183463Y0199066D01*
Y0198147D01*
X0183004Y0197688D01*
X0183463Y0201821D02*
X0180708D01*
X0182086Y0200443D01*
Y0202280D01*
X0179683Y0195051D02*
X0176928D01*
Y0196429D01*
X0177388Y0196888D01*
X0178306D01*
X0178765Y0196429D01*
Y0195051D01*
Y0195969D02*
X0179683Y0196888D01*
X0177388Y0197806D02*
X0176928Y0198265D01*
Y0199184D01*
X0177388Y0199643D01*
X0177847D01*
X0178306Y0199184D01*
Y0198724D01*
Y0199184D01*
X0178765Y0199643D01*
X0179224D01*
X0179683Y0199184D01*
Y0198265D01*
X0179224Y0197806D01*
X0177388Y0200561D02*
X0176928Y0201020D01*
Y0201939D01*
X0177388Y0202398D01*
X0177847D01*
X0178306Y0201939D01*
Y0201480D01*
Y0201939D01*
X0178765Y0202398D01*
X0179224D01*
X0179683Y0201939D01*
Y0201020D01*
X0179224Y0200561D01*
X0284880Y0131547D02*
X0282125D01*
Y0132925D01*
X0282585Y0133384D01*
X0283503D01*
X0283962Y0132925D01*
Y0131547D01*
Y0132466D02*
X0284880Y0133384D01*
Y0136139D02*
Y0134302D01*
X0283044Y0136139D01*
X0282585D01*
X0282125Y0135680D01*
Y0134761D01*
X0282585Y0134302D01*
X0284880Y0138894D02*
Y0137057D01*
X0283044Y0138894D01*
X0282585D01*
X0282125Y0138435D01*
Y0137516D01*
X0282585Y0137057D01*
X0183227Y0187059D02*
X0180472D01*
Y0188437D01*
X0180931Y0188896D01*
X0181849D01*
X0182308Y0188437D01*
Y0187059D01*
Y0187977D02*
X0183227Y0188896D01*
Y0189814D02*
Y0190732D01*
Y0190273D01*
X0180472D01*
X0180931Y0189814D01*
X0180472Y0193947D02*
X0180931Y0193028D01*
X0181849Y0192110D01*
X0182768D01*
X0183227Y0192569D01*
Y0193487D01*
X0182768Y0193947D01*
X0182308D01*
X0181849Y0193487D01*
Y0192110D01*
X0109435Y0173620D02*
X0108976Y0173161D01*
Y0172243D01*
X0109435Y0171783D01*
X0111272D01*
X0111731Y0172243D01*
Y0173161D01*
X0111272Y0173620D01*
X0111731Y0176375D02*
Y0174539D01*
X0109894Y0176375D01*
X0109435D01*
X0108976Y0175916D01*
Y0174998D01*
X0109435Y0174539D01*
Y0177294D02*
X0108976Y0177753D01*
Y0178671D01*
X0109435Y0179130D01*
X0109894D01*
X0110353Y0178671D01*
Y0178212D01*
Y0178671D01*
X0110812Y0179130D01*
X0111272D01*
X0111731Y0178671D01*
Y0177753D01*
X0111272Y0177294D01*
X0120772Y0170221D02*
X0120313Y0170680D01*
X0119395D01*
X0118936Y0170221D01*
Y0168384D01*
X0119395Y0167925D01*
X0120313D01*
X0120772Y0168384D01*
X0123527Y0167925D02*
X0121690D01*
X0123527Y0169762D01*
Y0170221D01*
X0123068Y0170680D01*
X0122150D01*
X0121690Y0170221D01*
X0126282Y0167925D02*
X0124446D01*
X0126282Y0169762D01*
Y0170221D01*
X0125823Y0170680D01*
X0124905D01*
X0124446Y0170221D01*
X0126219Y0141507D02*
Y0139211D01*
X0126678Y0138752D01*
X0127596D01*
X0128056Y0139211D01*
Y0141507D01*
X0130811D02*
X0129892Y0141048D01*
X0128974Y0140129D01*
Y0139211D01*
X0129433Y0138752D01*
X0130351D01*
X0130811Y0139211D01*
Y0139670D01*
X0130351Y0140129D01*
X0128974D01*
X0129985Y0136481D02*
X0129526Y0136940D01*
X0128607D01*
X0128148Y0136481D01*
Y0136022D01*
X0128607Y0135563D01*
X0129526D01*
X0129985Y0135103D01*
Y0134644D01*
X0129526Y0134185D01*
X0128607D01*
X0128148Y0134644D01*
X0130903Y0136940D02*
Y0134185D01*
X0131822Y0135103D01*
X0132740Y0134185D01*
Y0136940D01*
X0133658Y0134185D02*
X0134576D01*
X0134117D01*
Y0136940D01*
X0133658Y0136481D01*
X0139382Y0115917D02*
X0136627D01*
Y0117295D01*
X0137086Y0117754D01*
X0138004D01*
X0138463Y0117295D01*
Y0115917D01*
X0139382Y0120509D02*
Y0118672D01*
X0137545Y0120509D01*
X0137086D01*
X0136627Y0120050D01*
Y0119132D01*
X0137086Y0118672D01*
X0204986Y0129171D02*
X0204527Y0128712D01*
Y0127794D01*
X0204986Y0127335D01*
X0206823D01*
X0207282Y0127794D01*
Y0128712D01*
X0206823Y0129171D01*
X0207282Y0131926D02*
Y0130090D01*
X0205445Y0131926D01*
X0204986D01*
X0204527Y0131467D01*
Y0130549D01*
X0204986Y0130090D01*
X0207282Y0134222D02*
X0204527D01*
X0205905Y0132845D01*
Y0134681D01*
X0119473Y0173725D02*
X0119014Y0174184D01*
X0118096D01*
X0117636Y0173725D01*
Y0171888D01*
X0118096Y0171429D01*
X0119014D01*
X0119473Y0171888D01*
X0122228Y0171429D02*
X0120391D01*
X0122228Y0173266D01*
Y0173725D01*
X0121769Y0174184D01*
X0120851D01*
X0120391Y0173725D01*
X0123146Y0171429D02*
X0124065D01*
X0123606D01*
Y0174184D01*
X0123146Y0173725D01*
X0186010Y0147557D02*
X0185551Y0147098D01*
Y0146180D01*
X0186010Y0145721D01*
X0187846D01*
X0188306Y0146180D01*
Y0147098D01*
X0187846Y0147557D01*
X0188306Y0148476D02*
Y0149394D01*
Y0148935D01*
X0185551D01*
X0186010Y0148476D01*
X0187846Y0150771D02*
X0188306Y0151231D01*
Y0152149D01*
X0187846Y0152608D01*
X0186010D01*
X0185551Y0152149D01*
Y0151231D01*
X0186010Y0150771D01*
X0186469D01*
X0186928Y0151231D01*
Y0152608D01*
X0186325Y0139289D02*
X0185865Y0138830D01*
Y0137912D01*
X0186325Y0137453D01*
X0188161D01*
X0188621Y0137912D01*
Y0138830D01*
X0188161Y0139289D01*
X0188621Y0140208D02*
Y0141126D01*
Y0140667D01*
X0185865D01*
X0186325Y0140208D01*
Y0142504D02*
X0185865Y0142963D01*
Y0143881D01*
X0186325Y0144340D01*
X0186784D01*
X0187243Y0143881D01*
X0187702Y0144340D01*
X0188161D01*
X0188621Y0143881D01*
Y0142963D01*
X0188161Y0142504D01*
X0187702D01*
X0187243Y0142963D01*
X0186784Y0142504D01*
X0186325D01*
X0187243Y0142963D02*
Y0143881D01*
X0186049Y0155352D02*
X0185590Y0154893D01*
Y0153975D01*
X0186049Y0153516D01*
X0187886D01*
X0188345Y0153975D01*
Y0154893D01*
X0187886Y0155352D01*
X0188345Y0156271D02*
Y0157189D01*
Y0156730D01*
X0185590D01*
X0186049Y0156271D01*
X0185590Y0158567D02*
Y0160403D01*
X0186049D01*
X0187886Y0158567D01*
X0188345D01*
X0208805Y0129171D02*
X0208346Y0128712D01*
Y0127794D01*
X0208805Y0127335D01*
X0210642D01*
X0211101Y0127794D01*
Y0128712D01*
X0210642Y0129171D01*
X0211101Y0130090D02*
Y0131008D01*
Y0130549D01*
X0208346D01*
X0208805Y0130090D01*
X0208346Y0134222D02*
X0208805Y0133304D01*
X0209723Y0132386D01*
X0210642D01*
X0211101Y0132845D01*
Y0133763D01*
X0210642Y0134222D01*
X0210182D01*
X0209723Y0133763D01*
Y0132386D01*
X0276101Y0158713D02*
X0273346D01*
Y0160090D01*
X0273805Y0160549D01*
X0274723D01*
X0275183Y0160090D01*
Y0158713D01*
Y0159631D02*
X0276101Y0160549D01*
Y0161468D02*
Y0162386D01*
Y0161927D01*
X0273346D01*
X0273805Y0161468D01*
X0273346Y0165600D02*
Y0163763D01*
X0274723D01*
X0274264Y0164682D01*
Y0165141D01*
X0274723Y0165600D01*
X0275642D01*
X0276101Y0165141D01*
Y0164223D01*
X0275642Y0163763D01*
X0325971Y0146914D02*
X0325511Y0147373D01*
X0324593D01*
X0324134Y0146914D01*
Y0145077D01*
X0324593Y0144618D01*
X0325511D01*
X0325971Y0145077D01*
X0326889Y0144618D02*
X0327807D01*
X0327348D01*
Y0147373D01*
X0326889Y0146914D01*
X0315931Y0147308D02*
X0315472Y0147767D01*
X0314554D01*
X0314094Y0147308D01*
Y0145471D01*
X0314554Y0145012D01*
X0315472D01*
X0315931Y0145471D01*
X0318686Y0145012D02*
X0316849D01*
X0318686Y0146848D01*
Y0147308D01*
X0318227Y0147767D01*
X0317309D01*
X0316849Y0147308D01*
X0310419Y0150851D02*
X0309960Y0151310D01*
X0309042D01*
X0308583Y0150851D01*
Y0149014D01*
X0309042Y0148555D01*
X0309960D01*
X0310419Y0149014D01*
X0311338Y0150851D02*
X0311797Y0151310D01*
X0312715D01*
X0313174Y0150851D01*
Y0150392D01*
X0312715Y0149933D01*
X0312256D01*
X0312715D01*
X0313174Y0149474D01*
Y0149014D01*
X0312715Y0148555D01*
X0311797D01*
X0311338Y0149014D01*
X0291049Y0185300D02*
X0290590Y0185759D01*
X0289672D01*
X0289213Y0185300D01*
Y0183463D01*
X0289672Y0183004D01*
X0290590D01*
X0291049Y0183463D01*
X0293345Y0183004D02*
Y0185759D01*
X0291968Y0184381D01*
X0293804D01*
X0304985Y0185339D02*
X0304526Y0185798D01*
X0303607D01*
X0303148Y0185339D01*
Y0183502D01*
X0303607Y0183043D01*
X0304526D01*
X0304985Y0183502D01*
X0307740Y0185798D02*
X0305903D01*
Y0184421D01*
X0306821Y0184880D01*
X0307281D01*
X0307740Y0184421D01*
Y0183502D01*
X0307281Y0183043D01*
X0306362D01*
X0305903Y0183502D01*
X0240300Y0151835D02*
X0239841Y0152294D01*
X0238922D01*
X0238463Y0151835D01*
Y0149998D01*
X0238922Y0149539D01*
X0239841D01*
X0240300Y0149998D01*
X0243055Y0152294D02*
X0242136Y0151835D01*
X0241218Y0150917D01*
Y0149998D01*
X0241677Y0149539D01*
X0242596D01*
X0243055Y0149998D01*
Y0150458D01*
X0242596Y0150917D01*
X0241218D01*
X0240182Y0155457D02*
X0239722Y0155916D01*
X0238804D01*
X0238345Y0155457D01*
Y0153621D01*
X0238804Y0153161D01*
X0239722D01*
X0240182Y0153621D01*
X0241100Y0155916D02*
X0242937D01*
Y0155457D01*
X0241100Y0153621D01*
Y0153161D01*
X0240103Y0159552D02*
X0239644Y0160011D01*
X0238725D01*
X0238266Y0159552D01*
Y0157715D01*
X0238725Y0157256D01*
X0239644D01*
X0240103Y0157715D01*
X0241021Y0159552D02*
X0241480Y0160011D01*
X0242399D01*
X0242858Y0159552D01*
Y0159093D01*
X0242399Y0158633D01*
X0242858Y0158174D01*
Y0157715D01*
X0242399Y0157256D01*
X0241480D01*
X0241021Y0157715D01*
Y0158174D01*
X0241480Y0158633D01*
X0241021Y0159093D01*
Y0159552D01*
X0241480Y0158633D02*
X0242399D01*
X0256245Y0190260D02*
X0255785Y0190720D01*
X0254867D01*
X0254408Y0190260D01*
Y0188424D01*
X0254867Y0187965D01*
X0255785D01*
X0256245Y0188424D01*
X0257163D02*
X0257622Y0187965D01*
X0258541D01*
X0259000Y0188424D01*
Y0190260D01*
X0258541Y0190720D01*
X0257622D01*
X0257163Y0190260D01*
Y0189801D01*
X0257622Y0189342D01*
X0259000D01*
X0257545Y0196770D02*
X0257086Y0196311D01*
Y0195392D01*
X0257545Y0194933D01*
X0259382D01*
X0259841Y0195392D01*
Y0196311D01*
X0259382Y0196770D01*
X0259841Y0197688D02*
Y0198606D01*
Y0198147D01*
X0257086D01*
X0257545Y0197688D01*
Y0199984D02*
X0257086Y0200443D01*
Y0201361D01*
X0257545Y0201821D01*
X0259382D01*
X0259841Y0201361D01*
Y0200443D01*
X0259382Y0199984D01*
X0257545D01*
X0261917Y0174998D02*
X0261458Y0174539D01*
Y0173621D01*
X0261917Y0173161D01*
X0263753D01*
X0264213Y0173621D01*
Y0174539D01*
X0263753Y0174998D01*
X0264213Y0175917D02*
Y0176835D01*
Y0176376D01*
X0261458D01*
X0261917Y0175917D01*
X0264213Y0178212D02*
Y0179131D01*
Y0178672D01*
X0261458D01*
X0261917Y0178212D01*
X0273451Y0181573D02*
X0272991Y0181114D01*
Y0180195D01*
X0273451Y0179736D01*
X0275287D01*
X0275746Y0180195D01*
Y0181114D01*
X0275287Y0181573D01*
X0275746Y0182491D02*
Y0183410D01*
Y0182950D01*
X0272991D01*
X0273451Y0182491D01*
X0275746Y0186624D02*
Y0184787D01*
X0273910Y0186624D01*
X0273451D01*
X0272991Y0186165D01*
Y0185246D01*
X0273451Y0184787D01*
X0254435Y0193345D02*
X0253976Y0192885D01*
Y0191967D01*
X0254435Y0191508D01*
X0256272D01*
X0256731Y0191967D01*
Y0192885D01*
X0256272Y0193345D01*
X0256731Y0194263D02*
Y0195181D01*
Y0194722D01*
X0253976D01*
X0254435Y0194263D01*
Y0196559D02*
X0253976Y0197018D01*
Y0197936D01*
X0254435Y0198395D01*
X0254894D01*
X0255353Y0197936D01*
Y0197477D01*
Y0197936D01*
X0255812Y0198395D01*
X0256272D01*
X0256731Y0197936D01*
Y0197018D01*
X0256272Y0196559D01*
X0210303Y0171494D02*
X0209843Y0171035D01*
Y0170117D01*
X0210303Y0169658D01*
X0212139D01*
X0212598Y0170117D01*
Y0171035D01*
X0212139Y0171494D01*
X0212598Y0172413D02*
Y0173331D01*
Y0172872D01*
X0209843D01*
X0210303Y0172413D01*
X0212598Y0176086D02*
X0209843D01*
X0211221Y0174708D01*
Y0176545D01*
X0329788Y0132898D02*
X0329329Y0133357D01*
X0328410D01*
X0327951Y0132898D01*
Y0131061D01*
X0328410Y0130602D01*
X0329329D01*
X0329788Y0131061D01*
X0332084Y0133357D02*
X0331166D01*
X0330706Y0132898D01*
Y0131061D01*
X0331166Y0130602D01*
X0332084D01*
X0332543Y0131061D01*
Y0132898D01*
X0332084Y0133357D01*
X0333461Y0130602D02*
Y0133357D01*
X0335298Y0130602D01*
Y0133357D01*
X0336216Y0130602D02*
X0337135D01*
X0336676D01*
Y0133357D01*
X0336216Y0132898D01*
X0111008Y0198843D02*
X0110549Y0199302D01*
X0109631D01*
X0109172Y0198843D01*
Y0197006D01*
X0109631Y0196547D01*
X0110549D01*
X0111008Y0197006D01*
X0113304Y0199302D02*
X0112386D01*
X0111927Y0198843D01*
Y0197006D01*
X0112386Y0196547D01*
X0113304D01*
X0113763Y0197006D01*
Y0198843D01*
X0113304Y0199302D01*
X0114682Y0196547D02*
Y0199302D01*
X0116518Y0196547D01*
Y0199302D01*
X0119273Y0196547D02*
X0117437D01*
X0119273Y0198384D01*
Y0198843D01*
X0118814Y0199302D01*
X0117896D01*
X0117437Y0198843D01*
X0263463Y0166249D02*
Y0163494D01*
X0264841D01*
X0265300Y0163953D01*
Y0165790D01*
X0264841Y0166249D01*
X0263463D01*
X0266218Y0163494D02*
X0267136D01*
X0266677D01*
Y0166249D01*
X0266218Y0165790D01*
X0331221Y0155839D02*
X0333976D01*
Y0157216D01*
X0333517Y0157675D01*
X0331680D01*
X0331221Y0157216D01*
Y0155839D01*
X0333976Y0160430D02*
Y0158594D01*
X0332140Y0160430D01*
X0331680D01*
X0331221Y0159971D01*
Y0159053D01*
X0331680Y0158594D01*
X0299211Y0132137D02*
Y0129382D01*
X0300589D01*
X0301048Y0129841D01*
Y0131678D01*
X0300589Y0132137D01*
X0299211D01*
X0301966Y0131678D02*
X0302425Y0132137D01*
X0303344D01*
X0303803Y0131678D01*
Y0131219D01*
X0303344Y0130759D01*
X0302885D01*
X0303344D01*
X0303803Y0130300D01*
Y0129841D01*
X0303344Y0129382D01*
X0302425D01*
X0301966Y0129841D01*
X0300709Y0147570D02*
Y0144815D01*
X0302086D01*
X0302545Y0145274D01*
Y0147111D01*
X0302086Y0147570D01*
X0300709D01*
X0304841Y0144815D02*
Y0147570D01*
X0303464Y0146193D01*
X0305300D01*
X0331614Y0146389D02*
Y0143634D01*
X0332992D01*
X0333451Y0144093D01*
Y0145930D01*
X0332992Y0146389D01*
X0331614D01*
X0336206D02*
X0334369D01*
Y0145011D01*
X0335287Y0145470D01*
X0335747D01*
X0336206Y0145011D01*
Y0144093D01*
X0335747Y0143634D01*
X0334828D01*
X0334369Y0144093D01*
X0285749Y0149343D02*
X0288504D01*
Y0150720D01*
X0288045Y0151179D01*
X0286208D01*
X0285749Y0150720D01*
Y0149343D01*
Y0153934D02*
X0286208Y0153016D01*
X0287126Y0152097D01*
X0288045D01*
X0288504Y0152557D01*
Y0153475D01*
X0288045Y0153934D01*
X0287586D01*
X0287126Y0153475D01*
Y0152097D01*
X0283804Y0130405D02*
X0281967D01*
Y0129027D01*
X0282885D01*
X0281967D01*
Y0127650D01*
X0284722D02*
X0285640D01*
X0285181D01*
Y0130405D01*
X0284722Y0129946D01*
X0301496Y0163318D02*
Y0160563D01*
X0303333D01*
X0304251D02*
X0305169D01*
X0304710D01*
Y0163318D01*
X0304251Y0162859D01*
X0253425Y0182531D02*
Y0179776D01*
X0255262D01*
X0258017D02*
X0256180D01*
X0258017Y0181612D01*
Y0182071D01*
X0257558Y0182531D01*
X0256639D01*
X0256180Y0182071D01*
X0282006Y0123358D02*
Y0126113D01*
X0283384D01*
X0283843Y0125654D01*
Y0124736D01*
X0283384Y0124277D01*
X0282006D01*
X0284761Y0123358D02*
X0285680D01*
X0285221D01*
Y0126113D01*
X0284761Y0125654D01*
X0299251Y0123752D02*
Y0126507D01*
X0300628D01*
X0301087Y0126048D01*
Y0125129D01*
X0300628Y0124670D01*
X0299251D01*
X0302006Y0126048D02*
X0302465Y0126507D01*
X0303383D01*
X0303842Y0126048D01*
Y0125589D01*
X0303383Y0125129D01*
X0302924D01*
X0303383D01*
X0303842Y0124670D01*
Y0124211D01*
X0303383Y0123752D01*
X0302465D01*
X0302006Y0124211D01*
X0171573Y0111744D02*
Y0114499D01*
X0172951D01*
X0173410Y0114040D01*
Y0113122D01*
X0172951Y0112662D01*
X0171573D01*
X0176165Y0114499D02*
X0174328D01*
Y0113122D01*
X0175247Y0113581D01*
X0175706D01*
X0176165Y0113122D01*
Y0112203D01*
X0175706Y0111744D01*
X0174787D01*
X0174328Y0112203D01*
X0356180Y0144224D02*
Y0146979D01*
X0357557D01*
X0358016Y0146520D01*
Y0145602D01*
X0357557Y0145143D01*
X0356180D01*
X0358935Y0146520D02*
X0359394Y0146979D01*
X0360312D01*
X0360771Y0146520D01*
Y0146061D01*
X0360312Y0145602D01*
X0360771Y0145143D01*
Y0144684D01*
X0360312Y0144224D01*
X0359394D01*
X0358935Y0144684D01*
Y0145143D01*
X0359394Y0145602D01*
X0358935Y0146061D01*
Y0146520D01*
X0359394Y0145602D02*
X0360312D01*
X0336142Y0163122D02*
X0333387D01*
Y0164500D01*
X0333846Y0164959D01*
X0334764D01*
X0335223Y0164500D01*
Y0163122D01*
Y0164040D02*
X0336142Y0164959D01*
Y0165877D02*
Y0166795D01*
Y0166336D01*
X0333387D01*
X0333846Y0165877D01*
X0336142Y0169618D02*
X0333387D01*
Y0170996D01*
X0333846Y0171455D01*
X0334764D01*
X0335223Y0170996D01*
Y0169618D01*
Y0170536D02*
X0336142Y0171455D01*
Y0174210D02*
Y0172373D01*
X0334305Y0174210D01*
X0333846D01*
X0333387Y0173751D01*
Y0172832D01*
X0333846Y0172373D01*
X0315865Y0185091D02*
Y0187846D01*
X0317242D01*
X0317701Y0187386D01*
Y0186468D01*
X0317242Y0186009D01*
X0315865D01*
X0316783D02*
X0317701Y0185091D01*
X0318620Y0187386D02*
X0319079Y0187846D01*
X0319997D01*
X0320456Y0187386D01*
Y0186927D01*
X0319997Y0186468D01*
X0319538D01*
X0319997D01*
X0320456Y0186009D01*
Y0185550D01*
X0319997Y0185091D01*
X0319079D01*
X0318620Y0185550D01*
X0276849Y0188555D02*
X0274094D01*
Y0189933D01*
X0274553Y0190392D01*
X0275471D01*
X0275931Y0189933D01*
Y0188555D01*
Y0189473D02*
X0276849Y0190392D01*
Y0192688D02*
X0274094D01*
X0275471Y0191310D01*
Y0193147D01*
X0273937Y0142256D02*
Y0145011D01*
X0275314D01*
X0275774Y0144552D01*
Y0143633D01*
X0275314Y0143174D01*
X0273937D01*
X0274855D02*
X0275774Y0142256D01*
X0278529Y0145011D02*
X0276692D01*
Y0143633D01*
X0277610Y0144093D01*
X0278069D01*
X0278529Y0143633D01*
Y0142715D01*
X0278069Y0142256D01*
X0277151D01*
X0276692Y0142715D01*
X0344488Y0191035D02*
X0341733D01*
Y0192413D01*
X0342193Y0192872D01*
X0343111D01*
X0343570Y0192413D01*
Y0191035D01*
Y0191954D02*
X0344488Y0192872D01*
X0341733Y0195627D02*
X0342193Y0194709D01*
X0343111Y0193790D01*
X0344029D01*
X0344488Y0194250D01*
Y0195168D01*
X0344029Y0195627D01*
X0343570D01*
X0343111Y0195168D01*
Y0193790D01*
X0321928Y0185130D02*
Y0187885D01*
X0323305D01*
X0323764Y0187426D01*
Y0186507D01*
X0323305Y0186048D01*
X0321928D01*
X0322846D02*
X0323764Y0185130D01*
X0324683Y0187885D02*
X0326519D01*
Y0187426D01*
X0324683Y0185589D01*
Y0185130D01*
X0277125Y0195012D02*
X0274370D01*
Y0196389D01*
X0274829Y0196848D01*
X0275747D01*
X0276206Y0196389D01*
Y0195012D01*
Y0195930D02*
X0277125Y0196848D01*
X0274829Y0197767D02*
X0274370Y0198226D01*
Y0199144D01*
X0274829Y0199603D01*
X0275288D01*
X0275747Y0199144D01*
X0276206Y0199603D01*
X0276665D01*
X0277125Y0199144D01*
Y0198226D01*
X0276665Y0197767D01*
X0276206D01*
X0275747Y0198226D01*
X0275288Y0197767D01*
X0274829D01*
X0275747Y0198226D02*
Y0199144D01*
X0275904Y0174264D02*
X0273149D01*
Y0175641D01*
X0273608Y0176101D01*
X0274527D01*
X0274986Y0175641D01*
Y0174264D01*
Y0175182D02*
X0275904Y0176101D01*
X0275445Y0177019D02*
X0275904Y0177478D01*
Y0178396D01*
X0275445Y0178856D01*
X0273608D01*
X0273149Y0178396D01*
Y0177478D01*
X0273608Y0177019D01*
X0274067D01*
X0274527Y0177478D01*
Y0178856D01*
X0275904Y0166429D02*
X0273149D01*
Y0167807D01*
X0273608Y0168266D01*
X0274527D01*
X0274986Y0167807D01*
Y0166429D01*
Y0167348D02*
X0275904Y0168266D01*
Y0169184D02*
Y0170103D01*
Y0169643D01*
X0273149D01*
X0273608Y0169184D01*
Y0171480D02*
X0273149Y0171939D01*
Y0172857D01*
X0273608Y0173317D01*
X0275445D01*
X0275904Y0172857D01*
Y0171939D01*
X0275445Y0171480D01*
X0273608D01*
X0344447Y0178634D02*
X0341692D01*
Y0180011D01*
X0342151Y0180471D01*
X0343070D01*
X0343529Y0180011D01*
Y0178634D01*
Y0179552D02*
X0344447Y0180471D01*
Y0181389D02*
Y0182307D01*
Y0181848D01*
X0341692D01*
X0342151Y0181389D01*
X0344447Y0183685D02*
Y0184603D01*
Y0184144D01*
X0341692D01*
X0342151Y0183685D01*
X0342441Y0147965D02*
Y0150720D01*
X0343818D01*
X0344278Y0150260D01*
Y0149342D01*
X0343818Y0148883D01*
X0342441D01*
X0343359D02*
X0344278Y0147965D01*
X0345196D02*
X0346114D01*
X0345655D01*
Y0150720D01*
X0345196Y0150260D01*
X0349328Y0147965D02*
X0347492D01*
X0349328Y0149801D01*
Y0150260D01*
X0348869Y0150720D01*
X0347951D01*
X0347492Y0150260D01*
X0307991Y0185130D02*
Y0187885D01*
X0309368D01*
X0309827Y0187426D01*
Y0186507D01*
X0309368Y0186048D01*
X0307991D01*
X0308909D02*
X0309827Y0185130D01*
X0310746D02*
X0311664D01*
X0311205D01*
Y0187885D01*
X0310746Y0187426D01*
X0313041D02*
X0313501Y0187885D01*
X0314419D01*
X0314878Y0187426D01*
Y0186967D01*
X0314419Y0186507D01*
X0313960D01*
X0314419D01*
X0314878Y0186048D01*
Y0185589D01*
X0314419Y0185130D01*
X0313501D01*
X0313041Y0185589D01*
X0327321Y0185248D02*
Y0188003D01*
X0328699D01*
X0329158Y0187544D01*
Y0186626D01*
X0328699Y0186166D01*
X0327321D01*
X0328240D02*
X0329158Y0185248D01*
X0330076D02*
X0330995D01*
X0330536D01*
Y0188003D01*
X0330076Y0187544D01*
X0333750Y0185248D02*
Y0188003D01*
X0332372Y0186626D01*
X0334209D01*
X0228424Y0134539D02*
Y0137294D01*
X0229801D01*
X0230260Y0136835D01*
Y0135917D01*
X0229801Y0135458D01*
X0228424D01*
X0229342D02*
X0230260Y0134539D01*
X0231179D02*
X0232097D01*
X0231638D01*
Y0137294D01*
X0231179Y0136835D01*
X0233475Y0137294D02*
X0235311D01*
Y0136835D01*
X0233475Y0134999D01*
Y0134539D01*
X0220353Y0134658D02*
Y0137413D01*
X0221730D01*
X0222189Y0136953D01*
Y0136035D01*
X0221730Y0135576D01*
X0220353D01*
X0221271D02*
X0222189Y0134658D01*
X0223108D02*
X0224026D01*
X0223567D01*
Y0137413D01*
X0223108Y0136953D01*
X0225404D02*
X0225863Y0137413D01*
X0226781D01*
X0227240Y0136953D01*
Y0136494D01*
X0226781Y0136035D01*
X0227240Y0135576D01*
Y0135117D01*
X0226781Y0134658D01*
X0225863D01*
X0225404Y0135117D01*
Y0135576D01*
X0225863Y0136035D01*
X0225404Y0136494D01*
Y0136953D01*
X0225863Y0136035D02*
X0226781D01*
X0221219Y0145445D02*
Y0148200D01*
X0222597D01*
X0223056Y0147741D01*
Y0146822D01*
X0222597Y0146363D01*
X0221219D01*
X0222137D02*
X0223056Y0145445D01*
X0223974D02*
X0224892D01*
X0224433D01*
Y0148200D01*
X0223974Y0147741D01*
X0226270Y0145904D02*
X0226729Y0145445D01*
X0227647D01*
X0228106Y0145904D01*
Y0147741D01*
X0227647Y0148200D01*
X0226729D01*
X0226270Y0147741D01*
Y0147282D01*
X0226729Y0146822D01*
X0228106D01*
X0234252Y0145669D02*
Y0148424D01*
X0235630D01*
X0236089Y0147965D01*
Y0147047D01*
X0235630Y0146588D01*
X0234252D01*
X0235170D02*
X0236089Y0145669D01*
X0238844D02*
X0237007D01*
X0238844Y0147506D01*
Y0147965D01*
X0238385Y0148424D01*
X0237466D01*
X0237007Y0147965D01*
X0239762D02*
X0240221Y0148424D01*
X0241140D01*
X0241599Y0147965D01*
Y0146128D01*
X0241140Y0145669D01*
X0240221D01*
X0239762Y0146128D01*
Y0147965D01*
X0215077Y0127335D02*
X0212322D01*
Y0128712D01*
X0212781Y0129171D01*
X0213700D01*
X0214159Y0128712D01*
Y0127335D01*
Y0128253D02*
X0215077Y0129171D01*
Y0131926D02*
Y0130090D01*
X0213241Y0131926D01*
X0212781D01*
X0212322Y0131467D01*
Y0130549D01*
X0212781Y0130090D01*
X0215077Y0132845D02*
Y0133763D01*
Y0133304D01*
X0212322D01*
X0212781Y0132845D01*
X0174408Y0115878D02*
X0171653D01*
Y0117255D01*
X0172112Y0117715D01*
X0173030D01*
X0173490Y0117255D01*
Y0115878D01*
Y0116796D02*
X0174408Y0117715D01*
Y0120470D02*
Y0118633D01*
X0172571Y0120470D01*
X0172112D01*
X0171653Y0120010D01*
Y0119092D01*
X0172112Y0118633D01*
Y0121388D02*
X0171653Y0121847D01*
Y0122766D01*
X0172112Y0123225D01*
X0172571D01*
X0173030Y0122766D01*
Y0122306D01*
Y0122766D01*
X0173490Y0123225D01*
X0173949D01*
X0174408Y0122766D01*
Y0121847D01*
X0173949Y0121388D01*
X0187873Y0169776D02*
X0185117D01*
Y0171153D01*
X0185577Y0171612D01*
X0186495D01*
X0186954Y0171153D01*
Y0169776D01*
Y0170694D02*
X0187873Y0171612D01*
Y0174367D02*
Y0172531D01*
X0186036Y0174367D01*
X0185577D01*
X0185117Y0173908D01*
Y0172990D01*
X0185577Y0172531D01*
X0187873Y0176663D02*
X0185117D01*
X0186495Y0175286D01*
Y0177122D01*
X0188188Y0161153D02*
X0185433D01*
Y0162531D01*
X0185892Y0162990D01*
X0186810D01*
X0187269Y0162531D01*
Y0161153D01*
Y0162072D02*
X0188188Y0162990D01*
Y0165745D02*
Y0163909D01*
X0186351Y0165745D01*
X0185892D01*
X0185433Y0165286D01*
Y0164368D01*
X0185892Y0163909D01*
X0185433Y0168500D02*
Y0166664D01*
X0186810D01*
X0186351Y0167582D01*
Y0168041D01*
X0186810Y0168500D01*
X0187728D01*
X0188188Y0168041D01*
Y0167123D01*
X0187728Y0166664D01*
X0116496Y0159264D02*
X0113741D01*
Y0160641D01*
X0114200Y0161100D01*
X0115119D01*
X0115578Y0160641D01*
Y0159264D01*
Y0160182D02*
X0116496Y0161100D01*
Y0163856D02*
Y0162019D01*
X0114659Y0163856D01*
X0114200D01*
X0113741Y0163396D01*
Y0162478D01*
X0114200Y0162019D01*
X0113741Y0166611D02*
X0114200Y0165692D01*
X0115119Y0164774D01*
X0116037D01*
X0116496Y0165233D01*
Y0166151D01*
X0116037Y0166611D01*
X0115578D01*
X0115119Y0166151D01*
Y0164774D01*
X0112559Y0159343D02*
X0109804D01*
Y0160720D01*
X0110263Y0161179D01*
X0111181D01*
X0111641Y0160720D01*
Y0159343D01*
Y0160261D02*
X0112559Y0161179D01*
Y0163934D02*
Y0162098D01*
X0110722Y0163934D01*
X0110263D01*
X0109804Y0163475D01*
Y0162557D01*
X0110263Y0162098D01*
X0109804Y0164853D02*
Y0166689D01*
X0110263D01*
X0112100Y0164853D01*
X0112559D01*
X0243935Y0186902D02*
Y0189657D01*
X0245313D01*
X0245772Y0189197D01*
Y0188279D01*
X0245313Y0187820D01*
X0243935D01*
X0244854D02*
X0245772Y0186902D01*
X0248527D02*
X0246691D01*
X0248527Y0188738D01*
Y0189197D01*
X0248068Y0189657D01*
X0247150D01*
X0246691Y0189197D01*
X0249446D02*
X0249905Y0189657D01*
X0250823D01*
X0251282Y0189197D01*
Y0188738D01*
X0250823Y0188279D01*
X0251282Y0187820D01*
Y0187361D01*
X0250823Y0186902D01*
X0249905D01*
X0249446Y0187361D01*
Y0187820D01*
X0249905Y0188279D01*
X0249446Y0188738D01*
Y0189197D01*
X0249905Y0188279D02*
X0250823D01*
X0124409Y0159224D02*
X0121654D01*
Y0160602D01*
X0122114Y0161061D01*
X0123032D01*
X0123491Y0160602D01*
Y0159224D01*
Y0160143D02*
X0124409Y0161061D01*
Y0163816D02*
Y0161979D01*
X0122573Y0163816D01*
X0122114D01*
X0121654Y0163357D01*
Y0162439D01*
X0122114Y0161979D01*
X0123950Y0164734D02*
X0124409Y0165194D01*
Y0166112D01*
X0123950Y0166571D01*
X0122114D01*
X0121654Y0166112D01*
Y0165194D01*
X0122114Y0164734D01*
X0122573D01*
X0123032Y0165194D01*
Y0166571D01*
X0120354Y0159146D02*
X0117599D01*
Y0160523D01*
X0118059Y0160982D01*
X0118977D01*
X0119436Y0160523D01*
Y0159146D01*
Y0160064D02*
X0120354Y0160982D01*
X0118059Y0161901D02*
X0117599Y0162360D01*
Y0163278D01*
X0118059Y0163737D01*
X0118518D01*
X0118977Y0163278D01*
Y0162819D01*
Y0163278D01*
X0119436Y0163737D01*
X0119895D01*
X0120354Y0163278D01*
Y0162360D01*
X0119895Y0161901D01*
X0120354Y0166492D02*
Y0164656D01*
X0118518Y0166492D01*
X0118059D01*
X0117599Y0166033D01*
Y0165115D01*
X0118059Y0164656D01*
X0301220Y0152609D02*
X0303057D01*
X0302139D01*
Y0149854D01*
X0303976D02*
X0304894D01*
X0304435D01*
Y0152609D01*
X0303976Y0152150D01*
X0252834Y0127374D02*
Y0129211D01*
Y0128292D01*
X0255589D01*
Y0131966D02*
Y0130129D01*
X0253752Y0131966D01*
X0253293D01*
X0252834Y0131507D01*
Y0130588D01*
X0253293Y0130129D01*
X0307402Y0169027D02*
Y0166731D01*
X0307861Y0166272D01*
X0308779D01*
X0309238Y0166731D01*
Y0169027D01*
X0310157Y0166272D02*
X0311075D01*
X0310616D01*
Y0169027D01*
X0310157Y0168568D01*
X0262392Y0186586D02*
Y0184290D01*
X0262851Y0183831D01*
X0263769D01*
X0264228Y0184290D01*
Y0186586D01*
X0266983Y0183831D02*
X0265147D01*
X0266983Y0185667D01*
Y0186127D01*
X0266524Y0186586D01*
X0265606D01*
X0265147Y0186127D01*
X0238109Y0189617D02*
Y0187321D01*
X0238568Y0186862D01*
X0239486D01*
X0239945Y0187321D01*
Y0189617D01*
X0240864Y0189158D02*
X0241323Y0189617D01*
X0242241D01*
X0242700Y0189158D01*
Y0188699D01*
X0242241Y0188240D01*
X0241782D01*
X0242241D01*
X0242700Y0187780D01*
Y0187321D01*
X0242241Y0186862D01*
X0241323D01*
X0240864Y0187321D01*
X0201416Y0180011D02*
Y0177715D01*
X0201875Y0177256D01*
X0202793D01*
X0203253Y0177715D01*
Y0180011D01*
X0206008D02*
X0204171D01*
Y0178633D01*
X0205089Y0179093D01*
X0205548D01*
X0206008Y0178633D01*
Y0177715D01*
X0205548Y0177256D01*
X0204630D01*
X0204171Y0177715D01*
X0167518Y0200641D02*
X0169355Y0197886D01*
Y0200641D02*
X0167518Y0197886D01*
X0170273D02*
X0171192D01*
X0170732D01*
Y0200641D01*
X0170273Y0200182D01*
X0129764Y0223004D02*
Y0225759D01*
X0131141D01*
X0131600Y0225300D01*
Y0224381D01*
X0131141Y0223922D01*
X0129764D01*
X0134355Y0225759D02*
X0133437Y0225300D01*
X0132519Y0224381D01*
Y0223463D01*
X0132978Y0223004D01*
X0133896D01*
X0134355Y0223463D01*
Y0223922D01*
X0133896Y0224381D01*
X0132519D01*
X0178410Y0138804D02*
X0177951Y0139263D01*
X0177032D01*
X0176573Y0138804D01*
Y0136967D01*
X0177032Y0136508D01*
X0177951D01*
X0178410Y0136967D01*
X0179328Y0136508D02*
X0180247D01*
X0179788D01*
Y0139263D01*
X0179328Y0138804D01*
X0183461Y0139263D02*
X0181624D01*
Y0137885D01*
X0182543Y0138345D01*
X0183002D01*
X0183461Y0137885D01*
Y0136967D01*
X0183002Y0136508D01*
X0182083D01*
X0181624Y0136967D01*
X0219132Y0127374D02*
X0216377D01*
Y0128752D01*
X0216837Y0129211D01*
X0217755D01*
X0218214Y0128752D01*
Y0127374D01*
Y0128292D02*
X0219132Y0129211D01*
X0216837Y0130129D02*
X0216377Y0130588D01*
Y0131507D01*
X0216837Y0131966D01*
X0217296D01*
X0217755Y0131507D01*
Y0131047D01*
Y0131507D01*
X0218214Y0131966D01*
X0218673D01*
X0219132Y0131507D01*
Y0130588D01*
X0218673Y0130129D01*
X0216837Y0132884D02*
X0216377Y0133343D01*
Y0134262D01*
X0216837Y0134721D01*
X0218673D01*
X0219132Y0134262D01*
Y0133343D01*
X0218673Y0132884D01*
X0216837D01*
X0235077Y0168870D02*
X0232322D01*
Y0170248D01*
X0232781Y0170707D01*
X0233700D01*
X0234159Y0170248D01*
Y0168870D01*
Y0169788D02*
X0235077Y0170707D01*
X0232781Y0171625D02*
X0232322Y0172084D01*
Y0173003D01*
X0232781Y0173462D01*
X0233241D01*
X0233700Y0173003D01*
Y0172543D01*
Y0173003D01*
X0234159Y0173462D01*
X0234618D01*
X0235077Y0173003D01*
Y0172084D01*
X0234618Y0171625D01*
X0235077Y0174380D02*
Y0175299D01*
Y0174839D01*
X0232322D01*
X0232781Y0174380D01*
X0231495Y0168831D02*
X0228740D01*
Y0170208D01*
X0229199Y0170667D01*
X0230117D01*
X0230576Y0170208D01*
Y0168831D01*
Y0169749D02*
X0231495Y0170667D01*
X0229199Y0171586D02*
X0228740Y0172045D01*
Y0172963D01*
X0229199Y0173422D01*
X0229658D01*
X0230117Y0172963D01*
Y0172504D01*
Y0172963D01*
X0230576Y0173422D01*
X0231035D01*
X0231495Y0172963D01*
Y0172045D01*
X0231035Y0171586D01*
X0228740Y0176177D02*
Y0174341D01*
X0230117D01*
X0229658Y0175259D01*
Y0175718D01*
X0230117Y0176177D01*
X0231035D01*
X0231495Y0175718D01*
Y0174800D01*
X0231035Y0174341D01*
D18*
X0216207Y0146691D02*
X0215747Y0146232D01*
Y0145314D01*
X0216207Y0144854D01*
X0218043D01*
X0218502Y0145314D01*
Y0146232D01*
X0218043Y0146691D01*
X0218502Y0149446D02*
Y0147609D01*
X0216666Y0149446D01*
X0216207D01*
X0215747Y0148987D01*
Y0148068D01*
X0216207Y0147609D01*
X0215747Y0152201D02*
Y0150364D01*
X0217125D01*
X0216666Y0151283D01*
Y0151742D01*
X0217125Y0152201D01*
X0218043D01*
X0218502Y0151742D01*
Y0150823D01*
X0218043Y0150364D01*
M02*
