G04*
G04 #@! TF.GenerationSoftware,Altium Limited,Altium Designer,19.0.14 (431)*
G04*
G04 Layer_Color=16711935*
%FSAX25Y25*%
%MOIN*%
G70*
G01*
G75*
%ADD65R,0.04934X0.09461*%
%ADD66R,0.04737X0.04737*%
%ADD97R,0.06706X0.06706*%
%ADD98C,0.06706*%
%ADD99P,0.08537X8X112.5*%
%ADD100R,0.06706X0.06706*%
%ADD101R,0.00800X0.00800*%
%ADD102O,0.04737X0.07099*%
%ADD103C,0.24422*%
%ADD136R,0.03556X0.06706*%
%ADD137R,0.06706X0.03556*%
D65*
X0111122Y0189272D02*
D03*
X0122736D02*
D03*
D66*
X0116929Y0183366D02*
D03*
D97*
X0165551Y0116862D02*
D03*
X0285157D02*
D03*
X0273346D02*
D03*
X0251693D02*
D03*
X0140598Y0208095D02*
D03*
D98*
X0155551Y0116862D02*
D03*
X0145551D02*
D03*
X0357205Y0163673D02*
D03*
Y0173673D02*
D03*
Y0183673D02*
D03*
X0295158Y0116862D02*
D03*
X0263347D02*
D03*
X0181693D02*
D03*
X0191693D02*
D03*
X0201693D02*
D03*
X0211693D02*
D03*
X0221693D02*
D03*
X0231693D02*
D03*
X0241693D02*
D03*
X0140598Y0218094D02*
D03*
X0150599Y0208095D02*
D03*
Y0218094D02*
D03*
X0160599Y0208095D02*
D03*
Y0218094D02*
D03*
X0170598Y0208095D02*
D03*
Y0218094D02*
D03*
X0180598Y0208095D02*
D03*
Y0218094D02*
D03*
X0190598Y0208095D02*
D03*
Y0218094D02*
D03*
X0200599Y0208095D02*
D03*
Y0218094D02*
D03*
X0210598Y0208095D02*
D03*
Y0218094D02*
D03*
X0220599Y0208095D02*
D03*
Y0218094D02*
D03*
X0230598Y0208095D02*
D03*
Y0218094D02*
D03*
X0240599Y0208095D02*
D03*
Y0218094D02*
D03*
X0250599Y0208095D02*
D03*
Y0218094D02*
D03*
X0260598Y0208095D02*
D03*
Y0218094D02*
D03*
X0270599Y0208095D02*
D03*
Y0218094D02*
D03*
X0280598Y0208095D02*
D03*
Y0218094D02*
D03*
X0290599Y0208095D02*
D03*
Y0218094D02*
D03*
X0300599Y0208095D02*
D03*
Y0218094D02*
D03*
X0310598Y0208095D02*
D03*
Y0218094D02*
D03*
X0320599Y0208095D02*
D03*
Y0218094D02*
D03*
X0330598Y0208095D02*
D03*
Y0218094D02*
D03*
D99*
X0207953Y0141705D02*
D03*
Y0184224D02*
D03*
D100*
X0357205Y0153673D02*
D03*
D101*
X0328039Y0125073D02*
D03*
X0312094D02*
D03*
D102*
X0331398Y0116608D02*
D03*
X0308760D02*
D03*
D103*
X0121378Y0122374D02*
D03*
Y0212925D02*
D03*
X0349724D02*
D03*
Y0122374D02*
D03*
D136*
X0127717Y0174650D02*
D03*
X0132441D02*
D03*
X0137165D02*
D03*
X0141890D02*
D03*
X0146614D02*
D03*
Y0141185D02*
D03*
X0141890D02*
D03*
X0137165D02*
D03*
X0132441D02*
D03*
X0127717D02*
D03*
D137*
X0153110Y0169728D02*
D03*
Y0165004D02*
D03*
Y0160280D02*
D03*
Y0155555D02*
D03*
Y0150831D02*
D03*
Y0146106D02*
D03*
M02*
