G04 Layer_Color=16711935*
%FSAX25Y25*%
%MOIN*%
G70*
G01*
G75*
%ADD49C,0.01000*%
%ADD53C,0.02756*%
%ADD64C,0.00394*%
%ADD66C,0.00787*%
%ADD68C,0.00591*%
%ADD119C,0.01968*%
%ADD120C,0.00197*%
%ADD121R,0.16535X0.02224*%
D49*
X0275709Y0158201D02*
G03*
X0275709Y0158201I-0000394J0000000D01*
G01*
X0137716Y0112335D02*
X0144016D01*
X0137716Y0111153D02*
X0144016D01*
Y0124146D01*
X0137716D02*
X0144016D01*
X0137716Y0111153D02*
Y0124146D01*
X0145000Y0112335D02*
X0151299D01*
X0145000Y0111153D02*
X0151299D01*
Y0124146D01*
X0145000D02*
X0151299D01*
X0145000D02*
X0145000Y0111153D01*
X0336339Y0154657D02*
Y0160957D01*
X0335157Y0154657D02*
Y0160957D01*
Y0154657D02*
X0348150D01*
Y0160957D01*
X0335157D02*
X0348150D01*
X0314747Y0117530D02*
X0313747Y0118530D01*
X0311748D01*
X0310748Y0117530D01*
Y0113531D01*
X0311748Y0112531D01*
X0313747D01*
X0314747Y0113531D01*
X0319745Y0118530D02*
X0317746D01*
X0316746Y0117530D01*
Y0113531D01*
X0317746Y0112531D01*
X0319745D01*
X0320745Y0113531D01*
Y0117530D01*
X0319745Y0118530D01*
X0322744Y0112531D02*
Y0118530D01*
X0326743Y0112531D01*
Y0118530D01*
X0328742Y0112531D02*
X0330742D01*
X0329742D01*
Y0118530D01*
X0328742Y0117530D01*
D53*
X0280920Y0139697D02*
G03*
X0280920Y0139697I-0000880J0000000D01*
G01*
D64*
X0233386Y0174146D02*
G03*
X0233386Y0174146I-0001575J0000000D01*
G01*
X0197687Y0191047D02*
G03*
X0197687Y0191047I-0000943J0000000D01*
G01*
X0188307Y0123358D02*
Y0129264D01*
X0177284D02*
X0188307D01*
X0177284Y0123358D02*
Y0129264D01*
Y0123358D02*
X0188307D01*
X0190472D02*
Y0129264D01*
Y0123358D02*
X0201496D01*
Y0129264D01*
X0190472D02*
X0201496D01*
X0194219Y0147333D02*
X0199718D01*
Y0158833D01*
X0194219D02*
X0199718D01*
X0194219Y0147333D02*
Y0158833D01*
X0162520Y0189697D02*
X0168425D01*
Y0200721D01*
X0162520D02*
X0168425D01*
X0162520Y0189697D02*
Y0200721D01*
X0155827Y0189697D02*
X0161732D01*
Y0200721D01*
X0155827D02*
X0161732D01*
X0155827Y0189697D02*
Y0200721D01*
X0149134Y0189697D02*
X0155039D01*
Y0200721D01*
X0149134D02*
X0155039D01*
X0149134Y0189697D02*
Y0200721D01*
X0142441D02*
X0148346D01*
X0142441Y0189697D02*
Y0200721D01*
Y0189697D02*
X0148346D01*
Y0200721D01*
X0135748D02*
X0141654D01*
X0135748Y0189697D02*
Y0200721D01*
Y0189697D02*
X0141654D01*
Y0200721D01*
X0200709Y0154657D02*
X0206614D01*
X0200709Y0143634D02*
Y0154657D01*
Y0143634D02*
X0206614D01*
Y0154657D01*
X0200709Y0170405D02*
X0206614Y0170405D01*
X0200709Y0159382D02*
Y0170405D01*
Y0159382D02*
X0206614D01*
X0206614Y0170405D02*
X0206614Y0159382D01*
X0137923Y0136071D02*
X0143828D01*
X0137923Y0125047D02*
Y0136071D01*
Y0125047D02*
X0143828Y0125047D01*
Y0136071D01*
X0145206Y0136071D02*
X0151112D01*
X0145206Y0125047D02*
Y0136071D01*
Y0125047D02*
X0151112D01*
Y0136071D01*
X0288307Y0187531D02*
Y0193437D01*
X0277284D02*
X0288307D01*
X0277284Y0187531D02*
Y0193437D01*
Y0187531D02*
X0288307D01*
Y0194224D02*
Y0200130D01*
X0277284D02*
X0288307D01*
X0277284Y0194224D02*
Y0200130D01*
Y0194224D02*
X0288307D01*
X0277045Y0181041D02*
X0288545D01*
X0277045D02*
Y0186541D01*
X0288545D01*
Y0181041D02*
Y0186541D01*
X0253268Y0123949D02*
Y0139697D01*
X0277677Y0123949D02*
Y0139697D01*
X0253268D02*
X0277677D01*
X0253268Y0123949D02*
X0277677D01*
X0221969Y0140484D02*
X0227874D01*
Y0151508D01*
X0221969D02*
X0227874D01*
X0221969Y0140484D02*
Y0151508D01*
X0228858Y0140287D02*
Y0146193D01*
Y0140287D02*
X0239882D01*
Y0146193D01*
X0228858D02*
X0239882D01*
X0214882Y0135169D02*
X0220787D01*
X0214882Y0124146D02*
Y0135169D01*
Y0124146D02*
X0220787D01*
Y0135169D01*
X0219803Y0162728D02*
Y0168634D01*
X0208780D02*
X0219803D01*
X0208780Y0162728D02*
Y0168634D01*
Y0162728D02*
X0219803D01*
X0214882Y0146783D02*
X0220787D01*
X0214882Y0135760D02*
Y0146783D01*
Y0135760D02*
X0220787D01*
Y0146783D01*
X0240276Y0127492D02*
Y0151902D01*
X0252087Y0127492D02*
Y0151902D01*
X0240276Y0127492D02*
X0252087D01*
X0240276Y0151902D02*
X0252087D01*
X0220984Y0158595D02*
X0220984Y0166469D01*
X0220984Y0158595D02*
X0235157D01*
X0235157Y0166469D01*
X0220984D02*
X0235157D01*
X0224528Y0187433D02*
X0233189D01*
X0224528Y0181724D02*
X0233189D01*
X0224528D02*
Y0187433D01*
X0233189Y0181724D02*
Y0187433D01*
X0222756Y0177295D02*
X0234961D01*
X0222756Y0169028D02*
X0234961D01*
Y0177295D01*
X0222756Y0169028D02*
Y0177295D01*
X0209173Y0138516D02*
X0212323D01*
X0209173Y0131823D02*
Y0138516D01*
Y0131823D02*
X0212323D01*
Y0138516D01*
X0207795Y0140681D02*
X0213701D01*
X0207795Y0123949D02*
Y0140681D01*
Y0123949D02*
X0213701D01*
Y0140681D01*
X0334370Y0135760D02*
Y0198752D01*
X0271378Y0135760D02*
X0334370D01*
X0271378D02*
Y0198752D01*
X0334370Y0198752D01*
X0185945Y0166665D02*
X0185945Y0172571D01*
X0185945Y0166665D02*
X0196968D01*
X0196968Y0172571D01*
X0185945Y0172571D02*
X0196968Y0172571D01*
X0185945Y0159973D02*
X0185945Y0165878D01*
X0185945Y0159973D02*
X0196968Y0159973D01*
Y0165878D01*
X0185945D02*
X0196968D01*
X0200512Y0182484D02*
Y0198484D01*
X0209173Y0198484D01*
X0209173Y0182484D02*
X0209173Y0198484D01*
X0200512Y0182484D02*
X0209173Y0182484D01*
X0186142Y0180445D02*
Y0192650D01*
X0198346Y0180445D02*
Y0192650D01*
X0186142Y0180445D02*
X0198346D01*
X0186142Y0192650D02*
X0198346D01*
X0208780Y0169815D02*
X0208780Y0175721D01*
X0208780Y0169815D02*
X0219803D01*
Y0175721D01*
X0208780D02*
X0219803D01*
X0212717Y0176705D02*
X0220591D01*
Y0190878D01*
X0212717D02*
X0220591D01*
X0212717Y0176705D02*
Y0190878D01*
X0273740Y0146193D02*
Y0152098D01*
Y0146193D02*
X0284764D01*
Y0152098D01*
X0273740D02*
X0284764D01*
X0270197Y0142847D02*
Y0150721D01*
X0256024D02*
X0270197D01*
X0256024Y0142847D02*
Y0150721D01*
Y0142847D02*
X0270197D01*
Y0151508D02*
Y0159382D01*
X0256024D02*
X0270197D01*
X0256024Y0151508D02*
Y0159382D01*
Y0151508D02*
X0270197D01*
X0270197Y0159776D02*
Y0167650D01*
X0256024D02*
X0270197D01*
X0256024Y0159776D02*
Y0167650D01*
Y0159776D02*
X0270197D01*
X0237520Y0166469D02*
X0254055D01*
X0237520Y0183004D02*
X0254055D01*
X0237520Y0166469D02*
Y0183004D01*
X0254055Y0166469D02*
Y0183004D01*
X0288307Y0174146D02*
Y0180051D01*
X0277284D02*
X0288307D01*
X0277284Y0174146D02*
Y0180051D01*
Y0174146D02*
X0288307D01*
Y0166272D02*
Y0172177D01*
X0277284D02*
X0288307D01*
X0277284Y0166272D02*
Y0172177D01*
Y0166272D02*
X0288307D01*
X0274134Y0152295D02*
X0288307D01*
X0274134Y0159382D02*
X0288307D01*
Y0152295D02*
Y0159382D01*
X0274134Y0152295D02*
Y0159382D01*
X0287323Y0143535D02*
X0297953D01*
X0287323Y0126409D02*
X0297953D01*
Y0143535D01*
X0287323Y0126409D02*
Y0143535D01*
Y0140878D02*
X0297953D01*
X0320098Y0133201D02*
Y0143831D01*
X0302972Y0133201D02*
Y0143831D01*
Y0133201D02*
X0320098D01*
X0302972Y0143831D02*
X0320098D01*
X0317441Y0133201D02*
Y0143831D01*
X0343622Y0146783D02*
X0349528D01*
X0343622Y0135760D02*
Y0146783D01*
Y0135760D02*
X0349528D01*
Y0146783D01*
X0326496Y0134579D02*
X0340669D01*
X0326496Y0142453D02*
X0340669D01*
Y0134579D02*
Y0142453D01*
X0326496Y0134579D02*
Y0142453D01*
X0311923Y0152451D02*
Y0163951D01*
X0306423Y0152451D02*
X0311923D01*
X0306423D02*
Y0163951D01*
X0311923D01*
X0320191Y0148907D02*
Y0160407D01*
X0314691Y0148907D02*
X0320191D01*
X0314691D02*
Y0160407D01*
X0320191D01*
X0321378Y0162531D02*
X0329252D01*
X0321378Y0148358D02*
Y0162531D01*
Y0148358D02*
X0329252D01*
Y0162531D01*
X0337126Y0162335D02*
Y0168240D01*
Y0162335D02*
X0348150D01*
Y0168240D01*
X0337126D02*
X0348150D01*
Y0169028D02*
Y0174933D01*
X0337126D02*
X0348150D01*
X0337126Y0169028D02*
Y0174933D01*
Y0169028D02*
X0348150D01*
X0334567Y0176311D02*
X0340472D01*
Y0187335D01*
X0334567D02*
X0340472D01*
X0334567Y0176311D02*
Y0187335D01*
Y0188516D02*
X0340472D01*
Y0199539D01*
X0334567D02*
X0340472D01*
X0334567Y0188516D02*
Y0199539D01*
X0240669Y0186547D02*
X0248543D01*
Y0200721D01*
X0240669D02*
X0248543D01*
X0240669Y0186547D02*
Y0200721D01*
X0249331Y0186547D02*
X0257205D01*
Y0200721D01*
X0249331D02*
X0257205D01*
X0249331Y0186547D02*
Y0200721D01*
X0272559Y0192847D02*
Y0200721D01*
X0258386D02*
X0272559D01*
X0258386Y0192847D02*
Y0200721D01*
Y0192847D02*
X0272559D01*
X0277284Y0159579D02*
Y0165484D01*
Y0159579D02*
X0288307D01*
Y0165484D01*
X0277284D02*
X0288307D01*
X0290276Y0186153D02*
X0298150D01*
Y0200327D01*
X0290276D02*
X0298150D01*
X0290276Y0186153D02*
Y0200327D01*
X0299331Y0186153D02*
X0307205D01*
Y0200327D01*
X0299331D02*
X0307205D01*
X0299331Y0186153D02*
Y0200327D01*
X0289882Y0166075D02*
X0306417D01*
X0289882Y0182610D02*
X0306417D01*
X0289882Y0166075D02*
Y0182610D01*
X0306417Y0166075D02*
Y0182610D01*
X0308189Y0188516D02*
X0314094D01*
Y0199539D01*
X0308189D02*
X0314094D01*
X0308189Y0188516D02*
Y0199539D01*
X0314882Y0188516D02*
X0320787D01*
Y0199539D01*
X0314882D02*
X0320787D01*
X0314882Y0188516D02*
Y0199539D01*
X0321575D02*
X0327480D01*
X0321575Y0188516D02*
Y0199539D01*
Y0188516D02*
X0327480D01*
Y0199539D01*
X0328268Y0188516D02*
X0334173D01*
Y0199539D01*
X0328268D02*
X0334173D01*
X0328268Y0188516D02*
Y0199539D01*
X0184370Y0135169D02*
Y0141075D01*
X0173346D02*
X0184370D01*
X0173346Y0135169D02*
Y0141075D01*
Y0135169D02*
X0184370D01*
X0182925Y0147913D02*
X0188831D01*
Y0158937D01*
X0182925D02*
X0188831D01*
X0182925Y0147913D02*
Y0158937D01*
X0192048Y0133398D02*
Y0135497D01*
Y0134447D01*
X0195197D01*
X0192048Y0138645D02*
X0192573Y0137596D01*
X0193623Y0136546D01*
X0194672D01*
X0195197Y0137071D01*
Y0138120D01*
X0194672Y0138645D01*
X0194147D01*
X0193623Y0138120D01*
Y0136546D01*
X0187126Y0127886D02*
Y0125524D01*
X0185945D01*
X0185552Y0125918D01*
Y0126705D01*
X0185945Y0127099D01*
X0187126D01*
X0186339D02*
X0185552Y0127886D01*
X0184765Y0125918D02*
X0184371Y0125524D01*
X0183584D01*
X0183190Y0125918D01*
Y0126312D01*
X0183584Y0126705D01*
X0183977D01*
X0183584D01*
X0183190Y0127099D01*
Y0127492D01*
X0183584Y0127886D01*
X0184371D01*
X0184765Y0127492D01*
X0180829Y0125524D02*
X0181616Y0125918D01*
X0182403Y0126705D01*
Y0127492D01*
X0182009Y0127886D01*
X0181222D01*
X0180829Y0127492D01*
Y0127099D01*
X0181222Y0126705D01*
X0182403D01*
X0191654Y0124736D02*
Y0127098D01*
X0192834D01*
X0193228Y0126704D01*
Y0125917D01*
X0192834Y0125523D01*
X0191654D01*
X0192441D02*
X0193228Y0124736D01*
X0194015Y0126704D02*
X0194409Y0127098D01*
X0195196D01*
X0195589Y0126704D01*
Y0126311D01*
X0195196Y0125917D01*
X0194802D01*
X0195196D01*
X0195589Y0125523D01*
Y0125130D01*
X0195196Y0124736D01*
X0194409D01*
X0194015Y0125130D01*
X0197951Y0127098D02*
X0196376D01*
Y0125917D01*
X0197164Y0126311D01*
X0197557D01*
X0197951Y0125917D01*
Y0125130D01*
X0197557Y0124736D01*
X0196770D01*
X0196376Y0125130D01*
X0196001Y0150907D02*
X0195607Y0150513D01*
Y0149726D01*
X0196001Y0149333D01*
X0197575D01*
X0197968Y0149726D01*
Y0150513D01*
X0197575Y0150907D01*
X0197968Y0151694D02*
Y0152481D01*
Y0152088D01*
X0195607D01*
X0196001Y0151694D01*
X0195607Y0155236D02*
Y0153662D01*
X0196788D01*
X0196394Y0154449D01*
Y0154843D01*
X0196788Y0155236D01*
X0197575D01*
X0197968Y0154843D01*
Y0154056D01*
X0197575Y0153662D01*
X0167441Y0190287D02*
X0165079D01*
Y0191468D01*
X0165473Y0191862D01*
X0166260D01*
X0166654Y0191468D01*
Y0190287D01*
Y0191075D02*
X0167441Y0191862D01*
Y0194223D02*
Y0192649D01*
X0165867Y0194223D01*
X0165473D01*
X0165079Y0193830D01*
Y0193042D01*
X0165473Y0192649D01*
Y0195010D02*
X0165079Y0195404D01*
Y0196191D01*
X0165473Y0196585D01*
X0165867D01*
X0166260Y0196191D01*
Y0195797D01*
Y0196191D01*
X0166654Y0196585D01*
X0167047D01*
X0167441Y0196191D01*
Y0195404D01*
X0167047Y0195010D01*
X0159961Y0192059D02*
X0157599D01*
Y0193240D01*
X0157993Y0193633D01*
X0158780D01*
X0159174Y0193240D01*
Y0192059D01*
Y0192846D02*
X0159961Y0193633D01*
Y0195995D02*
Y0194421D01*
X0158386Y0195995D01*
X0157993D01*
X0157599Y0195601D01*
Y0194814D01*
X0157993Y0194421D01*
X0159961Y0198356D02*
Y0196782D01*
X0158386Y0198356D01*
X0157993D01*
X0157599Y0197963D01*
Y0197176D01*
X0157993Y0196782D01*
X0153071Y0192650D02*
X0150709D01*
Y0193830D01*
X0151103Y0194224D01*
X0151890D01*
X0152284Y0193830D01*
Y0192650D01*
Y0193437D02*
X0153071Y0194224D01*
Y0196585D02*
Y0195011D01*
X0151497Y0196585D01*
X0151103D01*
X0150709Y0196192D01*
Y0195405D01*
X0151103Y0195011D01*
X0153071Y0197372D02*
Y0198160D01*
Y0197766D01*
X0150709D01*
X0151103Y0197372D01*
X0146575Y0192453D02*
X0144213D01*
Y0193633D01*
X0144607Y0194027D01*
X0145394D01*
X0145788Y0193633D01*
Y0192453D01*
Y0193240D02*
X0146575Y0194027D01*
Y0196388D02*
Y0194814D01*
X0145001Y0196388D01*
X0144607D01*
X0144213Y0195995D01*
Y0195208D01*
X0144607Y0194814D01*
X0144213Y0197176D02*
Y0198750D01*
X0144607D01*
X0146181Y0197176D01*
X0146575D01*
X0140079Y0192256D02*
X0137717D01*
Y0193437D01*
X0138111Y0193830D01*
X0138898D01*
X0139292Y0193437D01*
Y0192256D01*
Y0193043D02*
X0140079Y0193830D01*
Y0196192D02*
Y0194617D01*
X0138505Y0196192D01*
X0138111D01*
X0137717Y0195798D01*
Y0195011D01*
X0138111Y0194617D01*
X0137717Y0198553D02*
X0138111Y0197766D01*
X0138898Y0196979D01*
X0139685D01*
X0140079Y0197372D01*
Y0198160D01*
X0139685Y0198553D01*
X0139292D01*
X0138898Y0198160D01*
Y0196979D01*
X0204842Y0145898D02*
X0202481D01*
Y0147078D01*
X0202875Y0147472D01*
X0203662D01*
X0204055Y0147078D01*
Y0145898D01*
Y0146685D02*
X0204842Y0147472D01*
X0202875Y0148259D02*
X0202481Y0148653D01*
Y0149440D01*
X0202875Y0149833D01*
X0203268D01*
X0203662Y0149440D01*
Y0149046D01*
Y0149440D01*
X0204055Y0149833D01*
X0204449D01*
X0204842Y0149440D01*
Y0148653D01*
X0204449Y0148259D01*
X0204842Y0152195D02*
Y0150620D01*
X0203268Y0152195D01*
X0202875D01*
X0202481Y0151801D01*
Y0151014D01*
X0202875Y0150620D01*
X0202480Y0167945D02*
X0204842D01*
Y0166764D01*
X0204448Y0166371D01*
X0203661D01*
X0203268Y0166764D01*
Y0167945D01*
Y0167158D02*
X0202480Y0166371D01*
X0204448Y0165583D02*
X0204842Y0165190D01*
Y0164403D01*
X0204448Y0164009D01*
X0204055D01*
X0203661Y0164403D01*
Y0164796D01*
Y0164403D01*
X0203268Y0164009D01*
X0202874D01*
X0202480Y0164403D01*
Y0165190D01*
X0202874Y0165583D01*
X0204448Y0163222D02*
X0204842Y0162828D01*
Y0162041D01*
X0204448Y0161648D01*
X0204055D01*
X0203661Y0162041D01*
Y0162435D01*
Y0162041D01*
X0203268Y0161648D01*
X0202874D01*
X0202480Y0162041D01*
Y0162828D01*
X0202874Y0163222D01*
X0139883Y0115878D02*
X0142244D01*
Y0117059D01*
X0141850Y0117452D01*
X0140276D01*
X0139883Y0117059D01*
Y0115878D01*
Y0118239D02*
Y0119814D01*
X0140276D01*
X0141850Y0118239D01*
X0142244D01*
X0146772Y0115681D02*
X0149134D01*
Y0116862D01*
X0148740Y0117255D01*
X0147166D01*
X0146772Y0116862D01*
Y0115681D01*
X0147166Y0118043D02*
X0146772Y0118436D01*
Y0119223D01*
X0147166Y0119617D01*
X0147560D01*
X0147953Y0119223D01*
X0148347Y0119617D01*
X0148740D01*
X0149134Y0119223D01*
Y0118436D01*
X0148740Y0118043D01*
X0148347D01*
X0147953Y0118436D01*
X0147560Y0118043D01*
X0147166D01*
X0147953Y0118436D02*
Y0119223D01*
X0142244Y0127689D02*
X0139883D01*
Y0128870D01*
X0140276Y0129263D01*
X0141063D01*
X0141457Y0128870D01*
Y0127689D01*
Y0128476D02*
X0142244Y0129263D01*
Y0131625D02*
Y0130050D01*
X0140670Y0131625D01*
X0140276D01*
X0139883Y0131231D01*
Y0130444D01*
X0140276Y0130050D01*
Y0132412D02*
X0139883Y0132805D01*
Y0133593D01*
X0140276Y0133986D01*
X0140670D01*
X0141063Y0133593D01*
X0141457Y0133986D01*
X0141850D01*
X0142244Y0133593D01*
Y0132805D01*
X0141850Y0132412D01*
X0141457D01*
X0141063Y0132805D01*
X0140670Y0132412D01*
X0140276D01*
X0141063Y0132805D02*
Y0133593D01*
X0149331Y0127492D02*
X0146969D01*
Y0128673D01*
X0147363Y0129066D01*
X0148150D01*
X0148544Y0128673D01*
Y0127492D01*
Y0128279D02*
X0149331Y0129066D01*
Y0131428D02*
Y0129854D01*
X0147756Y0131428D01*
X0147363D01*
X0146969Y0131034D01*
Y0130247D01*
X0147363Y0129854D01*
X0148937Y0132215D02*
X0149331Y0132609D01*
Y0133396D01*
X0148937Y0133789D01*
X0147363D01*
X0146969Y0133396D01*
Y0132609D01*
X0147363Y0132215D01*
X0147756D01*
X0148150Y0132609D01*
Y0133789D01*
X0280827Y0189106D02*
Y0191468D01*
X0282008D01*
X0282401Y0191074D01*
Y0190287D01*
X0282008Y0189893D01*
X0280827D01*
X0281614D02*
X0282401Y0189106D01*
X0284369D02*
Y0191468D01*
X0283188Y0190287D01*
X0284763D01*
X0280827Y0195799D02*
Y0198161D01*
X0282008D01*
X0282401Y0197767D01*
Y0196980D01*
X0282008Y0196586D01*
X0280827D01*
X0281614D02*
X0282401Y0195799D01*
X0283188Y0197767D02*
X0283582Y0198161D01*
X0284369D01*
X0284763Y0197767D01*
Y0197373D01*
X0284369Y0196980D01*
X0284763Y0196586D01*
Y0196193D01*
X0284369Y0195799D01*
X0283582D01*
X0283188Y0196193D01*
Y0196586D01*
X0283582Y0196980D01*
X0283188Y0197373D01*
Y0197767D01*
X0283582Y0196980D02*
X0284369D01*
X0281417Y0184578D02*
X0281023Y0184972D01*
X0280236D01*
X0279842Y0184578D01*
Y0183004D01*
X0280236Y0182610D01*
X0281023D01*
X0281417Y0183004D01*
X0282204Y0182610D02*
X0282991D01*
X0282597D01*
Y0184972D01*
X0282204Y0184578D01*
X0285746Y0182610D02*
X0284172D01*
X0285746Y0184185D01*
Y0184578D01*
X0285353Y0184972D01*
X0284565D01*
X0284172Y0184578D01*
X0265603Y0133200D02*
X0263504D01*
Y0131625D01*
X0264553D01*
X0263504D01*
Y0130051D01*
X0266652D02*
X0267702D01*
X0267177D01*
Y0133200D01*
X0266652Y0132675D01*
X0225905Y0142650D02*
X0223544D01*
Y0143830D01*
X0223938Y0144224D01*
X0224725D01*
X0225118Y0143830D01*
Y0142650D01*
Y0143437D02*
X0225905Y0144224D01*
Y0146585D02*
Y0145011D01*
X0224331Y0146585D01*
X0223938D01*
X0223544Y0146192D01*
Y0145405D01*
X0223938Y0145011D01*
Y0147372D02*
X0223544Y0147766D01*
Y0148553D01*
X0223938Y0148947D01*
X0225512D01*
X0225905Y0148553D01*
Y0147766D01*
X0225512Y0147372D01*
X0223938D01*
X0231024Y0142059D02*
Y0144421D01*
X0232204D01*
X0232598Y0144027D01*
Y0143240D01*
X0232204Y0142846D01*
X0231024D01*
X0231811D02*
X0232598Y0142059D01*
X0233385D02*
X0234172D01*
X0233779D01*
Y0144421D01*
X0233385Y0144027D01*
X0235353D02*
X0235747Y0144421D01*
X0236534D01*
X0236927Y0144027D01*
Y0143633D01*
X0236534Y0143240D01*
X0236927Y0142846D01*
Y0142453D01*
X0236534Y0142059D01*
X0235747D01*
X0235353Y0142453D01*
Y0142846D01*
X0235747Y0143240D01*
X0235353Y0143633D01*
Y0144027D01*
X0235747Y0143240D02*
X0236534D01*
X0219016Y0127098D02*
X0216654D01*
Y0128279D01*
X0217048Y0128673D01*
X0217835D01*
X0218229Y0128279D01*
Y0127098D01*
Y0127886D02*
X0219016Y0128673D01*
Y0129460D02*
Y0130247D01*
Y0129853D01*
X0216654D01*
X0217048Y0129460D01*
X0216654Y0131428D02*
Y0133002D01*
X0217048D01*
X0218622Y0131428D01*
X0219016D01*
X0230631Y0128673D02*
Y0130772D01*
Y0129723D01*
X0233780D01*
Y0133921D02*
Y0131822D01*
X0231680Y0133921D01*
X0231156D01*
X0230631Y0133396D01*
Y0132347D01*
X0231156Y0131822D01*
X0210945Y0164500D02*
Y0166861D01*
X0212126D01*
X0212519Y0166468D01*
Y0165681D01*
X0212126Y0165287D01*
X0210945D01*
X0211732D02*
X0212519Y0164500D01*
X0213306Y0166468D02*
X0213700Y0166861D01*
X0214487D01*
X0214881Y0166468D01*
Y0166074D01*
X0214487Y0165681D01*
X0214093D01*
X0214487D01*
X0214881Y0165287D01*
Y0164894D01*
X0214487Y0164500D01*
X0213700D01*
X0213306Y0164894D01*
X0216848Y0164500D02*
Y0166861D01*
X0215668Y0165681D01*
X0217242D01*
X0219016Y0138319D02*
X0216654D01*
Y0139500D01*
X0217048Y0139893D01*
X0217835D01*
X0218229Y0139500D01*
Y0138319D01*
Y0139106D02*
X0219016Y0139893D01*
Y0140680D02*
Y0141467D01*
Y0141074D01*
X0216654D01*
X0217048Y0140680D01*
X0218622Y0142648D02*
X0219016Y0143042D01*
Y0143829D01*
X0218622Y0144222D01*
X0217048D01*
X0216654Y0143829D01*
Y0143042D01*
X0217048Y0142648D01*
X0217442D01*
X0217835Y0143042D01*
Y0144222D01*
X0243624Y0136941D02*
X0248346D01*
Y0139302D01*
X0247559Y0140089D01*
X0244411D01*
X0243624Y0139302D01*
Y0136941D01*
X0248346Y0141664D02*
Y0143238D01*
Y0142451D01*
X0243624D01*
X0244411Y0141664D01*
X0225670Y0163655D02*
X0225145Y0164180D01*
X0224096D01*
X0223571Y0163655D01*
Y0161556D01*
X0224096Y0161031D01*
X0225145D01*
X0225670Y0161556D01*
X0226719Y0161031D02*
X0227769D01*
X0227244D01*
Y0164180D01*
X0226719Y0163655D01*
X0229343D02*
X0229868Y0164180D01*
X0230918D01*
X0231442Y0163655D01*
Y0163131D01*
X0230918Y0162606D01*
X0230393D01*
X0230918D01*
X0231442Y0162081D01*
Y0161556D01*
X0230918Y0161031D01*
X0229868D01*
X0229343Y0161556D01*
X0209568Y0129460D02*
Y0128673D01*
Y0129067D01*
X0211536D01*
X0211929Y0128673D01*
Y0128279D01*
X0211536Y0127886D01*
X0211929Y0130247D02*
Y0131034D01*
Y0130641D01*
X0209568D01*
X0209961Y0130247D01*
X0352742Y0185890D02*
X0353267Y0185366D01*
Y0184316D01*
X0352742Y0183791D01*
X0350643D01*
X0350118Y0184316D01*
Y0185366D01*
X0350643Y0185890D01*
X0353267Y0188514D02*
Y0187465D01*
X0352742Y0186940D01*
X0350643D01*
X0350118Y0187465D01*
Y0188514D01*
X0350643Y0189039D01*
X0352742D01*
X0353267Y0188514D01*
X0350118Y0190088D02*
X0353267D01*
X0350118Y0192188D01*
X0353267D01*
X0352742Y0193237D02*
X0353267Y0193762D01*
Y0194811D01*
X0352742Y0195336D01*
X0352217D01*
X0351692Y0194811D01*
Y0194287D01*
Y0194811D01*
X0351168Y0195336D01*
X0350643D01*
X0350118Y0194811D01*
Y0193762D01*
X0350643Y0193237D01*
X0188110Y0168240D02*
Y0170602D01*
X0189291D01*
X0189684Y0170208D01*
Y0169421D01*
X0189291Y0169027D01*
X0188110D01*
X0188897D02*
X0189684Y0168240D01*
X0192046D02*
X0190472D01*
X0192046Y0169815D01*
Y0170208D01*
X0191652Y0170602D01*
X0190865D01*
X0190472Y0170208D01*
X0194407Y0170602D02*
X0192833D01*
Y0169421D01*
X0193620Y0169815D01*
X0194014D01*
X0194407Y0169421D01*
Y0168634D01*
X0194014Y0168240D01*
X0193227D01*
X0192833Y0168634D01*
X0188110Y0161744D02*
Y0164105D01*
X0189291D01*
X0189684Y0163712D01*
Y0162925D01*
X0189291Y0162531D01*
X0188110D01*
X0188897D02*
X0189684Y0161744D01*
X0192046D02*
X0190472D01*
X0192046Y0163318D01*
Y0163712D01*
X0191652Y0164105D01*
X0190865D01*
X0190472Y0163712D01*
X0194014Y0161744D02*
Y0164105D01*
X0192833Y0162925D01*
X0194407D01*
X0202482Y0187138D02*
X0206811Y0190024D01*
X0202482D02*
X0206811Y0187138D01*
Y0191467D02*
Y0192910D01*
Y0192189D01*
X0202482D01*
X0203203Y0191467D01*
X0211339Y0171587D02*
Y0173948D01*
X0212519D01*
X0212913Y0173555D01*
Y0172767D01*
X0212519Y0172374D01*
X0211339D01*
X0212126D02*
X0212913Y0171587D01*
X0213700D02*
X0214487D01*
X0214094D01*
Y0173948D01*
X0213700Y0173555D01*
X0217242Y0173948D02*
X0216455Y0173555D01*
X0215668Y0172767D01*
Y0171980D01*
X0216061Y0171587D01*
X0216849D01*
X0217242Y0171980D01*
Y0172374D01*
X0216849Y0172767D01*
X0215668D01*
X0215604Y0181756D02*
X0215080Y0181232D01*
Y0180182D01*
X0215604Y0179657D01*
X0217704D01*
X0218228Y0180182D01*
Y0181232D01*
X0217704Y0181756D01*
X0218228Y0182806D02*
Y0183856D01*
Y0183331D01*
X0215080D01*
X0215604Y0182806D01*
X0218228Y0187004D02*
X0215080D01*
X0216654Y0185430D01*
Y0187529D01*
X0277284Y0147768D02*
Y0150129D01*
X0278464D01*
X0278858Y0149736D01*
Y0148948D01*
X0278464Y0148555D01*
X0277284D01*
X0278071D02*
X0278858Y0147768D01*
X0281219Y0150129D02*
X0279645D01*
Y0148948D01*
X0280432Y0149342D01*
X0280826D01*
X0281219Y0148948D01*
Y0148161D01*
X0280826Y0147768D01*
X0280038D01*
X0279645Y0148161D01*
X0259304Y0147833D02*
X0258779Y0148357D01*
X0257730D01*
X0257205Y0147833D01*
Y0145733D01*
X0257730Y0145209D01*
X0258779D01*
X0259304Y0145733D01*
X0262452Y0148357D02*
X0261403Y0147833D01*
X0260353Y0146783D01*
Y0145733D01*
X0260878Y0145209D01*
X0261928D01*
X0262452Y0145733D01*
Y0146258D01*
X0261928Y0146783D01*
X0260353D01*
X0263044Y0156494D02*
X0262519Y0157019D01*
X0261470D01*
X0260945Y0156494D01*
Y0154395D01*
X0261470Y0153870D01*
X0262519D01*
X0263044Y0154395D01*
X0264093Y0157019D02*
X0266193D01*
Y0156494D01*
X0264093Y0154395D01*
Y0153870D01*
X0262847Y0164565D02*
X0262322Y0165089D01*
X0261273D01*
X0260748Y0164565D01*
Y0162466D01*
X0261273Y0161941D01*
X0262322D01*
X0262847Y0162466D01*
X0263897Y0164565D02*
X0264421Y0165089D01*
X0265471D01*
X0265996Y0164565D01*
Y0164040D01*
X0265471Y0163515D01*
X0265996Y0162990D01*
Y0162466D01*
X0265471Y0161941D01*
X0264421D01*
X0263897Y0162466D01*
Y0162990D01*
X0264421Y0163515D01*
X0263897Y0164040D01*
Y0164565D01*
X0264421Y0163515D02*
X0265471D01*
X0262520Y0181428D02*
Y0178804D01*
X0263045Y0178279D01*
X0264094D01*
X0264619Y0178804D01*
Y0181428D01*
X0267767Y0178279D02*
X0265668D01*
X0267767Y0180379D01*
Y0180903D01*
X0267243Y0181428D01*
X0266193D01*
X0265668Y0180903D01*
X0280827Y0175917D02*
Y0178279D01*
X0282008D01*
X0282401Y0177885D01*
Y0177098D01*
X0282008Y0176705D01*
X0280827D01*
X0281614D02*
X0282401Y0175917D01*
X0283188Y0176311D02*
X0283582Y0175917D01*
X0284369D01*
X0284763Y0176311D01*
Y0177885D01*
X0284369Y0178279D01*
X0283582D01*
X0283188Y0177885D01*
Y0177492D01*
X0283582Y0177098D01*
X0284763D01*
X0279842Y0168240D02*
Y0170602D01*
X0281023D01*
X0281417Y0170208D01*
Y0169421D01*
X0281023Y0169027D01*
X0279842D01*
X0280630D02*
X0281417Y0168240D01*
X0282204D02*
X0282991D01*
X0282597D01*
Y0170602D01*
X0282204Y0170208D01*
X0284172D02*
X0284565Y0170602D01*
X0285353D01*
X0285746Y0170208D01*
Y0168634D01*
X0285353Y0168240D01*
X0284565D01*
X0284172Y0168634D01*
Y0170208D01*
X0277284Y0158199D02*
Y0153476D01*
X0279645D01*
X0280432Y0154263D01*
Y0157412D01*
X0279645Y0158199D01*
X0277284D01*
X0285155D02*
X0283581Y0157412D01*
X0282006Y0155838D01*
Y0154263D01*
X0282793Y0153476D01*
X0284368D01*
X0285155Y0154263D01*
Y0155051D01*
X0284368Y0155838D01*
X0282006D01*
X0291261Y0132020D02*
X0294409D01*
Y0133594D01*
X0293885Y0134119D01*
X0291786D01*
X0291261Y0133594D01*
Y0132020D01*
X0291786Y0135168D02*
X0291261Y0135693D01*
Y0136743D01*
X0291786Y0137267D01*
X0292310D01*
X0292835Y0136743D01*
Y0136218D01*
Y0136743D01*
X0293360Y0137267D01*
X0293885D01*
X0294409Y0136743D01*
Y0135693D01*
X0293885Y0135168D01*
X0308780Y0139893D02*
Y0136744D01*
X0310354D01*
X0310879Y0137269D01*
Y0139368D01*
X0310354Y0139893D01*
X0308780D01*
X0313502Y0136744D02*
Y0139893D01*
X0311928Y0138318D01*
X0314027D01*
X0347756Y0138516D02*
X0345394D01*
Y0139697D01*
X0345788Y0140090D01*
X0346575D01*
X0346969Y0139697D01*
Y0138516D01*
Y0139303D02*
X0347756Y0140090D01*
Y0140877D02*
Y0141664D01*
Y0141271D01*
X0345394D01*
X0345788Y0140877D01*
X0347756Y0144419D02*
Y0142845D01*
X0346182Y0144419D01*
X0345788D01*
X0345394Y0144026D01*
Y0143239D01*
X0345788Y0142845D01*
X0331024Y0140089D02*
Y0136941D01*
X0332598D01*
X0333123Y0137466D01*
Y0139565D01*
X0332598Y0140089D01*
X0331024D01*
X0336271D02*
X0334172D01*
Y0138515D01*
X0335222Y0139040D01*
X0335747D01*
X0336271Y0138515D01*
Y0137466D01*
X0335747Y0136941D01*
X0334697D01*
X0334172Y0137466D01*
X0308386Y0157807D02*
X0307993Y0157413D01*
Y0156626D01*
X0308386Y0156232D01*
X0309961D01*
X0310354Y0156626D01*
Y0157413D01*
X0309961Y0157807D01*
X0308386Y0158594D02*
X0307993Y0158987D01*
Y0159774D01*
X0308386Y0160168D01*
X0308780D01*
X0309174Y0159774D01*
Y0159381D01*
Y0159774D01*
X0309567Y0160168D01*
X0309961D01*
X0310354Y0159774D01*
Y0158987D01*
X0309961Y0158594D01*
X0316457Y0154066D02*
X0316064Y0153673D01*
Y0152886D01*
X0316457Y0152492D01*
X0318032D01*
X0318425Y0152886D01*
Y0153673D01*
X0318032Y0154066D01*
X0318425Y0156428D02*
Y0154854D01*
X0316851Y0156428D01*
X0316457D01*
X0316064Y0156034D01*
Y0155247D01*
X0316457Y0154854D01*
X0324463Y0155772D02*
X0323938Y0155247D01*
Y0154198D01*
X0324463Y0153673D01*
X0326562D01*
X0327087Y0154198D01*
Y0155247D01*
X0326562Y0155772D01*
X0327087Y0156822D02*
Y0157871D01*
Y0157347D01*
X0323938D01*
X0324463Y0156822D01*
X0340079Y0158987D02*
Y0156626D01*
X0341260D01*
X0341653Y0157020D01*
Y0158594D01*
X0341260Y0158987D01*
X0340079D01*
X0344015Y0156626D02*
X0342440D01*
X0344015Y0158200D01*
Y0158594D01*
X0343621Y0158987D01*
X0342834D01*
X0342440Y0158594D01*
X0340669Y0164106D02*
Y0166468D01*
X0341850D01*
X0342244Y0166074D01*
Y0165287D01*
X0341850Y0164893D01*
X0340669D01*
X0341456D02*
X0342244Y0164106D01*
X0343031D02*
X0343818D01*
X0343424D01*
Y0166468D01*
X0343031Y0166074D01*
X0340669Y0170602D02*
Y0172964D01*
X0341850D01*
X0342244Y0172570D01*
Y0171783D01*
X0341850Y0171389D01*
X0340669D01*
X0341456D02*
X0342244Y0170602D01*
X0344605D02*
X0343031D01*
X0344605Y0172177D01*
Y0172570D01*
X0344212Y0172964D01*
X0343424D01*
X0343031Y0172570D01*
X0338504Y0179461D02*
X0336142D01*
Y0180641D01*
X0336536Y0181035D01*
X0337323D01*
X0337717Y0180641D01*
Y0179461D01*
Y0180248D02*
X0338504Y0181035D01*
Y0181822D02*
Y0182609D01*
Y0182216D01*
X0336142D01*
X0336536Y0181822D01*
X0338504Y0183790D02*
Y0184577D01*
Y0184184D01*
X0336142D01*
X0336536Y0183790D01*
X0318228Y0176999D02*
Y0174375D01*
X0318753Y0173850D01*
X0319803D01*
X0320327Y0174375D01*
Y0176999D01*
X0321377Y0173850D02*
X0322427D01*
X0321902D01*
Y0176999D01*
X0321377Y0176474D01*
X0346510Y0185890D02*
X0345985Y0185366D01*
Y0184316D01*
X0346510Y0183791D01*
X0348609D01*
X0349134Y0184316D01*
Y0185366D01*
X0348609Y0185890D01*
X0345985Y0188514D02*
Y0187465D01*
X0346510Y0186940D01*
X0348609D01*
X0349134Y0187465D01*
Y0188514D01*
X0348609Y0189039D01*
X0346510D01*
X0345985Y0188514D01*
X0349134Y0190088D02*
X0345985D01*
X0349134Y0192188D01*
X0345985D01*
X0349134Y0195336D02*
Y0193237D01*
X0347035Y0195336D01*
X0346510D01*
X0345985Y0194811D01*
Y0193762D01*
X0346510Y0193237D01*
X0338504Y0191862D02*
X0336142D01*
Y0193043D01*
X0336536Y0193437D01*
X0337323D01*
X0337717Y0193043D01*
Y0191862D01*
Y0192649D02*
X0338504Y0193437D01*
X0336142Y0195798D02*
X0336536Y0195011D01*
X0337323Y0194224D01*
X0338110D01*
X0338504Y0194617D01*
Y0195404D01*
X0338110Y0195798D01*
X0337717D01*
X0337323Y0195404D01*
Y0194224D01*
X0243482Y0191233D02*
X0242958Y0190708D01*
Y0189659D01*
X0243482Y0189134D01*
X0245582D01*
X0246106Y0189659D01*
Y0190708D01*
X0245582Y0191233D01*
X0246106Y0192282D02*
Y0193332D01*
Y0192807D01*
X0242958D01*
X0243482Y0192282D01*
Y0194906D02*
X0242958Y0195431D01*
Y0196481D01*
X0243482Y0197005D01*
X0245582D01*
X0246106Y0196481D01*
Y0195431D01*
X0245582Y0194906D01*
X0243482D01*
X0252219Y0191796D02*
X0251694Y0191271D01*
Y0190222D01*
X0252219Y0189697D01*
X0254318D01*
X0254842Y0190222D01*
Y0191271D01*
X0254318Y0191796D01*
X0254842Y0192845D02*
Y0193895D01*
Y0193370D01*
X0251694D01*
X0252219Y0192845D01*
X0254842Y0195469D02*
Y0196519D01*
Y0195994D01*
X0251694D01*
X0252219Y0195469D01*
X0265209Y0197833D02*
X0264685Y0198357D01*
X0263635D01*
X0263110Y0197833D01*
Y0195733D01*
X0263635Y0195209D01*
X0264685D01*
X0265209Y0195733D01*
X0266259D02*
X0266784Y0195209D01*
X0267833D01*
X0268358Y0195733D01*
Y0197833D01*
X0267833Y0198357D01*
X0266784D01*
X0266259Y0197833D01*
Y0197308D01*
X0266784Y0196783D01*
X0268358D01*
X0280039Y0161153D02*
Y0163515D01*
X0281220D01*
X0281614Y0163121D01*
Y0162334D01*
X0281220Y0161941D01*
X0280039D01*
X0280826D02*
X0281614Y0161153D01*
X0282401D02*
X0283188D01*
X0282794D01*
Y0163515D01*
X0282401Y0163121D01*
X0285943Y0163515D02*
X0284369D01*
Y0162334D01*
X0285156Y0162728D01*
X0285549D01*
X0285943Y0162334D01*
Y0161547D01*
X0285549Y0161153D01*
X0284762D01*
X0284369Y0161547D01*
X0293164Y0192977D02*
X0292639Y0192452D01*
Y0191403D01*
X0293164Y0190878D01*
X0295263D01*
X0295787Y0191403D01*
Y0192452D01*
X0295263Y0192977D01*
X0295787Y0195601D02*
X0292639D01*
X0294213Y0194027D01*
Y0196126D01*
X0302219Y0192780D02*
X0301694Y0192255D01*
Y0191206D01*
X0302219Y0190681D01*
X0304318D01*
X0304842Y0191206D01*
Y0192255D01*
X0304318Y0192780D01*
X0301694Y0195929D02*
Y0193830D01*
X0303268D01*
X0302744Y0194879D01*
Y0195404D01*
X0303268Y0195929D01*
X0304318D01*
X0304842Y0195404D01*
Y0194354D01*
X0304318Y0193830D01*
X0295493Y0152394D02*
Y0154493D01*
Y0153443D01*
X0298642D01*
Y0155542D02*
Y0156592D01*
Y0156067D01*
X0295493D01*
X0296018Y0155542D01*
X0312520Y0190878D02*
X0310158D01*
Y0192059D01*
X0310552Y0192452D01*
X0311339D01*
X0311733Y0192059D01*
Y0190878D01*
Y0191665D02*
X0312520Y0192452D01*
Y0193239D02*
Y0194027D01*
Y0193633D01*
X0310158D01*
X0310552Y0193239D01*
Y0195207D02*
X0310158Y0195601D01*
Y0196388D01*
X0310552Y0196782D01*
X0310945D01*
X0311339Y0196388D01*
Y0195994D01*
Y0196388D01*
X0311733Y0196782D01*
X0312126D01*
X0312520Y0196388D01*
Y0195601D01*
X0312126Y0195207D01*
X0319016Y0191862D02*
X0316654D01*
Y0193043D01*
X0317048Y0193437D01*
X0317835D01*
X0318229Y0193043D01*
Y0191862D01*
Y0192649D02*
X0319016Y0193437D01*
X0317048Y0194224D02*
X0316654Y0194617D01*
Y0195404D01*
X0317048Y0195798D01*
X0317442D01*
X0317835Y0195404D01*
Y0195011D01*
Y0195404D01*
X0318229Y0195798D01*
X0318622D01*
X0319016Y0195404D01*
Y0194617D01*
X0318622Y0194224D01*
X0325709Y0192256D02*
X0323347D01*
Y0193437D01*
X0323741Y0193830D01*
X0324528D01*
X0324921Y0193437D01*
Y0192256D01*
Y0193043D02*
X0325709Y0193830D01*
X0323347Y0194617D02*
Y0196192D01*
X0323741D01*
X0325315Y0194617D01*
X0325709D01*
X0332205Y0190878D02*
X0329843D01*
Y0192059D01*
X0330237Y0192452D01*
X0331024D01*
X0331418Y0192059D01*
Y0190878D01*
Y0191665D02*
X0332205Y0192452D01*
Y0193239D02*
Y0194027D01*
Y0193633D01*
X0329843D01*
X0330237Y0193239D01*
X0332205Y0196388D02*
X0329843D01*
X0331024Y0195207D01*
Y0196782D01*
X0183189Y0139697D02*
Y0137335D01*
X0182008D01*
X0181615Y0137729D01*
Y0138516D01*
X0182008Y0138910D01*
X0183189D01*
X0182402D02*
X0181615Y0139697D01*
X0180827Y0137729D02*
X0180434Y0137335D01*
X0179647D01*
X0179253Y0137729D01*
Y0138123D01*
X0179647Y0138516D01*
X0180040D01*
X0179647D01*
X0179253Y0138910D01*
Y0139303D01*
X0179647Y0139697D01*
X0180434D01*
X0180827Y0139303D01*
X0178466Y0137729D02*
X0178073Y0137335D01*
X0177285D01*
X0176892Y0137729D01*
Y0139303D01*
X0177285Y0139697D01*
X0178073D01*
X0178466Y0139303D01*
Y0137729D01*
X0187453Y0149094D02*
X0185091D01*
Y0150275D01*
X0185485Y0150669D01*
X0186272D01*
X0186666Y0150275D01*
Y0149094D01*
Y0149882D02*
X0187453Y0150669D01*
X0185485Y0151456D02*
X0185091Y0151849D01*
Y0152637D01*
X0185485Y0153030D01*
X0185879D01*
X0186272Y0152637D01*
Y0152243D01*
Y0152637D01*
X0186666Y0153030D01*
X0187059D01*
X0187453Y0152637D01*
Y0151849D01*
X0187059Y0151456D01*
X0187453Y0153817D02*
Y0154604D01*
Y0154211D01*
X0185091D01*
X0185485Y0153817D01*
D66*
X0250905Y0150327D02*
G03*
X0250905Y0150327I-0000394J0000000D01*
G01*
X0328071Y0141272D02*
G03*
X0328071Y0141272I-0000394J0000000D01*
G01*
X0305138Y0104559D02*
X0335059D01*
X0305138Y0126016D02*
X0335059D01*
X0305138Y0104559D02*
Y0126016D01*
X0335059Y0104559D02*
Y0126016D01*
X0332205Y0187332D02*
Y0180772D01*
X0330893Y0179461D01*
X0328269D01*
X0326957Y0180772D01*
Y0187332D01*
X0320397Y0179461D02*
Y0187332D01*
X0324333Y0183396D01*
X0319086D01*
X0240669Y0178474D02*
Y0172571D01*
X0244605D01*
X0250509D02*
X0246573D01*
X0250509Y0176507D01*
Y0177490D01*
X0249525Y0178474D01*
X0247557D01*
X0246573Y0177490D01*
X0294606Y0178278D02*
Y0172374D01*
X0298542D01*
X0300510D02*
X0302478D01*
X0301494D01*
Y0178278D01*
X0300510Y0177294D01*
D68*
X0223937Y0173554D02*
Y0170930D01*
X0224462Y0170405D01*
X0225511D01*
X0226036Y0170930D01*
Y0173554D01*
X0227086Y0173029D02*
X0227610Y0173554D01*
X0228660D01*
X0229185Y0173029D01*
Y0172505D01*
X0228660Y0171980D01*
X0228135D01*
X0228660D01*
X0229185Y0171455D01*
Y0170930D01*
X0228660Y0170405D01*
X0227610D01*
X0227086Y0170930D01*
X0190867Y0183988D02*
X0193491D01*
X0194016Y0184513D01*
Y0185563D01*
X0193491Y0186087D01*
X0190867D01*
Y0189236D02*
Y0187137D01*
X0192441D01*
X0191917Y0188186D01*
Y0188711D01*
X0192441Y0189236D01*
X0193491D01*
X0194016Y0188711D01*
Y0187662D01*
X0193491Y0187137D01*
D119*
X0298150Y0145996D02*
G03*
X0298150Y0145996I-0000394J0000000D01*
G01*
X0322953Y0133398D02*
G03*
X0322953Y0133398I-0000394J0000000D01*
G01*
D120*
X0227323Y0185562D02*
Y0183595D01*
X0228635D01*
X0229291Y0185234D02*
X0229619Y0185562D01*
X0230275D01*
X0230603Y0185234D01*
Y0184906D01*
X0230275Y0184578D01*
X0229947D01*
X0230275D01*
X0230603Y0184250D01*
Y0183923D01*
X0230275Y0183595D01*
X0229619D01*
X0229291Y0183923D01*
D121*
X0245787Y0167580D02*
D03*
X0298150Y0167187D02*
D03*
M02*
