M48
;Layer_Color=9474304
;FILE_FORMAT=2:5
INCH
;TYPE=PLATED
T1F00S00C0.01181
T2F00S00C0.01500
T4F00S00C0.03543
T5F00S00C0.05600
T6F00S00C0.10827
;TYPE=NON_PLATED
T7F00S00C0.02756
%
T01
X0317047Y0171587
Y0175130
Y0178673
X0320591
Y0175130
Y0171587
X0324134
Y0175130
Y0178673
T02
X0131726Y0111958
X0133126Y0114758
X0151299Y0114894
X0154055
X0155433Y0125917
X0155236Y0139106
X0152284
X0149331
X0146575
X0138726Y0137158
X0135926
X0137326Y0139958
X0135926Y0142758
X0138726
X0137326Y0145558
X0135926Y0148358
X0138726
X0136732Y0153476
X0149331Y0152689
X0146575Y0148949
X0154842Y0149736
X0160354Y0149146
X0158189Y0139106
X0161126Y0131558
X0163926
X0165326Y0128758
X0162913Y0125917
X0165326Y0134358
X0173726
X0176526
X0175126Y0131558
X0172326
X0173726Y0128758
X0176526
X0175126Y0125958
X0172326Y0137158
X0182008Y0133103
Y0144224
X0191850Y0147177
X0194878Y0137925
X0202378Y0136925
X0207598Y0142059
X0205926Y0120358
X0212926Y0123158
X0215726
X0218526
X0221326
X0224126
X0226926
X0229726
X0228326Y0120358
X0225526
X0217126
X0222726Y0125958
X0232526Y0134358
X0245126Y0120358
X0246526Y0117558
X0250726Y0125958
X0265866Y0127098
X0267441Y0124146
X0267526Y0120358
X0266126Y0111958
X0263326
X0260526
X0268926
X0277326
X0280126
X0282926
X0285726
X0288526
X0291326
X0294126
X0296926
X0299726
X0302526
X0305326
X0303926Y0114758
X0301126
X0302526Y0117558
X0305326
X0303926Y0120358
X0301126
X0299726Y0123158
X0302526
X0301126Y0125958
X0298326
X0299726Y0128758
X0302526
X0309526Y0137158
Y0148358
X0306726
X0312326
X0298326
X0287126
X0281526Y0153958
X0280126Y0139958
X0281526Y0137158
X0284326
X0292726
X0285726Y0128758
X0282926
X0280126
X0278726Y0125958
X0281526
X0284326
X0287126
X0285726Y0123158
X0282926
X0280126
X0278726Y0120358
X0280126Y0117558
X0278726Y0114758
X0289926
Y0120358
X0263897Y0136941
X0252480Y0154657
X0237716Y0156035
X0195878Y0129925
X0191926Y0131558
X0189378Y0128925
X0315126Y0120358
X0317926
X0320726
X0323526
X0326326
X0327726Y0128758
X0336126
Y0117558
X0337526Y0114758
X0336126Y0111958
X0338926
X0340669Y0143634
X0341850Y0149343
Y0152886
X0351526Y0148358
Y0137158
X0359926
X0358526Y0134358
X0361326
X0359926Y0131558
X0361326Y0139958
Y0145558
X0320984Y0145012
X0315126Y0148358
X0319803Y0162433
X0347362Y0169028
X0352480Y0166075
X0354326Y0176358
X0357205Y0178673
X0357126Y0181958
X0354326
X0355726Y0184758
X0358526
X0361326
X0359926Y0181958
X0361326Y0179158
Y0195958
X0358526
X0355726
X0354326Y0198758
X0357126
X0359926
X0358526Y0201558
X0361326
X0341726
X0338926
X0336126
X0333326
X0330526
X0327726
X0324528Y0201114
X0326326Y0204358
X0334726
X0337526
X0336126Y0207158
X0333326Y0212758
X0327726
X0324926
X0322126
X0326326Y0215558
Y0221158
X0324926Y0223958
X0322126
X0319326
X0327726
X0330526
X0333326
X0336126
X0338926
X0337526Y0221158
X0334726
X0336126Y0218358
X0315126Y0209958
Y0204358
X0317933Y0201114
X0340326Y0187558
X0340472Y0179067
X0308780
X0308126Y0184758
X0309526Y0187558
X0306726Y0193158
X0295878Y0193425
X0292878
X0292441Y0201508
X0295591
X0298346
X0305827Y0203476
X0311535Y0201114
X0305326Y0218358
X0285726
X0275709Y0219618
Y0216469
X0275926Y0209958
X0275709Y0205642
X0275905Y0198161
X0273150
X0265669Y0197965
Y0195209
X0265472Y0203083
X0265276Y0206626
Y0210169
X0256024Y0202886
X0257726Y0190358
X0259126Y0187558
X0257726Y0184758
X0254926
X0260526
X0262323Y0168831
X0254926Y0162358
X0251693Y0162925
X0253526Y0159558
X0254926Y0156758
X0239094Y0161744
X0220000Y0158595
X0217441
X0209378Y0159425
X0199724Y0161744
X0198926Y0173558
X0201726
X0204526
X0205236Y0177492
X0211240
X0219926Y0176358
X0221326Y0173558
X0220984Y0181823
X0216653Y0183595
X0211535Y0195996
X0213701Y0200524
X0214326Y0204358
X0217126
X0215726Y0207158
X0225526Y0209958
X0224126Y0195958
X0226926
X0228465Y0192256
X0231713Y0195504
X0235326Y0218358
X0205236Y0202577
X0195787Y0205445
X0182992Y0200327
X0181878Y0194925
X0184075Y0192847
X0191063Y0190287
X0204055Y0191272
X0182455Y0184382
X0181024Y0181429
X0178268
X0175378Y0181425
X0182008Y0177886
X0182090Y0174786
X0182402Y0165287
X0184764Y0162925
Y0159776
X0189427Y0159303
X0169918Y0159185
X0166654Y0169618
X0163504
X0166260Y0172768
X0168622Y0175524
X0158386Y0173949
X0158780Y0186547
X0162323Y0188516
X0169410Y0198161
X0165326Y0218358
X0156614Y0162335
X0302526Y0162358
X0305326
X0309526Y0170758
X0296926Y0173558
X0294126
X0289685Y0177098
X0288701Y0183791
X0283189Y0197374
X0286929Y0201508
X0155630Y0188516
X0149331Y0186547
X0141457Y0186153
Y0189500
X0132008Y0187925
X0131726Y0195958
X0134526Y0218358
X0133126Y0221158
X0135926
X0134526Y0223958
X0131726
X0141161Y0174539
X0143425Y0171980
X0138726Y0170758
X0137326Y0167958
X0138726Y0165158
X0137326Y0162358
X0138726Y0159558
X0137326Y0156758
X0147165Y0166469
X0149331Y0172768
T04
X0161678Y0116862
X0171678
X0181693
X0191693
X0201693
X0211693
X0221693
X0231693
X0241693
X0251693
X0263347
X0273346
X0285157
X0295158
X0356417Y0141508
Y0151508
Y0161508
Y0171508
X0359567Y0189697
X0330598Y0208095
Y0218094
X0320599
Y0208095
X0310598
Y0218094
X0300599
Y0208095
X0290599
Y0218094
X0280598
Y0208095
X0270599
Y0218094
X0260598
Y0208095
X0250599
Y0218094
X0240599
Y0208095
X0230598
Y0218094
X0220599
Y0208095
X0210598
Y0218094
X0200599
Y0208095
X0190598
Y0218094
X0180598
Y0208095
X0170598
Y0218094
X0160599
Y0208095
X0150599
Y0218094
X0140598
Y0208095
T05
X0175498Y0191633
X0246861Y0158356
T06
X0121378Y0122374
X0349724
Y0212925
X0121378
T07
X0312114Y0123360
X0328059
M30
