M48
;Layer_Color=9474304
;FILE_FORMAT=2:5
INCH
;TYPE=PLATED
T1F00S00C0.01181
T3F00S00C0.03543
T4F00S00C0.03937
T5F00S00C0.12205
;TYPE=NON_PLATED
T6F00S00C0.02756
%
T01
X0129921Y0110236
X0133858
X0137795
X0141732
X0145669
X0149606
X0139764Y0114173
X0135827
X0137795Y0118110
X0139764Y0122047
X0135827
X0133858Y0133858
X0129921
X0129055Y0146390
X0129143Y0149618
X0139382Y0149260
X0141218Y0152020
X0148543Y0147295
X0145984Y0136153
X0143228Y0136193
X0158543Y0148398
X0167913Y0147689
X0171299Y0147650
X0173307Y0149618
X0175197Y0153543
X0177717Y0140051
X0175079Y0132335
X0173228Y0118110
Y0110236
X0167323Y0122047
X0163386
X0189331Y0126429
X0196851Y0118110
X0205591Y0125484
X0208110Y0127532
X0210630Y0122047
X0214567
X0230315
X0234252
X0238189
X0242126
X0236221Y0118110
X0227638Y0128831
X0230315Y0145669
X0234252
X0238189
X0232284Y0149606
X0228347
X0213976Y0139146
X0201850Y0150013
X0201693Y0153831
X0195276Y0149303
X0195236Y0143752
X0187047Y0145012
X0188977Y0149606
X0259843
X0263780
X0265748Y0153543
X0261811
X0273622
X0281496
X0285866Y0149185
X0284961Y0141154
X0285039Y0138437
X0285000Y0135721
X0289370Y0137795
X0309055
Y0145669
X0305118
X0307087Y0149606
X0311024
X0304252Y0150760
X0299213Y0149606
X0277559Y0145669
X0271417Y0133634
X0269724Y0131311
X0267126Y0132226
X0267284Y0122728
X0266811Y0120051
X0270394Y0122768
X0281496Y0122047
X0285433
X0279528Y0118110
Y0110236
X0283465
X0287402
X0291339
X0295276
X0299213
X0303150
X0307087
X0311024
X0305118Y0114173
X0301181
X0303150Y0118110
X0301181Y0122047
X0297244
X0275591Y0110236
X0271654
X0267717
X0263780
X0259843
X0253937Y0122047
X0255906Y0125984
X0254264Y0133428
X0314213Y0132768
X0312992Y0145669
X0316929
X0320866
X0324803
X0320866Y0153543
X0312992
X0336614
X0340551
X0338583Y0149606
X0350394
X0352362Y0153543
Y0145669
X0356299
X0360236
X0358268Y0141732
X0354331
X0350394
X0352362Y0137795
X0356299
X0360236
X0358268Y0133858
X0342520
X0338583
X0334646
X0336614Y0137795
Y0129921
X0328740
Y0122047
X0324803
X0320866
X0318898Y0110236
X0322835
X0326772
X0330709
X0334646
X0338583
X0342520
X0336614Y0114173
X0314961Y0110236
X0320728Y0163024
X0320591Y0171587
Y0175130
X0324134
Y0178673
X0320591
X0317047
Y0175130
Y0171587
X0324134
X0332480Y0178437
Y0181193
X0342520Y0181103
X0346457
X0350394
X0352362Y0177165
X0348425
X0344488
X0342520Y0188977
X0346457
X0350394
X0354331
X0358268
X0360236Y0192913
X0356299
X0352362
X0348425
X0344488
X0342520Y0196851
X0346457
X0350394
X0354331
X0358268
X0360236Y0200787
X0356299
X0340551
X0336614
X0332677
X0328740
X0324803
X0320866
X0316929
X0312992
X0314961Y0204725
Y0212598
X0318898
X0322835
X0326772
X0330709
X0334646
X0336614Y0216536
X0334646Y0220473
X0338583
X0336614Y0208662
X0334646Y0204725
X0338583
X0326772
X0328150Y0196902
X0317795Y0194028
X0314961Y0220473
X0336614Y0161417
X0348425
X0350394Y0165354
X0360236Y0177165
X0308622Y0179461
Y0181902
Y0184264
X0309134Y0171114
X0306496
X0295276Y0173228
X0291339
X0287402
X0289370Y0177165
Y0169291
X0291339Y0165354
X0297244Y0161417
X0279528Y0157480
X0273622Y0161417
X0268268Y0165681
X0262323Y0166154
X0259842Y0166193
X0261358Y0172098
X0263228
X0265098
X0267953Y0173280
X0268051Y0175543
X0267953Y0177709
X0265098Y0178791
X0263228
X0261358
X0251929Y0175996
X0251969Y0173228
X0248032
X0248065Y0175996
X0244134Y0175917
X0244095Y0173228
X0243110Y0163988
X0245433Y0163949
X0240669Y0164028
X0233150Y0171095
X0217323Y0166823
X0220473Y0157480
X0208662
X0207638Y0170051
X0206693Y0177165
X0210630
X0202756Y0185039
X0203937Y0189815
X0210984Y0196232
X0217205Y0195917
X0220473Y0196851
X0216339Y0188279
X0240827Y0185130
X0243465
X0246142Y0185169
X0247205Y0198043
X0247126Y0200787
X0248858Y0203083
X0252520Y0203319
X0251969Y0212598
X0248032
X0246063Y0208662
X0244095Y0204725
X0236221
Y0220473
X0226378Y0216536
X0216536Y0220473
X0212598Y0212598
X0208662
X0204725
Y0220473
X0196851
Y0212598
X0192913
X0188977
X0185039
X0181103
X0177165
X0173228
X0169291
X0161417
X0157480Y0204725
Y0196851
X0162402Y0200642
X0173386Y0201153
X0177165Y0204725
X0175197Y0208662
Y0216536
X0185039Y0220473
Y0204725
X0196851
X0204725
X0187008Y0185039
X0183071
X0179134
X0173567Y0190154
X0171024Y0192138
X0168661Y0194028
X0157677Y0177768
X0166902Y0168280
X0175197Y0169291
Y0161417
X0166890Y0158043
X0158937
X0188819Y0157965
X0189370Y0163949
X0187008Y0169291
Y0177165
X0190945
X0188977Y0181103
X0254213Y0194972
X0256891Y0194933
X0275591Y0196851
X0277559Y0200787
X0273622
X0275591Y0204725
Y0212598
X0279528
X0283465
X0287402
X0291339
X0295276
X0299213
X0303150
X0307087
X0305118Y0216536
X0295276Y0220473
X0285433Y0216536
Y0208662
X0287402Y0204725
X0285433Y0200787
X0293307
X0297244
X0301181
X0305118
X0309055
X0307087Y0204725
X0295276
X0299213Y0196851
X0273898Y0180642
X0271654Y0212598
X0275591Y0220473
X0259843Y0212598
Y0157480
X0147047Y0158134
X0139055Y0161075
X0139134Y0165169
X0139764Y0169291
X0142520Y0168398
X0139567Y0179697
X0135827Y0185039
X0136496Y0189539
X0143032Y0189894
X0149606Y0196851
X0155512Y0208662
Y0216536
X0135827
X0133858Y0220473
X0129921Y0196851
X0129528Y0193122
X0116890Y0190720
X0117008Y0186941
X0126535Y0163408
X0126575Y0160366
Y0157020
T03
X0145551Y0116862
X0155551
X0165551
X0181693
X0191693
X0201693
X0211693
X0221693
X0231693
X0241693
X0251693
X0263347
X0273346
X0285157
X0295158
X0357205Y0153673
Y0163673
Y0173673
Y0183673
X0330598Y0208095
X0320599
Y0218094
X0330598
X0310598
X0300599
X0290599
X0280598
X0270599
X0260598
X0250599
X0240599
X0230598
X0220599
X0210598
X0200599
X0190598
X0180598
X0170598
X0160599
Y0208095
X0170598
X0180598
X0190598
X0200599
X0210598
X0220599
X0230598
X0240599
X0250599
X0260598
X0270599
X0280598
X0290599
X0300599
X0310598
X0150599
X0140598
Y0218094
X0150599
T04
X0207953Y0141705
Y0184224
T05
X0121378Y0122374
X0349724
Y0212925
X0121378
T06
X0312094Y0125073
X0328039
M30
