M48
;Layer_Color=9474304
;FILE_FORMAT=2:5
INCH
;TYPE=PLATED
T1F00S00C0.01181
T3F00S00C0.03543
T4F00S00C0.03937
T5F00S00C0.10827
;TYPE=NON_PLATED
T6F00S00C0.02756
%
T01
X0129921Y0110236
X0133858
X0137795
X0141732
X0145669
X0149606
X0153543
X0151575Y0114173
Y0122047
X0151614Y0131232
X0153032Y0136075
X0148228Y0147138
X0142598Y0147098
X0134882Y0136232
X0129921Y0133858
X0135827Y0122047
X0139606Y0121114
X0143150Y0121232
X0142165Y0117807
X0138898Y0117768
X0140512Y0114736
X0135827Y0114173
X0127953Y0155012
X0162835Y0149224
X0172362Y0149736
X0171890Y0147138
X0174960Y0150484
X0185158Y0151784
X0185906Y0148319
X0187835Y0144264
X0181378Y0139933
X0178228Y0139264
X0179528Y0136862
X0183858Y0135602
X0187008Y0129921
X0185197Y0126311
X0181850Y0126390
X0179134Y0122047
X0175197
X0173228Y0125984
X0174409Y0116744
X0177165Y0118110
Y0110236
X0173228
X0169291
X0165354
X0161417
X0157480
X0161417Y0118110
X0163543Y0134579
X0156732Y0135721
X0188977Y0125984
X0198819Y0122047
X0205118Y0125957
X0204528Y0130760
X0208780Y0134106
X0218661Y0139461
X0224724Y0139421
X0228386Y0139618
X0229803Y0143634
Y0152689
X0225669Y0152453
X0222441Y0153543
X0218504
X0214567
X0207756Y0154776
X0202677Y0149618
X0238347Y0145130
X0240158Y0141732
X0238268Y0138634
X0242992Y0136153
X0246929Y0134461
X0249134Y0136153
X0254567Y0133516
X0253780Y0127413
X0265866Y0127098
X0267441Y0124146
X0267717Y0118110
Y0110236
X0263780
X0259843
X0271654
X0275591
X0280039Y0110484
X0279134Y0113083
X0281929Y0112492
X0285433Y0112374
X0287441Y0110484
X0289370Y0112453
X0292638Y0112571
X0291339Y0110236
X0295354Y0110917
X0299213Y0110236
X0302716Y0110445
X0304055Y0113083
X0300866Y0112728
X0298150Y0112886
X0299961Y0115327
X0300315Y0117650
X0299646Y0119815
X0299764Y0122295
X0302559Y0122650
X0302284Y0120130
X0302559Y0115681
X0307087Y0110236
X0311024
X0301575Y0125051
X0297756Y0124028
X0287717Y0123319
X0287047Y0121232
X0289764Y0121114
X0290000Y0118280
X0290118Y0115720
X0280197
X0279528Y0118110
X0280197Y0120602
X0281496Y0123673
X0285039Y0123870
X0283740Y0121547
X0283465Y0125984
X0287402
X0283465Y0110236
X0285433Y0145669
X0287795Y0147807
X0277559Y0145669
X0269803Y0144894
X0263307Y0153122
X0253228Y0155445
X0238583Y0128358
X0238701Y0125642
X0232913Y0122374
X0224370Y0128988
X0216536Y0118110
X0187008Y0114173
X0309055Y0137795
X0312677Y0143004
X0322559Y0145366
X0324803Y0129921
X0328740
X0332677
X0336614
X0334646Y0118110
X0336614Y0114173
X0334646Y0110236
X0330709
X0338583
X0342520
X0325000Y0119854
X0322087Y0119894
X0319291Y0119815
X0316378
X0313543Y0119776
X0340669Y0143634
X0341850Y0149343
Y0152886
X0336614Y0153543
X0358268Y0133858
X0348425Y0161417
X0347362Y0169028
X0352441Y0167571
X0357205Y0178673
X0360866Y0183988
X0350394Y0183161
X0353307Y0189067
X0351772Y0192571
X0356299Y0200787
X0360236
X0340551
X0336614
X0332677
X0328740
X0325039Y0200406
X0326772Y0204725
Y0212598
X0322835
X0318898
X0314961
Y0220473
X0334646
X0338583
X0336614Y0216536
X0334646Y0212598
X0330709
X0336614Y0208662
X0334646Y0204725
X0338583
X0318228Y0200327
X0317047Y0178673
Y0175130
X0320591
X0324134
Y0178673
X0320591
Y0171587
X0324134
X0317047
X0319803Y0162433
X0340472Y0179067
X0308228Y0179185
X0309055Y0185039
Y0200787
X0305118
X0301181
X0298346Y0201508
X0295591
X0292441
X0286929
X0287402Y0204725
X0285433Y0208662
X0283465Y0212598
X0279528
X0275591
X0271654
X0267717
X0263780
X0265276Y0210169
Y0206626
X0265748Y0200787
X0257874
X0255906Y0204725
Y0212598
X0251969
X0259843
X0265748Y0216536
X0275709Y0216469
Y0219618
X0285433Y0216536
X0287402Y0212598
X0291339
X0295276
X0299213
X0303150
X0307087
X0305630Y0216429
X0305591Y0220366
X0295276Y0220473
Y0204725
X0299213Y0196851
X0295878Y0193425
X0292878
X0283189Y0197374
X0281496Y0200787
X0277559
X0273622
X0275591Y0196851
X0273622Y0192913
X0275709Y0205642
X0250000Y0200787
X0245512Y0201587
X0238268Y0200839
X0235669Y0200248
X0233268Y0188516
X0229724Y0188319
X0226102Y0190169
X0220473Y0188977
X0216378Y0186350
X0211102Y0189106
X0203346Y0191350
X0200787Y0181103
X0196851
X0192835Y0181232
X0188819Y0183280
X0186102Y0186075
X0183071Y0185039
X0177165Y0188977
X0175079Y0191547
X0175906Y0199500
X0170551Y0199933
X0177165Y0204725
X0165276Y0210602
X0164921Y0215878
X0157913Y0202256
X0162165Y0191114
X0174567Y0178988
X0172244Y0176626
X0169803Y0168319
X0160472Y0167768
X0159646Y0158319
X0170315Y0158437
X0185039Y0165354
X0185866Y0172846
X0188937Y0176744
X0200787Y0173228
X0204725
X0208662
X0202756Y0169291
X0201969Y0159106
X0220473Y0157480
X0220276Y0165563
X0220984Y0170091
X0219803Y0174146
X0235945Y0160602
X0239331Y0160977
X0254331Y0161469
X0254685Y0157650
X0255906Y0165354
X0260787Y0164854
X0271654Y0173228
X0287402
X0291339
X0295276
X0299213
X0290787Y0178161
X0288701Y0183791
X0289370Y0169291
X0291339Y0165354
X0257874Y0185039
X0253937
X0259843Y0188977
X0257874Y0192913
X0255906Y0220473
X0226378Y0216536
X0206181Y0215445
X0205433Y0219972
X0196339Y0220012
X0195473Y0215366
X0196851Y0204725
X0204725
X0307087
X0153740Y0202768
X0155512Y0208662
Y0216536
X0145079Y0221744
X0133858Y0220473
X0135827Y0216536
Y0208662
X0133858Y0204725
X0131535Y0189776
X0130157Y0186508
X0134606Y0187216
X0134646Y0184106
X0143898Y0189894
X0151772Y0190051
X0141299Y0168161
X0141339Y0163909
Y0160287
X0127126Y0169461
X0115236Y0183870
T03
X0147126Y0116469
X0157126
X0167126
X0181693Y0116862
X0191693
X0201693
X0211693
X0221693
X0231693
X0241693
X0251693
X0263347
X0273346
X0285157
X0295158
X0355906Y0143358
Y0153358
Y0163358
Y0173358
X0330598Y0208095
X0320599
Y0218094
X0330598
X0310598
X0300599
X0290599
X0280598
X0270599
X0260598
X0250599
X0240599
X0230598
X0220599
X0210598
X0200599
X0190598
X0180598
X0170598
X0160599
Y0208095
X0170598
X0180598
X0190598
X0200599
X0210598
X0220599
X0230598
X0240599
X0250599
X0260598
X0270599
X0280598
X0290599
X0300599
X0310598
X0150599
X0140598
Y0218094
X0150599
T04
X0208189Y0141823
Y0184343
T05
X0121378Y0122374
X0349724
Y0212925
X0121378
T06
X0312114Y0123360
X0328059
M30
