  0
SECTION
  2
HEADER
  9
$ACADVER
  1
AC1009
  9
$INSBASE
 10
0.0
 20
0.0
 30
0.0
  9
$EXTMIN
 10
0.0
 20
-0.8062981732605731
 30
0.0
  9
$EXTMAX
 10
297.43312407369359
 20
210.8452858922237
 30
0.0
  9
$LIMMIN
 10
0.0
 20
0.0
  9
$LIMMAX
 10
297.0
 20
210.0
  9
$ORTHOMODE
 70
     0
  9
$REGENMODE
 70
     1
  9
$FILLMODE
 70
     1
  9
$QTEXTMODE
 70
     0
  9
$MIRRTEXT
 70
     0
  9
$DRAGMODE
 70
     2
  9
$LTSCALE
 40
16.335000000000001
  9
$OSMODE
 70
   167
  9
$ATTMODE
 70
     1
  9
$TEXTSIZE
 40
0.2
  9
$TRACEWID
 40
0.05
  9
$TEXTSTYLE
  7
STANDARD
  9
$CLAYER
  8
0
  9
$CELTYPE
  6
BYLAYER
  9
$CECOLOR
 62
   256
  9
$DIMSCALE
 40
1.0
  9
$DIMASZ
 40
2.0
  9
$DIMEXO
 40
1.85625
  9
$DIMDLI
 40
11.286
  9
$DIMRND
 40
0.0
  9
$DIMDLE
 40
0.0
  9
$DIMEXE
 40
5.3460000000000001
  9
$DIMTP
 40
0.01
  9
$DIMTM
 40
0.01
  9
$DIMTXT
 40
2.5
  9
$DIMCEN
 40
2.673
  9
$DIMTSZ
 40
0.0
  9
$DIMTOL
 70
     1
  9
$DIMLIM
 70
     0
  9
$DIMTIH
 70
     1
  9
$DIMTOH
 70
     1
  9
$DIMSE1
 70
     0
  9
$DIMSE2
 70
     0
  9
$DIMTAD
 70
     0
  9
$DIMZIN
 70
     0
  9
$DIMBLK
  1
_FILLED
  9
$DIMASO
 70
     1
  9
$DIMSHO
 70
     1
  9
$DIMPOST
  1

  9
$DIMAPOST
  1

  9
$DIMALT
 70
     0
  9
$DIMALTD
 70
     2
  9
$DIMALTF
 40
25.399999999999999
  9
$DIMLFAC
 40
1.0
  9
$DIMTOFL
 70
     0
  9
$DIMTVP
 40
0.0
  9
$DIMTIX
 70
     0
  9
$DIMSOXD
 70
     0
  9
$DIMSAH
 70
     0
  9
$DIMBLK1
  1

  9
$DIMBLK2
  1

  9
$DIMSTYLE
  2
STANDARD
  9
$DIMCLRD
 70
     0
  9
$DIMCLRE
 70
     0
  9
$DIMCLRT
 70
     0
  9
$DIMTFAC
 40
1.0
  9
$DIMGAP
 40
0.09
  9
$LUNITS
 70
     2
  9
$LUPREC
 70
     4
  9
$SKETCHINC
 40
0.1
  9
$FILLETRAD
 40
0.0
  9
$AUNITS
 70
     0
  9
$AUPREC
 70
     0
  9
$MENU
  1
.
  9
$ELEVATION
 40
0.0
  9
$PELEVATION
 40
0.0
  9
$THICKNESS
 40
0.0
  9
$LIMCHECK
 70
     0
  9
$BLIPMODE
 70
     0
  9
$CHAMFERA
 40
0.0
  9
$CHAMFERB
 40
0.0
  9
$SKPOLY
 70
     0
  9
$TDCREATE
 40
2457115.5117856371
  9
$TDUPDATE
 40
2457877.6758365859
  9
$TDINDWG
 40
0.0012266319
  9
$TDUSRTIMER
 40
0.0012265972
  9
$USRTIMER
 70
     1
  9
$ANGBASE
 50
0.0
  9
$ANGDIR
 70
     0
  9
$PDMODE
 70
     3
  9
$PDSIZE
 40
0.3125
  9
$PLINEWID
 40
0.0
  9
$COORDS
 70
     1
  9
$SPLFRAME
 70
     0
  9
$SPLINETYPE
 70
     6
  9
$SPLINESEGS
 70
     8
  9
$ATTDIA
 70
     0
  9
$ATTREQ
 70
     1
  9
$HANDLING
 70
     1
  9
$HANDSEED
  5
A15
  9
$SURFTAB1
 70
     6
  9
$SURFTAB2
 70
     6
  9
$SURFTYPE
 70
     6
  9
$SURFU
 70
     6
  9
$SURFV
 70
     6
  9
$UCSNAME
  2

  9
$UCSORG
 10
0.0
 20
0.0
 30
0.0
  9
$UCSXDIR
 10
1.0
 20
0.0
 30
0.0
  9
$UCSYDIR
 10
0.0
 20
1.0
 30
0.0
  9
$PUCSNAME
  2

  9
$PUCSORG
 10
0.0
 20
0.0
 30
0.0
  9
$PUCSXDIR
 10
1.0
 20
0.0
 30
0.0
  9
$PUCSYDIR
 10
0.0
 20
1.0
 30
0.0
  9
$USERI1
 70
     0
  9
$USERI2
 70
     0
  9
$USERI3
 70
     0
  9
$USERI4
 70
     0
  9
$USERI5
 70
     0
  9
$USERR1
 40
0.0
  9
$USERR2
 40
0.0
  9
$USERR3
 40
0.0
  9
$USERR4
 40
0.0
  9
$USERR5
 40
0.0
  9
$WORLDVIEW
 70
     1
  9
$SHADEDGE
 70
     3
  9
$SHADEDIF
 70
    70
  9
$TILEMODE
 70
     1
  9
$MAXACTVP
 70
    48
  9
$PLIMCHECK
 70
     0
  9
$PEXTMIN
 10
1.0000000000000000E+020
 20
1.0000000000000000E+020
 30
1.0000000000000000E+020
  9
$PEXTMAX
 10
-1.0000000000000000E+020
 20
-1.0000000000000000E+020
 30
-1.0000000000000000E+020
  9
$PLIMMIN
 10
0.0
 20
0.0
  9
$PLIMMAX
 10
12.0
 20
9.0
  9
$UNITMODE
 70
     0
  9
$VISRETAIN
 70
     1
  9
$PLINEGEN
 70
     0
  9
$PSLTSCALE
 70
     1
  0
ENDSEC
  0
SECTION
  2
TABLES
  0
TABLE
  2
VPORT
 70
     1
  0
VPORT
  2
*ACTIVE
 70
     0
 10
0.0
 20
0.0
 11
1.0
 21
1.0
 12
233.47186252394121
 22
108.4667392771664
 13
0.0
 23
0.0
 14
1.0
 24
1.0
 15
0.0
 25
0.0
 16
0.0
 26
0.0
 36
1.0
 17
0.0
 27
0.0
 37
0.0
 40
258.54597608728119
 41
1.9043062200956931
 42
50.0
 43
0.0
 44
0.0
 50
0.0
 51
0.0
 71
     0
 72
   100
 73
     1
 74
     1
 75
     0
 76
     0
 77
     0
 78
     0
  0
ENDTAB
  0
TABLE
  2
LTYPE
 70
     6
  0
LTYPE
  2
CONTINUOUS
 70
     0
  3
Solid line
 72
    65
 73
     0
 40
0.0
  0
LTYPE
  2
CENTER
 70
     0
  3
____ _ ____ _ ____ _ ____ _ ____ _ ____ _ ____
 72
    65
 73
     4
 40
0.6
 49
0.375
 49
-0.075
 49
0.075
 49
-0.075
  0
LTYPE
  2
HIDDEN
 70
     0
  3
- - - - - - - - - - - - - - - - - - - -
 72
    65
 73
     2
 40
0.2
 49
0.1
 49
-0.1
  0
LTYPE
  2
PHANTOM
 70
     0
  3
_____ _ _ _____ _ _ _____ _ _ _____
 72
    65
 73
     6
 40
0.8
 49
0.45
 49
-0.05
 49
0.1
 49
-0.05
 49
0.1
 49
-0.05
  0
LTYPE
  2
DOT
 70
     0
  3
. . . . . . . . . . . . . . . . . . . .
 72
    65
 73
     2
 40
0.2
 49
0.1
 49
-0.1
  0
LTYPE
  2
DASHED
 70
     0
  3
- - - - - - - - - - - - - - - - - - - -
 72
    65
 73
     2
 40
0.2
 49
0.1
 49
-0.1
  0
ENDTAB
  0
TABLE
  2
LAYER
 70
     5
  0
LAYER
  2
0
 70
     0
 62
     7
  6
CONTINUOUS
  0
LAYER
  2
DEFAULT_1
 70
     0
 62
     7
  6
CENTER
  0
LAYER
  2
DEFAULT_2
 70
     0
 62
     8
  6
HIDDEN
  0
LAYER
  2
DEFAULT_3
 70
     0
 62
     7
  6
PHANTOM
  0
LAYER
  2
_2D_DELETED_OBJS
 70
     0
 62
     7
  6
CONTINUOUS
  0
ENDTAB
  0
TABLE
  2
STYLE
 70
     2
  0
STYLE
  2
STANDARD
 70
     0
 40
0.0
 41
1.0
 50
0.0
 71
     0
 42
0.2
  3
txt
  4

  0
STYLE
  2
TEXTSTYLE_1
 70
     0
 40
0.0
 41
1.0
 50
0.0
 71
     0
 42
0.2
  3
txt
  4

  0
ENDTAB
  0
TABLE
  2
VIEW
 70
     0
  0
ENDTAB
  0
TABLE
  2
UCS
 70
     0
  0
ENDTAB
  0
TABLE
  2
APPID
 70
     2
  0
APPID
  2
ACAD
 70
     0
  0
APPID
  2
ACAD_MLEADERVER
 70
     0
  0
ENDTAB
  0
TABLE
  2
DIMSTYLE
 70
     3
  0
DIMSTYLE
  2
STANDARD
 70
     0
  3

  4

  5
_FILLED
  6
_FILLED
  7
_FILLED
 40
1.0
 41
2.0
 42
0.0625
 43
0.38
 44
0.18
 45
0.0
 46
0.0
 47
0.01
 48
0.01
140
2.5
141
0.09
142
0.0
143
25.399999999999999
144
1.0
145
0.0
146
1.0
147
0.09
 71
     1
 72
     0
 73
     0
 74
     0
 75
     0
 76
     0
 77
     1
 78
     0
170
     0
171
     2
172
     0
173
     0
174
     0
175
     0
176
     0
177
     0
178
     0
  0
DIMSTYLE
  2
DIMSTYLE_1
 70
     0
  3

  4

  5
_FILLED
  6
_FILLED
  7
_FILLED
 40
1.0
 41
2.0
 42
0.0625
 43
0.38
 44
0.18
 45
0.0
 46
0.0
 47
0.01
 48
0.01
140
2.5
141
0.09
142
0.0
143
25.399999999999999
144
0.2
145
0.0
146
1.0
147
0.09
 71
     0
 72
     0
 73
     0
 74
     0
 75
     0
 76
     0
 77
     1
 78
     0
170
     0
171
     2
172
     0
173
     0
174
     0
175
     0
176
     0
177
     0
178
     0
  0
DIMSTYLE
  2
DIMSTYLE_2
 70
     0
  3

  4

  5
_FILLED
  6
_FILLED
  7
_FILLED
 40
1.0
 41
2.0
 42
0.0625
 43
0.38
 44
0.18
 45
0.0
 46
0.0
 47
0.01
 48
0.01
140
2.5
141
0.09
142
0.0
143
25.399999999999999
144
0.2
145
0.0
146
1.0
147
0.09
 71
     0
 72
     0
 73
     1
 74
     1
 75
     0
 76
     0
 77
     1
 78
     0
170
     0
171
     2
172
     0
173
     0
174
     0
175
     0
176
     0
177
     0
178
     0
  0
ENDTAB
  0
ENDSEC
  0
SECTION
  2
BLOCKS
  0
BLOCK
  8
0
  2
$MODEL_SPACE
 70
     0
 10
0.0
 20
0.0
 30
0.0
  3
$MODEL_SPACE
  1

  0
ENDBLK
  5
21
  8
0
  0
BLOCK
 67
     1
  8
0
  2
$PAPER_SPACE
 70
     0
 10
0.0
 20
0.0
 30
0.0
  3
$PAPER_SPACE
  1

  0
ENDBLK
  5
1D
 67
     1
  8
0
  0
BLOCK
  8
0
  2
_FILLED
 70
     0
 10
0.0
 20
0.0
 30
0.0
  3
_FILLED
  1

  0
SOLID
  5
2AB
  8
0
  6
BYBLOCK
 62
     0
 10
0.0
 20
0.0
 30
0.0
 11
-1.0
 21
0.175
 31
0.0
 12
-1.0
 22
-0.175
 32
0.0
 13
-1.0
 23
-0.175
 33
0.0
  0
ENDBLK
  5
2AC
  8
0
  6
BYBLOCK
 62
     0
  0
BLOCK
  8
0
  6
CONTINUOUS
 62
     4
  2
*D1
 70
     1
 10
0.0
 20
0.0
 30
0.0
  3
*D1
  1

  0
TEXT
  5
215
  8
0
  6
CONTINUOUS
 62
     4
 10
121.0038237787
 20
162.204238358
 30
0.0
 40
2.5
  1
10.00
  0
LINE
  5
216
  8
0
  6
CONTINUOUS
 62
     4
 10
150.37185351849999
 20
143.579238358
 30
0.0
 11
150.37185351849999
 21
163.079238358
 31
0.0
  0
LINE
  5
217
  8
0
  6
CONTINUOUS
 62
     4
 10
100.3718535185
 20
143.579238358
 30
0.0
 11
100.3718535185
 21
163.079238358
 31
0.0
  0
LINE
  5
218
  8
0
  6
CONTINUOUS
 62
     4
 10
150.37185351849999
 20
161.579238358
 30
0.0
 11
125.3718535185
 21
161.579238358
 31
0.0
  0
LINE
  5
219
  8
0
  6
CONTINUOUS
 62
     4
 10
100.3718535185
 20
161.579238358
 30
0.0
 11
125.3718535185
 21
161.579238358
 31
0.0
  0
INSERT
  5
21A
  8
0
  6
CONTINUOUS
 62
     4
  2
_FILLED
 10
150.37185351849999
 20
161.579238358
 30
0.0
 41
2.0
 42
2.0
 43
2.0
  0
INSERT
  5
21B
  8
0
  6
CONTINUOUS
 62
     4
  2
_FILLED
 10
100.3718535185
 20
161.579238358
 30
0.0
 41
2.0
 42
2.0
 43
2.0
 50
180.0
  0
ENDBLK
  5
21C
  8
0
  6
BYBLOCK
 62
     0
  0
BLOCK
  8
0
  6
CONTINUOUS
 62
     4
  2
*D2
 70
     1
 10
0.0
 20
0.0
 30
0.0
  3
*D2
  1

  0
TEXT
  5
21E
  8
0
  6
CONTINUOUS
 62
     4
 10
80.746853518500004
 20
93.211208618300006
 30
0.0
 40
2.5
  1
18.00
 50
90.0
  0
LINE
  5
21F
  8
0
  6
CONTINUOUS
 62
     4
 10
99.371853518500004
 20
142.579238358
 30
0.0
 11
79.871853518500004
 21
142.579238358
 31
0.0
  0
LINE
  5
220
  8
0
  6
CONTINUOUS
 62
     4
 10
99.371853518500004
 20
52.579238357999998
 30
0.0
 11
79.871853518500004
 21
52.579238357999998
 31
0.0
  0
LINE
  5
221
  8
0
  6
CONTINUOUS
 62
     4
 10
81.371853518500004
 20
142.579238358
 30
0.0
 11
81.371853518500004
 21
97.579238357999984
 31
0.0
  0
LINE
  5
222
  8
0
  6
CONTINUOUS
 62
     4
 10
81.371853518500004
 20
52.579238357999998
 30
0.0
 11
81.371853518500004
 21
97.579238357999984
 31
0.0
  0
INSERT
  5
223
  8
0
  6
CONTINUOUS
 62
     4
  2
_FILLED
 10
81.371853518500004
 20
142.579238358
 30
0.0
 41
2.0
 42
2.0
 43
2.0
 50
90.0
  0
INSERT
  5
224
  8
0
  6
CONTINUOUS
 62
     4
  2
_FILLED
 10
81.371853518500004
 20
52.579238357999998
 30
0.0
 41
2.0
 42
2.0
 43
2.0
 50
270.0
  0
ENDBLK
  5
225
  8
0
  6
BYBLOCK
 62
     0
  0
BLOCK
  8
0
  6
CONTINUOUS
 62
     4
  2
*D3
 70
     1
 10
0.0
 20
0.0
 30
0.0
  3
*D3
  1

  0
TEXT
  5
227
  8
0
  6
CONTINUOUS
 62
     4
 10
121.9750133698
 20
43.204238357999998
 30
0.0
 40
2.5
  1
8.00
  0
LINE
  5
228
  8
0
  6
CONTINUOUS
 62
     4
 10
105.3718535185
 20
56.579238358000012
 30
0.0
 11
105.3718535185
 21
41.079238357999998
 31
0.0
  0
LINE
  5
229
  8
0
  6
CONTINUOUS
 62
     4
 10
145.37185351849999
 20
56.579238358000012
 30
0.0
 11
145.37185351849999
 21
41.079238357999998
 31
0.0
  0
LINE
  5
22A
  8
0
  6
CONTINUOUS
 62
     4
 10
105.3718535185
 20
42.579238357999998
 30
0.0
 11
125.3718535185
 21
42.579238357999998
 31
0.0
  0
LINE
  5
22B
  8
0
  6
CONTINUOUS
 62
     4
 10
145.37185351849999
 20
42.579238357999998
 30
0.0
 11
125.3718535185
 21
42.579238357999998
 31
0.0
  0
INSERT
  5
22C
  8
0
  6
CONTINUOUS
 62
     4
  2
_FILLED
 10
105.3718535185
 20
42.579238357999998
 30
0.0
 41
2.0
 42
2.0
 43
2.0
 50
180.0
  0
INSERT
  5
22D
  8
0
  6
CONTINUOUS
 62
     4
  2
_FILLED
 10
145.37185351849999
 20
42.579238357999998
 30
0.0
 41
2.0
 42
2.0
 43
2.0
  0
ENDBLK
  5
22E
  8
0
  6
BYBLOCK
 62
     0
  0
BLOCK
  8
0
  6
CONTINUOUS
 62
     4
  2
*D4
 70
     1
 10
0.0
 20
0.0
 30
0.0
  3
*D4
  1

  0
TEXT
  5
230
  8
0
  6
CONTINUOUS
 62
     4
 10
89.746853518500004
 20
44.778659794600003
 30
0.0
 40
2.5
  1
1.00
 50
90.0
  0
LINE
  5
231
  8
0
  6
CONTINUOUS
 62
     4
 10
99.371853518500004
 20
52.579238357999998
 30
0.0
 11
88.871853518500004
 21
52.579238357999998
 31
0.0
  0
LINE
  5
232
  8
0
  6
CONTINUOUS
 62
     4
 10
104.3718535185
 20
57.579238357999998
 30
0.0
 11
88.871853518500004
 21
57.579238357999998
 31
0.0
  0
LINE
  5
233
  8
0
  6
CONTINUOUS
 62
     4
 10
90.371853518500004
 20
52.579238357999998
 30
0.0
 11
90.371853518500004
 21
44.778659794600003
 31
0.0
  0
LINE
  5
234
  8
0
  6
CONTINUOUS
 62
     4
 10
90.371853518500004
 20
44.778659794600003
 30
0.0
 11
90.371853518500004
 21
55.079238357999998
 31
0.0
  0
LINE
  5
235
  8
0
  6
CONTINUOUS
 62
     4
 10
90.371853518500004
 20
57.579238357999998
 30
0.0
 11
90.371853518500004
 21
60.079238357999998
 31
0.0
  0
LINE
  5
236
  8
0
  6
CONTINUOUS
 62
     4
 10
90.371853518500004
 20
60.079238357999998
 30
0.0
 11
90.371853518500004
 21
55.079238357999998
 31
0.0
  0
INSERT
  5
237
  8
0
  6
CONTINUOUS
 62
     4
  2
_FILLED
 10
90.371853518500004
 20
52.579238357999998
 30
0.0
 41
2.0
 42
2.0
 43
2.0
 50
90.0
  0
INSERT
  5
238
  8
0
  6
CONTINUOUS
 62
     4
  2
_FILLED
 10
90.371853518500004
 20
57.579238357999998
 30
0.0
 41
2.0
 42
2.0
 43
2.0
 50
270.0
  0
ENDBLK
  5
239
  8
0
  6
BYBLOCK
 62
     0
  0
BLOCK
  8
0
  6
CONTINUOUS
 62
     4
  2
*D5
 70
     1
 10
0.0
 20
0.0
 30
0.0
  3
*D5
  1

  0
TEXT
  5
23B
  8
0
  6
CONTINUOUS
 62
     4
 10
85.246853518500004
 20
87.286208618299995
 30
0.0
 40
2.5
  1
15.63
 50
90.0
  0
LINE
  5
23C
  8
0
  6
CONTINUOUS
 62
     4
 10
99.371853518500004
 20
52.579238357999998
 30
0.0
 11
84.371853518500018
 21
52.579238357999998
 31
0.0
  0
LINE
  5
23D
  8
0
  6
CONTINUOUS
 62
     4
 10
102.9218535185
 20
130.729238358
 30
0.0
 11
84.371853518500018
 21
130.729238358
 31
0.0
  0
LINE
  5
23E
  8
0
  6
CONTINUOUS
 62
     4
 10
85.871853518500004
 20
52.579238357999998
 30
0.0
 11
85.871853518500004
 21
91.654238357999986
 31
0.0
  0
LINE
  5
23F
  8
0
  6
CONTINUOUS
 62
     4
 10
85.871853518500004
 20
130.729238358
 30
0.0
 11
85.871853518500004
 21
91.654238357999986
 31
0.0
  0
INSERT
  5
240
  8
0
  6
CONTINUOUS
 62
     4
  2
_FILLED
 10
85.871853518500004
 20
52.579238357999998
 30
0.0
 41
2.0
 42
2.0
 43
2.0
 50
270.0
  0
INSERT
  5
241
  8
0
  6
CONTINUOUS
 62
     4
  2
_FILLED
 10
85.871853518500004
 20
130.729238358
 30
0.0
 41
2.0
 42
2.0
 43
2.0
 50
90.0
  0
ENDBLK
  5
242
  8
0
  6
BYBLOCK
 62
     0
  0
BLOCK
  8
0
  6
CONTINUOUS
 62
     4
  2
*D6
 70
     1
 10
0.0
 20
0.0
 30
0.0
  3
*D6
  1

  0
TEXT
  5
244
  8
0
  6
CONTINUOUS
 62
     4
 10
85.246853518500004
 20
131.58239820930001
 30
0.0
 40
2.5
  1
1.70
 50
90.0
  0
LINE
  5
245
  8
0
  6
CONTINUOUS
 62
     4
 10
102.9218535185
 20
139.229238358
 30
0.0
 11
84.371853518500018
 21
139.229238358
 31
0.0
  0
LINE
  5
246
  8
0
  6
CONTINUOUS
 62
     4
 10
102.9218535185
 20
130.729238358
 30
0.0
 11
84.371853518500018
 21
130.729238358
 31
0.0
  0
LINE
  5
247
  8
0
  6
CONTINUOUS
 62
     4
 10
85.871853518500004
 20
139.229238358
 30
0.0
 11
85.871853518500004
 21
134.979238358
 31
0.0
  0
LINE
  5
248
  8
0
  6
CONTINUOUS
 62
     4
 10
85.871853518500004
 20
130.729238358
 30
0.0
 11
85.871853518500004
 21
134.979238358
 31
0.0
  0
INSERT
  5
249
  8
0
  6
CONTINUOUS
 62
     4
  2
_FILLED
 10
85.871853518500004
 20
139.229238358
 30
0.0
 41
2.0
 42
2.0
 43
2.0
 50
90.0
  0
INSERT
  5
24A
  8
0
  6
CONTINUOUS
 62
     4
  2
_FILLED
 10
85.871853518500004
 20
130.729238358
 30
0.0
 41
2.0
 42
2.0
 43
2.0
 50
270.0
  0
ENDBLK
  5
24B
  8
0
  6
BYBLOCK
 62
     0
  0
BLOCK
  8
0
  6
CONTINUOUS
 62
     4
  2
*D7
 70
     1
 10
0.0
 20
0.0
 30
0.0
  3
*D7
  1

  0
TEXT
  5
24D
  8
0
  6
CONTINUOUS
 62
     4
 10
118.02501336980001
 20
153.204238358
 30
0.0
 40
2.5
  1
7.00
  0
LINE
  5
24E
  8
0
  6
CONTINUOUS
 62
     4
 10
138.9218535185
 20
140.229238358
 30
0.0
 11
138.9218535185
 21
154.079238358
 31
0.0
  0
LINE
  5
24F
  8
0
  6
CONTINUOUS
 62
     4
 10
103.9218535185
 20
140.229238358
 30
0.0
 11
103.9218535185
 21
154.079238358
 31
0.0
  0
LINE
  5
250
  8
0
  6
CONTINUOUS
 62
     4
 10
138.9218535185
 20
152.579238358
 30
0.0
 11
121.4218535185
 21
152.579238358
 31
0.0
  0
LINE
  5
251
  8
0
  6
CONTINUOUS
 62
     4
 10
103.9218535185
 20
152.579238358
 30
0.0
 11
121.4218535185
 21
152.579238358
 31
0.0
  0
INSERT
  5
252
  8
0
  6
CONTINUOUS
 62
     4
  2
_FILLED
 10
138.9218535185
 20
152.579238358
 30
0.0
 41
2.0
 42
2.0
 43
2.0
  0
INSERT
  5
253
  8
0
  6
CONTINUOUS
 62
     4
  2
_FILLED
 10
103.9218535185
 20
152.579238358
 30
0.0
 41
2.0
 42
2.0
 43
2.0
 50
180.0
  0
ENDBLK
  5
254
  8
0
  6
BYBLOCK
 62
     0
  0
BLOCK
  8
0
  6
CONTINUOUS
 62
     4
  2
*D8
 70
     1
 10
0.0
 20
0.0
 30
0.0
  3
*D8
  1

  0
TEXT
  5
256
  8
0
  6
CONTINUOUS
 62
     4
 10
91.120822982999996
 20
153.204238358
 30
0.0
 40
2.5
  1
0.71
  0
LINE
  5
257
  8
0
  6
CONTINUOUS
 62
     4
 10
100.3718535185
 20
143.579238358
 30
0.0
 11
100.3718535185
 21
154.079238358
 31
0.0
  0
LINE
  5
258
  8
0
  6
CONTINUOUS
 62
     4
 10
103.9218535185
 20
140.229238358
 30
0.0
 11
103.9218535185
 21
154.079238358
 31
0.0
  0
LINE
  5
259
  8
0
  6
CONTINUOUS
 62
     4
 10
100.3718535185
 20
152.579238358
 30
0.0
 11
91.120822982999996
 21
152.579238358
 31
0.0
  0
LINE
  5
25A
  8
0
  6
CONTINUOUS
 62
     4
 10
91.120822982999996
 20
152.579238358
 30
0.0
 11
102.1468535185
 21
152.579238358
 31
0.0
  0
LINE
  5
25B
  8
0
  6
CONTINUOUS
 62
     4
 10
103.9218535185
 20
152.579238358
 30
0.0
 11
106.4218535185
 21
152.579238358
 31
0.0
  0
LINE
  5
25C
  8
0
  6
CONTINUOUS
 62
     4
 10
106.4218535185
 20
152.579238358
 30
0.0
 11
102.1468535185
 21
152.579238358
 31
0.0
  0
INSERT
  5
25D
  8
0
  6
CONTINUOUS
 62
     4
  2
_FILLED
 10
100.3718535185
 20
152.579238358
 30
0.0
 41
2.0
 42
2.0
 43
2.0
  0
INSERT
  5
25E
  8
0
  6
CONTINUOUS
 62
     4
  2
_FILLED
 10
103.9218535185
 20
152.579238358
 30
0.0
 41
2.0
 42
2.0
 43
2.0
 50
180.0
  0
ENDBLK
  5
25F
  8
0
  6
BYBLOCK
 62
     0
  0
BLOCK
  8
0
  6
CONTINUOUS
 62
     4
  2
*D9
 70
     1
 10
0.0
 20
0.0
 30
0.0
  3
*D9
  1

  0
TEXT
  5
261
  8
0
  6
CONTINUOUS
 62
     4
 10
119.4750133698
 20
157.704238358
 30
0.0
 40
2.5
  1
9.00
  0
LINE
  5
262
  8
0
  6
CONTINUOUS
 62
     4
 10
100.3718535185
 20
143.579238358
 30
0.0
 11
100.3718535185
 21
158.579238358
 31
0.0
  0
LINE
  5
263
  8
0
  6
CONTINUOUS
 62
     4
 10
145.37185351849999
 20
140.079238358
 30
0.0
 11
145.37185351849999
 21
158.579238358
 31
0.0
  0
LINE
  5
264
  8
0
  6
CONTINUOUS
 62
     4
 10
100.3718535185
 20
157.079238358
 30
0.0
 11
122.8718535185
 21
157.079238358
 31
0.0
  0
LINE
  5
265
  8
0
  6
CONTINUOUS
 62
     4
 10
145.37185351849999
 20
157.079238358
 30
0.0
 11
122.8718535185
 21
157.079238358
 31
0.0
  0
INSERT
  5
266
  8
0
  6
CONTINUOUS
 62
     4
  2
_FILLED
 10
100.3718535185
 20
157.079238358
 30
0.0
 41
2.0
 42
2.0
 43
2.0
 50
180.0
  0
INSERT
  5
267
  8
0
  6
CONTINUOUS
 62
     4
  2
_FILLED
 10
145.37185351849999
 20
157.079238358
 30
0.0
 41
2.0
 42
2.0
 43
2.0
  0
ENDBLK
  5
268
  8
0
  6
BYBLOCK
 62
     0
  0
BLOCK
  8
0
  6
CONTINUOUS
 62
     4
  2
*D10
 70
     1
 10
0.0
 20
0.0
 30
0.0
  3
*D10
  1

  0
TEXT
  5
26A
  8
0
  6
CONTINUOUS
 62
     4
 10
159.74685351849999
 20
88.836208618300006
 30
0.0
 40
2.5
  1
16.25
 50
90.0
  0
LINE
  5
26B
  8
0
  6
CONTINUOUS
 62
     4
 10
151.62185351849999
 20
133.829238358
 30
0.0
 11
161.87185351849999
 21
133.829238358
 31
0.0
  0
LINE
  5
26C
  8
0
  6
CONTINUOUS
 62
     4
 10
151.37185351849999
 20
52.579238357999998
 30
0.0
 11
161.87185351849999
 21
52.579238357999998
 31
0.0
  0
LINE
  5
26D
  8
0
  6
CONTINUOUS
 62
     4
 10
160.37185351849999
 20
133.829238358
 30
0.0
 11
160.37185351849999
 21
93.204238357999984
 31
0.0
  0
LINE
  5
26E
  8
0
  6
CONTINUOUS
 62
     4
 10
160.37185351849999
 20
52.579238357999998
 30
0.0
 11
160.37185351849999
 21
93.204238357999984
 31
0.0
  0
INSERT
  5
26F
  8
0
  6
CONTINUOUS
 62
     4
  2
_FILLED
 10
160.37185351849999
 20
133.829238358
 30
0.0
 41
2.0
 42
2.0
 43
2.0
 50
90.0
  0
INSERT
  5
270
  8
0
  6
CONTINUOUS
 62
     4
  2
_FILLED
 10
160.37185351849999
 20
52.579238357999998
 30
0.0
 41
2.0
 42
2.0
 43
2.0
 50
270.0
  0
ENDBLK
  5
271
  8
0
  6
BYBLOCK
 62
     0
  0
BLOCK
  8
0
  6
CONTINUOUS
 62
     4
  2
*D11
 70
     1
 10
0.0
 20
0.0
 30
0.0
  3
*D11
  1

  0
TEXT
  5
273
  8
0
  6
CONTINUOUS
 62
     4
 10
89.746853518500004
 20
86.711208618300034
 30
0.0
 40
2.5
  1
13.40
 50
90.0
  0
LINE
  5
274
  8
0
  6
CONTINUOUS
 62
     4
 10
104.3718535185
 20
124.579238358
 30
0.0
 11
88.871853518500004
 21
124.579238358
 31
0.0
  0
LINE
  5
275
  8
0
  6
CONTINUOUS
 62
     4
 10
104.3718535185
 20
57.579238357999998
 30
0.0
 11
88.871853518500004
 21
57.579238357999998
 31
0.0
  0
LINE
  5
276
  8
0
  6
CONTINUOUS
 62
     4
 10
90.371853518500004
 20
124.579238358
 30
0.0
 11
90.371853518500004
 21
91.079238357999984
 31
0.0
  0
LINE
  5
277
  8
0
  6
CONTINUOUS
 62
     4
 10
90.371853518500004
 20
57.579238357999998
 30
0.0
 11
90.371853518500004
 21
91.079238357999984
 31
0.0
  0
INSERT
  5
278
  8
0
  6
CONTINUOUS
 62
     4
  2
_FILLED
 10
90.371853518500004
 20
124.579238358
 30
0.0
 41
2.0
 42
2.0
 43
2.0
 50
90.0
  0
INSERT
  5
279
  8
0
  6
CONTINUOUS
 62
     4
  2
_FILLED
 10
90.371853518500004
 20
57.579238357999998
 30
0.0
 41
2.0
 42
2.0
 43
2.0
 50
270.0
  0
ENDBLK
  5
27A
  8
0
  6
BYBLOCK
 62
     0
  0
BLOCK
  8
0
  6
CONTINUOUS
 62
     4
  2
*D12
 70
     1
 10
0.0
 20
0.0
 30
0.0
  3
*D12
  1

  0
TEXT
  5
27C
  8
0
  6
CONTINUOUS
 62
     4
 10
92.865479314400005
 20
43.204238357999998
 30
0.0
 40
2.5
  1
1.00
  0
LINE
  5
27D
  8
0
  6
CONTINUOUS
 62
     4
 10
100.3718535185
 20
51.579238358000012
 30
0.0
 11
100.3718535185
 21
41.079238357999998
 31
0.0
  0
LINE
  5
27E
  8
0
  6
CONTINUOUS
 62
     4
 10
105.3718535185
 20
56.579238358000012
 30
0.0
 11
105.3718535185
 21
41.079238357999998
 31
0.0
  0
LINE
  5
27F
  8
0
  6
CONTINUOUS
 62
     4
 10
100.3718535185
 20
42.579238357999998
 30
0.0
 11
102.8718535185
 21
42.579238357999998
 31
0.0
  0
LINE
  5
280
  8
0
  6
CONTINUOUS
 62
     4
 10
102.8718535185
 20
42.579238357999998
 30
0.0
 11
92.865479314400005
 21
42.579238357999998
 31
0.0
  0
LINE
  5
281
  8
0
  6
CONTINUOUS
 62
     4
 10
105.3718535185
 20
42.579238357999998
 30
0.0
 11
102.8718535185
 21
42.579238357999998
 31
0.0
  0
INSERT
  5
282
  8
0
  6
CONTINUOUS
 62
     4
  2
_FILLED
 10
100.3718535185
 20
42.579238357999998
 30
0.0
 41
2.0
 42
2.0
 43
2.0
 50
180.0
  0
INSERT
  5
283
  8
0
  6
CONTINUOUS
 62
     4
  2
_FILLED
 10
105.3718535185
 20
42.579238357999998
 30
0.0
 41
2.0
 42
2.0
 43
2.0
  0
ENDBLK
  5
284
  8
0
  6
BYBLOCK
 62
     0
  0
BLOCK
  8
0
  6
CONTINUOUS
 62
     4
  2
*D13
 70
     1
 10
0.0
 20
0.0
 30
0.0
  3
*D13
  1

  0
TEXT
  5
286
  8
0
  6
CONTINUOUS
 62
     4
 10
34.0125254696
 20
153.204238358
 30
0.0
 40
2.5
  1
1.00
  0
LINE
  5
287
  8
0
  6
CONTINUOUS
 62
     4
 10
28.672749010299999
 20
143.579238358
 30
0.0
 11
28.672749010299999
 21
154.079238358
 31
0.0
  0
LINE
  5
288
  8
0
  6
CONTINUOUS
 62
     4
 10
33.672749010300002
 20
143.579238358
 30
0.0
 11
33.672749010300002
 21
154.079238358
 31
0.0
  0
LINE
  5
289
  8
0
  6
CONTINUOUS
 62
     4
 10
28.672749010299999
 20
152.579238358
 30
0.0
 11
31.172749010299999
 21
152.579238358
 31
0.0
  0
LINE
  5
28A
  8
0
  6
CONTINUOUS
 62
     4
 10
33.672749010300002
 20
152.579238358
 30
0.0
 11
31.172749010299999
 21
152.579238358
 31
0.0
  0
LINE
  5
28B
  8
0
  6
CONTINUOUS
 62
     4
 10
31.172749010299999
 20
152.579238358
 30
0.0
 11
40.806205767000002
 21
152.579238358
 31
0.0
  0
INSERT
  5
28C
  8
0
  6
CONTINUOUS
 62
     4
  2
_FILLED
 10
28.672749010299999
 20
152.579238358
 30
0.0
 41
2.0
 42
2.0
 43
2.0
 50
180.0
  0
INSERT
  5
28D
  8
0
  6
CONTINUOUS
 62
     4
  2
_FILLED
 10
33.672749010300002
 20
152.579238358
 30
0.0
 41
2.0
 42
2.0
 43
2.0
  0
ENDBLK
  5
28E
  8
0
  6
BYBLOCK
 62
     0
  0
BLOCK
  8
0
  6
CONTINUOUS
 62
     4
  2
*D14
 70
     1
 10
0.0
 20
0.0
 30
0.0
  3
*D14
  1

  0
TEXT
  5
290
  8
0
  6
CONTINUOUS
 62
     4
 10
45.490419882799991
 20
157.704238358
 30
0.0
 40
2.5
  1
3.20(MAX.)
  0
LINE
  5
291
  8
0
  6
CONTINUOUS
 62
     4
 10
28.672749010299999
 20
143.579238358
 30
0.0
 11
28.672749010299999
 21
158.579238358
 31
0.0
  0
LINE
  5
292
  8
0
  6
CONTINUOUS
 62
     4
 10
44.672749010299981
 20
140.229238358
 30
0.0
 11
44.672749010299981
 21
158.579238358
 31
0.0
  0
LINE
  5
293
  8
0
  6
CONTINUOUS
 62
     4
 10
28.672749010299999
 20
157.079238358
 30
0.0
 11
36.672749010300002
 21
157.079238358
 31
0.0
  0
LINE
  5
294
  8
0
  6
CONTINUOUS
 62
     4
 10
44.672749010299981
 20
157.079238358
 30
0.0
 11
36.672749010300002
 21
157.079238358
 31
0.0
  0
LINE
  5
295
  8
0
  6
CONTINUOUS
 62
     4
 10
36.672749010300002
 20
157.079238358
 30
0.0
 11
63.120531407000001
 21
157.079238358
 31
0.0
  0
INSERT
  5
296
  8
0
  6
CONTINUOUS
 62
     4
  2
_FILLED
 10
28.672749010299999
 20
157.079238358
 30
0.0
 41
2.0
 42
2.0
 43
2.0
 50
180.0
  0
INSERT
  5
297
  8
0
  6
CONTINUOUS
 62
     4
  2
_FILLED
 10
44.672749010299981
 20
157.079238358
 30
0.0
 41
2.0
 42
2.0
 43
2.0
  0
ENDBLK
  5
298
  8
0
  6
BYBLOCK
 62
     0
  0
BLOCK
  8
0
  6
CONTINUOUS
 62
     4
  2
*D15
 70
     1
 10
0.0
 20
0.0
 30
0.0
  3
*D15
  1

  0
TEXT
  5
29A
  8
0
  6
CONTINUOUS
 62
     4
 10
43.138211023799997
 20
43.204238357999998
 30
0.0
 40
2.5
  1
2.70(MAX.)
  0
LINE
  5
29B
  8
0
  6
CONTINUOUS
 62
     4
 10
28.672749010299999
 20
51.579238358000012
 30
0.0
 11
28.672749010299999
 21
41.079238357999998
 31
0.0
  0
LINE
  5
29C
  8
0
  6
CONTINUOUS
 62
     4
 10
42.172749010300002
 20
56.579238358000012
 30
0.0
 11
42.172749010300002
 21
41.079238357999998
 31
0.0
  0
LINE
  5
29D
  8
0
  6
CONTINUOUS
 62
     4
 10
28.672749010299999
 20
42.579238357999998
 30
0.0
 11
35.422749010300002
 21
42.579238357999998
 31
0.0
  0
LINE
  5
29E
  8
0
  6
CONTINUOUS
 62
     4
 10
42.172749010300002
 20
42.579238357999998
 30
0.0
 11
35.422749010300002
 21
42.579238357999998
 31
0.0
  0
LINE
  5
29F
  8
0
  6
CONTINUOUS
 62
     4
 10
35.422749010300002
 20
42.579238357999998
 30
0.0
 11
60.768322547899999
 21
42.579238357999998
 31
0.0
  0
INSERT
  5
2A0
  8
0
  6
CONTINUOUS
 62
     4
  2
_FILLED
 10
28.672749010299999
 20
42.579238357999998
 30
0.0
 41
2.0
 42
2.0
 43
2.0
 50
180.0
  0
INSERT
  5
2A1
  8
0
  6
CONTINUOUS
 62
     4
  2
_FILLED
 10
42.172749010300002
 20
42.579238357999998
 30
0.0
 41
2.0
 42
2.0
 43
2.0
  0
ENDBLK
  5
2A2
  8
0
  6
BYBLOCK
 62
     0
  0
BLOCK
  8
0
  6
CONTINUOUS
 62
     4
  2
*D16
 70
     1
 10
0.0
 20
0.0
 30
0.0
  3
*D16
  1

  0
TEXT
  5
2A4
  8
0
  6
CONTINUOUS
 62
     4
 10
160.112086511
 20
153.204238358
 30
0.0
 40
2.5
  1
%%c0.90
  0
LINE
  5
2A5
  8
0
  6
CONTINUOUS
 62
     4
 10
146.6363880854
 20
135.69027364230001
 30
0.0
 11
158.112086511
 21
152.579238358
 31
0.0
  0
LINE
  5
2A6
  8
0
  6
CONTINUOUS
 62
     4
 10
158.112086511
 20
152.579238358
 30
0.0
 11
158.112116211
 21
152.579238358
 31
0.0
  0
LINE
  5
2A7
  8
0
  6
CONTINUOUS
 62
     4
 10
158.112116211
 20
152.579238358
 30
0.0
 11
172.73910014169999
 21
152.579238358
 31
0.0
  0
INSERT
  5
2A8
  8
0
  6
CONTINUOUS
 62
     4
  2
_FILLED
 10
146.6363880854
 20
135.69027364230001
 30
0.0
 41
2.0
 42
2.0
 43
2.0
 50
235.80471157529999
  0
ENDBLK
  5
2A9
  8
0
  6
BYBLOCK
 62
     0
  0
BLOCK
  8
0
  2
*U17
 70
     1
 10
0.0
 20
0.0
 30
0.0
  3
*U17
  1

  0
TEXT
  5
507
  8
0
 62
     3
 10
243.5681056612749
 20
47.388052175793177
 30
0.0
 40
2.5
  1
SCALE 1.000
  0
ENDBLK
  5
509
  8
0
  0
ENDSEC
  0
SECTION
  2
ENTITIES
  0
TEXT
  5
2AD
  8
0
  6
CONTINUOUS
 62
     7
 10
215.2735382495334
 20
27.3266475452
 30
0.0
 40
1.5
  1
 
  7
TEXTSTYLE_1
 72
     1
 11
215.564636476
 21
27.3266475452
 31
0.0
  0
TEXT
  5
2AE
  8
0
  6
CONTINUOUS
 62
     7
 10
147.46153899999999
 20
0.422283
 30
0.0
 40
4.1500000000000004
  1
3
 51
5.0
  7
TEXTSTYLE_1
  0
TEXT
  5
2AF
  8
0
  6
CONTINUOUS
 62
     7
 10
1.0532129999999991
 20
31.227744999999999
 30
0.0
 40
4.1500000000000004
  1
D
 51
5.0
  7
TEXTSTYLE_1
  0
TEXT
  5
2B0
  8
0
  6
CONTINUOUS
 62
     7
 10
36.346153999999999
 20
0.422283
 30
0.0
 40
4.1500000000000004
  1
1
 51
5.0
  7
TEXTSTYLE_1
  0
TEXT
  5
2B1
  8
0
  6
CONTINUOUS
 62
     7
 10
1.0532129999999991
 20
79.148904999999999
 30
0.0
 40
4.1500000000000004
  1
C
 51
5.0
  7
TEXTSTYLE_1
  0
TEXT
  5
2B2
  8
0
  6
CONTINUOUS
 62
     7
 10
92.423077000000006
 20
0.422283
 30
0.0
 40
4.1500000000000004
  1
2
 51
5.0
  7
TEXTSTYLE_1
  0
TEXT
  5
2B3
  8
0
  6
CONTINUOUS
 62
     7
 10
1.0532129999999991
 20
128.64988199999999
 30
0.0
 40
4.1500000000000004
  1
B
 51
5.0
  7
TEXTSTYLE_1
  0
TEXT
  5
2B4
  8
0
  6
CONTINUOUS
 62
     7
 10
1.0532129999999991
 20
178.67746699999989
 30
0.0
 40
4.1500000000000004
  1
A
 51
5.0
  7
TEXTSTYLE_1
  0
TEXT
  5
2B5
  8
0
  6
CONTINUOUS
 62
     7
 10
34.269230999999998
 20
205.596923
 30
0.0
 40
4.1500000000000004
  1
1
 51
5.0
  7
TEXTSTYLE_1
  0
TEXT
  5
2B6
  8
0
  6
CONTINUOUS
 62
     7
 10
90.346153999999984
 20
205.596923
 30
0.0
 40
4.1500000000000004
  1
2
 51
5.0
  7
TEXTSTYLE_1
  0
TEXT
  5
2B7
  8
0
  6
CONTINUOUS
 62
     7
 10
145.38461599999999
 20
205.596923
 30
0.0
 40
4.1500000000000004
  1
3
 51
5.0
  7
TEXTSTYLE_1
  0
TEXT
  5
2B8
  8
0
  6
CONTINUOUS
 62
     7
 10
190.76256000000001
 20
6.56311
 30
0.0
 40
1.0
  1
%%p0.50
  7
TEXTSTYLE_1
  0
TEXT
  5
2B9
  8
0
  6
CONTINUOUS
 62
     7
 10
190.76256000000001
 20
10.06311
 30
0.0
 40
1.0
  1
%%p0.25
  7
TEXTSTYLE_1
  0
TEXT
  5
2BA
  8
0
  6
CONTINUOUS
 62
     7
 10
190.76256000000001
 20
13.56311
 30
0.0
 40
1.0
  1
%%p0.12
  7
TEXTSTYLE_1
  0
TEXT
  5
2BB
  8
0
  6
CONTINUOUS
 62
     7
 10
190.76256000000001
 20
17.063110000000002
 30
0.0
 40
1.0
  1
%%p0.08
  7
TEXTSTYLE_1
  0
TEXT
  5
2BC
  8
0
  6
CONTINUOUS
 62
     7
 10
190.76256000000001
 20
20.563110000000002
 30
0.0
 40
1.0
  1
%%p0.05
  7
TEXTSTYLE_1
  0
TEXT
  5
2BD
  8
0
  6
CONTINUOUS
 62
     7
 10
180.08007599999999
 20
6.4719639999999981
 30
0.0
 40
1.25
  1
250~800
  7
TEXTSTYLE_1
  0
TEXT
  5
2BE
  8
0
  6
CONTINUOUS
 62
     7
 10
179.369598
 20
13.471964
 30
0.0
 40
1.25
  1
 25~80
  7
TEXTSTYLE_1
  0
TEXT
  5
2BF
  8
0
  6
CONTINUOUS
 62
     7
 10
179.26071099999999
 20
16.971964
 30
0.0
 40
1.25
  1
  8~25
  7
TEXTSTYLE_1
  0
TEXT
  5
2C0
  8
0
  6
CONTINUOUS
 62
     7
 10
179.506955
 20
9.9719639999999998
 30
0.0
 40
1.25
  1
 80~250
  7
TEXTSTYLE_1
  0
TEXT
  5
2C1
  8
0
  6
CONTINUOUS
 62
     7
 10
178.981593
 20
20.471964
 30
0.0
 40
1.25
  1
   ~8
  7
TEXTSTYLE_1
  0
TEXT
  5
2C2
  8
0
  6
CONTINUOUS
 62
     7
 10
182.929552
 20
23.846964
 30
0.0
 40
1.5
  1
Dim.
  7
TEXTSTYLE_1
  0
TEXT
  5
2C3
  8
0
  6
CONTINUOUS
 62
     7
 10
193.31529900000001
 20
23.846964
 30
0.0
 40
1.5
  1
F
  7
TEXTSTYLE_1
  0
TEXT
  5
2C4
  8
0
  6
CONTINUOUS
 62
     7
 10
214.76256000000001
 20
6.56311
 30
0.0
 40
1.0
  1
%%p1.50
  7
TEXTSTYLE_1
  0
TEXT
  5
2C5
  8
0
  6
CONTINUOUS
 62
     7
 10
208.76256000000001
 20
6.56311
 30
0.0
 40
1.0
  1
%%p1.00
  7
TEXTSTYLE_1
  0
TEXT
  5
2C6
  8
0
  6
CONTINUOUS
 62
     7
 10
202.76256000000001
 20
6.56311
 30
0.0
 40
1.0
  1
%%p0.80
  7
TEXTSTYLE_1
  0
TEXT
  5
2C7
  8
0
  6
CONTINUOUS
 62
     7
 10
196.76256000000001
 20
6.56311
 30
0.0
 40
1.0
  1
%%p0.60
  7
TEXTSTYLE_1
  0
TEXT
  5
2C8
  8
0
  6
CONTINUOUS
 62
     7
 10
206.65384599999999
 20
0.422283
 30
0.0
 40
4.1500000000000004
  1
4
 51
5.0
  7
TEXTSTYLE_1
  0
TEXT
  5
2C9
  8
0
  6
CONTINUOUS
 62
     7
 10
214.76256000000001
 20
17.063110000000002
 30
0.0
 40
1.0
  1
%%p0.30
  7
TEXTSTYLE_1
  0
TEXT
  5
2CA
  8
0
  6
CONTINUOUS
 62
     7
 10
214.76256000000001
 20
20.563110000000002
 30
0.0
 40
1.0
  1
%%p0.20
  7
TEXTSTYLE_1
  0
TEXT
  5
2CB
  8
0
  6
CONTINUOUS
 62
     7
 10
214.76256000000001
 20
13.56311
 30
0.0
 40
1.0
  1
%%p0.50
  7
TEXTSTYLE_1
  0
TEXT
  5
2CC
  8
0
  6
CONTINUOUS
 62
     7
 10
214.76256000000001
 20
10.06311
 30
0.0
 40
1.0
  1
%%p0.80
  7
TEXTSTYLE_1
  0
TEXT
  5
2CD
  8
0
  6
CONTINUOUS
 62
     7
 10
217.31529900000001
 20
23.846964
 30
0.0
 40
1.5
  1
K
  7
TEXTSTYLE_1
  0
TEXT
  5
2CE
  8
0
  6
CONTINUOUS
 62
     7
 10
202.76256000000001
 20
20.563110000000002
 30
0.0
 40
1.0
  1
%%p0.10
  7
TEXTSTYLE_1
  0
TEXT
  5
2CF
  8
0
  6
CONTINUOUS
 62
     7
 10
202.76256000000001
 20
17.063110000000002
 30
0.0
 40
1.0
  1
%%p0.15
  7
TEXTSTYLE_1
  0
TEXT
  5
2D0
  8
0
  6
CONTINUOUS
 62
     7
 10
202.76256000000001
 20
10.06311
 30
0.0
 40
1.0
  1
%%p0.40
  7
TEXTSTYLE_1
  0
TEXT
  5
2D1
  8
0
  6
CONTINUOUS
 62
     7
 10
202.76256000000001
 20
13.56311
 30
0.0
 40
1.0
  1
%%p0.25
  7
TEXTSTYLE_1
  0
TEXT
  5
2D2
  8
0
  6
CONTINUOUS
 62
     7
 10
196.76256000000001
 20
13.56311
 30
0.0
 40
1.0
  1
%%p0.20
  7
TEXTSTYLE_1
  0
TEXT
  5
2D3
  8
0
  6
CONTINUOUS
 62
     7
 10
196.76256000000001
 20
10.06311
 30
0.0
 40
1.0
  1
%%p0.30
  7
TEXTSTYLE_1
  0
TEXT
  5
2D4
  8
0
  6
CONTINUOUS
 62
     7
 10
196.76256000000001
 20
17.063110000000002
 30
0.0
 40
1.0
  1
%%p0.15
  7
TEXTSTYLE_1
  0
TEXT
  5
2D5
  8
0
  6
CONTINUOUS
 62
     7
 10
196.76256000000001
 20
20.563110000000002
 30
0.0
 40
1.0
  1
%%p0.10
  7
TEXTSTYLE_1
  0
TEXT
  5
2D6
  8
0
  6
CONTINUOUS
 62
     7
 10
208.76256000000001
 20
13.56311
 30
0.0
 40
1.0
  1
%%p0.40
  7
TEXTSTYLE_1
  0
TEXT
  5
2D7
  8
0
  6
CONTINUOUS
 62
     7
 10
208.76256000000001
 20
10.06311
 30
0.0
 40
1.0
  1
%%p0.60
  7
TEXTSTYLE_1
  0
TEXT
  5
2D8
  8
0
  6
CONTINUOUS
 62
     7
 10
208.76256000000001
 20
17.063110000000002
 30
0.0
 40
1.0
  1
%%p0.30
  7
TEXTSTYLE_1
  0
TEXT
  5
2D9
  8
0
  6
CONTINUOUS
 62
     7
 10
208.76256000000001
 20
20.563110000000002
 30
0.0
 40
1.0
  1
%%p0.20
  7
TEXTSTYLE_1
  0
TEXT
  5
2DA
  8
0
  6
CONTINUOUS
 62
     7
 10
199.31529900000001
 20
23.846964
 30
0.0
 40
1.5
  1
G
  7
TEXTSTYLE_1
  0
TEXT
  5
2DB
  8
0
  6
CONTINUOUS
 62
     7
 10
205.31529900000001
 20
23.846964
 30
0.0
 40
1.5
  1
H
  7
TEXTSTYLE_1
  0
TEXT
  5
2DC
  8
0
  6
CONTINUOUS
 62
     7
 10
211.31529900000001
 20
23.846964
 30
0.0
 40
1.5
  1
J
  7
TEXTSTYLE_1
  0
TEXT
  5
2DD
  8
0
  6
CONTINUOUS
 62
     7
 10
265.84615400000001
 20
0.422283
 30
0.0
 40
4.1500000000000004
  1
5
 51
5.0
  7
TEXTSTYLE_1
  0
TEXT
  5
2DE
  8
0
  6
CONTINUOUS
 62
     7
 10
292.78715099999999
 20
31.227744999999999
 30
0.0
 40
4.1500000000000004
  1
D
 51
5.0
  7
TEXTSTYLE_1
  0
TEXT
  5
2DF
  8
0
  6
CONTINUOUS
 62
     7
 10
292.78715099999999
 20
79.148904999999999
 30
0.0
 40
4.1500000000000004
  1
C
 51
5.0
  7
TEXTSTYLE_1
  0
TEXT
  5
2E0
  8
0
  6
CONTINUOUS
 62
     7
 10
204.57692299999999
 20
205.596923
 30
0.0
 40
4.1500000000000004
  1
4
 51
5.0
  7
TEXTSTYLE_1
  0
TEXT
  5
2E1
  8
0
  6
CONTINUOUS
 62
     7
 10
292.78715099999999
 20
128.64988199999999
 30
0.0
 40
4.1500000000000004
  1
B
 51
5.0
  7
TEXTSTYLE_1
  0
TEXT
  5
2E2
  8
0
  6
CONTINUOUS
 62
     7
 10
263.76923099999999
 20
205.596923
 30
0.0
 40
4.1500000000000004
  1
5
 51
5.0
  7
TEXTSTYLE_1
  0
TEXT
  5
2E3
  8
0
  6
CONTINUOUS
 62
     7
 10
292.78715099999999
 20
178.67746699999989
 30
0.0
 40
4.1500000000000004
  1
A
 51
5.0
  7
TEXTSTYLE_1
  0
TEXT
  5
2E4
  8
0
  6
CONTINUOUS
 62
     7
 10
233.2602335484772
 20
27.946541623800002
 30
0.0
 40
3.799999999999998
  1
Raytac Corporation
  7
TEXTSTYLE_1
 72
     1
 11
256.12762781859999
 21
27.946541623800002
 31
0.0
  0
TEXT
  5
2E5
  8
0
  6
CONTINUOUS
 62
     7
 10
186.02481931729511
 20
30.888078349499999
 30
0.0
 40
1.3500000000000001
  1
Projection
  7
TEXTSTYLE_1
 72
     1
 11
190.2180150881
 21
30.888078349499999
 31
0.0
  0
TEXT
  5
2E6
  8
0
  6
CONTINUOUS
 62
     7
 10
181.12944100899509
 20
27.4226959519
 30
0.0
 40
1.3500000000000001
  1
Tolerance
  7
TEXTSTYLE_1
 72
     1
 11
185.32263677980001
 21
27.4226959519
 31
0.0
  0
TEXT
  5
2E7
  8
0
  6
CONTINUOUS
 62
     7
 10
223.76759999032771
 20
6.4284960941999989
 30
0.0
 40
1.3500000000000001
  1
Unit
  7
TEXTSTYLE_1
 72
     1
 11
225.44450994939999
 21
6.4284960941999989
 31
0.0
  0
TEXT
  5
2E8
  8
0
  6
CONTINUOUS
 62
     7
 10
235.34870810286071
 20
6.6108133571999996
 30
0.0
 40
1.5
  1
mm
  7
TEXTSTYLE_1
 72
     1
 11
237.0942742693
 21
6.6108133571999996
 31
0.0
  0
TEXT
  5
2E9
  8
0
  6
CONTINUOUS
 62
     7
 10
203.4008055349444
 20
27.389994317300001
 30
0.0
 40
1.3500000000000001
  1
Angle
  7
TEXTSTYLE_1
 72
     1
 11
205.8111909374
 21
27.389994317300001
 31
0.0
  0
TEXT
  5
2EA
  8
0
  6
CONTINUOUS
 62
     7
 10
222.9186214036915
 20
9.9247075640000002
 30
0.0
 40
1.3500000000000001
  1
Finish
  7
TEXTSTYLE_1
 72
     1
 11
225.43398634229999
 21
9.9247075640000002
 31
0.0
  0
TEXT
  5
2EB
  8
0
  6
CONTINUOUS
 62
     7
 10
222.10121478035541
 20
13.425801013899999
 30
0.0
 40
1.3500000000000001
  1
Material
  7
TEXTSTYLE_1
 72
     1
 11
225.45503469849999
 21
13.425801013899999
 31
0.0
  0
TEXT
  5
2EC
  8
0
  6
CONTINUOUS
 62
     7
 10
222.81901643886229
 20
20.424788031599999
 30
0.0
 40
1.3500000000000001
  1
Check
  7
TEXTSTYLE_1
 72
     1
 11
225.49185068169999
 21
20.424788031599999
 31
0.0
  0
TEXT
  5
2ED
  8
0
  6
CONTINUOUS
 62
     7
 10
222.0399112979448
 20
16.917708537100001
 30
0.0
 40
1.3500000000000001
  1
Approval
  7
TEXTSTYLE_1
 72
     1
 11
225.76023871949999
 21
16.917708537100001
 31
0.0
  0
TEXT
  5
2EE
  8
0
  6
CONTINUOUS
 62
     7
 10
222.5019282906803
 20
23.905933041099999
 30
0.0
 40
1.3500000000000001
  1
Design
  7
TEXTSTYLE_1
 72
     1
 11
225.4372113739
 21
23.905933041099999
 31
0.0
  0
TEXT
  5
2EF
  8
0
  6
CONTINUOUS
 62
     7
 10
271.4666430704662
 20
6.3901149442999987
 30
0.0
 40
1.419999999999999
  1
Page
  7
TEXTSTYLE_1
 72
     1
 11
273.78310282490003
 21
6.3901149442999987
 31
0.0
  0
TEXT
  5
2F0
  8
0
  6
CONTINUOUS
 62
     7
 10
247.30809726189659
 20
6.4259516952999984
 30
0.0
 40
1.3500000000000001
  1
Scale
  7
TEXTSTYLE_1
 72
     1
 11
249.6669137694
 21
6.4259516952999984
 31
0.0
  0
TEXT
  5
2F1
  8
0
  6
CONTINUOUS
 62
     7
 10
245.3419005453818
 20
23.242886125500011
 30
0.0
 40
0.95
  1
Drawing Name
  7
TEXTSTYLE_1
 72
     1
 11
249.73030436529999
 21
23.242886125500011
 31
0.0
  0
TEXT
  5
2F2
  8
0
  6
CONTINUOUS
 62
     7
 10
245.4452657878044
 20
17.803942069400001
 30
0.0
 40
1.3500000000000001
  1
Model No.
  7
TEXTSTYLE_1
 72
     1
 11
249.7429806582
 21
17.803942069400001
 31
0.0
  0
TEXT
  5
2F3
  8
0
  6
CONTINUOUS
 62
     7
 10
247.78916896816929
 20
9.9381517971999997
 30
0.0
 40
1.3500000000000001
  1
Date
  7
TEXTSTYLE_1
 72
     1
 11
249.78101753569999
 21
9.9381517971999997
 31
0.0
  0
TEXT
  5
2F4
  8
0
  6
CONTINUOUS
 62
     7
 10
246.3033240095026
 20
13.450351899099999
 30
0.0
 40
1.3500000000000001
  1
Part No.
  7
TEXTSTYLE_1
 72
     1
 11
249.76212346380001
 21
13.450351899099999
 31
0.0
  0
TEXT
  5
2F5
  8
0
  6
CONTINUOUS
 62
     7
 10
270.39462349528441
 20
9.8636619657000004
 30
0.0
 40
1.419999999999999
  1
Version
  7
TEXTSTYLE_1
 72
     1
 11
273.75767942980002
 21
9.8636619657000004
 31
0.0
  0
DIMENSION
  5
2F6
  8
0
  6
CONTINUOUS
 62
     4
  2
*D1
 10
100.3718535185
 20
161.579238358
 30
0.0
 11
125.3718535185
 21
163.454238358
 31
0.0
 70
   128
 13
150.37185351849999
 23
143.579238358
 33
0.0
 14
100.3718535185
 24
143.579238358
 34
0.0
 50
180.0
  0
DIMENSION
  5
2F7
  8
0
  6
CONTINUOUS
 62
     4
  2
*D2
 10
81.371853518500004
 20
52.579238357999998
 30
0.0
 11
79.496853518500004
 21
97.579238357999984
 31
0.0
 70
   128
 13
99.371853518500004
 23
142.579238358
 33
0.0
 14
99.371853518500004
 24
52.579238357999998
 34
0.0
 50
270.0
  0
DIMENSION
  5
2F8
  8
0
  6
CONTINUOUS
 62
     4
  2
*D3
 10
145.37185351849999
 20
42.579238357999998
 30
0.0
 11
125.3718535185
 21
44.454238357999998
 31
0.0
 70
   128
 13
105.3718535185
 23
56.579238358000012
 33
0.0
 14
145.37185351849999
 24
56.579238358000012
 34
0.0
  0
DIMENSION
  5
2F9
  8
0
  6
CONTINUOUS
 62
     4
  2
*D4
 10
90.371853518500004
 20
57.579238357999998
 30
0.0
 11
88.496853518500004
 21
48.175499943299997
 31
0.0
 70
   128
 13
99.371853518500004
 23
52.579238357999998
 33
0.0
 14
104.3718535185
 24
57.579238357999998
 34
0.0
 50
90.0
  0
DIMENSION
  5
2FA
  8
0
  6
CONTINUOUS
 62
     4
  2
*D5
 10
85.871853518500004
 20
130.729238358
 30
0.0
 11
83.996853518500004
 21
91.654238357999986
 31
0.0
 70
   128
 13
99.371853518500004
 23
52.579238357999998
 33
0.0
 14
102.9218535185
 24
130.729238358
 34
0.0
 50
90.0
  0
DIMENSION
  5
2FB
  8
0
  6
CONTINUOUS
 62
     4
  2
*D6
 10
85.871853518500004
 20
130.729238358
 30
0.0
 11
83.996853518500004
 21
134.979238358
 31
0.0
 70
   128
 13
102.9218535185
 23
139.229238358
 33
0.0
 14
102.9218535185
 24
130.729238358
 34
0.0
 50
270.0
  0
DIMENSION
  5
2FC
  8
0
  6
CONTINUOUS
 62
     4
  2
*D7
 10
103.9218535185
 20
152.579238358
 30
0.0
 11
121.4218535185
 21
154.454238358
 31
0.0
 70
   128
 13
138.9218535185
 23
140.229238358
 33
0.0
 14
103.9218535185
 24
140.229238358
 34
0.0
 50
180.0
  0
DIMENSION
  5
2FD
  8
0
  6
CONTINUOUS
 62
     4
  2
*D8
 10
103.9218535185
 20
152.579238358
 30
0.0
 11
94.517663131700004
 21
154.454238358
 31
0.0
 70
   128
 13
100.3718535185
 23
143.579238358
 33
0.0
 14
103.9218535185
 24
140.229238358
 34
0.0
  0
DIMENSION
  5
2FE
  8
0
  6
CONTINUOUS
 62
     4
  2
*D9
 10
145.37185351849999
 20
157.079238358
 30
0.0
 11
122.8718535185
 21
158.954238358
 31
0.0
 70
   128
 13
100.3718535185
 23
143.579238358
 33
0.0
 14
145.37185351849999
 24
140.079238358
 34
0.0
  0
DIMENSION
  5
2FF
  8
0
  6
CONTINUOUS
 62
     4
  2
*D10
 10
160.37185351849999
 20
52.579238357999998
 30
0.0
 11
158.49685351849999
 21
93.204238357999984
 31
0.0
 70
   128
 13
151.62185351849999
 23
133.829238358
 33
0.0
 14
151.37185351849999
 24
52.579238357999998
 34
0.0
 50
270.0
  0
DIMENSION
  5
300
  8
0
  6
CONTINUOUS
 62
     4
  2
*D11
 10
90.371853518500004
 20
57.579238357999998
 30
0.0
 11
88.496853518500004
 21
91.079238357999984
 31
0.0
 70
   128
 13
104.3718535185
 23
124.579238358
 33
0.0
 14
104.3718535185
 24
57.579238357999998
 34
0.0
 50
270.0
  0
DIMENSION
  5
301
  8
0
  6
CONTINUOUS
 62
     4
  2
*D12
 10
105.3718535185
 20
42.579238357999998
 30
0.0
 11
96.262319463099985
 21
44.454238357999998
 31
0.0
 70
   128
 13
100.3718535185
 23
51.579238358000012
 33
0.0
 14
105.3718535185
 24
56.579238358000012
 34
0.0
  0
DIMENSION
  5
302
  8
0
  6
CONTINUOUS
 62
     4
  2
*D13
 10
33.672749010300002
 20
152.579238358
 30
0.0
 11
37.409365618300001
 21
154.454238358
 31
0.0
 70
   128
 13
28.672749010299999
 23
143.579238358
 33
0.0
 14
33.672749010300002
 24
143.579238358
 34
0.0
  0
DIMENSION
  5
303
  8
0
  6
CONTINUOUS
 62
     4
  2
*D14
 10
44.672749010299981
 20
157.079238358
 30
0.0
 11
54.3054756449
 21
158.954238358
 31
0.0
 70
   128
  1
<>(MAX.)
 13
28.672749010299999
 23
143.579238358
 33
0.0
 14
44.672749010299981
 24
140.229238358
 34
0.0
  0
DIMENSION
  5
304
  8
0
  6
CONTINUOUS
 62
     4
  2
*D15
 10
42.172749010300002
 20
42.579238357999998
 30
0.0
 11
51.953266785899991
 21
44.454238357999998
 31
0.0
 70
   128
  1
<>(MAX.)
 13
28.672749010299999
 23
51.579238358000012
 33
0.0
 14
42.172749010300002
 24
56.579238358000012
 34
0.0
  0
DIMENSION
  5
305
  8
0
  6
CONTINUOUS
 62
     4
  2
*D16
 10
146.6363880854
 20
135.69027364230001
 30
0.0
 11
165.1755933263
 21
154.454238358
 31
0.0
 70
   131
  1
<>
 15
144.10731895169999
 25
131.9682030738
 35
0.0
 40
0.0
  0
LINE
  5
306
  8
0
  6
CONTINUOUS
 62
     7
 10
168.73577539659999
 20
204.54276911299999
 30
0.0
 11
291.73577539659999
 21
204.54276911299999
 31
0.0
  0
LINE
  5
307
  8
0
  6
CONTINUOUS
 62
     7
 10
168.73577539659999
 20
204.54276911299999
 30
0.0
 11
168.73577539659999
 21
184.54276911299999
 31
0.0
  0
LINE
  5
308
  8
0
  6
CONTINUOUS
 62
     7
 10
168.73577539659999
 20
199.54276911299999
 30
0.0
 11
291.73577539659999
 21
199.54276911299999
 31
0.0
  0
LINE
  5
309
  8
0
  6
CONTINUOUS
 62
     7
 10
168.73577539659999
 20
194.54276911299999
 30
0.0
 11
291.73577539659999
 21
194.54276911299999
 31
0.0
  0
LINE
  5
30A
  8
0
  6
CONTINUOUS
 62
     7
 10
168.73577539659999
 20
189.54276911299999
 30
0.0
 11
291.73577539659999
 21
189.54276911299999
 31
0.0
  0
LINE
  5
30B
  8
0
  6
CONTINUOUS
 62
     7
 10
168.73577539659999
 20
184.54276911299999
 30
0.0
 11
291.73577539659999
 21
184.54276911299999
 31
0.0
  0
LINE
  5
30C
  8
0
  6
CONTINUOUS
 62
     7
 10
178.73577539659999
 20
204.54276911299999
 30
0.0
 11
178.73577539659999
 21
184.54276911299999
 31
0.0
  0
LINE
  5
30D
  8
0
  6
CONTINUOUS
 62
     7
 10
193.73577539659999
 20
204.54276911299999
 30
0.0
 11
193.73577539659999
 21
184.54276911299999
 31
0.0
  0
LINE
  5
30E
  8
0
  6
CONTINUOUS
 62
     7
 10
243.73577539659999
 20
204.54276911299999
 30
0.0
 11
243.73577539659999
 21
184.54276911299999
 31
0.0
  0
LINE
  5
30F
  8
0
  6
CONTINUOUS
 62
     7
 10
259.73577539659999
 20
204.54276911299999
 30
0.0
 11
259.73577539659999
 21
184.54276911299999
 31
0.0
  0
LINE
  5
310
  8
0
  6
CONTINUOUS
 62
     7
 10
275.73577539659999
 20
204.54276911299999
 30
0.0
 11
275.73577539659999
 21
184.54276911299999
 31
0.0
  0
LINE
  5
311
  8
0
  6
CONTINUOUS
 62
     7
 10
291.73577539659999
 20
204.54276911299999
 30
0.0
 11
291.73577539659999
 21
184.54276911299999
 31
0.0
  0
TEXT
  5
312
  8
0
  6
CONTINUOUS
 62
     7
 10
171.56183269537209
 20
201.04276911299999
 30
0.0
 40
2.0
  1
No.
  7
TEXTSTYLE_1
 72
     1
 11
173.73577539659999
 21
201.04276911299999
 31
0.0
  0
TEXT
  5
313
  8
0
  6
CONTINUOUS
 62
     7
 10
183.2848886298878
 20
201.04276911299999
 30
0.0
 40
2.0
  1
Date
  7
TEXTSTYLE_1
 72
     1
 11
186.23577539659999
 21
201.04276911299999
 31
0.0
  0
TEXT
  5
314
  8
0
  6
CONTINUOUS
 62
     7
 10
211.74805370492189
 20
201.04276911299999
 30
0.0
 40
2.0
  1
Description
  7
TEXTSTYLE_1
 72
     1
 11
218.73577539659999
 21
201.04276911299999
 31
0.0
  0
TEXT
  5
315
  8
0
  6
CONTINUOUS
 62
     7
 10
247.3872078659042
 20
201.04276911299999
 30
0.0
 40
2.0
  1
Design
  7
TEXTSTYLE_1
 72
     1
 11
251.73577539659999
 21
201.04276911299999
 31
0.0
  0
TEXT
  5
316
  8
0
  6
CONTINUOUS
 62
     7
 10
263.77602096276638
 20
201.04276911299999
 30
0.0
 40
2.0
  1
Check
  7
TEXTSTYLE_1
 72
     1
 11
267.73577539659999
 21
201.04276911299999
 31
0.0
  0
TEXT
  5
317
  8
0
  6
CONTINUOUS
 62
     7
 10
278.22417921651811
 20
201.04276911299999
 30
0.0
 40
2.0
  1
Approval
  7
TEXTSTYLE_1
 72
     1
 11
283.73577539659999
 21
201.04276911299999
 31
0.0
  0
TEXT
  5
318
  8
0
  6
CONTINUOUS
 62
     7
 10
172.95883133111559
 20
196.04276911299999
 30
0.0
 40
2.0
  1
1
  7
TEXTSTYLE_1
 72
     1
 11
173.73577539659999
 21
196.04276911299999
 31
0.0
  0
TEXT
  5
319
  8
0
  6
CONTINUOUS
 62
     7
 10
179.94314238159311
 20
196.14276911300001
 30
0.0
 40
1.8
  1
03/26/2014
 72
     1
 11
186.23577539659999
 21
196.14276911300001
 31
0.0
  0
TEXT
  5
31A
  8
0
  6
CONTINUOUS
 62
     7
 10
208.25623924380321
 20
196.04276911299999
 30
0.0
 40
2.0
  1
INITIAL DESIGN
  7
TEXTSTYLE_1
 72
     1
 11
218.73577539659999
 21
196.04276911299999
 31
0.0
  0
TEXT
  5
31B
  8
0
  6
CONTINUOUS
 62
     7
 10
248.70644388227529
 20
196.04276911299999
 30
0.0
 40
2.0
  1
Lyon
  7
TEXTSTYLE_1
 72
     1
 11
251.73577539659999
 21
196.04276911299999
 31
0.0
  0
TEXT
  5
31C
  8
0
  6
CONTINUOUS
 62
     7
 10
267.25061168582238
 20
195.79276911299999
 30
0.0
 40
2.5
  1
 
  7
TEXTSTYLE_1
 72
     1
 11
267.73577539659999
 21
195.79276911299999
 31
0.0
  0
TEXT
  5
31D
  8
0
  6
CONTINUOUS
 62
     7
 10
283.34764442797791
 20
196.04276911299999
 30
0.0
 40
2.0
  1
 
  7
TEXTSTYLE_1
 72
     1
 11
283.73577539659999
 21
196.04276911299999
 31
0.0
  0
TEXT
  5
31E
  8
0
  6
CONTINUOUS
 62
     7
 10
172.95883133111559
 20
191.04276911299999
 30
0.0
 40
2.0
  1
2
  7
TEXTSTYLE_1
 72
     1
 11
173.73577539659999
 21
191.04276911299999
 31
0.0
  0
TEXT
  5
31F
  8
0
  6
CONTINUOUS
 62
     7
 10
185.8864575248401
 20
191.14276911300001
 30
0.0
 40
1.8
  1
 
  7
TEXTSTYLE_1
 72
     1
 11
186.23577539659999
 21
191.14276911300001
 31
0.0
  0
TEXT
  5
320
  8
0
  6
CONTINUOUS
 62
     7
 10
218.34764442797791
 20
191.04276911299999
 30
0.0
 40
2.0
  1
 
  7
TEXTSTYLE_1
 72
     1
 11
218.73577539659999
 21
191.04276911299999
 31
0.0
  0
TEXT
  5
321
  8
0
  6
CONTINUOUS
 62
     7
 10
251.34764442797791
 20
191.04276911299999
 30
0.0
 40
2.0
  1
 
  7
TEXTSTYLE_1
 72
     1
 11
251.73577539659999
 21
191.04276911299999
 31
0.0
  0
TEXT
  5
322
  8
0
  6
CONTINUOUS
 62
     7
 10
267.34764442797791
 20
191.04276911299999
 30
0.0
 40
2.0
  1
 
  7
TEXTSTYLE_1
 72
     1
 11
267.73577539659999
 21
191.04276911299999
 31
0.0
  0
TEXT
  5
323
  8
0
  6
CONTINUOUS
 62
     7
 10
283.34764442797791
 20
191.04276911299999
 30
0.0
 40
2.0
  1
 
  7
TEXTSTYLE_1
 72
     1
 11
283.73577539659999
 21
191.04276911299999
 31
0.0
  0
TEXT
  5
324
  8
0
  6
CONTINUOUS
 62
     7
 10
172.95883133111559
 20
186.04276911299999
 30
0.0
 40
2.0
  1
3
  7
TEXTSTYLE_1
 72
     1
 11
173.73577539659999
 21
186.04276911299999
 31
0.0
  0
TEXT
  5
325
  8
0
  6
CONTINUOUS
 62
     7
 10
185.8864575248401
 20
186.14276911300001
 30
0.0
 40
1.8
  1
 
  7
TEXTSTYLE_1
 72
     1
 11
186.23577539659999
 21
186.14276911300001
 31
0.0
  0
TEXT
  5
326
  8
0
  6
CONTINUOUS
 62
     7
 10
218.34764442797791
 20
186.04276911299999
 30
0.0
 40
2.0
  1
 
  7
TEXTSTYLE_1
 72
     1
 11
218.73577539659999
 21
186.04276911299999
 31
0.0
  0
TEXT
  5
327
  8
0
  6
CONTINUOUS
 62
     7
 10
251.34764442797791
 20
186.04276911299999
 30
0.0
 40
2.0
  1
 
  7
TEXTSTYLE_1
 72
     1
 11
251.73577539659999
 21
186.04276911299999
 31
0.0
  0
TEXT
  5
328
  8
0
  6
CONTINUOUS
 62
     7
 10
267.34764442797791
 20
186.04276911299999
 30
0.0
 40
2.0
  1
 
  7
TEXTSTYLE_1
 72
     1
 11
267.73577539659999
 21
186.04276911299999
 31
0.0
  0
TEXT
  5
329
  8
0
  6
CONTINUOUS
 62
     7
 10
283.34764442797791
 20
186.04276911299999
 30
0.0
 40
2.0
  1
 
  7
TEXTSTYLE_1
 72
     1
 11
283.73577539659999
 21
186.04276911299999
 31
0.0
  0
LINE
  5
32A
  8
0
  6
CONTINUOUS
 62
     7
 10
191.19344883619999
 20
29.823156997400002
 30
0.0
 11
200.94344883619999
 21
29.823156997400002
 31
0.0
  0
LINE
  5
32B
  8
0
  6
CONTINUOUS
 62
     7
 10
191.19344883619999
 20
29.823156997400002
 30
0.0
 11
191.19344883619999
 21
26.323156997400002
 31
0.0
  0
LINE
  5
32C
  8
0
  6
CONTINUOUS
 62
     7
 10
191.19344883619999
 20
26.323156997400002
 30
0.0
 11
200.94344883619999
 21
26.323156997400002
 31
0.0
  0
LINE
  5
32D
  8
0
  6
CONTINUOUS
 62
     7
 10
200.94344883619999
 20
29.823156997400002
 30
0.0
 11
200.94344883619999
 21
26.323156997400002
 31
0.0
  0
TEXT
  5
32E
  8
0
  6
CONTINUOUS
 62
     7
 10
195.43949249240731
 20
27.398156997400001
 30
0.0
 40
1.3500000000000001
  1
K
 72
     1
 11
196.06844883619999
 21
27.398156997400001
 31
0.0
  0
LINE
  5
32F
  8
0
  6
CONTINUOUS
 62
     7
 10
210.72307187589999
 20
29.808197105000001
 30
0.0
 11
220.47307187589999
 21
29.808197105000001
 31
0.0
  0
LINE
  5
330
  8
0
  6
CONTINUOUS
 62
     7
 10
210.72307187589999
 20
29.808197105000001
 30
0.0
 11
210.72307187589999
 21
26.308197105000001
 31
0.0
  0
LINE
  5
331
  8
0
  6
CONTINUOUS
 62
     7
 10
210.72307187589999
 20
26.308197105000001
 30
0.0
 11
220.47307187589999
 21
26.308197105000001
 31
0.0
  0
LINE
  5
332
  8
0
  6
CONTINUOUS
 62
     7
 10
220.47307187589999
 20
29.808197105000001
 30
0.0
 11
220.47307187589999
 21
26.308197105000001
 31
0.0
  0
TEXT
  5
333
  8
0
  6
CONTINUOUS
 62
     7
 10
213.39258074356709
 20
27.383197105000001
 30
0.0
 40
1.3500000000000001
  1
%%p0.5%%d
  7
TEXTSTYLE_1
 72
     1
 11
215.59807187589999
 21
27.383197105000001
 31
0.0
  0
LINE
  5
334
  8
0
  6
CONTINUOUS
 62
     7
 10
230.47993029259999
 20
26.347419884800001
 30
0.0
 11
243.7799302926
 21
26.347419884800001
 31
0.0
  0
LINE
  5
335
  8
0
  6
CONTINUOUS
 62
     7
 10
230.47993029259999
 20
26.347419884800001
 30
0.0
 11
230.47993029259999
 21
8.8474198848000007
 31
0.0
  0
LINE
  5
336
  8
0
  6
CONTINUOUS
 62
     7
 10
230.47993029259999
 20
22.847419884800001
 30
0.0
 11
243.7799302926
 21
22.847419884800001
 31
0.0
  0
LINE
  5
337
  8
0
  6
CONTINUOUS
 62
     7
 10
230.47993029259999
 20
19.347419884800001
 30
0.0
 11
243.7799302926
 21
19.347419884800001
 31
0.0
  0
LINE
  5
338
  8
0
  6
CONTINUOUS
 62
     7
 10
230.47993029259999
 20
15.847419884800001
 30
0.0
 11
243.7799302926
 21
15.847419884800001
 31
0.0
  0
LINE
  5
339
  8
0
  6
CONTINUOUS
 62
     7
 10
230.47993029259999
 20
12.347419884800001
 30
0.0
 11
243.7799302926
 21
12.347419884800001
 31
0.0
  0
LINE
  5
33A
  8
0
  6
CONTINUOUS
 62
     7
 10
230.47993029259999
 20
8.8474198848000007
 30
0.0
 11
243.7799302926
 21
8.8474198848000007
 31
0.0
  0
LINE
  5
33B
  8
0
  6
CONTINUOUS
 62
     7
 10
243.7799302926
 20
26.347419884800001
 30
0.0
 11
243.7799302926
 21
8.8474198848000007
 31
0.0
  0
TEXT
  5
33C
  8
0
  6
CONTINUOUS
 62
     7
 10
234.82314311661091
 20
23.9224198848
 30
0.0
 40
1.3500000000000001
  1
Lyon 
  7
TEXTSTYLE_1
 72
     1
 11
237.12993029259999
 21
23.9224198848
 31
0.0
  0
TEXT
  8
0
  40
1.35
  5
588
  62
7
  72
0
  71
0
 10
237.130
 20
20.0174
 30
0.000000
  1
  
  7
TEXTSTYLE_1
  0
TEXT
  8
0
  40
1.35
  5
589
  62
7
  72
0
  71
0
 10
237.130
 20
16.5174
 30
0.000000
  1
  
  7
TEXTSTYLE_1
  0
TEXT
  8
0
  40
1.35
  5
58A
  62
7
  72
0
  71
0
 10
237.130
 20
13.0174
 30
0.000000
  1
  
  7
TEXTSTYLE_1
  0
TEXT
  5
340
  8
0
  6
CONTINUOUS
 62
     7
 10
235.2960114658606
 20
9.9224198848
 30
0.0
 40
1.3500000000000001
  1
N/A 
  7
TEXTSTYLE_1
 72
     1
 11
237.12993029259999
 21
9.9224198848
 31
0.0
  0
LINE
  5
341
  8
0
  6
CONTINUOUS
 62
     7
 10
255.76499136710001
 20
12.345039098999999
 30
0.0
 11
267.76499136709998
 21
12.345039098999999
 31
0.0
  0
LINE
  5
342
  8
0
  6
CONTINUOUS
 62
     7
 10
255.76499136710001
 20
12.345039098999999
 30
0.0
 11
255.76499136710001
 21
5.3450390990000001
 31
0.0
  0
LINE
  5
343
  8
0
  6
CONTINUOUS
 62
     7
 10
255.76499136710001
 20
8.8450390989999992
 30
0.0
 11
267.76499136709998
 21
8.8450390989999992
 31
0.0
  0
LINE
  5
344
  8
0
  6
CONTINUOUS
 62
     7
 10
255.76499136710001
 20
5.3450390990000001
 30
0.0
 11
267.76499136709998
 21
5.3450390990000001
 31
0.0
  0
LINE
  5
345
  8
0
  6
CONTINUOUS
 62
     7
 10
267.76499136709998
 20
12.345039098999999
 30
0.0
 11
267.76499136709998
 21
5.3450390990000001
 31
0.0
  0
TEXT
  5
346
  8
0
  6
CONTINUOUS
 62
     7
 10
257.04551660584491
 20
9.9200390990000002
 30
0.0
 40
1.3500000000000001
  1
03/26/2014
 72
     1
 11
261.76499136709998
 21
9.9200390990000002
 31
0.0
  0
TEXT
  5
347
  8
0
  6
CONTINUOUS
 62
     7
 10
259.40525398647242
 20
6.4200390989999976
 30
0.0
 40
1.3500000000000001
  1
5.000
  7
TEXTSTYLE_1
 72
     1
 11
261.76499136709998
 21
6.4200390989999976
 31
0.0
  0
LINE
  5
348
  8
0
  6
CONTINUOUS
 62
     7
 10
255.73868789799999
 20
15.845864472000001
 30
0.0
 11
291.73868789800002
 21
15.845864472000001
 31
0.0
  0
LINE
  5
349
  8
0
  6
CONTINUOUS
 62
     7
 10
255.73868789799999
 20
15.845864472000001
 30
0.0
 11
255.73868789799999
 21
12.345864472000001
 31
0.0
  0
LINE
  5
34A
  8
0
  6
CONTINUOUS
 62
     7
 10
255.73868789799999
 20
12.345864472000001
 30
0.0
 11
291.73868789800002
 21
12.345864472000001
 31
0.0
  0
LINE
  5
34B
  8
0
  6
CONTINUOUS
 62
     7
 10
291.73868789800002
 20
15.845864472000001
 30
0.0
 11
291.73868789800002
 21
12.345864472000001
 31
0.0
  0
TEXT
  8
0
  40
1.35
  5
58B
  62
7
  72
0
  71
0
 10
273.739
 20
13.0159
 30
0.000000
  1
  
  7
TEXTSTYLE_1
  0
LINE
  5
34D
  8
0
  6
CONTINUOUS
 62
     7
 10
255.72093907659999
 20
21.0929805329
 30
0.0
 11
291.72093907660002
 21
21.0929805329
 31
0.0
  0
LINE
  5
34E
  8
0
  6
CONTINUOUS
 62
     7
 10
255.72093907659999
 20
21.0929805329
 30
0.0
 11
255.72093907659999
 21
15.8729805329
 31
0.0
  0
LINE
  5
34F
  8
0
  6
CONTINUOUS
 62
     7
 10
255.72093907659999
 20
15.8729805329
 30
0.0
 11
291.72093907660002
 21
15.8729805329
 31
0.0
  0
LINE
  5
350
  8
0
  6
CONTINUOUS
 62
     7
 10
291.72093907660002
 20
21.0929805329
 30
0.0
 11
291.72093907660002
 21
15.8729805329
 31
0.0
  0
TEXT
  8
0
  40
1.5
  5
58C
  62
7
  72
0
  71
0
 10
273.721
 20
17.2830
 30
0.000000
  1
  
  7
TEXTSTYLE_1
  0
LINE
  5
352
  8
0
  6
CONTINUOUS
 62
     7
 10
256.18440513479999
 20
25.897687348600002
 30
0.0
 11
291.28440513480001
 21
25.897687348600002
 31
0.0
  0
LINE
  5
353
  8
0
  6
CONTINUOUS
 62
     7
 10
256.18440513479999
 20
25.897687348600002
 30
0.0
 11
256.18440513479999
 21
21.5476873486
 31
0.0
  0
LINE
  5
354
  8
0
  6
CONTINUOUS
 62
     7
 10
256.18440513479999
 20
21.5476873486
 30
0.0
 11
291.28440513480001
 21
21.5476873486
 31
0.0
  0
LINE
  5
355
  8
0
  6
CONTINUOUS
 62
     7
 10
291.28440513480001
 20
25.897687348600002
 30
0.0
 11
291.28440513480001
 21
21.5476873486
 31
0.0
  0
TEXT
  5
356
  8
0
  6
CONTINUOUS
 62
     7
 10
267.56404360683268
 20
22.972687348600001
 30
0.0
 40
1.5
  1
RF MODULE
 72
     1
 11
273.7344051348
 21
22.972687348600001
 31
0.0
  0
LINE
  5
357
  8
0
  6
CONTINUOUS
 62
     7
 10
279.71776170909999
 20
12.306731816599999
 30
0.0
 11
291.71776170909999
 21
12.306731816599999
 31
0.0
  0
LINE
  5
358
  8
0
  6
CONTINUOUS
 62
     7
 10
279.71776170909999
 20
12.306731816599999
 30
0.0
 11
279.71776170909999
 21
5.3067318166000002
 31
0.0
  0
LINE
  5
359
  8
0
  6
CONTINUOUS
 62
     7
 10
279.71776170909999
 20
8.8067318165999993
 30
0.0
 11
291.71776170909999
 21
8.8067318165999993
 31
0.0
  0
LINE
  5
35A
  8
0
  6
CONTINUOUS
 62
     7
 10
279.71776170909999
 20
5.3067318166000002
 30
0.0
 11
291.71776170909999
 21
5.3067318166000002
 31
0.0
  0
LINE
  5
35B
  8
0
  6
CONTINUOUS
 62
     7
 10
291.71776170909999
 20
12.306731816599999
 30
0.0
 11
291.71776170909999
 21
5.3067318166000002
 31
0.0
  0
TEXT
  5
35C
  8
0
  6
CONTINUOUS
 62
     7
 10
283.25442610200588
 20
9.8817318166000003
 30
0.0
 40
1.3500000000000001
  1
Rev.1
  7
TEXTSTYLE_1
 72
     1
 11
285.71776170909999
 21
9.8817318166000003
 31
0.0
  0
TEXT
  5
35D
  8
0
  6
CONTINUOUS
 62
     7
 10
284.40689881687632
 20
6.3817318165999977
 30
0.0
 40
1.3500000000000001
  1
1/1
  7
TEXTSTYLE_1
 72
     1
 11
285.71776170909999
 21
6.3817318165999977
 31
0.0
  0
INSERT
  5
35E
  8
0
  2
*U17
 10
0.0
 20
0.0
 30
0.0
  0
LINE
  5
35F
  8
0
  6
CONTINUOUS
 62
     7
 10
0.0
 20
0.0
 30
0.0
 11
0.0
 21
210.0
 31
0.0
  0
POLYLINE
  5
360
  8
0
  6
CONTINUOUS
 62
     7
 66
     1
 10
0.0
 20
0.0
 30
0.0
 40
0.2000000079
 41
0.2000000079
  0
VERTEX
  5
50A
  8
0
  6
CONTINUOUS
 62
     7
 10
5.2660619999999998
 20
5.3480769999999991
 30
0.0
  0
VERTEX
  5
50B
  8
0
  6
CONTINUOUS
 62
     7
 10
5.2660619999999998
 20
204.55846199999999
 30
0.0
  0
SEQEND
  5
50C
  8
0
  6
CONTINUOUS
 62
     7
  0
LINE
  5
361
  8
0
  6
CONTINUOUS
 62
     7
 10
0.0
 20
0.0
 30
0.0
 11
297.0
 21
0.0
 31
0.0
  0
LINE
  5
362
  8
0
  6
CONTINUOUS
 62
     7
 10
255.75572545520001
 20
5.325359378199999
 30
0.0
 11
291.75572545519998
 21
5.325359378199999
 31
0.0
  0
LINE
  5
363
  8
0
  6
CONTINUOUS
 62
     7
 10
230.44112363630001
 20
5.3436983209999998
 30
0.0
 11
243.74112363629999
 21
5.3436983209999998
 31
0.0
  0
POLYLINE
  5
364
  8
0
  6
CONTINUOUS
 62
     7
 66
     1
 10
0.0
 20
0.0
 30
0.0
 40
0.2000000079
 41
0.2000000079
  0
VERTEX
  5
50D
  8
0
  6
CONTINUOUS
 62
     7
 10
291.73393900000002
 20
5.3480769999999991
 30
0.0
  0
VERTEX
  5
50E
  8
0
  6
CONTINUOUS
 62
     7
 10
5.2660619999999998
 20
5.3480769999999991
 30
0.0
  0
SEQEND
  5
50F
  8
0
  6
CONTINUOUS
 62
     7
  0
LINE
  5
365
  8
0
  6
CONTINUOUS
 62
     7
 10
255.75572545520001
 20
8.8253593781999982
 30
0.0
 11
291.75572545519998
 21
8.8253593781999982
 31
0.0
  0
LINE
  5
366
  8
0
  6
CONTINUOUS
 62
     7
 10
230.44112363630001
 20
8.8436983209999962
 30
0.0
 11
243.74112363629999
 21
8.8436983209999962
 31
0.0
  0
POLYLINE
  5
367
  8
0
  6
CONTINUOUS
 62
     7
 66
     1
 10
0.0
 20
0.0
 30
0.0
 40
0.1499999927
 41
0.1499999927
  0
VERTEX
  5
510
  8
0
  6
CONTINUOUS
 62
     7
 10
291.73393900000002
 20
8.8480769999999982
 30
0.0
  0
VERTEX
  5
511
  8
0
  6
CONTINUOUS
 62
     7
 10
179.43393900000001
 20
8.8480769999999982
 30
0.0
  0
SEQEND
  5
512
  8
0
  6
CONTINUOUS
 62
     7
  0
LINE
  5
368
  8
0
  6
CONTINUOUS
 62
     7
 10
255.75572545520001
 20
12.3253593782
 30
0.0
 11
291.75572545519998
 21
12.3253593782
 31
0.0
  0
LINE
  5
369
  8
0
  6
CONTINUOUS
 62
     7
 10
230.44112363630001
 20
12.343698321
 30
0.0
 11
243.74112363629999
 21
12.343698321
 31
0.0
  0
POLYLINE
  5
36A
  8
0
  6
CONTINUOUS
 62
     7
 66
     1
 10
0.0
 20
0.0
 30
0.0
 40
0.1499999927
 41
0.1499999927
  0
VERTEX
  5
513
  8
0
  6
CONTINUOUS
 62
     7
 10
179.43393900000001
 20
12.348077
 30
0.0
  0
VERTEX
  5
514
  8
0
  6
CONTINUOUS
 62
     7
 10
291.73393900000002
 20
12.348077
 30
0.0
  0
SEQEND
  5
515
  8
0
  6
CONTINUOUS
 62
     7
  0
LINE
  5
36B
  8
0
  6
CONTINUOUS
 62
     7
 10
62.826923000000001
 20
5.1923079999999997
 30
0.0
 11
62.826923000000001
 21
0.0
 31
0.0
  0
LINE
  5
36C
  8
0
  6
CONTINUOUS
 62
     7
 10
62.826923000000001
 20
204.55846199999999
 30
0.0
 11
62.826923000000001
 21
209.75076999999999
 31
0.0
  0
LINE
  5
36D
  8
0
  6
CONTINUOUS
 62
     7
 10
211.82332999999991
 20
31.98067
 30
0.0
 11
215.54218700000001
 21
32.610016000000002
 31
0.0
  0
LINE
  5
36E
  8
0
  6
CONTINUOUS
 62
     7
 10
255.75572545520001
 20
15.8253593782
 30
0.0
 11
291.75572545519998
 21
15.8253593782
 31
0.0
  0
LINE
  5
36F
  8
0
  6
CONTINUOUS
 62
     7
 10
230.44112363630001
 20
15.843698321
 30
0.0
 11
243.74112363629999
 21
15.843698321
 31
0.0
  0
POLYLINE
  5
370
  8
0
  6
CONTINUOUS
 62
     7
 66
     1
 10
0.0
 20
0.0
 30
0.0
 40
0.1499999927
 41
0.1499999927
  0
VERTEX
  5
516
  8
0
  6
CONTINUOUS
 62
     7
 10
179.43393900000001
 20
15.848076999999989
 30
0.0
  0
VERTEX
  5
517
  8
0
  6
CONTINUOUS
 62
     7
 10
291.73393900000002
 20
15.848076999999989
 30
0.0
  0
SEQEND
  5
518
  8
0
  6
CONTINUOUS
 62
     7
  0
LINE
  5
371
  8
0
  6
CONTINUOUS
 62
     7
 10
230.44112363630001
 20
19.343698320999991
 30
0.0
 11
243.74112363629999
 21
19.343698320999991
 31
0.0
  0
POLYLINE
  5
372
  8
0
  6
CONTINUOUS
 62
     7
 66
     1
 10
0.0
 20
0.0
 30
0.0
 40
0.1499999927
 41
0.1499999927
  0
VERTEX
  5
519
  8
0
  6
CONTINUOUS
 62
     7
 10
179.43393900000001
 20
19.348077
 30
0.0
  0
VERTEX
  5
51A
  8
0
  6
CONTINUOUS
 62
     7
 10
243.73393899999999
 20
19.348077
 30
0.0
  0
SEQEND
  5
51B
  8
0
  6
CONTINUOUS
 62
     7
  0
LINE
  5
373
  8
0
  6
CONTINUOUS
 62
     7
 10
255.75572545520001
 20
21.075359378200002
 30
0.0
 11
291.75572545519998
 21
21.075359378200002
 31
0.0
  0
POLYLINE
  5
374
  8
0
  6
CONTINUOUS
 62
     7
 66
     1
 10
0.0
 20
0.0
 30
0.0
 40
0.1499999927
 41
0.1499999927
  0
VERTEX
  5
51C
  8
0
  6
CONTINUOUS
 62
     7
 10
243.73393899999999
 20
21.098077
 30
0.0
  0
VERTEX
  5
51D
  8
0
  6
CONTINUOUS
 62
     7
 10
291.73393900000002
 20
21.098077
 30
0.0
  0
SEQEND
  5
51E
  8
0
  6
CONTINUOUS
 62
     7
  0
LINE
  5
375
  8
0
  6
CONTINUOUS
 62
     7
 10
256.18393900000001
 20
21.548076999999999
 30
0.0
 11
291.28393899999998
 21
21.548076999999999
 31
0.0
  0
LINE
  5
376
  8
0
  6
CONTINUOUS
 62
     7
 10
230.44112363630001
 20
22.843698321000002
 30
0.0
 11
243.74112363629999
 21
22.843698321000002
 31
0.0
  0
POLYLINE
  5
377
  8
0
  6
CONTINUOUS
 62
     7
 66
     1
 10
0.0
 20
0.0
 30
0.0
 40
0.1499999927
 41
0.1499999927
  0
VERTEX
  5
51F
  8
0
  6
CONTINUOUS
 62
     7
 10
179.43393900000001
 20
22.848077
 30
0.0
  0
VERTEX
  5
520
  8
0
  6
CONTINUOUS
 62
     7
 10
243.73393899999999
 20
22.848077
 30
0.0
  0
SEQEND
  5
521
  8
0
  6
CONTINUOUS
 62
     7
  0
LINE
  5
378
  8
0
  6
CONTINUOUS
 62
     7
 10
291.28393899999998
 20
25.898077000000001
 30
0.0
 11
256.18393900000001
 21
25.898077000000001
 31
0.0
  0
LINE
  5
379
  8
0
  6
CONTINUOUS
 62
     7
 10
255.75572545520001
 20
26.325359378200002
 30
0.0
 11
291.75572545519998
 21
26.325359378200002
 31
0.0
  0
LINE
  5
37A
  8
0
  6
CONTINUOUS
 62
     7
 10
191.189636476
 20
26.3266475452
 30
0.0
 11
220.439636476
 21
26.3266475452
 31
0.0
  0
LINE
  5
37B
  8
0
  6
CONTINUOUS
 62
     7
 10
230.44112363630001
 20
26.343698321000002
 30
0.0
 11
243.74112363629999
 21
26.343698321000002
 31
0.0
  0
POLYLINE
  5
37C
  8
0
  6
CONTINUOUS
 62
     7
 66
     1
 10
0.0
 20
0.0
 30
0.0
 40
0.1499999927
 41
0.1499999927
  0
VERTEX
  5
522
  8
0
  6
CONTINUOUS
 62
     7
 10
179.43393900000001
 20
26.348077
 30
0.0
  0
VERTEX
  5
523
  8
0
  6
CONTINUOUS
 62
     7
 10
291.73393900000002
 20
26.348077
 30
0.0
  0
SEQEND
  5
524
  8
0
  6
CONTINUOUS
 62
     7
  0
LINE
  5
37D
  8
0
  6
CONTINUOUS
 62
     7
 10
191.189636476
 20
29.8266475452
 30
0.0
 11
220.439636476
 21
29.8266475452
 31
0.0
  0
POLYLINE
  5
37E
  8
0
  6
CONTINUOUS
 62
     7
 66
     1
 10
0.0
 20
0.0
 30
0.0
 40
0.1499999927
 41
0.1499999927
  0
VERTEX
  5
525
  8
0
  6
CONTINUOUS
 62
     7
 10
179.43393900000001
 20
29.848077000000011
 30
0.0
  0
VERTEX
  5
526
  8
0
  6
CONTINUOUS
 62
     7
 10
220.429844
 20
29.848077000000011
 30
0.0
  0
SEQEND
  5
527
  8
0
  6
CONTINUOUS
 62
     7
  0
LINE
  5
37F
  8
DEFAULT_1
  6
CENTER
 62
     7
 10
205.508456
 20
31.694604999999999
 30
0.0
 11
208.32851600000001
 21
31.694604999999999
 31
0.0
  0
LINE
  5
380
  8
DEFAULT_1
  6
CENTER
 62
     7
 10
211.30540300000001
 20
31.694604999999999
 30
0.0
 11
215.91067899999999
 21
31.694604999999999
 31
0.0
  0
POLYLINE
  5
381
  8
0
  6
CONTINUOUS
 62
     7
 66
     1
 10
0.0
 20
0.0
 30
0.0
 40
0.1499999927
 41
0.1499999927
  0
VERTEX
  5
528
  8
0
  6
CONTINUOUS
 62
     7
 10
179.43393900000001
 20
33.348077000000011
 30
0.0
  0
VERTEX
  5
529
  8
0
  6
CONTINUOUS
 62
     7
 10
291.73393900000002
 20
33.348077000000011
 30
0.0
  0
SEQEND
  5
52A
  8
0
  6
CONTINUOUS
 62
     7
  0
LINE
  5
382
  8
0
  6
CONTINUOUS
 62
     7
 10
211.82332999999991
 20
31.408539000000001
 30
0.0
 11
215.54218700000001
 21
30.779194
 31
0.0
  0
LINE
  5
383
  8
0
  6
CONTINUOUS
 62
     7
 10
5.2660619999999998
 20
55.451627999999992
 30
0.0
 11
0.0
 21
55.451627999999992
 31
0.0
  0
LINE
  5
384
  8
0
  6
CONTINUOUS
 62
     7
 10
291.73393900000002
 20
55.451627999999992
 30
0.0
 11
297.0
 21
55.451627999999992
 31
0.0
  0
LINE
  5
385
  8
0
  6
CONTINUOUS
 62
     7
 10
119.942308
 20
5.1923079999999997
 30
0.0
 11
119.942308
 21
0.0
 31
0.0
  0
LINE
  5
386
  8
0
  6
CONTINUOUS
 62
     7
 10
119.942308
 20
204.55846199999999
 30
0.0
 11
119.942308
 21
209.75076999999999
 31
0.0
  0
LINE
  5
387
  8
0
  6
CONTINUOUS
 62
     7
 10
5.2660619999999998
 20
104.952606
 30
0.0
 11
0.0
 21
104.952606
 31
0.0
  0
LINE
  5
388
  8
0
  6
CONTINUOUS
 62
     7
 10
291.73393900000002
 20
104.952606
 30
0.0
 11
297.0
 21
104.952606
 31
0.0
  0
LINE
  5
389
  8
0
  6
CONTINUOUS
 62
     7
 10
177.057693
 20
5.1923079999999997
 30
0.0
 11
177.057693
 21
0.0
 31
0.0
  0
POLYLINE
  5
38A
  8
0
  6
CONTINUOUS
 62
     7
 66
     1
 10
0.0
 20
0.0
 30
0.0
 40
0.1499999927
 41
0.1499999927
  0
VERTEX
  5
52B
  8
0
  6
CONTINUOUS
 62
     7
 10
179.43393900000001
 20
5.3480769999999991
 30
0.0
  0
VERTEX
  5
52C
  8
0
  6
CONTINUOUS
 62
     7
 10
179.43393900000001
 20
33.348077000000011
 30
0.0
  0
SEQEND
  5
52D
  8
0
  6
CONTINUOUS
 62
     7
  0
POLYLINE
  5
38B
  8
0
  6
CONTINUOUS
 62
     7
 66
     1
 10
0.0
 20
0.0
 30
0.0
 40
0.1499999927
 41
0.1499999927
  0
VERTEX
  5
52E
  8
0
  6
CONTINUOUS
 62
     7
 10
190.43393900000001
 20
5.3480769999999991
 30
0.0
  0
VERTEX
  5
52F
  8
0
  6
CONTINUOUS
 62
     7
 10
190.43393900000001
 20
26.348077
 30
0.0
  0
SEQEND
  5
530
  8
0
  6
CONTINUOUS
 62
     7
  0
POLYLINE
  5
38C
  8
0
  6
CONTINUOUS
 62
     7
 66
     1
 10
0.0
 20
0.0
 30
0.0
 40
0.1499999927
 41
0.1499999927
  0
VERTEX
  5
531
  8
0
  6
CONTINUOUS
 62
     7
 10
191.18393900000001
 20
26.348077
 30
0.0
  0
VERTEX
  5
532
  8
0
  6
CONTINUOUS
 62
     7
 10
191.18393900000001
 20
29.848077000000011
 30
0.0
  0
SEQEND
  5
533
  8
0
  6
CONTINUOUS
 62
     7
  0
LINE
  5
38D
  8
0
  6
CONTINUOUS
 62
     7
 10
191.189636476
 20
29.8266475452
 30
0.0
 11
191.189636476
 21
26.3266475452
 31
0.0
  0
POLYLINE
  5
38E
  8
0
  6
CONTINUOUS
 62
     7
 66
     1
 10
0.0
 20
0.0
 30
0.0
 40
0.1499999927
 41
0.1499999927
  0
VERTEX
  5
534
  8
0
  6
CONTINUOUS
 62
     7
 10
196.43393900000001
 20
26.348077
 30
0.0
  0
VERTEX
  5
535
  8
0
  6
CONTINUOUS
 62
     7
 10
196.43393900000001
 20
5.3480769999999991
 30
0.0
  0
SEQEND
  5
536
  8
0
  6
CONTINUOUS
 62
     7
  0
POLYLINE
  5
38F
  8
0
  6
CONTINUOUS
 62
     7
 66
     1
 10
0.0
 20
0.0
 30
0.0
 40
0.1499999927
 41
0.1499999927
  0
VERTEX
  5
537
  8
0
  6
CONTINUOUS
 62
     7
 10
200.93393900000001
 20
26.348077
 30
0.0
  0
VERTEX
  5
538
  8
0
  6
CONTINUOUS
 62
     7
 10
200.93393900000001
 20
33.348077000000011
 30
0.0
  0
SEQEND
  5
539
  8
0
  6
CONTINUOUS
 62
     7
  0
LINE
  5
390
  8
0
  6
CONTINUOUS
 62
     7
 10
200.939636476
 20
29.8266475452
 30
0.0
 11
200.939636476
 21
26.3266475452
 31
0.0
  0
LINE
  5
391
  8
0
  6
CONTINUOUS
 62
     7
 10
5.2660619999999998
 20
154.45358400000001
 30
0.0
 11
0.0
 21
154.45358400000001
 31
0.0
  0
LINE
  5
392
  8
0
  6
CONTINUOUS
 62
     7
 10
291.73393900000002
 20
154.45358400000001
 30
0.0
 11
297.0
 21
154.45358400000001
 31
0.0
  0
POLYLINE
  5
393
  8
0
  6
CONTINUOUS
 62
     7
 66
     1
 10
0.0
 20
0.0
 30
0.0
 40
0.1499999927
 41
0.1499999927
  0
VERTEX
  5
53A
  8
0
  6
CONTINUOUS
 62
     7
 10
202.43393900000001
 20
26.348077
 30
0.0
  0
VERTEX
  5
53B
  8
0
  6
CONTINUOUS
 62
     7
 10
202.43393900000001
 20
5.3480769999999991
 30
0.0
  0
SEQEND
  5
53C
  8
0
  6
CONTINUOUS
 62
     7
  0
LINE
  5
394
  8
DEFAULT_1
  6
CENTER
 62
     7
 10
206.90921599999999
 20
32.936419999999998
 30
0.0
 11
206.90921599999999
 21
30.453333000000001
 31
0.0
  0
POLYLINE
  5
395
  8
0
  6
CONTINUOUS
 62
     7
 66
     1
 10
0.0
 20
0.0
 30
0.0
 40
0.1499999927
 41
0.1499999927
  0
VERTEX
  5
53D
  8
0
  6
CONTINUOUS
 62
     7
 10
208.43393900000001
 20
26.348077
 30
0.0
  0
VERTEX
  5
53E
  8
0
  6
CONTINUOUS
 62
     7
 10
208.43393900000001
 20
5.3480769999999991
 30
0.0
  0
SEQEND
  5
53F
  8
0
  6
CONTINUOUS
 62
     7
  0
POLYLINE
  5
396
  8
0
  6
CONTINUOUS
 62
     7
 66
     1
 10
0.0
 20
0.0
 30
0.0
 40
0.1499999927
 41
0.1499999927
  0
VERTEX
  5
540
  8
0
  6
CONTINUOUS
 62
     7
 10
210.68393900000001
 20
26.348077
 30
0.0
  0
VERTEX
  5
541
  8
0
  6
CONTINUOUS
 62
     7
 10
210.68393900000001
 20
29.848077000000011
 30
0.0
  0
SEQEND
  5
542
  8
0
  6
CONTINUOUS
 62
     7
  0
LINE
  5
397
  8
0
  6
CONTINUOUS
 62
     7
 10
210.689636476
 20
29.8266475452
 30
0.0
 11
210.689636476
 21
26.3266475452
 31
0.0
  0
LINE
  5
398
  8
0
  6
CONTINUOUS
 62
     7
 10
211.82332999999991
 20
31.408539000000001
 30
0.0
 11
211.82332999999991
 21
31.98067
 31
0.0
  0
POLYLINE
  5
399
  8
0
  6
CONTINUOUS
 62
     7
 66
     1
 10
0.0
 20
0.0
 30
0.0
 40
0.1499999927
 41
0.1499999927
  0
VERTEX
  5
543
  8
0
  6
CONTINUOUS
 62
     7
 10
214.43393900000001
 20
26.348077
 30
0.0
  0
VERTEX
  5
544
  8
0
  6
CONTINUOUS
 62
     7
 10
214.43393900000001
 20
5.3480769999999991
 30
0.0
  0
SEQEND
  5
545
  8
0
  6
CONTINUOUS
 62
     7
  0
LINE
  5
39A
  8
0
  6
CONTINUOUS
 62
     7
 10
215.54218700000001
 20
30.779194
 30
0.0
 11
215.54218700000001
 21
32.610016000000002
 31
0.0
  0
POLYLINE
  5
39B
  8
0
  6
CONTINUOUS
 62
     7
 66
     1
 10
0.0
 20
0.0
 30
0.0
 40
0.1499999927
 41
0.1499999927
  0
VERTEX
  5
546
  8
0
  6
CONTINUOUS
 62
     7
 10
220.43393900000001
 20
5.3480769999999991
 30
0.0
  0
VERTEX
  5
547
  8
0
  6
CONTINUOUS
 62
     7
 10
220.43393900000001
 20
33.348077000000011
 30
0.0
  0
SEQEND
  5
548
  8
0
  6
CONTINUOUS
 62
     7
  0
POLYLINE
  5
39C
  8
0
  6
CONTINUOUS
 62
     7
 66
     1
 10
0.0
 20
0.0
 30
0.0
 40
0.1499999927
 41
0.1499999927
  0
VERTEX
  5
549
  8
0
  6
CONTINUOUS
 62
     7
 10
230.43393900000001
 20
5.3480769999999991
 30
0.0
  0
VERTEX
  5
54A
  8
0
  6
CONTINUOUS
 62
     7
 10
230.43393900000001
 20
26.348077
 30
0.0
  0
SEQEND
  5
54B
  8
0
  6
CONTINUOUS
 62
     7
  0
LINE
  5
39D
  8
0
  6
CONTINUOUS
 62
     7
 10
230.44112363630001
 20
26.343698321000002
 30
0.0
 11
230.44112363630001
 21
5.3436983209999998
 31
0.0
  0
LINE
  5
39E
  8
0
  6
CONTINUOUS
 62
     7
 10
234.17307700000001
 20
5.1923079999999997
 30
0.0
 11
234.17307700000001
 21
0.0
 31
0.0
  0
LINE
  5
39F
  8
0
  6
CONTINUOUS
 62
     7
 10
234.17307700000001
 20
204.55846199999999
 30
0.0
 11
234.17307700000001
 21
209.75076999999999
 31
0.0
  0
POLYLINE
  5
3A0
  8
0
  6
CONTINUOUS
 62
     7
 66
     1
 10
0.0
 20
0.0
 30
0.0
 40
0.1499999927
 41
0.1499999927
  0
VERTEX
  5
54C
  8
0
  6
CONTINUOUS
 62
     7
 10
243.73393899999999
 20
5.3480769999999991
 30
0.0
  0
VERTEX
  5
54D
  8
0
  6
CONTINUOUS
 62
     7
 10
243.73393899999999
 20
26.348077
 30
0.0
  0
SEQEND
  5
54E
  8
0
  6
CONTINUOUS
 62
     7
  0
LINE
  5
3A1
  8
0
  6
CONTINUOUS
 62
     7
 10
243.74112363629999
 20
26.343698321000002
 30
0.0
 11
243.74112363629999
 21
5.3436983209999998
 31
0.0
  0
POLYLINE
  5
3A2
  8
0
  6
CONTINUOUS
 62
     7
 66
     1
 10
0.0
 20
0.0
 30
0.0
 40
0.2000000079
 41
0.2000000079
  0
VERTEX
  5
54F
  8
0
  6
CONTINUOUS
 62
     7
 10
5.2660619999999998
 20
204.55846199999999
 30
0.0
  0
VERTEX
  5
550
  8
0
  6
CONTINUOUS
 62
     7
 10
291.73393900000002
 20
204.55846199999999
 30
0.0
  0
SEQEND
  5
551
  8
0
  6
CONTINUOUS
 62
     7
  0
LINE
  5
3A3
  8
0
  6
CONTINUOUS
 62
     7
 10
0.0
 20
210.0
 30
0.0
 11
297.0
 21
210.0
 31
0.0
  0
POLYLINE
  5
3A4
  8
0
  6
CONTINUOUS
 62
     7
 66
     1
 10
0.0
 20
0.0
 30
0.0
 40
0.1499999927
 41
0.1499999927
  0
VERTEX
  5
552
  8
0
  6
CONTINUOUS
 62
     7
 10
255.73393899999999
 20
5.3480769999999991
 30
0.0
  0
VERTEX
  5
553
  8
0
  6
CONTINUOUS
 62
     7
 10
255.73393899999999
 20
26.348077
 30
0.0
  0
SEQEND
  5
554
  8
0
  6
CONTINUOUS
 62
     7
  0
LINE
  5
3A5
  8
0
  6
CONTINUOUS
 62
     7
 10
255.75572545520001
 20
26.325359378200002
 30
0.0
 11
255.75572545520001
 21
5.325359378199999
 31
0.0
  0
LINE
  5
3A6
  8
0
  6
CONTINUOUS
 62
     7
 10
256.18393900000001
 20
25.898077000000001
 30
0.0
 11
256.18393900000001
 21
21.548076999999999
 31
0.0
  0
POLYLINE
  5
3A7
  8
0
  6
CONTINUOUS
 62
     7
 66
     1
 10
0.0
 20
0.0
 30
0.0
 40
0.1499999927
 41
0.1499999927
  0
VERTEX
  5
555
  8
0
  6
CONTINUOUS
 62
     7
 10
267.73393900000002
 20
5.3480769999999991
 30
0.0
  0
VERTEX
  5
556
  8
0
  6
CONTINUOUS
 62
     7
 10
267.73393900000002
 20
12.348077
 30
0.0
  0
SEQEND
  5
557
  8
0
  6
CONTINUOUS
 62
     7
  0
LINE
  5
3A8
  8
0
  6
CONTINUOUS
 62
     7
 10
267.75572545519998
 20
12.3253593782
 30
0.0
 11
267.75572545519998
 21
5.325359378199999
 31
0.0
  0
POLYLINE
  5
3A9
  8
0
  6
CONTINUOUS
 62
     7
 66
     1
 10
0.0
 20
0.0
 30
0.0
 40
0.1499999927
 41
0.1499999927
  0
VERTEX
  5
558
  8
0
  6
CONTINUOUS
 62
     7
 10
279.73393900000002
 20
5.3480769999999991
 30
0.0
  0
VERTEX
  5
559
  8
0
  6
CONTINUOUS
 62
     7
 10
279.73393900000002
 20
12.348077
 30
0.0
  0
SEQEND
  5
55A
  8
0
  6
CONTINUOUS
 62
     7
  0
LINE
  5
3AA
  8
0
  6
CONTINUOUS
 62
     7
 10
279.75572545519998
 20
12.3253593782
 30
0.0
 11
279.75572545519998
 21
5.325359378199999
 31
0.0
  0
LINE
  5
3AB
  8
0
  6
CONTINUOUS
 62
     7
 10
291.28393899999998
 20
21.548076999999999
 30
0.0
 11
291.28393899999998
 21
25.898077000000001
 31
0.0
  0
POLYLINE
  5
3AC
  8
0
  6
CONTINUOUS
 62
     7
 66
     1
 10
0.0
 20
0.0
 30
0.0
 40
0.2000000079
 41
0.2000000079
  0
VERTEX
  5
55B
  8
0
  6
CONTINUOUS
 62
     7
 10
291.73393900000002
 20
204.55846199999999
 30
0.0
  0
VERTEX
  5
55C
  8
0
  6
CONTINUOUS
 62
     7
 10
291.73393900000002
 20
5.3480769999999991
 30
0.0
  0
SEQEND
  5
55D
  8
0
  6
CONTINUOUS
 62
     7
  0
LINE
  5
3AD
  8
0
  6
CONTINUOUS
 62
     7
 10
291.75572545519998
 20
26.325359378200002
 30
0.0
 11
291.75572545519998
 21
5.325359378199999
 31
0.0
  0
LINE
  5
3AE
  8
0
  6
CONTINUOUS
 62
     7
 10
291.76314162069991
 20
204.5827910916
 30
0.0
 11
291.76314162069991
 21
179.5827910916
 31
0.0
  0
LINE
  5
3AF
  8
0
  6
CONTINUOUS
 62
     7
 10
297.0
 20
0.0
 30
0.0
 11
297.0
 21
210.0
 31
0.0
  0
LINE
  5
3B0
  8
0
  6
CONTINUOUS
 62
     7
 10
100.3718535185
 20
52.579238357999998
 30
0.0
 11
150.37185351849999
 21
52.579238357999998
 31
0.0
  0
LINE
  5
3B1
  8
0
  6
CONTINUOUS
 62
     7
 10
105.3718535185
 20
57.579238357999998
 30
0.0
 11
145.37185351849999
 21
57.579238357999998
 31
0.0
  0
LINE
  5
3B2
  8
0
  6
CONTINUOUS
 62
     7
 10
100.3718535185
 20
142.579238358
 30
0.0
 11
100.3718535185
 21
52.579238357999998
 31
0.0
  0
LINE
  5
3B3
  8
0
  6
CONTINUOUS
 62
     7
 10
103.9218535185
 20
139.229238358
 30
0.0
 11
103.9218535185
 21
130.729238358
 31
0.0
  0
LINE
  5
3B4
  8
0
  6
CONTINUOUS
 62
     7
 10
105.3718535185
 20
124.579238358
 30
0.0
 11
105.3718535185
 21
57.579238357999998
 31
0.0
  0
LINE
  5
3B5
  8
0
  6
CONTINUOUS
 62
     7
 10
138.9218535185
 20
130.729238358
 30
0.0
 11
138.9218535185
 21
139.229238358
 31
0.0
  0
LINE
  5
3B6
  8
DEFAULT_1
  6
CENTER
 62
     1
 10
145.37185351849999
 20
133.829238358
 30
0.0
 11
145.37185351849999
 21
128.579238358
 31
0.0
  0
LINE
  5
3B7
  8
0
  6
CONTINUOUS
 62
     7
 10
145.37185351849999
 20
57.579238357999998
 30
0.0
 11
145.37185351849999
 21
124.579238358
 31
0.0
  0
LINE
  5
3B8
  8
DEFAULT_1
  6
CENTER
 62
     1
 10
145.37185351849999
 20
133.829238358
 30
0.0
 11
145.37185351849999
 21
139.079238358
 31
0.0
  0
LINE
  5
3B9
  8
0
  6
CONTINUOUS
 62
     7
 10
150.37185351849999
 20
52.579238357999998
 30
0.0
 11
150.37185351849999
 21
142.579238358
 31
0.0
  0
LINE
  5
3BA
  8
0
  6
CONTINUOUS
 62
     7
 10
145.37185351849999
 20
124.579238358
 30
0.0
 11
105.3718535185
 21
124.579238358
 31
0.0
  0
LINE
  5
3BB
  8
0
  6
CONTINUOUS
 62
     7
 10
103.9218535185
 20
130.729238358
 30
0.0
 11
138.9218535185
 21
130.729238358
 31
0.0
  0
LINE
  5
3BC
  8
DEFAULT_1
  6
CENTER
 62
     1
 10
145.37185351849999
 20
133.829238358
 30
0.0
 11
140.12185351849999
 21
133.829238358
 31
0.0
  0
LINE
  5
3BD
  8
DEFAULT_1
  6
CENTER
 62
     1
 10
145.37185351849999
 20
133.829238358
 30
0.0
 11
150.62185351849999
 21
133.829238358
 31
0.0
  0
LINE
  5
3BE
  8
0
  6
CONTINUOUS
 62
     7
 10
138.9218535185
 20
139.229238358
 30
0.0
 11
103.9218535185
 21
139.229238358
 31
0.0
  0
LINE
  5
3BF
  8
0
  6
CONTINUOUS
 62
     7
 10
150.37185351849999
 20
142.579238358
 30
0.0
 11
100.3718535185
 21
142.579238358
 31
0.0
  0
LINE
  5
3C0
  8
0
  6
CONTINUOUS
 62
     7
 10
28.672749010299999
 20
52.579238357999998
 30
0.0
 11
33.672749010300002
 21
52.579238357999998
 31
0.0
  0
LINE
  5
3C1
  8
0
  6
CONTINUOUS
 62
     7
 10
33.672749010300002
 20
57.579238357999998
 30
0.0
 11
42.172749010300002
 21
57.579238357999998
 31
0.0
  0
LINE
  5
3C2
  8
0
  6
CONTINUOUS
 62
     7
 10
28.672749010299999
 20
142.579238358
 30
0.0
 11
28.672749010299999
 21
52.579238357999998
 31
0.0
  0
LINE
  5
3C3
  8
0
  6
CONTINUOUS
 62
     7
 10
33.672749010300002
 20
142.579238358
 30
0.0
 11
33.672749010300002
 21
52.579238357999998
 31
0.0
  0
LINE
  5
3C4
  8
0
  6
CONTINUOUS
 62
     7
 10
42.172749010300002
 20
124.579238358
 30
0.0
 11
42.172749010300002
 21
57.579238357999998
 31
0.0
  0
LINE
  5
3C5
  8
0
  6
CONTINUOUS
 62
     7
 10
44.672749010299981
 20
139.229238358
 30
0.0
 11
44.672749010299981
 21
130.729238358
 31
0.0
  0
LINE
  5
3C6
  8
0
  6
CONTINUOUS
 62
     7
 10
33.672749010300002
 20
124.579238358
 30
0.0
 11
42.172749010300002
 21
124.579238358
 31
0.0
  0
LINE
  5
3C7
  8
0
  6
CONTINUOUS
 62
     7
 10
33.672749010300002
 20
130.729238358
 30
0.0
 11
44.672749010299981
 21
130.729238358
 31
0.0
  0
LINE
  5
3C8
  8
0
  6
CONTINUOUS
 62
     7
 10
33.672749010300002
 20
139.229238358
 30
0.0
 11
44.672749010299981
 21
139.229238358
 31
0.0
  0
LINE
  5
3C9
  8
0
  6
CONTINUOUS
 62
     7
 10
28.672749010299999
 20
142.579238358
 30
0.0
 11
33.672749010300002
 21
142.579238358
 31
0.0
  0
LINE
  5
3CA
  8
0
  6
CONTINUOUS
 62
     7
 10
266.6463792047
 20
64.731417429399997
 30
0.0
 11
276.6463792047
 21
64.731417429399997
 31
0.0
  0
LINE
  5
3CB
  8
0
  6
CONTINUOUS
 62
     7
 10
267.6463792047
 20
65.731417429399997
 30
0.0
 11
275.6463792047
 21
65.731417429399997
 31
0.0
  0
LINE
  5
3CC
  8
0
  6
CONTINUOUS
 62
     7
 10
266.6463792047
 20
82.731417429399997
 30
0.0
 11
266.6463792047
 21
64.731417429399997
 31
0.0
  0
LINE
  5
3CD
  8
0
  6
CONTINUOUS
 62
     7
 10
267.35637920470009
 20
82.061417429399981
 30
0.0
 11
267.35637920470009
 21
80.361417429399992
 31
0.0
  0
LINE
  5
3CE
  8
0
  6
CONTINUOUS
 62
     7
 10
267.6463792047
 20
79.131417429400003
 30
0.0
 11
267.6463792047
 21
65.731417429399997
 31
0.0
  0
LINE
  5
3CF
  8
0
  6
CONTINUOUS
 62
     7
 10
274.35637920469998
 20
80.361417429399992
 30
0.0
 11
274.35637920469998
 21
82.061417429399981
 31
0.0
  0
LINE
  5
3D0
  8
0
  6
CONTINUOUS
 62
     7
 10
275.6463792047
 20
65.731417429399997
 30
0.0
 11
275.6463792047
 21
79.131417429400003
 31
0.0
  0
LINE
  5
3D1
  8
0
  6
CONTINUOUS
 62
     7
 10
276.6463792047
 20
64.731417429399997
 30
0.0
 11
276.6463792047
 21
82.731417429399997
 31
0.0
  0
LINE
  5
3D2
  8
0
  6
CONTINUOUS
 62
     7
 10
275.6463792047
 20
79.131417429400003
 30
0.0
 11
267.6463792047
 21
79.131417429400003
 31
0.0
  0
LINE
  5
3D3
  8
0
  6
CONTINUOUS
 62
     7
 10
267.35637920470009
 20
80.361417429399992
 30
0.0
 11
274.35637920469998
 21
80.361417429399992
 31
0.0
  0
LINE
  5
3D4
  8
0
  6
CONTINUOUS
 62
     7
 10
274.35637920469998
 20
82.061417429399981
 30
0.0
 11
267.35637920470009
 21
82.061417429399981
 31
0.0
  0
LINE
  5
3D5
  8
0
  6
CONTINUOUS
 62
     7
 10
276.6463792047
 20
82.731417429399997
 30
0.0
 11
266.6463792047
 21
82.731417429399997
 31
0.0
  0
LINE
  5
3D6
  8
0
  6
CONTINUOUS
 62
     7
 10
239.60898015980001
 20
64.731417429399997
 30
0.0
 11
240.60898015980001
 21
64.731417429399997
 31
0.0
  0
LINE
  5
3D7
  8
0
  6
CONTINUOUS
 62
     7
 10
240.60898015980001
 20
65.731417429399997
 30
0.0
 11
242.3089801598
 21
65.731417429399997
 31
0.0
  0
LINE
  5
3D8
  8
0
  6
CONTINUOUS
 62
     7
 10
239.60898015980001
 20
82.731417429399997
 30
0.0
 11
239.60898015980001
 21
64.731417429399997
 31
0.0
  0
LINE
  5
3D9
  8
0
  6
CONTINUOUS
 62
     7
 10
240.60898015980001
 20
82.731417429399997
 30
0.0
 11
240.60898015980001
 21
64.731417429399997
 31
0.0
  0
LINE
  5
3DA
  8
0
  6
CONTINUOUS
 62
     7
 10
242.3089801598
 20
79.131417429400003
 30
0.0
 11
242.3089801598
 21
65.731417429399997
 31
0.0
  0
LINE
  5
3DB
  8
0
  6
CONTINUOUS
 62
     7
 10
242.8089801598
 20
82.061417429399981
 30
0.0
 11
242.8089801598
 21
80.361417429399992
 31
0.0
  0
LINE
  5
3DC
  8
0
  6
CONTINUOUS
 62
     7
 10
240.60898015980001
 20
79.131417429400003
 30
0.0
 11
242.3089801598
 21
79.131417429400003
 31
0.0
  0
LINE
  5
3DD
  8
0
  6
CONTINUOUS
 62
     7
 10
240.60898015980001
 20
80.361417429399992
 30
0.0
 11
242.8089801598
 21
80.361417429399992
 31
0.0
  0
LINE
  5
3DE
  8
0
  6
CONTINUOUS
 62
     7
 10
240.60898015980001
 20
82.061417429399981
 30
0.0
 11
242.8089801598
 21
82.061417429399981
 31
0.0
  0
LINE
  5
3DF
  8
0
  6
CONTINUOUS
 62
     7
 10
239.60898015980001
 20
82.731417429399997
 30
0.0
 11
240.60898015980001
 21
82.731417429399997
 31
0.0
  0
LINE
  5
3E0
  8
0
  6
CONTINUOUS
 62
     7
 10
174.42722638769999
 20
120.3888732643
 30
0.0
 11
174.2338843629999
 21
125.0595589791
 31
0.0
  0
LINE
  5
3E1
  8
0
  6
CONTINUOUS
 62
     7
 10
180.98945597970001
 20
124.56816055269999
 30
0.0
 11
180.66077453770001
 21
132.5083262679
 31
0.0
  0
LINE
  5
3E2
  8
0
  6
CONTINUOUS
 62
     7
 10
174.42722638769999
 20
120.3888732643
 30
0.0
 11
197.85195710010001
 21
105.55456569890001
 31
0.0
  0
LINE
  5
3E3
  8
0
  6
CONTINUOUS
 62
     7
 10
174.2338843629999
 20
125.0595589791
 30
0.0
 11
197.65861507540001
 21
110.22525141369999
 31
0.0
  0
LINE
  5
3E4
  8
0
  6
CONTINUOUS
 62
     7
 10
197.85195710010001
 20
105.55456569890001
 30
0.0
 11
197.65861507540001
 21
110.22525141369999
 31
0.0
  0
LINE
  5
3E5
  8
0
  6
CONTINUOUS
 62
     7
 10
199.72924054960001
 20
112.7007145004
 30
0.0
 11
199.40055910759989
 21
120.64088021560001
 31
0.0
  0
LINE
  5
3E6
  8
0
  6
CONTINUOUS
 62
     7
 10
180.98945597970001
 20
124.56816055269999
 30
0.0
 11
199.72924054960001
 21
112.7007145004
 31
0.0
  0
LINE
  5
3E7
  8
0
  6
CONTINUOUS
 62
     7
 10
180.66077453770001
 20
132.5083262679
 30
0.0
 11
199.40055910759989
 21
120.64088021560001
 31
0.0
  0
LINE
  5
3E8
  8
0
  6
CONTINUOUS
 62
     7
 10
197.85195710010001
 20
105.55456569890001
 30
0.0
 11
277.28773091850002
 21
123.411147641
 31
0.0
  0
LINE
  5
3E9
  8
0
  6
CONTINUOUS
 62
     7
 10
197.65861507540001
 20
110.22525141369999
 30
0.0
 11
277.09438889379999
 21
128.0818333558
 31
0.0
  0
LINE
  5
3EA
  8
0
  6
CONTINUOUS
 62
     7
 10
199.72924054960001
 20
112.7007145004
 30
0.0
 11
258.8647610589
 21
125.99394772390001
 31
0.0
  0
LINE
  5
3EB
  8
0
  6
CONTINUOUS
 62
     7
 10
261.27108200790002
 20
129.12777316590001
 30
0.0
 11
268.7733495352
 21
130.81422812709999
 31
0.0
  0
LINE
  5
3EC
  8
0
  6
CONTINUOUS
 62
     7
 10
199.40055910759989
 20
120.64088021560001
 30
0.0
 11
258.5360796169
 21
133.9341134391
 31
0.0
  0
LINE
  5
3ED
  8
0
  6
CONTINUOUS
 62
     7
 10
260.84572955359999
 20
139.4032817385
 30
0.0
 11
268.34799708089997
 21
141.08973669970001
 31
0.0
  0
LINE
  5
3EE
  8
0
  6
CONTINUOUS
 62
     7
 10
180.9070194901
 20
126.55963103080001
 30
0.0
 11
174.2338843629999
 21
125.0595589791
 31
0.0
  0
LINE
  5
3EF
  8
0
  6
CONTINUOUS
 62
     7
 10
239.796295047
 20
145.80155949140001
 30
0.0
 11
180.66077453770001
 21
132.5083262679
 31
0.0
  0
LINE
  5
3F0
  8
0
  6
CONTINUOUS
 62
     7
 10
251.95068558220001
 20
151.47375199550001
 30
0.0
 11
244.4484180549
 21
149.7872970343
 31
0.0
  0
LINE
  5
3F1
  8
0
  6
CONTINUOUS
 62
     7
 10
244.74308339929999
 20
142.6688797274
 30
0.0
 11
244.4484180549
 21
149.7872970343
 31
0.0
  0
LINE
  5
3F2
  8
0
  6
CONTINUOUS
 62
     7
 10
258.66676672680001
 20
130.7770221733
 30
0.0
 11
261.27108200790002
 21
129.12777316590001
 31
0.0
  0
LINE
  5
3F3
  8
0
  6
CONTINUOUS
 62
     7
 10
258.5360796169
 20
133.9341134391
 30
0.0
 11
239.796295047
 21
145.80155949140001
 31
0.0
  0
LINE
  5
3F4
  8
0
  6
CONTINUOUS
 62
     7
 10
277.09438889379999
 20
128.0818333558
 30
0.0
 11
268.66549896409998
 21
133.41964266459999
 31
0.0
  0
LINE
  5
3F5
  8
0
  6
CONTINUOUS
 62
     7
 10
244.4484180549
 20
149.7872970343
 30
0.0
 11
260.84572955359999
 21
139.4032817385
 31
0.0
  0
LINE
  5
3F6
  8
0
  6
CONTINUOUS
 62
     7
 10
258.8647610589
 20
125.99394772390001
 30
0.0
 11
258.5360796169
 21
133.9341134391
 31
0.0
  0
LINE
  5
3F7
  8
0
  6
CONTINUOUS
 62
     7
 10
268.34799708089997
 20
141.08973669970001
 30
0.0
 11
251.95068558220001
 21
151.47375199550001
 31
0.0
  0
LINE
  5
3F8
  8
0
  6
CONTINUOUS
 62
     7
 10
261.27108200790002
 20
129.12777316590001
 30
0.0
 11
260.84572955359999
 21
139.4032817385
 31
0.0
  0
LINE
  5
3F9
  8
0
  6
CONTINUOUS
 62
     7
 10
268.7733495352
 20
130.81422812709999
 30
0.0
 11
268.34799708089997
 21
141.08973669970001
 31
0.0
  0
LINE
  5
3FA
  8
0
  6
CONTINUOUS
 62
     7
 10
277.28773091850002
 20
123.411147641
 30
0.0
 11
277.09438889379999
 21
128.0818333558
 31
0.0
  0
CIRCLE
  5
3FB
  8
0
  6
CONTINUOUS
 62
     7
 10
206.90921599999999
 20
31.694604999999999
 30
0.0
 40
0.9154109999999999
  0
CIRCLE
  5
3FC
  8
0
  6
CONTINUOUS
 62
     7
 10
206.90921599999999
 20
31.694604999999999
 30
0.0
 40
0.287938
  0
CIRCLE
  5
3FD
  8
0
  6
CONTINUOUS
 62
     7
 10
145.37185351849999
 20
133.829238358
 30
0.0
 40
2.25
  0
CIRCLE
  5
3FE
  8
0
  6
CONTINUOUS
 62
     7
 10
275.6463792047
 20
80.981417429399997
 30
0.0
 40
0.45
  0
POLYLINE
  8
0
  5
58D
  62
7
  66
     1
 10
0.000000
 20
0.000000
 30
0.000000
  70
     8
  0
VERTEX
  8
0
  5
58E
 10
269.276
 20
127.923
 30
0.000000
  70
    32
  0
VERTEX
  8
0
  5
58F
 10
269.276
 20
127.916
 30
0.000000
  70
    32
  0
VERTEX
  8
0
  5
590
 10
269.276
 20
127.909
 30
0.000000
  70
    32
  0
VERTEX
  8
0
  5
591
 10
269.276
 20
127.902
 30
0.000000
  70
    32
  0
VERTEX
  8
0
  5
592
 10
269.275
 20
127.896
 30
0.000000
  70
    32
  0
VERTEX
  8
0
  5
593
 10
269.275
 20
127.889
 30
0.000000
  70
    32
  0
VERTEX
  8
0
  5
594
 10
269.274
 20
127.882
 30
0.000000
  70
    32
  0
VERTEX
  8
0
  5
595
 10
269.273
 20
127.876
 30
0.000000
  70
    32
  0
VERTEX
  8
0
  5
596
 10
269.272
 20
127.869
 30
0.000000
  70
    32
  0
VERTEX
  8
0
  5
597
 10
269.271
 20
127.862
 30
0.000000
  70
    32
  0
VERTEX
  8
0
  5
598
 10
269.270
 20
127.856
 30
0.000000
  70
    32
  0
VERTEX
  8
0
  5
599
 10
269.268
 20
127.849
 30
0.000000
  70
    32
  0
VERTEX
  8
0
  5
59A
 10
269.267
 20
127.842
 30
0.000000
  70
    32
  0
VERTEX
  8
0
  5
59B
 10
269.265
 20
127.836
 30
0.000000
  70
    32
  0
VERTEX
  8
0
  5
59C
 10
269.263
 20
127.829
 30
0.000000
  70
    32
  0
VERTEX
  8
0
  5
59D
 10
269.261
 20
127.823
 30
0.000000
  70
    32
  0
VERTEX
  8
0
  5
59E
 10
269.259
 20
127.816
 30
0.000000
  70
    32
  0
VERTEX
  8
0
  5
59F
 10
269.257
 20
127.810
 30
0.000000
  70
    32
  0
VERTEX
  8
0
  5
5A0
 10
269.255
 20
127.803
 30
0.000000
  70
    32
  0
VERTEX
  8
0
  5
5A1
 10
269.253
 20
127.797
 30
0.000000
  70
    32
  0
VERTEX
  8
0
  5
5A2
 10
269.250
 20
127.791
 30
0.000000
  70
    32
  0
VERTEX
  8
0
  5
5A3
 10
269.248
 20
127.784
 30
0.000000
  70
    32
  0
VERTEX
  8
0
  5
5A4
 10
269.245
 20
127.778
 30
0.000000
  70
    32
  0
VERTEX
  8
0
  5
5A5
 10
269.242
 20
127.772
 30
0.000000
  70
    32
  0
VERTEX
  8
0
  5
5A6
 10
269.239
 20
127.765
 30
0.000000
  70
    32
  0
VERTEX
  8
0
  5
5A7
 10
269.236
 20
127.759
 30
0.000000
  70
    32
  0
VERTEX
  8
0
  5
5A8
 10
269.233
 20
127.753
 30
0.000000
  70
    32
  0
VERTEX
  8
0
  5
5A9
 10
269.230
 20
127.747
 30
0.000000
  70
    32
  0
VERTEX
  8
0
  5
5AA
 10
269.227
 20
127.741
 30
0.000000
  70
    32
  0
VERTEX
  8
0
  5
5AB
 10
269.224
 20
127.735
 30
0.000000
  70
    32
  0
VERTEX
  8
0
  5
5AC
 10
269.220
 20
127.729
 30
0.000000
  70
    32
  0
VERTEX
  8
0
  5
5AD
 10
269.217
 20
127.724
 30
0.000000
  70
    32
  0
VERTEX
  8
0
  5
5AE
 10
269.213
 20
127.718
 30
0.000000
  70
    32
  0
VERTEX
  8
0
  5
5AF
 10
269.209
 20
127.712
 30
0.000000
  70
    32
  0
VERTEX
  8
0
  5
5B0
 10
269.206
 20
127.707
 30
0.000000
  70
    32
  0
VERTEX
  8
0
  5
5B1
 10
269.202
 20
127.701
 30
0.000000
  70
    32
  0
VERTEX
  8
0
  5
5B2
 10
269.198
 20
127.696
 30
0.000000
  70
    32
  0
VERTEX
  8
0
  5
5B3
 10
269.194
 20
127.690
 30
0.000000
  70
    32
  0
VERTEX
  8
0
  5
5B4
 10
269.190
 20
127.685
 30
0.000000
  70
    32
  0
VERTEX
  8
0
  5
5B5
 10
269.186
 20
127.679
 30
0.000000
  70
    32
  0
VERTEX
  8
0
  5
5B6
 10
269.182
 20
127.674
 30
0.000000
  70
    32
  0
VERTEX
  8
0
  5
5B7
 10
269.177
 20
127.669
 30
0.000000
  70
    32
  0
VERTEX
  8
0
  5
5B8
 10
269.173
 20
127.664
 30
0.000000
  70
    32
  0
VERTEX
  8
0
  5
5B9
 10
269.169
 20
127.659
 30
0.000000
  70
    32
  0
VERTEX
  8
0
  5
5BA
 10
269.164
 20
127.654
 30
0.000000
  70
    32
  0
VERTEX
  8
0
  5
5BB
 10
269.160
 20
127.649
 30
0.000000
  70
    32
  0
VERTEX
  8
0
  5
5BC
 10
269.155
 20
127.644
 30
0.000000
  70
    32
  0
VERTEX
  8
0
  5
5BD
 10
269.151
 20
127.639
 30
0.000000
  70
    32
  0
VERTEX
  8
0
  5
5BE
 10
269.146
 20
127.634
 30
0.000000
  70
    32
  0
VERTEX
  8
0
  5
5BF
 10
269.141
 20
127.629
 30
0.000000
  70
    32
  0
VERTEX
  8
0
  5
5C0
 10
269.137
 20
127.624
 30
0.000000
  70
    32
  0
VERTEX
  8
0
  5
5C1
 10
269.132
 20
127.620
 30
0.000000
  70
    32
  0
VERTEX
  8
0
  5
5C2
 10
269.127
 20
127.615
 30
0.000000
  70
    32
  0
VERTEX
  8
0
  5
5C3
 10
269.122
 20
127.610
 30
0.000000
  70
    32
  0
VERTEX
  8
0
  5
5C4
 10
269.117
 20
127.606
 30
0.000000
  70
    32
  0
VERTEX
  8
0
  5
5C5
 10
269.112
 20
127.601
 30
0.000000
  70
    32
  0
VERTEX
  8
0
  5
5C6
 10
269.107
 20
127.597
 30
0.000000
  70
    32
  0
VERTEX
  8
0
  5
5C7
 10
269.102
 20
127.592
 30
0.000000
  70
    32
  0
VERTEX
  8
0
  5
5C8
 10
269.097
 20
127.588
 30
0.000000
  70
    32
  0
VERTEX
  8
0
  5
5C9
 10
269.092
 20
127.584
 30
0.000000
  70
    32
  0
VERTEX
  8
0
  5
5CA
 10
269.086
 20
127.579
 30
0.000000
  70
    32
  0
VERTEX
  8
0
  5
5CB
 10
269.081
 20
127.575
 30
0.000000
  70
    32
  0
VERTEX
  8
0
  5
5CC
 10
269.076
 20
127.571
 30
0.000000
  70
    32
  0
VERTEX
  8
0
  5
5CD
 10
269.070
 20
127.567
 30
0.000000
  70
    32
  0
VERTEX
  8
0
  5
5CE
 10
269.065
 20
127.562
 30
0.000000
  70
    32
  0
VERTEX
  8
0
  5
5CF
 10
269.060
 20
127.558
 30
0.000000
  70
    32
  0
VERTEX
  8
0
  5
5D0
 10
269.054
 20
127.554
 30
0.000000
  70
    32
  0
VERTEX
  8
0
  5
5D1
 10
269.049
 20
127.550
 30
0.000000
  70
    32
  0
VERTEX
  8
0
  5
5D2
 10
269.043
 20
127.546
 30
0.000000
  70
    32
  0
VERTEX
  8
0
  5
5D3
 10
269.038
 20
127.542
 30
0.000000
  70
    32
  0
VERTEX
  8
0
  5
5D4
 10
269.032
 20
127.538
 30
0.000000
  70
    32
  0
VERTEX
  8
0
  5
5D5
 10
269.027
 20
127.534
 30
0.000000
  70
    32
  0
VERTEX
  8
0
  5
5D6
 10
269.021
 20
127.530
 30
0.000000
  70
    32
  0
VERTEX
  8
0
  5
5D7
 10
269.015
 20
127.526
 30
0.000000
  70
    32
  0
VERTEX
  8
0
  5
5D8
 10
269.010
 20
127.523
 30
0.000000
  70
    32
  0
VERTEX
  8
0
  5
5D9
 10
269.004
 20
127.519
 30
0.000000
  70
    32
  0
VERTEX
  8
0
  5
5DA
 10
268.999
 20
127.515
 30
0.000000
  70
    32
  0
VERTEX
  8
0
  5
5DB
 10
268.993
 20
127.511
 30
0.000000
  70
    32
  0
VERTEX
  8
0
  5
5DC
 10
268.987
 20
127.508
 30
0.000000
  70
    32
  0
VERTEX
  8
0
  5
5DD
 10
268.982
 20
127.504
 30
0.000000
  70
    32
  0
VERTEX
  8
0
  5
5DE
 10
268.976
 20
127.500
 30
0.000000
  70
    32
  0
VERTEX
  8
0
  5
5DF
 10
268.970
 20
127.497
 30
0.000000
  70
    32
  0
VERTEX
  8
0
  5
5E0
 10
268.964
 20
127.493
 30
0.000000
  70
    32
  0
VERTEX
  8
0
  5
5E1
 10
268.959
 20
127.489
 30
0.000000
  70
    32
  0
VERTEX
  8
0
  5
5E2
 10
268.953
 20
127.486
 30
0.000000
  70
    32
  0
VERTEX
  8
0
  5
5E3
 10
268.947
 20
127.482
 30
0.000000
  70
    32
  0
VERTEX
  8
0
  5
5E4
 10
268.941
 20
127.479
 30
0.000000
  70
    32
  0
VERTEX
  8
0
  5
5E5
 10
268.936
 20
127.475
 30
0.000000
  70
    32
  0
VERTEX
  8
0
  5
5E6
 10
268.930
 20
127.472
 30
0.000000
  70
    32
  0
VERTEX
  8
0
  5
5E7
 10
268.924
 20
127.468
 30
0.000000
  70
    32
  0
VERTEX
  8
0
  5
5E8
 10
268.918
 20
127.465
 30
0.000000
  70
    32
  0
VERTEX
  8
0
  5
5E9
 10
268.912
 20
127.462
 30
0.000000
  70
    32
  0
VERTEX
  8
0
  5
5EA
 10
268.907
 20
127.458
 30
0.000000
  70
    32
  0
VERTEX
  8
0
  5
5EB
 10
268.901
 20
127.455
 30
0.000000
  70
    32
  0
VERTEX
  8
0
  5
5EC
 10
268.895
 20
127.451
 30
0.000000
  70
    32
  0
VERTEX
  8
0
  5
5ED
 10
268.889
 20
127.448
 30
0.000000
  70
    32
  0
VERTEX
  8
0
  5
5EE
 10
268.883
 20
127.445
 30
0.000000
  70
    32
  0
VERTEX
  8
0
  5
5EF
 10
268.877
 20
127.442
 30
0.000000
  70
    32
  0
VERTEX
  8
0
  5
5F0
 10
268.871
 20
127.438
 30
0.000000
  70
    32
  0
VERTEX
  8
0
  5
5F1
 10
268.865
 20
127.435
 30
0.000000
  70
    32
  0
VERTEX
  8
0
  5
5F2
 10
268.860
 20
127.432
 30
0.000000
  70
    32
  0
VERTEX
  8
0
  5
5F3
 10
268.854
 20
127.429
 30
0.000000
  70
    32
  0
VERTEX
  8
0
  5
5F4
 10
268.848
 20
127.426
 30
0.000000
  70
    32
  0
VERTEX
  8
0
  5
5F5
 10
268.842
 20
127.423
 30
0.000000
  70
    32
  0
VERTEX
  8
0
  5
5F6
 10
268.836
 20
127.420
 30
0.000000
  70
    32
  0
VERTEX
  8
0
  5
5F7
 10
268.830
 20
127.416
 30
0.000000
  70
    32
  0
VERTEX
  8
0
  5
5F8
 10
268.824
 20
127.413
 30
0.000000
  70
    32
  0
VERTEX
  8
0
  5
5F9
 10
268.818
 20
127.410
 30
0.000000
  70
    32
  0
VERTEX
  8
0
  5
5FA
 10
268.812
 20
127.407
 30
0.000000
  70
    32
  0
VERTEX
  8
0
  5
5FB
 10
268.806
 20
127.404
 30
0.000000
  70
    32
  0
VERTEX
  8
0
  5
5FC
 10
268.800
 20
127.401
 30
0.000000
  70
    32
  0
VERTEX
  8
0
  5
5FD
 10
268.794
 20
127.398
 30
0.000000
  70
    32
  0
VERTEX
  8
0
  5
5FE
 10
268.788
 20
127.395
 30
0.000000
  70
    32
  0
VERTEX
  8
0
  5
5FF
 10
268.782
 20
127.393
 30
0.000000
  70
    32
  0
VERTEX
  8
0
  5
600
 10
268.776
 20
127.390
 30
0.000000
  70
    32
  0
VERTEX
  8
0
  5
601
 10
268.770
 20
127.387
 30
0.000000
  70
    32
  0
VERTEX
  8
0
  5
602
 10
268.764
 20
127.384
 30
0.000000
  70
    32
  0
VERTEX
  8
0
  5
603
 10
268.758
 20
127.381
 30
0.000000
  70
    32
  0
VERTEX
  8
0
  5
604
 10
268.752
 20
127.378
 30
0.000000
  70
    32
  0
VERTEX
  8
0
  5
605
 10
268.745
 20
127.375
 30
0.000000
  70
    32
  0
VERTEX
  8
0
  5
606
 10
268.739
 20
127.373
 30
0.000000
  70
    32
  0
VERTEX
  8
0
  5
607
 10
268.733
 20
127.370
 30
0.000000
  70
    32
  0
VERTEX
  8
0
  5
608
 10
268.727
 20
127.367
 30
0.000000
  70
    32
  0
VERTEX
  8
0
  5
609
 10
268.721
 20
127.364
 30
0.000000
  70
    32
  0
VERTEX
  8
0
  5
60A
 10
268.715
 20
127.362
 30
0.000000
  70
    32
  0
VERTEX
  8
0
  5
60B
 10
268.709
 20
127.359
 30
0.000000
  70
    32
  0
VERTEX
  8
0
  5
60C
 10
268.703
 20
127.356
 30
0.000000
  70
    32
  0
VERTEX
  8
0
  5
60D
 10
268.697
 20
127.354
 30
0.000000
  70
    32
  0
VERTEX
  8
0
  5
60E
 10
268.690
 20
127.351
 30
0.000000
  70
    32
  0
VERTEX
  8
0
  5
60F
 10
268.684
 20
127.348
 30
0.000000
  70
    32
  0
VERTEX
  8
0
  5
610
 10
268.678
 20
127.346
 30
0.000000
  70
    32
  0
VERTEX
  8
0
  5
611
 10
268.672
 20
127.343
 30
0.000000
  70
    32
  0
VERTEX
  8
0
  5
612
 10
268.666
 20
127.341
 30
0.000000
  70
    32
  0
VERTEX
  8
0
  5
613
 10
268.660
 20
127.338
 30
0.000000
  70
    32
  0
VERTEX
  8
0
  5
614
 10
268.653
 20
127.336
 30
0.000000
  70
    32
  0
VERTEX
  8
0
  5
615
 10
268.647
 20
127.333
 30
0.000000
  70
    32
  0
VERTEX
  8
0
  5
616
 10
268.641
 20
127.331
 30
0.000000
  70
    32
  0
VERTEX
  8
0
  5
617
 10
268.635
 20
127.328
 30
0.000000
  70
    32
  0
VERTEX
  8
0
  5
618
 10
268.628
 20
127.326
 30
0.000000
  70
    32
  0
VERTEX
  8
0
  5
619
 10
268.622
 20
127.323
 30
0.000000
  70
    32
  0
VERTEX
  8
0
  5
61A
 10
268.616
 20
127.321
 30
0.000000
  70
    32
  0
VERTEX
  8
0
  5
61B
 10
268.610
 20
127.318
 30
0.000000
  70
    32
  0
VERTEX
  8
0
  5
61C
 10
268.604
 20
127.316
 30
0.000000
  70
    32
  0
VERTEX
  8
0
  5
61D
 10
268.597
 20
127.313
 30
0.000000
  70
    32
  0
VERTEX
  8
0
  5
61E
 10
268.591
 20
127.311
 30
0.000000
  70
    32
  0
VERTEX
  8
0
  5
61F
 10
268.585
 20
127.309
 30
0.000000
  70
    32
  0
VERTEX
  8
0
  5
620
 10
268.579
 20
127.306
 30
0.000000
  70
    32
  0
VERTEX
  8
0
  5
621
 10
268.572
 20
127.304
 30
0.000000
  70
    32
  0
VERTEX
  8
0
  5
622
 10
268.566
 20
127.302
 30
0.000000
  70
    32
  0
VERTEX
  8
0
  5
623
 10
268.560
 20
127.299
 30
0.000000
  70
    32
  0
VERTEX
  8
0
  5
624
 10
268.553
 20
127.297
 30
0.000000
  70
    32
  0
VERTEX
  8
0
  5
625
 10
268.547
 20
127.295
 30
0.000000
  70
    32
  0
VERTEX
  8
0
  5
626
 10
268.541
 20
127.292
 30
0.000000
  70
    32
  0
VERTEX
  8
0
  5
627
 10
268.534
 20
127.290
 30
0.000000
  70
    32
  0
VERTEX
  8
0
  5
628
 10
268.528
 20
127.288
 30
0.000000
  70
    32
  0
VERTEX
  8
0
  5
629
 10
268.522
 20
127.286
 30
0.000000
  70
    32
  0
VERTEX
  8
0
  5
62A
 10
268.516
 20
127.284
 30
0.000000
  70
    32
  0
VERTEX
  8
0
  5
62B
 10
268.509
 20
127.281
 30
0.000000
  70
    32
  0
VERTEX
  8
0
  5
62C
 10
268.503
 20
127.279
 30
0.000000
  70
    32
  0
VERTEX
  8
0
  5
62D
 10
268.497
 20
127.277
 30
0.000000
  70
    32
  0
VERTEX
  8
0
  5
62E
 10
268.490
 20
127.275
 30
0.000000
  70
    32
  0
VERTEX
  8
0
  5
62F
 10
268.484
 20
127.273
 30
0.000000
  70
    32
  0
VERTEX
  8
0
  5
630
 10
268.477
 20
127.270
 30
0.000000
  70
    32
  0
VERTEX
  8
0
  5
631
 10
268.471
 20
127.268
 30
0.000000
  70
    32
  0
VERTEX
  8
0
  5
632
 10
268.465
 20
127.266
 30
0.000000
  70
    32
  0
VERTEX
  8
0
  5
633
 10
268.458
 20
127.264
 30
0.000000
  70
    32
  0
VERTEX
  8
0
  5
634
 10
268.452
 20
127.262
 30
0.000000
  70
    32
  0
VERTEX
  8
0
  5
635
 10
268.446
 20
127.260
 30
0.000000
  70
    32
  0
VERTEX
  8
0
  5
636
 10
268.439
 20
127.258
 30
0.000000
  70
    32
  0
VERTEX
  8
0
  5
637
 10
268.433
 20
127.256
 30
0.000000
  70
    32
  0
VERTEX
  8
0
  5
638
 10
268.426
 20
127.254
 30
0.000000
  70
    32
  0
VERTEX
  8
0
  5
639
 10
268.420
 20
127.252
 30
0.000000
  70
    32
  0
VERTEX
  8
0
  5
63A
 10
268.414
 20
127.250
 30
0.000000
  70
    32
  0
VERTEX
  8
0
  5
63B
 10
268.407
 20
127.248
 30
0.000000
  70
    32
  0
VERTEX
  8
0
  5
63C
 10
268.401
 20
127.246
 30
0.000000
  70
    32
  0
VERTEX
  8
0
  5
63D
 10
268.394
 20
127.244
 30
0.000000
  70
    32
  0
VERTEX
  8
0
  5
63E
 10
268.388
 20
127.242
 30
0.000000
  70
    32
  0
VERTEX
  8
0
  5
63F
 10
268.382
 20
127.240
 30
0.000000
  70
    32
  0
VERTEX
  8
0
  5
640
 10
268.375
 20
127.238
 30
0.000000
  70
    32
  0
VERTEX
  8
0
  5
641
 10
268.369
 20
127.236
 30
0.000000
  70
    32
  0
VERTEX
  8
0
  5
642
 10
268.362
 20
127.234
 30
0.000000
  70
    32
  0
VERTEX
  8
0
  5
643
 10
268.356
 20
127.232
 30
0.000000
  70
    32
  0
VERTEX
  8
0
  5
644
 10
268.349
 20
127.230
 30
0.000000
  70
    32
  0
VERTEX
  8
0
  5
645
 10
268.343
 20
127.228
 30
0.000000
  70
    32
  0
VERTEX
  8
0
  5
646
 10
268.337
 20
127.226
 30
0.000000
  70
    32
  0
VERTEX
  8
0
  5
647
 10
268.330
 20
127.225
 30
0.000000
  70
    32
  0
VERTEX
  8
0
  5
648
 10
268.324
 20
127.223
 30
0.000000
  70
    32
  0
VERTEX
  8
0
  5
649
 10
268.317
 20
127.221
 30
0.000000
  70
    32
  0
VERTEX
  8
0
  5
64A
 10
268.311
 20
127.219
 30
0.000000
  70
    32
  0
VERTEX
  8
0
  5
64B
 10
268.304
 20
127.217
 30
0.000000
  70
    32
  0
VERTEX
  8
0
  5
64C
 10
268.298
 20
127.215
 30
0.000000
  70
    32
  0
VERTEX
  8
0
  5
64D
 10
268.291
 20
127.214
 30
0.000000
  70
    32
  0
VERTEX
  8
0
  5
64E
 10
268.285
 20
127.212
 30
0.000000
  70
    32
  0
VERTEX
  8
0
  5
64F
 10
268.278
 20
127.210
 30
0.000000
  70
    32
  0
VERTEX
  8
0
  5
650
 10
268.272
 20
127.208
 30
0.000000
  70
    32
  0
VERTEX
  8
0
  5
651
 10
268.265
 20
127.207
 30
0.000000
  70
    32
  0
VERTEX
  8
0
  5
652
 10
268.259
 20
127.205
 30
0.000000
  70
    32
  0
VERTEX
  8
0
  5
653
 10
268.253
 20
127.203
 30
0.000000
  70
    32
  0
VERTEX
  8
0
  5
654
 10
268.246
 20
127.201
 30
0.000000
  70
    32
  0
VERTEX
  8
0
  5
655
 10
268.240
 20
127.200
 30
0.000000
  70
    32
  0
VERTEX
  8
0
  5
656
 10
268.233
 20
127.198
 30
0.000000
  70
    32
  0
VERTEX
  8
0
  5
657
 10
268.227
 20
127.196
 30
0.000000
  70
    32
  0
VERTEX
  8
0
  5
658
 10
268.220
 20
127.195
 30
0.000000
  70
    32
  0
VERTEX
  8
0
  5
659
 10
268.214
 20
127.193
 30
0.000000
  70
    32
  0
VERTEX
  8
0
  5
65A
 10
268.207
 20
127.191
 30
0.000000
  70
    32
  0
VERTEX
  8
0
  5
65B
 10
268.201
 20
127.190
 30
0.000000
  70
    32
  0
VERTEX
  8
0
  5
65C
 10
268.194
 20
127.188
 30
0.000000
  70
    32
  0
VERTEX
  8
0
  5
65D
 10
268.188
 20
127.186
 30
0.000000
  70
    32
  0
VERTEX
  8
0
  5
65E
 10
268.181
 20
127.185
 30
0.000000
  70
    32
  0
VERTEX
  8
0
  5
65F
 10
268.174
 20
127.183
 30
0.000000
  70
    32
  0
VERTEX
  8
0
  5
660
 10
268.168
 20
127.182
 30
0.000000
  70
    32
  0
VERTEX
  8
0
  5
661
 10
268.161
 20
127.180
 30
0.000000
  70
    32
  0
VERTEX
  8
0
  5
662
 10
268.155
 20
127.178
 30
0.000000
  70
    32
  0
VERTEX
  8
0
  5
663
 10
268.148
 20
127.177
 30
0.000000
  70
    32
  0
VERTEX
  8
0
  5
664
 10
268.142
 20
127.175
 30
0.000000
  70
    32
  0
VERTEX
  8
0
  5
665
 10
268.135
 20
127.174
 30
0.000000
  70
    32
  0
VERTEX
  8
0
  5
666
 10
268.129
 20
127.172
 30
0.000000
  70
    32
  0
VERTEX
  8
0
  5
667
 10
268.122
 20
127.171
 30
0.000000
  70
    32
  0
VERTEX
  8
0
  5
668
 10
268.116
 20
127.169
 30
0.000000
  70
    32
  0
VERTEX
  8
0
  5
669
 10
268.109
 20
127.168
 30
0.000000
  70
    32
  0
VERTEX
  8
0
  5
66A
 10
268.103
 20
127.166
 30
0.000000
  70
    32
  0
VERTEX
  8
0
  5
66B
 10
268.096
 20
127.165
 30
0.000000
  70
    32
  0
VERTEX
  8
0
  5
66C
 10
268.090
 20
127.163
 30
0.000000
  70
    32
  0
VERTEX
  8
0
  5
66D
 10
268.083
 20
127.162
 30
0.000000
  70
    32
  0
SEQEND
  8
0
  5
66E
  0
POLYLINE
  8
0
  5
66F
  62
7
  66
     1
 10
0.000000
 20
0.000000
 30
0.000000
  70
     8
  0
VERTEX
  8
0
  5
670
 10
268.083
 20
127.162
 30
0.000000
  70
    32
  0
VERTEX
  8
0
  5
671
 10
268.073
 20
127.159
 30
0.000000
  70
    32
  0
VERTEX
  8
0
  5
672
 10
268.063
 20
127.157
 30
0.000000
  70
    32
  0
VERTEX
  8
0
  5
673
 10
268.053
 20
127.155
 30
0.000000
  70
    32
  0
VERTEX
  8
0
  5
674
 10
268.044
 20
127.153
 30
0.000000
  70
    32
  0
VERTEX
  8
0
  5
675
 10
268.034
 20
127.151
 30
0.000000
  70
    32
  0
VERTEX
  8
0
  5
676
 10
268.024
 20
127.149
 30
0.000000
  70
    32
  0
VERTEX
  8
0
  5
677
 10
268.014
 20
127.147
 30
0.000000
  70
    32
  0
VERTEX
  8
0
  5
678
 10
268.004
 20
127.145
 30
0.000000
  70
    32
  0
VERTEX
  8
0
  5
679
 10
267.994
 20
127.143
 30
0.000000
  70
    32
  0
VERTEX
  8
0
  5
67A
 10
267.984
 20
127.140
 30
0.000000
  70
    32
  0
VERTEX
  8
0
  5
67B
 10
267.974
 20
127.138
 30
0.000000
  70
    32
  0
VERTEX
  8
0
  5
67C
 10
267.964
 20
127.136
 30
0.000000
  70
    32
  0
VERTEX
  8
0
  5
67D
 10
267.954
 20
127.135
 30
0.000000
  70
    32
  0
VERTEX
  8
0
  5
67E
 10
267.944
 20
127.133
 30
0.000000
  70
    32
  0
VERTEX
  8
0
  5
67F
 10
267.934
 20
127.131
 30
0.000000
  70
    32
  0
VERTEX
  8
0
  5
680
 10
267.924
 20
127.129
 30
0.000000
  70
    32
  0
VERTEX
  8
0
  5
681
 10
267.915
 20
127.127
 30
0.000000
  70
    32
  0
VERTEX
  8
0
  5
682
 10
267.905
 20
127.125
 30
0.000000
  70
    32
  0
VERTEX
  8
0
  5
683
 10
267.895
 20
127.123
 30
0.000000
  70
    32
  0
VERTEX
  8
0
  5
684
 10
267.885
 20
127.121
 30
0.000000
  70
    32
  0
VERTEX
  8
0
  5
685
 10
267.875
 20
127.119
 30
0.000000
  70
    32
  0
VERTEX
  8
0
  5
686
 10
267.865
 20
127.118
 30
0.000000
  70
    32
  0
VERTEX
  8
0
  5
687
 10
267.855
 20
127.116
 30
0.000000
  70
    32
  0
VERTEX
  8
0
  5
688
 10
267.845
 20
127.114
 30
0.000000
  70
    32
  0
VERTEX
  8
0
  5
689
 10
267.835
 20
127.112
 30
0.000000
  70
    32
  0
VERTEX
  8
0
  5
68A
 10
267.825
 20
127.111
 30
0.000000
  70
    32
  0
VERTEX
  8
0
  5
68B
 10
267.815
 20
127.109
 30
0.000000
  70
    32
  0
VERTEX
  8
0
  5
68C
 10
267.805
 20
127.107
 30
0.000000
  70
    32
  0
VERTEX
  8
0
  5
68D
 10
267.795
 20
127.106
 30
0.000000
  70
    32
  0
VERTEX
  8
0
  5
68E
 10
267.785
 20
127.104
 30
0.000000
  70
    32
  0
VERTEX
  8
0
  5
68F
 10
267.775
 20
127.102
 30
0.000000
  70
    32
  0
VERTEX
  8
0
  5
690
 10
267.765
 20
127.101
 30
0.000000
  70
    32
  0
VERTEX
  8
0
  5
691
 10
267.755
 20
127.099
 30
0.000000
  70
    32
  0
VERTEX
  8
0
  5
692
 10
267.745
 20
127.098
 30
0.000000
  70
    32
  0
VERTEX
  8
0
  5
693
 10
267.735
 20
127.096
 30
0.000000
  70
    32
  0
VERTEX
  8
0
  5
694
 10
267.725
 20
127.095
 30
0.000000
  70
    32
  0
VERTEX
  8
0
  5
695
 10
267.715
 20
127.093
 30
0.000000
  70
    32
  0
VERTEX
  8
0
  5
696
 10
267.705
 20
127.092
 30
0.000000
  70
    32
  0
VERTEX
  8
0
  5
697
 10
267.695
 20
127.090
 30
0.000000
  70
    32
  0
VERTEX
  8
0
  5
698
 10
267.685
 20
127.089
 30
0.000000
  70
    32
  0
VERTEX
  8
0
  5
699
 10
267.675
 20
127.087
 30
0.000000
  70
    32
  0
VERTEX
  8
0
  5
69A
 10
267.665
 20
127.086
 30
0.000000
  70
    32
  0
VERTEX
  8
0
  5
69B
 10
267.655
 20
127.084
 30
0.000000
  70
    32
  0
VERTEX
  8
0
  5
69C
 10
267.644
 20
127.083
 30
0.000000
  70
    32
  0
VERTEX
  8
0
  5
69D
 10
267.634
 20
127.082
 30
0.000000
  70
    32
  0
VERTEX
  8
0
  5
69E
 10
267.624
 20
127.080
 30
0.000000
  70
    32
  0
VERTEX
  8
0
  5
69F
 10
267.614
 20
127.079
 30
0.000000
  70
    32
  0
VERTEX
  8
0
  5
6A0
 10
267.604
 20
127.078
 30
0.000000
  70
    32
  0
VERTEX
  8
0
  5
6A1
 10
267.594
 20
127.076
 30
0.000000
  70
    32
  0
VERTEX
  8
0
  5
6A2
 10
267.584
 20
127.075
 30
0.000000
  70
    32
  0
VERTEX
  8
0
  5
6A3
 10
267.574
 20
127.074
 30
0.000000
  70
    32
  0
VERTEX
  8
0
  5
6A4
 10
267.564
 20
127.073
 30
0.000000
  70
    32
  0
VERTEX
  8
0
  5
6A5
 10
267.554
 20
127.071
 30
0.000000
  70
    32
  0
VERTEX
  8
0
  5
6A6
 10
267.544
 20
127.070
 30
0.000000
  70
    32
  0
VERTEX
  8
0
  5
6A7
 10
267.534
 20
127.069
 30
0.000000
  70
    32
  0
VERTEX
  8
0
  5
6A8
 10
267.524
 20
127.068
 30
0.000000
  70
    32
  0
VERTEX
  8
0
  5
6A9
 10
267.514
 20
127.067
 30
0.000000
  70
    32
  0
VERTEX
  8
0
  5
6AA
 10
267.504
 20
127.065
 30
0.000000
  70
    32
  0
VERTEX
  8
0
  5
6AB
 10
267.494
 20
127.064
 30
0.000000
  70
    32
  0
VERTEX
  8
0
  5
6AC
 10
267.484
 20
127.063
 30
0.000000
  70
    32
  0
VERTEX
  8
0
  5
6AD
 10
267.474
 20
127.062
 30
0.000000
  70
    32
  0
VERTEX
  8
0
  5
6AE
 10
267.463
 20
127.061
 30
0.000000
  70
    32
  0
VERTEX
  8
0
  5
6AF
 10
267.453
 20
127.060
 30
0.000000
  70
    32
  0
VERTEX
  8
0
  5
6B0
 10
267.443
 20
127.059
 30
0.000000
  70
    32
  0
VERTEX
  8
0
  5
6B1
 10
267.433
 20
127.058
 30
0.000000
  70
    32
  0
VERTEX
  8
0
  5
6B2
 10
267.423
 20
127.057
 30
0.000000
  70
    32
  0
VERTEX
  8
0
  5
6B3
 10
267.413
 20
127.056
 30
0.000000
  70
    32
  0
VERTEX
  8
0
  5
6B4
 10
267.403
 20
127.055
 30
0.000000
  70
    32
  0
VERTEX
  8
0
  5
6B5
 10
267.393
 20
127.054
 30
0.000000
  70
    32
  0
VERTEX
  8
0
  5
6B6
 10
267.383
 20
127.053
 30
0.000000
  70
    32
  0
VERTEX
  8
0
  5
6B7
 10
267.373
 20
127.052
 30
0.000000
  70
    32
  0
VERTEX
  8
0
  5
6B8
 10
267.363
 20
127.051
 30
0.000000
  70
    32
  0
VERTEX
  8
0
  5
6B9
 10
267.352
 20
127.050
 30
0.000000
  70
    32
  0
VERTEX
  8
0
  5
6BA
 10
267.342
 20
127.049
 30
0.000000
  70
    32
  0
VERTEX
  8
0
  5
6BB
 10
267.332
 20
127.049
 30
0.000000
  70
    32
  0
VERTEX
  8
0
  5
6BC
 10
267.322
 20
127.048
 30
0.000000
  70
    32
  0
VERTEX
  8
0
  5
6BD
 10
267.312
 20
127.047
 30
0.000000
  70
    32
  0
VERTEX
  8
0
  5
6BE
 10
267.302
 20
127.046
 30
0.000000
  70
    32
  0
VERTEX
  8
0
  5
6BF
 10
267.292
 20
127.045
 30
0.000000
  70
    32
  0
VERTEX
  8
0
  5
6C0
 10
267.282
 20
127.044
 30
0.000000
  70
    32
  0
VERTEX
  8
0
  5
6C1
 10
267.272
 20
127.044
 30
0.000000
  70
    32
  0
VERTEX
  8
0
  5
6C2
 10
267.262
 20
127.043
 30
0.000000
  70
    32
  0
VERTEX
  8
0
  5
6C3
 10
267.252
 20
127.042
 30
0.000000
  70
    32
  0
VERTEX
  8
0
  5
6C4
 10
267.241
 20
127.042
 30
0.000000
  70
    32
  0
VERTEX
  8
0
  5
6C5
 10
267.231
 20
127.041
 30
0.000000
  70
    32
  0
VERTEX
  8
0
  5
6C6
 10
267.221
 20
127.040
 30
0.000000
  70
    32
  0
VERTEX
  8
0
  5
6C7
 10
267.211
 20
127.039
 30
0.000000
  70
    32
  0
VERTEX
  8
0
  5
6C8
 10
267.201
 20
127.039
 30
0.000000
  70
    32
  0
VERTEX
  8
0
  5
6C9
 10
267.191
 20
127.038
 30
0.000000
  70
    32
  0
VERTEX
  8
0
  5
6CA
 10
267.181
 20
127.038
 30
0.000000
  70
    32
  0
VERTEX
  8
0
  5
6CB
 10
267.171
 20
127.037
 30
0.000000
  70
    32
  0
VERTEX
  8
0
  5
6CC
 10
267.161
 20
127.036
 30
0.000000
  70
    32
  0
VERTEX
  8
0
  5
6CD
 10
267.150
 20
127.036
 30
0.000000
  70
    32
  0
VERTEX
  8
0
  5
6CE
 10
267.140
 20
127.035
 30
0.000000
  70
    32
  0
VERTEX
  8
0
  5
6CF
 10
267.130
 20
127.035
 30
0.000000
  70
    32
  0
VERTEX
  8
0
  5
6D0
 10
267.120
 20
127.034
 30
0.000000
  70
    32
  0
VERTEX
  8
0
  5
6D1
 10
267.110
 20
127.034
 30
0.000000
  70
    32
  0
VERTEX
  8
0
  5
6D2
 10
267.100
 20
127.033
 30
0.000000
  70
    32
  0
VERTEX
  8
0
  5
6D3
 10
267.090
 20
127.033
 30
0.000000
  70
    32
  0
VERTEX
  8
0
  5
6D4
 10
267.080
 20
127.032
 30
0.000000
  70
    32
  0
VERTEX
  8
0
  5
6D5
 10
267.069
 20
127.032
 30
0.000000
  70
    32
  0
VERTEX
  8
0
  5
6D6
 10
267.059
 20
127.031
 30
0.000000
  70
    32
  0
VERTEX
  8
0
  5
6D7
 10
267.049
 20
127.031
 30
0.000000
  70
    32
  0
VERTEX
  8
0
  5
6D8
 10
267.039
 20
127.031
 30
0.000000
  70
    32
  0
VERTEX
  8
0
  5
6D9
 10
267.029
 20
127.030
 30
0.000000
  70
    32
  0
VERTEX
  8
0
  5
6DA
 10
267.019
 20
127.030
 30
0.000000
  70
    32
  0
VERTEX
  8
0
  5
6DB
 10
267.009
 20
127.030
 30
0.000000
  70
    32
  0
VERTEX
  8
0
  5
6DC
 10
266.999
 20
127.029
 30
0.000000
  70
    32
  0
VERTEX
  8
0
  5
6DD
 10
266.989
 20
127.029
 30
0.000000
  70
    32
  0
VERTEX
  8
0
  5
6DE
 10
266.978
 20
127.029
 30
0.000000
  70
    32
  0
VERTEX
  8
0
  5
6DF
 10
266.968
 20
127.028
 30
0.000000
  70
    32
  0
VERTEX
  8
0
  5
6E0
 10
266.958
 20
127.028
 30
0.000000
  70
    32
  0
VERTEX
  8
0
  5
6E1
 10
266.948
 20
127.028
 30
0.000000
  70
    32
  0
VERTEX
  8
0
  5
6E2
 10
266.938
 20
127.028
 30
0.000000
  70
    32
  0
VERTEX
  8
0
  5
6E3
 10
266.928
 20
127.027
 30
0.000000
  70
    32
  0
VERTEX
  8
0
  5
6E4
 10
266.918
 20
127.027
 30
0.000000
  70
    32
  0
VERTEX
  8
0
  5
6E5
 10
266.907
 20
127.027
 30
0.000000
  70
    32
  0
VERTEX
  8
0
  5
6E6
 10
266.897
 20
127.027
 30
0.000000
  70
    32
  0
VERTEX
  8
0
  5
6E7
 10
266.887
 20
127.027
 30
0.000000
  70
    32
  0
VERTEX
  8
0
  5
6E8
 10
266.877
 20
127.027
 30
0.000000
  70
    32
  0
VERTEX
  8
0
  5
6E9
 10
266.867
 20
127.026
 30
0.000000
  70
    32
  0
VERTEX
  8
0
  5
6EA
 10
266.857
 20
127.026
 30
0.000000
  70
    32
  0
VERTEX
  8
0
  5
6EB
 10
266.847
 20
127.026
 30
0.000000
  70
    32
  0
VERTEX
  8
0
  5
6EC
 10
266.837
 20
127.026
 30
0.000000
  70
    32
  0
VERTEX
  8
0
  5
6ED
 10
266.826
 20
127.026
 30
0.000000
  70
    32
  0
VERTEX
  8
0
  5
6EE
 10
266.816
 20
127.026
 30
0.000000
  70
    32
  0
VERTEX
  8
0
  5
6EF
 10
266.806
 20
127.026
 30
0.000000
  70
    32
  0
VERTEX
  8
0
  5
6F0
 10
266.796
 20
127.026
 30
0.000000
  70
    32
  0
VERTEX
  8
0
  5
6F1
 10
266.786
 20
127.026
 30
0.000000
  70
    32
  0
VERTEX
  8
0
  5
6F2
 10
266.776
 20
127.026
 30
0.000000
  70
    32
  0
VERTEX
  8
0
  5
6F3
 10
266.766
 20
127.026
 30
0.000000
  70
    32
  0
VERTEX
  8
0
  5
6F4
 10
266.756
 20
127.026
 30
0.000000
  70
    32
  0
VERTEX
  8
0
  5
6F5
 10
266.745
 20
127.026
 30
0.000000
  70
    32
  0
VERTEX
  8
0
  5
6F6
 10
266.735
 20
127.027
 30
0.000000
  70
    32
  0
VERTEX
  8
0
  5
6F7
 10
266.725
 20
127.027
 30
0.000000
  70
    32
  0
VERTEX
  8
0
  5
6F8
 10
266.715
 20
127.027
 30
0.000000
  70
    32
  0
VERTEX
  8
0
  5
6F9
 10
266.705
 20
127.027
 30
0.000000
  70
    32
  0
VERTEX
  8
0
  5
6FA
 10
266.695
 20
127.027
 30
0.000000
  70
    32
  0
VERTEX
  8
0
  5
6FB
 10
266.685
 20
127.027
 30
0.000000
  70
    32
  0
VERTEX
  8
0
  5
6FC
 10
266.674
 20
127.027
 30
0.000000
  70
    32
  0
VERTEX
  8
0
  5
6FD
 10
266.664
 20
127.028
 30
0.000000
  70
    32
  0
VERTEX
  8
0
  5
6FE
 10
266.654
 20
127.028
 30
0.000000
  70
    32
  0
VERTEX
  8
0
  5
6FF
 10
266.644
 20
127.028
 30
0.000000
  70
    32
  0
VERTEX
  8
0
  5
700
 10
266.634
 20
127.028
 30
0.000000
  70
    32
  0
VERTEX
  8
0
  5
701
 10
266.624
 20
127.029
 30
0.000000
  70
    32
  0
VERTEX
  8
0
  5
702
 10
266.614
 20
127.029
 30
0.000000
  70
    32
  0
VERTEX
  8
0
  5
703
 10
266.604
 20
127.029
 30
0.000000
  70
    32
  0
VERTEX
  8
0
  5
704
 10
266.593
 20
127.030
 30
0.000000
  70
    32
  0
VERTEX
  8
0
  5
705
 10
266.583
 20
127.030
 30
0.000000
  70
    32
  0
VERTEX
  8
0
  5
706
 10
266.573
 20
127.030
 30
0.000000
  70
    32
  0
VERTEX
  8
0
  5
707
 10
266.563
 20
127.031
 30
0.000000
  70
    32
  0
VERTEX
  8
0
  5
708
 10
266.553
 20
127.031
 30
0.000000
  70
    32
  0
VERTEX
  8
0
  5
709
 10
266.543
 20
127.032
 30
0.000000
  70
    32
  0
VERTEX
  8
0
  5
70A
 10
266.533
 20
127.032
 30
0.000000
  70
    32
  0
VERTEX
  8
0
  5
70B
 10
266.523
 20
127.033
 30
0.000000
  70
    32
  0
VERTEX
  8
0
  5
70C
 10
266.513
 20
127.033
 30
0.000000
  70
    32
  0
VERTEX
  8
0
  5
70D
 10
266.502
 20
127.033
 30
0.000000
  70
    32
  0
VERTEX
  8
0
  5
70E
 10
266.492
 20
127.034
 30
0.000000
  70
    32
  0
VERTEX
  8
0
  5
70F
 10
266.482
 20
127.035
 30
0.000000
  70
    32
  0
VERTEX
  8
0
  5
710
 10
266.472
 20
127.035
 30
0.000000
  70
    32
  0
VERTEX
  8
0
  5
711
 10
266.462
 20
127.036
 30
0.000000
  70
    32
  0
VERTEX
  8
0
  5
712
 10
266.452
 20
127.036
 30
0.000000
  70
    32
  0
VERTEX
  8
0
  5
713
 10
266.442
 20
127.037
 30
0.000000
  70
    32
  0
VERTEX
  8
0
  5
714
 10
266.432
 20
127.037
 30
0.000000
  70
    32
  0
VERTEX
  8
0
  5
715
 10
266.421
 20
127.038
 30
0.000000
  70
    32
  0
VERTEX
  8
0
  5
716
 10
266.411
 20
127.039
 30
0.000000
  70
    32
  0
VERTEX
  8
0
  5
717
 10
266.401
 20
127.039
 30
0.000000
  70
    32
  0
VERTEX
  8
0
  5
718
 10
266.391
 20
127.040
 30
0.000000
  70
    32
  0
VERTEX
  8
0
  5
719
 10
266.381
 20
127.041
 30
0.000000
  70
    32
  0
VERTEX
  8
0
  5
71A
 10
266.371
 20
127.041
 30
0.000000
  70
    32
  0
VERTEX
  8
0
  5
71B
 10
266.361
 20
127.042
 30
0.000000
  70
    32
  0
VERTEX
  8
0
  5
71C
 10
266.351
 20
127.043
 30
0.000000
  70
    32
  0
VERTEX
  8
0
  5
71D
 10
266.341
 20
127.044
 30
0.000000
  70
    32
  0
VERTEX
  8
0
  5
71E
 10
266.331
 20
127.045
 30
0.000000
  70
    32
  0
VERTEX
  8
0
  5
71F
 10
266.320
 20
127.045
 30
0.000000
  70
    32
  0
VERTEX
  8
0
  5
720
 10
266.310
 20
127.046
 30
0.000000
  70
    32
  0
VERTEX
  8
0
  5
721
 10
266.300
 20
127.047
 30
0.000000
  70
    32
  0
VERTEX
  8
0
  5
722
 10
266.290
 20
127.048
 30
0.000000
  70
    32
  0
VERTEX
  8
0
  5
723
 10
266.280
 20
127.049
 30
0.000000
  70
    32
  0
VERTEX
  8
0
  5
724
 10
266.270
 20
127.050
 30
0.000000
  70
    32
  0
VERTEX
  8
0
  5
725
 10
266.260
 20
127.051
 30
0.000000
  70
    32
  0
VERTEX
  8
0
  5
726
 10
266.250
 20
127.052
 30
0.000000
  70
    32
  0
VERTEX
  8
0
  5
727
 10
266.240
 20
127.053
 30
0.000000
  70
    32
  0
VERTEX
  8
0
  5
728
 10
266.230
 20
127.054
 30
0.000000
  70
    32
  0
VERTEX
  8
0
  5
729
 10
266.220
 20
127.055
 30
0.000000
  70
    32
  0
VERTEX
  8
0
  5
72A
 10
266.209
 20
127.056
 30
0.000000
  70
    32
  0
VERTEX
  8
0
  5
72B
 10
266.199
 20
127.057
 30
0.000000
  70
    32
  0
VERTEX
  8
0
  5
72C
 10
266.189
 20
127.058
 30
0.000000
  70
    32
  0
VERTEX
  8
0
  5
72D
 10
266.179
 20
127.059
 30
0.000000
  70
    32
  0
VERTEX
  8
0
  5
72E
 10
266.169
 20
127.060
 30
0.000000
  70
    32
  0
VERTEX
  8
0
  5
72F
 10
266.159
 20
127.061
 30
0.000000
  70
    32
  0
VERTEX
  8
0
  5
730
 10
266.149
 20
127.062
 30
0.000000
  70
    32
  0
VERTEX
  8
0
  5
731
 10
266.139
 20
127.063
 30
0.000000
  70
    32
  0
VERTEX
  8
0
  5
732
 10
266.129
 20
127.064
 30
0.000000
  70
    32
  0
VERTEX
  8
0
  5
733
 10
266.119
 20
127.066
 30
0.000000
  70
    32
  0
VERTEX
  8
0
  5
734
 10
266.109
 20
127.067
 30
0.000000
  70
    32
  0
VERTEX
  8
0
  5
735
 10
266.099
 20
127.068
 30
0.000000
  70
    32
  0
VERTEX
  8
0
  5
736
 10
266.089
 20
127.069
 30
0.000000
  70
    32
  0
VERTEX
  8
0
  5
737
 10
266.079
 20
127.071
 30
0.000000
  70
    32
  0
VERTEX
  8
0
  5
738
 10
266.069
 20
127.072
 30
0.000000
  70
    32
  0
VERTEX
  8
0
  5
739
 10
266.059
 20
127.073
 30
0.000000
  70
    32
  0
VERTEX
  8
0
  5
73A
 10
266.048
 20
127.075
 30
0.000000
  70
    32
  0
VERTEX
  8
0
  5
73B
 10
266.038
 20
127.076
 30
0.000000
  70
    32
  0
VERTEX
  8
0
  5
73C
 10
266.028
 20
127.077
 30
0.000000
  70
    32
  0
VERTEX
  8
0
  5
73D
 10
266.018
 20
127.079
 30
0.000000
  70
    32
  0
VERTEX
  8
0
  5
73E
 10
266.008
 20
127.080
 30
0.000000
  70
    32
  0
VERTEX
  8
0
  5
73F
 10
265.998
 20
127.082
 30
0.000000
  70
    32
  0
VERTEX
  8
0
  5
740
 10
265.988
 20
127.083
 30
0.000000
  70
    32
  0
VERTEX
  8
0
  5
741
 10
265.978
 20
127.085
 30
0.000000
  70
    32
  0
VERTEX
  8
0
  5
742
 10
265.968
 20
127.086
 30
0.000000
  70
    32
  0
VERTEX
  8
0
  5
743
 10
265.958
 20
127.088
 30
0.000000
  70
    32
  0
VERTEX
  8
0
  5
744
 10
265.948
 20
127.089
 30
0.000000
  70
    32
  0
VERTEX
  8
0
  5
745
 10
265.938
 20
127.091
 30
0.000000
  70
    32
  0
VERTEX
  8
0
  5
746
 10
265.928
 20
127.093
 30
0.000000
  70
    32
  0
VERTEX
  8
0
  5
747
 10
265.918
 20
127.094
 30
0.000000
  70
    32
  0
VERTEX
  8
0
  5
748
 10
265.908
 20
127.096
 30
0.000000
  70
    32
  0
VERTEX
  8
0
  5
749
 10
265.898
 20
127.098
 30
0.000000
  70
    32
  0
VERTEX
  8
0
  5
74A
 10
265.888
 20
127.099
 30
0.000000
  70
    32
  0
VERTEX
  8
0
  5
74B
 10
265.878
 20
127.101
 30
0.000000
  70
    32
  0
VERTEX
  8
0
  5
74C
 10
265.868
 20
127.103
 30
0.000000
  70
    32
  0
VERTEX
  8
0
  5
74D
 10
265.858
 20
127.105
 30
0.000000
  70
    32
  0
VERTEX
  8
0
  5
74E
 10
265.848
 20
127.106
 30
0.000000
  70
    32
  0
VERTEX
  8
0
  5
74F
 10
265.838
 20
127.108
 30
0.000000
  70
    32
  0
VERTEX
  8
0
  5
750
 10
265.828
 20
127.110
 30
0.000000
  70
    32
  0
VERTEX
  8
0
  5
751
 10
265.818
 20
127.112
 30
0.000000
  70
    32
  0
VERTEX
  8
0
  5
752
 10
265.809
 20
127.114
 30
0.000000
  70
    32
  0
VERTEX
  8
0
  5
753
 10
265.799
 20
127.116
 30
0.000000
  70
    32
  0
VERTEX
  8
0
  5
754
 10
265.789
 20
127.118
 30
0.000000
  70
    32
  0
VERTEX
  8
0
  5
755
 10
265.779
 20
127.120
 30
0.000000
  70
    32
  0
VERTEX
  8
0
  5
756
 10
265.769
 20
127.122
 30
0.000000
  70
    32
  0
VERTEX
  8
0
  5
757
 10
265.759
 20
127.124
 30
0.000000
  70
    32
  0
VERTEX
  8
0
  5
758
 10
265.749
 20
127.126
 30
0.000000
  70
    32
  0
VERTEX
  8
0
  5
759
 10
265.739
 20
127.128
 30
0.000000
  70
    32
  0
VERTEX
  8
0
  5
75A
 10
265.729
 20
127.130
 30
0.000000
  70
    32
  0
VERTEX
  8
0
  5
75B
 10
265.719
 20
127.132
 30
0.000000
  70
    32
  0
VERTEX
  8
0
  5
75C
 10
265.709
 20
127.135
 30
0.000000
  70
    32
  0
VERTEX
  8
0
  5
75D
 10
265.699
 20
127.137
 30
0.000000
  70
    32
  0
VERTEX
  8
0
  5
75E
 10
265.690
 20
127.139
 30
0.000000
  70
    32
  0
VERTEX
  8
0
  5
75F
 10
265.680
 20
127.141
 30
0.000000
  70
    32
  0
VERTEX
  8
0
  5
760
 10
265.670
 20
127.144
 30
0.000000
  70
    32
  0
VERTEX
  8
0
  5
761
 10
265.660
 20
127.146
 30
0.000000
  70
    32
  0
VERTEX
  8
0
  5
762
 10
265.650
 20
127.148
 30
0.000000
  70
    32
  0
VERTEX
  8
0
  5
763
 10
265.640
 20
127.151
 30
0.000000
  70
    32
  0
VERTEX
  8
0
  5
764
 10
265.630
 20
127.153
 30
0.000000
  70
    32
  0
VERTEX
  8
0
  5
765
 10
265.620
 20
127.156
 30
0.000000
  70
    32
  0
VERTEX
  8
0
  5
766
 10
265.611
 20
127.158
 30
0.000000
  70
    32
  0
VERTEX
  8
0
  5
767
 10
265.601
 20
127.161
 30
0.000000
  70
    32
  0
VERTEX
  8
0
  5
768
 10
265.591
 20
127.163
 30
0.000000
  70
    32
  0
VERTEX
  8
0
  5
769
 10
265.581
 20
127.166
 30
0.000000
  70
    32
  0
VERTEX
  8
0
  5
76A
 10
265.571
 20
127.168
 30
0.000000
  70
    32
  0
VERTEX
  8
0
  5
76B
 10
265.562
 20
127.171
 30
0.000000
  70
    32
  0
VERTEX
  8
0
  5
76C
 10
265.552
 20
127.174
 30
0.000000
  70
    32
  0
VERTEX
  8
0
  5
76D
 10
265.542
 20
127.176
 30
0.000000
  70
    32
  0
VERTEX
  8
0
  5
76E
 10
265.532
 20
127.179
 30
0.000000
  70
    32
  0
VERTEX
  8
0
  5
76F
 10
265.522
 20
127.182
 30
0.000000
  70
    32
  0
VERTEX
  8
0
  5
770
 10
265.513
 20
127.185
 30
0.000000
  70
    32
  0
VERTEX
  8
0
  5
771
 10
265.503
 20
127.187
 30
0.000000
  70
    32
  0
VERTEX
  8
0
  5
772
 10
265.493
 20
127.190
 30
0.000000
  70
    32
  0
VERTEX
  8
0
  5
773
 10
265.484
 20
127.193
 30
0.000000
  70
    32
  0
VERTEX
  8
0
  5
774
 10
265.474
 20
127.196
 30
0.000000
  70
    32
  0
VERTEX
  8
0
  5
775
 10
265.464
 20
127.199
 30
0.000000
  70
    32
  0
VERTEX
  8
0
  5
776
 10
265.454
 20
127.202
 30
0.000000
  70
    32
  0
VERTEX
  8
0
  5
777
 10
265.445
 20
127.205
 30
0.000000
  70
    32
  0
VERTEX
  8
0
  5
778
 10
265.435
 20
127.208
 30
0.000000
  70
    32
  0
VERTEX
  8
0
  5
779
 10
265.425
 20
127.211
 30
0.000000
  70
    32
  0
VERTEX
  8
0
  5
77A
 10
265.416
 20
127.215
 30
0.000000
  70
    32
  0
VERTEX
  8
0
  5
77B
 10
265.406
 20
127.218
 30
0.000000
  70
    32
  0
VERTEX
  8
0
  5
77C
 10
265.397
 20
127.221
 30
0.000000
  70
    32
  0
VERTEX
  8
0
  5
77D
 10
265.387
 20
127.224
 30
0.000000
  70
    32
  0
VERTEX
  8
0
  5
77E
 10
265.377
 20
127.228
 30
0.000000
  70
    32
  0
VERTEX
  8
0
  5
77F
 10
265.368
 20
127.231
 30
0.000000
  70
    32
  0
VERTEX
  8
0
  5
780
 10
265.358
 20
127.234
 30
0.000000
  70
    32
  0
VERTEX
  8
0
  5
781
 10
265.349
 20
127.238
 30
0.000000
  70
    32
  0
VERTEX
  8
0
  5
782
 10
265.339
 20
127.241
 30
0.000000
  70
    32
  0
VERTEX
  8
0
  5
783
 10
265.330
 20
127.245
 30
0.000000
  70
    32
  0
VERTEX
  8
0
  5
784
 10
265.320
 20
127.249
 30
0.000000
  70
    32
  0
VERTEX
  8
0
  5
785
 10
265.311
 20
127.252
 30
0.000000
  70
    32
  0
VERTEX
  8
0
  5
786
 10
265.301
 20
127.256
 30
0.000000
  70
    32
  0
VERTEX
  8
0
  5
787
 10
265.292
 20
127.259
 30
0.000000
  70
    32
  0
VERTEX
  8
0
  5
788
 10
265.283
 20
127.263
 30
0.000000
  70
    32
  0
VERTEX
  8
0
  5
789
 10
265.273
 20
127.267
 30
0.000000
  70
    32
  0
VERTEX
  8
0
  5
78A
 10
265.264
 20
127.271
 30
0.000000
  70
    32
  0
VERTEX
  8
0
  5
78B
 10
265.254
 20
127.275
 30
0.000000
  70
    32
  0
VERTEX
  8
0
  5
78C
 10
265.245
 20
127.279
 30
0.000000
  70
    32
  0
VERTEX
  8
0
  5
78D
 10
265.236
 20
127.283
 30
0.000000
  70
    32
  0
VERTEX
  8
0
  5
78E
 10
265.226
 20
127.287
 30
0.000000
  70
    32
  0
VERTEX
  8
0
  5
78F
 10
265.217
 20
127.291
 30
0.000000
  70
    32
  0
VERTEX
  8
0
  5
790
 10
265.208
 20
127.295
 30
0.000000
  70
    32
  0
VERTEX
  8
0
  5
791
 10
265.199
 20
127.299
 30
0.000000
  70
    32
  0
VERTEX
  8
0
  5
792
 10
265.189
 20
127.303
 30
0.000000
  70
    32
  0
VERTEX
  8
0
  5
793
 10
265.180
 20
127.307
 30
0.000000
  70
    32
  0
VERTEX
  8
0
  5
794
 10
265.171
 20
127.312
 30
0.000000
  70
    32
  0
VERTEX
  8
0
  5
795
 10
265.162
 20
127.316
 30
0.000000
  70
    32
  0
VERTEX
  8
0
  5
796
 10
265.153
 20
127.320
 30
0.000000
  70
    32
  0
VERTEX
  8
0
  5
797
 10
265.144
 20
127.325
 30
0.000000
  70
    32
  0
VERTEX
  8
0
  5
798
 10
265.135
 20
127.329
 30
0.000000
  70
    32
  0
VERTEX
  8
0
  5
799
 10
265.126
 20
127.334
 30
0.000000
  70
    32
  0
VERTEX
  8
0
  5
79A
 10
265.117
 20
127.339
 30
0.000000
  70
    32
  0
VERTEX
  8
0
  5
79B
 10
265.108
 20
127.344
 30
0.000000
  70
    32
  0
VERTEX
  8
0
  5
79C
 10
265.099
 20
127.348
 30
0.000000
  70
    32
  0
VERTEX
  8
0
  5
79D
 10
265.090
 20
127.353
 30
0.000000
  70
    32
  0
VERTEX
  8
0
  5
79E
 10
265.081
 20
127.358
 30
0.000000
  70
    32
  0
VERTEX
  8
0
  5
79F
 10
265.072
 20
127.363
 30
0.000000
  70
    32
  0
VERTEX
  8
0
  5
7A0
 10
265.064
 20
127.369
 30
0.000000
  70
    32
  0
VERTEX
  8
0
  5
7A1
 10
265.055
 20
127.374
 30
0.000000
  70
    32
  0
VERTEX
  8
0
  5
7A2
 10
265.046
 20
127.379
 30
0.000000
  70
    32
  0
VERTEX
  8
0
  5
7A3
 10
265.038
 20
127.385
 30
0.000000
  70
    32
  0
VERTEX
  8
0
  5
7A4
 10
265.029
 20
127.390
 30
0.000000
  70
    32
  0
VERTEX
  8
0
  5
7A5
 10
265.021
 20
127.396
 30
0.000000
  70
    32
  0
VERTEX
  8
0
  5
7A6
 10
265.012
 20
127.401
 30
0.000000
  70
    32
  0
VERTEX
  8
0
  5
7A7
 10
265.004
 20
127.407
 30
0.000000
  70
    32
  0
VERTEX
  8
0
  5
7A8
 10
264.996
 20
127.413
 30
0.000000
  70
    32
  0
VERTEX
  8
0
  5
7A9
 10
264.988
 20
127.419
 30
0.000000
  70
    32
  0
VERTEX
  8
0
  5
7AA
 10
264.980
 20
127.425
 30
0.000000
  70
    32
  0
VERTEX
  8
0
  5
7AB
 10
264.971
 20
127.432
 30
0.000000
  70
    32
  0
VERTEX
  8
0
  5
7AC
 10
264.963
 20
127.438
 30
0.000000
  70
    32
  0
VERTEX
  8
0
  5
7AD
 10
264.955
 20
127.445
 30
0.000000
  70
    32
  0
VERTEX
  8
0
  5
7AE
 10
264.948
 20
127.451
 30
0.000000
  70
    32
  0
VERTEX
  8
0
  5
7AF
 10
264.940
 20
127.458
 30
0.000000
  70
    32
  0
VERTEX
  8
0
  5
7B0
 10
264.932
 20
127.465
 30
0.000000
  70
    32
  0
VERTEX
  8
0
  5
7B1
 10
264.924
 20
127.472
 30
0.000000
  70
    32
  0
VERTEX
  8
0
  5
7B2
 10
264.917
 20
127.479
 30
0.000000
  70
    32
  0
VERTEX
  8
0
  5
7B3
 10
264.909
 20
127.486
 30
0.000000
  70
    32
  0
VERTEX
  8
0
  5
7B4
 10
264.902
 20
127.493
 30
0.000000
  70
    32
  0
VERTEX
  8
0
  5
7B5
 10
264.895
 20
127.501
 30
0.000000
  70
    32
  0
VERTEX
  8
0
  5
7B6
 10
264.888
 20
127.509
 30
0.000000
  70
    32
  0
VERTEX
  8
0
  5
7B7
 10
264.881
 20
127.516
 30
0.000000
  70
    32
  0
VERTEX
  8
0
  5
7B8
 10
264.874
 20
127.524
 30
0.000000
  70
    32
  0
VERTEX
  8
0
  5
7B9
 10
264.867
 20
127.532
 30
0.000000
  70
    32
  0
VERTEX
  8
0
  5
7BA
 10
264.860
 20
127.540
 30
0.000000
  70
    32
  0
VERTEX
  8
0
  5
7BB
 10
264.854
 20
127.549
 30
0.000000
  70
    32
  0
VERTEX
  8
0
  5
7BC
 10
264.848
 20
127.557
 30
0.000000
  70
    32
  0
VERTEX
  8
0
  5
7BD
 10
264.842
 20
127.566
 30
0.000000
  70
    32
  0
VERTEX
  8
0
  5
7BE
 10
264.836
 20
127.574
 30
0.000000
  70
    32
  0
VERTEX
  8
0
  5
7BF
 10
264.830
 20
127.583
 30
0.000000
  70
    32
  0
VERTEX
  8
0
  5
7C0
 10
264.825
 20
127.592
 30
0.000000
  70
    32
  0
VERTEX
  8
0
  5
7C1
 10
264.820
 20
127.601
 30
0.000000
  70
    32
  0
VERTEX
  8
0
  5
7C2
 10
264.815
 20
127.610
 30
0.000000
  70
    32
  0
VERTEX
  8
0
  5
7C3
 10
264.810
 20
127.619
 30
0.000000
  70
    32
  0
VERTEX
  8
0
  5
7C4
 10
264.806
 20
127.628
 30
0.000000
  70
    32
  0
VERTEX
  8
0
  5
7C5
 10
264.802
 20
127.637
 30
0.000000
  70
    32
  0
VERTEX
  8
0
  5
7C6
 10
264.798
 20
127.647
 30
0.000000
  70
    32
  0
VERTEX
  8
0
  5
7C7
 10
264.795
 20
127.656
 30
0.000000
  70
    32
  0
VERTEX
  8
0
  5
7C8
 10
264.792
 20
127.666
 30
0.000000
  70
    32
  0
VERTEX
  8
0
  5
7C9
 10
264.790
 20
127.676
 30
0.000000
  70
    32
  0
VERTEX
  8
0
  5
7CA
 10
264.787
 20
127.686
 30
0.000000
  70
    32
  0
VERTEX
  8
0
  5
7CB
 10
264.785
 20
127.696
 30
0.000000
  70
    32
  0
VERTEX
  8
0
  5
7CC
 10
264.784
 20
127.706
 30
0.000000
  70
    32
  0
VERTEX
  8
0
  5
7CD
 10
264.783
 20
127.716
 30
0.000000
  70
    32
  0
VERTEX
  8
0
  5
7CE
 10
264.782
 20
127.726
 30
0.000000
  70
    32
  0
VERTEX
  8
0
  5
7CF
 10
264.782
 20
127.736
 30
0.000000
  70
    32
  0
SEQEND
  8
0
  5
7D0
  0
POLYLINE
  8
0
  5
7D1
  62
7
  66
     1
 10
0.000000
 20
0.000000
 30
0.000000
  70
     8
  0
VERTEX
  8
0
  5
7D2
 10
264.782
 20
127.736
 30
0.000000
  70
    32
  0
VERTEX
  8
0
  5
7D3
 10
264.782
 20
127.743
 30
0.000000
  70
    32
  0
VERTEX
  8
0
  5
7D4
 10
264.782
 20
127.749
 30
0.000000
  70
    32
  0
VERTEX
  8
0
  5
7D5
 10
264.782
 20
127.756
 30
0.000000
  70
    32
  0
VERTEX
  8
0
  5
7D6
 10
264.783
 20
127.763
 30
0.000000
  70
    32
  0
VERTEX
  8
0
  5
7D7
 10
264.783
 20
127.769
 30
0.000000
  70
    32
  0
VERTEX
  8
0
  5
7D8
 10
264.784
 20
127.776
 30
0.000000
  70
    32
  0
VERTEX
  8
0
  5
7D9
 10
264.785
 20
127.783
 30
0.000000
  70
    32
  0
VERTEX
  8
0
  5
7DA
 10
264.786
 20
127.789
 30
0.000000
  70
    32
  0
VERTEX
  8
0
  5
7DB
 10
264.787
 20
127.796
 30
0.000000
  70
    32
  0
VERTEX
  8
0
  5
7DC
 10
264.788
 20
127.803
 30
0.000000
  70
    32
  0
VERTEX
  8
0
  5
7DD
 10
264.790
 20
127.809
 30
0.000000
  70
    32
  0
VERTEX
  8
0
  5
7DE
 10
264.791
 20
127.816
 30
0.000000
  70
    32
  0
VERTEX
  8
0
  5
7DF
 10
264.793
 20
127.823
 30
0.000000
  70
    32
  0
VERTEX
  8
0
  5
7E0
 10
264.795
 20
127.829
 30
0.000000
  70
    32
  0
VERTEX
  8
0
  5
7E1
 10
264.797
 20
127.836
 30
0.000000
  70
    32
  0
VERTEX
  8
0
  5
7E2
 10
264.799
 20
127.842
 30
0.000000
  70
    32
  0
VERTEX
  8
0
  5
7E3
 10
264.801
 20
127.849
 30
0.000000
  70
    32
  0
VERTEX
  8
0
  5
7E4
 10
264.803
 20
127.855
 30
0.000000
  70
    32
  0
VERTEX
  8
0
  5
7E5
 10
264.805
 20
127.862
 30
0.000000
  70
    32
  0
VERTEX
  8
0
  5
7E6
 10
264.808
 20
127.868
 30
0.000000
  70
    32
  0
VERTEX
  8
0
  5
7E7
 10
264.810
 20
127.874
 30
0.000000
  70
    32
  0
VERTEX
  8
0
  5
7E8
 10
264.813
 20
127.880
 30
0.000000
  70
    32
  0
VERTEX
  8
0
  5
7E9
 10
264.816
 20
127.887
 30
0.000000
  70
    32
  0
VERTEX
  8
0
  5
7EA
 10
264.819
 20
127.893
 30
0.000000
  70
    32
  0
VERTEX
  8
0
  5
7EB
 10
264.822
 20
127.899
 30
0.000000
  70
    32
  0
VERTEX
  8
0
  5
7EC
 10
264.825
 20
127.905
 30
0.000000
  70
    32
  0
VERTEX
  8
0
  5
7ED
 10
264.828
 20
127.911
 30
0.000000
  70
    32
  0
VERTEX
  8
0
  5
7EE
 10
264.831
 20
127.917
 30
0.000000
  70
    32
  0
VERTEX
  8
0
  5
7EF
 10
264.834
 20
127.923
 30
0.000000
  70
    32
  0
VERTEX
  8
0
  5
7F0
 10
264.838
 20
127.929
 30
0.000000
  70
    32
  0
VERTEX
  8
0
  5
7F1
 10
264.841
 20
127.935
 30
0.000000
  70
    32
  0
VERTEX
  8
0
  5
7F2
 10
264.845
 20
127.941
 30
0.000000
  70
    32
  0
VERTEX
  8
0
  5
7F3
 10
264.849
 20
127.946
 30
0.000000
  70
    32
  0
VERTEX
  8
0
  5
7F4
 10
264.852
 20
127.952
 30
0.000000
  70
    32
  0
VERTEX
  8
0
  5
7F5
 10
264.856
 20
127.957
 30
0.000000
  70
    32
  0
VERTEX
  8
0
  5
7F6
 10
264.860
 20
127.963
 30
0.000000
  70
    32
  0
VERTEX
  8
0
  5
7F7
 10
264.864
 20
127.968
 30
0.000000
  70
    32
  0
VERTEX
  8
0
  5
7F8
 10
264.868
 20
127.974
 30
0.000000
  70
    32
  0
VERTEX
  8
0
  5
7F9
 10
264.872
 20
127.979
 30
0.000000
  70
    32
  0
VERTEX
  8
0
  5
7FA
 10
264.876
 20
127.984
 30
0.000000
  70
    32
  0
VERTEX
  8
0
  5
7FB
 10
264.880
 20
127.990
 30
0.000000
  70
    32
  0
VERTEX
  8
0
  5
7FC
 10
264.885
 20
127.995
 30
0.000000
  70
    32
  0
VERTEX
  8
0
  5
7FD
 10
264.889
 20
128.000
 30
0.000000
  70
    32
  0
VERTEX
  8
0
  5
7FE
 10
264.894
 20
128.005
 30
0.000000
  70
    32
  0
VERTEX
  8
0
  5
7FF
 10
264.898
 20
128.010
 30
0.000000
  70
    32
  0
VERTEX
  8
0
  5
800
 10
264.903
 20
128.015
 30
0.000000
  70
    32
  0
VERTEX
  8
0
  5
801
 10
264.907
 20
128.020
 30
0.000000
  70
    32
  0
VERTEX
  8
0
  5
802
 10
264.912
 20
128.025
 30
0.000000
  70
    32
  0
VERTEX
  8
0
  5
803
 10
264.917
 20
128.029
 30
0.000000
  70
    32
  0
VERTEX
  8
0
  5
804
 10
264.921
 20
128.034
 30
0.000000
  70
    32
  0
VERTEX
  8
0
  5
805
 10
264.926
 20
128.039
 30
0.000000
  70
    32
  0
VERTEX
  8
0
  5
806
 10
264.931
 20
128.043
 30
0.000000
  70
    32
  0
VERTEX
  8
0
  5
807
 10
264.936
 20
128.048
 30
0.000000
  70
    32
  0
VERTEX
  8
0
  5
808
 10
264.941
 20
128.053
 30
0.000000
  70
    32
  0
VERTEX
  8
0
  5
809
 10
264.946
 20
128.057
 30
0.000000
  70
    32
  0
VERTEX
  8
0
  5
80A
 10
264.951
 20
128.062
 30
0.000000
  70
    32
  0
VERTEX
  8
0
  5
80B
 10
264.956
 20
128.066
 30
0.000000
  70
    32
  0
VERTEX
  8
0
  5
80C
 10
264.961
 20
128.071
 30
0.000000
  70
    32
  0
VERTEX
  8
0
  5
80D
 10
264.966
 20
128.075
 30
0.000000
  70
    32
  0
VERTEX
  8
0
  5
80E
 10
264.972
 20
128.079
 30
0.000000
  70
    32
  0
VERTEX
  8
0
  5
80F
 10
264.977
 20
128.083
 30
0.000000
  70
    32
  0
VERTEX
  8
0
  5
810
 10
264.982
 20
128.088
 30
0.000000
  70
    32
  0
VERTEX
  8
0
  5
811
 10
264.988
 20
128.092
 30
0.000000
  70
    32
  0
VERTEX
  8
0
  5
812
 10
264.993
 20
128.096
 30
0.000000
  70
    32
  0
VERTEX
  8
0
  5
813
 10
264.998
 20
128.100
 30
0.000000
  70
    32
  0
VERTEX
  8
0
  5
814
 10
265.004
 20
128.104
 30
0.000000
  70
    32
  0
VERTEX
  8
0
  5
815
 10
265.009
 20
128.108
 30
0.000000
  70
    32
  0
VERTEX
  8
0
  5
816
 10
265.015
 20
128.112
 30
0.000000
  70
    32
  0
VERTEX
  8
0
  5
817
 10
265.020
 20
128.116
 30
0.000000
  70
    32
  0
VERTEX
  8
0
  5
818
 10
265.026
 20
128.120
 30
0.000000
  70
    32
  0
VERTEX
  8
0
  5
819
 10
265.031
 20
128.124
 30
0.000000
  70
    32
  0
VERTEX
  8
0
  5
81A
 10
265.037
 20
128.128
 30
0.000000
  70
    32
  0
VERTEX
  8
0
  5
81B
 10
265.042
 20
128.132
 30
0.000000
  70
    32
  0
VERTEX
  8
0
  5
81C
 10
265.048
 20
128.136
 30
0.000000
  70
    32
  0
VERTEX
  8
0
  5
81D
 10
265.054
 20
128.140
 30
0.000000
  70
    32
  0
VERTEX
  8
0
  5
81E
 10
265.059
 20
128.143
 30
0.000000
  70
    32
  0
VERTEX
  8
0
  5
81F
 10
265.065
 20
128.147
 30
0.000000
  70
    32
  0
VERTEX
  8
0
  5
820
 10
265.071
 20
128.151
 30
0.000000
  70
    32
  0
VERTEX
  8
0
  5
821
 10
265.076
 20
128.155
 30
0.000000
  70
    32
  0
VERTEX
  8
0
  5
822
 10
265.082
 20
128.158
 30
0.000000
  70
    32
  0
VERTEX
  8
0
  5
823
 10
265.088
 20
128.162
 30
0.000000
  70
    32
  0
VERTEX
  8
0
  5
824
 10
265.094
 20
128.165
 30
0.000000
  70
    32
  0
VERTEX
  8
0
  5
825
 10
265.099
 20
128.169
 30
0.000000
  70
    32
  0
VERTEX
  8
0
  5
826
 10
265.105
 20
128.173
 30
0.000000
  70
    32
  0
VERTEX
  8
0
  5
827
 10
265.111
 20
128.176
 30
0.000000
  70
    32
  0
VERTEX
  8
0
  5
828
 10
265.117
 20
128.180
 30
0.000000
  70
    32
  0
VERTEX
  8
0
  5
829
 10
265.122
 20
128.183
 30
0.000000
  70
    32
  0
VERTEX
  8
0
  5
82A
 10
265.128
 20
128.187
 30
0.000000
  70
    32
  0
VERTEX
  8
0
  5
82B
 10
265.134
 20
128.190
 30
0.000000
  70
    32
  0
VERTEX
  8
0
  5
82C
 10
265.140
 20
128.193
 30
0.000000
  70
    32
  0
VERTEX
  8
0
  5
82D
 10
265.146
 20
128.197
 30
0.000000
  70
    32
  0
VERTEX
  8
0
  5
82E
 10
265.151
 20
128.200
 30
0.000000
  70
    32
  0
VERTEX
  8
0
  5
82F
 10
265.157
 20
128.204
 30
0.000000
  70
    32
  0
VERTEX
  8
0
  5
830
 10
265.163
 20
128.207
 30
0.000000
  70
    32
  0
VERTEX
  8
0
  5
831
 10
265.169
 20
128.210
 30
0.000000
  70
    32
  0
VERTEX
  8
0
  5
832
 10
265.175
 20
128.214
 30
0.000000
  70
    32
  0
VERTEX
  8
0
  5
833
 10
265.181
 20
128.217
 30
0.000000
  70
    32
  0
VERTEX
  8
0
  5
834
 10
265.187
 20
128.220
 30
0.000000
  70
    32
  0
VERTEX
  8
0
  5
835
 10
265.193
 20
128.223
 30
0.000000
  70
    32
  0
VERTEX
  8
0
  5
836
 10
265.198
 20
128.226
 30
0.000000
  70
    32
  0
VERTEX
  8
0
  5
837
 10
265.204
 20
128.230
 30
0.000000
  70
    32
  0
VERTEX
  8
0
  5
838
 10
265.210
 20
128.233
 30
0.000000
  70
    32
  0
VERTEX
  8
0
  5
839
 10
265.216
 20
128.236
 30
0.000000
  70
    32
  0
VERTEX
  8
0
  5
83A
 10
265.222
 20
128.239
 30
0.000000
  70
    32
  0
VERTEX
  8
0
  5
83B
 10
265.228
 20
128.242
 30
0.000000
  70
    32
  0
VERTEX
  8
0
  5
83C
 10
265.234
 20
128.245
 30
0.000000
  70
    32
  0
VERTEX
  8
0
  5
83D
 10
265.240
 20
128.248
 30
0.000000
  70
    32
  0
VERTEX
  8
0
  5
83E
 10
265.246
 20
128.251
 30
0.000000
  70
    32
  0
VERTEX
  8
0
  5
83F
 10
265.252
 20
128.254
 30
0.000000
  70
    32
  0
VERTEX
  8
0
  5
840
 10
265.258
 20
128.257
 30
0.000000
  70
    32
  0
VERTEX
  8
0
  5
841
 10
265.264
 20
128.260
 30
0.000000
  70
    32
  0
VERTEX
  8
0
  5
842
 10
265.270
 20
128.263
 30
0.000000
  70
    32
  0
VERTEX
  8
0
  5
843
 10
265.276
 20
128.266
 30
0.000000
  70
    32
  0
VERTEX
  8
0
  5
844
 10
265.282
 20
128.269
 30
0.000000
  70
    32
  0
VERTEX
  8
0
  5
845
 10
265.288
 20
128.272
 30
0.000000
  70
    32
  0
VERTEX
  8
0
  5
846
 10
265.294
 20
128.274
 30
0.000000
  70
    32
  0
VERTEX
  8
0
  5
847
 10
265.300
 20
128.277
 30
0.000000
  70
    32
  0
VERTEX
  8
0
  5
848
 10
265.306
 20
128.280
 30
0.000000
  70
    32
  0
VERTEX
  8
0
  5
849
 10
265.313
 20
128.283
 30
0.000000
  70
    32
  0
VERTEX
  8
0
  5
84A
 10
265.319
 20
128.286
 30
0.000000
  70
    32
  0
VERTEX
  8
0
  5
84B
 10
265.325
 20
128.288
 30
0.000000
  70
    32
  0
VERTEX
  8
0
  5
84C
 10
265.331
 20
128.291
 30
0.000000
  70
    32
  0
VERTEX
  8
0
  5
84D
 10
265.337
 20
128.294
 30
0.000000
  70
    32
  0
VERTEX
  8
0
  5
84E
 10
265.343
 20
128.297
 30
0.000000
  70
    32
  0
VERTEX
  8
0
  5
84F
 10
265.349
 20
128.299
 30
0.000000
  70
    32
  0
VERTEX
  8
0
  5
850
 10
265.355
 20
128.302
 30
0.000000
  70
    32
  0
VERTEX
  8
0
  5
851
 10
265.361
 20
128.305
 30
0.000000
  70
    32
  0
VERTEX
  8
0
  5
852
 10
265.368
 20
128.307
 30
0.000000
  70
    32
  0
VERTEX
  8
0
  5
853
 10
265.374
 20
128.310
 30
0.000000
  70
    32
  0
VERTEX
  8
0
  5
854
 10
265.380
 20
128.313
 30
0.000000
  70
    32
  0
VERTEX
  8
0
  5
855
 10
265.386
 20
128.315
 30
0.000000
  70
    32
  0
VERTEX
  8
0
  5
856
 10
265.392
 20
128.318
 30
0.000000
  70
    32
  0
VERTEX
  8
0
  5
857
 10
265.398
 20
128.320
 30
0.000000
  70
    32
  0
VERTEX
  8
0
  5
858
 10
265.405
 20
128.323
 30
0.000000
  70
    32
  0
VERTEX
  8
0
  5
859
 10
265.411
 20
128.325
 30
0.000000
  70
    32
  0
VERTEX
  8
0
  5
85A
 10
265.417
 20
128.328
 30
0.000000
  70
    32
  0
VERTEX
  8
0
  5
85B
 10
265.423
 20
128.330
 30
0.000000
  70
    32
  0
VERTEX
  8
0
  5
85C
 10
265.429
 20
128.333
 30
0.000000
  70
    32
  0
VERTEX
  8
0
  5
85D
 10
265.436
 20
128.335
 30
0.000000
  70
    32
  0
VERTEX
  8
0
  5
85E
 10
265.442
 20
128.338
 30
0.000000
  70
    32
  0
VERTEX
  8
0
  5
85F
 10
265.448
 20
128.340
 30
0.000000
  70
    32
  0
VERTEX
  8
0
  5
860
 10
265.454
 20
128.343
 30
0.000000
  70
    32
  0
VERTEX
  8
0
  5
861
 10
265.461
 20
128.345
 30
0.000000
  70
    32
  0
VERTEX
  8
0
  5
862
 10
265.467
 20
128.347
 30
0.000000
  70
    32
  0
VERTEX
  8
0
  5
863
 10
265.473
 20
128.350
 30
0.000000
  70
    32
  0
VERTEX
  8
0
  5
864
 10
265.479
 20
128.352
 30
0.000000
  70
    32
  0
VERTEX
  8
0
  5
865
 10
265.486
 20
128.354
 30
0.000000
  70
    32
  0
VERTEX
  8
0
  5
866
 10
265.492
 20
128.357
 30
0.000000
  70
    32
  0
VERTEX
  8
0
  5
867
 10
265.498
 20
128.359
 30
0.000000
  70
    32
  0
VERTEX
  8
0
  5
868
 10
265.505
 20
128.361
 30
0.000000
  70
    32
  0
VERTEX
  8
0
  5
869
 10
265.511
 20
128.364
 30
0.000000
  70
    32
  0
VERTEX
  8
0
  5
86A
 10
265.517
 20
128.366
 30
0.000000
  70
    32
  0
VERTEX
  8
0
  5
86B
 10
265.524
 20
128.368
 30
0.000000
  70
    32
  0
VERTEX
  8
0
  5
86C
 10
265.530
 20
128.370
 30
0.000000
  70
    32
  0
VERTEX
  8
0
  5
86D
 10
265.536
 20
128.373
 30
0.000000
  70
    32
  0
VERTEX
  8
0
  5
86E
 10
265.542
 20
128.375
 30
0.000000
  70
    32
  0
VERTEX
  8
0
  5
86F
 10
265.549
 20
128.377
 30
0.000000
  70
    32
  0
VERTEX
  8
0
  5
870
 10
265.555
 20
128.379
 30
0.000000
  70
    32
  0
VERTEX
  8
0
  5
871
 10
265.561
 20
128.381
 30
0.000000
  70
    32
  0
VERTEX
  8
0
  5
872
 10
265.568
 20
128.384
 30
0.000000
  70
    32
  0
VERTEX
  8
0
  5
873
 10
265.574
 20
128.386
 30
0.000000
  70
    32
  0
VERTEX
  8
0
  5
874
 10
265.581
 20
128.388
 30
0.000000
  70
    32
  0
VERTEX
  8
0
  5
875
 10
265.587
 20
128.390
 30
0.000000
  70
    32
  0
VERTEX
  8
0
  5
876
 10
265.593
 20
128.392
 30
0.000000
  70
    32
  0
VERTEX
  8
0
  5
877
 10
265.600
 20
128.394
 30
0.000000
  70
    32
  0
VERTEX
  8
0
  5
878
 10
265.606
 20
128.396
 30
0.000000
  70
    32
  0
VERTEX
  8
0
  5
879
 10
265.612
 20
128.398
 30
0.000000
  70
    32
  0
VERTEX
  8
0
  5
87A
 10
265.619
 20
128.401
 30
0.000000
  70
    32
  0
VERTEX
  8
0
  5
87B
 10
265.625
 20
128.403
 30
0.000000
  70
    32
  0
VERTEX
  8
0
  5
87C
 10
265.631
 20
128.405
 30
0.000000
  70
    32
  0
VERTEX
  8
0
  5
87D
 10
265.638
 20
128.407
 30
0.000000
  70
    32
  0
VERTEX
  8
0
  5
87E
 10
265.644
 20
128.409
 30
0.000000
  70
    32
  0
VERTEX
  8
0
  5
87F
 10
265.651
 20
128.411
 30
0.000000
  70
    32
  0
VERTEX
  8
0
  5
880
 10
265.657
 20
128.413
 30
0.000000
  70
    32
  0
VERTEX
  8
0
  5
881
 10
265.664
 20
128.415
 30
0.000000
  70
    32
  0
VERTEX
  8
0
  5
882
 10
265.670
 20
128.417
 30
0.000000
  70
    32
  0
VERTEX
  8
0
  5
883
 10
265.676
 20
128.419
 30
0.000000
  70
    32
  0
VERTEX
  8
0
  5
884
 10
265.683
 20
128.421
 30
0.000000
  70
    32
  0
VERTEX
  8
0
  5
885
 10
265.689
 20
128.422
 30
0.000000
  70
    32
  0
VERTEX
  8
0
  5
886
 10
265.696
 20
128.424
 30
0.000000
  70
    32
  0
VERTEX
  8
0
  5
887
 10
265.702
 20
128.426
 30
0.000000
  70
    32
  0
VERTEX
  8
0
  5
888
 10
265.708
 20
128.428
 30
0.000000
  70
    32
  0
VERTEX
  8
0
  5
889
 10
265.715
 20
128.430
 30
0.000000
  70
    32
  0
VERTEX
  8
0
  5
88A
 10
265.721
 20
128.432
 30
0.000000
  70
    32
  0
VERTEX
  8
0
  5
88B
 10
265.728
 20
128.434
 30
0.000000
  70
    32
  0
VERTEX
  8
0
  5
88C
 10
265.734
 20
128.436
 30
0.000000
  70
    32
  0
VERTEX
  8
0
  5
88D
 10
265.741
 20
128.438
 30
0.000000
  70
    32
  0
VERTEX
  8
0
  5
88E
 10
265.747
 20
128.439
 30
0.000000
  70
    32
  0
VERTEX
  8
0
  5
88F
 10
265.754
 20
128.441
 30
0.000000
  70
    32
  0
VERTEX
  8
0
  5
890
 10
265.760
 20
128.443
 30
0.000000
  70
    32
  0
VERTEX
  8
0
  5
891
 10
265.767
 20
128.445
 30
0.000000
  70
    32
  0
VERTEX
  8
0
  5
892
 10
265.773
 20
128.447
 30
0.000000
  70
    32
  0
VERTEX
  8
0
  5
893
 10
265.780
 20
128.448
 30
0.000000
  70
    32
  0
VERTEX
  8
0
  5
894
 10
265.786
 20
128.450
 30
0.000000
  70
    32
  0
VERTEX
  8
0
  5
895
 10
265.792
 20
128.452
 30
0.000000
  70
    32
  0
VERTEX
  8
0
  5
896
 10
265.799
 20
128.454
 30
0.000000
  70
    32
  0
VERTEX
  8
0
  5
897
 10
265.805
 20
128.455
 30
0.000000
  70
    32
  0
VERTEX
  8
0
  5
898
 10
265.812
 20
128.457
 30
0.000000
  70
    32
  0
VERTEX
  8
0
  5
899
 10
265.818
 20
128.459
 30
0.000000
  70
    32
  0
VERTEX
  8
0
  5
89A
 10
265.825
 20
128.460
 30
0.000000
  70
    32
  0
VERTEX
  8
0
  5
89B
 10
265.831
 20
128.462
 30
0.000000
  70
    32
  0
VERTEX
  8
0
  5
89C
 10
265.838
 20
128.464
 30
0.000000
  70
    32
  0
VERTEX
  8
0
  5
89D
 10
265.844
 20
128.465
 30
0.000000
  70
    32
  0
VERTEX
  8
0
  5
89E
 10
265.851
 20
128.467
 30
0.000000
  70
    32
  0
VERTEX
  8
0
  5
89F
 10
265.857
 20
128.469
 30
0.000000
  70
    32
  0
VERTEX
  8
0
  5
8A0
 10
265.864
 20
128.470
 30
0.000000
  70
    32
  0
VERTEX
  8
0
  5
8A1
 10
265.870
 20
128.472
 30
0.000000
  70
    32
  0
VERTEX
  8
0
  5
8A2
 10
265.877
 20
128.474
 30
0.000000
  70
    32
  0
VERTEX
  8
0
  5
8A3
 10
265.883
 20
128.475
 30
0.000000
  70
    32
  0
VERTEX
  8
0
  5
8A4
 10
265.890
 20
128.477
 30
0.000000
  70
    32
  0
VERTEX
  8
0
  5
8A5
 10
265.897
 20
128.478
 30
0.000000
  70
    32
  0
VERTEX
  8
0
  5
8A6
 10
265.903
 20
128.480
 30
0.000000
  70
    32
  0
VERTEX
  8
0
  5
8A7
 10
265.910
 20
128.482
 30
0.000000
  70
    32
  0
VERTEX
  8
0
  5
8A8
 10
265.916
 20
128.483
 30
0.000000
  70
    32
  0
VERTEX
  8
0
  5
8A9
 10
265.923
 20
128.485
 30
0.000000
  70
    32
  0
VERTEX
  8
0
  5
8AA
 10
265.929
 20
128.486
 30
0.000000
  70
    32
  0
VERTEX
  8
0
  5
8AB
 10
265.936
 20
128.488
 30
0.000000
  70
    32
  0
VERTEX
  8
0
  5
8AC
 10
265.942
 20
128.489
 30
0.000000
  70
    32
  0
VERTEX
  8
0
  5
8AD
 10
265.949
 20
128.491
 30
0.000000
  70
    32
  0
VERTEX
  8
0
  5
8AE
 10
265.955
 20
128.492
 30
0.000000
  70
    32
  0
VERTEX
  8
0
  5
8AF
 10
265.962
 20
128.494
 30
0.000000
  70
    32
  0
VERTEX
  8
0
  5
8B0
 10
265.968
 20
128.495
 30
0.000000
  70
    32
  0
VERTEX
  8
0
  5
8B1
 10
265.975
 20
128.497
 30
0.000000
  70
    32
  0
SEQEND
  8
0
  5
8B2
  0
POLYLINE
  8
0
  5
8B3
  62
7
  66
     1
 10
0.000000
 20
0.000000
 30
0.000000
  70
     8
  0
VERTEX
  8
0
  5
8B4
 10
265.975
 20
128.497
 30
0.000000
  70
    32
  0
VERTEX
  8
0
  5
8B5
 10
265.985
 20
128.499
 30
0.000000
  70
    32
  0
VERTEX
  8
0
  5
8B6
 10
265.995
 20
128.501
 30
0.000000
  70
    32
  0
VERTEX
  8
0
  5
8B7
 10
266.005
 20
128.503
 30
0.000000
  70
    32
  0
VERTEX
  8
0
  5
8B8
 10
266.014
 20
128.505
 30
0.000000
  70
    32
  0
VERTEX
  8
0
  5
8B9
 10
266.024
 20
128.508
 30
0.000000
  70
    32
  0
VERTEX
  8
0
  5
8BA
 10
266.034
 20
128.510
 30
0.000000
  70
    32
  0
VERTEX
  8
0
  5
8BB
 10
266.044
 20
128.512
 30
0.000000
  70
    32
  0
VERTEX
  8
0
  5
8BC
 10
266.054
 20
128.514
 30
0.000000
  70
    32
  0
VERTEX
  8
0
  5
8BD
 10
266.064
 20
128.516
 30
0.000000
  70
    32
  0
VERTEX
  8
0
  5
8BE
 10
266.074
 20
128.518
 30
0.000000
  70
    32
  0
VERTEX
  8
0
  5
8BF
 10
266.084
 20
128.520
 30
0.000000
  70
    32
  0
VERTEX
  8
0
  5
8C0
 10
266.094
 20
128.522
 30
0.000000
  70
    32
  0
VERTEX
  8
0
  5
8C1
 10
266.104
 20
128.524
 30
0.000000
  70
    32
  0
VERTEX
  8
0
  5
8C2
 10
266.114
 20
128.526
 30
0.000000
  70
    32
  0
VERTEX
  8
0
  5
8C3
 10
266.124
 20
128.528
 30
0.000000
  70
    32
  0
VERTEX
  8
0
  5
8C4
 10
266.134
 20
128.530
 30
0.000000
  70
    32
  0
VERTEX
  8
0
  5
8C5
 10
266.143
 20
128.532
 30
0.000000
  70
    32
  0
VERTEX
  8
0
  5
8C6
 10
266.153
 20
128.533
 30
0.000000
  70
    32
  0
VERTEX
  8
0
  5
8C7
 10
266.163
 20
128.535
 30
0.000000
  70
    32
  0
VERTEX
  8
0
  5
8C8
 10
266.173
 20
128.537
 30
0.000000
  70
    32
  0
VERTEX
  8
0
  5
8C9
 10
266.183
 20
128.539
 30
0.000000
  70
    32
  0
VERTEX
  8
0
  5
8CA
 10
266.193
 20
128.541
 30
0.000000
  70
    32
  0
VERTEX
  8
0
  5
8CB
 10
266.203
 20
128.542
 30
0.000000
  70
    32
  0
VERTEX
  8
0
  5
8CC
 10
266.213
 20
128.544
 30
0.000000
  70
    32
  0
VERTEX
  8
0
  5
8CD
 10
266.223
 20
128.546
 30
0.000000
  70
    32
  0
VERTEX
  8
0
  5
8CE
 10
266.233
 20
128.548
 30
0.000000
  70
    32
  0
VERTEX
  8
0
  5
8CF
 10
266.243
 20
128.549
 30
0.000000
  70
    32
  0
VERTEX
  8
0
  5
8D0
 10
266.253
 20
128.551
 30
0.000000
  70
    32
  0
VERTEX
  8
0
  5
8D1
 10
266.263
 20
128.553
 30
0.000000
  70
    32
  0
VERTEX
  8
0
  5
8D2
 10
266.273
 20
128.554
 30
0.000000
  70
    32
  0
VERTEX
  8
0
  5
8D3
 10
266.283
 20
128.556
 30
0.000000
  70
    32
  0
VERTEX
  8
0
  5
8D4
 10
266.293
 20
128.558
 30
0.000000
  70
    32
  0
VERTEX
  8
0
  5
8D5
 10
266.303
 20
128.559
 30
0.000000
  70
    32
  0
VERTEX
  8
0
  5
8D6
 10
266.313
 20
128.561
 30
0.000000
  70
    32
  0
VERTEX
  8
0
  5
8D7
 10
266.323
 20
128.562
 30
0.000000
  70
    32
  0
VERTEX
  8
0
  5
8D8
 10
266.333
 20
128.564
 30
0.000000
  70
    32
  0
VERTEX
  8
0
  5
8D9
 10
266.343
 20
128.565
 30
0.000000
  70
    32
  0
VERTEX
  8
0
  5
8DA
 10
266.353
 20
128.567
 30
0.000000
  70
    32
  0
VERTEX
  8
0
  5
8DB
 10
266.363
 20
128.568
 30
0.000000
  70
    32
  0
VERTEX
  8
0
  5
8DC
 10
266.373
 20
128.570
 30
0.000000
  70
    32
  0
VERTEX
  8
0
  5
8DD
 10
266.383
 20
128.571
 30
0.000000
  70
    32
  0
VERTEX
  8
0
  5
8DE
 10
266.393
 20
128.573
 30
0.000000
  70
    32
  0
VERTEX
  8
0
  5
8DF
 10
266.403
 20
128.574
 30
0.000000
  70
    32
  0
VERTEX
  8
0
  5
8E0
 10
266.413
 20
128.575
 30
0.000000
  70
    32
  0
VERTEX
  8
0
  5
8E1
 10
266.424
 20
128.577
 30
0.000000
  70
    32
  0
VERTEX
  8
0
  5
8E2
 10
266.434
 20
128.578
 30
0.000000
  70
    32
  0
VERTEX
  8
0
  5
8E3
 10
266.444
 20
128.579
 30
0.000000
  70
    32
  0
VERTEX
  8
0
  5
8E4
 10
266.454
 20
128.581
 30
0.000000
  70
    32
  0
VERTEX
  8
0
  5
8E5
 10
266.464
 20
128.582
 30
0.000000
  70
    32
  0
VERTEX
  8
0
  5
8E6
 10
266.474
 20
128.583
 30
0.000000
  70
    32
  0
VERTEX
  8
0
  5
8E7
 10
266.484
 20
128.585
 30
0.000000
  70
    32
  0
VERTEX
  8
0
  5
8E8
 10
266.494
 20
128.586
 30
0.000000
  70
    32
  0
VERTEX
  8
0
  5
8E9
 10
266.504
 20
128.587
 30
0.000000
  70
    32
  0
VERTEX
  8
0
  5
8EA
 10
266.514
 20
128.588
 30
0.000000
  70
    32
  0
VERTEX
  8
0
  5
8EB
 10
266.524
 20
128.589
 30
0.000000
  70
    32
  0
VERTEX
  8
0
  5
8EC
 10
266.534
 20
128.591
 30
0.000000
  70
    32
  0
VERTEX
  8
0
  5
8ED
 10
266.544
 20
128.592
 30
0.000000
  70
    32
  0
VERTEX
  8
0
  5
8EE
 10
266.554
 20
128.593
 30
0.000000
  70
    32
  0
VERTEX
  8
0
  5
8EF
 10
266.564
 20
128.594
 30
0.000000
  70
    32
  0
VERTEX
  8
0
  5
8F0
 10
266.574
 20
128.595
 30
0.000000
  70
    32
  0
VERTEX
  8
0
  5
8F1
 10
266.584
 20
128.596
 30
0.000000
  70
    32
  0
VERTEX
  8
0
  5
8F2
 10
266.595
 20
128.597
 30
0.000000
  70
    32
  0
VERTEX
  8
0
  5
8F3
 10
266.605
 20
128.598
 30
0.000000
  70
    32
  0
VERTEX
  8
0
  5
8F4
 10
266.615
 20
128.599
 30
0.000000
  70
    32
  0
VERTEX
  8
0
  5
8F5
 10
266.625
 20
128.600
 30
0.000000
  70
    32
  0
VERTEX
  8
0
  5
8F6
 10
266.635
 20
128.602
 30
0.000000
  70
    32
  0
VERTEX
  8
0
  5
8F7
 10
266.645
 20
128.603
 30
0.000000
  70
    32
  0
VERTEX
  8
0
  5
8F8
 10
266.655
 20
128.603
 30
0.000000
  70
    32
  0
VERTEX
  8
0
  5
8F9
 10
266.665
 20
128.604
 30
0.000000
  70
    32
  0
VERTEX
  8
0
  5
8FA
 10
266.675
 20
128.605
 30
0.000000
  70
    32
  0
VERTEX
  8
0
  5
8FB
 10
266.685
 20
128.606
 30
0.000000
  70
    32
  0
VERTEX
  8
0
  5
8FC
 10
266.695
 20
128.607
 30
0.000000
  70
    32
  0
VERTEX
  8
0
  5
8FD
 10
266.705
 20
128.608
 30
0.000000
  70
    32
  0
VERTEX
  8
0
  5
8FE
 10
266.716
 20
128.609
 30
0.000000
  70
    32
  0
VERTEX
  8
0
  5
8FF
 10
266.726
 20
128.610
 30
0.000000
  70
    32
  0
VERTEX
  8
0
  5
900
 10
266.736
 20
128.611
 30
0.000000
  70
    32
  0
VERTEX
  8
0
  5
901
 10
266.746
 20
128.612
 30
0.000000
  70
    32
  0
VERTEX
  8
0
  5
902
 10
266.756
 20
128.612
 30
0.000000
  70
    32
  0
VERTEX
  8
0
  5
903
 10
266.766
 20
128.613
 30
0.000000
  70
    32
  0
VERTEX
  8
0
  5
904
 10
266.776
 20
128.614
 30
0.000000
  70
    32
  0
VERTEX
  8
0
  5
905
 10
266.786
 20
128.615
 30
0.000000
  70
    32
  0
VERTEX
  8
0
  5
906
 10
266.796
 20
128.615
 30
0.000000
  70
    32
  0
VERTEX
  8
0
  5
907
 10
266.806
 20
128.616
 30
0.000000
  70
    32
  0
VERTEX
  8
0
  5
908
 10
266.817
 20
128.617
 30
0.000000
  70
    32
  0
VERTEX
  8
0
  5
909
 10
266.827
 20
128.618
 30
0.000000
  70
    32
  0
VERTEX
  8
0
  5
90A
 10
266.837
 20
128.618
 30
0.000000
  70
    32
  0
VERTEX
  8
0
  5
90B
 10
266.847
 20
128.619
 30
0.000000
  70
    32
  0
VERTEX
  8
0
  5
90C
 10
266.857
 20
128.620
 30
0.000000
  70
    32
  0
VERTEX
  8
0
  5
90D
 10
266.867
 20
128.620
 30
0.000000
  70
    32
  0
VERTEX
  8
0
  5
90E
 10
266.877
 20
128.621
 30
0.000000
  70
    32
  0
VERTEX
  8
0
  5
90F
 10
266.887
 20
128.621
 30
0.000000
  70
    32
  0
VERTEX
  8
0
  5
910
 10
266.897
 20
128.622
 30
0.000000
  70
    32
  0
VERTEX
  8
0
  5
911
 10
266.908
 20
128.623
 30
0.000000
  70
    32
  0
VERTEX
  8
0
  5
912
 10
266.918
 20
128.623
 30
0.000000
  70
    32
  0
VERTEX
  8
0
  5
913
 10
266.928
 20
128.624
 30
0.000000
  70
    32
  0
VERTEX
  8
0
  5
914
 10
266.938
 20
128.624
 30
0.000000
  70
    32
  0
VERTEX
  8
0
  5
915
 10
266.948
 20
128.625
 30
0.000000
  70
    32
  0
VERTEX
  8
0
  5
916
 10
266.958
 20
128.625
 30
0.000000
  70
    32
  0
VERTEX
  8
0
  5
917
 10
266.968
 20
128.626
 30
0.000000
  70
    32
  0
VERTEX
  8
0
  5
918
 10
266.978
 20
128.626
 30
0.000000
  70
    32
  0
VERTEX
  8
0
  5
919
 10
266.989
 20
128.627
 30
0.000000
  70
    32
  0
VERTEX
  8
0
  5
91A
 10
266.999
 20
128.627
 30
0.000000
  70
    32
  0
VERTEX
  8
0
  5
91B
 10
267.009
 20
128.627
 30
0.000000
  70
    32
  0
VERTEX
  8
0
  5
91C
 10
267.019
 20
128.628
 30
0.000000
  70
    32
  0
VERTEX
  8
0
  5
91D
 10
267.029
 20
128.628
 30
0.000000
  70
    32
  0
VERTEX
  8
0
  5
91E
 10
267.039
 20
128.629
 30
0.000000
  70
    32
  0
VERTEX
  8
0
  5
91F
 10
267.049
 20
128.629
 30
0.000000
  70
    32
  0
VERTEX
  8
0
  5
920
 10
267.059
 20
128.629
 30
0.000000
  70
    32
  0
VERTEX
  8
0
  5
921
 10
267.069
 20
128.629
 30
0.000000
  70
    32
  0
VERTEX
  8
0
  5
922
 10
267.080
 20
128.630
 30
0.000000
  70
    32
  0
VERTEX
  8
0
  5
923
 10
267.090
 20
128.630
 30
0.000000
  70
    32
  0
VERTEX
  8
0
  5
924
 10
267.100
 20
128.630
 30
0.000000
  70
    32
  0
VERTEX
  8
0
  5
925
 10
267.110
 20
128.631
 30
0.000000
  70
    32
  0
VERTEX
  8
0
  5
926
 10
267.120
 20
128.631
 30
0.000000
  70
    32
  0
VERTEX
  8
0
  5
927
 10
267.130
 20
128.631
 30
0.000000
  70
    32
  0
VERTEX
  8
0
  5
928
 10
267.140
 20
128.631
 30
0.000000
  70
    32
  0
VERTEX
  8
0
  5
929
 10
267.151
 20
128.631
 30
0.000000
  70
    32
  0
VERTEX
  8
0
  5
92A
 10
267.161
 20
128.632
 30
0.000000
  70
    32
  0
VERTEX
  8
0
  5
92B
 10
267.171
 20
128.632
 30
0.000000
  70
    32
  0
VERTEX
  8
0
  5
92C
 10
267.181
 20
128.632
 30
0.000000
  70
    32
  0
VERTEX
  8
0
  5
92D
 10
267.191
 20
128.632
 30
0.000000
  70
    32
  0
VERTEX
  8
0
  5
92E
 10
267.201
 20
128.632
 30
0.000000
  70
    32
  0
VERTEX
  8
0
  5
92F
 10
267.211
 20
128.632
 30
0.000000
  70
    32
  0
VERTEX
  8
0
  5
930
 10
267.221
 20
128.632
 30
0.000000
  70
    32
  0
VERTEX
  8
0
  5
931
 10
267.232
 20
128.632
 30
0.000000
  70
    32
  0
VERTEX
  8
0
  5
932
 10
267.242
 20
128.632
 30
0.000000
  70
    32
  0
VERTEX
  8
0
  5
933
 10
267.252
 20
128.632
 30
0.000000
  70
    32
  0
VERTEX
  8
0
  5
934
 10
267.262
 20
128.632
 30
0.000000
  70
    32
  0
VERTEX
  8
0
  5
935
 10
267.272
 20
128.632
 30
0.000000
  70
    32
  0
VERTEX
  8
0
  5
936
 10
267.282
 20
128.632
 30
0.000000
  70
    32
  0
VERTEX
  8
0
  5
937
 10
267.292
 20
128.632
 30
0.000000
  70
    32
  0
VERTEX
  8
0
  5
938
 10
267.302
 20
128.632
 30
0.000000
  70
    32
  0
VERTEX
  8
0
  5
939
 10
267.313
 20
128.632
 30
0.000000
  70
    32
  0
VERTEX
  8
0
  5
93A
 10
267.323
 20
128.632
 30
0.000000
  70
    32
  0
VERTEX
  8
0
  5
93B
 10
267.333
 20
128.632
 30
0.000000
  70
    32
  0
VERTEX
  8
0
  5
93C
 10
267.343
 20
128.632
 30
0.000000
  70
    32
  0
VERTEX
  8
0
  5
93D
 10
267.353
 20
128.632
 30
0.000000
  70
    32
  0
VERTEX
  8
0
  5
93E
 10
267.363
 20
128.631
 30
0.000000
  70
    32
  0
VERTEX
  8
0
  5
93F
 10
267.373
 20
128.631
 30
0.000000
  70
    32
  0
VERTEX
  8
0
  5
940
 10
267.383
 20
128.631
 30
0.000000
  70
    32
  0
VERTEX
  8
0
  5
941
 10
267.394
 20
128.631
 30
0.000000
  70
    32
  0
VERTEX
  8
0
  5
942
 10
267.404
 20
128.631
 30
0.000000
  70
    32
  0
VERTEX
  8
0
  5
943
 10
267.414
 20
128.630
 30
0.000000
  70
    32
  0
VERTEX
  8
0
  5
944
 10
267.424
 20
128.630
 30
0.000000
  70
    32
  0
VERTEX
  8
0
  5
945
 10
267.434
 20
128.630
 30
0.000000
  70
    32
  0
VERTEX
  8
0
  5
946
 10
267.444
 20
128.629
 30
0.000000
  70
    32
  0
VERTEX
  8
0
  5
947
 10
267.454
 20
128.629
 30
0.000000
  70
    32
  0
VERTEX
  8
0
  5
948
 10
267.465
 20
128.629
 30
0.000000
  70
    32
  0
VERTEX
  8
0
  5
949
 10
267.475
 20
128.628
 30
0.000000
  70
    32
  0
VERTEX
  8
0
  5
94A
 10
267.485
 20
128.628
 30
0.000000
  70
    32
  0
VERTEX
  8
0
  5
94B
 10
267.495
 20
128.628
 30
0.000000
  70
    32
  0
VERTEX
  8
0
  5
94C
 10
267.505
 20
128.627
 30
0.000000
  70
    32
  0
VERTEX
  8
0
  5
94D
 10
267.515
 20
128.627
 30
0.000000
  70
    32
  0
VERTEX
  8
0
  5
94E
 10
267.525
 20
128.626
 30
0.000000
  70
    32
  0
VERTEX
  8
0
  5
94F
 10
267.535
 20
128.626
 30
0.000000
  70
    32
  0
VERTEX
  8
0
  5
950
 10
267.545
 20
128.625
 30
0.000000
  70
    32
  0
VERTEX
  8
0
  5
951
 10
267.556
 20
128.625
 30
0.000000
  70
    32
  0
VERTEX
  8
0
  5
952
 10
267.566
 20
128.624
 30
0.000000
  70
    32
  0
VERTEX
  8
0
  5
953
 10
267.576
 20
128.624
 30
0.000000
  70
    32
  0
VERTEX
  8
0
  5
954
 10
267.586
 20
128.623
 30
0.000000
  70
    32
  0
VERTEX
  8
0
  5
955
 10
267.596
 20
128.623
 30
0.000000
  70
    32
  0
VERTEX
  8
0
  5
956
 10
267.606
 20
128.622
 30
0.000000
  70
    32
  0
VERTEX
  8
0
  5
957
 10
267.616
 20
128.622
 30
0.000000
  70
    32
  0
VERTEX
  8
0
  5
958
 10
267.626
 20
128.621
 30
0.000000
  70
    32
  0
VERTEX
  8
0
  5
959
 10
267.637
 20
128.620
 30
0.000000
  70
    32
  0
VERTEX
  8
0
  5
95A
 10
267.647
 20
128.620
 30
0.000000
  70
    32
  0
VERTEX
  8
0
  5
95B
 10
267.657
 20
128.619
 30
0.000000
  70
    32
  0
VERTEX
  8
0
  5
95C
 10
267.667
 20
128.618
 30
0.000000
  70
    32
  0
VERTEX
  8
0
  5
95D
 10
267.677
 20
128.618
 30
0.000000
  70
    32
  0
VERTEX
  8
0
  5
95E
 10
267.687
 20
128.617
 30
0.000000
  70
    32
  0
VERTEX
  8
0
  5
95F
 10
267.697
 20
128.616
 30
0.000000
  70
    32
  0
VERTEX
  8
0
  5
960
 10
267.707
 20
128.615
 30
0.000000
  70
    32
  0
VERTEX
  8
0
  5
961
 10
267.717
 20
128.615
 30
0.000000
  70
    32
  0
VERTEX
  8
0
  5
962
 10
267.727
 20
128.614
 30
0.000000
  70
    32
  0
VERTEX
  8
0
  5
963
 10
267.738
 20
128.613
 30
0.000000
  70
    32
  0
VERTEX
  8
0
  5
964
 10
267.748
 20
128.612
 30
0.000000
  70
    32
  0
VERTEX
  8
0
  5
965
 10
267.758
 20
128.611
 30
0.000000
  70
    32
  0
VERTEX
  8
0
  5
966
 10
267.768
 20
128.610
 30
0.000000
  70
    32
  0
VERTEX
  8
0
  5
967
 10
267.778
 20
128.610
 30
0.000000
  70
    32
  0
VERTEX
  8
0
  5
968
 10
267.788
 20
128.609
 30
0.000000
  70
    32
  0
VERTEX
  8
0
  5
969
 10
267.798
 20
128.608
 30
0.000000
  70
    32
  0
VERTEX
  8
0
  5
96A
 10
267.808
 20
128.607
 30
0.000000
  70
    32
  0
VERTEX
  8
0
  5
96B
 10
267.818
 20
128.606
 30
0.000000
  70
    32
  0
VERTEX
  8
0
  5
96C
 10
267.828
 20
128.605
 30
0.000000
  70
    32
  0
VERTEX
  8
0
  5
96D
 10
267.838
 20
128.604
 30
0.000000
  70
    32
  0
VERTEX
  8
0
  5
96E
 10
267.849
 20
128.603
 30
0.000000
  70
    32
  0
VERTEX
  8
0
  5
96F
 10
267.859
 20
128.602
 30
0.000000
  70
    32
  0
VERTEX
  8
0
  5
970
 10
267.869
 20
128.601
 30
0.000000
  70
    32
  0
VERTEX
  8
0
  5
971
 10
267.879
 20
128.600
 30
0.000000
  70
    32
  0
VERTEX
  8
0
  5
972
 10
267.889
 20
128.599
 30
0.000000
  70
    32
  0
VERTEX
  8
0
  5
973
 10
267.899
 20
128.597
 30
0.000000
  70
    32
  0
VERTEX
  8
0
  5
974
 10
267.909
 20
128.596
 30
0.000000
  70
    32
  0
VERTEX
  8
0
  5
975
 10
267.919
 20
128.595
 30
0.000000
  70
    32
  0
VERTEX
  8
0
  5
976
 10
267.929
 20
128.594
 30
0.000000
  70
    32
  0
VERTEX
  8
0
  5
977
 10
267.939
 20
128.593
 30
0.000000
  70
    32
  0
VERTEX
  8
0
  5
978
 10
267.949
 20
128.592
 30
0.000000
  70
    32
  0
VERTEX
  8
0
  5
979
 10
267.959
 20
128.590
 30
0.000000
  70
    32
  0
VERTEX
  8
0
  5
97A
 10
267.969
 20
128.589
 30
0.000000
  70
    32
  0
VERTEX
  8
0
  5
97B
 10
267.979
 20
128.588
 30
0.000000
  70
    32
  0
VERTEX
  8
0
  5
97C
 10
267.989
 20
128.586
 30
0.000000
  70
    32
  0
VERTEX
  8
0
  5
97D
 10
267.999
 20
128.585
 30
0.000000
  70
    32
  0
VERTEX
  8
0
  5
97E
 10
268.010
 20
128.584
 30
0.000000
  70
    32
  0
VERTEX
  8
0
  5
97F
 10
268.020
 20
128.582
 30
0.000000
  70
    32
  0
VERTEX
  8
0
  5
980
 10
268.030
 20
128.581
 30
0.000000
  70
    32
  0
VERTEX
  8
0
  5
981
 10
268.040
 20
128.580
 30
0.000000
  70
    32
  0
VERTEX
  8
0
  5
982
 10
268.050
 20
128.578
 30
0.000000
  70
    32
  0
VERTEX
  8
0
  5
983
 10
268.060
 20
128.577
 30
0.000000
  70
    32
  0
VERTEX
  8
0
  5
984
 10
268.070
 20
128.575
 30
0.000000
  70
    32
  0
VERTEX
  8
0
  5
985
 10
268.080
 20
128.574
 30
0.000000
  70
    32
  0
VERTEX
  8
0
  5
986
 10
268.090
 20
128.572
 30
0.000000
  70
    32
  0
VERTEX
  8
0
  5
987
 10
268.100
 20
128.571
 30
0.000000
  70
    32
  0
VERTEX
  8
0
  5
988
 10
268.110
 20
128.569
 30
0.000000
  70
    32
  0
VERTEX
  8
0
  5
989
 10
268.120
 20
128.568
 30
0.000000
  70
    32
  0
VERTEX
  8
0
  5
98A
 10
268.130
 20
128.566
 30
0.000000
  70
    32
  0
VERTEX
  8
0
  5
98B
 10
268.140
 20
128.564
 30
0.000000
  70
    32
  0
VERTEX
  8
0
  5
98C
 10
268.150
 20
128.563
 30
0.000000
  70
    32
  0
VERTEX
  8
0
  5
98D
 10
268.160
 20
128.561
 30
0.000000
  70
    32
  0
VERTEX
  8
0
  5
98E
 10
268.170
 20
128.559
 30
0.000000
  70
    32
  0
VERTEX
  8
0
  5
98F
 10
268.180
 20
128.557
 30
0.000000
  70
    32
  0
VERTEX
  8
0
  5
990
 10
268.190
 20
128.556
 30
0.000000
  70
    32
  0
VERTEX
  8
0
  5
991
 10
268.200
 20
128.554
 30
0.000000
  70
    32
  0
VERTEX
  8
0
  5
992
 10
268.210
 20
128.552
 30
0.000000
  70
    32
  0
VERTEX
  8
0
  5
993
 10
268.220
 20
128.550
 30
0.000000
  70
    32
  0
VERTEX
  8
0
  5
994
 10
268.230
 20
128.548
 30
0.000000
  70
    32
  0
VERTEX
  8
0
  5
995
 10
268.239
 20
128.546
 30
0.000000
  70
    32
  0
VERTEX
  8
0
  5
996
 10
268.249
 20
128.545
 30
0.000000
  70
    32
  0
VERTEX
  8
0
  5
997
 10
268.259
 20
128.543
 30
0.000000
  70
    32
  0
VERTEX
  8
0
  5
998
 10
268.269
 20
128.541
 30
0.000000
  70
    32
  0
VERTEX
  8
0
  5
999
 10
268.279
 20
128.539
 30
0.000000
  70
    32
  0
VERTEX
  8
0
  5
99A
 10
268.289
 20
128.537
 30
0.000000
  70
    32
  0
VERTEX
  8
0
  5
99B
 10
268.299
 20
128.535
 30
0.000000
  70
    32
  0
VERTEX
  8
0
  5
99C
 10
268.309
 20
128.532
 30
0.000000
  70
    32
  0
VERTEX
  8
0
  5
99D
 10
268.319
 20
128.530
 30
0.000000
  70
    32
  0
VERTEX
  8
0
  5
99E
 10
268.329
 20
128.528
 30
0.000000
  70
    32
  0
VERTEX
  8
0
  5
99F
 10
268.339
 20
128.526
 30
0.000000
  70
    32
  0
VERTEX
  8
0
  5
9A0
 10
268.349
 20
128.524
 30
0.000000
  70
    32
  0
VERTEX
  8
0
  5
9A1
 10
268.359
 20
128.522
 30
0.000000
  70
    32
  0
VERTEX
  8
0
  5
9A2
 10
268.368
 20
128.519
 30
0.000000
  70
    32
  0
VERTEX
  8
0
  5
9A3
 10
268.378
 20
128.517
 30
0.000000
  70
    32
  0
VERTEX
  8
0
  5
9A4
 10
268.388
 20
128.515
 30
0.000000
  70
    32
  0
VERTEX
  8
0
  5
9A5
 10
268.398
 20
128.512
 30
0.000000
  70
    32
  0
VERTEX
  8
0
  5
9A6
 10
268.408
 20
128.510
 30
0.000000
  70
    32
  0
VERTEX
  8
0
  5
9A7
 10
268.418
 20
128.508
 30
0.000000
  70
    32
  0
VERTEX
  8
0
  5
9A8
 10
268.428
 20
128.505
 30
0.000000
  70
    32
  0
VERTEX
  8
0
  5
9A9
 10
268.438
 20
128.503
 30
0.000000
  70
    32
  0
VERTEX
  8
0
  5
9AA
 10
268.447
 20
128.500
 30
0.000000
  70
    32
  0
VERTEX
  8
0
  5
9AB
 10
268.457
 20
128.498
 30
0.000000
  70
    32
  0
VERTEX
  8
0
  5
9AC
 10
268.467
 20
128.495
 30
0.000000
  70
    32
  0
VERTEX
  8
0
  5
9AD
 10
268.477
 20
128.493
 30
0.000000
  70
    32
  0
VERTEX
  8
0
  5
9AE
 10
268.487
 20
128.490
 30
0.000000
  70
    32
  0
VERTEX
  8
0
  5
9AF
 10
268.496
 20
128.487
 30
0.000000
  70
    32
  0
VERTEX
  8
0
  5
9B0
 10
268.506
 20
128.485
 30
0.000000
  70
    32
  0
VERTEX
  8
0
  5
9B1
 10
268.516
 20
128.482
 30
0.000000
  70
    32
  0
VERTEX
  8
0
  5
9B2
 10
268.526
 20
128.479
 30
0.000000
  70
    32
  0
VERTEX
  8
0
  5
9B3
 10
268.536
 20
128.477
 30
0.000000
  70
    32
  0
VERTEX
  8
0
  5
9B4
 10
268.545
 20
128.474
 30
0.000000
  70
    32
  0
VERTEX
  8
0
  5
9B5
 10
268.555
 20
128.471
 30
0.000000
  70
    32
  0
VERTEX
  8
0
  5
9B6
 10
268.565
 20
128.468
 30
0.000000
  70
    32
  0
VERTEX
  8
0
  5
9B7
 10
268.574
 20
128.465
 30
0.000000
  70
    32
  0
VERTEX
  8
0
  5
9B8
 10
268.584
 20
128.462
 30
0.000000
  70
    32
  0
VERTEX
  8
0
  5
9B9
 10
268.594
 20
128.459
 30
0.000000
  70
    32
  0
VERTEX
  8
0
  5
9BA
 10
268.604
 20
128.456
 30
0.000000
  70
    32
  0
VERTEX
  8
0
  5
9BB
 10
268.613
 20
128.453
 30
0.000000
  70
    32
  0
VERTEX
  8
0
  5
9BC
 10
268.623
 20
128.450
 30
0.000000
  70
    32
  0
VERTEX
  8
0
  5
9BD
 10
268.633
 20
128.447
 30
0.000000
  70
    32
  0
VERTEX
  8
0
  5
9BE
 10
268.642
 20
128.444
 30
0.000000
  70
    32
  0
VERTEX
  8
0
  5
9BF
 10
268.652
 20
128.441
 30
0.000000
  70
    32
  0
VERTEX
  8
0
  5
9C0
 10
268.661
 20
128.437
 30
0.000000
  70
    32
  0
VERTEX
  8
0
  5
9C1
 10
268.671
 20
128.434
 30
0.000000
  70
    32
  0
VERTEX
  8
0
  5
9C2
 10
268.681
 20
128.431
 30
0.000000
  70
    32
  0
VERTEX
  8
0
  5
9C3
 10
268.690
 20
128.427
 30
0.000000
  70
    32
  0
VERTEX
  8
0
  5
9C4
 10
268.700
 20
128.424
 30
0.000000
  70
    32
  0
VERTEX
  8
0
  5
9C5
 10
268.709
 20
128.420
 30
0.000000
  70
    32
  0
VERTEX
  8
0
  5
9C6
 10
268.719
 20
128.417
 30
0.000000
  70
    32
  0
VERTEX
  8
0
  5
9C7
 10
268.728
 20
128.413
 30
0.000000
  70
    32
  0
VERTEX
  8
0
  5
9C8
 10
268.738
 20
128.410
 30
0.000000
  70
    32
  0
VERTEX
  8
0
  5
9C9
 10
268.747
 20
128.406
 30
0.000000
  70
    32
  0
VERTEX
  8
0
  5
9CA
 10
268.757
 20
128.403
 30
0.000000
  70
    32
  0
VERTEX
  8
0
  5
9CB
 10
268.766
 20
128.399
 30
0.000000
  70
    32
  0
VERTEX
  8
0
  5
9CC
 10
268.775
 20
128.395
 30
0.000000
  70
    32
  0
VERTEX
  8
0
  5
9CD
 10
268.785
 20
128.391
 30
0.000000
  70
    32
  0
VERTEX
  8
0
  5
9CE
 10
268.794
 20
128.388
 30
0.000000
  70
    32
  0
VERTEX
  8
0
  5
9CF
 10
268.804
 20
128.384
 30
0.000000
  70
    32
  0
VERTEX
  8
0
  5
9D0
 10
268.813
 20
128.380
 30
0.000000
  70
    32
  0
VERTEX
  8
0
  5
9D1
 10
268.822
 20
128.376
 30
0.000000
  70
    32
  0
VERTEX
  8
0
  5
9D2
 10
268.832
 20
128.372
 30
0.000000
  70
    32
  0
VERTEX
  8
0
  5
9D3
 10
268.841
 20
128.368
 30
0.000000
  70
    32
  0
VERTEX
  8
0
  5
9D4
 10
268.850
 20
128.364
 30
0.000000
  70
    32
  0
VERTEX
  8
0
  5
9D5
 10
268.859
 20
128.360
 30
0.000000
  70
    32
  0
VERTEX
  8
0
  5
9D6
 10
268.869
 20
128.355
 30
0.000000
  70
    32
  0
VERTEX
  8
0
  5
9D7
 10
268.878
 20
128.351
 30
0.000000
  70
    32
  0
VERTEX
  8
0
  5
9D8
 10
268.887
 20
128.347
 30
0.000000
  70
    32
  0
VERTEX
  8
0
  5
9D9
 10
268.896
 20
128.342
 30
0.000000
  70
    32
  0
VERTEX
  8
0
  5
9DA
 10
268.905
 20
128.338
 30
0.000000
  70
    32
  0
VERTEX
  8
0
  5
9DB
 10
268.914
 20
128.333
 30
0.000000
  70
    32
  0
VERTEX
  8
0
  5
9DC
 10
268.923
 20
128.329
 30
0.000000
  70
    32
  0
VERTEX
  8
0
  5
9DD
 10
268.932
 20
128.324
 30
0.000000
  70
    32
  0
VERTEX
  8
0
  5
9DE
 10
268.941
 20
128.320
 30
0.000000
  70
    32
  0
VERTEX
  8
0
  5
9DF
 10
268.950
 20
128.315
 30
0.000000
  70
    32
  0
VERTEX
  8
0
  5
9E0
 10
268.959
 20
128.310
 30
0.000000
  70
    32
  0
VERTEX
  8
0
  5
9E1
 10
268.968
 20
128.305
 30
0.000000
  70
    32
  0
VERTEX
  8
0
  5
9E2
 10
268.977
 20
128.300
 30
0.000000
  70
    32
  0
VERTEX
  8
0
  5
9E3
 10
268.986
 20
128.295
 30
0.000000
  70
    32
  0
VERTEX
  8
0
  5
9E4
 10
268.994
 20
128.290
 30
0.000000
  70
    32
  0
VERTEX
  8
0
  5
9E5
 10
269.003
 20
128.285
 30
0.000000
  70
    32
  0
VERTEX
  8
0
  5
9E6
 10
269.012
 20
128.279
 30
0.000000
  70
    32
  0
VERTEX
  8
0
  5
9E7
 10
269.020
 20
128.274
 30
0.000000
  70
    32
  0
VERTEX
  8
0
  5
9E8
 10
269.029
 20
128.268
 30
0.000000
  70
    32
  0
VERTEX
  8
0
  5
9E9
 10
269.037
 20
128.263
 30
0.000000
  70
    32
  0
VERTEX
  8
0
  5
9EA
 10
269.046
 20
128.257
 30
0.000000
  70
    32
  0
VERTEX
  8
0
  5
9EB
 10
269.054
 20
128.251
 30
0.000000
  70
    32
  0
VERTEX
  8
0
  5
9EC
 10
269.062
 20
128.245
 30
0.000000
  70
    32
  0
VERTEX
  8
0
  5
9ED
 10
269.070
 20
128.239
 30
0.000000
  70
    32
  0
VERTEX
  8
0
  5
9EE
 10
269.078
 20
128.233
 30
0.000000
  70
    32
  0
VERTEX
  8
0
  5
9EF
 10
269.087
 20
128.227
 30
0.000000
  70
    32
  0
VERTEX
  8
0
  5
9F0
 10
269.095
 20
128.220
 30
0.000000
  70
    32
  0
VERTEX
  8
0
  5
9F1
 10
269.102
 20
128.214
 30
0.000000
  70
    32
  0
VERTEX
  8
0
  5
9F2
 10
269.110
 20
128.207
 30
0.000000
  70
    32
  0
VERTEX
  8
0
  5
9F3
 10
269.118
 20
128.201
 30
0.000000
  70
    32
  0
VERTEX
  8
0
  5
9F4
 10
269.126
 20
128.194
 30
0.000000
  70
    32
  0
VERTEX
  8
0
  5
9F5
 10
269.134
 20
128.187
 30
0.000000
  70
    32
  0
VERTEX
  8
0
  5
9F6
 10
269.141
 20
128.180
 30
0.000000
  70
    32
  0
VERTEX
  8
0
  5
9F7
 10
269.149
 20
128.172
 30
0.000000
  70
    32
  0
VERTEX
  8
0
  5
9F8
 10
269.156
 20
128.165
 30
0.000000
  70
    32
  0
VERTEX
  8
0
  5
9F9
 10
269.163
 20
128.157
 30
0.000000
  70
    32
  0
VERTEX
  8
0
  5
9FA
 10
269.170
 20
128.150
 30
0.000000
  70
    32
  0
VERTEX
  8
0
  5
9FB
 10
269.177
 20
128.142
 30
0.000000
  70
    32
  0
VERTEX
  8
0
  5
9FC
 10
269.184
 20
128.134
 30
0.000000
  70
    32
  0
VERTEX
  8
0
  5
9FD
 10
269.191
 20
128.126
 30
0.000000
  70
    32
  0
VERTEX
  8
0
  5
9FE
 10
269.198
 20
128.118
 30
0.000000
  70
    32
  0
VERTEX
  8
0
  5
9FF
 10
269.204
 20
128.110
 30
0.000000
  70
    32
  0
VERTEX
  8
0
  5
A00
 10
269.210
 20
128.101
 30
0.000000
  70
    32
  0
VERTEX
  8
0
  5
A01
 10
269.216
 20
128.093
 30
0.000000
  70
    32
  0
VERTEX
  8
0
  5
A02
 10
269.222
 20
128.084
 30
0.000000
  70
    32
  0
VERTEX
  8
0
  5
A03
 10
269.228
 20
128.076
 30
0.000000
  70
    32
  0
VERTEX
  8
0
  5
A04
 10
269.233
 20
128.067
 30
0.000000
  70
    32
  0
VERTEX
  8
0
  5
A05
 10
269.238
 20
128.058
 30
0.000000
  70
    32
  0
VERTEX
  8
0
  5
A06
 10
269.243
 20
128.049
 30
0.000000
  70
    32
  0
VERTEX
  8
0
  5
A07
 10
269.248
 20
128.040
 30
0.000000
  70
    32
  0
VERTEX
  8
0
  5
A08
 10
269.252
 20
128.030
 30
0.000000
  70
    32
  0
VERTEX
  8
0
  5
A09
 10
269.256
 20
128.021
 30
0.000000
  70
    32
  0
VERTEX
  8
0
  5
A0A
 10
269.259
 20
128.012
 30
0.000000
  70
    32
  0
VERTEX
  8
0
  5
A0B
 10
269.263
 20
128.002
 30
0.000000
  70
    32
  0
VERTEX
  8
0
  5
A0C
 10
269.266
 20
127.992
 30
0.000000
  70
    32
  0
VERTEX
  8
0
  5
A0D
 10
269.268
 20
127.983
 30
0.000000
  70
    32
  0
VERTEX
  8
0
  5
A0E
 10
269.271
 20
127.973
 30
0.000000
  70
    32
  0
VERTEX
  8
0
  5
A0F
 10
269.273
 20
127.963
 30
0.000000
  70
    32
  0
VERTEX
  8
0
  5
A10
 10
269.274
 20
127.953
 30
0.000000
  70
    32
  0
VERTEX
  8
0
  5
A11
 10
269.275
 20
127.943
 30
0.000000
  70
    32
  0
VERTEX
  8
0
  5
A12
 10
269.276
 20
127.933
 30
0.000000
  70
    32
  0
VERTEX
  8
0
  5
A13
 10
269.276
 20
127.923
 30
0.000000
  70
    32
  0
SEQEND
  8
0
  5
A14
  0
ENDSEC
  0
EOF
